<svg width="800" height="230" xmlns="http://www.w3.org/2000/svg">
<rect width="800" height="230" fill="#212830"/>
<rect x="10" y="40" width="415.0493535381621" height="50" fill="#dea584"/>
<rect x="425.0493535381621" y="40" width="164.25691644654526" height="50" fill="#3572A5"/>
<rect x="589.3062699847073" y="40" width="105.87376616154596" height="50" fill="#41b883"/>
<rect x="695.1800361462533" y="40" width="74.40567218128736" height="50" fill="#3178c6"/>
<rect x="769.5857083275407" y="40" width="9.863756429862367" height="50" fill="None"/>
<rect x="779.4494647574031" y="40" width="6.325594327818712" height="50" fill="#A97BFF"/>
<rect x="785.7750590852219" y="40" width="6.033643820380927" height="50" fill="#663399"/>
<rect x="791.8087029056028" y="40" width="4.420964826915056" height="50" fill="#f1e05a"/>
<rect x="796.2296677325179" y="40" width="4.003892673432504" height="50" fill="#000000"/>
<rect x="800.2335604059504" y="40" width="3.6910885583205895" height="50" fill="#89e051"/>
<rect x="803.924648964271" y="40" width="3.2253579869317393" height="50" fill="#239dad"/>
<rect x="807.1500069512027" y="40" width="2.1340191853190604" height="50" fill="#555555"/>
<rect x="809.2840261365218" y="40" width="0.6464618378979563" height="50" fill="#0298c3"/>
<rect x="809.9304879744197" y="40" width="0.06951202558042541" height="50" fill="#e38c00"/>
<circle cx="16" cy="116" r="6" fill="#dea584" />
<text x="27" y="120" font-size="15" font-family="sans-serif" fill="#FFF">Rust (59.7k lines, 51.9%)</text>
<circle cx="266" cy="116" r="6" fill="#3572A5" />
<text x="277" y="120" font-size="15" font-family="sans-serif" fill="#FFF">Python (23.6k lines, 20.5%)</text>
<circle cx="516" cy="116" r="6" fill="#41b883" />
<text x="527" y="120" font-size="15" font-family="sans-serif" fill="#FFF">Vue (15.2k lines, 13.2%)</text>
<circle cx="16" cy="136" r="6" fill="#3178c6" />
<text x="27" y="140" font-size="15" font-family="sans-serif" fill="#FFF">TypeScript (10.7k lines, 9.3%)</text>
<circle cx="266" cy="136" r="6" fill="None" />
<text x="277" y="140" font-size="15" font-family="sans-serif" fill="#FFF">Lean (1.4k lines, 1.2%)</text>
<circle cx="516" cy="136" r="6" fill="#A97BFF" />
<text x="527" y="140" font-size="15" font-family="sans-serif" fill="#FFF">Kotlin (910 lines, 0.8%)</text>
<circle cx="16" cy="156" r="6" fill="#663399" />
<text x="27" y="160" font-size="15" font-family="sans-serif" fill="#FFF">CSS (868 lines, 0.8%)</text>
<circle cx="266" cy="156" r="6" fill="#f1e05a" />
<text x="277" y="160" font-size="15" font-family="sans-serif" fill="#FFF">JavaScript (636 lines, 0.6%)</text>
<circle cx="516" cy="156" r="6" fill="#000000" />
<text x="527" y="160" font-size="15" font-family="sans-serif" fill="#FFF">WebGPU Shad… (576 lines, 0.5%)</text>
<circle cx="16" cy="176" r="6" fill="#89e051" />
<text x="27" y="180" font-size="15" font-family="sans-serif" fill="#FFF">Shell (531 lines, 0.5%)</text>
<circle cx="266" cy="176" r="6" fill="#239dad" />
<text x="277" y="180" font-size="15" font-family="sans-serif" fill="#FFF">Typst (464 lines, 0.4%)</text>
<circle cx="516" cy="176" r="6" fill="#555555" />
<text x="527" y="180" font-size="15" font-family="sans-serif" fill="#FFF">C (307 lines, 0.3%)</text>
<circle cx="16" cy="196" r="6" fill="#0298c3" />
<text x="27" y="200" font-size="15" font-family="sans-serif" fill="#FFF">Perl (93 lines, 0.1%)</text>
<circle cx="266" cy="196" r="6" fill="#e38c00" />
<text x="277" y="200" font-size="15" font-family="sans-serif" fill="#FFF">SQL (10 lines, 0.0%)</text>
</svg>