<svg width="800" height="210" xmlns="http://www.w3.org/2000/svg">
<rect width="800" height="210" fill="#212830"/>
<rect x="10" y="40" width="385.280559164013" height="50" fill="#dea584"/>
<rect x="395.280559164013" y="40" width="156.81423661006818" height="50" fill="#3572A5"/>
<rect x="552.0947957740811" y="40" width="123.20001839355305" height="50" fill="#41b883"/>
<rect x="675.2948141676342" y="40" width="89.1167645740168" height="50" fill="#3178c6"/>
<rect x="764.4115787416509" y="40" width="15.606929771115224" height="50" fill="None"/>
<rect x="780.0185085127662" y="40" width="7.982802027889225" height="50" fill="#663399"/>
<rect x="788.0013105406554" y="40" width="6.85159851472059" height="50" fill="#f1e05a"/>
<rect x="794.8529090553759" y="40" width="6.667662984124065" height="50" fill="#A97BFF"/>
<rect x="801.5205720394999" y="40" width="4.883488337337763" height="50" fill="#89e051"/>
<rect x="806.4040603768377" y="40" width="2.6486716405899733" height="50" fill="#239dad"/>
<rect x="809.0527320174277" y="40" width="0.8553002172738456" height="50" fill="#0298c3"/>
<rect x="809.9080322347015" y="40" width="0.09196776529826296" height="50" fill="#e38c00"/>
<circle cx="16" cy="116" r="6" fill="#dea584" />
<text x="27" y="120" font-size="15" font-family="sans-serif" fill="#FFF">Rust (41.9k lines, 48.2%)</text>
<circle cx="266" cy="116" r="6" fill="#3572A5" />
<text x="277" y="120" font-size="15" font-family="sans-serif" fill="#FFF">Python (17.1k lines, 19.6%)</text>
<circle cx="516" cy="116" r="6" fill="#41b883" />
<text x="527" y="120" font-size="15" font-family="sans-serif" fill="#FFF">Vue (13.4k lines, 15.4%)</text>
<circle cx="16" cy="136" r="6" fill="#3178c6" />
<text x="27" y="140" font-size="15" font-family="sans-serif" fill="#FFF">TypeScript (9.7k lines, 11.1%)</text>
<circle cx="266" cy="136" r="6" fill="None" />
<text x="277" y="140" font-size="15" font-family="sans-serif" fill="#FFF">Lean (1.7k lines, 2.0%)</text>
<circle cx="516" cy="136" r="6" fill="#663399" />
<text x="527" y="140" font-size="15" font-family="sans-serif" fill="#FFF">CSS (868 lines, 1.0%)</text>
<circle cx="16" cy="156" r="6" fill="#f1e05a" />
<text x="27" y="160" font-size="15" font-family="sans-serif" fill="#FFF">JavaScript (745 lines, 0.9%)</text>
<circle cx="266" cy="156" r="6" fill="#A97BFF" />
<text x="277" y="160" font-size="15" font-family="sans-serif" fill="#FFF">Kotlin (725 lines, 0.8%)</text>
<circle cx="516" cy="156" r="6" fill="#89e051" />
<text x="527" y="160" font-size="15" font-family="sans-serif" fill="#FFF">Shell (531 lines, 0.6%)</text>
<circle cx="16" cy="176" r="6" fill="#239dad" />
<text x="27" y="180" font-size="15" font-family="sans-serif" fill="#FFF">Typst (288 lines, 0.3%)</text>
<circle cx="266" cy="176" r="6" fill="#0298c3" />
<text x="277" y="180" font-size="15" font-family="sans-serif" fill="#FFF">Perl (93 lines, 0.1%)</text>
<circle cx="516" cy="176" r="6" fill="#e38c00" />
<text x="527" y="180" font-size="15" font-family="sans-serif" fill="#FFF">SQL (10 lines, 0.0%)</text>
</svg>