<svg width="800" height="350" xmlns="http://www.w3.org/2000/svg">
<rect x="10" y="40" width="131.47531789863817" height="50" fill="#555555"/>
<rect x="141.47531789863817" y="40" width="116.67946795411044" height="50" fill="#b07219"/>
<rect x="258.1547858527486" y="40" width="100.09387610792095" height="50" fill="#c22d40"/>
<rect x="358.24866196066955" y="40" width="89.60901210636041" height="50" fill="#A97BFF"/>
<rect x="447.85767406702996" y="40" width="62.40200919254355" height="50" fill="#00B4AB"/>
<rect x="510.25968325957353" y="40" width="44.894724650402935" height="50" fill="#5e5086"/>
<rect x="555.1544079099765" y="40" width="43.11961279153408" height="50" fill="#888888"/>
<rect x="598.2740207015106" y="40" width="40.2570010850615" height="50" fill="#3D6117"/>
<rect x="638.5310217865721" y="40" width="31.698426051229532" height="50" fill="#3572A5"/>
<rect x="670.2294478378016" y="40" width="24.56384184923741" height="50" fill="#89e051"/>
<rect x="694.793289687039" y="40" width="23.77381953842215" height="50" fill="None"/>
<rect x="718.5671092254611" y="40" width="12.459919778598685" height="50" fill="#239dad"/>
<rect x="731.0270290040597" y="40" width="11.747924362678761" height="50" fill="#000080"/>
<rect x="742.7749533667385" y="40" width="10.445850554112871" height="50" fill="#888888"/>
<rect x="753.2208039208514" y="40" width="9.05111980785877" height="50" fill="#dea584"/>
<rect x="762.2719237287101" y="40" width="8.05627689794326" height="50" fill="#888888"/>
<rect x="770.3282006266534" y="40" width="7.636882337880838" height="50" fill="#f34b7d"/>
<rect x="777.9650829645342" y="40" width="7.636882337880838" height="50" fill="#e38c00"/>
<rect x="785.601965302415" y="40" width="4.213452324348048" height="50" fill="#ec915c"/>
<rect x="789.8154176267631" y="40" width="3.7062775075283763" height="50" fill="#888888"/>
<rect x="793.5216951342915" y="40" width="3.3405264377064965" height="50" fill="#DA3434"/>
<rect x="796.8622215719979" y="40" width="2.6139009789936964" height="50" fill="#888888"/>
<rect x="799.4761225509916" y="40" width="2.4237104226863195" height="50" fill="#427819"/>
<rect x="801.8998329736779" y="40" width="2.140862928690733" height="50" fill="#888888"/>
<rect x="804.0406959023686" y="40" width="1.5312778123209343" height="50" fill="#384d54"/>
<rect x="805.5719737146895" y="40" width="1.0728698048108458" height="50" fill="#B83998"/>
<rect x="806.6448435195003" y="40" width="0.8095290345390928" height="50" fill="#199f4b"/>
<rect x="807.4543725540394" y="40" width="0.7948989917462176" height="50" fill="#888888"/>
<rect x="808.2492715457856" y="40" width="0.7607622252295088" height="50" fill="#db5855"/>
<rect x="809.0100337710152" y="40" width="0.5022981358887142" height="50" fill="#0050b2"/>
<rect x="809.5123319069039" y="40" width="0.487668093095839" height="50" fill="#701516"/>
<circle cx="16" cy="116" r="6" fill="#555555" />
<text x="27" y="120" font-size="15" font-family="sans-serif" fill="#FFF">C (26960 lines, 16.4%)</text>
<circle cx="266" cy="116" r="6" fill="#b07219" />
<text x="277" y="120" font-size="15" font-family="sans-serif" fill="#FFF">Java (23926 lines, 14.6%)</text>
<circle cx="516" cy="116" r="6" fill="#c22d40" />
<text x="527" y="120" font-size="15" font-family="sans-serif" fill="#FFF">Scala (20525 lines, 12.5%)</text>
<circle cx="16" cy="136" r="6" fill="#A97BFF" />
<text x="27" y="140" font-size="15" font-family="sans-serif" fill="#FFF">Kotlin (18375 lines, 11.2%)</text>
<circle cx="266" cy="136" r="6" fill="#00B4AB" />
<text x="277" y="140" font-size="15" font-family="sans-serif" fill="#FFF">Dart (12796 lines, 7.8%)</text>
<circle cx="516" cy="136" r="6" fill="#5e5086" />
<text x="527" y="140" font-size="15" font-family="sans-serif" fill="#FFF">Haskell (9206 lines, 5.6%)</text>
<circle cx="16" cy="156" r="6" fill="#888888" />
<text x="27" y="160" font-size="15" font-family="sans-serif" fill="#FFF">C Header (8842 lines, 5.4%)</text>
<circle cx="266" cy="156" r="6" fill="#3D6117" />
<text x="277" y="160" font-size="15" font-family="sans-serif" fill="#FFF">TeX (8255 lines, 5.0%)</text>
<circle cx="516" cy="156" r="6" fill="#3572A5" />
<text x="527" y="160" font-size="15" font-family="sans-serif" fill="#FFF">Python (6500 lines, 4.0%)</text>
<circle cx="16" cy="176" r="6" fill="#89e051" />
<text x="27" y="180" font-size="15" font-family="sans-serif" fill="#FFF">Shell (5037 lines, 3.1%)</text>
<circle cx="266" cy="176" r="6" fill="None" />
<text x="277" y="180" font-size="15" font-family="sans-serif" fill="#FFF">Lean (4875 lines, 3.0%)</text>
<circle cx="516" cy="176" r="6" fill="#239dad" />
<text x="527" y="180" font-size="15" font-family="sans-serif" fill="#FFF">Typst (2555 lines, 1.6%)</text>
<circle cx="16" cy="196" r="6" fill="#000080" />
<text x="27" y="200" font-size="15" font-family="sans-serif" fill="#FFF">Lua (2409 lines, 1.5%)</text>
<circle cx="266" cy="196" r="6" fill="#888888" />
<text x="277" y="200" font-size="15" font-family="sans-serif" fill="#FFF">GNU Style Assembly (2142 lines, 1.3%)</text>
<circle cx="516" cy="196" r="6" fill="#dea584" />
<text x="527" y="200" font-size="15" font-family="sans-serif" fill="#FFF">Rust (1856 lines, 1.1%)</text>
<circle cx="16" cy="216" r="6" fill="#888888" />
<text x="27" y="220" font-size="15" font-family="sans-serif" fill="#FFF">Batch (1652 lines, 1.0%)</text>
<circle cx="266" cy="216" r="6" fill="#f34b7d" />
<text x="277" y="220" font-size="15" font-family="sans-serif" fill="#FFF">C++ (1566 lines, 1.0%)</text>
<circle cx="516" cy="216" r="6" fill="#e38c00" />
<text x="527" y="220" font-size="15" font-family="sans-serif" fill="#FFF">SQL (1566 lines, 1.0%)</text>
<circle cx="16" cy="236" r="6" fill="#ec915c" />
<text x="27" y="240" font-size="15" font-family="sans-serif" fill="#FFF">Zig (864 lines, 0.5%)</text>
<circle cx="266" cy="236" r="6" fill="#888888" />
<text x="277" y="240" font-size="15" font-family="sans-serif" fill="#FFF">WebGPU Shader Language (760 lines, 0.5%)</text>
<circle cx="516" cy="236" r="6" fill="#DA3434" />
<text x="527" y="240" font-size="15" font-family="sans-serif" fill="#FFF">CMake (685 lines, 0.4%)</text>
<circle cx="16" cy="256" r="6" fill="#888888" />
<text x="27" y="260" font-size="15" font-family="sans-serif" fill="#FFF">Cabal (536 lines, 0.3%)</text>
<circle cx="266" cy="256" r="6" fill="#427819" />
<text x="277" y="260" font-size="15" font-family="sans-serif" fill="#FFF">Makefile (497 lines, 0.3%)</text>
<circle cx="516" cy="256" r="6" fill="#888888" />
<text x="527" y="260" font-size="15" font-family="sans-serif" fill="#FFF">Templ (439 lines, 0.3%)</text>
<circle cx="16" cy="276" r="6" fill="#384d54" />
<text x="27" y="280" font-size="15" font-family="sans-serif" fill="#FFF">Dockerfile (314 lines, 0.2%)</text>
<circle cx="266" cy="276" r="6" fill="#B83998" />
<text x="277" y="280" font-size="15" font-family="sans-serif" fill="#FFF">Erlang (220 lines, 0.1%)</text>
<circle cx="516" cy="276" r="6" fill="#199f4b" />
<text x="527" y="280" font-size="15" font-family="sans-serif" fill="#FFF">Vim Script (166 lines, 0.1%)</text>
<circle cx="16" cy="296" r="6" fill="#888888" />
<text x="27" y="300" font-size="15" font-family="sans-serif" fill="#FFF">Bitbake (163 lines, 0.1%)</text>
<circle cx="266" cy="296" r="6" fill="#db5855" />
<text x="277" y="300" font-size="15" font-family="sans-serif" fill="#FFF">Clojure (156 lines, 0.1%)</text>
<circle cx="516" cy="296" r="6" fill="#0050b2" />
<text x="527" y="300" font-size="15" font-family="sans-serif" fill="#FFF">FreeMarker (103 lines, 0.1%)</text>
<circle cx="16" cy="316" r="6" fill="#701516" />
<text x="27" y="320" font-size="15" font-family="sans-serif" fill="#FFF">Ruby (100 lines, 0.1%)</text>
</svg>