<svg width="800" height="270" xmlns="http://www.w3.org/2000/svg">
<rect width="800" height="270" fill="#212830"/>
<rect x="10" y="40" width="222.22350064720268" height="50" fill="#00B4AB"/>
<rect x="232.22350064720268" y="40" width="91.24119085286925" height="50" fill="#c22d40"/>
<rect x="323.4646915000719" y="40" width="67.93038975981591" height="50" fill="#b07219"/>
<rect x="391.39508125988783" y="40" width="59.43909103983892" height="50" fill="#5e5086"/>
<rect x="450.83417229972673" y="40" width="55.75722709621746" height="50" fill="#000080"/>
<rect x="506.5913993959442" y="40" width="50.09636128289947" height="50" fill="#3572A5"/>
<rect x="556.6877606788437" y="40" width="40.43146843089314" height="50" fill="#dea584"/>
<rect x="597.1192291097368" y="40" width="32.97569394505969" height="50" fill="#555555"/>
<rect x="630.0949230547965" y="40" width="26.141233999712355" height="50" fill="#239dad"/>
<rect x="656.2361570545088" y="40" width="23.81705738530131" height="50" fill="None"/>
<rect x="680.0532144398101" y="40" width="21.722997267366605" height="50" fill="#f34b7d"/>
<rect x="701.7762117071767" y="40" width="21.676973968071337" height="50" fill="#3D6117"/>
<rect x="723.453185675248" y="40" width="19.882065295555876" height="50" fill="#ec915c"/>
<rect x="743.3352509708039" y="40" width="17.488853732201928" height="50" fill="#000000"/>
<rect x="760.8241047030059" y="40" width="12.518337408312957" height="50" fill="#DA3434"/>
<rect x="773.3424421113189" y="40" width="11.06860348051201" height="50" fill="#A97BFF"/>
<rect x="784.4110455918309" y="40" width="7.018553142528406" height="50" fill="#000000"/>
<rect x="791.4295987343593" y="40" width="6.76542499640443" height="50" fill="#89e051"/>
<rect x="798.1950237307638" y="40" width="6.37422695239465" height="50" fill="#199f4b"/>
<rect x="804.5692506831584" y="40" width="3.1295843520782394" height="50" fill="#427819"/>
<rect x="807.6988350352367" y="40" width="2.3011649647634114" height="50" fill="#db5855"/>
<circle cx="16" cy="116" r="6" fill="#00B4AB" />
<text x="27" y="120" font-size="15" font-family="sans-serif" fill="#FFF">Dart (9.7k lines, 27.8%)</text>
<circle cx="266" cy="116" r="6" fill="#c22d40" />
<text x="277" y="120" font-size="15" font-family="sans-serif" fill="#FFF">Scala (4.0k lines, 11.4%)</text>
<circle cx="516" cy="116" r="6" fill="#b07219" />
<text x="527" y="120" font-size="15" font-family="sans-serif" fill="#FFF">Java (3.0k lines, 8.5%)</text>
<circle cx="16" cy="136" r="6" fill="#5e5086" />
<text x="27" y="140" font-size="15" font-family="sans-serif" fill="#FFF">Haskell (2.6k lines, 7.4%)</text>
<circle cx="266" cy="136" r="6" fill="#000080" />
<text x="277" y="140" font-size="15" font-family="sans-serif" fill="#FFF">Lua (2.4k lines, 7.0%)</text>
<circle cx="516" cy="136" r="6" fill="#3572A5" />
<text x="527" y="140" font-size="15" font-family="sans-serif" fill="#FFF">Python (2.2k lines, 6.3%)</text>
<circle cx="16" cy="156" r="6" fill="#dea584" />
<text x="27" y="160" font-size="15" font-family="sans-serif" fill="#FFF">Rust (1.8k lines, 5.1%)</text>
<circle cx="266" cy="156" r="6" fill="#555555" />
<text x="277" y="160" font-size="15" font-family="sans-serif" fill="#FFF">C (1.4k lines, 4.1%)</text>
<circle cx="516" cy="156" r="6" fill="#239dad" />
<text x="527" y="160" font-size="15" font-family="sans-serif" fill="#FFF">Typst (1.1k lines, 3.3%)</text>
<circle cx="16" cy="176" r="6" fill="None" />
<text x="27" y="180" font-size="15" font-family="sans-serif" fill="#FFF">Lean (1.0k lines, 3.0%)</text>
<circle cx="266" cy="176" r="6" fill="#f34b7d" />
<text x="277" y="180" font-size="15" font-family="sans-serif" fill="#FFF">C++ (944 lines, 2.7%)</text>
<circle cx="516" cy="176" r="6" fill="#3D6117" />
<text x="527" y="180" font-size="15" font-family="sans-serif" fill="#FFF">TeX (942 lines, 2.7%)</text>
<circle cx="16" cy="196" r="6" fill="#ec915c" />
<text x="27" y="200" font-size="15" font-family="sans-serif" fill="#FFF">Zig (864 lines, 2.5%)</text>
<circle cx="266" cy="196" r="6" fill="#000000" />
<text x="277" y="200" font-size="15" font-family="sans-serif" fill="#FFF">WebGPU Shad… (760 lines, 2.2%)</text>
<circle cx="516" cy="196" r="6" fill="#DA3434" />
<text x="527" y="200" font-size="15" font-family="sans-serif" fill="#FFF">CMake (544 lines, 1.6%)</text>
<circle cx="16" cy="216" r="6" fill="#A97BFF" />
<text x="27" y="220" font-size="15" font-family="sans-serif" fill="#FFF">Kotlin (481 lines, 1.4%)</text>
<circle cx="266" cy="216" r="6" fill="#000000" />
<text x="277" y="220" font-size="15" font-family="sans-serif" fill="#FFF">C Header (305 lines, 0.9%)</text>
<circle cx="516" cy="216" r="6" fill="#89e051" />
<text x="527" y="220" font-size="15" font-family="sans-serif" fill="#FFF">Shell (294 lines, 0.8%)</text>
<circle cx="16" cy="236" r="6" fill="#199f4b" />
<text x="27" y="240" font-size="15" font-family="sans-serif" fill="#FFF">Vim Script (277 lines, 0.8%)</text>
<circle cx="266" cy="236" r="6" fill="#427819" />
<text x="277" y="240" font-size="15" font-family="sans-serif" fill="#FFF">Makefile (136 lines, 0.4%)</text>
<circle cx="516" cy="236" r="6" fill="#db5855" />
<text x="527" y="240" font-size="15" font-family="sans-serif" fill="#FFF">Clojure (100 lines, 0.3%)</text>
</svg>