<svg width="800" height="290" xmlns="http://www.w3.org/2000/svg">
<rect width="800" height="290" fill="#212830"/>
<rect x="10" y="40" width="193.58109724015878" height="50" fill="#00B4AB"/>
<rect x="203.58109724015878" y="40" width="151.2603434256469" height="50" fill="#dea584"/>
<rect x="354.8414406658057" y="40" width="61.88676838698362" height="50" fill="#c22d40"/>
<rect x="416.72820905278934" y="40" width="52.460898263739416" height="50" fill="#A97BFF"/>
<rect x="469.18910731652875" y="40" width="52.027231708678116" height="50" fill="#ec915c"/>
<rect x="521.2163390252068" y="40" width="38.149901946716405" height="50" fill="None"/>
<rect x="559.3662409719233" y="40" width="37.65246089826374" height="50" fill="#b07219"/>
<rect x="597.018701870187" y="40" width="35.80300058991406" height="50" fill="#3572A5"/>
<rect x="632.821702460101" y="40" width="33.21375615822452" height="50" fill="#5e5086"/>
<rect x="666.0354586183256" y="40" width="30.94338419349181" height="50" fill="#000080"/>
<rect x="696.9788428118175" y="40" width="29.514835541525166" height="50" fill="#239dad"/>
<rect x="726.4936783533426" y="40" width="18.277769805966106" height="50" fill="#555555"/>
<rect x="744.7714481593088" y="40" width="12.040624352290301" height="50" fill="#f34b7d"/>
<rect x="756.812072511599" y="40" width="12.015114554933755" height="50" fill="#3D6117"/>
<rect x="768.8271870665328" y="40" width="11.186046140845969" height="50" fill="#000000"/>
<rect x="780.0132332073788" y="40" width="8.62231150651297" height="50" fill="#89e051"/>
<rect x="788.6355447138917" y="40" width="6.938664880980853" height="50" fill="#DA3434"/>
<rect x="795.5742095948725" y="40" width="3.8902440968734555" height="50" fill="#000000"/>
<rect x="799.4644536917459" y="40" width="3.533106933881794" height="50" fill="#199f4b"/>
<rect x="802.9975606256277" y="40" width="2.5254699382981776" height="50" fill="#427819"/>
<rect x="805.5230305639259" y="40" width="1.6836466255321185" height="50" fill="#000000"/>
<rect x="807.206677189458" y="40" width="1.5178329427145614" height="50" fill="#41b883"/>
<rect x="808.7245101321726" y="40" width="1.2754898678273623" height="50" fill="#db5855"/>
<circle cx="16" cy="116" r="6" fill="#00B4AB" />
<text x="27" y="120" font-size="15" font-family="sans-serif" fill="#FFF">Dart (15.2k lines, 24.2%)</text>
<circle cx="266" cy="116" r="6" fill="#dea584" />
<text x="277" y="120" font-size="15" font-family="sans-serif" fill="#FFF">Rust (11.9k lines, 18.9%)</text>
<circle cx="516" cy="116" r="6" fill="#c22d40" />
<text x="527" y="120" font-size="15" font-family="sans-serif" fill="#FFF">Scala (4.9k lines, 7.7%)</text>
<circle cx="16" cy="136" r="6" fill="#A97BFF" />
<text x="27" y="140" font-size="15" font-family="sans-serif" fill="#FFF">Kotlin (4.1k lines, 6.6%)</text>
<circle cx="266" cy="136" r="6" fill="#ec915c" />
<text x="277" y="140" font-size="15" font-family="sans-serif" fill="#FFF">Zig (4.1k lines, 6.5%)</text>
<circle cx="516" cy="136" r="6" fill="None" />
<text x="527" y="140" font-size="15" font-family="sans-serif" fill="#FFF">Lean (3.0k lines, 4.8%)</text>
<circle cx="16" cy="156" r="6" fill="#b07219" />
<text x="27" y="160" font-size="15" font-family="sans-serif" fill="#FFF">Java (3.0k lines, 4.7%)</text>
<circle cx="266" cy="156" r="6" fill="#3572A5" />
<text x="277" y="160" font-size="15" font-family="sans-serif" fill="#FFF">Python (2.8k lines, 4.5%)</text>
<circle cx="516" cy="156" r="6" fill="#5e5086" />
<text x="527" y="160" font-size="15" font-family="sans-serif" fill="#FFF">Haskell (2.6k lines, 4.2%)</text>
<circle cx="16" cy="176" r="6" fill="#000080" />
<text x="27" y="180" font-size="15" font-family="sans-serif" fill="#FFF">Lua (2.4k lines, 3.9%)</text>
<circle cx="266" cy="176" r="6" fill="#239dad" />
<text x="277" y="180" font-size="15" font-family="sans-serif" fill="#FFF">Typst (2.3k lines, 3.7%)</text>
<circle cx="516" cy="176" r="6" fill="#555555" />
<text x="527" y="180" font-size="15" font-family="sans-serif" fill="#FFF">C (1.4k lines, 2.3%)</text>
<circle cx="16" cy="196" r="6" fill="#f34b7d" />
<text x="27" y="200" font-size="15" font-family="sans-serif" fill="#FFF">C++ (944 lines, 1.5%)</text>
<circle cx="266" cy="196" r="6" fill="#3D6117" />
<text x="277" y="200" font-size="15" font-family="sans-serif" fill="#FFF">TeX (942 lines, 1.5%)</text>
<circle cx="516" cy="196" r="6" fill="#000000" />
<text x="527" y="200" font-size="15" font-family="sans-serif" fill="#FFF">WebGPU Shad… (877 lines, 1.4%)</text>
<circle cx="16" cy="216" r="6" fill="#89e051" />
<text x="27" y="220" font-size="15" font-family="sans-serif" fill="#FFF">Shell (676 lines, 1.1%)</text>
<circle cx="266" cy="216" r="6" fill="#DA3434" />
<text x="277" y="220" font-size="15" font-family="sans-serif" fill="#FFF">CMake (544 lines, 0.9%)</text>
<circle cx="516" cy="216" r="6" fill="#000000" />
<text x="527" y="220" font-size="15" font-family="sans-serif" fill="#FFF">C Header (305 lines, 0.5%)</text>
<circle cx="16" cy="236" r="6" fill="#199f4b" />
<text x="27" y="240" font-size="15" font-family="sans-serif" fill="#FFF">Vim Script (277 lines, 0.4%)</text>
<circle cx="266" cy="236" r="6" fill="#427819" />
<text x="277" y="240" font-size="15" font-family="sans-serif" fill="#FFF">Makefile (198 lines, 0.3%)</text>
<circle cx="516" cy="236" r="6" fill="#000000" />
<text x="527" y="240" font-size="15" font-family="sans-serif" fill="#FFF">Batch (132 lines, 0.2%)</text>
<circle cx="16" cy="256" r="6" fill="#41b883" />
<text x="27" y="260" font-size="15" font-family="sans-serif" fill="#FFF">Vue (119 lines, 0.2%)</text>
<circle cx="266" cy="256" r="6" fill="#db5855" />
<text x="277" y="260" font-size="15" font-family="sans-serif" fill="#FFF">Clojure (100 lines, 0.2%)</text>
</svg>