<svg width="800" height="270" xmlns="http://www.w3.org/2000/svg">
<rect width="800" height="270" fill="#212830"/>
<text x="10" y="30" font-size="18" font-family="sans-serif" fill="#FFF" font-weight="bold">Public Code Lines by Language</text>
<rect x="10" y="60" width="250.9735830336103" height="50" fill="#00B4AB"/>
<rect x="260.97358303361034" y="60" width="80.2348174790194" height="50" fill="#c22d40"/>
<rect x="341.20840051262974" y="60" width="67.4521476704287" height="50" fill="#ec915c"/>
<rect x="408.66054818305844" y="60" width="49.46049857373187" height="50" fill="None"/>
<rect x="458.1210467567903" y="60" width="48.81557732853776" height="50" fill="#b07219"/>
<rect x="506.93662408532805" y="60" width="43.06089544834429" height="50" fill="#5e5086"/>
<rect x="549.9975195336723" y="60" width="40.1174087395097" height="50" fill="#000080"/>
<rect x="590.1149282731819" y="60" width="38.26532721484973" height="50" fill="#239dad"/>
<rect x="628.3802554880317" y="60" width="37.62040596965563" height="50" fill="#3572A5"/>
<rect x="666.0006614576873" y="60" width="29.054528918103266" height="50" fill="#dea584"/>
<rect x="695.0551903757906" y="60" width="23.69672165033693" height="50" fill="#555555"/>
<rect x="718.7519120261276" y="60" width="17.197899871842573" height="50" fill="#A97BFF"/>
<rect x="735.9498118979701" y="60" width="15.610401422134027" height="50" fill="#f34b7d"/>
<rect x="751.5602133201041" y="60" width="15.577328537765101" height="50" fill="#3D6117"/>
<rect x="767.1375418578692" y="60" width="12.56769606019265" height="50" fill="#000000"/>
<rect x="779.7052379180619" y="60" width="8.995824548348423" height="50" fill="#DA3434"/>
<rect x="788.7010624664103" y="60" width="7.226425234610774" height="50" fill="#89e051"/>
<rect x="795.9274877010212" y="60" width="5.043614866261524" height="50" fill="#000000"/>
<rect x="800.9711025672827" y="60" width="4.580594485096531" height="50" fill="#199f4b"/>
<rect x="805.5516970523793" y="60" width="2.794658729174418" height="50" fill="#427819"/>
<rect x="808.3463557815537" y="60" width="1.6536442184464013" height="50" fill="#db5855"/>
<circle cx="16" cy="136" r="6" fill="#00B4AB" />
<text x="27" y="140" font-size="15" font-family="sans-serif" fill="#FFF">Dart (15.2k lines, 31.4%)</text>
<circle cx="266" cy="136" r="6" fill="#c22d40" />
<text x="277" y="140" font-size="15" font-family="sans-serif" fill="#FFF">Scala (4.9k lines, 10.0%)</text>
<circle cx="516" cy="136" r="6" fill="#ec915c" />
<text x="527" y="140" font-size="15" font-family="sans-serif" fill="#FFF">Zig (4.1k lines, 8.4%)</text>
<circle cx="16" cy="156" r="6" fill="None" />
<text x="27" y="160" font-size="15" font-family="sans-serif" fill="#FFF">Lean (3.0k lines, 6.2%)</text>
<circle cx="266" cy="156" r="6" fill="#b07219" />
<text x="277" y="160" font-size="15" font-family="sans-serif" fill="#FFF">Java (3.0k lines, 6.1%)</text>
<circle cx="516" cy="156" r="6" fill="#5e5086" />
<text x="527" y="160" font-size="15" font-family="sans-serif" fill="#FFF">Haskell (2.6k lines, 5.4%)</text>
<circle cx="16" cy="176" r="6" fill="#000080" />
<text x="27" y="180" font-size="15" font-family="sans-serif" fill="#FFF">Lua (2.4k lines, 5.0%)</text>
<circle cx="266" cy="176" r="6" fill="#239dad" />
<text x="277" y="180" font-size="15" font-family="sans-serif" fill="#FFF">Typst (2.3k lines, 4.8%)</text>
<circle cx="516" cy="176" r="6" fill="#3572A5" />
<text x="527" y="180" font-size="15" font-family="sans-serif" fill="#FFF">Python (2.3k lines, 4.7%)</text>
<circle cx="16" cy="196" r="6" fill="#dea584" />
<text x="27" y="200" font-size="15" font-family="sans-serif" fill="#FFF">Rust (1.8k lines, 3.6%)</text>
<circle cx="266" cy="196" r="6" fill="#555555" />
<text x="277" y="200" font-size="15" font-family="sans-serif" fill="#FFF">C (1.4k lines, 3.0%)</text>
<circle cx="516" cy="196" r="6" fill="#A97BFF" />
<text x="527" y="200" font-size="15" font-family="sans-serif" fill="#FFF">Kotlin (1.0k lines, 2.1%)</text>
<circle cx="16" cy="216" r="6" fill="#f34b7d" />
<text x="27" y="220" font-size="15" font-family="sans-serif" fill="#FFF">C++ (944 lines, 2.0%)</text>
<circle cx="266" cy="216" r="6" fill="#3D6117" />
<text x="277" y="220" font-size="15" font-family="sans-serif" fill="#FFF">TeX (942 lines, 1.9%)</text>
<circle cx="516" cy="216" r="6" fill="#000000" />
<text x="527" y="220" font-size="15" font-family="sans-serif" fill="#FFF">WebGPU Shad… (760 lines, 1.6%)</text>
<circle cx="16" cy="236" r="6" fill="#DA3434" />
<text x="27" y="240" font-size="15" font-family="sans-serif" fill="#FFF">CMake (544 lines, 1.1%)</text>
<circle cx="266" cy="236" r="6" fill="#89e051" />
<text x="277" y="240" font-size="15" font-family="sans-serif" fill="#FFF">Shell (437 lines, 0.9%)</text>
<circle cx="516" cy="236" r="6" fill="#000000" />
<text x="527" y="240" font-size="15" font-family="sans-serif" fill="#FFF">C Header (305 lines, 0.6%)</text>
<circle cx="16" cy="256" r="6" fill="#199f4b" />
<text x="27" y="260" font-size="15" font-family="sans-serif" fill="#FFF">Vim Script (277 lines, 0.6%)</text>
<circle cx="266" cy="256" r="6" fill="#427819" />
<text x="277" y="260" font-size="15" font-family="sans-serif" fill="#FFF">Makefile (169 lines, 0.3%)</text>
<circle cx="516" cy="256" r="6" fill="#db5855" />
<text x="527" y="260" font-size="15" font-family="sans-serif" fill="#FFF">Clojure (100 lines, 0.2%)</text>
</svg>