<svg width="800" height="290" xmlns="http://www.w3.org/2000/svg">
<rect width="800" height="290" fill="#212830"/>
<rect x="10" y="40" width="193.59961731643148" height="50" fill="#00B4AB"/>
<rect x="203.59961731643148" y="40" width="151.2748146376465" height="50" fill="#dea584"/>
<rect x="354.874431954078" y="40" width="61.892689149326316" height="50" fill="#c22d40"/>
<rect x="416.7671211034043" y="40" width="52.46591724467831" height="50" fill="#A97BFF"/>
<rect x="469.2330383480826" y="40" width="52.0322092003508" height="50" fill="#ec915c"/>
<rect x="521.2652475484334" y="40" width="38.15355178187036" height="50" fill="None"/>
<rect x="559.4187993303037" y="40" width="37.6560631427888" height="50" fill="#b07219"/>
<rect x="597.0748624730925" y="40" width="35.80642589492147" height="50" fill="#3572A5"/>
<rect x="632.881288368014" y="40" width="33.2169337479072" height="50" fill="#5e5086"/>
<rect x="666.0982221159212" y="40" width="30.946344574663158" height="50" fill="#000080"/>
<rect x="697.0445666905844" y="40" width="29.51765925217253" height="50" fill="#239dad"/>
<rect x="726.5622259427569" y="40" width="18.279518456509606" height="50" fill="#555555"/>
<rect x="744.8417443992664" y="40" width="12.0417762895639" height="50" fill="#f34b7d"/>
<rect x="756.8835206888303" y="40" width="12.016264051662281" height="50" fill="#3D6117"/>
<rect x="768.8997847404926" y="40" width="11.187116319859683" height="50" fill="#000000"/>
<rect x="780.0869010603523" y="40" width="8.546599697042174" height="50" fill="#89e051"/>
<rect x="788.6335007573945" y="40" width="6.939328709240214" height="50" fill="#DA3434"/>
<rect x="795.5728294666346" y="40" width="3.890616279996811" height="50" fill="#000000"/>
<rect x="799.4634457466315" y="40" width="3.533444949374153" height="50" fill="#199f4b"/>
<rect x="802.9968906960056" y="40" width="2.525711552260225" height="50" fill="#427819"/>
<rect x="805.5226022482658" y="40" width="1.6838077015068165" height="50" fill="#000000"/>
<rect x="807.2064099497726" y="40" width="1.5179781551462965" height="50" fill="#41b883"/>
<rect x="808.724388104919" y="40" width="1.2756118950809217" height="50" fill="#db5855"/>
<circle cx="16" cy="116" r="6" fill="#00B4AB" />
<text x="27" y="120" font-size="15" font-family="sans-serif" fill="#FFF">Dart (15.2k lines, 24.2%)</text>
<circle cx="266" cy="116" r="6" fill="#dea584" />
<text x="277" y="120" font-size="15" font-family="sans-serif" fill="#FFF">Rust (11.9k lines, 18.9%)</text>
<circle cx="516" cy="116" r="6" fill="#c22d40" />
<text x="527" y="120" font-size="15" font-family="sans-serif" fill="#FFF">Scala (4.9k lines, 7.7%)</text>
<circle cx="16" cy="136" r="6" fill="#A97BFF" />
<text x="27" y="140" font-size="15" font-family="sans-serif" fill="#FFF">Kotlin (4.1k lines, 6.6%)</text>
<circle cx="266" cy="136" r="6" fill="#ec915c" />
<text x="277" y="140" font-size="15" font-family="sans-serif" fill="#FFF">Zig (4.1k lines, 6.5%)</text>
<circle cx="516" cy="136" r="6" fill="None" />
<text x="527" y="140" font-size="15" font-family="sans-serif" fill="#FFF">Lean (3.0k lines, 4.8%)</text>
<circle cx="16" cy="156" r="6" fill="#b07219" />
<text x="27" y="160" font-size="15" font-family="sans-serif" fill="#FFF">Java (3.0k lines, 4.7%)</text>
<circle cx="266" cy="156" r="6" fill="#3572A5" />
<text x="277" y="160" font-size="15" font-family="sans-serif" fill="#FFF">Python (2.8k lines, 4.5%)</text>
<circle cx="516" cy="156" r="6" fill="#5e5086" />
<text x="527" y="160" font-size="15" font-family="sans-serif" fill="#FFF">Haskell (2.6k lines, 4.2%)</text>
<circle cx="16" cy="176" r="6" fill="#000080" />
<text x="27" y="180" font-size="15" font-family="sans-serif" fill="#FFF">Lua (2.4k lines, 3.9%)</text>
<circle cx="266" cy="176" r="6" fill="#239dad" />
<text x="277" y="180" font-size="15" font-family="sans-serif" fill="#FFF">Typst (2.3k lines, 3.7%)</text>
<circle cx="516" cy="176" r="6" fill="#555555" />
<text x="527" y="180" font-size="15" font-family="sans-serif" fill="#FFF">C (1.4k lines, 2.3%)</text>
<circle cx="16" cy="196" r="6" fill="#f34b7d" />
<text x="27" y="200" font-size="15" font-family="sans-serif" fill="#FFF">C++ (944 lines, 1.5%)</text>
<circle cx="266" cy="196" r="6" fill="#3D6117" />
<text x="277" y="200" font-size="15" font-family="sans-serif" fill="#FFF">TeX (942 lines, 1.5%)</text>
<circle cx="516" cy="196" r="6" fill="#000000" />
<text x="527" y="200" font-size="15" font-family="sans-serif" fill="#FFF">WebGPU Shad… (877 lines, 1.4%)</text>
<circle cx="16" cy="216" r="6" fill="#89e051" />
<text x="27" y="220" font-size="15" font-family="sans-serif" fill="#FFF">Shell (670 lines, 1.1%)</text>
<circle cx="266" cy="216" r="6" fill="#DA3434" />
<text x="277" y="220" font-size="15" font-family="sans-serif" fill="#FFF">CMake (544 lines, 0.9%)</text>
<circle cx="516" cy="216" r="6" fill="#000000" />
<text x="527" y="220" font-size="15" font-family="sans-serif" fill="#FFF">C Header (305 lines, 0.5%)</text>
<circle cx="16" cy="236" r="6" fill="#199f4b" />
<text x="27" y="240" font-size="15" font-family="sans-serif" fill="#FFF">Vim Script (277 lines, 0.4%)</text>
<circle cx="266" cy="236" r="6" fill="#427819" />
<text x="277" y="240" font-size="15" font-family="sans-serif" fill="#FFF">Makefile (198 lines, 0.3%)</text>
<circle cx="516" cy="236" r="6" fill="#000000" />
<text x="527" y="240" font-size="15" font-family="sans-serif" fill="#FFF">Batch (132 lines, 0.2%)</text>
<circle cx="16" cy="256" r="6" fill="#41b883" />
<text x="27" y="260" font-size="15" font-family="sans-serif" fill="#FFF">Vue (119 lines, 0.2%)</text>
<circle cx="266" cy="256" r="6" fill="#db5855" />
<text x="277" y="260" font-size="15" font-family="sans-serif" fill="#FFF">Clojure (100 lines, 0.2%)</text>
</svg>