<svg width="800" height="270" xmlns="http://www.w3.org/2000/svg">
<rect x="10" y="40" width="204.75461560088718" height="50" fill="#00B4AB"/>
<rect x="214.75461560088718" y="40" width="99.09093749023774" height="50" fill="#c22d40"/>
<rect x="313.8455530911249" y="40" width="73.77463996751116" height="50" fill="#b07219"/>
<rect x="387.62019305863606" y="40" width="64.55280997157227" height="50" fill="#5e5086"/>
<rect x="452.17300303020835" y="40" width="60.479210271469185" height="50" fill="#000080"/>
<rect x="512.6522133016775" y="40" width="43.90990596982287" height="50" fill="#dea584"/>
<rect x="556.5621192715004" y="40" width="35.81268938802287" height="50" fill="#555555"/>
<rect x="592.3748086595232" y="40" width="28.390240854706192" height="50" fill="#239dad"/>
<rect x="620.7650495142294" y="40" width="26.365936709256193" height="50" fill="#3572A5"/>
<rect x="647.1309862234856" y="40" width="25.866108525194463" height="50" fill="None"/>
<rect x="672.9970947486801" y="40" width="23.5918902877136" height="50" fill="#f34b7d"/>
<rect x="696.5889850363936" y="40" width="23.541907469307425" height="50" fill="#3D6117"/>
<rect x="720.130892505701" y="40" width="21.592577551466682" height="50" fill="#ec915c"/>
<rect x="741.7234700571677" y="40" width="18.993470994345692" height="50" fill="#000000"/>
<rect x="760.7169410515133" y="40" width="13.595326606479023" height="50" fill="#DA3434"/>
<rect x="774.3122676579924" y="40" width="7.897285308175314" height="50" fill="#A97BFF"/>
<rect x="782.2095529661677" y="40" width="7.622379806941364" height="50" fill="#000000"/>
<rect x="789.8319327731091" y="40" width="7.347474305707413" height="50" fill="#89e051"/>
<rect x="797.1794070788166" y="40" width="6.922620349254944" height="50" fill="#199f4b"/>
<rect x="804.1020274280716" y="40" width="3.398831651619756" height="50" fill="#427819"/>
<rect x="807.5008590796913" y="40" width="2.499140920308644" height="50" fill="#db5855"/>
<circle cx="16" cy="116" r="6" fill="#00B4AB" />
<text x="27" y="120" font-size="15" font-family="sans-serif" fill="#FFF">Dart (8.2k lines, 25.6%)</text>
<circle cx="266" cy="116" r="6" fill="#c22d40" />
<text x="277" y="120" font-size="15" font-family="sans-serif" fill="#FFF">Scala (4.0k lines, 12.4%)</text>
<circle cx="516" cy="116" r="6" fill="#b07219" />
<text x="527" y="120" font-size="15" font-family="sans-serif" fill="#FFF">Java (3.0k lines, 9.2%)</text>
<circle cx="16" cy="136" r="6" fill="#5e5086" />
<text x="27" y="140" font-size="15" font-family="sans-serif" fill="#FFF">Haskell (2.6k lines, 8.1%)</text>
<circle cx="266" cy="136" r="6" fill="#000080" />
<text x="277" y="140" font-size="15" font-family="sans-serif" fill="#FFF">Lua (2.4k lines, 7.6%)</text>
<circle cx="516" cy="136" r="6" fill="#dea584" />
<text x="527" y="140" font-size="15" font-family="sans-serif" fill="#FFF">Rust (1.8k lines, 5.5%)</text>
<circle cx="16" cy="156" r="6" fill="#555555" />
<text x="27" y="160" font-size="15" font-family="sans-serif" fill="#FFF">C (1.4k lines, 4.5%)</text>
<circle cx="266" cy="156" r="6" fill="#239dad" />
<text x="277" y="160" font-size="15" font-family="sans-serif" fill="#FFF">Typst (1.1k lines, 3.5%)</text>
<circle cx="516" cy="156" r="6" fill="#3572A5" />
<text x="527" y="160" font-size="15" font-family="sans-serif" fill="#FFF">Python (1.1k lines, 3.3%)</text>
<circle cx="16" cy="176" r="6" fill="None" />
<text x="27" y="180" font-size="15" font-family="sans-serif" fill="#FFF">Lean (1.0k lines, 3.2%)</text>
<circle cx="266" cy="176" r="6" fill="#f34b7d" />
<text x="277" y="180" font-size="15" font-family="sans-serif" fill="#FFF">C++ (944 lines, 2.9%)</text>
<circle cx="516" cy="176" r="6" fill="#3D6117" />
<text x="527" y="180" font-size="15" font-family="sans-serif" fill="#FFF">TeX (942 lines, 2.9%)</text>
<circle cx="16" cy="196" r="6" fill="#ec915c" />
<text x="27" y="200" font-size="15" font-family="sans-serif" fill="#FFF">Zig (864 lines, 2.7%)</text>
<circle cx="266" cy="196" r="6" fill="#000000" />
<text x="277" y="200" font-size="15" font-family="sans-serif" fill="#FFF">WebGPU Shad… (760 lines, 2.4%)</text>
<circle cx="516" cy="196" r="6" fill="#DA3434" />
<text x="527" y="200" font-size="15" font-family="sans-serif" fill="#FFF">CMake (544 lines, 1.7%)</text>
<circle cx="16" cy="216" r="6" fill="#A97BFF" />
<text x="27" y="220" font-size="15" font-family="sans-serif" fill="#FFF">Kotlin (316 lines, 1.0%)</text>
<circle cx="266" cy="216" r="6" fill="#000000" />
<text x="277" y="220" font-size="15" font-family="sans-serif" fill="#FFF">C Header (305 lines, 1.0%)</text>
<circle cx="516" cy="216" r="6" fill="#89e051" />
<text x="527" y="220" font-size="15" font-family="sans-serif" fill="#FFF">Shell (294 lines, 0.9%)</text>
<circle cx="16" cy="236" r="6" fill="#199f4b" />
<text x="27" y="240" font-size="15" font-family="sans-serif" fill="#FFF">Vim Script (277 lines, 0.9%)</text>
<circle cx="266" cy="236" r="6" fill="#427819" />
<text x="277" y="240" font-size="15" font-family="sans-serif" fill="#FFF">Makefile (136 lines, 0.4%)</text>
<circle cx="516" cy="236" r="6" fill="#db5855" />
<text x="527" y="240" font-size="15" font-family="sans-serif" fill="#FFF">Clojure (100 lines, 0.3%)</text>
</svg>