<svg width="800" height="270" xmlns="http://www.w3.org/2000/svg">
<rect width="800" height="270" fill="#212830"/>
<rect x="10" y="40" width="274.9207499320714" height="50" fill="#00B4AB"/>
<rect x="284.9207499320714" y="40" width="71.8232044198895" height="50" fill="#c22d40"/>
<rect x="356.7439543519609" y="40" width="54.17987501132145" height="50" fill="None"/>
<rect x="410.9238293632823" y="40" width="53.473417262929075" height="50" fill="#b07219"/>
<rect x="464.3972466262114" y="40" width="47.16964043112037" height="50" fill="#5e5086"/>
<rect x="511.56688705733177" y="40" width="43.9452948102527" height="50" fill="#000080"/>
<rect x="555.5121818675844" y="40" width="41.916493071279774" height="50" fill="#239dad"/>
<rect x="597.4286749388642" y="40" width="41.71723575763064" height="50" fill="#3572A5"/>
<rect x="639.1459106964949" y="40" width="31.82682728013767" height="50" fill="#dea584"/>
<rect x="670.9727379766325" y="40" width="25.957793678108864" height="50" fill="#555555"/>
<rect x="696.9305316547413" y="40" width="18.83887329046282" height="50" fill="#A97BFF"/>
<rect x="715.7694049452042" y="40" width="17.099900371343175" height="50" fill="#f34b7d"/>
<rect x="732.8693053165474" y="40" width="17.063671768861514" height="50" fill="#3D6117"/>
<rect x="749.9329770854089" y="40" width="15.650756272076805" height="50" fill="#ec915c"/>
<rect x="765.5837333574857" y="40" width="13.766868943030522" height="50" fill="#000000"/>
<rect x="779.3506023005162" y="40" width="9.85417987501132" height="50" fill="#DA3434"/>
<rect x="789.2047821755276" y="40" width="5.615433384657187" height="50" fill="#89e051"/>
<rect x="794.8202155601848" y="40" width="5.524861878453039" height="50" fill="#000000"/>
<rect x="800.3450774386379" y="40" width="5.017661443709809" height="50" fill="#199f4b"/>
<rect x="805.3627388823477" y="40" width="2.825830993569423" height="50" fill="#427819"/>
<rect x="808.1885698759171" y="40" width="1.8114301240829633" height="50" fill="#db5855"/>
<circle cx="16" cy="116" r="6" fill="#00B4AB" />
<text x="27" y="120" font-size="15" font-family="sans-serif" fill="#FFF">Dart (15.2k lines, 34.4%)</text>
<circle cx="266" cy="116" r="6" fill="#c22d40" />
<text x="277" y="120" font-size="15" font-family="sans-serif" fill="#FFF">Scala (4.0k lines, 9.0%)</text>
<circle cx="516" cy="116" r="6" fill="None" />
<text x="527" y="120" font-size="15" font-family="sans-serif" fill="#FFF">Lean (3.0k lines, 6.8%)</text>
<circle cx="16" cy="136" r="6" fill="#b07219" />
<text x="27" y="140" font-size="15" font-family="sans-serif" fill="#FFF">Java (3.0k lines, 6.7%)</text>
<circle cx="266" cy="136" r="6" fill="#5e5086" />
<text x="277" y="140" font-size="15" font-family="sans-serif" fill="#FFF">Haskell (2.6k lines, 5.9%)</text>
<circle cx="516" cy="136" r="6" fill="#000080" />
<text x="527" y="140" font-size="15" font-family="sans-serif" fill="#FFF">Lua (2.4k lines, 5.5%)</text>
<circle cx="16" cy="156" r="6" fill="#239dad" />
<text x="27" y="160" font-size="15" font-family="sans-serif" fill="#FFF">Typst (2.3k lines, 5.2%)</text>
<circle cx="266" cy="156" r="6" fill="#3572A5" />
<text x="277" y="160" font-size="15" font-family="sans-serif" fill="#FFF">Python (2.3k lines, 5.2%)</text>
<circle cx="516" cy="156" r="6" fill="#dea584" />
<text x="527" y="160" font-size="15" font-family="sans-serif" fill="#FFF">Rust (1.8k lines, 4.0%)</text>
<circle cx="16" cy="176" r="6" fill="#555555" />
<text x="27" y="180" font-size="15" font-family="sans-serif" fill="#FFF">C (1.4k lines, 3.2%)</text>
<circle cx="266" cy="176" r="6" fill="#A97BFF" />
<text x="277" y="180" font-size="15" font-family="sans-serif" fill="#FFF">Kotlin (1.0k lines, 2.4%)</text>
<circle cx="516" cy="176" r="6" fill="#f34b7d" />
<text x="527" y="180" font-size="15" font-family="sans-serif" fill="#FFF">C++ (944 lines, 2.1%)</text>
<circle cx="16" cy="196" r="6" fill="#3D6117" />
<text x="27" y="200" font-size="15" font-family="sans-serif" fill="#FFF">TeX (942 lines, 2.1%)</text>
<circle cx="266" cy="196" r="6" fill="#ec915c" />
<text x="277" y="200" font-size="15" font-family="sans-serif" fill="#FFF">Zig (864 lines, 2.0%)</text>
<circle cx="516" cy="196" r="6" fill="#000000" />
<text x="527" y="200" font-size="15" font-family="sans-serif" fill="#FFF">WebGPU Shad… (760 lines, 1.7%)</text>
<circle cx="16" cy="216" r="6" fill="#DA3434" />
<text x="27" y="220" font-size="15" font-family="sans-serif" fill="#FFF">CMake (544 lines, 1.2%)</text>
<circle cx="266" cy="216" r="6" fill="#89e051" />
<text x="277" y="220" font-size="15" font-family="sans-serif" fill="#FFF">Shell (310 lines, 0.7%)</text>
<circle cx="516" cy="216" r="6" fill="#000000" />
<text x="527" y="220" font-size="15" font-family="sans-serif" fill="#FFF">C Header (305 lines, 0.7%)</text>
<circle cx="16" cy="236" r="6" fill="#199f4b" />
<text x="27" y="240" font-size="15" font-family="sans-serif" fill="#FFF">Vim Script (277 lines, 0.6%)</text>
<circle cx="266" cy="236" r="6" fill="#427819" />
<text x="277" y="240" font-size="15" font-family="sans-serif" fill="#FFF">Makefile (156 lines, 0.4%)</text>
<circle cx="516" cy="236" r="6" fill="#db5855" />
<text x="527" y="240" font-size="15" font-family="sans-serif" fill="#FFF">Clojure (100 lines, 0.2%)</text>
</svg>