<svg width="800" height="270" xmlns="http://www.w3.org/2000/svg">
<rect width="800" height="270" fill="#212830"/>
<rect x="10" y="40" width="205.20204836992343" height="50" fill="#00B4AB"/>
<rect x="215.20204836992343" y="40" width="160.34071895756225" height="50" fill="#dea584"/>
<rect x="375.54276732748565" y="40" width="65.60191992428469" height="50" fill="#c22d40"/>
<rect x="441.14468725177034" y="40" width="55.1505011069986" height="50" fill="#ec915c"/>
<rect x="496.29518835876894" y="40" width="40.440095320184554" height="50" fill="None"/>
<rect x="536.7352836789535" y="40" width="39.912792171576335" height="50" fill="#b07219"/>
<rect x="576.6480758505298" y="40" width="37.95230610623806" height="50" fill="#3572A5"/>
<rect x="614.6003819567679" y="40" width="35.20762561476449" height="50" fill="#5e5086"/>
<rect x="649.8080075715325" y="40" width="32.80095996214234" height="50" fill="#000080"/>
<rect x="682.6089675336748" y="40" width="31.28665348408795" height="50" fill="#239dad"/>
<rect x="713.8956210177628" y="40" width="19.375010562963716" height="50" fill="#555555"/>
<rect x="733.2706315807264" y="40" width="14.061417296219304" height="50" fill="#A97BFF"/>
<rect x="747.3320488769457" y="40" width="12.763440315029833" height="50" fill="#f34b7d"/>
<rect x="760.0954891919755" y="40" width="12.736399127921716" height="50" fill="#3D6117"/>
<rect x="772.8318883198972" y="40" width="11.85756054690801" height="50" fill="#000000"/>
<rect x="784.6894488668052" y="40" width="7.35520289340702" height="50" fill="#DA3434"/>
<rect x="792.0446517602122" y="40" width="6.057225912217546" height="50" fill="#89e051"/>
<rect x="798.1018776724297" y="40" width="4.123781033987392" height="50" fill="#000000"/>
<rect x="802.2256587064171" y="40" width="3.7452044144737955" height="50" fill="#199f4b"/>
<rect x="805.970863120891" y="40" width="2.6770775237032907" height="50" fill="#427819"/>
<rect x="808.6479406445942" y="40" width="1.3520593554057023" height="50" fill="#db5855"/>
<circle cx="16" cy="116" r="6" fill="#00B4AB" />
<text x="27" y="120" font-size="15" font-family="sans-serif" fill="#FFF">Dart (15.2k lines, 25.7%)</text>
<circle cx="266" cy="116" r="6" fill="#dea584" />
<text x="277" y="120" font-size="15" font-family="sans-serif" fill="#FFF">Rust (11.9k lines, 20.0%)</text>
<circle cx="516" cy="116" r="6" fill="#c22d40" />
<text x="527" y="120" font-size="15" font-family="sans-serif" fill="#FFF">Scala (4.9k lines, 8.2%)</text>
<circle cx="16" cy="136" r="6" fill="#ec915c" />
<text x="27" y="140" font-size="15" font-family="sans-serif" fill="#FFF">Zig (4.1k lines, 6.9%)</text>
<circle cx="266" cy="136" r="6" fill="None" />
<text x="277" y="140" font-size="15" font-family="sans-serif" fill="#FFF">Lean (3.0k lines, 5.1%)</text>
<circle cx="516" cy="136" r="6" fill="#b07219" />
<text x="527" y="140" font-size="15" font-family="sans-serif" fill="#FFF">Java (3.0k lines, 5.0%)</text>
<circle cx="16" cy="156" r="6" fill="#3572A5" />
<text x="27" y="160" font-size="15" font-family="sans-serif" fill="#FFF">Python (2.8k lines, 4.7%)</text>
<circle cx="266" cy="156" r="6" fill="#5e5086" />
<text x="277" y="160" font-size="15" font-family="sans-serif" fill="#FFF">Haskell (2.6k lines, 4.4%)</text>
<circle cx="516" cy="156" r="6" fill="#000080" />
<text x="527" y="160" font-size="15" font-family="sans-serif" fill="#FFF">Lua (2.4k lines, 4.1%)</text>
<circle cx="16" cy="176" r="6" fill="#239dad" />
<text x="27" y="180" font-size="15" font-family="sans-serif" fill="#FFF">Typst (2.3k lines, 3.9%)</text>
<circle cx="266" cy="176" r="6" fill="#555555" />
<text x="277" y="180" font-size="15" font-family="sans-serif" fill="#FFF">C (1.4k lines, 2.4%)</text>
<circle cx="516" cy="176" r="6" fill="#A97BFF" />
<text x="527" y="180" font-size="15" font-family="sans-serif" fill="#FFF">Kotlin (1.0k lines, 1.8%)</text>
<circle cx="16" cy="196" r="6" fill="#f34b7d" />
<text x="27" y="200" font-size="15" font-family="sans-serif" fill="#FFF">C++ (944 lines, 1.6%)</text>
<circle cx="266" cy="196" r="6" fill="#3D6117" />
<text x="277" y="200" font-size="15" font-family="sans-serif" fill="#FFF">TeX (942 lines, 1.6%)</text>
<circle cx="516" cy="196" r="6" fill="#000000" />
<text x="527" y="200" font-size="15" font-family="sans-serif" fill="#FFF">WebGPU Shad… (877 lines, 1.5%)</text>
<circle cx="16" cy="216" r="6" fill="#DA3434" />
<text x="27" y="220" font-size="15" font-family="sans-serif" fill="#FFF">CMake (544 lines, 0.9%)</text>
<circle cx="266" cy="216" r="6" fill="#89e051" />
<text x="277" y="220" font-size="15" font-family="sans-serif" fill="#FFF">Shell (448 lines, 0.8%)</text>
<circle cx="516" cy="216" r="6" fill="#000000" />
<text x="527" y="220" font-size="15" font-family="sans-serif" fill="#FFF">C Header (305 lines, 0.5%)</text>
<circle cx="16" cy="236" r="6" fill="#199f4b" />
<text x="27" y="240" font-size="15" font-family="sans-serif" fill="#FFF">Vim Script (277 lines, 0.5%)</text>
<circle cx="266" cy="236" r="6" fill="#427819" />
<text x="277" y="240" font-size="15" font-family="sans-serif" fill="#FFF">Makefile (198 lines, 0.3%)</text>
<circle cx="516" cy="236" r="6" fill="#db5855" />
<text x="527" y="240" font-size="15" font-family="sans-serif" fill="#FFF">Clojure (100 lines, 0.2%)</text>
</svg>