<svg width="800" height="270" xmlns="http://www.w3.org/2000/svg">
<rect width="800" height="270" fill="#212830"/>
<rect x="10" y="40" width="276.0689623633786" height="50" fill="#00B4AB"/>
<rect x="286.0689623633786" y="40" width="72.52938217405223" height="50" fill="#c22d40"/>
<rect x="358.5983445374308" y="40" width="54.71258060090547" height="50" fill="None"/>
<rect x="413.3109251383363" y="40" width="53.999176841816436" height="50" fill="#b07219"/>
<rect x="467.31010198015275" y="40" width="47.63342022225271" height="50" fill="#5e5086"/>
<rect x="514.9435222024055" y="40" width="44.37737229615403" height="50" fill="#000080"/>
<rect x="559.3208944985595" y="40" width="42.32862303928294" height="50" fill="#239dad"/>
<rect x="601.6495175378424" y="40" width="42.12740659441167" height="50" fill="#3572A5"/>
<rect x="643.7769241322541" y="40" width="32.139753967165134" height="50" fill="#dea584"/>
<rect x="675.9166780994192" y="40" width="26.213015045502353" height="50" fill="#555555"/>
<rect x="702.1296931449216" y="40" width="17.268029450770566" height="50" fill="#f34b7d"/>
<rect x="719.3977225956921" y="40" width="17.231444642612157" height="50" fill="#3D6117"/>
<rect x="736.6291672383043" y="40" width="15.804637124434077" height="50" fill="#ec915c"/>
<rect x="752.4338043627383" y="40" width="13.902227100196644" height="50" fill="#000000"/>
<rect x="766.336031462935" y="40" width="12.713220835048245" height="50" fill="#A97BFF"/>
<rect x="779.0492522979832" y="40" width="9.951067819088124" height="50" fill="#DA3434"/>
<rect x="789.0003201170714" y="40" width="5.670645264553894" height="50" fill="#89e051"/>
<rect x="794.6709653816253" y="40" width="5.579183244157863" height="50" fill="#000000"/>
<rect x="800.2501486257831" y="40" width="5.066995929940092" height="50" fill="#199f4b"/>
<rect x="805.3171445557232" y="40" width="2.8536150363561537" height="50" fill="#427819"/>
<rect x="808.1707595920793" y="40" width="1.8292404079206108" height="50" fill="#db5855"/>
<circle cx="16" cy="116" r="6" fill="#00B4AB" />
<text x="27" y="120" font-size="15" font-family="sans-serif" fill="#FFF">Dart (15.1k lines, 34.5%)</text>
<circle cx="266" cy="116" r="6" fill="#c22d40" />
<text x="277" y="120" font-size="15" font-family="sans-serif" fill="#FFF">Scala (4.0k lines, 9.1%)</text>
<circle cx="516" cy="116" r="6" fill="None" />
<text x="527" y="120" font-size="15" font-family="sans-serif" fill="#FFF">Lean (3.0k lines, 6.8%)</text>
<circle cx="16" cy="136" r="6" fill="#b07219" />
<text x="27" y="140" font-size="15" font-family="sans-serif" fill="#FFF">Java (3.0k lines, 6.7%)</text>
<circle cx="266" cy="136" r="6" fill="#5e5086" />
<text x="277" y="140" font-size="15" font-family="sans-serif" fill="#FFF">Haskell (2.6k lines, 6.0%)</text>
<circle cx="516" cy="136" r="6" fill="#000080" />
<text x="527" y="140" font-size="15" font-family="sans-serif" fill="#FFF">Lua (2.4k lines, 5.5%)</text>
<circle cx="16" cy="156" r="6" fill="#239dad" />
<text x="27" y="160" font-size="15" font-family="sans-serif" fill="#FFF">Typst (2.3k lines, 5.3%)</text>
<circle cx="266" cy="156" r="6" fill="#3572A5" />
<text x="277" y="160" font-size="15" font-family="sans-serif" fill="#FFF">Python (2.3k lines, 5.3%)</text>
<circle cx="516" cy="156" r="6" fill="#dea584" />
<text x="527" y="160" font-size="15" font-family="sans-serif" fill="#FFF">Rust (1.8k lines, 4.0%)</text>
<circle cx="16" cy="176" r="6" fill="#555555" />
<text x="27" y="180" font-size="15" font-family="sans-serif" fill="#FFF">C (1.4k lines, 3.3%)</text>
<circle cx="266" cy="176" r="6" fill="#f34b7d" />
<text x="277" y="180" font-size="15" font-family="sans-serif" fill="#FFF">C++ (944 lines, 2.2%)</text>
<circle cx="516" cy="176" r="6" fill="#3D6117" />
<text x="527" y="180" font-size="15" font-family="sans-serif" fill="#FFF">TeX (942 lines, 2.2%)</text>
<circle cx="16" cy="196" r="6" fill="#ec915c" />
<text x="27" y="200" font-size="15" font-family="sans-serif" fill="#FFF">Zig (864 lines, 2.0%)</text>
<circle cx="266" cy="196" r="6" fill="#000000" />
<text x="277" y="200" font-size="15" font-family="sans-serif" fill="#FFF">WebGPU Shad… (760 lines, 1.7%)</text>
<circle cx="516" cy="196" r="6" fill="#A97BFF" />
<text x="527" y="200" font-size="15" font-family="sans-serif" fill="#FFF">Kotlin (695 lines, 1.6%)</text>
<circle cx="16" cy="216" r="6" fill="#DA3434" />
<text x="27" y="220" font-size="15" font-family="sans-serif" fill="#FFF">CMake (544 lines, 1.2%)</text>
<circle cx="266" cy="216" r="6" fill="#89e051" />
<text x="277" y="220" font-size="15" font-family="sans-serif" fill="#FFF">Shell (310 lines, 0.7%)</text>
<circle cx="516" cy="216" r="6" fill="#000000" />
<text x="527" y="220" font-size="15" font-family="sans-serif" fill="#FFF">C Header (305 lines, 0.7%)</text>
<circle cx="16" cy="236" r="6" fill="#199f4b" />
<text x="27" y="240" font-size="15" font-family="sans-serif" fill="#FFF">Vim Script (277 lines, 0.6%)</text>
<circle cx="266" cy="236" r="6" fill="#427819" />
<text x="277" y="240" font-size="15" font-family="sans-serif" fill="#FFF">Makefile (156 lines, 0.4%)</text>
<circle cx="516" cy="236" r="6" fill="#db5855" />
<text x="527" y="240" font-size="15" font-family="sans-serif" fill="#FFF">Clojure (100 lines, 0.2%)</text>
</svg>