<svg width="800" height="290" xmlns="http://www.w3.org/2000/svg">
<rect width="800" height="290" fill="#212830"/>
<rect x="10" y="40" width="173.88834836572087" height="50" fill="#dea584"/>
<rect x="183.88834836572087" y="40" width="159.63606721186463" height="50" fill="#00B4AB"/>
<rect x="343.5244155775855" y="40" width="103.40529595834758" height="50" fill="#3572A5"/>
<rect x="446.92971153593305" y="40" width="51.03473664834732" height="50" fill="#c22d40"/>
<rect x="497.9644481842804" y="40" width="49.71995056404323" height="50" fill="#A97BFF"/>
<rect x="547.6843987483236" y="40" width="42.90409950301087" height="50" fill="#ec915c"/>
<rect x="590.5884982513345" y="40" width="32.62773146809014" height="50" fill="#000080"/>
<rect x="623.2162297194246" y="40" width="31.460201425228114" height="50" fill="None"/>
<rect x="654.6764311446527" y="40" width="31.049988166925242" height="50" fill="#b07219"/>
<rect x="685.726419311578" y="40" width="27.389623708222672" height="50" fill="#5e5086"/>
<rect x="713.1160430198006" y="40" width="26.464014304872595" height="50" fill="#239dad"/>
<rect x="739.5800573246732" y="40" width="15.072707670462016" height="50" fill="#555555"/>
<rect x="754.6527649951353" y="40" width="9.92926450866444" height="50" fill="#f34b7d"/>
<rect x="764.5820295037997" y="40" width="9.908227931315574" height="50" fill="#3D6117"/>
<rect x="774.4902574351153" y="40" width="9.22453916747745" height="50" fill="#000000"/>
<rect x="783.7147966025927" y="40" width="7.352283783428436" height="50" fill="#89e051"/>
<rect x="791.0670803860212" y="40" width="5.721949038891372" height="50" fill="#DA3434"/>
<rect x="796.7890294249125" y="40" width="3.2080780457019644" height="50" fill="#000000"/>
<rect x="799.9971074706145" y="40" width="2.9135659628178496" height="50" fill="#199f4b"/>
<rect x="802.9106734334324" y="40" width="2.0826211575376683" height="50" fill="#427819"/>
<rect x="804.9932945909701" y="40" width="1.4410055483972757" height="50" fill="#41b883"/>
<rect x="806.4343001393673" y="40" width="1.3884141050251124" height="50" fill="#000000"/>
<rect x="807.8227142443925" y="40" width="1.1254568881642957" height="50" fill="#384d54"/>
<rect x="808.9481711325568" y="40" width="1.051828867443267" height="50" fill="#db5855"/>
<circle cx="16" cy="116" r="6" fill="#dea584" />
<text x="27" y="120" font-size="15" font-family="sans-serif" fill="#FFF">Rust (16.5k lines, 21.7%)</text>
<circle cx="266" cy="116" r="6" fill="#00B4AB" />
<text x="277" y="120" font-size="15" font-family="sans-serif" fill="#FFF">Dart (15.2k lines, 20.0%)</text>
<circle cx="516" cy="116" r="6" fill="#3572A5" />
<text x="527" y="120" font-size="15" font-family="sans-serif" fill="#FFF">Python (9.8k lines, 12.9%)</text>
<circle cx="16" cy="136" r="6" fill="#c22d40" />
<text x="27" y="140" font-size="15" font-family="sans-serif" fill="#FFF">Scala (4.9k lines, 6.4%)</text>
<circle cx="266" cy="136" r="6" fill="#A97BFF" />
<text x="277" y="140" font-size="15" font-family="sans-serif" fill="#FFF">Kotlin (4.7k lines, 6.2%)</text>
<circle cx="516" cy="136" r="6" fill="#ec915c" />
<text x="527" y="140" font-size="15" font-family="sans-serif" fill="#FFF">Zig (4.1k lines, 5.4%)</text>
<circle cx="16" cy="156" r="6" fill="#000080" />
<text x="27" y="160" font-size="15" font-family="sans-serif" fill="#FFF">Lua (3.1k lines, 4.1%)</text>
<circle cx="266" cy="156" r="6" fill="None" />
<text x="277" y="160" font-size="15" font-family="sans-serif" fill="#FFF">Lean (3.0k lines, 3.9%)</text>
<circle cx="516" cy="156" r="6" fill="#b07219" />
<text x="527" y="160" font-size="15" font-family="sans-serif" fill="#FFF">Java (3.0k lines, 3.9%)</text>
<circle cx="16" cy="176" r="6" fill="#5e5086" />
<text x="27" y="180" font-size="15" font-family="sans-serif" fill="#FFF">Haskell (2.6k lines, 3.4%)</text>
<circle cx="266" cy="176" r="6" fill="#239dad" />
<text x="277" y="180" font-size="15" font-family="sans-serif" fill="#FFF">Typst (2.5k lines, 3.3%)</text>
<circle cx="516" cy="176" r="6" fill="#555555" />
<text x="527" y="180" font-size="15" font-family="sans-serif" fill="#FFF">C (1.4k lines, 1.9%)</text>
<circle cx="16" cy="196" r="6" fill="#f34b7d" />
<text x="27" y="200" font-size="15" font-family="sans-serif" fill="#FFF">C++ (944 lines, 1.2%)</text>
<circle cx="266" cy="196" r="6" fill="#3D6117" />
<text x="277" y="200" font-size="15" font-family="sans-serif" fill="#FFF">TeX (942 lines, 1.2%)</text>
<circle cx="516" cy="196" r="6" fill="#000000" />
<text x="527" y="200" font-size="15" font-family="sans-serif" fill="#FFF">WebGPU Shad… (877 lines, 1.2%)</text>
<circle cx="16" cy="216" r="6" fill="#89e051" />
<text x="27" y="220" font-size="15" font-family="sans-serif" fill="#FFF">Shell (699 lines, 0.9%)</text>
<circle cx="266" cy="216" r="6" fill="#DA3434" />
<text x="277" y="220" font-size="15" font-family="sans-serif" fill="#FFF">CMake (544 lines, 0.7%)</text>
<circle cx="516" cy="216" r="6" fill="#000000" />
<text x="527" y="220" font-size="15" font-family="sans-serif" fill="#FFF">C Header (305 lines, 0.4%)</text>
<circle cx="16" cy="236" r="6" fill="#199f4b" />
<text x="27" y="240" font-size="15" font-family="sans-serif" fill="#FFF">Vim Script (277 lines, 0.4%)</text>
<circle cx="266" cy="236" r="6" fill="#427819" />
<text x="277" y="240" font-size="15" font-family="sans-serif" fill="#FFF">Makefile (198 lines, 0.3%)</text>
<circle cx="516" cy="236" r="6" fill="#41b883" />
<text x="527" y="240" font-size="15" font-family="sans-serif" fill="#FFF">Vue (137 lines, 0.2%)</text>
<circle cx="16" cy="256" r="6" fill="#000000" />
<text x="27" y="260" font-size="15" font-family="sans-serif" fill="#FFF">Batch (132 lines, 0.2%)</text>
<circle cx="266" cy="256" r="6" fill="#384d54" />
<text x="277" y="260" font-size="15" font-family="sans-serif" fill="#FFF">Just (107 lines, 0.1%)</text>
<circle cx="516" cy="256" r="6" fill="#db5855" />
<text x="527" y="260" font-size="15" font-family="sans-serif" fill="#FFF">Clojure (100 lines, 0.1%)</text>
</svg>