<svg width="800" height="270" xmlns="http://www.w3.org/2000/svg">
<rect width="800" height="270" fill="#212830"/>
<rect x="10" y="40" width="227.26863656817156" height="50" fill="#00B4AB"/>
<rect x="237.26863656817156" y="40" width="79.29603519824009" height="50" fill="#c22d40"/>
<rect x="316.56467176641166" y="40" width="59.81700914954252" height="50" fill="None"/>
<rect x="376.3816809159542" y="40" width="59.03704814759262" height="50" fill="#b07219"/>
<rect x="435.4187290635468" y="40" width="52.077396130193485" height="50" fill="#5e5086"/>
<rect x="487.4961251937403" y="40" width="48.517574121293926" height="50" fill="#000080"/>
<rect x="536.0136993150342" y="40" width="46.277686115694216" height="50" fill="#239dad"/>
<rect x="582.2913854307284" y="40" width="46.057697115144244" height="50" fill="#3572A5"/>
<rect x="628.3490825458726" y="40" width="35.1382430878456" height="50" fill="#dea584"/>
<rect x="663.4873256337182" y="40" width="28.658567071646416" height="50" fill="#555555"/>
<rect x="692.1458927053646" y="40" width="18.87905604719764" height="50" fill="#f34b7d"/>
<rect x="711.0249487525623" y="40" width="18.839058047097645" height="50" fill="#3D6117"/>
<rect x="729.8640067996599" y="40" width="17.27913604319784" height="50" fill="#ec915c"/>
<rect x="747.1431428428577" y="40" width="15.1992400379981" height="50" fill="#000000"/>
<rect x="762.3423828808559" y="40" width="13.819309034548274" height="50" fill="#A97BFF"/>
<rect x="776.1616919154042" y="40" width="10.879456027198641" height="50" fill="#DA3434"/>
<rect x="787.0411479426028" y="40" width="6.199690015499225" height="50" fill="#89e051"/>
<rect x="793.240837958102" y="40" width="6.099695015249236" height="50" fill="#000000"/>
<rect x="799.3405329733513" y="40" width="5.539723013849308" height="50" fill="#199f4b"/>
<rect x="804.8802559872006" y="40" width="3.11984400779961" height="50" fill="#427819"/>
<rect x="808.0000999950003" y="40" width="1.99990000499975" height="50" fill="#db5855"/>
<circle cx="16" cy="116" r="6" fill="#00B4AB" />
<text x="27" y="120" font-size="15" font-family="sans-serif" fill="#FFF">Dart (11.4k lines, 28.4%)</text>
<circle cx="266" cy="116" r="6" fill="#c22d40" />
<text x="277" y="120" font-size="15" font-family="sans-serif" fill="#FFF">Scala (4.0k lines, 9.9%)</text>
<circle cx="516" cy="116" r="6" fill="None" />
<text x="527" y="120" font-size="15" font-family="sans-serif" fill="#FFF">Lean (3.0k lines, 7.5%)</text>
<circle cx="16" cy="136" r="6" fill="#b07219" />
<text x="27" y="140" font-size="15" font-family="sans-serif" fill="#FFF">Java (3.0k lines, 7.4%)</text>
<circle cx="266" cy="136" r="6" fill="#5e5086" />
<text x="277" y="140" font-size="15" font-family="sans-serif" fill="#FFF">Haskell (2.6k lines, 6.5%)</text>
<circle cx="516" cy="136" r="6" fill="#000080" />
<text x="527" y="140" font-size="15" font-family="sans-serif" fill="#FFF">Lua (2.4k lines, 6.1%)</text>
<circle cx="16" cy="156" r="6" fill="#239dad" />
<text x="27" y="160" font-size="15" font-family="sans-serif" fill="#FFF">Typst (2.3k lines, 5.8%)</text>
<circle cx="266" cy="156" r="6" fill="#3572A5" />
<text x="277" y="160" font-size="15" font-family="sans-serif" fill="#FFF">Python (2.3k lines, 5.8%)</text>
<circle cx="516" cy="156" r="6" fill="#dea584" />
<text x="527" y="160" font-size="15" font-family="sans-serif" fill="#FFF">Rust (1.8k lines, 4.4%)</text>
<circle cx="16" cy="176" r="6" fill="#555555" />
<text x="27" y="180" font-size="15" font-family="sans-serif" fill="#FFF">C (1.4k lines, 3.6%)</text>
<circle cx="266" cy="176" r="6" fill="#f34b7d" />
<text x="277" y="180" font-size="15" font-family="sans-serif" fill="#FFF">C++ (944 lines, 2.4%)</text>
<circle cx="516" cy="176" r="6" fill="#3D6117" />
<text x="527" y="180" font-size="15" font-family="sans-serif" fill="#FFF">TeX (942 lines, 2.4%)</text>
<circle cx="16" cy="196" r="6" fill="#ec915c" />
<text x="27" y="200" font-size="15" font-family="sans-serif" fill="#FFF">Zig (864 lines, 2.2%)</text>
<circle cx="266" cy="196" r="6" fill="#000000" />
<text x="277" y="200" font-size="15" font-family="sans-serif" fill="#FFF">WebGPU Shad… (760 lines, 1.9%)</text>
<circle cx="516" cy="196" r="6" fill="#A97BFF" />
<text x="527" y="200" font-size="15" font-family="sans-serif" fill="#FFF">Kotlin (691 lines, 1.7%)</text>
<circle cx="16" cy="216" r="6" fill="#DA3434" />
<text x="27" y="220" font-size="15" font-family="sans-serif" fill="#FFF">CMake (544 lines, 1.4%)</text>
<circle cx="266" cy="216" r="6" fill="#89e051" />
<text x="277" y="220" font-size="15" font-family="sans-serif" fill="#FFF">Shell (310 lines, 0.8%)</text>
<circle cx="516" cy="216" r="6" fill="#000000" />
<text x="527" y="220" font-size="15" font-family="sans-serif" fill="#FFF">C Header (305 lines, 0.8%)</text>
<circle cx="16" cy="236" r="6" fill="#199f4b" />
<text x="27" y="240" font-size="15" font-family="sans-serif" fill="#FFF">Vim Script (277 lines, 0.7%)</text>
<circle cx="266" cy="236" r="6" fill="#427819" />
<text x="277" y="240" font-size="15" font-family="sans-serif" fill="#FFF">Makefile (156 lines, 0.4%)</text>
<circle cx="516" cy="236" r="6" fill="#db5855" />
<text x="527" y="240" font-size="15" font-family="sans-serif" fill="#FFF">Clojure (100 lines, 0.2%)</text>
</svg>