<svg width="800" height="270" xmlns="http://www.w3.org/2000/svg">
<rect x="10" y="40" width="208.330754471746" height="50" fill="#00B4AB"/>
<rect x="218.330754471746" y="40" width="98.1617874605434" height="50" fill="#c22d40"/>
<rect x="316.4925419322894" y="40" width="73.0828742959708" height="50" fill="#b07219"/>
<rect x="389.57541622826017" y="40" width="63.94751500897444" height="50" fill="#5e5086"/>
<rect x="453.5229312372346" y="40" width="59.91211239710342" height="50" fill="#000080"/>
<rect x="513.4350436343381" y="40" width="43.49817416599616" height="50" fill="#dea584"/>
<rect x="556.9332178003342" y="40" width="35.47688308473108" height="50" fill="#555555"/>
<rect x="592.4101008850653" y="40" width="28.124032926904746" height="50" fill="#239dad"/>
<rect x="620.53413381197" y="40" width="26.118710156588477" height="50" fill="#3572A5"/>
<rect x="646.6528439685585" y="40" width="25.623568731819024" height="50" fill="None"/>
<rect x="672.2764127003775" y="40" width="23.37067524911803" height="50" fill="#f34b7d"/>
<rect x="695.6470879494955" y="40" width="23.321161106641078" height="50" fill="#3D6117"/>
<rect x="718.9682490561365" y="40" width="21.390109550040233" height="50" fill="#ec915c"/>
<rect x="740.3583586061768" y="40" width="18.81537414123909" height="50" fill="#000000"/>
<rect x="759.1737327474159" y="40" width="13.467846753729035" height="50" fill="#DA3434"/>
<rect x="772.641579501145" y="40" width="9.828557281673579" height="50" fill="#A97BFF"/>
<rect x="782.4701367828186" y="40" width="7.550906727734111" height="50" fill="#000000"/>
<rect x="790.0210435105527" y="40" width="7.27857894411091" height="50" fill="#89e051"/>
<rect x="797.2996224546636" y="40" width="6.857708733056879" height="50" fill="#199f4b"/>
<rect x="804.1573311877204" y="40" width="3.3669616884322586" height="50" fill="#427819"/>
<rect x="807.5242928761527" y="40" width="2.4757071238472492" height="50" fill="#db5855"/>
<circle cx="16" cy="116" r="6" fill="#00B4AB" />
<text x="27" y="120" font-size="15" font-family="sans-serif" fill="#FFF">Dart (8.4k lines, 26.0%)</text>
<circle cx="266" cy="116" r="6" fill="#c22d40" />
<text x="277" y="120" font-size="15" font-family="sans-serif" fill="#FFF">Scala (4.0k lines, 12.3%)</text>
<circle cx="516" cy="116" r="6" fill="#b07219" />
<text x="527" y="120" font-size="15" font-family="sans-serif" fill="#FFF">Java (3.0k lines, 9.1%)</text>
<circle cx="16" cy="136" r="6" fill="#5e5086" />
<text x="27" y="140" font-size="15" font-family="sans-serif" fill="#FFF">Haskell (2.6k lines, 8.0%)</text>
<circle cx="266" cy="136" r="6" fill="#000080" />
<text x="277" y="140" font-size="15" font-family="sans-serif" fill="#FFF">Lua (2.4k lines, 7.5%)</text>
<circle cx="516" cy="136" r="6" fill="#dea584" />
<text x="527" y="140" font-size="15" font-family="sans-serif" fill="#FFF">Rust (1.8k lines, 5.4%)</text>
<circle cx="16" cy="156" r="6" fill="#555555" />
<text x="27" y="160" font-size="15" font-family="sans-serif" fill="#FFF">C (1.4k lines, 4.4%)</text>
<circle cx="266" cy="156" r="6" fill="#239dad" />
<text x="277" y="160" font-size="15" font-family="sans-serif" fill="#FFF">Typst (1.1k lines, 3.5%)</text>
<circle cx="516" cy="156" r="6" fill="#3572A5" />
<text x="527" y="160" font-size="15" font-family="sans-serif" fill="#FFF">Python (1.1k lines, 3.3%)</text>
<circle cx="16" cy="176" r="6" fill="None" />
<text x="27" y="180" font-size="15" font-family="sans-serif" fill="#FFF">Lean (1.0k lines, 3.2%)</text>
<circle cx="266" cy="176" r="6" fill="#f34b7d" />
<text x="277" y="180" font-size="15" font-family="sans-serif" fill="#FFF">C++ (944 lines, 2.9%)</text>
<circle cx="516" cy="176" r="6" fill="#3D6117" />
<text x="527" y="180" font-size="15" font-family="sans-serif" fill="#FFF">TeX (942 lines, 2.9%)</text>
<circle cx="16" cy="196" r="6" fill="#ec915c" />
<text x="27" y="200" font-size="15" font-family="sans-serif" fill="#FFF">Zig (864 lines, 2.7%)</text>
<circle cx="266" cy="196" r="6" fill="#000000" />
<text x="277" y="200" font-size="15" font-family="sans-serif" fill="#FFF">WebGPU Shad… (760 lines, 2.4%)</text>
<circle cx="516" cy="196" r="6" fill="#DA3434" />
<text x="527" y="200" font-size="15" font-family="sans-serif" fill="#FFF">CMake (544 lines, 1.7%)</text>
<circle cx="16" cy="216" r="6" fill="#A97BFF" />
<text x="27" y="220" font-size="15" font-family="sans-serif" fill="#FFF">Kotlin (397 lines, 1.2%)</text>
<circle cx="266" cy="216" r="6" fill="#000000" />
<text x="277" y="220" font-size="15" font-family="sans-serif" fill="#FFF">C Header (305 lines, 0.9%)</text>
<circle cx="516" cy="216" r="6" fill="#89e051" />
<text x="527" y="220" font-size="15" font-family="sans-serif" fill="#FFF">Shell (294 lines, 0.9%)</text>
<circle cx="16" cy="236" r="6" fill="#199f4b" />
<text x="27" y="240" font-size="15" font-family="sans-serif" fill="#FFF">Vim Script (277 lines, 0.9%)</text>
<circle cx="266" cy="236" r="6" fill="#427819" />
<text x="277" y="240" font-size="15" font-family="sans-serif" fill="#FFF">Makefile (136 lines, 0.4%)</text>
<circle cx="516" cy="236" r="6" fill="#db5855" />
<text x="527" y="240" font-size="15" font-family="sans-serif" fill="#FFF">Clojure (100 lines, 0.3%)</text>
</svg>