<svg width="800" height="270" xmlns="http://www.w3.org/2000/svg">
<rect width="800" height="270" fill="#212830"/>
<rect x="10" y="40" width="250.2958213939681" height="50" fill="#00B4AB"/>
<rect x="260.29582139396814" y="40" width="80.01814096353253" height="50" fill="#c22d40"/>
<rect x="340.31396235750066" y="40" width="67.26999113566553" height="50" fill="#ec915c"/>
<rect x="407.5839534931662" y="40" width="49.326929023480176" height="50" fill="None"/>
<rect x="456.9108825166463" y="40" width="48.683749407326474" height="50" fill="#b07219"/>
<rect x="505.59463192397277" y="40" width="42.94460821703189" height="50" fill="#5e5086"/>
<rect x="548.5392401410047" y="40" width="40.009070481766265" height="50" fill="#000080"/>
<rect x="588.5483106227709" y="40" width="39.67923478117463" height="50" fill="#3572A5"/>
<rect x="628.2275454039456" y="40" width="38.16199055845307" height="50" fill="#239dad"/>
<rect x="666.3895359623987" y="40" width="28.976066296975816" height="50" fill="#dea584"/>
<rect x="695.3656022593744" y="40" width="23.63272794739121" height="50" fill="#555555"/>
<rect x="718.9983302067657" y="40" width="17.151456430765425" height="50" fill="#A97BFF"/>
<rect x="736.1497866375311" y="40" width="15.56824506792554" height="50" fill="#f34b7d"/>
<rect x="751.7180317054566" y="40" width="15.535261497866378" height="50" fill="#3D6117"/>
<rect x="767.253293203323" y="40" width="12.533756622482423" height="50" fill="#000000"/>
<rect x="779.7870498258054" y="40" width="8.971531056092683" height="50" fill="#DA3434"/>
<rect x="788.7585808818981" y="40" width="7.206910057927393" height="50" fill="#89e051"/>
<rect x="795.9654909398255" y="40" width="5.029994434022552" height="50" fill="#000000"/>
<rect x="800.995485373848" y="40" width="4.568224453194253" height="50" fill="#199f4b"/>
<rect x="805.5637098270423" y="40" width="2.7871116699993816" height="50" fill="#427819"/>
<rect x="808.3508214970417" y="40" width="1.649178502958214" height="50" fill="#db5855"/>
<circle cx="16" cy="116" r="6" fill="#00B4AB" />
<text x="27" y="120" font-size="15" font-family="sans-serif" fill="#FFF">Dart (15.2k lines, 31.3%)</text>
<circle cx="266" cy="116" r="6" fill="#c22d40" />
<text x="277" y="120" font-size="15" font-family="sans-serif" fill="#FFF">Scala (4.9k lines, 10.0%)</text>
<circle cx="516" cy="116" r="6" fill="#ec915c" />
<text x="527" y="120" font-size="15" font-family="sans-serif" fill="#FFF">Zig (4.1k lines, 8.4%)</text>
<circle cx="16" cy="136" r="6" fill="None" />
<text x="27" y="140" font-size="15" font-family="sans-serif" fill="#FFF">Lean (3.0k lines, 6.2%)</text>
<circle cx="266" cy="136" r="6" fill="#b07219" />
<text x="277" y="140" font-size="15" font-family="sans-serif" fill="#FFF">Java (3.0k lines, 6.1%)</text>
<circle cx="516" cy="136" r="6" fill="#5e5086" />
<text x="527" y="140" font-size="15" font-family="sans-serif" fill="#FFF">Haskell (2.6k lines, 5.4%)</text>
<circle cx="16" cy="156" r="6" fill="#000080" />
<text x="27" y="160" font-size="15" font-family="sans-serif" fill="#FFF">Lua (2.4k lines, 5.0%)</text>
<circle cx="266" cy="156" r="6" fill="#3572A5" />
<text x="277" y="160" font-size="15" font-family="sans-serif" fill="#FFF">Python (2.4k lines, 5.0%)</text>
<circle cx="516" cy="156" r="6" fill="#239dad" />
<text x="527" y="160" font-size="15" font-family="sans-serif" fill="#FFF">Typst (2.3k lines, 4.8%)</text>
<circle cx="16" cy="176" r="6" fill="#dea584" />
<text x="27" y="180" font-size="15" font-family="sans-serif" fill="#FFF">Rust (1.8k lines, 3.6%)</text>
<circle cx="266" cy="176" r="6" fill="#555555" />
<text x="277" y="180" font-size="15" font-family="sans-serif" fill="#FFF">C (1.4k lines, 3.0%)</text>
<circle cx="516" cy="176" r="6" fill="#A97BFF" />
<text x="527" y="180" font-size="15" font-family="sans-serif" fill="#FFF">Kotlin (1.0k lines, 2.1%)</text>
<circle cx="16" cy="196" r="6" fill="#f34b7d" />
<text x="27" y="200" font-size="15" font-family="sans-serif" fill="#FFF">C++ (944 lines, 1.9%)</text>
<circle cx="266" cy="196" r="6" fill="#3D6117" />
<text x="277" y="200" font-size="15" font-family="sans-serif" fill="#FFF">TeX (942 lines, 1.9%)</text>
<circle cx="516" cy="196" r="6" fill="#000000" />
<text x="527" y="200" font-size="15" font-family="sans-serif" fill="#FFF">WebGPU Shad… (760 lines, 1.6%)</text>
<circle cx="16" cy="216" r="6" fill="#DA3434" />
<text x="27" y="220" font-size="15" font-family="sans-serif" fill="#FFF">CMake (544 lines, 1.1%)</text>
<circle cx="266" cy="216" r="6" fill="#89e051" />
<text x="277" y="220" font-size="15" font-family="sans-serif" fill="#FFF">Shell (437 lines, 0.9%)</text>
<circle cx="516" cy="216" r="6" fill="#000000" />
<text x="527" y="220" font-size="15" font-family="sans-serif" fill="#FFF">C Header (305 lines, 0.6%)</text>
<circle cx="16" cy="236" r="6" fill="#199f4b" />
<text x="27" y="240" font-size="15" font-family="sans-serif" fill="#FFF">Vim Script (277 lines, 0.6%)</text>
<circle cx="266" cy="236" r="6" fill="#427819" />
<text x="277" y="240" font-size="15" font-family="sans-serif" fill="#FFF">Makefile (169 lines, 0.3%)</text>
<circle cx="516" cy="236" r="6" fill="#db5855" />
<text x="527" y="240" font-size="15" font-family="sans-serif" fill="#FFF">Clojure (100 lines, 0.2%)</text>
</svg>