<svg width="800" height="290" xmlns="http://www.w3.org/2000/svg">
<rect width="800" height="290" fill="#212830"/>
<rect x="10" y="40" width="173.27073195096543" height="50" fill="#00B4AB"/>
<rect x="183.27073195096543" y="40" width="135.4244858932827" height="50" fill="#dea584"/>
<rect x="318.69521784424813" y="40" width="105.14748904713655" height="50" fill="#3572A5"/>
<rect x="423.8427068913847" y="40" width="55.39366089649366" height="50" fill="#c22d40"/>
<rect x="479.23636778787835" y="40" width="47.47049505515676" height="50" fill="#A97BFF"/>
<rect x="526.7068628430351" y="40" width="46.56857848243974" height="50" fill="#ec915c"/>
<rect x="573.2754413254748" y="40" width="35.41449631098997" height="50" fill="#000080"/>
<rect x="608.6899376364648" y="40" width="34.14724644299516" height="50" fill="None"/>
<rect x="642.83718407946" y="40" width="33.70199648937536" height="50" fill="#b07219"/>
<rect x="676.5391805688354" y="40" width="29.728996903229486" height="50" fill="#5e5086"/>
<rect x="706.2681774720648" y="40" width="28.724330341215587" height="50" fill="#239dad"/>
<rect x="734.9925078132804" y="40" width="16.360081629158163" height="50" fill="#555555"/>
<rect x="751.3525894424386" y="40" width="10.777332210694562" height="50" fill="#f34b7d"/>
<rect x="762.1299216531331" y="40" width="10.7544988797397" height="50" fill="#3D6117"/>
<rect x="772.8844205328728" y="40" width="10.012415623706705" height="50" fill="#000000"/>
<rect x="782.8968361565795" y="40" width="7.980249168724046" height="50" fill="#89e051"/>
<rect x="790.8770853253036" y="40" width="6.21066601972229" height="50" fill="#DA3434"/>
<rect x="797.0877513450259" y="40" width="3.482082970616357" height="50" fill="#000000"/>
<rect x="800.5698343156423" y="40" width="3.162416337248298" height="50" fill="#199f4b"/>
<rect x="803.7322506528906" y="40" width="2.2604997645312745" height="50" fill="#427819"/>
<rect x="805.9927504174218" y="40" width="1.5069998430208498" height="50" fill="#000000"/>
<rect x="807.4997502604426" y="40" width="1.3585831918142508" height="50" fill="#41b883"/>
<rect x="808.8583334522568" y="40" width="1.1416665477430679" height="50" fill="#db5855"/>
<circle cx="16" cy="116" r="6" fill="#00B4AB" />
<text x="27" y="120" font-size="15" font-family="sans-serif" fill="#FFF">Dart (15.2k lines, 21.7%)</text>
<circle cx="266" cy="116" r="6" fill="#dea584" />
<text x="277" y="120" font-size="15" font-family="sans-serif" fill="#FFF">Rust (11.9k lines, 16.9%)</text>
<circle cx="516" cy="116" r="6" fill="#3572A5" />
<text x="527" y="120" font-size="15" font-family="sans-serif" fill="#FFF">Python (9.2k lines, 13.1%)</text>
<circle cx="16" cy="136" r="6" fill="#c22d40" />
<text x="27" y="140" font-size="15" font-family="sans-serif" fill="#FFF">Scala (4.9k lines, 6.9%)</text>
<circle cx="266" cy="136" r="6" fill="#A97BFF" />
<text x="277" y="140" font-size="15" font-family="sans-serif" fill="#FFF">Kotlin (4.2k lines, 5.9%)</text>
<circle cx="516" cy="136" r="6" fill="#ec915c" />
<text x="527" y="140" font-size="15" font-family="sans-serif" fill="#FFF">Zig (4.1k lines, 5.8%)</text>
<circle cx="16" cy="156" r="6" fill="#000080" />
<text x="27" y="160" font-size="15" font-family="sans-serif" fill="#FFF">Lua (3.1k lines, 4.4%)</text>
<circle cx="266" cy="156" r="6" fill="None" />
<text x="277" y="160" font-size="15" font-family="sans-serif" fill="#FFF">Lean (3.0k lines, 4.3%)</text>
<circle cx="516" cy="156" r="6" fill="#b07219" />
<text x="527" y="160" font-size="15" font-family="sans-serif" fill="#FFF">Java (3.0k lines, 4.2%)</text>
<circle cx="16" cy="176" r="6" fill="#5e5086" />
<text x="27" y="180" font-size="15" font-family="sans-serif" fill="#FFF">Haskell (2.6k lines, 3.7%)</text>
<circle cx="266" cy="176" r="6" fill="#239dad" />
<text x="277" y="180" font-size="15" font-family="sans-serif" fill="#FFF">Typst (2.5k lines, 3.6%)</text>
<circle cx="516" cy="176" r="6" fill="#555555" />
<text x="527" y="180" font-size="15" font-family="sans-serif" fill="#FFF">C (1.4k lines, 2.0%)</text>
<circle cx="16" cy="196" r="6" fill="#f34b7d" />
<text x="27" y="200" font-size="15" font-family="sans-serif" fill="#FFF">C++ (944 lines, 1.3%)</text>
<circle cx="266" cy="196" r="6" fill="#3D6117" />
<text x="277" y="200" font-size="15" font-family="sans-serif" fill="#FFF">TeX (942 lines, 1.3%)</text>
<circle cx="516" cy="196" r="6" fill="#000000" />
<text x="527" y="200" font-size="15" font-family="sans-serif" fill="#FFF">WebGPU Shad… (877 lines, 1.3%)</text>
<circle cx="16" cy="216" r="6" fill="#89e051" />
<text x="27" y="220" font-size="15" font-family="sans-serif" fill="#FFF">Shell (699 lines, 1.0%)</text>
<circle cx="266" cy="216" r="6" fill="#DA3434" />
<text x="277" y="220" font-size="15" font-family="sans-serif" fill="#FFF">CMake (544 lines, 0.8%)</text>
<circle cx="516" cy="216" r="6" fill="#000000" />
<text x="527" y="220" font-size="15" font-family="sans-serif" fill="#FFF">C Header (305 lines, 0.4%)</text>
<circle cx="16" cy="236" r="6" fill="#199f4b" />
<text x="27" y="240" font-size="15" font-family="sans-serif" fill="#FFF">Vim Script (277 lines, 0.4%)</text>
<circle cx="266" cy="236" r="6" fill="#427819" />
<text x="277" y="240" font-size="15" font-family="sans-serif" fill="#FFF">Makefile (198 lines, 0.3%)</text>
<circle cx="516" cy="236" r="6" fill="#000000" />
<text x="527" y="240" font-size="15" font-family="sans-serif" fill="#FFF">Batch (132 lines, 0.2%)</text>
<circle cx="16" cy="256" r="6" fill="#41b883" />
<text x="27" y="260" font-size="15" font-family="sans-serif" fill="#FFF">Vue (119 lines, 0.2%)</text>
<circle cx="266" cy="256" r="6" fill="#db5855" />
<text x="277" y="260" font-size="15" font-family="sans-serif" fill="#FFF">Clojure (100 lines, 0.1%)</text>
</svg>