<svg width="800" height="290" xmlns="http://www.w3.org/2000/svg">
<rect width="800" height="290" fill="#212830"/>
<rect x="10" y="40" width="176.1340138725298" height="50" fill="#dea584"/>
<rect x="186.1340138725298" y="40" width="158.9006674519042" height="50" fill="#00B4AB"/>
<rect x="345.034681324434" y="40" width="102.92893600314095" height="50" fill="#3572A5"/>
<rect x="447.963617327575" y="40" width="50.7996335558173" height="50" fill="#c22d40"/>
<rect x="498.7632508833923" y="40" width="49.49090433189374" height="50" fill="#A97BFF"/>
<rect x="548.254155215286" y="40" width="42.706452035073944" height="50" fill="#ec915c"/>
<rect x="590.96060725036" y="40" width="32.47742442088732" height="50" fill="#000080"/>
<rect x="623.4380316712474" y="40" width="31.315272870043188" height="50" fill="None"/>
<rect x="654.7533045412905" y="40" width="30.906949352179037" height="50" fill="#b07219"/>
<rect x="685.6602538934695" y="40" width="27.263447192775814" height="50" fill="#5e5086"/>
<rect x="712.9237010862454" y="40" width="26.98076168040832" height="50" fill="#239dad"/>
<rect x="739.9044627666538" y="40" width="15.003271823059809" height="50" fill="#555555"/>
<rect x="754.9077345897135" y="40" width="9.883523099070803" height="50" fill="#f34b7d"/>
<rect x="764.7912576887843" y="40" width="9.862583431488027" height="50" fill="#3D6117"/>
<rect x="774.6538411202723" y="40" width="9.18204423504777" height="50" fill="#000000"/>
<rect x="783.8358853553201" y="40" width="7.318413820180604" height="50" fill="#89e051"/>
<rect x="791.1542991755007" y="40" width="5.695589582515378" height="50" fill="#DA3434"/>
<rect x="796.849888758016" y="40" width="3.1932993063735116" height="50" fill="#000000"/>
<rect x="800.0431880643896" y="40" width="2.900143960214632" height="50" fill="#199f4b"/>
<rect x="802.9433320246043" y="40" width="2.0730270906949353" height="50" fill="#427819"/>
<rect x="805.0163591152992" y="40" width="1.434367229420233" height="50" fill="#41b883"/>
<rect x="806.4507263447194" y="40" width="1.3820180604632901" height="50" fill="#000000"/>
<rect x="807.8327444051828" y="40" width="1.120272215678576" height="50" fill="#384d54"/>
<rect x="808.9530166208614" y="40" width="1.046983379138856" height="50" fill="#db5855"/>
<circle cx="16" cy="116" r="6" fill="#dea584" />
<text x="27" y="120" font-size="15" font-family="sans-serif" fill="#FFF">Rust (16.8k lines, 22.0%)</text>
<circle cx="266" cy="116" r="6" fill="#00B4AB" />
<text x="277" y="120" font-size="15" font-family="sans-serif" fill="#FFF">Dart (15.2k lines, 19.9%)</text>
<circle cx="516" cy="116" r="6" fill="#3572A5" />
<text x="527" y="120" font-size="15" font-family="sans-serif" fill="#FFF">Python (9.8k lines, 12.9%)</text>
<circle cx="16" cy="136" r="6" fill="#c22d40" />
<text x="27" y="140" font-size="15" font-family="sans-serif" fill="#FFF">Scala (4.9k lines, 6.3%)</text>
<circle cx="266" cy="136" r="6" fill="#A97BFF" />
<text x="277" y="140" font-size="15" font-family="sans-serif" fill="#FFF">Kotlin (4.7k lines, 6.2%)</text>
<circle cx="516" cy="136" r="6" fill="#ec915c" />
<text x="527" y="140" font-size="15" font-family="sans-serif" fill="#FFF">Zig (4.1k lines, 5.3%)</text>
<circle cx="16" cy="156" r="6" fill="#000080" />
<text x="27" y="160" font-size="15" font-family="sans-serif" fill="#FFF">Lua (3.1k lines, 4.1%)</text>
<circle cx="266" cy="156" r="6" fill="None" />
<text x="277" y="160" font-size="15" font-family="sans-serif" fill="#FFF">Lean (3.0k lines, 3.9%)</text>
<circle cx="516" cy="156" r="6" fill="#b07219" />
<text x="527" y="160" font-size="15" font-family="sans-serif" fill="#FFF">Java (3.0k lines, 3.9%)</text>
<circle cx="16" cy="176" r="6" fill="#5e5086" />
<text x="27" y="180" font-size="15" font-family="sans-serif" fill="#FFF">Haskell (2.6k lines, 3.4%)</text>
<circle cx="266" cy="176" r="6" fill="#239dad" />
<text x="277" y="180" font-size="15" font-family="sans-serif" fill="#FFF">Typst (2.6k lines, 3.4%)</text>
<circle cx="516" cy="176" r="6" fill="#555555" />
<text x="527" y="180" font-size="15" font-family="sans-serif" fill="#FFF">C (1.4k lines, 1.9%)</text>
<circle cx="16" cy="196" r="6" fill="#f34b7d" />
<text x="27" y="200" font-size="15" font-family="sans-serif" fill="#FFF">C++ (944 lines, 1.2%)</text>
<circle cx="266" cy="196" r="6" fill="#3D6117" />
<text x="277" y="200" font-size="15" font-family="sans-serif" fill="#FFF">TeX (942 lines, 1.2%)</text>
<circle cx="516" cy="196" r="6" fill="#000000" />
<text x="527" y="200" font-size="15" font-family="sans-serif" fill="#FFF">WebGPU Shad… (877 lines, 1.1%)</text>
<circle cx="16" cy="216" r="6" fill="#89e051" />
<text x="27" y="220" font-size="15" font-family="sans-serif" fill="#FFF">Shell (699 lines, 0.9%)</text>
<circle cx="266" cy="216" r="6" fill="#DA3434" />
<text x="277" y="220" font-size="15" font-family="sans-serif" fill="#FFF">CMake (544 lines, 0.7%)</text>
<circle cx="516" cy="216" r="6" fill="#000000" />
<text x="527" y="220" font-size="15" font-family="sans-serif" fill="#FFF">C Header (305 lines, 0.4%)</text>
<circle cx="16" cy="236" r="6" fill="#199f4b" />
<text x="27" y="240" font-size="15" font-family="sans-serif" fill="#FFF">Vim Script (277 lines, 0.4%)</text>
<circle cx="266" cy="236" r="6" fill="#427819" />
<text x="277" y="240" font-size="15" font-family="sans-serif" fill="#FFF">Makefile (198 lines, 0.3%)</text>
<circle cx="516" cy="236" r="6" fill="#41b883" />
<text x="527" y="240" font-size="15" font-family="sans-serif" fill="#FFF">Vue (137 lines, 0.2%)</text>
<circle cx="16" cy="256" r="6" fill="#000000" />
<text x="27" y="260" font-size="15" font-family="sans-serif" fill="#FFF">Batch (132 lines, 0.2%)</text>
<circle cx="266" cy="256" r="6" fill="#384d54" />
<text x="277" y="260" font-size="15" font-family="sans-serif" fill="#FFF">Just (107 lines, 0.1%)</text>
<circle cx="516" cy="256" r="6" fill="#db5855" />
<text x="527" y="260" font-size="15" font-family="sans-serif" fill="#FFF">Clojure (100 lines, 0.1%)</text>
</svg>