<svg width="800" height="290" xmlns="http://www.w3.org/2000/svg">
<rect width="800" height="290" fill="#212830"/>
<rect x="10" y="40" width="169.82015959347333" height="50" fill="#dea584"/>
<rect x="179.82015959347333" y="40" width="160.6733097780777" height="50" fill="#00B4AB"/>
<rect x="340.49346937155104" y="40" width="104.0771765453174" height="50" fill="#3572A5"/>
<rect x="444.57064591686844" y="40" width="51.36633715775404" height="50" fill="#c22d40"/>
<rect x="495.9369830746225" y="40" width="50.0430081914063" height="50" fill="#A97BFF"/>
<rect x="545.9799912660288" y="40" width="43.182870829859596" height="50" fill="#ec915c"/>
<rect x="589.1628620958884" y="40" width="32.83973162888563" height="50" fill="#000080"/>
<rect x="622.002593724774" y="40" width="31.66461550676883" height="50" fill="None"/>
<rect x="653.6672092315429" y="40" width="31.251736869268328" height="50" fill="#b07219"/>
<rect x="684.9189461008112" y="40" width="27.567589026956213" height="50" fill="#5e5086"/>
<rect x="712.4865351277674" y="40" width="26.635965434647407" height="50" fill="#239dad"/>
<rect x="739.1225005624149" y="40" width="15.17064327021054" height="50" fill="#555555"/>
<rect x="754.2931438326254" y="40" width="9.993780353858165" height="50" fill="#f34b7d"/>
<rect x="764.2869241864836" y="40" width="9.9726070903966" height="50" fill="#3D6117"/>
<rect x="774.2595312768802" y="40" width="9.284476027895774" height="50" fill="#000000"/>
<rect x="783.544007304776" y="40" width="7.400055579816586" height="50" fill="#89e051"/>
<rect x="790.9440628845925" y="40" width="5.759127661545384" height="50" fill="#DA3434"/>
<rect x="796.7031905461379" y="40" width="3.2289226778884963" height="50" fill="#000000"/>
<rect x="799.9321132240264" y="40" width="2.9324969894266015" height="50" fill="#199f4b"/>
<rect x="802.8646102134529" y="40" width="2.096153082694827" height="50" fill="#427819"/>
<rect x="804.9607632961478" y="40" width="1.4503685471171277" height="50" fill="#41b883"/>
<rect x="806.4111318432649" y="40" width="1.397435388463218" height="50" fill="#000000"/>
<rect x="807.8085672317281" y="40" width="1.1327695951936692" height="50" fill="#384d54"/>
<rect x="808.9413368269218" y="40" width="1.0586631730781955" height="50" fill="#db5855"/>
<circle cx="16" cy="116" r="6" fill="#dea584" />
<text x="27" y="120" font-size="15" font-family="sans-serif" fill="#FFF">Rust (16.0k lines, 21.2%)</text>
<circle cx="266" cy="116" r="6" fill="#00B4AB" />
<text x="277" y="120" font-size="15" font-family="sans-serif" fill="#FFF">Dart (15.2k lines, 20.1%)</text>
<circle cx="516" cy="116" r="6" fill="#3572A5" />
<text x="527" y="120" font-size="15" font-family="sans-serif" fill="#FFF">Python (9.8k lines, 13.0%)</text>
<circle cx="16" cy="136" r="6" fill="#c22d40" />
<text x="27" y="140" font-size="15" font-family="sans-serif" fill="#FFF">Scala (4.9k lines, 6.4%)</text>
<circle cx="266" cy="136" r="6" fill="#A97BFF" />
<text x="277" y="140" font-size="15" font-family="sans-serif" fill="#FFF">Kotlin (4.7k lines, 6.3%)</text>
<circle cx="516" cy="136" r="6" fill="#ec915c" />
<text x="527" y="140" font-size="15" font-family="sans-serif" fill="#FFF">Zig (4.1k lines, 5.4%)</text>
<circle cx="16" cy="156" r="6" fill="#000080" />
<text x="27" y="160" font-size="15" font-family="sans-serif" fill="#FFF">Lua (3.1k lines, 4.1%)</text>
<circle cx="266" cy="156" r="6" fill="None" />
<text x="277" y="160" font-size="15" font-family="sans-serif" fill="#FFF">Lean (3.0k lines, 4.0%)</text>
<circle cx="516" cy="156" r="6" fill="#b07219" />
<text x="527" y="160" font-size="15" font-family="sans-serif" fill="#FFF">Java (3.0k lines, 3.9%)</text>
<circle cx="16" cy="176" r="6" fill="#5e5086" />
<text x="27" y="180" font-size="15" font-family="sans-serif" fill="#FFF">Haskell (2.6k lines, 3.4%)</text>
<circle cx="266" cy="176" r="6" fill="#239dad" />
<text x="277" y="180" font-size="15" font-family="sans-serif" fill="#FFF">Typst (2.5k lines, 3.3%)</text>
<circle cx="516" cy="176" r="6" fill="#555555" />
<text x="527" y="180" font-size="15" font-family="sans-serif" fill="#FFF">C (1.4k lines, 1.9%)</text>
<circle cx="16" cy="196" r="6" fill="#f34b7d" />
<text x="27" y="200" font-size="15" font-family="sans-serif" fill="#FFF">C++ (944 lines, 1.2%)</text>
<circle cx="266" cy="196" r="6" fill="#3D6117" />
<text x="277" y="200" font-size="15" font-family="sans-serif" fill="#FFF">TeX (942 lines, 1.2%)</text>
<circle cx="516" cy="196" r="6" fill="#000000" />
<text x="527" y="200" font-size="15" font-family="sans-serif" fill="#FFF">WebGPU Shad… (877 lines, 1.2%)</text>
<circle cx="16" cy="216" r="6" fill="#89e051" />
<text x="27" y="220" font-size="15" font-family="sans-serif" fill="#FFF">Shell (699 lines, 0.9%)</text>
<circle cx="266" cy="216" r="6" fill="#DA3434" />
<text x="277" y="220" font-size="15" font-family="sans-serif" fill="#FFF">CMake (544 lines, 0.7%)</text>
<circle cx="516" cy="216" r="6" fill="#000000" />
<text x="527" y="220" font-size="15" font-family="sans-serif" fill="#FFF">C Header (305 lines, 0.4%)</text>
<circle cx="16" cy="236" r="6" fill="#199f4b" />
<text x="27" y="240" font-size="15" font-family="sans-serif" fill="#FFF">Vim Script (277 lines, 0.4%)</text>
<circle cx="266" cy="236" r="6" fill="#427819" />
<text x="277" y="240" font-size="15" font-family="sans-serif" fill="#FFF">Makefile (198 lines, 0.3%)</text>
<circle cx="516" cy="236" r="6" fill="#41b883" />
<text x="527" y="240" font-size="15" font-family="sans-serif" fill="#FFF">Vue (137 lines, 0.2%)</text>
<circle cx="16" cy="256" r="6" fill="#000000" />
<text x="27" y="260" font-size="15" font-family="sans-serif" fill="#FFF">Batch (132 lines, 0.2%)</text>
<circle cx="266" cy="256" r="6" fill="#384d54" />
<text x="277" y="260" font-size="15" font-family="sans-serif" fill="#FFF">Just (107 lines, 0.1%)</text>
<circle cx="516" cy="256" r="6" fill="#db5855" />
<text x="527" y="260" font-size="15" font-family="sans-serif" fill="#FFF">Clojure (100 lines, 0.1%)</text>
</svg>