<svg width="800" height="270" xmlns="http://www.w3.org/2000/svg">
<rect width="800" height="270" fill="#212830"/>
<rect x="10" y="40" width="206.76407479309287" height="50" fill="#00B4AB"/>
<rect x="216.76407479309287" y="40" width="155.6214025407854" height="50" fill="#dea584"/>
<rect x="372.38547733387827" y="40" width="66.10129082796907" height="50" fill="#c22d40"/>
<rect x="438.48676816184735" y="40" width="55.57031436258983" height="50" fill="#ec915c"/>
<rect x="494.0570825244372" y="40" width="40.74793092878308" height="50" fill="None"/>
<rect x="534.8050134532202" y="40" width="40.21661387554919" height="50" fill="#b07219"/>
<rect x="575.0216273287695" y="40" width="38.241204318654" height="50" fill="#3572A5"/>
<rect x="613.2628316474235" y="40" width="35.475630939000716" height="50" fill="#5e5086"/>
<rect x="648.7384625864241" y="40" width="33.05064541398453" height="50" fill="#000080"/>
<rect x="681.7891080004086" y="40" width="31.524811825210314" height="50" fill="#239dad"/>
<rect x="713.313919825619" y="40" width="19.52249582779878" height="50" fill="#555555"/>
<rect x="732.8364156534178" y="40" width="14.16845475290351" height="50" fill="#A97BFF"/>
<rect x="747.0048704063213" y="40" width="12.860597391097036" height="50" fill="#f34b7d"/>
<rect x="759.8654677974183" y="40" width="12.833350362726064" height="50" fill="#3D6117"/>
<rect x="772.6988181601444" y="40" width="11.947821940669593" height="50" fill="#000000"/>
<rect x="784.6466401008139" y="40" width="7.411191716903377" height="50" fill="#DA3434"/>
<rect x="792.0578318177173" y="40" width="5.953475699056572" height="50" fill="#89e051"/>
<rect x="798.0113075167739" y="40" width="4.155171826572665" height="50" fill="#000000"/>
<rect x="802.1664793433465" y="40" width="3.773713429379108" height="50" fill="#199f4b"/>
<rect x="805.9401927727256" y="40" width="2.697455808725861" height="50" fill="#427819"/>
<rect x="808.6376485814515" y="40" width="1.3623514185484147" height="50" fill="#db5855"/>
<circle cx="16" cy="116" r="6" fill="#00B4AB" />
<text x="27" y="120" font-size="15" font-family="sans-serif" fill="#FFF">Dart (15.2k lines, 25.8%)</text>
<circle cx="266" cy="116" r="6" fill="#dea584" />
<text x="277" y="120" font-size="15" font-family="sans-serif" fill="#FFF">Rust (11.4k lines, 19.5%)</text>
<circle cx="516" cy="116" r="6" fill="#c22d40" />
<text x="527" y="120" font-size="15" font-family="sans-serif" fill="#FFF">Scala (4.9k lines, 8.3%)</text>
<circle cx="16" cy="136" r="6" fill="#ec915c" />
<text x="27" y="140" font-size="15" font-family="sans-serif" fill="#FFF">Zig (4.1k lines, 6.9%)</text>
<circle cx="266" cy="136" r="6" fill="None" />
<text x="277" y="140" font-size="15" font-family="sans-serif" fill="#FFF">Lean (3.0k lines, 5.1%)</text>
<circle cx="516" cy="136" r="6" fill="#b07219" />
<text x="527" y="140" font-size="15" font-family="sans-serif" fill="#FFF">Java (3.0k lines, 5.0%)</text>
<circle cx="16" cy="156" r="6" fill="#3572A5" />
<text x="27" y="160" font-size="15" font-family="sans-serif" fill="#FFF">Python (2.8k lines, 4.8%)</text>
<circle cx="266" cy="156" r="6" fill="#5e5086" />
<text x="277" y="160" font-size="15" font-family="sans-serif" fill="#FFF">Haskell (2.6k lines, 4.4%)</text>
<circle cx="516" cy="156" r="6" fill="#000080" />
<text x="527" y="160" font-size="15" font-family="sans-serif" fill="#FFF">Lua (2.4k lines, 4.1%)</text>
<circle cx="16" cy="176" r="6" fill="#239dad" />
<text x="27" y="180" font-size="15" font-family="sans-serif" fill="#FFF">Typst (2.3k lines, 3.9%)</text>
<circle cx="266" cy="176" r="6" fill="#555555" />
<text x="277" y="180" font-size="15" font-family="sans-serif" fill="#FFF">C (1.4k lines, 2.4%)</text>
<circle cx="516" cy="176" r="6" fill="#A97BFF" />
<text x="527" y="180" font-size="15" font-family="sans-serif" fill="#FFF">Kotlin (1.0k lines, 1.8%)</text>
<circle cx="16" cy="196" r="6" fill="#f34b7d" />
<text x="27" y="200" font-size="15" font-family="sans-serif" fill="#FFF">C++ (944 lines, 1.6%)</text>
<circle cx="266" cy="196" r="6" fill="#3D6117" />
<text x="277" y="200" font-size="15" font-family="sans-serif" fill="#FFF">TeX (942 lines, 1.6%)</text>
<circle cx="516" cy="196" r="6" fill="#000000" />
<text x="527" y="200" font-size="15" font-family="sans-serif" fill="#FFF">WebGPU Shad… (877 lines, 1.5%)</text>
<circle cx="16" cy="216" r="6" fill="#DA3434" />
<text x="27" y="220" font-size="15" font-family="sans-serif" fill="#FFF">CMake (544 lines, 0.9%)</text>
<circle cx="266" cy="216" r="6" fill="#89e051" />
<text x="277" y="220" font-size="15" font-family="sans-serif" fill="#FFF">Shell (437 lines, 0.7%)</text>
<circle cx="516" cy="216" r="6" fill="#000000" />
<text x="527" y="220" font-size="15" font-family="sans-serif" fill="#FFF">C Header (305 lines, 0.5%)</text>
<circle cx="16" cy="236" r="6" fill="#199f4b" />
<text x="27" y="240" font-size="15" font-family="sans-serif" fill="#FFF">Vim Script (277 lines, 0.5%)</text>
<circle cx="266" cy="236" r="6" fill="#427819" />
<text x="277" y="240" font-size="15" font-family="sans-serif" fill="#FFF">Makefile (198 lines, 0.3%)</text>
<circle cx="516" cy="236" r="6" fill="#db5855" />
<text x="527" y="240" font-size="15" font-family="sans-serif" fill="#FFF">Clojure (100 lines, 0.2%)</text>
</svg>