<svg width="800" height="270" xmlns="http://www.w3.org/2000/svg">
<rect width="800" height="270" fill="#212830"/>
<rect x="10" y="40" width="230.90248672813635" height="50" fill="#00B4AB"/>
<rect x="240.90248672813635" y="40" width="88.62810841017044" height="50" fill="#c22d40"/>
<rect x="329.5305951383068" y="40" width="65.98491198658843" height="50" fill="#b07219"/>
<rect x="395.51550712489524" y="40" width="57.73679798826488" height="50" fill="#5e5086"/>
<rect x="453.2523051131601" y="40" width="54.227437831796585" height="50" fill="#000080"/>
<rect x="507.4797429449567" y="40" width="51.47806649902207" height="50" fill="#3572A5"/>
<rect x="558.9578094439787" y="40" width="39.2735400949986" height="50" fill="#dea584"/>
<rect x="598.2313495389773" y="40" width="32.03129365744621" height="50" fill="#555555"/>
<rect x="630.2626431964235" y="40" width="25.39256775635653" height="50" fill="#239dad"/>
<rect x="655.6552109527801" y="40" width="23.1349538977368" height="50" fill="None"/>
<rect x="678.7901648505168" y="40" width="21.10086616373289" height="50" fill="#f34b7d"/>
<rect x="699.8910310142497" y="40" width="21.05616093880972" height="50" fill="#3D6117"/>
<rect x="720.9471919530595" y="40" width="19.31265716680637" height="50" fill="#ec915c"/>
<rect x="740.2598491198659" y="40" width="16.9879854708019" height="50" fill="#000000"/>
<rect x="757.2478345906677" y="40" width="15.289186923721708" height="50" fill="#A97BFF"/>
<rect x="772.5370215143894" y="40" width="12.159821179100309" height="50" fill="#DA3434"/>
<rect x="784.6968426934897" y="40" width="6.817546800782341" height="50" fill="#000000"/>
<rect x="791.514389494272" y="40" width="6.571668063704945" height="50" fill="#89e051"/>
<rect x="798.0860575579769" y="40" width="6.191673651858061" height="50" fill="#199f4b"/>
<rect x="804.277731209835" y="40" width="3.4870075440067065" height="50" fill="#427819"/>
<rect x="807.7647387538417" y="40" width="2.235261246158145" height="50" fill="#db5855"/>
<circle cx="16" cy="116" r="6" fill="#00B4AB" />
<text x="27" y="120" font-size="15" font-family="sans-serif" fill="#FFF">Dart (10.3k lines, 28.9%)</text>
<circle cx="266" cy="116" r="6" fill="#c22d40" />
<text x="277" y="120" font-size="15" font-family="sans-serif" fill="#FFF">Scala (4.0k lines, 11.1%)</text>
<circle cx="516" cy="116" r="6" fill="#b07219" />
<text x="527" y="120" font-size="15" font-family="sans-serif" fill="#FFF">Java (3.0k lines, 8.2%)</text>
<circle cx="16" cy="136" r="6" fill="#5e5086" />
<text x="27" y="140" font-size="15" font-family="sans-serif" fill="#FFF">Haskell (2.6k lines, 7.2%)</text>
<circle cx="266" cy="136" r="6" fill="#000080" />
<text x="277" y="140" font-size="15" font-family="sans-serif" fill="#FFF">Lua (2.4k lines, 6.8%)</text>
<circle cx="516" cy="136" r="6" fill="#3572A5" />
<text x="527" y="140" font-size="15" font-family="sans-serif" fill="#FFF">Python (2.3k lines, 6.4%)</text>
<circle cx="16" cy="156" r="6" fill="#dea584" />
<text x="27" y="160" font-size="15" font-family="sans-serif" fill="#FFF">Rust (1.8k lines, 4.9%)</text>
<circle cx="266" cy="156" r="6" fill="#555555" />
<text x="277" y="160" font-size="15" font-family="sans-serif" fill="#FFF">C (1.4k lines, 4.0%)</text>
<circle cx="516" cy="156" r="6" fill="#239dad" />
<text x="527" y="160" font-size="15" font-family="sans-serif" fill="#FFF">Typst (1.1k lines, 3.2%)</text>
<circle cx="16" cy="176" r="6" fill="None" />
<text x="27" y="180" font-size="15" font-family="sans-serif" fill="#FFF">Lean (1.0k lines, 2.9%)</text>
<circle cx="266" cy="176" r="6" fill="#f34b7d" />
<text x="277" y="180" font-size="15" font-family="sans-serif" fill="#FFF">C++ (944 lines, 2.6%)</text>
<circle cx="516" cy="176" r="6" fill="#3D6117" />
<text x="527" y="180" font-size="15" font-family="sans-serif" fill="#FFF">TeX (942 lines, 2.6%)</text>
<circle cx="16" cy="196" r="6" fill="#ec915c" />
<text x="27" y="200" font-size="15" font-family="sans-serif" fill="#FFF">Zig (864 lines, 2.4%)</text>
<circle cx="266" cy="196" r="6" fill="#000000" />
<text x="277" y="200" font-size="15" font-family="sans-serif" fill="#FFF">WebGPU Shad… (760 lines, 2.1%)</text>
<circle cx="516" cy="196" r="6" fill="#A97BFF" />
<text x="527" y="200" font-size="15" font-family="sans-serif" fill="#FFF">Kotlin (684 lines, 1.9%)</text>
<circle cx="16" cy="216" r="6" fill="#DA3434" />
<text x="27" y="220" font-size="15" font-family="sans-serif" fill="#FFF">CMake (544 lines, 1.5%)</text>
<circle cx="266" cy="216" r="6" fill="#000000" />
<text x="277" y="220" font-size="15" font-family="sans-serif" fill="#FFF">C Header (305 lines, 0.9%)</text>
<circle cx="516" cy="216" r="6" fill="#89e051" />
<text x="527" y="220" font-size="15" font-family="sans-serif" fill="#FFF">Shell (294 lines, 0.8%)</text>
<circle cx="16" cy="236" r="6" fill="#199f4b" />
<text x="27" y="240" font-size="15" font-family="sans-serif" fill="#FFF">Vim Script (277 lines, 0.8%)</text>
<circle cx="266" cy="236" r="6" fill="#427819" />
<text x="277" y="240" font-size="15" font-family="sans-serif" fill="#FFF">Makefile (156 lines, 0.4%)</text>
<circle cx="516" cy="236" r="6" fill="#db5855" />
<text x="527" y="240" font-size="15" font-family="sans-serif" fill="#FFF">Clojure (100 lines, 0.3%)</text>
</svg>