<svg width="800" height="290" xmlns="http://www.w3.org/2000/svg">
<rect width="800" height="290" fill="#212830"/>
<rect x="10" y="40" width="232.21756342086155" height="50" fill="#dea584"/>
<rect x="242.21756342086155" y="40" width="142.20327469490059" height="50" fill="#00B4AB"/>
<rect x="384.42083811576214" y="40" width="90.20168185331802" height="50" fill="#3572A5"/>
<rect x="474.62251996908014" y="40" width="45.79888032606404" height="50" fill="#A97BFF"/>
<rect x="520.4214002951442" y="40" width="45.46157269682134" height="50" fill="#c22d40"/>
<rect x="565.8829729919655" y="40" width="38.2188283244712" height="50" fill="#ec915c"/>
<rect x="604.1018013164368" y="40" width="29.064674053079102" height="50" fill="#000080"/>
<rect x="633.1664753695159" y="40" width="28.024642196247452" height="50" fill="None"/>
<rect x="661.1911175657633" y="40" width="27.659225597901198" height="50" fill="#b07219"/>
<rect x="688.8503431636645" y="40" width="24.398585181888453" height="50" fill="#5e5086"/>
<rect x="713.248928345553" y="40" width="24.14560445995643" height="50" fill="#239dad"/>
<rect x="737.3945328055095" y="40" width="13.426717575132932" height="50" fill="#555555"/>
<rect x="750.8212503806424" y="40" width="8.844955611252956" height="50" fill="#f34b7d"/>
<rect x="759.6662059918954" y="40" width="8.826216298517252" height="50" fill="#3D6117"/>
<rect x="768.4924222904126" y="40" width="8.723150078470871" height="50" fill="#41b883"/>
<rect x="777.2155723688835" y="40" width="8.50764798201026" height="50" fill="#89e051"/>
<rect x="785.7232203508937" y="40" width="8.217188634606826" height="50" fill="#000000"/>
<rect x="793.9404089855005" y="40" width="5.097093064111874" height="50" fill="#DA3434"/>
<rect x="799.0375020496124" y="40" width="2.8577451921950763" height="50" fill="#000000"/>
<rect x="801.8952472418075" y="40" width="2.5953948138952" height="50" fill="#199f4b"/>
<rect x="804.4906420557027" y="40" width="1.8551919608348364" height="50" fill="#427819"/>
<rect x="806.3458340165375" y="40" width="1.480405706120728" height="50" fill="#384d54"/>
<rect x="807.8262397226582" y="40" width="1.2367946405565575" height="50" fill="#000000"/>
<rect x="809.0630343632148" y="40" width="0.9369656367852709" height="50" fill="#db5855"/>
<circle cx="16" cy="116" r="6" fill="#dea584" />
<text x="27" y="120" font-size="15" font-family="sans-serif" fill="#FFF">Rust (24.8k lines, 29.0%)</text>
<circle cx="266" cy="116" r="6" fill="#00B4AB" />
<text x="277" y="120" font-size="15" font-family="sans-serif" fill="#FFF">Dart (15.2k lines, 17.8%)</text>
<circle cx="516" cy="116" r="6" fill="#3572A5" />
<text x="527" y="120" font-size="15" font-family="sans-serif" fill="#FFF">Python (9.6k lines, 11.3%)</text>
<circle cx="16" cy="136" r="6" fill="#A97BFF" />
<text x="27" y="140" font-size="15" font-family="sans-serif" fill="#FFF">Kotlin (4.9k lines, 5.7%)</text>
<circle cx="266" cy="136" r="6" fill="#c22d40" />
<text x="277" y="140" font-size="15" font-family="sans-serif" fill="#FFF">Scala (4.9k lines, 5.7%)</text>
<circle cx="516" cy="136" r="6" fill="#ec915c" />
<text x="527" y="140" font-size="15" font-family="sans-serif" fill="#FFF">Zig (4.1k lines, 4.8%)</text>
<circle cx="16" cy="156" r="6" fill="#000080" />
<text x="27" y="160" font-size="15" font-family="sans-serif" fill="#FFF">Lua (3.1k lines, 3.6%)</text>
<circle cx="266" cy="156" r="6" fill="None" />
<text x="277" y="160" font-size="15" font-family="sans-serif" fill="#FFF">Lean (3.0k lines, 3.5%)</text>
<circle cx="516" cy="156" r="6" fill="#b07219" />
<text x="527" y="160" font-size="15" font-family="sans-serif" fill="#FFF">Java (3.0k lines, 3.5%)</text>
<circle cx="16" cy="176" r="6" fill="#5e5086" />
<text x="27" y="180" font-size="15" font-family="sans-serif" fill="#FFF">Haskell (2.6k lines, 3.0%)</text>
<circle cx="266" cy="176" r="6" fill="#239dad" />
<text x="277" y="180" font-size="15" font-family="sans-serif" fill="#FFF">Typst (2.6k lines, 3.0%)</text>
<circle cx="516" cy="176" r="6" fill="#555555" />
<text x="527" y="180" font-size="15" font-family="sans-serif" fill="#FFF">C (1.4k lines, 1.7%)</text>
<circle cx="16" cy="196" r="6" fill="#f34b7d" />
<text x="27" y="200" font-size="15" font-family="sans-serif" fill="#FFF">C++ (944 lines, 1.1%)</text>
<circle cx="266" cy="196" r="6" fill="#3D6117" />
<text x="277" y="200" font-size="15" font-family="sans-serif" fill="#FFF">TeX (942 lines, 1.1%)</text>
<circle cx="516" cy="196" r="6" fill="#41b883" />
<text x="527" y="200" font-size="15" font-family="sans-serif" fill="#FFF">Vue (931 lines, 1.1%)</text>
<circle cx="16" cy="216" r="6" fill="#89e051" />
<text x="27" y="220" font-size="15" font-family="sans-serif" fill="#FFF">Shell (908 lines, 1.1%)</text>
<circle cx="266" cy="216" r="6" fill="#000000" />
<text x="277" y="220" font-size="15" font-family="sans-serif" fill="#FFF">WebGPU Shad… (877 lines, 1.0%)</text>
<circle cx="516" cy="216" r="6" fill="#DA3434" />
<text x="527" y="220" font-size="15" font-family="sans-serif" fill="#FFF">CMake (544 lines, 0.6%)</text>
<circle cx="16" cy="236" r="6" fill="#000000" />
<text x="27" y="240" font-size="15" font-family="sans-serif" fill="#FFF">C Header (305 lines, 0.4%)</text>
<circle cx="266" cy="236" r="6" fill="#199f4b" />
<text x="277" y="240" font-size="15" font-family="sans-serif" fill="#FFF">Vim Script (277 lines, 0.3%)</text>
<circle cx="516" cy="236" r="6" fill="#427819" />
<text x="527" y="240" font-size="15" font-family="sans-serif" fill="#FFF">Makefile (198 lines, 0.2%)</text>
<circle cx="16" cy="256" r="6" fill="#384d54" />
<text x="27" y="260" font-size="15" font-family="sans-serif" fill="#FFF">Just (158 lines, 0.2%)</text>
<circle cx="266" cy="256" r="6" fill="#000000" />
<text x="277" y="260" font-size="15" font-family="sans-serif" fill="#FFF">Batch (132 lines, 0.2%)</text>
<circle cx="516" cy="256" r="6" fill="#db5855" />
<text x="527" y="260" font-size="15" font-family="sans-serif" fill="#FFF">Clojure (100 lines, 0.1%)</text>
</svg>