<svg width="800" height="270" xmlns="http://www.w3.org/2000/svg">
<rect width="800" height="270" fill="#212830"/>
<rect x="10" y="40" width="234.57495492996813" height="50" fill="#00B4AB"/>
<rect x="244.57495492996813" y="40" width="87.97670226043545" height="50" fill="#c22d40"/>
<rect x="332.5516571904036" y="40" width="65.49993066148939" height="50" fill="#b07219"/>
<rect x="398.051587851893" y="40" width="57.31243932880322" height="50" fill="#5e5086"/>
<rect x="455.3640271806962" y="40" width="53.8288725558175" height="50" fill="#000080"/>
<rect x="509.1928997365137" y="40" width="51.09970877825545" height="50" fill="#3572A5"/>
<rect x="560.2926085147692" y="40" width="38.98488420468728" height="50" fill="#dea584"/>
<rect x="599.2774927194565" y="40" width="31.79586742476771" height="50" fill="#555555"/>
<rect x="631.0733601442242" y="40" width="25.205935376508116" height="50" fill="#239dad"/>
<rect x="656.2792955207324" y="40" width="22.964914713631952" height="50" fill="None"/>
<rect x="679.2442102343643" y="40" width="20.945777284703926" height="50" fill="#f34b7d"/>
<rect x="700.1899875190683" y="40" width="20.9014006379143" height="50" fill="#3D6117"/>
<rect x="721.0913881569826" y="40" width="19.170711413118845" height="50" fill="#ec915c"/>
<rect x="740.2620995701014" y="40" width="16.863125780058244" height="50" fill="#000000"/>
<rect x="757.1252253501597" y="40" width="15.332131465816115" height="50" fill="#A97BFF"/>
<rect x="772.4573568159758" y="40" width="12.070447926778535" height="50" fill="#DA3434"/>
<rect x="784.5278047427544" y="40" width="6.878380252392178" height="50" fill="#89e051"/>
<rect x="791.4061849951465" y="40" width="6.767438635418113" height="50" fill="#000000"/>
<rect x="798.1736236305646" y="40" width="6.146165580363334" height="50" fill="#199f4b"/>
<rect x="804.319789210928" y="40" width="3.4613784495909035" height="50" fill="#427819"/>
<rect x="807.7811676605189" y="40" width="2.218832339481348" height="50" fill="#db5855"/>
<circle cx="16" cy="116" r="6" fill="#00B4AB" />
<text x="27" y="120" font-size="15" font-family="sans-serif" fill="#FFF">Dart (10.6k lines, 29.3%)</text>
<circle cx="266" cy="116" r="6" fill="#c22d40" />
<text x="277" y="120" font-size="15" font-family="sans-serif" fill="#FFF">Scala (4.0k lines, 11.0%)</text>
<circle cx="516" cy="116" r="6" fill="#b07219" />
<text x="527" y="120" font-size="15" font-family="sans-serif" fill="#FFF">Java (3.0k lines, 8.2%)</text>
<circle cx="16" cy="136" r="6" fill="#5e5086" />
<text x="27" y="140" font-size="15" font-family="sans-serif" fill="#FFF">Haskell (2.6k lines, 7.2%)</text>
<circle cx="266" cy="136" r="6" fill="#000080" />
<text x="277" y="140" font-size="15" font-family="sans-serif" fill="#FFF">Lua (2.4k lines, 6.7%)</text>
<circle cx="516" cy="136" r="6" fill="#3572A5" />
<text x="527" y="140" font-size="15" font-family="sans-serif" fill="#FFF">Python (2.3k lines, 6.4%)</text>
<circle cx="16" cy="156" r="6" fill="#dea584" />
<text x="27" y="160" font-size="15" font-family="sans-serif" fill="#FFF">Rust (1.8k lines, 4.9%)</text>
<circle cx="266" cy="156" r="6" fill="#555555" />
<text x="277" y="160" font-size="15" font-family="sans-serif" fill="#FFF">C (1.4k lines, 4.0%)</text>
<circle cx="516" cy="156" r="6" fill="#239dad" />
<text x="527" y="160" font-size="15" font-family="sans-serif" fill="#FFF">Typst (1.1k lines, 3.2%)</text>
<circle cx="16" cy="176" r="6" fill="None" />
<text x="27" y="180" font-size="15" font-family="sans-serif" fill="#FFF">Lean (1.0k lines, 2.9%)</text>
<circle cx="266" cy="176" r="6" fill="#f34b7d" />
<text x="277" y="180" font-size="15" font-family="sans-serif" fill="#FFF">C++ (944 lines, 2.6%)</text>
<circle cx="516" cy="176" r="6" fill="#3D6117" />
<text x="527" y="180" font-size="15" font-family="sans-serif" fill="#FFF">TeX (942 lines, 2.6%)</text>
<circle cx="16" cy="196" r="6" fill="#ec915c" />
<text x="27" y="200" font-size="15" font-family="sans-serif" fill="#FFF">Zig (864 lines, 2.4%)</text>
<circle cx="266" cy="196" r="6" fill="#000000" />
<text x="277" y="200" font-size="15" font-family="sans-serif" fill="#FFF">WebGPU Shad… (760 lines, 2.1%)</text>
<circle cx="516" cy="196" r="6" fill="#A97BFF" />
<text x="527" y="200" font-size="15" font-family="sans-serif" fill="#FFF">Kotlin (691 lines, 1.9%)</text>
<circle cx="16" cy="216" r="6" fill="#DA3434" />
<text x="27" y="220" font-size="15" font-family="sans-serif" fill="#FFF">CMake (544 lines, 1.5%)</text>
<circle cx="266" cy="216" r="6" fill="#89e051" />
<text x="277" y="220" font-size="15" font-family="sans-serif" fill="#FFF">Shell (310 lines, 0.9%)</text>
<circle cx="516" cy="216" r="6" fill="#000000" />
<text x="527" y="220" font-size="15" font-family="sans-serif" fill="#FFF">C Header (305 lines, 0.8%)</text>
<circle cx="16" cy="236" r="6" fill="#199f4b" />
<text x="27" y="240" font-size="15" font-family="sans-serif" fill="#FFF">Vim Script (277 lines, 0.8%)</text>
<circle cx="266" cy="236" r="6" fill="#427819" />
<text x="277" y="240" font-size="15" font-family="sans-serif" fill="#FFF">Makefile (156 lines, 0.4%)</text>
<circle cx="516" cy="236" r="6" fill="#db5855" />
<text x="527" y="240" font-size="15" font-family="sans-serif" fill="#FFF">Clojure (100 lines, 0.3%)</text>
</svg>