<svg width="800" height="270" xmlns="http://www.w3.org/2000/svg">
<rect width="800" height="270" fill="#212830"/>
<rect x="10" y="40" width="204.59114033999256" height="50" fill="#00B4AB"/>
<rect x="214.59114033999256" y="40" width="98.3993051247053" height="50" fill="#c22d40"/>
<rect x="312.99044546469787" y="40" width="73.2597096413947" height="50" fill="#b07219"/>
<rect x="386.25015510609256" y="40" width="64.10224593622037" height="50" fill="#5e5086"/>
<rect x="450.3524010423129" y="40" width="60.106712991686315" height="50" fill="#000080"/>
<rect x="510.45911403399924" y="40" width="43.60342474252389" height="50" fill="#dea584"/>
<rect x="554.0625387765232" y="40" width="35.56272490383422" height="50" fill="#555555"/>
<rect x="589.6252636803574" y="40" width="28.192083385035367" height="50" fill="#239dad"/>
<rect x="617.8173470653928" y="40" width="26.355627249038342" height="50" fill="#3572A5"/>
<rect x="644.1729743144311" y="40" width="25.685568929147536" height="50" fill="None"/>
<rect x="669.8585432435787" y="40" width="23.427224221367414" height="50" fill="#f34b7d"/>
<rect x="693.285767464946" y="40" width="23.377590271745877" height="50" fill="#3D6117"/>
<rect x="716.663357736692" y="40" width="21.441866236505767" height="50" fill="#ec915c"/>
<rect x="738.1052239731978" y="40" width="18.86090085618563" height="50" fill="#000000"/>
<rect x="756.9661248293834" y="40" width="13.50043429705919" height="50" fill="#DA3434"/>
<rect x="770.4665591264426" y="40" width="11.936964883980643" height="50" fill="#A97BFF"/>
<rect x="782.4035240104232" y="40" width="7.569177317285022" height="50" fill="#000000"/>
<rect x="789.9727013277083" y="40" width="7.296190594366547" height="50" fill="#89e051"/>
<rect x="797.2688919220748" y="40" width="6.874302022583446" height="50" fill="#199f4b"/>
<rect x="804.1431939446583" y="40" width="3.3751085742647975" height="50" fill="#427819"/>
<rect x="807.5183025189231" y="40" width="2.481697481077057" height="50" fill="#db5855"/>
<circle cx="16" cy="116" r="6" fill="#00B4AB" />
<text x="27" y="120" font-size="15" font-family="sans-serif" fill="#FFF">Dart (8.2k lines, 25.6%)</text>
<circle cx="266" cy="116" r="6" fill="#c22d40" />
<text x="277" y="120" font-size="15" font-family="sans-serif" fill="#FFF">Scala (4.0k lines, 12.3%)</text>
<circle cx="516" cy="116" r="6" fill="#b07219" />
<text x="527" y="120" font-size="15" font-family="sans-serif" fill="#FFF">Java (3.0k lines, 9.2%)</text>
<circle cx="16" cy="136" r="6" fill="#5e5086" />
<text x="27" y="140" font-size="15" font-family="sans-serif" fill="#FFF">Haskell (2.6k lines, 8.0%)</text>
<circle cx="266" cy="136" r="6" fill="#000080" />
<text x="277" y="140" font-size="15" font-family="sans-serif" fill="#FFF">Lua (2.4k lines, 7.5%)</text>
<circle cx="516" cy="136" r="6" fill="#dea584" />
<text x="527" y="140" font-size="15" font-family="sans-serif" fill="#FFF">Rust (1.8k lines, 5.5%)</text>
<circle cx="16" cy="156" r="6" fill="#555555" />
<text x="27" y="160" font-size="15" font-family="sans-serif" fill="#FFF">C (1.4k lines, 4.4%)</text>
<circle cx="266" cy="156" r="6" fill="#239dad" />
<text x="277" y="160" font-size="15" font-family="sans-serif" fill="#FFF">Typst (1.1k lines, 3.5%)</text>
<circle cx="516" cy="156" r="6" fill="#3572A5" />
<text x="527" y="160" font-size="15" font-family="sans-serif" fill="#FFF">Python (1.1k lines, 3.3%)</text>
<circle cx="16" cy="176" r="6" fill="None" />
<text x="27" y="180" font-size="15" font-family="sans-serif" fill="#FFF">Lean (1.0k lines, 3.2%)</text>
<circle cx="266" cy="176" r="6" fill="#f34b7d" />
<text x="277" y="180" font-size="15" font-family="sans-serif" fill="#FFF">C++ (944 lines, 2.9%)</text>
<circle cx="516" cy="176" r="6" fill="#3D6117" />
<text x="527" y="180" font-size="15" font-family="sans-serif" fill="#FFF">TeX (942 lines, 2.9%)</text>
<circle cx="16" cy="196" r="6" fill="#ec915c" />
<text x="27" y="200" font-size="15" font-family="sans-serif" fill="#FFF">Zig (864 lines, 2.7%)</text>
<circle cx="266" cy="196" r="6" fill="#000000" />
<text x="277" y="200" font-size="15" font-family="sans-serif" fill="#FFF">WebGPU Shad… (760 lines, 2.4%)</text>
<circle cx="516" cy="196" r="6" fill="#DA3434" />
<text x="527" y="200" font-size="15" font-family="sans-serif" fill="#FFF">CMake (544 lines, 1.7%)</text>
<circle cx="16" cy="216" r="6" fill="#A97BFF" />
<text x="27" y="220" font-size="15" font-family="sans-serif" fill="#FFF">Kotlin (481 lines, 1.5%)</text>
<circle cx="266" cy="216" r="6" fill="#000000" />
<text x="277" y="220" font-size="15" font-family="sans-serif" fill="#FFF">C Header (305 lines, 0.9%)</text>
<circle cx="516" cy="216" r="6" fill="#89e051" />
<text x="527" y="220" font-size="15" font-family="sans-serif" fill="#FFF">Shell (294 lines, 0.9%)</text>
<circle cx="16" cy="236" r="6" fill="#199f4b" />
<text x="27" y="240" font-size="15" font-family="sans-serif" fill="#FFF">Vim Script (277 lines, 0.9%)</text>
<circle cx="266" cy="236" r="6" fill="#427819" />
<text x="277" y="240" font-size="15" font-family="sans-serif" fill="#FFF">Makefile (136 lines, 0.4%)</text>
<circle cx="516" cy="236" r="6" fill="#db5855" />
<text x="527" y="240" font-size="15" font-family="sans-serif" fill="#FFF">Clojure (100 lines, 0.3%)</text>
</svg>