<svg width="800" height="270" xmlns="http://www.w3.org/2000/svg">
<rect width="800" height="270" fill="#212830"/>
<rect x="10" y="40" width="212.67026236401864" height="50" fill="#00B4AB"/>
<rect x="222.67026236401864" y="40" width="96.65722034311484" height="50" fill="#c22d40"/>
<rect x="319.32748270713347" y="40" width="71.96270225797605" height="50" fill="#b07219"/>
<rect x="391.2901849651095" y="40" width="62.967364475729035" height="50" fill="#5e5086"/>
<rect x="454.25754944083855" y="40" width="59.042569400006094" height="50" fill="#000080"/>
<rect x="513.3001188408447" y="40" width="42.831459304628694" height="50" fill="#dea584"/>
<rect x="556.1315781454733" y="40" width="34.93311393485084" height="50" fill="#555555"/>
<rect x="591.0646920803242" y="40" width="28.35115946003596" height="50" fill="#3572A5"/>
<rect x="619.4158515403602" y="40" width="27.692964012554466" height="50" fill="#239dad"/>
<rect x="647.1088155529147" y="40" width="25.23082548679038" height="50" fill="None"/>
<rect x="672.3396410397052" y="40" width="23.01246305268611" height="50" fill="#f34b7d"/>
<rect x="695.3521040923913" y="40" width="22.963707834354146" height="50" fill="#3D6117"/>
<rect x="718.3158119267455" y="40" width="21.062254319407625" height="50" fill="#ec915c"/>
<rect x="739.3780662461531" y="40" width="18.526982966145596" height="50" fill="#000000"/>
<rect x="757.9050492122988" y="40" width="13.261419386293689" height="50" fill="#DA3434"/>
<rect x="771.1664685985925" y="40" width="11.725630008836884" height="50" fill="#A97BFF"/>
<rect x="782.8920986074294" y="40" width="7.435170795624218" height="50" fill="#000000"/>
<rect x="790.3272694030536" y="40" width="7.167017094798428" height="50" fill="#89e051"/>
<rect x="797.494286497852" y="40" width="6.75259773897675" height="50" fill="#199f4b"/>
<rect x="804.2468842368288" y="40" width="3.315354846573422" height="50" fill="#427819"/>
<rect x="807.5622390834022" y="40" width="2.4377609165981045" height="50" fill="#db5855"/>
<circle cx="16" cy="116" r="6" fill="#00B4AB" />
<text x="27" y="120" font-size="15" font-family="sans-serif" fill="#FFF">Dart (8.7k lines, 26.6%)</text>
<circle cx="266" cy="116" r="6" fill="#c22d40" />
<text x="277" y="120" font-size="15" font-family="sans-serif" fill="#FFF">Scala (4.0k lines, 12.1%)</text>
<circle cx="516" cy="116" r="6" fill="#b07219" />
<text x="527" y="120" font-size="15" font-family="sans-serif" fill="#FFF">Java (3.0k lines, 9.0%)</text>
<circle cx="16" cy="136" r="6" fill="#5e5086" />
<text x="27" y="140" font-size="15" font-family="sans-serif" fill="#FFF">Haskell (2.6k lines, 7.9%)</text>
<circle cx="266" cy="136" r="6" fill="#000080" />
<text x="277" y="140" font-size="15" font-family="sans-serif" fill="#FFF">Lua (2.4k lines, 7.4%)</text>
<circle cx="516" cy="136" r="6" fill="#dea584" />
<text x="527" y="140" font-size="15" font-family="sans-serif" fill="#FFF">Rust (1.8k lines, 5.4%)</text>
<circle cx="16" cy="156" r="6" fill="#555555" />
<text x="27" y="160" font-size="15" font-family="sans-serif" fill="#FFF">C (1.4k lines, 4.4%)</text>
<circle cx="266" cy="156" r="6" fill="#3572A5" />
<text x="277" y="160" font-size="15" font-family="sans-serif" fill="#FFF">Python (1.2k lines, 3.5%)</text>
<circle cx="516" cy="156" r="6" fill="#239dad" />
<text x="527" y="160" font-size="15" font-family="sans-serif" fill="#FFF">Typst (1.1k lines, 3.5%)</text>
<circle cx="16" cy="176" r="6" fill="None" />
<text x="27" y="180" font-size="15" font-family="sans-serif" fill="#FFF">Lean (1.0k lines, 3.2%)</text>
<circle cx="266" cy="176" r="6" fill="#f34b7d" />
<text x="277" y="180" font-size="15" font-family="sans-serif" fill="#FFF">C++ (944 lines, 2.9%)</text>
<circle cx="516" cy="176" r="6" fill="#3D6117" />
<text x="527" y="180" font-size="15" font-family="sans-serif" fill="#FFF">TeX (942 lines, 2.9%)</text>
<circle cx="16" cy="196" r="6" fill="#ec915c" />
<text x="27" y="200" font-size="15" font-family="sans-serif" fill="#FFF">Zig (864 lines, 2.6%)</text>
<circle cx="266" cy="196" r="6" fill="#000000" />
<text x="277" y="200" font-size="15" font-family="sans-serif" fill="#FFF">WebGPU Shad… (760 lines, 2.3%)</text>
<circle cx="516" cy="196" r="6" fill="#DA3434" />
<text x="527" y="200" font-size="15" font-family="sans-serif" fill="#FFF">CMake (544 lines, 1.7%)</text>
<circle cx="16" cy="216" r="6" fill="#A97BFF" />
<text x="27" y="220" font-size="15" font-family="sans-serif" fill="#FFF">Kotlin (481 lines, 1.5%)</text>
<circle cx="266" cy="216" r="6" fill="#000000" />
<text x="277" y="220" font-size="15" font-family="sans-serif" fill="#FFF">C Header (305 lines, 0.9%)</text>
<circle cx="516" cy="216" r="6" fill="#89e051" />
<text x="527" y="220" font-size="15" font-family="sans-serif" fill="#FFF">Shell (294 lines, 0.9%)</text>
<circle cx="16" cy="236" r="6" fill="#199f4b" />
<text x="27" y="240" font-size="15" font-family="sans-serif" fill="#FFF">Vim Script (277 lines, 0.8%)</text>
<circle cx="266" cy="236" r="6" fill="#427819" />
<text x="277" y="240" font-size="15" font-family="sans-serif" fill="#FFF">Makefile (136 lines, 0.4%)</text>
<circle cx="516" cy="236" r="6" fill="#db5855" />
<text x="527" y="240" font-size="15" font-family="sans-serif" fill="#FFF">Clojure (100 lines, 0.3%)</text>
</svg>