<svg width="800" height="270" xmlns="http://www.w3.org/2000/svg">
<rect width="800" height="270" fill="#212830"/>
<rect x="10" y="40" width="222.22989299275113" height="50" fill="#00B4AB"/>
<rect x="232.22989299275113" y="40" width="91.24381544126109" height="50" fill="#c22d40"/>
<rect x="323.4737084340122" y="40" width="67.9323438039351" height="50" fill="#b07219"/>
<rect x="391.40605223794734" y="40" width="59.440800828443216" height="50" fill="#5e5086"/>
<rect x="450.84685306639057" y="40" width="55.73581866298469" height="50" fill="#000080"/>
<rect x="506.58267172937525" y="40" width="50.09780232424347" height="50" fill="#3572A5"/>
<rect x="556.6804740536187" y="40" width="40.432631457829935" height="50" fill="#dea584"/>
<rect x="597.1131055114487" y="40" width="32.9766425037395" height="50" fill="#555555"/>
<rect x="630.0897480151882" y="40" width="26.141985962489933" height="50" fill="#239dad"/>
<rect x="656.2317339776781" y="40" width="23.817742492233346" height="50" fill="None"/>
<rect x="680.0494764699115" y="40" width="21.723622137843744" height="50" fill="#f34b7d"/>
<rect x="701.7730986077553" y="40" width="21.677597514670353" height="50" fill="#3D6117"/>
<rect x="723.4506961224256" y="40" width="19.882637210907834" height="50" fill="#ec915c"/>
<rect x="743.3333333333335" y="40" width="17.489356805891152" height="50" fill="#000000"/>
<rect x="760.8226901392246" y="40" width="12.518697503164192" height="50" fill="#DA3434"/>
<rect x="773.3413876423888" y="40" width="11.068921873202163" height="50" fill="#A97BFF"/>
<rect x="784.4103095155909" y="40" width="7.01875503394316" height="50" fill="#000000"/>
<rect x="791.4290645495341" y="40" width="6.765619606489472" height="50" fill="#89e051"/>
<rect x="798.1946841560236" y="40" width="6.374410309515591" height="50" fill="#199f4b"/>
<rect x="804.5690944655393" y="40" width="3.129674375791048" height="50" fill="#427819"/>
<rect x="807.6987688413303" y="40" width="2.3012311586698884" height="50" fill="#db5855"/>
<circle cx="16" cy="116" r="6" fill="#00B4AB" />
<text x="27" y="120" font-size="15" font-family="sans-serif" fill="#FFF">Dart (9.7k lines, 27.8%)</text>
<circle cx="266" cy="116" r="6" fill="#c22d40" />
<text x="277" y="120" font-size="15" font-family="sans-serif" fill="#FFF">Scala (4.0k lines, 11.4%)</text>
<circle cx="516" cy="116" r="6" fill="#b07219" />
<text x="527" y="120" font-size="15" font-family="sans-serif" fill="#FFF">Java (3.0k lines, 8.5%)</text>
<circle cx="16" cy="136" r="6" fill="#5e5086" />
<text x="27" y="140" font-size="15" font-family="sans-serif" fill="#FFF">Haskell (2.6k lines, 7.4%)</text>
<circle cx="266" cy="136" r="6" fill="#000080" />
<text x="277" y="140" font-size="15" font-family="sans-serif" fill="#FFF">Lua (2.4k lines, 7.0%)</text>
<circle cx="516" cy="136" r="6" fill="#3572A5" />
<text x="527" y="140" font-size="15" font-family="sans-serif" fill="#FFF">Python (2.2k lines, 6.3%)</text>
<circle cx="16" cy="156" r="6" fill="#dea584" />
<text x="27" y="160" font-size="15" font-family="sans-serif" fill="#FFF">Rust (1.8k lines, 5.1%)</text>
<circle cx="266" cy="156" r="6" fill="#555555" />
<text x="277" y="160" font-size="15" font-family="sans-serif" fill="#FFF">C (1.4k lines, 4.1%)</text>
<circle cx="516" cy="156" r="6" fill="#239dad" />
<text x="527" y="160" font-size="15" font-family="sans-serif" fill="#FFF">Typst (1.1k lines, 3.3%)</text>
<circle cx="16" cy="176" r="6" fill="None" />
<text x="27" y="180" font-size="15" font-family="sans-serif" fill="#FFF">Lean (1.0k lines, 3.0%)</text>
<circle cx="266" cy="176" r="6" fill="#f34b7d" />
<text x="277" y="180" font-size="15" font-family="sans-serif" fill="#FFF">C++ (944 lines, 2.7%)</text>
<circle cx="516" cy="176" r="6" fill="#3D6117" />
<text x="527" y="180" font-size="15" font-family="sans-serif" fill="#FFF">TeX (942 lines, 2.7%)</text>
<circle cx="16" cy="196" r="6" fill="#ec915c" />
<text x="27" y="200" font-size="15" font-family="sans-serif" fill="#FFF">Zig (864 lines, 2.5%)</text>
<circle cx="266" cy="196" r="6" fill="#000000" />
<text x="277" y="200" font-size="15" font-family="sans-serif" fill="#FFF">WebGPU Shad… (760 lines, 2.2%)</text>
<circle cx="516" cy="196" r="6" fill="#DA3434" />
<text x="527" y="200" font-size="15" font-family="sans-serif" fill="#FFF">CMake (544 lines, 1.6%)</text>
<circle cx="16" cy="216" r="6" fill="#A97BFF" />
<text x="27" y="220" font-size="15" font-family="sans-serif" fill="#FFF">Kotlin (481 lines, 1.4%)</text>
<circle cx="266" cy="216" r="6" fill="#000000" />
<text x="277" y="220" font-size="15" font-family="sans-serif" fill="#FFF">C Header (305 lines, 0.9%)</text>
<circle cx="516" cy="216" r="6" fill="#89e051" />
<text x="527" y="220" font-size="15" font-family="sans-serif" fill="#FFF">Shell (294 lines, 0.8%)</text>
<circle cx="16" cy="236" r="6" fill="#199f4b" />
<text x="27" y="240" font-size="15" font-family="sans-serif" fill="#FFF">Vim Script (277 lines, 0.8%)</text>
<circle cx="266" cy="236" r="6" fill="#427819" />
<text x="277" y="240" font-size="15" font-family="sans-serif" fill="#FFF">Makefile (136 lines, 0.4%)</text>
<circle cx="516" cy="236" r="6" fill="#db5855" />
<text x="527" y="240" font-size="15" font-family="sans-serif" fill="#FFF">Clojure (100 lines, 0.3%)</text>
</svg>