<svg width="800" height="330" xmlns="http://www.w3.org/2000/svg">
<rect width="800" height="330" fill="#212830"/>
<rect x="10" y="40" width="139.00341734828578" height="50" fill="#555555"/>
<rect x="149.00341734828578" y="40" width="118.07000012336998" height="50" fill="#b07219"/>
<rect x="267.0734174716558" y="40" width="101.2867488310695" height="50" fill="#c22d40"/>
<rect x="368.36016630272525" y="40" width="65.95852301466869" height="50" fill="#A97BFF"/>
<rect x="434.31868931739393" y="40" width="58.24049742773604" height="50" fill="#00B4AB"/>
<rect x="492.55918674513" y="40" width="48.380769088419264" height="50" fill="None"/>
<rect x="540.9399558335492" y="40" width="45.429759305180305" height="50" fill="#5e5086"/>
<rect x="586.3697151387295" y="40" width="44.916540212443095" height="50" fill="#000000"/>
<rect x="631.2862553511726" y="40" width="40.73676548601601" height="50" fill="#3D6117"/>
<rect x="672.0230208371886" y="40" width="28.069136533550466" height="50" fill="#3572A5"/>
<rect x="700.0921573707391" y="40" width="23.41068630716656" height="50" fill="#89e051"/>
<rect x="723.5028436779056" y="40" width="15.253463612026104" height="50" fill="#239dad"/>
<rect x="738.7563072899317" y="40" width="11.952083102014633" height="50" fill="#000080"/>
<rect x="750.7083903919463" y="40" width="10.570339390799068" height="50" fill="#000000"/>
<rect x="761.2787297827454" y="40" width="9.158986885771741" height="50" fill="#dea584"/>
<rect x="770.437716668517" y="40" width="7.801917169399311" height="50" fill="#000000"/>
<rect x="778.2396338379164" y="40" width="7.727895184869907" height="50" fill="#f34b7d"/>
<rect x="785.9675290227863" y="40" width="4.263666308893741" height="50" fill="#ec915c"/>
<rect x="790.23119533168" y="40" width="3.750447216156532" height="50" fill="#000000"/>
<rect x="793.9816425478366" y="40" width="3.380337293509506" height="50" fill="#DA3434"/>
<rect x="797.361979841346" y="40" width="2.7486830255252475" height="50" fill="#427819"/>
<rect x="800.1106628668713" y="40" width="2.6450522471840805" height="50" fill="#000000"/>
<rect x="802.7557151140553" y="40" width="2.16637674722726" height="50" fill="#000000"/>
<rect x="804.9220918612825" y="40" width="1.4162873039959536" height="50" fill="#199f4b"/>
<rect x="806.3383791652785" y="40" width="1.0856557730979435" height="50" fill="#B83998"/>
<rect x="807.4240349383765" y="40" width="0.8043722318862035" height="50" fill="#000000"/>
<rect x="808.2284071702627" y="40" width="0.7698286391058144" height="50" fill="#db5855"/>
<rect x="808.9982358093686" y="40" width="0.5082842937685826" height="50" fill="#0050b2"/>
<rect x="809.5065201031372" y="40" width="0.49347989686270144" height="50" fill="#701516"/>
<circle cx="16" cy="116" r="6" fill="#555555" />
<text x="27" y="120" font-size="15" font-family="sans-serif" fill="#FFF">C (28.2k lines, 17.4%)</text>
<circle cx="266" cy="116" r="6" fill="#b07219" />
<text x="277" y="120" font-size="15" font-family="sans-serif" fill="#FFF">Java (23.9k lines, 14.8%)</text>
<circle cx="516" cy="116" r="6" fill="#c22d40" />
<text x="527" y="120" font-size="15" font-family="sans-serif" fill="#FFF">Scala (20.5k lines, 12.7%)</text>
<circle cx="16" cy="136" r="6" fill="#A97BFF" />
<text x="27" y="140" font-size="15" font-family="sans-serif" fill="#FFF">Kotlin (13.4k lines, 8.2%)</text>
<circle cx="266" cy="136" r="6" fill="#00B4AB" />
<text x="277" y="140" font-size="15" font-family="sans-serif" fill="#FFF">Dart (11.8k lines, 7.3%)</text>
<circle cx="516" cy="136" r="6" fill="None" />
<text x="527" y="140" font-size="15" font-family="sans-serif" fill="#FFF">Lean (9.8k lines, 6.0%)</text>
<circle cx="16" cy="156" r="6" fill="#5e5086" />
<text x="27" y="160" font-size="15" font-family="sans-serif" fill="#FFF">Haskell (9.2k lines, 5.7%)</text>
<circle cx="266" cy="156" r="6" fill="#000000" />
<text x="277" y="160" font-size="15" font-family="sans-serif" fill="#FFF">C Header (9.1k lines, 5.6%)</text>
<circle cx="516" cy="156" r="6" fill="#3D6117" />
<text x="527" y="160" font-size="15" font-family="sans-serif" fill="#FFF">TeX (8.3k lines, 5.1%)</text>
<circle cx="16" cy="176" r="6" fill="#3572A5" />
<text x="27" y="180" font-size="15" font-family="sans-serif" fill="#FFF">Python (5.7k lines, 3.5%)</text>
<circle cx="266" cy="176" r="6" fill="#89e051" />
<text x="277" y="180" font-size="15" font-family="sans-serif" fill="#FFF">Shell (4.7k lines, 2.9%)</text>
<circle cx="516" cy="176" r="6" fill="#239dad" />
<text x="527" y="180" font-size="15" font-family="sans-serif" fill="#FFF">Typst (3.1k lines, 1.9%)</text>
<circle cx="16" cy="196" r="6" fill="#000080" />
<text x="27" y="200" font-size="15" font-family="sans-serif" fill="#FFF">Lua (2.4k lines, 1.5%)</text>
<circle cx="266" cy="196" r="6" fill="#000000" />
<text x="277" y="200" font-size="15" font-family="sans-serif" fill="#FFF">GNU Style A… (2.1k lines, 1.3%)</text>
<circle cx="516" cy="196" r="6" fill="#dea584" />
<text x="527" y="200" font-size="15" font-family="sans-serif" fill="#FFF">Rust (1.9k lines, 1.1%)</text>
<circle cx="16" cy="216" r="6" fill="#000000" />
<text x="27" y="220" font-size="15" font-family="sans-serif" fill="#FFF">Batch (1.6k lines, 1.0%)</text>
<circle cx="266" cy="216" r="6" fill="#f34b7d" />
<text x="277" y="220" font-size="15" font-family="sans-serif" fill="#FFF">C++ (1.6k lines, 1.0%)</text>
<circle cx="516" cy="216" r="6" fill="#ec915c" />
<text x="527" y="220" font-size="15" font-family="sans-serif" fill="#FFF">Zig (864 lines, 0.5%)</text>
<circle cx="16" cy="236" r="6" fill="#000000" />
<text x="27" y="240" font-size="15" font-family="sans-serif" fill="#FFF">WebGPU Shad… (760 lines, 0.5%)</text>
<circle cx="266" cy="236" r="6" fill="#DA3434" />
<text x="277" y="240" font-size="15" font-family="sans-serif" fill="#FFF">CMake (685 lines, 0.4%)</text>
<circle cx="516" cy="236" r="6" fill="#427819" />
<text x="527" y="240" font-size="15" font-family="sans-serif" fill="#FFF">Makefile (557 lines, 0.3%)</text>
<circle cx="16" cy="256" r="6" fill="#000000" />
<text x="27" y="260" font-size="15" font-family="sans-serif" fill="#FFF">Cabal (536 lines, 0.3%)</text>
<circle cx="266" cy="256" r="6" fill="#000000" />
<text x="277" y="260" font-size="15" font-family="sans-serif" fill="#FFF">Templ (439 lines, 0.3%)</text>
<circle cx="516" cy="256" r="6" fill="#199f4b" />
<text x="527" y="260" font-size="15" font-family="sans-serif" fill="#FFF">Vim Script (287 lines, 0.2%)</text>
<circle cx="16" cy="276" r="6" fill="#B83998" />
<text x="27" y="280" font-size="15" font-family="sans-serif" fill="#FFF">Erlang (220 lines, 0.1%)</text>
<circle cx="266" cy="276" r="6" fill="#000000" />
<text x="277" y="280" font-size="15" font-family="sans-serif" fill="#FFF">Bitbake (163 lines, 0.1%)</text>
<circle cx="516" cy="276" r="6" fill="#db5855" />
<text x="527" y="280" font-size="15" font-family="sans-serif" fill="#FFF">Clojure (156 lines, 0.1%)</text>
<circle cx="16" cy="296" r="6" fill="#0050b2" />
<text x="27" y="300" font-size="15" font-family="sans-serif" fill="#FFF">FreeMarker (103 lines, 0.1%)</text>
<circle cx="266" cy="296" r="6" fill="#701516" />
<text x="277" y="300" font-size="15" font-family="sans-serif" fill="#FFF">Ruby (100 lines, 0.1%)</text>
</svg>