<svg width="800" height="270" xmlns="http://www.w3.org/2000/svg">
<rect width="800" height="270" fill="#212830"/>
<rect x="10" y="40" width="270.1812800591935" height="50" fill="#00B4AB"/>
<rect x="280.1812800591935" y="40" width="73.34443211246763" height="50" fill="#c22d40"/>
<rect x="353.52571217166116" y="40" width="55.32741398446171" height="50" fill="None"/>
<rect x="408.85312615612287" y="40" width="54.60599334073252" height="50" fill="#b07219"/>
<rect x="463.4591194968554" y="40" width="48.1687014428413" height="50" fill="#5e5086"/>
<rect x="511.6278209396967" y="40" width="44.87606363300037" height="50" fill="#000080"/>
<rect x="556.5038845726971" y="40" width="42.80429152793193" height="50" fill="#239dad"/>
<rect x="599.308176100629" y="40" width="42.60081391046984" height="50" fill="#3572A5"/>
<rect x="641.9089900110988" y="40" width="32.50092489826119" height="50" fill="#dea584"/>
<rect x="674.4099149093599" y="40" width="26.507584165741772" height="50" fill="#555555"/>
<rect x="700.9174990751017" y="40" width="17.46207917129116" height="50" fill="#f34b7d"/>
<rect x="718.3795782463928" y="40" width="17.42508324084351" height="50" fill="#3D6117"/>
<rect x="735.8046614872363" y="40" width="15.982241953385131" height="50" fill="#ec915c"/>
<rect x="751.7869034406215" y="40" width="14.058453570107288" height="50" fill="#000000"/>
<rect x="765.8453570107288" y="40" width="12.856085830558639" height="50" fill="#A97BFF"/>
<rect x="778.7014428412874" y="40" width="10.062893081761008" height="50" fill="#DA3434"/>
<rect x="788.7643359230484" y="40" width="5.734369219385868" height="50" fill="#89e051"/>
<rect x="794.4987051424342" y="40" width="5.64187939326674" height="50" fill="#000000"/>
<rect x="800.140584535701" y="40" width="5.123936366999629" height="50" fill="#199f4b"/>
<rect x="805.2645209027006" y="40" width="2.885682574916759" height="50" fill="#427819"/>
<rect x="808.1502034776174" y="40" width="1.849796522382538" height="50" fill="#db5855"/>
<circle cx="16" cy="116" r="6" fill="#00B4AB" />
<text x="27" y="120" font-size="15" font-family="sans-serif" fill="#FFF">Dart (14.6k lines, 33.8%)</text>
<circle cx="266" cy="116" r="6" fill="#c22d40" />
<text x="277" y="120" font-size="15" font-family="sans-serif" fill="#FFF">Scala (4.0k lines, 9.2%)</text>
<circle cx="516" cy="116" r="6" fill="None" />
<text x="527" y="120" font-size="15" font-family="sans-serif" fill="#FFF">Lean (3.0k lines, 6.9%)</text>
<circle cx="16" cy="136" r="6" fill="#b07219" />
<text x="27" y="140" font-size="15" font-family="sans-serif" fill="#FFF">Java (3.0k lines, 6.8%)</text>
<circle cx="266" cy="136" r="6" fill="#5e5086" />
<text x="277" y="140" font-size="15" font-family="sans-serif" fill="#FFF">Haskell (2.6k lines, 6.0%)</text>
<circle cx="516" cy="136" r="6" fill="#000080" />
<text x="527" y="140" font-size="15" font-family="sans-serif" fill="#FFF">Lua (2.4k lines, 5.6%)</text>
<circle cx="16" cy="156" r="6" fill="#239dad" />
<text x="27" y="160" font-size="15" font-family="sans-serif" fill="#FFF">Typst (2.3k lines, 5.4%)</text>
<circle cx="266" cy="156" r="6" fill="#3572A5" />
<text x="277" y="160" font-size="15" font-family="sans-serif" fill="#FFF">Python (2.3k lines, 5.3%)</text>
<circle cx="516" cy="156" r="6" fill="#dea584" />
<text x="527" y="160" font-size="15" font-family="sans-serif" fill="#FFF">Rust (1.8k lines, 4.1%)</text>
<circle cx="16" cy="176" r="6" fill="#555555" />
<text x="27" y="180" font-size="15" font-family="sans-serif" fill="#FFF">C (1.4k lines, 3.3%)</text>
<circle cx="266" cy="176" r="6" fill="#f34b7d" />
<text x="277" y="180" font-size="15" font-family="sans-serif" fill="#FFF">C++ (944 lines, 2.2%)</text>
<circle cx="516" cy="176" r="6" fill="#3D6117" />
<text x="527" y="180" font-size="15" font-family="sans-serif" fill="#FFF">TeX (942 lines, 2.2%)</text>
<circle cx="16" cy="196" r="6" fill="#ec915c" />
<text x="27" y="200" font-size="15" font-family="sans-serif" fill="#FFF">Zig (864 lines, 2.0%)</text>
<circle cx="266" cy="196" r="6" fill="#000000" />
<text x="277" y="200" font-size="15" font-family="sans-serif" fill="#FFF">WebGPU Shad… (760 lines, 1.8%)</text>
<circle cx="516" cy="196" r="6" fill="#A97BFF" />
<text x="527" y="200" font-size="15" font-family="sans-serif" fill="#FFF">Kotlin (695 lines, 1.6%)</text>
<circle cx="16" cy="216" r="6" fill="#DA3434" />
<text x="27" y="220" font-size="15" font-family="sans-serif" fill="#FFF">CMake (544 lines, 1.3%)</text>
<circle cx="266" cy="216" r="6" fill="#89e051" />
<text x="277" y="220" font-size="15" font-family="sans-serif" fill="#FFF">Shell (310 lines, 0.7%)</text>
<circle cx="516" cy="216" r="6" fill="#000000" />
<text x="527" y="220" font-size="15" font-family="sans-serif" fill="#FFF">C Header (305 lines, 0.7%)</text>
<circle cx="16" cy="236" r="6" fill="#199f4b" />
<text x="27" y="240" font-size="15" font-family="sans-serif" fill="#FFF">Vim Script (277 lines, 0.6%)</text>
<circle cx="266" cy="236" r="6" fill="#427819" />
<text x="277" y="240" font-size="15" font-family="sans-serif" fill="#FFF">Makefile (156 lines, 0.4%)</text>
<circle cx="516" cy="236" r="6" fill="#db5855" />
<text x="527" y="240" font-size="15" font-family="sans-serif" fill="#FFF">Clojure (100 lines, 0.2%)</text>
</svg>