<svg width="800" height="290" xmlns="http://www.w3.org/2000/svg">
<rect width="800" height="290" fill="#212830"/>
<rect x="10" y="40" width="231.66135043873487" height="50" fill="#dea584"/>
<rect x="241.66135043873487" y="40" width="141.86266605909776" height="50" fill="#00B4AB"/>
<rect x="383.52401649783263" y="40" width="91.90180751749682" height="50" fill="#3572A5"/>
<rect x="475.42582401532945" y="40" width="45.689181768259196" height="50" fill="#A97BFF"/>
<rect x="521.1150057835887" y="40" width="45.352682066201645" height="50" fill="#c22d40"/>
<rect x="566.4676878497903" y="40" width="38.127285685910245" height="50" fill="#ec915c"/>
<rect x="604.5949735357005" y="40" width="28.995057660626024" height="50" fill="#000080"/>
<rect x="633.5900311963265" y="40" width="27.957516912615233" height="50" fill="None"/>
<rect x="661.5475481089418" y="40" width="27.592975568719545" height="50" fill="#b07219"/>
<rect x="689.1405236776613" y="40" width="24.34014511549651" height="50" fill="#5e5086"/>
<rect x="713.4806687931579" y="40" width="24.087770338953348" height="50" fill="#239dad"/>
<rect x="737.5684391321112" y="40" width="13.394557584679918" height="50" fill="#555555"/>
<rect x="750.962996716791" y="40" width="8.82376996506479" height="50" fill="#f34b7d"/>
<rect x="759.7867666818559" y="40" width="8.805075537172701" height="50" fill="#3D6117"/>
<rect x="768.5918422190285" y="40" width="8.702256183766226" height="50" fill="#41b883"/>
<rect x="777.2940984027948" y="40" width="8.487270263007233" height="50" fill="#89e051"/>
<rect x="785.781368665802" y="40" width="8.197506630679893" height="50" fill="#000000"/>
<rect x="793.9788752964819" y="40" width="5.084884386647505" height="50" fill="#DA3434"/>
<rect x="799.0637596831294" y="40" width="2.8509002535431787" height="50" fill="#000000"/>
<rect x="801.9146599366726" y="40" width="2.5891782630539684" height="50" fill="#199f4b"/>
<rect x="804.5038381997266" y="40" width="1.8507483613165554" height="50" fill="#427819"/>
<rect x="806.3545865610431" y="40" width="1.4768598034748268" height="50" fill="#384d54"/>
<rect x="807.8314463645179" y="40" width="1.2338322408777034" height="50" fill="#000000"/>
<rect x="809.0652786053956" y="40" width="0.9347213946043208" height="50" fill="#db5855"/>
<circle cx="16" cy="116" r="6" fill="#dea584" />
<text x="27" y="120" font-size="15" font-family="sans-serif" fill="#FFF">Rust (24.8k lines, 29.0%)</text>
<circle cx="266" cy="116" r="6" fill="#00B4AB" />
<text x="277" y="120" font-size="15" font-family="sans-serif" fill="#FFF">Dart (15.2k lines, 17.7%)</text>
<circle cx="516" cy="116" r="6" fill="#3572A5" />
<text x="527" y="120" font-size="15" font-family="sans-serif" fill="#FFF">Python (9.8k lines, 11.5%)</text>
<circle cx="16" cy="136" r="6" fill="#A97BFF" />
<text x="27" y="140" font-size="15" font-family="sans-serif" fill="#FFF">Kotlin (4.9k lines, 5.7%)</text>
<circle cx="266" cy="136" r="6" fill="#c22d40" />
<text x="277" y="140" font-size="15" font-family="sans-serif" fill="#FFF">Scala (4.9k lines, 5.7%)</text>
<circle cx="516" cy="136" r="6" fill="#ec915c" />
<text x="527" y="140" font-size="15" font-family="sans-serif" fill="#FFF">Zig (4.1k lines, 4.8%)</text>
<circle cx="16" cy="156" r="6" fill="#000080" />
<text x="27" y="160" font-size="15" font-family="sans-serif" fill="#FFF">Lua (3.1k lines, 3.6%)</text>
<circle cx="266" cy="156" r="6" fill="None" />
<text x="277" y="160" font-size="15" font-family="sans-serif" fill="#FFF">Lean (3.0k lines, 3.5%)</text>
<circle cx="516" cy="156" r="6" fill="#b07219" />
<text x="527" y="160" font-size="15" font-family="sans-serif" fill="#FFF">Java (3.0k lines, 3.4%)</text>
<circle cx="16" cy="176" r="6" fill="#5e5086" />
<text x="27" y="180" font-size="15" font-family="sans-serif" fill="#FFF">Haskell (2.6k lines, 3.0%)</text>
<circle cx="266" cy="176" r="6" fill="#239dad" />
<text x="277" y="180" font-size="15" font-family="sans-serif" fill="#FFF">Typst (2.6k lines, 3.0%)</text>
<circle cx="516" cy="176" r="6" fill="#555555" />
<text x="527" y="180" font-size="15" font-family="sans-serif" fill="#FFF">C (1.4k lines, 1.7%)</text>
<circle cx="16" cy="196" r="6" fill="#f34b7d" />
<text x="27" y="200" font-size="15" font-family="sans-serif" fill="#FFF">C++ (944 lines, 1.1%)</text>
<circle cx="266" cy="196" r="6" fill="#3D6117" />
<text x="277" y="200" font-size="15" font-family="sans-serif" fill="#FFF">TeX (942 lines, 1.1%)</text>
<circle cx="516" cy="196" r="6" fill="#41b883" />
<text x="527" y="200" font-size="15" font-family="sans-serif" fill="#FFF">Vue (931 lines, 1.1%)</text>
<circle cx="16" cy="216" r="6" fill="#89e051" />
<text x="27" y="220" font-size="15" font-family="sans-serif" fill="#FFF">Shell (908 lines, 1.1%)</text>
<circle cx="266" cy="216" r="6" fill="#000000" />
<text x="277" y="220" font-size="15" font-family="sans-serif" fill="#FFF">WebGPU Shad… (877 lines, 1.0%)</text>
<circle cx="516" cy="216" r="6" fill="#DA3434" />
<text x="527" y="220" font-size="15" font-family="sans-serif" fill="#FFF">CMake (544 lines, 0.6%)</text>
<circle cx="16" cy="236" r="6" fill="#000000" />
<text x="27" y="240" font-size="15" font-family="sans-serif" fill="#FFF">C Header (305 lines, 0.4%)</text>
<circle cx="266" cy="236" r="6" fill="#199f4b" />
<text x="277" y="240" font-size="15" font-family="sans-serif" fill="#FFF">Vim Script (277 lines, 0.3%)</text>
<circle cx="516" cy="236" r="6" fill="#427819" />
<text x="527" y="240" font-size="15" font-family="sans-serif" fill="#FFF">Makefile (198 lines, 0.2%)</text>
<circle cx="16" cy="256" r="6" fill="#384d54" />
<text x="27" y="260" font-size="15" font-family="sans-serif" fill="#FFF">Just (158 lines, 0.2%)</text>
<circle cx="266" cy="256" r="6" fill="#000000" />
<text x="277" y="260" font-size="15" font-family="sans-serif" fill="#FFF">Batch (132 lines, 0.2%)</text>
<circle cx="516" cy="256" r="6" fill="#db5855" />
<text x="527" y="260" font-size="15" font-family="sans-serif" fill="#FFF">Clojure (100 lines, 0.1%)</text>
</svg>