<svg width="800" height="270" xmlns="http://www.w3.org/2000/svg">
<rect x="10" y="40" width="224.4684728465557" height="50" fill="#00B4AB"/>
<rect x="234.4684728465557" y="40" width="96.34309318430323" height="50" fill="#c22d40"/>
<rect x="330.8115660308589" y="40" width="71.72883003280282" height="50" fill="#b07219"/>
<rect x="402.5403960636617" y="40" width="62.762726278702466" height="50" fill="#5e5086"/>
<rect x="465.3031223423642" y="40" width="58.534807435305545" height="50" fill="#000080"/>
<rect x="523.8379297776697" y="40" width="42.692260964645854" height="50" fill="#dea584"/>
<rect x="566.5301907423155" y="40" width="34.819584497630906" height="50" fill="#555555"/>
<rect x="601.3497752399464" y="40" width="27.60296440286721" height="50" fill="#239dad"/>
<rect x="628.9527396428136" y="40" width="25.634795286113466" height="50" fill="#3572A5"/>
<rect x="654.5875349289271" y="40" width="25.148827602964403" height="50" fill="None"/>
<rect x="679.7363625318915" y="40" width="22.937674644636132" height="50" fill="#f34b7d"/>
<rect x="702.6740371765276" y="40" width="22.889077876321224" height="50" fill="#3D6117"/>
<rect x="725.5631150528488" y="40" width="20.993803912039848" height="50" fill="#ec915c"/>
<rect x="746.5569189648887" y="40" width="18.466771959664683" height="50" fill="#000000"/>
<rect x="765.0236909245534" y="40" width="13.21832098165472" height="50" fill="#DA3434"/>
<rect x="778.2420119062082" y="40" width="7.678289393755315" height="50" fill="#A97BFF"/>
<rect x="785.9203012999635" y="40" width="7.4110071680233265" height="50" fill="#000000"/>
<rect x="793.3313084679868" y="40" width="7.143724942291339" height="50" fill="#89e051"/>
<rect x="800.4750334102781" y="40" width="3.790547928562751" height="50" fill="#199f4b"/>
<rect x="804.2655813388409" y="40" width="3.30458024541368" height="50" fill="#427819"/>
<rect x="807.5701615842546" y="40" width="2.429838415745353" height="50" fill="#db5855"/>
<circle cx="16" cy="116" r="6" fill="#00B4AB" />
<text x="27" y="120" font-size="15" font-family="sans-serif" fill="#FFF">Dart (9.2k lines, 28.1%)</text>
<circle cx="266" cy="116" r="6" fill="#c22d40" />
<text x="277" y="120" font-size="15" font-family="sans-serif" fill="#FFF">Scala (4.0k lines, 12.0%)</text>
<circle cx="516" cy="116" r="6" fill="#b07219" />
<text x="527" y="120" font-size="15" font-family="sans-serif" fill="#FFF">Java (3.0k lines, 9.0%)</text>
<circle cx="16" cy="136" r="6" fill="#5e5086" />
<text x="27" y="140" font-size="15" font-family="sans-serif" fill="#FFF">Haskell (2.6k lines, 7.8%)</text>
<circle cx="266" cy="136" r="6" fill="#000080" />
<text x="277" y="140" font-size="15" font-family="sans-serif" fill="#FFF">Lua (2.4k lines, 7.3%)</text>
<circle cx="516" cy="136" r="6" fill="#dea584" />
<text x="527" y="140" font-size="15" font-family="sans-serif" fill="#FFF">Rust (1.8k lines, 5.3%)</text>
<circle cx="16" cy="156" r="6" fill="#555555" />
<text x="27" y="160" font-size="15" font-family="sans-serif" fill="#FFF">C (1.4k lines, 4.4%)</text>
<circle cx="266" cy="156" r="6" fill="#239dad" />
<text x="277" y="160" font-size="15" font-family="sans-serif" fill="#FFF">Typst (1.1k lines, 3.5%)</text>
<circle cx="516" cy="156" r="6" fill="#3572A5" />
<text x="527" y="160" font-size="15" font-family="sans-serif" fill="#FFF">Python (1.1k lines, 3.2%)</text>
<circle cx="16" cy="176" r="6" fill="None" />
<text x="27" y="180" font-size="15" font-family="sans-serif" fill="#FFF">Lean (1.0k lines, 3.1%)</text>
<circle cx="266" cy="176" r="6" fill="#f34b7d" />
<text x="277" y="180" font-size="15" font-family="sans-serif" fill="#FFF">C++ (944 lines, 2.9%)</text>
<circle cx="516" cy="176" r="6" fill="#3D6117" />
<text x="527" y="180" font-size="15" font-family="sans-serif" fill="#FFF">TeX (942 lines, 2.9%)</text>
<circle cx="16" cy="196" r="6" fill="#ec915c" />
<text x="27" y="200" font-size="15" font-family="sans-serif" fill="#FFF">Zig (864 lines, 2.6%)</text>
<circle cx="266" cy="196" r="6" fill="#000000" />
<text x="277" y="200" font-size="15" font-family="sans-serif" fill="#FFF">WebGPU Shad… (760 lines, 2.3%)</text>
<circle cx="516" cy="196" r="6" fill="#DA3434" />
<text x="527" y="200" font-size="15" font-family="sans-serif" fill="#FFF">CMake (544 lines, 1.7%)</text>
<circle cx="16" cy="216" r="6" fill="#A97BFF" />
<text x="27" y="220" font-size="15" font-family="sans-serif" fill="#FFF">Kotlin (316 lines, 1.0%)</text>
<circle cx="266" cy="216" r="6" fill="#000000" />
<text x="277" y="220" font-size="15" font-family="sans-serif" fill="#FFF">C Header (305 lines, 0.9%)</text>
<circle cx="516" cy="216" r="6" fill="#89e051" />
<text x="527" y="220" font-size="15" font-family="sans-serif" fill="#FFF">Shell (294 lines, 0.9%)</text>
<circle cx="16" cy="236" r="6" fill="#199f4b" />
<text x="27" y="240" font-size="15" font-family="sans-serif" fill="#FFF">Vim Script (156 lines, 0.5%)</text>
<circle cx="266" cy="236" r="6" fill="#427819" />
<text x="277" y="240" font-size="15" font-family="sans-serif" fill="#FFF">Makefile (136 lines, 0.4%)</text>
<circle cx="516" cy="236" r="6" fill="#db5855" />
<text x="527" y="240" font-size="15" font-family="sans-serif" fill="#FFF">Clojure (100 lines, 0.3%)</text>
</svg>