<svg width="800" height="270" xmlns="http://www.w3.org/2000/svg">
<rect width="800" height="270" fill="#212830"/>
<rect x="10" y="40" width="212.7317073170732" height="50" fill="#00B4AB"/>
<rect x="222.7317073170732" y="40" width="96.70731707317073" height="50" fill="#c22d40"/>
<rect x="319.4390243902439" y="40" width="72.0" height="50" fill="#b07219"/>
<rect x="391.4390243902439" y="40" width="63.0" height="50" fill="#5e5086"/>
<rect x="454.4390243902439" y="40" width="59.073170731707314" height="50" fill="#000080"/>
<rect x="513.5121951219512" y="40" width="42.853658536585364" height="50" fill="#dea584"/>
<rect x="556.3658536585366" y="40" width="34.95121951219512" height="50" fill="#555555"/>
<rect x="591.3170731707318" y="40" width="28.000000000000004" height="50" fill="#3572A5"/>
<rect x="619.3170731707318" y="40" width="27.707317073170735" height="50" fill="#239dad"/>
<rect x="647.0243902439025" y="40" width="25.243902439024385" height="50" fill="None"/>
<rect x="672.2682926829269" y="40" width="23.024390243902438" height="50" fill="#f34b7d"/>
<rect x="695.2926829268293" y="40" width="22.975609756097562" height="50" fill="#3D6117"/>
<rect x="718.2682926829269" y="40" width="21.073170731707318" height="50" fill="#ec915c"/>
<rect x="739.3414634146343" y="40" width="18.536585365853657" height="50" fill="#000000"/>
<rect x="757.8780487804879" y="40" width="13.26829268292683" height="50" fill="#DA3434"/>
<rect x="771.1463414634147" y="40" width="11.73170731707317" height="50" fill="#A97BFF"/>
<rect x="782.8780487804879" y="40" width="7.439024390243902" height="50" fill="#000000"/>
<rect x="790.3170731707319" y="40" width="7.170731707317072" height="50" fill="#89e051"/>
<rect x="797.4878048780489" y="40" width="6.7560975609756095" height="50" fill="#199f4b"/>
<rect x="804.2439024390245" y="40" width="3.3170731707317076" height="50" fill="#427819"/>
<rect x="807.5609756097563" y="40" width="2.4390243902439024" height="50" fill="#db5855"/>
<circle cx="16" cy="116" r="6" fill="#00B4AB" />
<text x="27" y="120" font-size="15" font-family="sans-serif" fill="#FFF">Dart (8.7k lines, 26.6%)</text>
<circle cx="266" cy="116" r="6" fill="#c22d40" />
<text x="277" y="120" font-size="15" font-family="sans-serif" fill="#FFF">Scala (4.0k lines, 12.1%)</text>
<circle cx="516" cy="116" r="6" fill="#b07219" />
<text x="527" y="120" font-size="15" font-family="sans-serif" fill="#FFF">Java (3.0k lines, 9.0%)</text>
<circle cx="16" cy="136" r="6" fill="#5e5086" />
<text x="27" y="140" font-size="15" font-family="sans-serif" fill="#FFF">Haskell (2.6k lines, 7.9%)</text>
<circle cx="266" cy="136" r="6" fill="#000080" />
<text x="277" y="140" font-size="15" font-family="sans-serif" fill="#FFF">Lua (2.4k lines, 7.4%)</text>
<circle cx="516" cy="136" r="6" fill="#dea584" />
<text x="527" y="140" font-size="15" font-family="sans-serif" fill="#FFF">Rust (1.8k lines, 5.4%)</text>
<circle cx="16" cy="156" r="6" fill="#555555" />
<text x="27" y="160" font-size="15" font-family="sans-serif" fill="#FFF">C (1.4k lines, 4.4%)</text>
<circle cx="266" cy="156" r="6" fill="#3572A5" />
<text x="277" y="160" font-size="15" font-family="sans-serif" fill="#FFF">Python (1.1k lines, 3.5%)</text>
<circle cx="516" cy="156" r="6" fill="#239dad" />
<text x="527" y="160" font-size="15" font-family="sans-serif" fill="#FFF">Typst (1.1k lines, 3.5%)</text>
<circle cx="16" cy="176" r="6" fill="None" />
<text x="27" y="180" font-size="15" font-family="sans-serif" fill="#FFF">Lean (1.0k lines, 3.2%)</text>
<circle cx="266" cy="176" r="6" fill="#f34b7d" />
<text x="277" y="180" font-size="15" font-family="sans-serif" fill="#FFF">C++ (944 lines, 2.9%)</text>
<circle cx="516" cy="176" r="6" fill="#3D6117" />
<text x="527" y="180" font-size="15" font-family="sans-serif" fill="#FFF">TeX (942 lines, 2.9%)</text>
<circle cx="16" cy="196" r="6" fill="#ec915c" />
<text x="27" y="200" font-size="15" font-family="sans-serif" fill="#FFF">Zig (864 lines, 2.6%)</text>
<circle cx="266" cy="196" r="6" fill="#000000" />
<text x="277" y="200" font-size="15" font-family="sans-serif" fill="#FFF">WebGPU Shad… (760 lines, 2.3%)</text>
<circle cx="516" cy="196" r="6" fill="#DA3434" />
<text x="527" y="200" font-size="15" font-family="sans-serif" fill="#FFF">CMake (544 lines, 1.7%)</text>
<circle cx="16" cy="216" r="6" fill="#A97BFF" />
<text x="27" y="220" font-size="15" font-family="sans-serif" fill="#FFF">Kotlin (481 lines, 1.5%)</text>
<circle cx="266" cy="216" r="6" fill="#000000" />
<text x="277" y="220" font-size="15" font-family="sans-serif" fill="#FFF">C Header (305 lines, 0.9%)</text>
<circle cx="516" cy="216" r="6" fill="#89e051" />
<text x="527" y="220" font-size="15" font-family="sans-serif" fill="#FFF">Shell (294 lines, 0.9%)</text>
<circle cx="16" cy="236" r="6" fill="#199f4b" />
<text x="27" y="240" font-size="15" font-family="sans-serif" fill="#FFF">Vim Script (277 lines, 0.8%)</text>
<circle cx="266" cy="236" r="6" fill="#427819" />
<text x="277" y="240" font-size="15" font-family="sans-serif" fill="#FFF">Makefile (136 lines, 0.4%)</text>
<circle cx="516" cy="236" r="6" fill="#db5855" />
<text x="527" y="240" font-size="15" font-family="sans-serif" fill="#FFF">Clojure (100 lines, 0.3%)</text>
</svg>