<svg width="800" height="290" xmlns="http://www.w3.org/2000/svg">
<rect width="800" height="290" fill="#212830"/>
<rect x="10" y="40" width="173.32762312633832" height="50" fill="#00B4AB"/>
<rect x="183.32762312633832" y="40" width="135.46895074946468" height="50" fill="#dea584"/>
<rect x="318.796573875803" y="40" width="105.18201284796574" height="50" fill="#3572A5"/>
<rect x="423.97858672376873" y="40" width="55.411848679514634" height="50" fill="#c22d40"/>
<rect x="479.3904354032834" y="40" width="47.48608137044968" height="50" fill="#A97BFF"/>
<rect x="526.8765167737331" y="40" width="46.583868665239116" height="50" fill="#ec915c"/>
<rect x="573.4603854389723" y="40" width="35.42612419700214" height="50" fill="#000080"/>
<rect x="608.8865096359743" y="40" width="34.15845824411135" height="50" fill="None"/>
<rect x="643.0449678800857" y="40" width="33.71306209850108" height="50" fill="#b07219"/>
<rect x="676.7580299785867" y="40" width="29.738758029978584" height="50" fill="#5e5086"/>
<rect x="706.4967880085653" y="40" width="28.73376159885796" height="50" fill="#239dad"/>
<rect x="735.2305496074233" y="40" width="16.36545324768023" height="50" fill="#555555"/>
<rect x="751.5960028551035" y="40" width="10.780870806566735" height="50" fill="#f34b7d"/>
<rect x="762.3768736616703" y="40" width="10.758029978586723" height="50" fill="#3D6117"/>
<rect x="773.134903640257" y="40" width="10.01570306923626" height="50" fill="#000000"/>
<rect x="783.1506067094932" y="40" width="7.720199857244825" height="50" fill="#89e051"/>
<rect x="790.870806566738" y="40" width="6.2127052105638825" height="50" fill="#DA3434"/>
<rect x="797.0835117773019" y="40" width="3.4832262669521765" height="50" fill="#000000"/>
<rect x="800.5667380442541" y="40" width="3.1634546752319768" height="50" fill="#199f4b"/>
<rect x="803.730192719486" y="40" width="2.261241970021413" height="50" fill="#427819"/>
<rect x="805.9914346895074" y="40" width="1.5074946466809422" height="50" fill="#000000"/>
<rect x="807.4989293361883" y="40" width="1.3590292648108495" height="50" fill="#41b883"/>
<rect x="808.8579586009992" y="40" width="1.1420413990007139" height="50" fill="#db5855"/>
<circle cx="16" cy="116" r="6" fill="#00B4AB" />
<text x="27" y="120" font-size="15" font-family="sans-serif" fill="#FFF">Dart (15.2k lines, 21.7%)</text>
<circle cx="266" cy="116" r="6" fill="#dea584" />
<text x="277" y="120" font-size="15" font-family="sans-serif" fill="#FFF">Rust (11.9k lines, 16.9%)</text>
<circle cx="516" cy="116" r="6" fill="#3572A5" />
<text x="527" y="120" font-size="15" font-family="sans-serif" fill="#FFF">Python (9.2k lines, 13.1%)</text>
<circle cx="16" cy="136" r="6" fill="#c22d40" />
<text x="27" y="140" font-size="15" font-family="sans-serif" fill="#FFF">Scala (4.9k lines, 6.9%)</text>
<circle cx="266" cy="136" r="6" fill="#A97BFF" />
<text x="277" y="140" font-size="15" font-family="sans-serif" fill="#FFF">Kotlin (4.2k lines, 5.9%)</text>
<circle cx="516" cy="136" r="6" fill="#ec915c" />
<text x="527" y="140" font-size="15" font-family="sans-serif" fill="#FFF">Zig (4.1k lines, 5.8%)</text>
<circle cx="16" cy="156" r="6" fill="#000080" />
<text x="27" y="160" font-size="15" font-family="sans-serif" fill="#FFF">Lua (3.1k lines, 4.4%)</text>
<circle cx="266" cy="156" r="6" fill="None" />
<text x="277" y="160" font-size="15" font-family="sans-serif" fill="#FFF">Lean (3.0k lines, 4.3%)</text>
<circle cx="516" cy="156" r="6" fill="#b07219" />
<text x="527" y="160" font-size="15" font-family="sans-serif" fill="#FFF">Java (3.0k lines, 4.2%)</text>
<circle cx="16" cy="176" r="6" fill="#5e5086" />
<text x="27" y="180" font-size="15" font-family="sans-serif" fill="#FFF">Haskell (2.6k lines, 3.7%)</text>
<circle cx="266" cy="176" r="6" fill="#239dad" />
<text x="277" y="180" font-size="15" font-family="sans-serif" fill="#FFF">Typst (2.5k lines, 3.6%)</text>
<circle cx="516" cy="176" r="6" fill="#555555" />
<text x="527" y="180" font-size="15" font-family="sans-serif" fill="#FFF">C (1.4k lines, 2.0%)</text>
<circle cx="16" cy="196" r="6" fill="#f34b7d" />
<text x="27" y="200" font-size="15" font-family="sans-serif" fill="#FFF">C++ (944 lines, 1.3%)</text>
<circle cx="266" cy="196" r="6" fill="#3D6117" />
<text x="277" y="200" font-size="15" font-family="sans-serif" fill="#FFF">TeX (942 lines, 1.3%)</text>
<circle cx="516" cy="196" r="6" fill="#000000" />
<text x="527" y="200" font-size="15" font-family="sans-serif" fill="#FFF">WebGPU Shad… (877 lines, 1.3%)</text>
<circle cx="16" cy="216" r="6" fill="#89e051" />
<text x="27" y="220" font-size="15" font-family="sans-serif" fill="#FFF">Shell (676 lines, 1.0%)</text>
<circle cx="266" cy="216" r="6" fill="#DA3434" />
<text x="277" y="220" font-size="15" font-family="sans-serif" fill="#FFF">CMake (544 lines, 0.8%)</text>
<circle cx="516" cy="216" r="6" fill="#000000" />
<text x="527" y="220" font-size="15" font-family="sans-serif" fill="#FFF">C Header (305 lines, 0.4%)</text>
<circle cx="16" cy="236" r="6" fill="#199f4b" />
<text x="27" y="240" font-size="15" font-family="sans-serif" fill="#FFF">Vim Script (277 lines, 0.4%)</text>
<circle cx="266" cy="236" r="6" fill="#427819" />
<text x="277" y="240" font-size="15" font-family="sans-serif" fill="#FFF">Makefile (198 lines, 0.3%)</text>
<circle cx="516" cy="236" r="6" fill="#000000" />
<text x="527" y="240" font-size="15" font-family="sans-serif" fill="#FFF">Batch (132 lines, 0.2%)</text>
<circle cx="16" cy="256" r="6" fill="#41b883" />
<text x="27" y="260" font-size="15" font-family="sans-serif" fill="#FFF">Vue (119 lines, 0.2%)</text>
<circle cx="266" cy="256" r="6" fill="#db5855" />
<text x="277" y="260" font-size="15" font-family="sans-serif" fill="#FFF">Clojure (100 lines, 0.1%)</text>
</svg>