<svg width="800" height="190" xmlns="http://www.w3.org/2000/svg">
<rect width="800" height="190" fill="#212830"/>
<rect x="10" y="40" width="658.7792720774946" height="50" fill="#3572A5"/>
<rect x="668.7792720774946" y="40" width="110.52384087275465" height="50" fill="#083fa1"/>
<rect x="779.3031129502492" y="40" width="22.64647794601711" height="50" fill="#239dad"/>
<rect x="801.9495908962663" y="40" width="4.213298222514812" height="50" fill="#000000"/>
<rect x="806.1628891187811" y="40" width="1.7304617699614409" height="50" fill="#3178c6"/>
<rect x="807.8933508887426" y="40" width="1.1285620238878962" height="50" fill="#89e051"/>
<rect x="809.0219129126305" y="40" width="0.97808708736951" height="50" fill="#41b883"/>
<circle cx="16" cy="116" r="6" fill="#3572A5" />
<text x="27" y="120" font-size="15" font-family="sans-serif" fill="#FFF">Python (8.8k lines, 82.3%)</text>
<circle cx="266" cy="116" r="6" fill="#083fa1" />
<text x="277" y="120" font-size="15" font-family="sans-serif" fill="#FFF">Markdown (1.5k lines, 13.8%)</text>
<circle cx="516" cy="116" r="6" fill="#239dad" />
<text x="527" y="120" font-size="15" font-family="sans-serif" fill="#FFF">Typst (301 lines, 2.8%)</text>
<circle cx="16" cy="136" r="6" fill="#000000" />
<text x="27" y="140" font-size="15" font-family="sans-serif" fill="#FFF">Fish (56 lines, 0.5%)</text>
<circle cx="266" cy="136" r="6" fill="#3178c6" />
<text x="277" y="140" font-size="15" font-family="sans-serif" fill="#FFF">TypeScript (23 lines, 0.2%)</text>
<circle cx="516" cy="136" r="6" fill="#89e051" />
<text x="527" y="140" font-size="15" font-family="sans-serif" fill="#FFF">Shell (15 lines, 0.1%)</text>
<circle cx="16" cy="156" r="6" fill="#41b883" />
<text x="27" y="160" font-size="15" font-family="sans-serif" fill="#FFF">Vue (13 lines, 0.1%)</text>
</svg>