<svg width="800" height="190" xmlns="http://www.w3.org/2000/svg">
<rect width="800" height="190" fill="#212830"/>
<rect x="10" y="40" width="600.1765225066196" height="50" fill="#3572A5"/>
<rect x="610.1765225066196" y="40" width="79.08208296557811" height="50" fill="#000080"/>
<rect x="689.2586054721977" y="40" width="58.18181818181818" height="50" fill="#f1e05a"/>
<rect x="747.4404236540158" y="40" width="36.57546337157987" height="50" fill="#ec915c"/>
<rect x="784.0158870255957" y="40" width="13.274492497793469" height="50" fill="#dea584"/>
<rect x="797.2903795233892" y="40" width="5.366284201235658" height="50" fill="#3178c6"/>
<rect x="802.6566637246249" y="40" width="4.095322153574581" height="50" fill="#89e051"/>
<rect x="806.7519858781994" y="40" width="2.9655781112091795" height="50" fill="#239dad"/>
<rect x="809.7175639894086" y="40" width="0.2824360105913504" height="50" fill="#000000"/>
<circle cx="16" cy="116" r="6" fill="#3572A5" />
<text x="27" y="120" font-size="15" font-family="sans-serif" fill="#FFF">Python (4.2k lines, 75.0%)</text>
<circle cx="266" cy="116" r="6" fill="#000080" />
<text x="277" y="120" font-size="15" font-family="sans-serif" fill="#FFF">Lua (560 lines, 9.9%)</text>
<circle cx="516" cy="116" r="6" fill="#f1e05a" />
<text x="527" y="120" font-size="15" font-family="sans-serif" fill="#FFF">JavaScript (412 lines, 7.3%)</text>
<circle cx="16" cy="136" r="6" fill="#ec915c" />
<text x="27" y="140" font-size="15" font-family="sans-serif" fill="#FFF">Zig (259 lines, 4.6%)</text>
<circle cx="266" cy="136" r="6" fill="#dea584" />
<text x="277" y="140" font-size="15" font-family="sans-serif" fill="#FFF">Rust (94 lines, 1.7%)</text>
<circle cx="516" cy="136" r="6" fill="#3178c6" />
<text x="527" y="140" font-size="15" font-family="sans-serif" fill="#FFF">TypeScript (38 lines, 0.7%)</text>
<circle cx="16" cy="156" r="6" fill="#89e051" />
<text x="27" y="160" font-size="15" font-family="sans-serif" fill="#FFF">Shell (29 lines, 0.5%)</text>
<circle cx="266" cy="156" r="6" fill="#239dad" />
<text x="277" y="160" font-size="15" font-family="sans-serif" fill="#FFF">Typst (21 lines, 0.4%)</text>
<circle cx="516" cy="156" r="6" fill="#000000" />
<text x="527" y="160" font-size="15" font-family="sans-serif" fill="#FFF">Fish (2 lines, 0.0%)</text>
</svg>