<svg width="800" height="190" xmlns="http://www.w3.org/2000/svg">
<rect width="800" height="190" fill="#212830"/>
<rect x="10" y="40" width="468.29268292682923" height="50" fill="None"/>
<rect x="478.29268292682923" y="40" width="235.23969722455843" height="50" fill="#00B4AB"/>
<rect x="713.5323801513877" y="40" width="40.70647603027754" height="50" fill="#083fa1"/>
<rect x="754.2388561816651" y="40" width="27.249789739276704" height="50" fill="#A97BFF"/>
<rect x="781.4886459209418" y="40" width="14.297729184188393" height="50" fill="#3572A5"/>
<rect x="795.7863751051302" y="40" width="8.746846089150546" height="50" fill="#41b883"/>
<rect x="804.5332211942807" y="40" width="2.775441547518924" height="50" fill="#3178c6"/>
<rect x="807.3086627417996" y="40" width="1.682085786375105" height="50" fill="#000000"/>
<rect x="808.9907485281747" y="40" width="1.0092514718250631" height="50" fill="#000080"/>
<circle cx="16" cy="116" r="6" fill="None" />
<text x="27" y="120" font-size="15" font-family="sans-serif" fill="#FFF">Lean (5.6k lines, 58.5%)</text>
<circle cx="266" cy="116" r="6" fill="#00B4AB" />
<text x="277" y="120" font-size="15" font-family="sans-serif" fill="#FFF">Dart (2.8k lines, 29.4%)</text>
<circle cx="516" cy="116" r="6" fill="#083fa1" />
<text x="527" y="120" font-size="15" font-family="sans-serif" fill="#FFF">Markdown (484 lines, 5.1%)</text>
<circle cx="16" cy="136" r="6" fill="#A97BFF" />
<text x="27" y="140" font-size="15" font-family="sans-serif" fill="#FFF">Kotlin (324 lines, 3.4%)</text>
<circle cx="266" cy="136" r="6" fill="#3572A5" />
<text x="277" y="140" font-size="15" font-family="sans-serif" fill="#FFF">Python (170 lines, 1.8%)</text>
<circle cx="516" cy="136" r="6" fill="#41b883" />
<text x="527" y="140" font-size="15" font-family="sans-serif" fill="#FFF">Vue (104 lines, 1.1%)</text>
<circle cx="16" cy="156" r="6" fill="#3178c6" />
<text x="27" y="160" font-size="15" font-family="sans-serif" fill="#FFF">TypeScript (33 lines, 0.3%)</text>
<circle cx="266" cy="156" r="6" fill="#000000" />
<text x="277" y="160" font-size="15" font-family="sans-serif" fill="#FFF">Fish (20 lines, 0.2%)</text>
<circle cx="516" cy="156" r="6" fill="#000080" />
<text x="527" y="160" font-size="15" font-family="sans-serif" fill="#FFF">Lua (12 lines, 0.1%)</text>
</svg>