<svg width="800" height="250" xmlns="http://www.w3.org/2000/svg">
<rect width="800" height="250" fill="#212830"/>
<rect x="10" y="40" width="313.11226844221767" height="50" fill="None"/>
<rect x="323.11226844221767" y="40" width="298.4507877908893" height="50" fill="#00B4AB"/>
<rect x="621.563056233107" y="40" width="58.5931834662799" height="50" fill="#239dad"/>
<rect x="680.1562396993869" y="40" width="34.01674467664315" height="50" fill="#3572A5"/>
<rect x="714.1729843760301" y="40" width="15.769002571033027" height="50" fill="#555555"/>
<rect x="729.9419869470631" y="40" width="15.136132902630365" height="50" fill="#dea584"/>
<rect x="745.0781198496935" y="40" width="10.178653833476169" height="50" fill="#A97BFF"/>
<rect x="755.2567736831696" y="40" width="9.967697277341948" height="50" fill="#89e051"/>
<rect x="765.2244709605116" y="40" width="9.49304502603995" height="50" fill="#083fa1"/>
<rect x="774.7175159865515" y="40" width="7.4362186037312945" height="50" fill="#199f4b"/>
<rect x="782.1537345902827" y="40" width="6.381435823060189" height="50" fill="#000080"/>
<rect x="788.5351704133429" y="40" width="5.326653042389082" height="50" fill="#DA3434"/>
<rect x="793.8618234557321" y="40" width="5.062957347221307" height="50" fill="#000000"/>
<rect x="798.9247808029534" y="40" width="4.799261652053531" height="50" fill="#000000"/>
<rect x="803.7240424550068" y="40" width="3.5862614542817592" height="50" fill="#000000"/>
<rect x="807.3103039092886" y="40" width="1.7931307271408796" height="50" fill="#012456"/>
<rect x="809.1034346364295" y="40" width="0.8438262245368844" height="50" fill="#c22d40"/>
<rect x="809.9472608609664" y="40" width="0.052739139033555274" height="50" fill="#74283c"/>
<circle cx="16" cy="116" r="6" fill="None" />
<text x="27" y="120" font-size="15" font-family="sans-serif" fill="#FFF">Lean (5.9k lines, 39.1%)</text>
<circle cx="266" cy="116" r="6" fill="#00B4AB" />
<text x="277" y="120" font-size="15" font-family="sans-serif" fill="#FFF">Dart (5.7k lines, 37.3%)</text>
<circle cx="516" cy="116" r="6" fill="#239dad" />
<text x="527" y="120" font-size="15" font-family="sans-serif" fill="#FFF">Typst (1.1k lines, 7.3%)</text>
<circle cx="16" cy="136" r="6" fill="#3572A5" />
<text x="27" y="140" font-size="15" font-family="sans-serif" fill="#FFF">Python (645 lines, 4.3%)</text>
<circle cx="266" cy="136" r="6" fill="#555555" />
<text x="277" y="140" font-size="15" font-family="sans-serif" fill="#FFF">C (299 lines, 2.0%)</text>
<circle cx="516" cy="136" r="6" fill="#dea584" />
<text x="527" y="140" font-size="15" font-family="sans-serif" fill="#FFF">Rust (287 lines, 1.9%)</text>
<circle cx="16" cy="156" r="6" fill="#A97BFF" />
<text x="27" y="160" font-size="15" font-family="sans-serif" fill="#FFF">Kotlin (193 lines, 1.3%)</text>
<circle cx="266" cy="156" r="6" fill="#89e051" />
<text x="277" y="160" font-size="15" font-family="sans-serif" fill="#FFF">Shell (189 lines, 1.2%)</text>
<circle cx="516" cy="156" r="6" fill="#083fa1" />
<text x="527" y="160" font-size="15" font-family="sans-serif" fill="#FFF">Markdown (180 lines, 1.2%)</text>
<circle cx="16" cy="176" r="6" fill="#199f4b" />
<text x="27" y="180" font-size="15" font-family="sans-serif" fill="#FFF">Vim Script (141 lines, 0.9%)</text>
<circle cx="266" cy="176" r="6" fill="#000080" />
<text x="277" y="180" font-size="15" font-family="sans-serif" fill="#FFF">Lua (121 lines, 0.8%)</text>
<circle cx="516" cy="176" r="6" fill="#DA3434" />
<text x="527" y="180" font-size="15" font-family="sans-serif" fill="#FFF">CMake (101 lines, 0.7%)</text>
<circle cx="16" cy="196" r="6" fill="#000000" />
<text x="27" y="200" font-size="15" font-family="sans-serif" fill="#FFF">Fish (96 lines, 0.6%)</text>
<circle cx="266" cy="196" r="6" fill="#000000" />
<text x="277" y="200" font-size="15" font-family="sans-serif" fill="#FFF">Batch (91 lines, 0.6%)</text>
<circle cx="516" cy="196" r="6" fill="#000000" />
<text x="527" y="200" font-size="15" font-family="sans-serif" fill="#FFF">C Header (68 lines, 0.4%)</text>
<circle cx="16" cy="216" r="6" fill="#012456" />
<text x="27" y="220" font-size="15" font-family="sans-serif" fill="#FFF">PowerShell (34 lines, 0.2%)</text>
<circle cx="266" cy="216" r="6" fill="#c22d40" />
<text x="277" y="220" font-size="15" font-family="sans-serif" fill="#FFF">Scala (16 lines, 0.1%)</text>
<circle cx="516" cy="216" r="6" fill="#74283c" />
<text x="527" y="220" font-size="15" font-family="sans-serif" fill="#FFF">Prolog (1 lines, 0.0%)</text>
</svg>