<svg width="800" height="250" xmlns="http://www.w3.org/2000/svg">
<rect width="800" height="250" fill="#212830"/>
<rect x="10" y="40" width="269.1070386366289" height="50" fill="#000000"/>
<rect x="279.1070386366289" y="40" width="226.5437142523637" height="50" fill="None"/>
<rect x="505.6507528889926" y="40" width="144.1064550017509" height="50" fill="#00B4AB"/>
<rect x="649.7572078907435" y="40" width="71.82911170771565" height="50" fill="#3572A5"/>
<rect x="721.5863195984592" y="40" width="55.09513248511732" height="50" fill="#083fa1"/>
<rect x="776.6814520835766" y="40" width="21.365705614567528" height="50" fill="#239dad"/>
<rect x="798.0471576981441" y="40" width="4.762460604645733" height="50" fill="#A97BFF"/>
<rect x="802.8096183027899" y="40" width="3.0815921559472397" height="50" fill="#3D6117"/>
<rect x="805.8912104587371" y="40" width="1.4567526555386952" height="50" fill="#74283c"/>
<rect x="807.3479631142758" y="40" width="0.7844052760592973" height="50" fill="#5e5086"/>
<rect x="808.132368390335" y="40" width="0.6536710633827478" height="50" fill="#000000"/>
<rect x="808.7860394537178" y="40" width="0.5602894828994981" height="50" fill="#3178c6"/>
<rect x="809.3463289366173" y="40" width="0.298821057546399" height="50" fill="#89e051"/>
<rect x="809.6451499941637" y="40" width="0.16808684486984946" height="50" fill="#000080"/>
<rect x="809.8132368390336" y="40" width="0.11205789657989962" height="50" fill="#000000"/>
<rect x="809.9252947356135" y="40" width="0.07470526438659975" height="50" fill="#dea584"/>
<circle cx="16" cy="116" r="6" fill="#000000" />
<text x="27" y="120" font-size="15" font-family="sans-serif" fill="#FFF">Jupyter Not… (14.4k lines, 33.6%)</text>
<circle cx="266" cy="116" r="6" fill="None" />
<text x="277" y="120" font-size="15" font-family="sans-serif" fill="#FFF">Lean (12.1k lines, 28.3%)</text>
<circle cx="516" cy="116" r="6" fill="#00B4AB" />
<text x="527" y="120" font-size="15" font-family="sans-serif" fill="#FFF">Dart (7.7k lines, 18.0%)</text>
<circle cx="16" cy="136" r="6" fill="#3572A5" />
<text x="27" y="140" font-size="15" font-family="sans-serif" fill="#FFF">Python (3.8k lines, 9.0%)</text>
<circle cx="266" cy="136" r="6" fill="#083fa1" />
<text x="277" y="140" font-size="15" font-family="sans-serif" fill="#FFF">Markdown (3.0k lines, 6.9%)</text>
<circle cx="516" cy="136" r="6" fill="#239dad" />
<text x="527" y="140" font-size="15" font-family="sans-serif" fill="#FFF">Typst (1.1k lines, 2.7%)</text>
<circle cx="16" cy="156" r="6" fill="#A97BFF" />
<text x="27" y="160" font-size="15" font-family="sans-serif" fill="#FFF">Kotlin (255 lines, 0.6%)</text>
<circle cx="266" cy="156" r="6" fill="#3D6117" />
<text x="277" y="160" font-size="15" font-family="sans-serif" fill="#FFF">TeX (165 lines, 0.4%)</text>
<circle cx="516" cy="156" r="6" fill="#74283c" />
<text x="527" y="160" font-size="15" font-family="sans-serif" fill="#FFF">Prolog (78 lines, 0.2%)</text>
<circle cx="16" cy="176" r="6" fill="#5e5086" />
<text x="27" y="180" font-size="15" font-family="sans-serif" fill="#FFF">Haskell (42 lines, 0.1%)</text>
<circle cx="266" cy="176" r="6" fill="#000000" />
<text x="277" y="180" font-size="15" font-family="sans-serif" fill="#FFF">Batch (35 lines, 0.1%)</text>
<circle cx="516" cy="176" r="6" fill="#3178c6" />
<text x="527" y="180" font-size="15" font-family="sans-serif" fill="#FFF">TypeScript (30 lines, 0.1%)</text>
<circle cx="16" cy="196" r="6" fill="#89e051" />
<text x="27" y="200" font-size="15" font-family="sans-serif" fill="#FFF">Shell (16 lines, 0.0%)</text>
<circle cx="266" cy="196" r="6" fill="#000080" />
<text x="277" y="200" font-size="15" font-family="sans-serif" fill="#FFF">Lua (9 lines, 0.0%)</text>
<circle cx="516" cy="196" r="6" fill="#000000" />
<text x="527" y="200" font-size="15" font-family="sans-serif" fill="#FFF">Fish (6 lines, 0.0%)</text>
<circle cx="16" cy="216" r="6" fill="#dea584" />
<text x="27" y="220" font-size="15" font-family="sans-serif" fill="#FFF">Rust (4 lines, 0.0%)</text>
</svg>