<svg width="800" height="250" xmlns="http://www.w3.org/2000/svg">
<rect width="800" height="250" fill="#212830"/>
<rect x="10" y="40" width="228.85390919734618" height="50" fill="#00B4AB"/>
<rect x="238.85390919734618" y="40" width="181.15432982090977" height="50" fill="#c22d40"/>
<rect x="420.00823901825595" y="40" width="119.890724599974" height="50" fill="#3572A5"/>
<rect x="539.8989636182299" y="40" width="103.8983565326742" height="50" fill="#083fa1"/>
<rect x="643.7973201509042" y="40" width="72.57274185854907" height="50" fill="None"/>
<rect x="716.3700620094532" y="40" width="39.686050041195095" height="50" fill="#239dad"/>
<rect x="756.0561120506484" y="40" width="19.357356576037464" height="50" fill="#663399"/>
<rect x="775.4134686266858" y="40" width="15.680152638654004" height="50" fill="#f34b7d"/>
<rect x="791.0936212653398" y="40" width="10.372490351675987" height="50" fill="#89e051"/>
<rect x="801.4661116170158" y="40" width="2.7405576514461645" height="50" fill="#000000"/>
<rect x="804.206669268462" y="40" width="2.2895798100689477" height="50" fill="#f1e05a"/>
<rect x="806.4962490785309" y="40" width="1.4570053336802398" height="50" fill="#5e5086"/>
<rect x="807.9532544122112" y="40" width="1.352933524131651" height="50" fill="#74283c"/>
<rect x="809.3061879363429" y="40" width="0.6591214604743939" height="50" fill="#A97BFF"/>
<rect x="809.9653093968172" y="40" width="0.034690603182862836" height="50" fill="#3178c6"/>
<rect x="810.0000000000001" y="40" width="0.0" height="50" fill="#3D6117"/>
<circle cx="16" cy="116" r="6" fill="#00B4AB" />
<text x="27" y="120" font-size="15" font-family="sans-serif" fill="#FFF">Dart (6.6k lines, 28.6%)</text>
<circle cx="266" cy="116" r="6" fill="#c22d40" />
<text x="277" y="120" font-size="15" font-family="sans-serif" fill="#FFF">Scala (5.2k lines, 22.6%)</text>
<circle cx="516" cy="116" r="6" fill="#3572A5" />
<text x="527" y="120" font-size="15" font-family="sans-serif" fill="#FFF">Python (3.5k lines, 15.0%)</text>
<circle cx="16" cy="136" r="6" fill="#083fa1" />
<text x="27" y="140" font-size="15" font-family="sans-serif" fill="#FFF">Markdown (3.0k lines, 13.0%)</text>
<circle cx="266" cy="136" r="6" fill="None" />
<text x="277" y="140" font-size="15" font-family="sans-serif" fill="#FFF">Lean (2.1k lines, 9.1%)</text>
<circle cx="516" cy="136" r="6" fill="#239dad" />
<text x="527" y="140" font-size="15" font-family="sans-serif" fill="#FFF">Typst (1.1k lines, 5.0%)</text>
<circle cx="16" cy="156" r="6" fill="#663399" />
<text x="27" y="160" font-size="15" font-family="sans-serif" fill="#FFF">CSS (558 lines, 2.4%)</text>
<circle cx="266" cy="156" r="6" fill="#f34b7d" />
<text x="277" y="160" font-size="15" font-family="sans-serif" fill="#FFF">C++ (452 lines, 2.0%)</text>
<circle cx="516" cy="156" r="6" fill="#89e051" />
<text x="527" y="160" font-size="15" font-family="sans-serif" fill="#FFF">Shell (299 lines, 1.3%)</text>
<circle cx="16" cy="176" r="6" fill="#000000" />
<text x="27" y="180" font-size="15" font-family="sans-serif" fill="#FFF">C++ Header (79 lines, 0.3%)</text>
<circle cx="266" cy="176" r="6" fill="#f1e05a" />
<text x="277" y="180" font-size="15" font-family="sans-serif" fill="#FFF">JavaScript (66 lines, 0.3%)</text>
<circle cx="516" cy="176" r="6" fill="#5e5086" />
<text x="527" y="180" font-size="15" font-family="sans-serif" fill="#FFF">Haskell (42 lines, 0.2%)</text>
<circle cx="16" cy="196" r="6" fill="#74283c" />
<text x="27" y="200" font-size="15" font-family="sans-serif" fill="#FFF">Prolog (39 lines, 0.2%)</text>
<circle cx="266" cy="196" r="6" fill="#A97BFF" />
<text x="277" y="200" font-size="15" font-family="sans-serif" fill="#FFF">Kotlin (19 lines, 0.1%)</text>
<circle cx="516" cy="196" r="6" fill="#3178c6" />
<text x="527" y="200" font-size="15" font-family="sans-serif" fill="#FFF">TypeScript (1 lines, 0.0%)</text>
<circle cx="16" cy="216" r="6" fill="#3D6117" />
<text x="27" y="220" font-size="15" font-family="sans-serif" fill="#FFF">TeX (0 lines, 0.0%)</text>
</svg>