<svg width="800" height="210" xmlns="http://www.w3.org/2000/svg">
<rect width="800" height="210" fill="#212830"/>
<rect x="10" y="40" width="657.5790964898474" height="50" fill="#c22d40"/>
<rect x="667.5790964898474" y="40" width="70.2660160554069" height="50" fill="#663399"/>
<rect x="737.8451125452543" y="40" width="35.636707067527155" height="50" fill="#89e051"/>
<rect x="773.4818196127815" y="40" width="14.607272154887456" height="50" fill="#dea584"/>
<rect x="788.089091767669" y="40" width="13.473949315284116" height="50" fill="#083fa1"/>
<rect x="801.5630410829531" y="40" width="8.311034157091138" height="50" fill="#f1e05a"/>
<rect x="809.8740752400442" y="40" width="0.12592475995592634" height="50" fill="#3178c6"/>
<rect x="810.0000000000002" y="40" width="0.0" height="50" fill="#3D6117"/>
<rect x="810.0000000000002" y="40" width="0.0" height="50" fill="None"/>
<rect x="810.0000000000002" y="40" width="0.0" height="50" fill="#239dad"/>
<circle cx="16" cy="116" r="6" fill="#c22d40" />
<text x="27" y="120" font-size="15" font-family="sans-serif" fill="#FFF">Scala (5.2k lines, 82.2%)</text>
<circle cx="266" cy="116" r="6" fill="#663399" />
<text x="277" y="120" font-size="15" font-family="sans-serif" fill="#FFF">CSS (558 lines, 8.8%)</text>
<circle cx="516" cy="116" r="6" fill="#89e051" />
<text x="527" y="120" font-size="15" font-family="sans-serif" fill="#FFF">Shell (283 lines, 4.5%)</text>
<circle cx="16" cy="136" r="6" fill="#dea584" />
<text x="27" y="140" font-size="15" font-family="sans-serif" fill="#FFF">Rust (116 lines, 1.8%)</text>
<circle cx="266" cy="136" r="6" fill="#083fa1" />
<text x="277" y="140" font-size="15" font-family="sans-serif" fill="#FFF">Markdown (107 lines, 1.7%)</text>
<circle cx="516" cy="136" r="6" fill="#f1e05a" />
<text x="527" y="140" font-size="15" font-family="sans-serif" fill="#FFF">JavaScript (66 lines, 1.0%)</text>
<circle cx="16" cy="156" r="6" fill="#3178c6" />
<text x="27" y="160" font-size="15" font-family="sans-serif" fill="#FFF">TypeScript (1 lines, 0.0%)</text>
<circle cx="266" cy="156" r="6" fill="#3D6117" />
<text x="277" y="160" font-size="15" font-family="sans-serif" fill="#FFF">TeX (0 lines, 0.0%)</text>
<circle cx="516" cy="156" r="6" fill="None" />
<text x="527" y="160" font-size="15" font-family="sans-serif" fill="#FFF">Lean (0 lines, 0.0%)</text>
<circle cx="16" cy="176" r="6" fill="#239dad" />
<text x="27" y="180" font-size="15" font-family="sans-serif" fill="#FFF">Typst (0 lines, 0.0%)</text>
</svg>