<svg width="800" height="210" xmlns="http://www.w3.org/2000/svg">
<rect width="800" height="210" fill="#212830"/>
<rect x="10" y="40" width="633.0656160024246" height="50" fill="#c22d40"/>
<rect x="643.0656160024246" y="40" width="67.64661312320048" height="50" fill="#663399"/>
<rect x="710.7122291256251" y="40" width="43.885437187452645" height="50" fill="#dea584"/>
<rect x="754.5976663130778" y="40" width="34.30822851947265" height="50" fill="#89e051"/>
<rect x="788.9058948325504" y="40" width="12.971662373086831" height="50" fill="#083fa1"/>
<rect x="801.8775572056372" y="40" width="8.00121230489468" height="50" fill="#f1e05a"/>
<rect x="809.8787695105319" y="40" width="0.12123048946810122" height="50" fill="#3178c6"/>
<rect x="810.0" y="40" width="0.0" height="50" fill="#3D6117"/>
<rect x="810.0" y="40" width="0.0" height="50" fill="None"/>
<rect x="810.0" y="40" width="0.0" height="50" fill="#239dad"/>
<circle cx="16" cy="116" r="6" fill="#c22d40" />
<text x="27" y="120" font-size="15" font-family="sans-serif" fill="#FFF">Scala (5.2k lines, 79.1%)</text>
<circle cx="266" cy="116" r="6" fill="#663399" />
<text x="277" y="120" font-size="15" font-family="sans-serif" fill="#FFF">CSS (558 lines, 8.5%)</text>
<circle cx="516" cy="116" r="6" fill="#dea584" />
<text x="527" y="120" font-size="15" font-family="sans-serif" fill="#FFF">Rust (362 lines, 5.5%)</text>
<circle cx="16" cy="136" r="6" fill="#89e051" />
<text x="27" y="140" font-size="15" font-family="sans-serif" fill="#FFF">Shell (283 lines, 4.3%)</text>
<circle cx="266" cy="136" r="6" fill="#083fa1" />
<text x="277" y="140" font-size="15" font-family="sans-serif" fill="#FFF">Markdown (107 lines, 1.6%)</text>
<circle cx="516" cy="136" r="6" fill="#f1e05a" />
<text x="527" y="140" font-size="15" font-family="sans-serif" fill="#FFF">JavaScript (66 lines, 1.0%)</text>
<circle cx="16" cy="156" r="6" fill="#3178c6" />
<text x="27" y="160" font-size="15" font-family="sans-serif" fill="#FFF">TypeScript (1 lines, 0.0%)</text>
<circle cx="266" cy="156" r="6" fill="#3D6117" />
<text x="277" y="160" font-size="15" font-family="sans-serif" fill="#FFF">TeX (0 lines, 0.0%)</text>
<circle cx="516" cy="156" r="6" fill="None" />
<text x="527" y="160" font-size="15" font-family="sans-serif" fill="#FFF">Lean (0 lines, 0.0%)</text>
<circle cx="16" cy="176" r="6" fill="#239dad" />
<text x="27" y="180" font-size="15" font-family="sans-serif" fill="#FFF">Typst (0 lines, 0.0%)</text>
</svg>