<svg width="800" height="230" xmlns="http://www.w3.org/2000/svg">
<rect width="800" height="230" fill="#212830"/>
<rect x="10" y="40" width="268.4364957384379" height="50" fill="#000000"/>
<rect x="278.4364957384379" y="40" width="225.97922779563132" height="50" fill="None"/>
<rect x="504.41572353406923" y="40" width="142.499184947138" height="50" fill="#00B4AB"/>
<rect x="646.9149084812072" y="40" width="67.7937683386894" height="50" fill="#3572A5"/>
<rect x="714.7086768198967" y="40" width="57.267942806576315" height="50" fill="#083fa1"/>
<rect x="771.976619626473" y="40" width="21.312467980066135" height="50" fill="#239dad"/>
<rect x="793.2890876065392" y="40" width="8.420660425690468" height="50" fill="#f34b7d"/>
<rect x="801.7097480322296" y="40" width="3.073913650971077" height="50" fill="#3D6117"/>
<rect x="804.7836616832008" y="40" width="1.4717525965255462" height="50" fill="#000000"/>
<rect x="806.2554142797263" y="40" width="1.453122816822691" height="50" fill="#74283c"/>
<rect x="807.708537096549" y="40" width="0.7824507475199105" height="50" fill="#5e5086"/>
<rect x="808.4909878440689" y="40" width="0.6520422895999255" height="50" fill="#000000"/>
<rect x="809.1430301336687" y="40" width="0.5588933910856504" height="50" fill="#A97BFF"/>
<rect x="809.7019235247544" y="40" width="0.2980764752456802" height="50" fill="#89e051"/>
<circle cx="16" cy="116" r="6" fill="#000000" />
<text x="27" y="120" font-size="15" font-family="sans-serif" fill="#FFF">Jupyter Not… (14.4k lines, 33.6%)</text>
<circle cx="266" cy="116" r="6" fill="None" />
<text x="277" y="120" font-size="15" font-family="sans-serif" fill="#FFF">Lean (12.1k lines, 28.2%)</text>
<circle cx="516" cy="116" r="6" fill="#00B4AB" />
<text x="527" y="120" font-size="15" font-family="sans-serif" fill="#FFF">Dart (7.6k lines, 17.8%)</text>
<circle cx="16" cy="136" r="6" fill="#3572A5" />
<text x="27" y="140" font-size="15" font-family="sans-serif" fill="#FFF">Python (3.6k lines, 8.5%)</text>
<circle cx="266" cy="136" r="6" fill="#083fa1" />
<text x="277" y="140" font-size="15" font-family="sans-serif" fill="#FFF">Markdown (3.1k lines, 7.2%)</text>
<circle cx="516" cy="136" r="6" fill="#239dad" />
<text x="527" y="140" font-size="15" font-family="sans-serif" fill="#FFF">Typst (1.1k lines, 2.7%)</text>
<circle cx="16" cy="156" r="6" fill="#f34b7d" />
<text x="27" y="160" font-size="15" font-family="sans-serif" fill="#FFF">C++ (452 lines, 1.1%)</text>
<circle cx="266" cy="156" r="6" fill="#3D6117" />
<text x="277" y="160" font-size="15" font-family="sans-serif" fill="#FFF">TeX (165 lines, 0.4%)</text>
<circle cx="516" cy="156" r="6" fill="#000000" />
<text x="527" y="160" font-size="15" font-family="sans-serif" fill="#FFF">C++ Header (79 lines, 0.2%)</text>
<circle cx="16" cy="176" r="6" fill="#74283c" />
<text x="27" y="180" font-size="15" font-family="sans-serif" fill="#FFF">Prolog (78 lines, 0.2%)</text>
<circle cx="266" cy="176" r="6" fill="#5e5086" />
<text x="277" y="180" font-size="15" font-family="sans-serif" fill="#FFF">Haskell (42 lines, 0.1%)</text>
<circle cx="516" cy="176" r="6" fill="#000000" />
<text x="527" y="180" font-size="15" font-family="sans-serif" fill="#FFF">Batch (35 lines, 0.1%)</text>
<circle cx="16" cy="196" r="6" fill="#A97BFF" />
<text x="27" y="200" font-size="15" font-family="sans-serif" fill="#FFF">Kotlin (30 lines, 0.1%)</text>
<circle cx="266" cy="196" r="6" fill="#89e051" />
<text x="277" y="200" font-size="15" font-family="sans-serif" fill="#FFF">Shell (16 lines, 0.0%)</text>
</svg>