<svg width="800" height="190" xmlns="http://www.w3.org/2000/svg">
<rect width="800" height="190" fill="#212830"/>
<rect x="10" y="40" width="553.5018050541515" height="50" fill="#3572A5"/>
<rect x="563.5018050541515" y="40" width="157.9783393501805" height="50" fill="#083fa1"/>
<rect x="721.480144404332" y="40" width="69.02527075812274" height="50" fill="#dea584"/>
<rect x="790.5054151624547" y="40" width="8.086642599277978" height="50" fill="#000000"/>
<rect x="798.5920577617327" y="40" width="4.043321299638989" height="50" fill="#89e051"/>
<rect x="802.6353790613716" y="40" width="3.32129963898917" height="50" fill="#3178c6"/>
<rect x="805.9566787003608" y="40" width="2.166064981949458" height="50" fill="#f1e05a"/>
<rect x="808.1227436823103" y="40" width="1.8772563176895307" height="50" fill="#41b883"/>
<circle cx="16" cy="116" r="6" fill="#3572A5" />
<text x="27" y="120" font-size="15" font-family="sans-serif" fill="#FFF">Python (3.8k lines, 69.2%)</text>
<circle cx="266" cy="116" r="6" fill="#083fa1" />
<text x="277" y="120" font-size="15" font-family="sans-serif" fill="#FFF">Markdown (1.1k lines, 19.7%)</text>
<circle cx="516" cy="116" r="6" fill="#dea584" />
<text x="527" y="120" font-size="15" font-family="sans-serif" fill="#FFF">Rust (478 lines, 8.6%)</text>
<circle cx="16" cy="136" r="6" fill="#000000" />
<text x="27" y="140" font-size="15" font-family="sans-serif" fill="#FFF">Fish (56 lines, 1.0%)</text>
<circle cx="266" cy="136" r="6" fill="#89e051" />
<text x="277" y="140" font-size="15" font-family="sans-serif" fill="#FFF">Shell (28 lines, 0.5%)</text>
<circle cx="516" cy="136" r="6" fill="#3178c6" />
<text x="527" y="140" font-size="15" font-family="sans-serif" fill="#FFF">TypeScript (23 lines, 0.4%)</text>
<circle cx="16" cy="156" r="6" fill="#f1e05a" />
<text x="27" y="160" font-size="15" font-family="sans-serif" fill="#FFF">JavaScript (15 lines, 0.3%)</text>
<circle cx="266" cy="156" r="6" fill="#41b883" />
<text x="277" y="160" font-size="15" font-family="sans-serif" fill="#FFF">Vue (13 lines, 0.2%)</text>
</svg>