<svg width="800" height="190" xmlns="http://www.w3.org/2000/svg">
<rect width="800" height="190" fill="#212830"/>
<rect x="10" y="40" width="631.9076272564645" height="50" fill="#3572A5"/>
<rect x="641.9076272564645" y="40" width="72.85737518295657" height="50" fill="#000080"/>
<rect x="714.7650024394211" y="40" width="53.60221174174663" height="50" fill="#f1e05a"/>
<rect x="768.3672141811677" y="40" width="33.69653602211742" height="50" fill="#ec915c"/>
<rect x="802.0637502032852" y="40" width="4.943893315986339" height="50" fill="#3178c6"/>
<rect x="807.0076435192715" y="40" width="2.732151569360872" height="50" fill="#239dad"/>
<rect x="809.7397950886324" y="40" width="0.2602049113677021" height="50" fill="#000000"/>
<circle cx="16" cy="116" r="6" fill="#3572A5" />
<text x="27" y="120" font-size="15" font-family="sans-serif" fill="#FFF">Python (4.9k lines, 79.0%)</text>
<circle cx="266" cy="116" r="6" fill="#000080" />
<text x="277" y="120" font-size="15" font-family="sans-serif" fill="#FFF">Lua (560 lines, 9.1%)</text>
<circle cx="516" cy="116" r="6" fill="#f1e05a" />
<text x="527" y="120" font-size="15" font-family="sans-serif" fill="#FFF">JavaScript (412 lines, 6.7%)</text>
<circle cx="16" cy="136" r="6" fill="#ec915c" />
<text x="27" y="140" font-size="15" font-family="sans-serif" fill="#FFF">Zig (259 lines, 4.2%)</text>
<circle cx="266" cy="136" r="6" fill="#3178c6" />
<text x="277" y="140" font-size="15" font-family="sans-serif" fill="#FFF">TypeScript (38 lines, 0.6%)</text>
<circle cx="516" cy="136" r="6" fill="#239dad" />
<text x="527" y="140" font-size="15" font-family="sans-serif" fill="#FFF">Typst (21 lines, 0.3%)</text>
<circle cx="16" cy="156" r="6" fill="#000000" />
<text x="27" y="160" font-size="15" font-family="sans-serif" fill="#FFF">Fish (2 lines, 0.0%)</text>
</svg>