<svg width="800" height="250" xmlns="http://www.w3.org/2000/svg">
<rect width="800" height="250" fill="#212830"/>
<rect x="10" y="40" width="269.07563025210084" height="50" fill="#000000"/>
<rect x="279.07563025210084" y="40" width="226.5172735760971" height="50" fill="None"/>
<rect x="505.5929038281979" y="40" width="144.08963585434174" height="50" fill="#00B4AB"/>
<rect x="649.6825396825396" y="40" width="71.82072829131653" height="50" fill="#3572A5"/>
<rect x="721.5032679738562" y="40" width="55.182072829131656" height="50" fill="#083fa1"/>
<rect x="776.6853408029879" y="40" width="21.36321195144724" height="50" fill="#239dad"/>
<rect x="798.0485527544351" y="40" width="4.761904761904762" height="50" fill="#A97BFF"/>
<rect x="802.81045751634" y="40" width="3.0812324929971995" height="50" fill="#3D6117"/>
<rect x="805.8916900093371" y="40" width="1.4565826330532212" height="50" fill="#74283c"/>
<rect x="807.3482726423904" y="40" width="0.7843137254901962" height="50" fill="#5e5086"/>
<rect x="808.1325863678805" y="40" width="0.65359477124183" height="50" fill="#000000"/>
<rect x="808.7861811391224" y="40" width="0.5602240896358543" height="50" fill="#3178c6"/>
<rect x="809.3464052287583" y="40" width="0.2987861811391223" height="50" fill="#89e051"/>
<rect x="809.6451914098974" y="40" width="0.16806722689075632" height="50" fill="#000080"/>
<rect x="809.8132586367882" y="40" width="0.11204481792717086" height="50" fill="#000000"/>
<rect x="809.9253034547154" y="40" width="0.07469654528478058" height="50" fill="#dea584"/>
<circle cx="16" cy="116" r="6" fill="#000000" />
<text x="27" y="120" font-size="15" font-family="sans-serif" fill="#FFF">Jupyter Not… (14.4k lines, 33.6%)</text>
<circle cx="266" cy="116" r="6" fill="None" />
<text x="277" y="120" font-size="15" font-family="sans-serif" fill="#FFF">Lean (12.1k lines, 28.3%)</text>
<circle cx="516" cy="116" r="6" fill="#00B4AB" />
<text x="527" y="120" font-size="15" font-family="sans-serif" fill="#FFF">Dart (7.7k lines, 18.0%)</text>
<circle cx="16" cy="136" r="6" fill="#3572A5" />
<text x="27" y="140" font-size="15" font-family="sans-serif" fill="#FFF">Python (3.8k lines, 9.0%)</text>
<circle cx="266" cy="136" r="6" fill="#083fa1" />
<text x="277" y="140" font-size="15" font-family="sans-serif" fill="#FFF">Markdown (3.0k lines, 6.9%)</text>
<circle cx="516" cy="136" r="6" fill="#239dad" />
<text x="527" y="140" font-size="15" font-family="sans-serif" fill="#FFF">Typst (1.1k lines, 2.7%)</text>
<circle cx="16" cy="156" r="6" fill="#A97BFF" />
<text x="27" y="160" font-size="15" font-family="sans-serif" fill="#FFF">Kotlin (255 lines, 0.6%)</text>
<circle cx="266" cy="156" r="6" fill="#3D6117" />
<text x="277" y="160" font-size="15" font-family="sans-serif" fill="#FFF">TeX (165 lines, 0.4%)</text>
<circle cx="516" cy="156" r="6" fill="#74283c" />
<text x="527" y="160" font-size="15" font-family="sans-serif" fill="#FFF">Prolog (78 lines, 0.2%)</text>
<circle cx="16" cy="176" r="6" fill="#5e5086" />
<text x="27" y="180" font-size="15" font-family="sans-serif" fill="#FFF">Haskell (42 lines, 0.1%)</text>
<circle cx="266" cy="176" r="6" fill="#000000" />
<text x="277" y="180" font-size="15" font-family="sans-serif" fill="#FFF">Batch (35 lines, 0.1%)</text>
<circle cx="516" cy="176" r="6" fill="#3178c6" />
<text x="527" y="180" font-size="15" font-family="sans-serif" fill="#FFF">TypeScript (30 lines, 0.1%)</text>
<circle cx="16" cy="196" r="6" fill="#89e051" />
<text x="27" y="200" font-size="15" font-family="sans-serif" fill="#FFF">Shell (16 lines, 0.0%)</text>
<circle cx="266" cy="196" r="6" fill="#000080" />
<text x="277" y="200" font-size="15" font-family="sans-serif" fill="#FFF">Lua (9 lines, 0.0%)</text>
<circle cx="516" cy="196" r="6" fill="#000000" />
<text x="527" y="200" font-size="15" font-family="sans-serif" fill="#FFF">Fish (6 lines, 0.0%)</text>
<circle cx="16" cy="216" r="6" fill="#dea584" />
<text x="27" y="220" font-size="15" font-family="sans-serif" fill="#FFF">Rust (4 lines, 0.0%)</text>
</svg>