<svg width="800" height="230" xmlns="http://www.w3.org/2000/svg">
<rect width="800" height="230" fill="#212830"/>
<rect x="10" y="40" width="269.1447383782017" height="50" fill="#000000"/>
<rect x="279.1447383782017" y="40" width="226.57545121296317" height="50" fill="None"/>
<rect x="505.72018959116485" y="40" width="144.12664316234327" height="50" fill="#00B4AB"/>
<rect x="649.8468327535081" y="40" width="71.83917439118355" height="50" fill="#3572A5"/>
<rect x="721.6860071446916" y="40" width="55.196245534567694" height="50" fill="#083fa1"/>
<rect x="776.8822526792593" y="40" width="21.36869877886479" height="50" fill="#239dad"/>
<rect x="798.2509514581241" y="40" width="4.763127787246959" height="50" fill="#A97BFF"/>
<rect x="803.014079245371" y="40" width="3.0820238623362672" height="50" fill="#3D6117"/>
<rect x="806.0961031077073" y="40" width="1.4569567349225991" height="50" fill="#74283c"/>
<rect x="807.55305984263" y="40" width="0.7845151649583225" height="50" fill="#5e5086"/>
<rect x="808.3375750075883" y="40" width="0.6537626374652689" height="50" fill="#000000"/>
<rect x="808.9913376450536" y="40" width="0.5603679749702305" height="50" fill="#3178c6"/>
<rect x="809.5517056200238" y="40" width="0.2988629199841229" height="50" fill="#89e051"/>
<rect x="809.8505685400079" y="40" width="0.07471572999603072" height="50" fill="#000080"/>
<rect x="809.9252842700039" y="40" width="0.07471572999603072" height="50" fill="#dea584"/>
<circle cx="16" cy="116" r="6" fill="#000000" />
<text x="27" y="120" font-size="15" font-family="sans-serif" fill="#FFF">Jupyter Not… (14.4k lines, 33.6%)</text>
<circle cx="266" cy="116" r="6" fill="None" />
<text x="277" y="120" font-size="15" font-family="sans-serif" fill="#FFF">Lean (12.1k lines, 28.3%)</text>
<circle cx="516" cy="116" r="6" fill="#00B4AB" />
<text x="527" y="120" font-size="15" font-family="sans-serif" fill="#FFF">Dart (7.7k lines, 18.0%)</text>
<circle cx="16" cy="136" r="6" fill="#3572A5" />
<text x="27" y="140" font-size="15" font-family="sans-serif" fill="#FFF">Python (3.8k lines, 9.0%)</text>
<circle cx="266" cy="136" r="6" fill="#083fa1" />
<text x="277" y="140" font-size="15" font-family="sans-serif" fill="#FFF">Markdown (3.0k lines, 6.9%)</text>
<circle cx="516" cy="136" r="6" fill="#239dad" />
<text x="527" y="140" font-size="15" font-family="sans-serif" fill="#FFF">Typst (1.1k lines, 2.7%)</text>
<circle cx="16" cy="156" r="6" fill="#A97BFF" />
<text x="27" y="160" font-size="15" font-family="sans-serif" fill="#FFF">Kotlin (255 lines, 0.6%)</text>
<circle cx="266" cy="156" r="6" fill="#3D6117" />
<text x="277" y="160" font-size="15" font-family="sans-serif" fill="#FFF">TeX (165 lines, 0.4%)</text>
<circle cx="516" cy="156" r="6" fill="#74283c" />
<text x="527" y="160" font-size="15" font-family="sans-serif" fill="#FFF">Prolog (78 lines, 0.2%)</text>
<circle cx="16" cy="176" r="6" fill="#5e5086" />
<text x="27" y="180" font-size="15" font-family="sans-serif" fill="#FFF">Haskell (42 lines, 0.1%)</text>
<circle cx="266" cy="176" r="6" fill="#000000" />
<text x="277" y="180" font-size="15" font-family="sans-serif" fill="#FFF">Batch (35 lines, 0.1%)</text>
<circle cx="516" cy="176" r="6" fill="#3178c6" />
<text x="527" y="180" font-size="15" font-family="sans-serif" fill="#FFF">TypeScript (30 lines, 0.1%)</text>
<circle cx="16" cy="196" r="6" fill="#89e051" />
<text x="27" y="200" font-size="15" font-family="sans-serif" fill="#FFF">Shell (16 lines, 0.0%)</text>
<circle cx="266" cy="196" r="6" fill="#000080" />
<text x="277" y="200" font-size="15" font-family="sans-serif" fill="#FFF">Lua (4 lines, 0.0%)</text>
<circle cx="516" cy="196" r="6" fill="#dea584" />
<text x="527" y="200" font-size="15" font-family="sans-serif" fill="#FFF">Rust (4 lines, 0.0%)</text>
</svg>