<svg width="800" height="250" xmlns="http://www.w3.org/2000/svg">
<rect width="800" height="250" fill="#212830"/>
<rect x="10" y="40" width="265.00528759942983" height="50" fill="#000000"/>
<rect x="275.00528759942983" y="40" width="223.09071681456624" height="50" fill="None"/>
<rect x="498.09600441399607" y="40" width="141.90997287231596" height="50" fill="#00B4AB"/>
<rect x="640.005977286312" y="40" width="70.73428663386822" height="50" fill="#3572A5"/>
<rect x="710.7402639201803" y="40" width="56.88537404018575" height="50" fill="#083fa1"/>
<rect x="767.625637960366" y="40" width="21.040047818290496" height="50" fill="#239dad"/>
<rect x="788.6656857786566" y="40" width="8.313025886247644" height="50" fill="#f34b7d"/>
<rect x="796.9787116649042" y="40" width="4.6898707986574095" height="50" fill="#A97BFF"/>
<rect x="801.6685824635615" y="40" width="3.0346222814842063" height="50" fill="#3D6117"/>
<rect x="804.7032047450457" y="40" width="1.4529403650742563" height="50" fill="#000000"/>
<rect x="806.15614511012" y="40" width="1.434548714883443" height="50" fill="#74283c"/>
<rect x="807.5906938250034" y="40" width="0.7724493080141616" height="50" fill="#5e5086"/>
<rect x="808.3631431330176" y="40" width="0.6437077566784679" height="50" fill="#000000"/>
<rect x="809.0068508896961" y="40" width="0.5517495057244012" height="50" fill="#3178c6"/>
<rect x="809.5586003954205" y="40" width="0.29426640305301394" height="50" fill="#89e051"/>
<rect x="809.8528667984735" y="40" width="0.07356660076325348" height="50" fill="#000080"/>
<rect x="809.9264333992368" y="40" width="0.07356660076325348" height="50" fill="#dea584"/>
<circle cx="16" cy="116" r="6" fill="#000000" />
<text x="27" y="120" font-size="15" font-family="sans-serif" fill="#FFF">Jupyter Not… (14.4k lines, 33.1%)</text>
<circle cx="266" cy="116" r="6" fill="None" />
<text x="277" y="120" font-size="15" font-family="sans-serif" fill="#FFF">Lean (12.1k lines, 27.9%)</text>
<circle cx="516" cy="116" r="6" fill="#00B4AB" />
<text x="527" y="120" font-size="15" font-family="sans-serif" fill="#FFF">Dart (7.7k lines, 17.7%)</text>
<circle cx="16" cy="136" r="6" fill="#3572A5" />
<text x="27" y="140" font-size="15" font-family="sans-serif" fill="#FFF">Python (3.8k lines, 8.8%)</text>
<circle cx="266" cy="136" r="6" fill="#083fa1" />
<text x="277" y="140" font-size="15" font-family="sans-serif" fill="#FFF">Markdown (3.1k lines, 7.1%)</text>
<circle cx="516" cy="136" r="6" fill="#239dad" />
<text x="527" y="140" font-size="15" font-family="sans-serif" fill="#FFF">Typst (1.1k lines, 2.6%)</text>
<circle cx="16" cy="156" r="6" fill="#f34b7d" />
<text x="27" y="160" font-size="15" font-family="sans-serif" fill="#FFF">C++ (452 lines, 1.0%)</text>
<circle cx="266" cy="156" r="6" fill="#A97BFF" />
<text x="277" y="160" font-size="15" font-family="sans-serif" fill="#FFF">Kotlin (255 lines, 0.6%)</text>
<circle cx="516" cy="156" r="6" fill="#3D6117" />
<text x="527" y="160" font-size="15" font-family="sans-serif" fill="#FFF">TeX (165 lines, 0.4%)</text>
<circle cx="16" cy="176" r="6" fill="#000000" />
<text x="27" y="180" font-size="15" font-family="sans-serif" fill="#FFF">C++ Header (79 lines, 0.2%)</text>
<circle cx="266" cy="176" r="6" fill="#74283c" />
<text x="277" y="180" font-size="15" font-family="sans-serif" fill="#FFF">Prolog (78 lines, 0.2%)</text>
<circle cx="516" cy="176" r="6" fill="#5e5086" />
<text x="527" y="180" font-size="15" font-family="sans-serif" fill="#FFF">Haskell (42 lines, 0.1%)</text>
<circle cx="16" cy="196" r="6" fill="#000000" />
<text x="27" y="200" font-size="15" font-family="sans-serif" fill="#FFF">Batch (35 lines, 0.1%)</text>
<circle cx="266" cy="196" r="6" fill="#3178c6" />
<text x="277" y="200" font-size="15" font-family="sans-serif" fill="#FFF">TypeScript (30 lines, 0.1%)</text>
<circle cx="516" cy="196" r="6" fill="#89e051" />
<text x="527" y="200" font-size="15" font-family="sans-serif" fill="#FFF">Shell (16 lines, 0.0%)</text>
<circle cx="16" cy="216" r="6" fill="#000080" />
<text x="27" y="220" font-size="15" font-family="sans-serif" fill="#FFF">Lua (4 lines, 0.0%)</text>
<circle cx="266" cy="216" r="6" fill="#dea584" />
<text x="277" y="220" font-size="15" font-family="sans-serif" fill="#FFF">Rust (4 lines, 0.0%)</text>
</svg>