<svg width="800" height="210" xmlns="http://www.w3.org/2000/svg">
<rect width="800" height="210" fill="#212830"/>
<rect x="10" y="40" width="313.6947218259629" height="50" fill="#00B4AB"/>
<rect x="323.6947218259629" y="40" width="164.3366619115549" height="50" fill="#3572A5"/>
<rect x="488.0313837375178" y="40" width="137.3276271992392" height="50" fill="#083fa1"/>
<rect x="625.3590109367569" y="40" width="99.47693770803613" height="50" fill="None"/>
<rect x="724.835948644793" y="40" width="54.39847836424156" height="50" fill="#239dad"/>
<rect x="779.2344270090346" y="40" width="21.493105087969568" height="50" fill="#f34b7d"/>
<rect x="800.7275320970041" y="40" width="3.7565382786495487" height="50" fill="#000000"/>
<rect x="804.4840703756537" y="40" width="1.9971469329529241" height="50" fill="#5e5086"/>
<rect x="806.4812173086066" y="40" width="1.8544935805991443" height="50" fill="#74283c"/>
<rect x="808.3357108892058" y="40" width="0.9034712315739419" height="50" fill="#A97BFF"/>
<rect x="809.2391821207797" y="40" width="0.7608178792201616" height="50" fill="#89e051"/>
<circle cx="16" cy="116" r="6" fill="#00B4AB" />
<text x="27" y="120" font-size="15" font-family="sans-serif" fill="#FFF">Dart (6.6k lines, 39.2%)</text>
<circle cx="266" cy="116" r="6" fill="#3572A5" />
<text x="277" y="120" font-size="15" font-family="sans-serif" fill="#FFF">Python (3.5k lines, 20.5%)</text>
<circle cx="516" cy="116" r="6" fill="#083fa1" />
<text x="527" y="120" font-size="15" font-family="sans-serif" fill="#FFF">Markdown (2.9k lines, 17.2%)</text>
<circle cx="16" cy="136" r="6" fill="None" />
<text x="27" y="140" font-size="15" font-family="sans-serif" fill="#FFF">Lean (2.1k lines, 12.4%)</text>
<circle cx="266" cy="136" r="6" fill="#239dad" />
<text x="277" y="140" font-size="15" font-family="sans-serif" fill="#FFF">Typst (1.1k lines, 6.8%)</text>
<circle cx="516" cy="136" r="6" fill="#f34b7d" />
<text x="527" y="140" font-size="15" font-family="sans-serif" fill="#FFF">C++ (452 lines, 2.7%)</text>
<circle cx="16" cy="156" r="6" fill="#000000" />
<text x="27" y="160" font-size="15" font-family="sans-serif" fill="#FFF">C++ Header (79 lines, 0.5%)</text>
<circle cx="266" cy="156" r="6" fill="#5e5086" />
<text x="277" y="160" font-size="15" font-family="sans-serif" fill="#FFF">Haskell (42 lines, 0.2%)</text>
<circle cx="516" cy="156" r="6" fill="#74283c" />
<text x="527" y="160" font-size="15" font-family="sans-serif" fill="#FFF">Prolog (39 lines, 0.2%)</text>
<circle cx="16" cy="176" r="6" fill="#A97BFF" />
<text x="27" y="180" font-size="15" font-family="sans-serif" fill="#FFF">Kotlin (19 lines, 0.1%)</text>
<circle cx="266" cy="176" r="6" fill="#89e051" />
<text x="277" y="180" font-size="15" font-family="sans-serif" fill="#FFF">Shell (16 lines, 0.1%)</text>
</svg>