<svg width="800" height="210" xmlns="http://www.w3.org/2000/svg">
<rect width="800" height="210" fill="#212830"/>
<rect x="10" y="40" width="293.49760438056126" height="50" fill="None"/>
<rect x="303.49760438056126" y="40" width="203.61787425442458" height="50" fill="#00B4AB"/>
<rect x="507.11547863498583" y="40" width="187.0343209152244" height="50" fill="#dea584"/>
<rect x="694.1497995502102" y="40" width="45.604771682800425" height="50" fill="#083fa1"/>
<rect x="739.7545712330107" y="40" width="31.680844822528602" height="50" fill="#3572A5"/>
<rect x="771.4354160555392" y="40" width="25.34467585802288" height="50" fill="#A97BFF"/>
<rect x="796.7800919135622" y="40" width="8.135328053192529" height="50" fill="#41b883"/>
<rect x="804.9154199667547" y="40" width="2.5814021707245525" height="50" fill="#3178c6"/>
<rect x="807.4968221374793" y="40" width="1.5644861640754866" height="50" fill="#000000"/>
<rect x="809.0613083015547" y="40" width="0.9386916984452918" height="50" fill="#000080"/>
<circle cx="16" cy="116" r="6" fill="None" />
<text x="27" y="120" font-size="15" font-family="sans-serif" fill="#FFF">Lean (3.8k lines, 36.7%)</text>
<circle cx="266" cy="116" r="6" fill="#00B4AB" />
<text x="277" y="120" font-size="15" font-family="sans-serif" fill="#FFF">Dart (2.6k lines, 25.5%)</text>
<circle cx="516" cy="116" r="6" fill="#dea584" />
<text x="527" y="120" font-size="15" font-family="sans-serif" fill="#FFF">Rust (2.4k lines, 23.4%)</text>
<circle cx="16" cy="136" r="6" fill="#083fa1" />
<text x="27" y="140" font-size="15" font-family="sans-serif" fill="#FFF">Markdown (583 lines, 5.7%)</text>
<circle cx="266" cy="136" r="6" fill="#3572A5" />
<text x="277" y="140" font-size="15" font-family="sans-serif" fill="#FFF">Python (405 lines, 4.0%)</text>
<circle cx="516" cy="136" r="6" fill="#A97BFF" />
<text x="527" y="140" font-size="15" font-family="sans-serif" fill="#FFF">Kotlin (324 lines, 3.2%)</text>
<circle cx="16" cy="156" r="6" fill="#41b883" />
<text x="27" y="160" font-size="15" font-family="sans-serif" fill="#FFF">Vue (104 lines, 1.0%)</text>
<circle cx="266" cy="156" r="6" fill="#3178c6" />
<text x="277" y="160" font-size="15" font-family="sans-serif" fill="#FFF">TypeScript (33 lines, 0.3%)</text>
<circle cx="516" cy="156" r="6" fill="#000000" />
<text x="527" y="160" font-size="15" font-family="sans-serif" fill="#FFF">Fish (20 lines, 0.2%)</text>
<circle cx="16" cy="176" r="6" fill="#000080" />
<text x="27" y="180" font-size="15" font-family="sans-serif" fill="#FFF">Lua (12 lines, 0.1%)</text>
</svg>