<svg width="800" height="190" xmlns="http://www.w3.org/2000/svg">
<rect width="800" height="190" fill="#212830"/>
<rect x="10" y="40" width="290.25389025389023" height="50" fill="#3572A5"/>
<rect x="300.25389025389023" y="40" width="275.1842751842752" height="50" fill="#dea584"/>
<rect x="575.4381654381655" y="40" width="190.33579033579034" height="50" fill="#083fa1"/>
<rect x="765.7739557739558" y="40" width="18.345618345618345" height="50" fill="#000000"/>
<rect x="784.1195741195742" y="40" width="9.172809172809172" height="50" fill="#89e051"/>
<rect x="793.2923832923833" y="40" width="7.534807534807535" height="50" fill="#3178c6"/>
<rect x="800.8271908271909" y="40" width="4.914004914004914" height="50" fill="#f1e05a"/>
<rect x="805.7411957411957" y="40" width="4.2588042588042585" height="50" fill="#41b883"/>
<circle cx="16" cy="116" r="6" fill="#3572A5" />
<text x="27" y="120" font-size="15" font-family="sans-serif" fill="#FFF">Python (886 lines, 36.3%)</text>
<circle cx="266" cy="116" r="6" fill="#dea584" />
<text x="277" y="120" font-size="15" font-family="sans-serif" fill="#FFF">Rust (840 lines, 34.4%)</text>
<circle cx="516" cy="116" r="6" fill="#083fa1" />
<text x="527" y="120" font-size="15" font-family="sans-serif" fill="#FFF">Markdown (581 lines, 23.8%)</text>
<circle cx="16" cy="136" r="6" fill="#000000" />
<text x="27" y="140" font-size="15" font-family="sans-serif" fill="#FFF">Fish (56 lines, 2.3%)</text>
<circle cx="266" cy="136" r="6" fill="#89e051" />
<text x="277" y="140" font-size="15" font-family="sans-serif" fill="#FFF">Shell (28 lines, 1.1%)</text>
<circle cx="516" cy="136" r="6" fill="#3178c6" />
<text x="527" y="140" font-size="15" font-family="sans-serif" fill="#FFF">TypeScript (23 lines, 0.9%)</text>
<circle cx="16" cy="156" r="6" fill="#f1e05a" />
<text x="27" y="160" font-size="15" font-family="sans-serif" fill="#FFF">JavaScript (15 lines, 0.6%)</text>
<circle cx="266" cy="156" r="6" fill="#41b883" />
<text x="277" y="160" font-size="15" font-family="sans-serif" fill="#FFF">Vue (13 lines, 0.5%)</text>
</svg>