<svg width="800" height="250" xmlns="http://www.w3.org/2000/svg">
<rect width="800" height="250" fill="#212830"/>
<rect x="10" y="40" width="380.23485948014246" height="50" fill="#000000"/>
<rect x="390.23485948014246" y="40" width="264.8898271539781" height="50" fill="None"/>
<rect x="655.1246866341205" y="40" width="101.83401504156224" height="50" fill="#00B4AB"/>
<rect x="756.9587016756827" y="40" width="18.39292782689009" height="50" fill="#083fa1"/>
<rect x="775.3516295025728" y="40" width="11.083256366275235" height="50" fill="#3572A5"/>
<rect x="786.434885868848" y="40" width="6.597176408497162" height="50" fill="#A97BFF"/>
<rect x="793.0320622773452" y="40" width="5.0930201873598095" height="50" fill="#239dad"/>
<rect x="798.125082464705" y="40" width="4.354136429608127" height="50" fill="#3D6117"/>
<rect x="802.4792188943131" y="40" width="2.7444253859348198" height="50" fill="#41b883"/>
<rect x="805.223644280248" y="40" width="2.0583190394511153" height="50" fill="#74283c"/>
<rect x="807.2819633196991" y="40" width="0.9236046971896027" height="50" fill="#000000"/>
<rect x="808.2055680168887" y="40" width="0.8708272859216255" height="50" fill="#3178c6"/>
<rect x="809.0763953028104" y="40" width="0.4222192901438184" height="50" fill="#89e051"/>
<rect x="809.4986145929543" y="40" width="0.23749835070589786" height="50" fill="#000080"/>
<rect x="809.7361129436601" y="40" width="0.15833223380393194" height="50" fill="#000000"/>
<rect x="809.894445177464" y="40" width="0.1055548225359546" height="50" fill="#dea584"/>
<circle cx="16" cy="116" r="6" fill="#000000" />
<text x="27" y="120" font-size="15" font-family="sans-serif" fill="#FFF">Jupyter Not… (14.4k lines, 47.5%)</text>
<circle cx="266" cy="116" r="6" fill="None" />
<text x="277" y="120" font-size="15" font-family="sans-serif" fill="#FFF">Lean (10.0k lines, 33.1%)</text>
<circle cx="516" cy="116" r="6" fill="#00B4AB" />
<text x="527" y="120" font-size="15" font-family="sans-serif" fill="#FFF">Dart (3.9k lines, 12.7%)</text>
<circle cx="16" cy="136" r="6" fill="#083fa1" />
<text x="27" y="140" font-size="15" font-family="sans-serif" fill="#FFF">Markdown (697 lines, 2.3%)</text>
<circle cx="266" cy="136" r="6" fill="#3572A5" />
<text x="277" y="140" font-size="15" font-family="sans-serif" fill="#FFF">Python (420 lines, 1.4%)</text>
<circle cx="516" cy="136" r="6" fill="#A97BFF" />
<text x="527" y="140" font-size="15" font-family="sans-serif" fill="#FFF">Kotlin (250 lines, 0.8%)</text>
<circle cx="16" cy="156" r="6" fill="#239dad" />
<text x="27" y="160" font-size="15" font-family="sans-serif" fill="#FFF">Typst (193 lines, 0.6%)</text>
<circle cx="266" cy="156" r="6" fill="#3D6117" />
<text x="277" y="160" font-size="15" font-family="sans-serif" fill="#FFF">TeX (165 lines, 0.5%)</text>
<circle cx="516" cy="156" r="6" fill="#41b883" />
<text x="527" y="160" font-size="15" font-family="sans-serif" fill="#FFF">Vue (104 lines, 0.3%)</text>
<circle cx="16" cy="176" r="6" fill="#74283c" />
<text x="27" y="180" font-size="15" font-family="sans-serif" fill="#FFF">Prolog (78 lines, 0.3%)</text>
<circle cx="266" cy="176" r="6" fill="#000000" />
<text x="277" y="180" font-size="15" font-family="sans-serif" fill="#FFF">Batch (35 lines, 0.1%)</text>
<circle cx="516" cy="176" r="6" fill="#3178c6" />
<text x="527" y="180" font-size="15" font-family="sans-serif" fill="#FFF">TypeScript (33 lines, 0.1%)</text>
<circle cx="16" cy="196" r="6" fill="#89e051" />
<text x="27" y="200" font-size="15" font-family="sans-serif" fill="#FFF">Shell (16 lines, 0.1%)</text>
<circle cx="266" cy="196" r="6" fill="#000080" />
<text x="277" y="200" font-size="15" font-family="sans-serif" fill="#FFF">Lua (9 lines, 0.0%)</text>
<circle cx="516" cy="196" r="6" fill="#000000" />
<text x="527" y="200" font-size="15" font-family="sans-serif" fill="#FFF">Fish (6 lines, 0.0%)</text>
<circle cx="16" cy="216" r="6" fill="#dea584" />
<text x="27" y="220" font-size="15" font-family="sans-serif" fill="#FFF">Rust (4 lines, 0.0%)</text>
</svg>