<svg width="800" height="190" xmlns="http://www.w3.org/2000/svg">
<rect width="800" height="190" fill="#212830"/>
<rect x="10" y="40" width="312.1854958066108" height="50" fill="#3572A5"/>
<rect x="322.1854958066108" y="40" width="207.59743463246178" height="50" fill="#41b883"/>
<rect x="529.7829304390725" y="40" width="158.00032889327414" height="50" fill="None"/>
<rect x="687.7832593323467" y="40" width="65.7786548265088" height="50" fill="#239dad"/>
<rect x="753.5619141588555" y="40" width="30.389738529847065" height="50" fill="#3178c6"/>
<rect x="783.9516526887026" y="40" width="16.57622101628022" height="50" fill="#dea584"/>
<rect x="800.5278737049828" y="40" width="4.736063147508633" height="50" fill="#f1e05a"/>
<rect x="805.2639368524914" y="40" width="3.8151619799375105" height="50" fill="#89e051"/>
<rect x="809.0790988324289" y="40" width="0.9209011675711232" height="50" fill="#ec915c"/>
<circle cx="16" cy="116" r="6" fill="#3572A5" />
<text x="27" y="120" font-size="15" font-family="sans-serif" fill="#FFF">Python (2.4k lines, 39.0%)</text>
<circle cx="266" cy="116" r="6" fill="#41b883" />
<text x="277" y="120" font-size="15" font-family="sans-serif" fill="#FFF">Vue (1.6k lines, 25.9%)</text>
<circle cx="516" cy="116" r="6" fill="None" />
<text x="527" y="120" font-size="15" font-family="sans-serif" fill="#FFF">Lean (1.2k lines, 19.8%)</text>
<circle cx="16" cy="136" r="6" fill="#239dad" />
<text x="27" y="140" font-size="15" font-family="sans-serif" fill="#FFF">Typst (500 lines, 8.2%)</text>
<circle cx="266" cy="136" r="6" fill="#3178c6" />
<text x="277" y="140" font-size="15" font-family="sans-serif" fill="#FFF">TypeScript (231 lines, 3.8%)</text>
<circle cx="516" cy="136" r="6" fill="#dea584" />
<text x="527" y="140" font-size="15" font-family="sans-serif" fill="#FFF">Rust (126 lines, 2.1%)</text>
<circle cx="16" cy="156" r="6" fill="#f1e05a" />
<text x="27" y="160" font-size="15" font-family="sans-serif" fill="#FFF">JavaScript (36 lines, 0.6%)</text>
<circle cx="266" cy="156" r="6" fill="#89e051" />
<text x="277" y="160" font-size="15" font-family="sans-serif" fill="#FFF">Shell (29 lines, 0.5%)</text>
<circle cx="516" cy="156" r="6" fill="#ec915c" />
<text x="527" y="160" font-size="15" font-family="sans-serif" fill="#FFF">Zig (7 lines, 0.1%)</text>
</svg>