<svg width="800" height="190" xmlns="http://www.w3.org/2000/svg">
<rect width="800" height="190" fill="#212830"/>
<rect x="10" y="40" width="494.56611814845496" height="50" fill="#c22d40"/>
<rect x="504.56611814845496" y="40" width="83.91144785130815" height="50" fill="#3572A5"/>
<rect x="588.4775659997631" y="40" width="79.5548715520303" height="50" fill="#dea584"/>
<rect x="668.0324375517935" y="40" width="53.131289215105966" height="50" fill="#083fa1"/>
<rect x="721.1637267668995" y="40" width="52.8471646738487" height="50" fill="#663399"/>
<rect x="774.0108914407482" y="40" width="28.223037764886943" height="50" fill="#89e051"/>
<rect x="802.2339292056351" y="40" width="7.67136261394578" height="50" fill="#f1e05a"/>
<rect x="809.905291819581" y="40" width="0.0947081804190837" height="50" fill="#3178c6"/>
<circle cx="16" cy="116" r="6" fill="#c22d40" />
<text x="27" y="120" font-size="15" font-family="sans-serif" fill="#FFF">Scala (5.2k lines, 61.8%)</text>
<circle cx="266" cy="116" r="6" fill="#3572A5" />
<text x="277" y="120" font-size="15" font-family="sans-serif" fill="#FFF">Python (886 lines, 10.5%)</text>
<circle cx="516" cy="116" r="6" fill="#dea584" />
<text x="527" y="120" font-size="15" font-family="sans-serif" fill="#FFF">Rust (840 lines, 9.9%)</text>
<circle cx="16" cy="136" r="6" fill="#083fa1" />
<text x="27" y="140" font-size="15" font-family="sans-serif" fill="#FFF">Markdown (561 lines, 6.6%)</text>
<circle cx="266" cy="136" r="6" fill="#663399" />
<text x="277" y="140" font-size="15" font-family="sans-serif" fill="#FFF">CSS (558 lines, 6.6%)</text>
<circle cx="516" cy="136" r="6" fill="#89e051" />
<text x="527" y="140" font-size="15" font-family="sans-serif" fill="#FFF">Shell (298 lines, 3.5%)</text>
<circle cx="16" cy="156" r="6" fill="#f1e05a" />
<text x="27" y="160" font-size="15" font-family="sans-serif" fill="#FFF">JavaScript (81 lines, 1.0%)</text>
<circle cx="266" cy="156" r="6" fill="#3178c6" />
<text x="277" y="160" font-size="15" font-family="sans-serif" fill="#FFF">TypeScript (1 lines, 0.0%)</text>
</svg>