<svg width="800" height="190" xmlns="http://www.w3.org/2000/svg">
<rect width="800" height="190" fill="#212830"/>
<rect x="10" y="40" width="402.1975077046764" height="50" fill="None"/>
<rect x="412.1975077046764" y="40" width="279.0298807450087" height="50" fill="#00B4AB"/>
<rect x="691.2273884496851" y="40" width="51.88262092992094" height="50" fill="#083fa1"/>
<rect x="743.110009379606" y="40" width="34.73134128366608" height="50" fill="#A97BFF"/>
<rect x="777.8413506632721" y="40" width="14.042610210371166" height="50" fill="#3572A5"/>
<rect x="791.8839608736433" y="40" width="11.148331770065658" height="50" fill="#41b883"/>
<rect x="803.032292643709" y="40" width="3.537451427040064" height="50" fill="#3178c6"/>
<rect x="806.569744070749" y="40" width="2.143909955781857" height="50" fill="#000000"/>
<rect x="808.7136540265309" y="40" width="1.2863459734691143" height="50" fill="#000080"/>
<circle cx="16" cy="116" r="6" fill="None" />
<text x="27" y="120" font-size="15" font-family="sans-serif" fill="#FFF">Lean (3.8k lines, 50.3%)</text>
<circle cx="266" cy="116" r="6" fill="#00B4AB" />
<text x="277" y="120" font-size="15" font-family="sans-serif" fill="#FFF">Dart (2.6k lines, 34.9%)</text>
<circle cx="516" cy="116" r="6" fill="#083fa1" />
<text x="527" y="120" font-size="15" font-family="sans-serif" fill="#FFF">Markdown (484 lines, 6.5%)</text>
<circle cx="16" cy="136" r="6" fill="#A97BFF" />
<text x="27" y="140" font-size="15" font-family="sans-serif" fill="#FFF">Kotlin (324 lines, 4.3%)</text>
<circle cx="266" cy="136" r="6" fill="#3572A5" />
<text x="277" y="140" font-size="15" font-family="sans-serif" fill="#FFF">Python (131 lines, 1.8%)</text>
<circle cx="516" cy="136" r="6" fill="#41b883" />
<text x="527" y="140" font-size="15" font-family="sans-serif" fill="#FFF">Vue (104 lines, 1.4%)</text>
<circle cx="16" cy="156" r="6" fill="#3178c6" />
<text x="27" y="160" font-size="15" font-family="sans-serif" fill="#FFF">TypeScript (33 lines, 0.4%)</text>
<circle cx="266" cy="156" r="6" fill="#000000" />
<text x="277" y="160" font-size="15" font-family="sans-serif" fill="#FFF">Fish (20 lines, 0.3%)</text>
<circle cx="516" cy="156" r="6" fill="#000080" />
<text x="527" y="160" font-size="15" font-family="sans-serif" fill="#FFF">Lua (12 lines, 0.2%)</text>
</svg>