<svg width="800" height="190" xmlns="http://www.w3.org/2000/svg">
<rect width="800" height="190" fill="#212830"/>
<rect x="10" y="40" width="390.9860622639052" height="50" fill="None"/>
<rect x="400.9860622639052" y="40" width="271.2517910642178" height="50" fill="#00B4AB"/>
<rect x="672.237853328123" y="40" width="51.165819981763704" height="50" fill="#083fa1"/>
<rect x="723.4036733098867" y="40" width="35.22209196300638" height="50" fill="#3572A5"/>
<rect x="758.6257652728931" y="40" width="33.76318874560375" height="50" fill="#A97BFF"/>
<rect x="792.3889540184969" y="40" width="10.837566757848117" height="50" fill="#41b883"/>
<rect x="803.226520776345" y="40" width="3.438843298163345" height="50" fill="#3178c6"/>
<rect x="806.6653640745083" y="40" width="2.08414745343233" height="50" fill="#000000"/>
<rect x="808.7495115279406" y="40" width="1.2504884720593983" height="50" fill="#000080"/>
<circle cx="16" cy="116" r="6" fill="None" />
<text x="27" y="120" font-size="15" font-family="sans-serif" fill="#FFF">Lean (3.8k lines, 48.9%)</text>
<circle cx="266" cy="116" r="6" fill="#00B4AB" />
<text x="277" y="120" font-size="15" font-family="sans-serif" fill="#FFF">Dart (2.6k lines, 33.9%)</text>
<circle cx="516" cy="116" r="6" fill="#083fa1" />
<text x="527" y="120" font-size="15" font-family="sans-serif" fill="#FFF">Markdown (491 lines, 6.4%)</text>
<circle cx="16" cy="136" r="6" fill="#3572A5" />
<text x="27" y="140" font-size="15" font-family="sans-serif" fill="#FFF">Python (338 lines, 4.4%)</text>
<circle cx="266" cy="136" r="6" fill="#A97BFF" />
<text x="277" y="140" font-size="15" font-family="sans-serif" fill="#FFF">Kotlin (324 lines, 4.2%)</text>
<circle cx="516" cy="136" r="6" fill="#41b883" />
<text x="527" y="140" font-size="15" font-family="sans-serif" fill="#FFF">Vue (104 lines, 1.4%)</text>
<circle cx="16" cy="156" r="6" fill="#3178c6" />
<text x="27" y="160" font-size="15" font-family="sans-serif" fill="#FFF">TypeScript (33 lines, 0.4%)</text>
<circle cx="266" cy="156" r="6" fill="#000000" />
<text x="277" y="160" font-size="15" font-family="sans-serif" fill="#FFF">Fish (20 lines, 0.3%)</text>
<circle cx="516" cy="156" r="6" fill="#000080" />
<text x="527" y="160" font-size="15" font-family="sans-serif" fill="#FFF">Lua (12 lines, 0.2%)</text>
</svg>