<svg width="800" height="270" xmlns="http://www.w3.org/2000/svg">
<rect width="800" height="270" fill="#212830"/>
<rect x="10" y="40" width="314.66808003180074" height="50" fill="None"/>
<rect x="324.66808003180074" y="40" width="299.93374850934146" height="50" fill="#00B4AB"/>
<rect x="624.6018285411421" y="40" width="54.90923545779779" height="50" fill="#239dad"/>
<rect x="679.5110639989399" y="40" width="26.07658672320127" height="50" fill="#083fa1"/>
<rect x="705.5876507221411" y="40" width="15.847356565522725" height="50" fill="#555555"/>
<rect x="721.4350072876639" y="40" width="15.423347025308068" height="50" fill="#3572A5"/>
<rect x="736.858354312972" y="40" width="15.21134225520074" height="50" fill="#dea584"/>
<rect x="752.0696965681727" y="40" width="10.229230157678549" height="50" fill="#A97BFF"/>
<rect x="762.2989267258513" y="40" width="10.01722538757122" height="50" fill="#89e051"/>
<rect x="772.3161521134225" y="40" width="7.473168146283291" height="50" fill="#199f4b"/>
<rect x="779.7893202597058" y="40" width="6.413144295746655" height="50" fill="#000080"/>
<rect x="786.2024645554525" y="40" width="5.512124022790513" height="50" fill="#41b883"/>
<rect x="791.714588578243" y="40" width="5.353120445210018" height="50" fill="#DA3434"/>
<rect x="797.0677090234531" y="40" width="4.823108519941699" height="50" fill="#000000"/>
<rect x="801.8908175433947" y="40" width="3.604081091824566" height="50" fill="#000000"/>
<rect x="805.4948986352193" y="40" width="2.491056048761097" height="50" fill="#000000"/>
<rect x="807.9859546839805" y="40" width="1.802040545912283" height="50" fill="#012456"/>
<rect x="809.7879952298928" y="40" width="0.15900357758049558" height="50" fill="#3178c6"/>
<rect x="809.9469988074733" y="40" width="0.05300119252683185" height="50" fill="#74283c"/>
<circle cx="16" cy="116" r="6" fill="None" />
<text x="27" y="120" font-size="15" font-family="sans-serif" fill="#FFF">Lean (5.9k lines, 39.3%)</text>
<circle cx="266" cy="116" r="6" fill="#00B4AB" />
<text x="277" y="120" font-size="15" font-family="sans-serif" fill="#FFF">Dart (5.7k lines, 37.5%)</text>
<circle cx="516" cy="116" r="6" fill="#239dad" />
<text x="527" y="120" font-size="15" font-family="sans-serif" fill="#FFF">Typst (1.0k lines, 6.9%)</text>
<circle cx="16" cy="136" r="6" fill="#083fa1" />
<text x="27" y="140" font-size="15" font-family="sans-serif" fill="#FFF">Markdown (492 lines, 3.3%)</text>
<circle cx="266" cy="136" r="6" fill="#555555" />
<text x="277" y="140" font-size="15" font-family="sans-serif" fill="#FFF">C (299 lines, 2.0%)</text>
<circle cx="516" cy="136" r="6" fill="#3572A5" />
<text x="527" y="140" font-size="15" font-family="sans-serif" fill="#FFF">Python (291 lines, 1.9%)</text>
<circle cx="16" cy="156" r="6" fill="#dea584" />
<text x="27" y="160" font-size="15" font-family="sans-serif" fill="#FFF">Rust (287 lines, 1.9%)</text>
<circle cx="266" cy="156" r="6" fill="#A97BFF" />
<text x="277" y="160" font-size="15" font-family="sans-serif" fill="#FFF">Kotlin (193 lines, 1.3%)</text>
<circle cx="516" cy="156" r="6" fill="#89e051" />
<text x="527" y="160" font-size="15" font-family="sans-serif" fill="#FFF">Shell (189 lines, 1.3%)</text>
<circle cx="16" cy="176" r="6" fill="#199f4b" />
<text x="27" y="180" font-size="15" font-family="sans-serif" fill="#FFF">Vim Script (141 lines, 0.9%)</text>
<circle cx="266" cy="176" r="6" fill="#000080" />
<text x="277" y="180" font-size="15" font-family="sans-serif" fill="#FFF">Lua (121 lines, 0.8%)</text>
<circle cx="516" cy="176" r="6" fill="#41b883" />
<text x="527" y="180" font-size="15" font-family="sans-serif" fill="#FFF">Vue (104 lines, 0.7%)</text>
<circle cx="16" cy="196" r="6" fill="#DA3434" />
<text x="27" y="200" font-size="15" font-family="sans-serif" fill="#FFF">CMake (101 lines, 0.7%)</text>
<circle cx="266" cy="196" r="6" fill="#000000" />
<text x="277" y="200" font-size="15" font-family="sans-serif" fill="#FFF">Batch (91 lines, 0.6%)</text>
<circle cx="516" cy="196" r="6" fill="#000000" />
<text x="527" y="200" font-size="15" font-family="sans-serif" fill="#FFF">C Header (68 lines, 0.5%)</text>
<circle cx="16" cy="216" r="6" fill="#000000" />
<text x="27" y="220" font-size="15" font-family="sans-serif" fill="#FFF">Fish (47 lines, 0.3%)</text>
<circle cx="266" cy="216" r="6" fill="#012456" />
<text x="277" y="220" font-size="15" font-family="sans-serif" fill="#FFF">PowerShell (34 lines, 0.2%)</text>
<circle cx="516" cy="216" r="6" fill="#3178c6" />
<text x="527" y="220" font-size="15" font-family="sans-serif" fill="#FFF">TypeScript (3 lines, 0.0%)</text>
<circle cx="16" cy="236" r="6" fill="#74283c" />
<text x="27" y="240" font-size="15" font-family="sans-serif" fill="#FFF">Prolog (1 lines, 0.0%)</text>
</svg>