<svg width="800" height="190" xmlns="http://www.w3.org/2000/svg">
<rect width="800" height="190" fill="#212830"/>
<rect x="10" y="40" width="398.1548435357188" height="50" fill="#3572A5"/>
<rect x="408.1548435357188" y="40" width="157.3868594938287" height="50" fill="#41b883"/>
<rect x="565.5417030295475" y="40" width="119.78556289739434" height="50" fill="None"/>
<rect x="685.3272659269419" y="40" width="49.869093629223286" height="50" fill="#239dad"/>
<rect x="735.1963595561651" y="40" width="44.582969704525624" height="50" fill="#dea584"/>
<rect x="779.7793292606907" y="40" width="23.03952125670116" height="50" fill="#3178c6"/>
<rect x="802.8188505173919" y="40" width="3.590574741304077" height="50" fill="#f1e05a"/>
<rect x="806.4094252586959" y="40" width="2.8924074304949503" height="50" fill="#89e051"/>
<rect x="809.3018326891909" y="40" width="0.6981673108091261" height="50" fill="#ec915c"/>
<circle cx="16" cy="116" r="6" fill="#3572A5" />
<text x="27" y="120" font-size="15" font-family="sans-serif" fill="#FFF">Python (4.0k lines, 49.8%)</text>
<circle cx="266" cy="116" r="6" fill="#41b883" />
<text x="277" y="120" font-size="15" font-family="sans-serif" fill="#FFF">Vue (1.6k lines, 19.7%)</text>
<circle cx="516" cy="116" r="6" fill="None" />
<text x="527" y="120" font-size="15" font-family="sans-serif" fill="#FFF">Lean (1.2k lines, 15.0%)</text>
<circle cx="16" cy="136" r="6" fill="#239dad" />
<text x="27" y="140" font-size="15" font-family="sans-serif" fill="#FFF">Typst (500 lines, 6.2%)</text>
<circle cx="266" cy="136" r="6" fill="#dea584" />
<text x="277" y="140" font-size="15" font-family="sans-serif" fill="#FFF">Rust (447 lines, 5.6%)</text>
<circle cx="516" cy="136" r="6" fill="#3178c6" />
<text x="527" y="140" font-size="15" font-family="sans-serif" fill="#FFF">TypeScript (231 lines, 2.9%)</text>
<circle cx="16" cy="156" r="6" fill="#f1e05a" />
<text x="27" y="160" font-size="15" font-family="sans-serif" fill="#FFF">JavaScript (36 lines, 0.4%)</text>
<circle cx="266" cy="156" r="6" fill="#89e051" />
<text x="277" y="160" font-size="15" font-family="sans-serif" fill="#FFF">Shell (29 lines, 0.4%)</text>
<circle cx="516" cy="156" r="6" fill="#ec915c" />
<text x="527" y="160" font-size="15" font-family="sans-serif" fill="#FFF">Zig (7 lines, 0.1%)</text>
</svg>