<svg width="800" height="190" xmlns="http://www.w3.org/2000/svg">
<rect width="800" height="190" fill="#212830"/>
<rect x="10" y="40" width="296.5323336457357" height="50" fill="#3572A5"/>
<rect x="306.5323336457357" y="40" width="197.18837863167764" height="50" fill="#41b883"/>
<rect x="503.7207122774133" y="40" width="150.0781005935645" height="50" fill="None"/>
<rect x="653.7988128709778" y="40" width="62.48047485160887" height="50" fill="#239dad"/>
<rect x="716.2792877225867" y="40" width="55.857544517338326" height="50" fill="#dea584"/>
<rect x="772.136832239925" y="40" width="28.865979381443296" height="50" fill="#3178c6"/>
<rect x="801.0028116213682" y="40" width="4.498594189315839" height="50" fill="#f1e05a"/>
<rect x="805.5014058106841" y="40" width="3.623867541393315" height="50" fill="#89e051"/>
<rect x="809.1252733520774" y="40" width="0.8747266479225243" height="50" fill="#ec915c"/>
<circle cx="16" cy="116" r="6" fill="#3572A5" />
<text x="27" y="120" font-size="15" font-family="sans-serif" fill="#FFF">Python (2.4k lines, 37.1%)</text>
<circle cx="266" cy="116" r="6" fill="#41b883" />
<text x="277" y="120" font-size="15" font-family="sans-serif" fill="#FFF">Vue (1.6k lines, 24.6%)</text>
<circle cx="516" cy="116" r="6" fill="None" />
<text x="527" y="120" font-size="15" font-family="sans-serif" fill="#FFF">Lean (1.2k lines, 18.8%)</text>
<circle cx="16" cy="136" r="6" fill="#239dad" />
<text x="27" y="140" font-size="15" font-family="sans-serif" fill="#FFF">Typst (500 lines, 7.8%)</text>
<circle cx="266" cy="136" r="6" fill="#dea584" />
<text x="277" y="140" font-size="15" font-family="sans-serif" fill="#FFF">Rust (447 lines, 7.0%)</text>
<circle cx="516" cy="136" r="6" fill="#3178c6" />
<text x="527" y="140" font-size="15" font-family="sans-serif" fill="#FFF">TypeScript (231 lines, 3.6%)</text>
<circle cx="16" cy="156" r="6" fill="#f1e05a" />
<text x="27" y="160" font-size="15" font-family="sans-serif" fill="#FFF">JavaScript (36 lines, 0.6%)</text>
<circle cx="266" cy="156" r="6" fill="#89e051" />
<text x="277" y="160" font-size="15" font-family="sans-serif" fill="#FFF">Shell (29 lines, 0.5%)</text>
<circle cx="516" cy="156" r="6" fill="#ec915c" />
<text x="527" y="160" font-size="15" font-family="sans-serif" fill="#FFF">Zig (7 lines, 0.1%)</text>
</svg>