<svg width="800" height="250" xmlns="http://www.w3.org/2000/svg">
<rect width="800" height="250" fill="#212830"/>
<rect x="10" y="40" width="334.8141631845172" height="50" fill="None"/>
<rect x="344.8141631845172" y="40" width="331.8818268455392" height="50" fill="#00B4AB"/>
<rect x="676.6959900300565" y="40" width="28.61960266842607" height="50" fill="#083fa1"/>
<rect x="705.3155926984825" y="40" width="17.535371307088923" height="50" fill="#555555"/>
<rect x="722.8509640055714" y="40" width="16.831610585734182" height="50" fill="#dea584"/>
<rect x="739.6825745913056" y="40" width="13.37145370574005" height="50" fill="#239dad"/>
<rect x="753.0540282970456" y="40" width="11.318818268455392" height="50" fill="#A97BFF"/>
<rect x="764.372846565501" y="40" width="11.084231361337144" height="50" fill="#89e051"/>
<rect x="775.4570779268382" y="40" width="9.969943552525475" height="50" fill="#3572A5"/>
<rect x="785.4270214793637" y="40" width="6.099259585074409" height="50" fill="#41b883"/>
<rect x="791.5262810644381" y="40" width="5.923319404735723" height="50" fill="#DA3434"/>
<rect x="797.4496004691738" y="40" width="5.336852136940107" height="50" fill="#000000"/>
<rect x="802.7864526061139" y="40" width="3.98797742101019" height="50" fill="#000000"/>
<rect x="806.7744300271241" y="40" width="1.993988710505095" height="50" fill="#012456"/>
<rect x="808.7684187376292" y="40" width="0.8210541749138627" height="50" fill="#000000"/>
<rect x="809.5894729125431" y="40" width="0.17594018033868483" height="50" fill="#000080"/>
<rect x="809.7654130928818" y="40" width="0.17594018033868483" height="50" fill="#3178c6"/>
<rect x="809.9413532732204" y="40" width="0.05864672677956161" height="50" fill="#74283c"/>
<circle cx="16" cy="116" r="6" fill="None" />
<text x="27" y="120" font-size="15" font-family="sans-serif" fill="#FFF">Lean (5.7k lines, 41.9%)</text>
<circle cx="266" cy="116" r="6" fill="#00B4AB" />
<text x="277" y="120" font-size="15" font-family="sans-serif" fill="#FFF">Dart (5.7k lines, 41.5%)</text>
<circle cx="516" cy="116" r="6" fill="#083fa1" />
<text x="527" y="120" font-size="15" font-family="sans-serif" fill="#FFF">Markdown (488 lines, 3.6%)</text>
<circle cx="16" cy="136" r="6" fill="#555555" />
<text x="27" y="140" font-size="15" font-family="sans-serif" fill="#FFF">C (299 lines, 2.2%)</text>
<circle cx="266" cy="136" r="6" fill="#dea584" />
<text x="277" y="140" font-size="15" font-family="sans-serif" fill="#FFF">Rust (287 lines, 2.1%)</text>
<circle cx="516" cy="136" r="6" fill="#239dad" />
<text x="527" y="140" font-size="15" font-family="sans-serif" fill="#FFF">Typst (228 lines, 1.7%)</text>
<circle cx="16" cy="156" r="6" fill="#A97BFF" />
<text x="27" y="160" font-size="15" font-family="sans-serif" fill="#FFF">Kotlin (193 lines, 1.4%)</text>
<circle cx="266" cy="156" r="6" fill="#89e051" />
<text x="277" y="160" font-size="15" font-family="sans-serif" fill="#FFF">Shell (189 lines, 1.4%)</text>
<circle cx="516" cy="156" r="6" fill="#3572A5" />
<text x="527" y="160" font-size="15" font-family="sans-serif" fill="#FFF">Python (170 lines, 1.2%)</text>
<circle cx="16" cy="176" r="6" fill="#41b883" />
<text x="27" y="180" font-size="15" font-family="sans-serif" fill="#FFF">Vue (104 lines, 0.8%)</text>
<circle cx="266" cy="176" r="6" fill="#DA3434" />
<text x="277" y="180" font-size="15" font-family="sans-serif" fill="#FFF">CMake (101 lines, 0.7%)</text>
<circle cx="516" cy="176" r="6" fill="#000000" />
<text x="527" y="180" font-size="15" font-family="sans-serif" fill="#FFF">Batch (91 lines, 0.7%)</text>
<circle cx="16" cy="196" r="6" fill="#000000" />
<text x="27" y="200" font-size="15" font-family="sans-serif" fill="#FFF">C Header (68 lines, 0.5%)</text>
<circle cx="266" cy="196" r="6" fill="#012456" />
<text x="277" y="200" font-size="15" font-family="sans-serif" fill="#FFF">PowerShell (34 lines, 0.2%)</text>
<circle cx="516" cy="196" r="6" fill="#000000" />
<text x="527" y="200" font-size="15" font-family="sans-serif" fill="#FFF">Fish (14 lines, 0.1%)</text>
<circle cx="16" cy="216" r="6" fill="#000080" />
<text x="27" y="220" font-size="15" font-family="sans-serif" fill="#FFF">Lua (3 lines, 0.0%)</text>
<circle cx="266" cy="216" r="6" fill="#3178c6" />
<text x="277" y="220" font-size="15" font-family="sans-serif" fill="#FFF">TypeScript (3 lines, 0.0%)</text>
<circle cx="516" cy="216" r="6" fill="#74283c" />
<text x="527" y="220" font-size="15" font-family="sans-serif" fill="#FFF">Prolog (1 lines, 0.0%)</text>
</svg>