<svg width="800" height="190" xmlns="http://www.w3.org/2000/svg">
<rect width="800" height="190" fill="#212830"/>
<rect x="10" y="40" width="297.06621961441743" height="50" fill="#3572A5"/>
<rect x="307.06621961441743" y="40" width="281.64291701592623" height="50" fill="#dea584"/>
<rect x="588.7091366303437" y="40" width="194.8030176026823" height="50" fill="#083fa1"/>
<rect x="783.512154233026" y="40" width="9.388097233864208" height="50" fill="#89e051"/>
<rect x="792.9002514668902" y="40" width="7.711651299245599" height="50" fill="#3178c6"/>
<rect x="800.6119027661357" y="40" width="5.029337803855825" height="50" fill="#f1e05a"/>
<rect x="805.6412405699915" y="40" width="4.358759430008382" height="50" fill="#41b883"/>
<circle cx="16" cy="116" r="6" fill="#3572A5" />
<text x="27" y="120" font-size="15" font-family="sans-serif" fill="#FFF">Python (886 lines, 37.1%)</text>
<circle cx="266" cy="116" r="6" fill="#dea584" />
<text x="277" y="120" font-size="15" font-family="sans-serif" fill="#FFF">Rust (840 lines, 35.2%)</text>
<circle cx="516" cy="116" r="6" fill="#083fa1" />
<text x="527" y="120" font-size="15" font-family="sans-serif" fill="#FFF">Markdown (581 lines, 24.4%)</text>
<circle cx="16" cy="136" r="6" fill="#89e051" />
<text x="27" y="140" font-size="15" font-family="sans-serif" fill="#FFF">Shell (28 lines, 1.2%)</text>
<circle cx="266" cy="136" r="6" fill="#3178c6" />
<text x="277" y="140" font-size="15" font-family="sans-serif" fill="#FFF">TypeScript (23 lines, 1.0%)</text>
<circle cx="516" cy="136" r="6" fill="#f1e05a" />
<text x="527" y="140" font-size="15" font-family="sans-serif" fill="#FFF">JavaScript (15 lines, 0.6%)</text>
<circle cx="16" cy="156" r="6" fill="#41b883" />
<text x="27" y="160" font-size="15" font-family="sans-serif" fill="#FFF">Vue (13 lines, 0.5%)</text>
</svg>