<svg width="800" height="230" xmlns="http://www.w3.org/2000/svg">
<rect width="800" height="230" fill="#212830"/>
<rect x="10" y="40" width="267.08063021316036" height="50" fill="#000000"/>
<rect x="277.08063021316036" y="40" width="224.83781278962" height="50" fill="None"/>
<rect x="501.91844300278035" y="40" width="141.77942539388323" height="50" fill="#00B4AB"/>
<rect x="643.6978683966636" y="40" width="71.28822984244671" height="50" fill="#3572A5"/>
<rect x="714.9860982391103" y="40" width="57.108433734939766" height="50" fill="#083fa1"/>
<rect x="772.0945319740501" y="40" width="21.204819277108435" height="50" fill="#239dad"/>
<rect x="793.2993512511586" y="40" width="8.378127896200185" height="50" fill="#f34b7d"/>
<rect x="801.6774791473588" y="40" width="3.0583873957367933" height="50" fill="#3D6117"/>
<rect x="804.7358665430955" y="40" width="1.464318813716404" height="50" fill="#000000"/>
<rect x="806.200185356812" y="40" width="1.4457831325301205" height="50" fill="#74283c"/>
<rect x="807.6459684893421" y="40" width="0.7784986098239111" height="50" fill="#5e5086"/>
<rect x="808.424467099166" y="40" width="0.6487488415199258" height="50" fill="#000000"/>
<rect x="809.0732159406859" y="40" width="0.5560704355885079" height="50" fill="#A97BFF"/>
<rect x="809.6292863762744" y="40" width="0.2965708989805375" height="50" fill="#89e051"/>
<rect x="809.925857275255" y="40" width="0.07414272474513438" height="50" fill="#dea584"/>
<circle cx="16" cy="116" r="6" fill="#000000" />
<text x="27" y="120" font-size="15" font-family="sans-serif" fill="#FFF">Jupyter Not… (14.4k lines, 33.4%)</text>
<circle cx="266" cy="116" r="6" fill="None" />
<text x="277" y="120" font-size="15" font-family="sans-serif" fill="#FFF">Lean (12.1k lines, 28.1%)</text>
<circle cx="516" cy="116" r="6" fill="#00B4AB" />
<text x="527" y="120" font-size="15" font-family="sans-serif" fill="#FFF">Dart (7.6k lines, 17.7%)</text>
<circle cx="16" cy="136" r="6" fill="#3572A5" />
<text x="27" y="140" font-size="15" font-family="sans-serif" fill="#FFF">Python (3.8k lines, 8.9%)</text>
<circle cx="266" cy="136" r="6" fill="#083fa1" />
<text x="277" y="140" font-size="15" font-family="sans-serif" fill="#FFF">Markdown (3.1k lines, 7.1%)</text>
<circle cx="516" cy="136" r="6" fill="#239dad" />
<text x="527" y="140" font-size="15" font-family="sans-serif" fill="#FFF">Typst (1.1k lines, 2.7%)</text>
<circle cx="16" cy="156" r="6" fill="#f34b7d" />
<text x="27" y="160" font-size="15" font-family="sans-serif" fill="#FFF">C++ (452 lines, 1.0%)</text>
<circle cx="266" cy="156" r="6" fill="#3D6117" />
<text x="277" y="160" font-size="15" font-family="sans-serif" fill="#FFF">TeX (165 lines, 0.4%)</text>
<circle cx="516" cy="156" r="6" fill="#000000" />
<text x="527" y="160" font-size="15" font-family="sans-serif" fill="#FFF">C++ Header (79 lines, 0.2%)</text>
<circle cx="16" cy="176" r="6" fill="#74283c" />
<text x="27" y="180" font-size="15" font-family="sans-serif" fill="#FFF">Prolog (78 lines, 0.2%)</text>
<circle cx="266" cy="176" r="6" fill="#5e5086" />
<text x="277" y="180" font-size="15" font-family="sans-serif" fill="#FFF">Haskell (42 lines, 0.1%)</text>
<circle cx="516" cy="176" r="6" fill="#000000" />
<text x="527" y="180" font-size="15" font-family="sans-serif" fill="#FFF">Batch (35 lines, 0.1%)</text>
<circle cx="16" cy="196" r="6" fill="#A97BFF" />
<text x="27" y="200" font-size="15" font-family="sans-serif" fill="#FFF">Kotlin (30 lines, 0.1%)</text>
<circle cx="266" cy="196" r="6" fill="#89e051" />
<text x="277" y="200" font-size="15" font-family="sans-serif" fill="#FFF">Shell (16 lines, 0.0%)</text>
<circle cx="516" cy="196" r="6" fill="#dea584" />
<text x="527" y="200" font-size="15" font-family="sans-serif" fill="#FFF">Rust (4 lines, 0.0%)</text>
</svg>