<svg width="800" height="270" xmlns="http://www.w3.org/2000/svg">
<rect width="800" height="270" fill="#212830"/>
<rect x="10" y="40" width="304.8523748395379" height="50" fill="None"/>
<rect x="314.8523748395379" y="40" width="290.57766367137356" height="50" fill="#00B4AB"/>
<rect x="605.4300385109115" y="40" width="57.04749679075738" height="50" fill="#239dad"/>
<rect x="662.4775353016688" y="40" width="33.1193838254172" height="50" fill="#3572A5"/>
<rect x="695.596919127086" y="40" width="25.67394094993581" height="50" fill="#083fa1"/>
<rect x="721.2708600770219" y="40" width="15.353016688061619" height="50" fill="#555555"/>
<rect x="736.6238767650835" y="40" width="14.736842105263156" height="50" fill="#dea584"/>
<rect x="751.3607188703467" y="40" width="9.910141206675224" height="50" fill="#A97BFF"/>
<rect x="761.2708600770219" y="40" width="9.70474967907574" height="50" fill="#89e051"/>
<rect x="770.9756097560976" y="40" width="7.2400513478818995" height="50" fill="#199f4b"/>
<rect x="778.2156611039795" y="40" width="6.213093709884467" height="50" fill="#000080"/>
<rect x="784.428754813864" y="40" width="5.34017971758665" height="50" fill="#41b883"/>
<rect x="789.7689345314507" y="40" width="5.186136071887034" height="50" fill="#DA3434"/>
<rect x="794.9550706033377" y="40" width="4.929396662387677" height="50" fill="#000000"/>
<rect x="799.8844672657254" y="40" width="4.672657252888318" height="50" fill="#000000"/>
<rect x="804.5571245186138" y="40" width="3.491655969191271" height="50" fill="#000000"/>
<rect x="808.0487804878051" y="40" width="1.7458279845956355" height="50" fill="#012456"/>
<rect x="809.7946084724007" y="40" width="0.1540436456996149" height="50" fill="#3178c6"/>
<rect x="809.9486521181003" y="40" width="0.051347881899871634" height="50" fill="#74283c"/>
<circle cx="16" cy="116" r="6" fill="None" />
<text x="27" y="120" font-size="15" font-family="sans-serif" fill="#FFF">Lean (5.9k lines, 38.1%)</text>
<circle cx="266" cy="116" r="6" fill="#00B4AB" />
<text x="277" y="120" font-size="15" font-family="sans-serif" fill="#FFF">Dart (5.7k lines, 36.3%)</text>
<circle cx="516" cy="116" r="6" fill="#239dad" />
<text x="527" y="120" font-size="15" font-family="sans-serif" fill="#FFF">Typst (1.1k lines, 7.1%)</text>
<circle cx="16" cy="136" r="6" fill="#3572A5" />
<text x="27" y="140" font-size="15" font-family="sans-serif" fill="#FFF">Python (645 lines, 4.1%)</text>
<circle cx="266" cy="136" r="6" fill="#083fa1" />
<text x="277" y="140" font-size="15" font-family="sans-serif" fill="#FFF">Markdown (500 lines, 3.2%)</text>
<circle cx="516" cy="136" r="6" fill="#555555" />
<text x="527" y="140" font-size="15" font-family="sans-serif" fill="#FFF">C (299 lines, 1.9%)</text>
<circle cx="16" cy="156" r="6" fill="#dea584" />
<text x="27" y="160" font-size="15" font-family="sans-serif" fill="#FFF">Rust (287 lines, 1.8%)</text>
<circle cx="266" cy="156" r="6" fill="#A97BFF" />
<text x="277" y="160" font-size="15" font-family="sans-serif" fill="#FFF">Kotlin (193 lines, 1.2%)</text>
<circle cx="516" cy="156" r="6" fill="#89e051" />
<text x="527" y="160" font-size="15" font-family="sans-serif" fill="#FFF">Shell (189 lines, 1.2%)</text>
<circle cx="16" cy="176" r="6" fill="#199f4b" />
<text x="27" y="180" font-size="15" font-family="sans-serif" fill="#FFF">Vim Script (141 lines, 0.9%)</text>
<circle cx="266" cy="176" r="6" fill="#000080" />
<text x="277" y="180" font-size="15" font-family="sans-serif" fill="#FFF">Lua (121 lines, 0.8%)</text>
<circle cx="516" cy="176" r="6" fill="#41b883" />
<text x="527" y="180" font-size="15" font-family="sans-serif" fill="#FFF">Vue (104 lines, 0.7%)</text>
<circle cx="16" cy="196" r="6" fill="#DA3434" />
<text x="27" y="200" font-size="15" font-family="sans-serif" fill="#FFF">CMake (101 lines, 0.6%)</text>
<circle cx="266" cy="196" r="6" fill="#000000" />
<text x="277" y="200" font-size="15" font-family="sans-serif" fill="#FFF">Fish (96 lines, 0.6%)</text>
<circle cx="516" cy="196" r="6" fill="#000000" />
<text x="527" y="200" font-size="15" font-family="sans-serif" fill="#FFF">Batch (91 lines, 0.6%)</text>
<circle cx="16" cy="216" r="6" fill="#000000" />
<text x="27" y="220" font-size="15" font-family="sans-serif" fill="#FFF">C Header (68 lines, 0.4%)</text>
<circle cx="266" cy="216" r="6" fill="#012456" />
<text x="277" y="220" font-size="15" font-family="sans-serif" fill="#FFF">PowerShell (34 lines, 0.2%)</text>
<circle cx="516" cy="216" r="6" fill="#3178c6" />
<text x="527" y="220" font-size="15" font-family="sans-serif" fill="#FFF">TypeScript (3 lines, 0.0%)</text>
<circle cx="16" cy="236" r="6" fill="#74283c" />
<text x="27" y="240" font-size="15" font-family="sans-serif" fill="#FFF">Prolog (1 lines, 0.0%)</text>
</svg>