<svg width="800" height="230" xmlns="http://www.w3.org/2000/svg">
<rect width="800" height="230" fill="#212830"/>
<rect x="10" y="40" width="231.80000878696012" height="50" fill="#00B4AB"/>
<rect x="241.80000878696012" y="40" width="183.54202363692283" height="50" fill="#c22d40"/>
<rect x="425.342032423883" y="40" width="121.47093712930013" height="50" fill="#3572A5"/>
<rect x="546.8129695531832" y="40" width="104.0024603488423" height="50" fill="#083fa1"/>
<rect x="650.8154299020255" y="40" width="73.52928254470366" height="50" fill="None"/>
<rect x="724.3447124467291" y="40" width="33.42559641492026" height="50" fill="#239dad"/>
<rect x="757.7703088616494" y="40" width="19.612495057334915" height="50" fill="#663399"/>
<rect x="777.3828039189843" y="40" width="15.886823953253373" height="50" fill="#f34b7d"/>
<rect x="793.2696278722377" y="40" width="9.946838891085628" height="50" fill="#89e051"/>
<rect x="803.2164667633233" y="40" width="2.776679407758886" height="50" fill="#000000"/>
<rect x="805.9931461710822" y="40" width="2.319757479899829" height="50" fill="#f1e05a"/>
<rect x="808.3129036509821" y="40" width="1.4762093053908" height="50" fill="#5e5086"/>
<rect x="809.789112956373" y="40" width="0.17573920302271429" height="50" fill="#A97BFF"/>
<rect x="809.9648521593956" y="40" width="0.03514784060454286" height="50" fill="#3178c6"/>
<rect x="810.0000000000001" y="40" width="0.0" height="50" fill="#3D6117"/>
<circle cx="16" cy="116" r="6" fill="#00B4AB" />
<text x="27" y="120" font-size="15" font-family="sans-serif" fill="#FFF">Dart (6.6k lines, 29.0%)</text>
<circle cx="266" cy="116" r="6" fill="#c22d40" />
<text x="277" y="120" font-size="15" font-family="sans-serif" fill="#FFF">Scala (5.2k lines, 22.9%)</text>
<circle cx="516" cy="116" r="6" fill="#3572A5" />
<text x="527" y="120" font-size="15" font-family="sans-serif" fill="#FFF">Python (3.5k lines, 15.2%)</text>
<circle cx="16" cy="136" r="6" fill="#083fa1" />
<text x="27" y="140" font-size="15" font-family="sans-serif" fill="#FFF">Markdown (3.0k lines, 13.0%)</text>
<circle cx="266" cy="136" r="6" fill="None" />
<text x="277" y="140" font-size="15" font-family="sans-serif" fill="#FFF">Lean (2.1k lines, 9.2%)</text>
<circle cx="516" cy="136" r="6" fill="#239dad" />
<text x="527" y="140" font-size="15" font-family="sans-serif" fill="#FFF">Typst (951 lines, 4.2%)</text>
<circle cx="16" cy="156" r="6" fill="#663399" />
<text x="27" y="160" font-size="15" font-family="sans-serif" fill="#FFF">CSS (558 lines, 2.5%)</text>
<circle cx="266" cy="156" r="6" fill="#f34b7d" />
<text x="277" y="160" font-size="15" font-family="sans-serif" fill="#FFF">C++ (452 lines, 2.0%)</text>
<circle cx="516" cy="156" r="6" fill="#89e051" />
<text x="527" y="160" font-size="15" font-family="sans-serif" fill="#FFF">Shell (283 lines, 1.2%)</text>
<circle cx="16" cy="176" r="6" fill="#000000" />
<text x="27" y="180" font-size="15" font-family="sans-serif" fill="#FFF">C++ Header (79 lines, 0.3%)</text>
<circle cx="266" cy="176" r="6" fill="#f1e05a" />
<text x="277" y="180" font-size="15" font-family="sans-serif" fill="#FFF">JavaScript (66 lines, 0.3%)</text>
<circle cx="516" cy="176" r="6" fill="#5e5086" />
<text x="527" y="180" font-size="15" font-family="sans-serif" fill="#FFF">Haskell (42 lines, 0.2%)</text>
<circle cx="16" cy="196" r="6" fill="#A97BFF" />
<text x="27" y="200" font-size="15" font-family="sans-serif" fill="#FFF">Kotlin (5 lines, 0.0%)</text>
<circle cx="266" cy="196" r="6" fill="#3178c6" />
<text x="277" y="200" font-size="15" font-family="sans-serif" fill="#FFF">TypeScript (1 lines, 0.0%)</text>
<circle cx="516" cy="196" r="6" fill="#3D6117" />
<text x="527" y="200" font-size="15" font-family="sans-serif" fill="#FFF">TeX (0 lines, 0.0%)</text>
</svg>