<svg width="800" height="210" xmlns="http://www.w3.org/2000/svg">
<rect width="800" height="210" fill="#212830"/>
<rect x="10" y="40" width="428.91170431211503" height="50" fill="#c22d40"/>
<rect x="438.91170431211503" y="40" width="129.93839835728954" height="50" fill="#00B4AB"/>
<rect x="568.8501026694046" y="40" width="122.95687885010267" height="50" fill="#083fa1"/>
<rect x="691.8069815195072" y="40" width="45.831622176591374" height="50" fill="#663399"/>
<rect x="737.6386036960986" y="40" width="37.125256673511295" height="50" fill="#f34b7d"/>
<rect x="774.7638603696099" y="40" width="23.24435318275154" height="50" fill="#89e051"/>
<rect x="798.0082135523614" y="40" width="6.48870636550308" height="50" fill="#000000"/>
<rect x="804.4969199178645" y="40" width="5.420944558521561" height="50" fill="#f1e05a"/>
<rect x="809.9178644763861" y="40" width="0.08213552361396304" height="50" fill="#3178c6"/>
<rect x="810.0" y="40" width="0.0" height="50" fill="#3D6117"/>
<rect x="810.0" y="40" width="0.0" height="50" fill="None"/>
<rect x="810.0" y="40" width="0.0" height="50" fill="#239dad"/>
<circle cx="16" cy="116" r="6" fill="#c22d40" />
<text x="27" y="120" font-size="15" font-family="sans-serif" fill="#FFF">Scala (5.2k lines, 53.6%)</text>
<circle cx="266" cy="116" r="6" fill="#00B4AB" />
<text x="277" y="120" font-size="15" font-family="sans-serif" fill="#FFF">Dart (1.6k lines, 16.2%)</text>
<circle cx="516" cy="116" r="6" fill="#083fa1" />
<text x="527" y="120" font-size="15" font-family="sans-serif" fill="#FFF">Markdown (1.5k lines, 15.4%)</text>
<circle cx="16" cy="136" r="6" fill="#663399" />
<text x="27" y="140" font-size="15" font-family="sans-serif" fill="#FFF">CSS (558 lines, 5.7%)</text>
<circle cx="266" cy="136" r="6" fill="#f34b7d" />
<text x="277" y="140" font-size="15" font-family="sans-serif" fill="#FFF">C++ (452 lines, 4.6%)</text>
<circle cx="516" cy="136" r="6" fill="#89e051" />
<text x="527" y="140" font-size="15" font-family="sans-serif" fill="#FFF">Shell (283 lines, 2.9%)</text>
<circle cx="16" cy="156" r="6" fill="#000000" />
<text x="27" y="160" font-size="15" font-family="sans-serif" fill="#FFF">C++ Header (79 lines, 0.8%)</text>
<circle cx="266" cy="156" r="6" fill="#f1e05a" />
<text x="277" y="160" font-size="15" font-family="sans-serif" fill="#FFF">JavaScript (66 lines, 0.7%)</text>
<circle cx="516" cy="156" r="6" fill="#3178c6" />
<text x="527" y="160" font-size="15" font-family="sans-serif" fill="#FFF">TypeScript (1 lines, 0.0%)</text>
<circle cx="16" cy="176" r="6" fill="#3D6117" />
<text x="27" y="180" font-size="15" font-family="sans-serif" fill="#FFF">TeX (0 lines, 0.0%)</text>
<circle cx="266" cy="176" r="6" fill="None" />
<text x="277" y="180" font-size="15" font-family="sans-serif" fill="#FFF">Lean (0 lines, 0.0%)</text>
<circle cx="516" cy="176" r="6" fill="#239dad" />
<text x="527" y="180" font-size="15" font-family="sans-serif" fill="#FFF">Typst (0 lines, 0.0%)</text>
</svg>