<svg width="800" height="210" xmlns="http://www.w3.org/2000/svg">
<rect width="800" height="210" fill="#212830"/>
<rect x="10" y="40" width="607.0328392909038" height="50" fill="#c22d40"/>
<rect x="617.0328392909038" y="40" width="64.86486486486487" height="50" fill="#663399"/>
<rect x="681.8977041557687" y="40" width="42.08079046788723" height="50" fill="#dea584"/>
<rect x="723.9784946236559" y="40" width="32.89741354257483" height="50" fill="#89e051"/>
<rect x="756.8759081662307" y="40" width="32.432432432432435" height="50" fill="#3572A5"/>
<rect x="789.3083405986631" y="40" width="12.903225806451612" height="50" fill="#083fa1"/>
<rect x="802.2115664051147" y="40" width="7.672188317349607" height="50" fill="#f1e05a"/>
<rect x="809.8837547224643" y="40" width="0.11624527753560013" height="50" fill="#3178c6"/>
<rect x="810.0" y="40" width="0.0" height="50" fill="#3D6117"/>
<rect x="810.0" y="40" width="0.0" height="50" fill="None"/>
<rect x="810.0" y="40" width="0.0" height="50" fill="#239dad"/>
<circle cx="16" cy="116" r="6" fill="#c22d40" />
<text x="27" y="120" font-size="15" font-family="sans-serif" fill="#FFF">Scala (5.2k lines, 75.9%)</text>
<circle cx="266" cy="116" r="6" fill="#663399" />
<text x="277" y="120" font-size="15" font-family="sans-serif" fill="#FFF">CSS (558 lines, 8.1%)</text>
<circle cx="516" cy="116" r="6" fill="#dea584" />
<text x="527" y="120" font-size="15" font-family="sans-serif" fill="#FFF">Rust (362 lines, 5.3%)</text>
<circle cx="16" cy="136" r="6" fill="#89e051" />
<text x="27" y="140" font-size="15" font-family="sans-serif" fill="#FFF">Shell (283 lines, 4.1%)</text>
<circle cx="266" cy="136" r="6" fill="#3572A5" />
<text x="277" y="140" font-size="15" font-family="sans-serif" fill="#FFF">Python (279 lines, 4.1%)</text>
<circle cx="516" cy="136" r="6" fill="#083fa1" />
<text x="527" y="140" font-size="15" font-family="sans-serif" fill="#FFF">Markdown (111 lines, 1.6%)</text>
<circle cx="16" cy="156" r="6" fill="#f1e05a" />
<text x="27" y="160" font-size="15" font-family="sans-serif" fill="#FFF">JavaScript (66 lines, 1.0%)</text>
<circle cx="266" cy="156" r="6" fill="#3178c6" />
<text x="277" y="160" font-size="15" font-family="sans-serif" fill="#FFF">TypeScript (1 lines, 0.0%)</text>
<circle cx="516" cy="156" r="6" fill="#3D6117" />
<text x="527" y="160" font-size="15" font-family="sans-serif" fill="#FFF">TeX (0 lines, 0.0%)</text>
<circle cx="16" cy="176" r="6" fill="None" />
<text x="27" y="180" font-size="15" font-family="sans-serif" fill="#FFF">Lean (0 lines, 0.0%)</text>
<circle cx="266" cy="176" r="6" fill="#239dad" />
<text x="277" y="180" font-size="15" font-family="sans-serif" fill="#FFF">Typst (0 lines, 0.0%)</text>
</svg>