<svg width="800" height="190" xmlns="http://www.w3.org/2000/svg">
<rect width="800" height="190" fill="#212830"/>
<rect x="10" y="40" width="628.9137121580054" height="50" fill="#3572A5"/>
<rect x="638.9137121580054" y="40" width="72.52711672332848" height="50" fill="#000080"/>
<rect x="711.4408288813339" y="40" width="53.35923587502024" height="50" fill="#f1e05a"/>
<rect x="764.8000647563541" y="40" width="33.54379148453942" height="50" fill="#ec915c"/>
<rect x="798.3438562408935" y="40" width="4.9214829205115755" height="50" fill="#3178c6"/>
<rect x="803.2653391614051" y="40" width="3.755868544600939" height="50" fill="#89e051"/>
<rect x="807.0212077060061" y="40" width="2.7197668771248176" height="50" fill="#239dad"/>
<rect x="809.7409745831309" y="40" width="0.2590254168690303" height="50" fill="#000000"/>
<circle cx="16" cy="116" r="6" fill="#3572A5" />
<text x="27" y="120" font-size="15" font-family="sans-serif" fill="#FFF">Python (4.9k lines, 78.6%)</text>
<circle cx="266" cy="116" r="6" fill="#000080" />
<text x="277" y="120" font-size="15" font-family="sans-serif" fill="#FFF">Lua (560 lines, 9.1%)</text>
<circle cx="516" cy="116" r="6" fill="#f1e05a" />
<text x="527" y="120" font-size="15" font-family="sans-serif" fill="#FFF">JavaScript (412 lines, 6.7%)</text>
<circle cx="16" cy="136" r="6" fill="#ec915c" />
<text x="27" y="140" font-size="15" font-family="sans-serif" fill="#FFF">Zig (259 lines, 4.2%)</text>
<circle cx="266" cy="136" r="6" fill="#3178c6" />
<text x="277" y="140" font-size="15" font-family="sans-serif" fill="#FFF">TypeScript (38 lines, 0.6%)</text>
<circle cx="516" cy="136" r="6" fill="#89e051" />
<text x="527" y="140" font-size="15" font-family="sans-serif" fill="#FFF">Shell (29 lines, 0.5%)</text>
<circle cx="16" cy="156" r="6" fill="#239dad" />
<text x="27" y="160" font-size="15" font-family="sans-serif" fill="#FFF">Typst (21 lines, 0.3%)</text>
<circle cx="266" cy="156" r="6" fill="#000000" />
<text x="277" y="160" font-size="15" font-family="sans-serif" fill="#FFF">Fish (2 lines, 0.0%)</text>
</svg>