<svg width="800" height="250" xmlns="http://www.w3.org/2000/svg">
<rect width="800" height="250" fill="#212830"/>
<rect x="10" y="40" width="422.4351330235618" height="50" fill="#dea584"/>
<rect x="432.4351330235618" y="40" width="210.5514206998643" height="50" fill="#3572A5"/>
<rect x="642.9865537234261" y="40" width="32.476664336526994" height="50" fill="#3178c6"/>
<rect x="675.4632180599531" y="40" width="28.882766561125045" height="50" fill="#f34b7d"/>
<rect x="704.3459846210782" y="40" width="24.454130515235" height="50" fill="None"/>
<rect x="728.8001151363131" y="40" width="18.11340926847321" height="50" fill="#3D6117"/>
<rect x="746.9135244047864" y="40" width="17.928368765163043" height="50" fill="#239dad"/>
<rect x="764.8418931699493" y="40" width="13.495620708088326" height="50" fill="#41b883"/>
<rect x="778.3375138780377" y="40" width="10.107323491919898" height="50" fill="#f1e05a"/>
<rect x="788.4448373699577" y="40" width="9.671450306344834" height="50" fill="#000000"/>
<rect x="798.1162876763025" y="40" width="4.28060364324191" height="50" fill="#000000"/>
<rect x="802.3968913195444" y="40" width="3.7419301780500844" height="50" fill="#A97BFF"/>
<rect x="806.1388214975944" y="40" width="1.8915251449483943" height="50" fill="#555555"/>
<rect x="808.0303466425429" y="40" width="1.0979069863070028" height="50" fill="#89e051"/>
<rect x="809.1282536288498" y="40" width="0.7196019573173238" height="50" fill="#012456"/>
<rect x="809.8478555861672" y="40" width="0.08224022369340846" height="50" fill="#e38c00"/>
<rect x="809.9300958098605" y="40" width="0.04112011184670423" height="50" fill="#b07219"/>
<rect x="809.9712159217072" y="40" width="0.028784078292692958" height="50" fill="#663399"/>
<circle cx="16" cy="116" r="6" fill="#dea584" />
<text x="27" y="120" font-size="15" font-family="sans-serif" fill="#FFF">Rust (102.7k lines, 52.8%)</text>
<circle cx="266" cy="116" r="6" fill="#3572A5" />
<text x="277" y="120" font-size="15" font-family="sans-serif" fill="#FFF">Python (51.2k lines, 26.3%)</text>
<circle cx="516" cy="116" r="6" fill="#3178c6" />
<text x="527" y="120" font-size="15" font-family="sans-serif" fill="#FFF">TypeScript (7.9k lines, 4.1%)</text>
<circle cx="16" cy="136" r="6" fill="#f34b7d" />
<text x="27" y="140" font-size="15" font-family="sans-serif" fill="#FFF">C++ (7.0k lines, 3.6%)</text>
<circle cx="266" cy="136" r="6" fill="None" />
<text x="277" y="140" font-size="15" font-family="sans-serif" fill="#FFF">Lean (5.9k lines, 3.1%)</text>
<circle cx="516" cy="136" r="6" fill="#3D6117" />
<text x="527" y="140" font-size="15" font-family="sans-serif" fill="#FFF">TeX (4.4k lines, 2.3%)</text>
<circle cx="16" cy="156" r="6" fill="#239dad" />
<text x="27" y="160" font-size="15" font-family="sans-serif" fill="#FFF">Typst (4.4k lines, 2.2%)</text>
<circle cx="266" cy="156" r="6" fill="#41b883" />
<text x="277" y="160" font-size="15" font-family="sans-serif" fill="#FFF">Vue (3.3k lines, 1.7%)</text>
<circle cx="516" cy="156" r="6" fill="#f1e05a" />
<text x="527" y="160" font-size="15" font-family="sans-serif" fill="#FFF">JavaScript (2.5k lines, 1.3%)</text>
<circle cx="16" cy="176" r="6" fill="#000000" />
<text x="27" y="180" font-size="15" font-family="sans-serif" fill="#FFF">WebGPU Shad… (2.4k lines, 1.2%)</text>
<circle cx="266" cy="176" r="6" fill="#000000" />
<text x="277" y="180" font-size="15" font-family="sans-serif" fill="#FFF">C Header (1.0k lines, 0.5%)</text>
<circle cx="516" cy="176" r="6" fill="#A97BFF" />
<text x="527" y="180" font-size="15" font-family="sans-serif" fill="#FFF">Kotlin (910 lines, 0.5%)</text>
<circle cx="16" cy="196" r="6" fill="#555555" />
<text x="27" y="200" font-size="15" font-family="sans-serif" fill="#FFF">C (460 lines, 0.2%)</text>
<circle cx="266" cy="196" r="6" fill="#89e051" />
<text x="277" y="200" font-size="15" font-family="sans-serif" fill="#FFF">Shell (267 lines, 0.1%)</text>
<circle cx="516" cy="196" r="6" fill="#012456" />
<text x="527" y="200" font-size="15" font-family="sans-serif" fill="#FFF">PowerShell (175 lines, 0.1%)</text>
<circle cx="16" cy="216" r="6" fill="#e38c00" />
<text x="27" y="220" font-size="15" font-family="sans-serif" fill="#FFF">SQL (20 lines, 0.0%)</text>
<circle cx="266" cy="216" r="6" fill="#b07219" />
<text x="277" y="220" font-size="15" font-family="sans-serif" fill="#FFF">Java (10 lines, 0.0%)</text>
<circle cx="516" cy="216" r="6" fill="#663399" />
<text x="527" y="220" font-size="15" font-family="sans-serif" fill="#FFF">CSS (7 lines, 0.0%)</text>
</svg>