<svg width="800" height="250" xmlns="http://www.w3.org/2000/svg">
<rect width="800" height="250" fill="#212830"/>
<rect x="10" y="40" width="347.68450963827655" height="50" fill="#00B4AB"/>
<rect x="357.68450963827655" y="40" width="342.09354120267267" height="50" fill="None"/>
<rect x="699.7780508409492" y="40" width="29.982336226096308" height="50" fill="#083fa1"/>
<rect x="729.7603870670455" y="40" width="17.633054296904998" height="50" fill="#dea584"/>
<rect x="747.3934413639505" y="40" width="11.857768220566776" height="50" fill="#A97BFF"/>
<rect x="759.2512095845173" y="40" width="11.612011366254512" height="50" fill="#89e051"/>
<rect x="770.8632209507717" y="40" width="10.444666308271254" height="50" fill="#3572A5"/>
<rect x="781.307887259043" y="40" width="6.389678212118884" height="50" fill="#41b883"/>
<rect x="787.6975654711619" y="40" width="6.205360571384685" height="50" fill="#DA3434"/>
<rect x="793.9029260425465" y="40" width="5.590968435604023" height="50" fill="#000000"/>
<rect x="799.4938944781505" y="40" width="5.468090008447892" height="50" fill="#555555"/>
<rect x="804.9619844865985" y="40" width="2.0889332616542506" height="50" fill="#012456"/>
<rect x="807.0509177482527" y="40" width="1.228784271561324" height="50" fill="#000000"/>
<rect x="808.2797020198141" y="40" width="0.9830274172490593" height="50" fill="#000000"/>
<rect x="809.2627294370632" y="40" width="0.49151370862452964" height="50" fill="#000080"/>
<rect x="809.7542431456877" y="40" width="0.1843176407341986" height="50" fill="#3178c6"/>
<rect x="809.9385607864219" y="40" width="0.061439213578066205" height="50" fill="#74283c"/>
<circle cx="16" cy="116" r="6" fill="#00B4AB" />
<text x="27" y="120" font-size="15" font-family="sans-serif" fill="#FFF">Dart (5.7k lines, 43.5%)</text>
<circle cx="266" cy="116" r="6" fill="None" />
<text x="277" y="120" font-size="15" font-family="sans-serif" fill="#FFF">Lean (5.6k lines, 42.8%)</text>
<circle cx="516" cy="116" r="6" fill="#083fa1" />
<text x="527" y="120" font-size="15" font-family="sans-serif" fill="#FFF">Markdown (488 lines, 3.7%)</text>
<circle cx="16" cy="136" r="6" fill="#dea584" />
<text x="27" y="140" font-size="15" font-family="sans-serif" fill="#FFF">Rust (287 lines, 2.2%)</text>
<circle cx="266" cy="136" r="6" fill="#A97BFF" />
<text x="277" y="140" font-size="15" font-family="sans-serif" fill="#FFF">Kotlin (193 lines, 1.5%)</text>
<circle cx="516" cy="136" r="6" fill="#89e051" />
<text x="527" y="140" font-size="15" font-family="sans-serif" fill="#FFF">Shell (189 lines, 1.5%)</text>
<circle cx="16" cy="156" r="6" fill="#3572A5" />
<text x="27" y="160" font-size="15" font-family="sans-serif" fill="#FFF">Python (170 lines, 1.3%)</text>
<circle cx="266" cy="156" r="6" fill="#41b883" />
<text x="277" y="160" font-size="15" font-family="sans-serif" fill="#FFF">Vue (104 lines, 0.8%)</text>
<circle cx="516" cy="156" r="6" fill="#DA3434" />
<text x="527" y="160" font-size="15" font-family="sans-serif" fill="#FFF">CMake (101 lines, 0.8%)</text>
<circle cx="16" cy="176" r="6" fill="#000000" />
<text x="27" y="180" font-size="15" font-family="sans-serif" fill="#FFF">Batch (91 lines, 0.7%)</text>
<circle cx="266" cy="176" r="6" fill="#555555" />
<text x="277" y="180" font-size="15" font-family="sans-serif" fill="#FFF">C (89 lines, 0.7%)</text>
<circle cx="516" cy="176" r="6" fill="#012456" />
<text x="527" y="180" font-size="15" font-family="sans-serif" fill="#FFF">PowerShell (34 lines, 0.3%)</text>
<circle cx="16" cy="196" r="6" fill="#000000" />
<text x="27" y="200" font-size="15" font-family="sans-serif" fill="#FFF">Fish (20 lines, 0.2%)</text>
<circle cx="266" cy="196" r="6" fill="#000000" />
<text x="277" y="200" font-size="15" font-family="sans-serif" fill="#FFF">C Header (16 lines, 0.1%)</text>
<circle cx="516" cy="196" r="6" fill="#000080" />
<text x="527" y="200" font-size="15" font-family="sans-serif" fill="#FFF">Lua (8 lines, 0.1%)</text>
<circle cx="16" cy="216" r="6" fill="#3178c6" />
<text x="27" y="220" font-size="15" font-family="sans-serif" fill="#FFF">TypeScript (3 lines, 0.0%)</text>
<circle cx="266" cy="216" r="6" fill="#74283c" />
<text x="277" y="220" font-size="15" font-family="sans-serif" fill="#FFF">Prolog (1 lines, 0.0%)</text>
</svg>