<svg width="800" height="210" xmlns="http://www.w3.org/2000/svg">
<rect width="800" height="210" fill="#212830"/>
<rect x="10" y="40" width="357.9482249536496" height="50" fill="#dea584"/>
<rect x="367.9482249536496" y="40" width="206.11137815010642" height="50" fill="None"/>
<rect x="574.059603103756" y="40" width="142.99251527844535" height="50" fill="#00B4AB"/>
<rect x="717.0521183822013" y="40" width="33.28984412552359" height="50" fill="#3572A5"/>
<rect x="750.3419625077249" y="40" width="32.575705555174075" height="50" fill="#083fa1"/>
<rect x="782.917668062899" y="40" width="17.798530522557165" height="50" fill="#A97BFF"/>
<rect x="800.7161985854561" y="40" width="5.713108562796127" height="50" fill="#41b883"/>
<rect x="806.4293071482523" y="40" width="1.8128132939641557" height="50" fill="#3178c6"/>
<rect x="808.2421204422164" y="40" width="1.09867472361464" height="50" fill="#000000"/>
<rect x="809.3407951658311" y="40" width="0.659204834168784" height="50" fill="#000080"/>
<circle cx="16" cy="116" r="6" fill="#dea584" />
<text x="27" y="120" font-size="15" font-family="sans-serif" fill="#FFF">Rust (6.5k lines, 44.7%)</text>
<circle cx="266" cy="116" r="6" fill="None" />
<text x="277" y="120" font-size="15" font-family="sans-serif" fill="#FFF">Lean (3.8k lines, 25.8%)</text>
<circle cx="516" cy="116" r="6" fill="#00B4AB" />
<text x="527" y="120" font-size="15" font-family="sans-serif" fill="#FFF">Dart (2.6k lines, 17.9%)</text>
<circle cx="16" cy="136" r="6" fill="#3572A5" />
<text x="27" y="140" font-size="15" font-family="sans-serif" fill="#FFF">Python (606 lines, 4.2%)</text>
<circle cx="266" cy="136" r="6" fill="#083fa1" />
<text x="277" y="140" font-size="15" font-family="sans-serif" fill="#FFF">Markdown (593 lines, 4.1%)</text>
<circle cx="516" cy="136" r="6" fill="#A97BFF" />
<text x="527" y="140" font-size="15" font-family="sans-serif" fill="#FFF">Kotlin (324 lines, 2.2%)</text>
<circle cx="16" cy="156" r="6" fill="#41b883" />
<text x="27" y="160" font-size="15" font-family="sans-serif" fill="#FFF">Vue (104 lines, 0.7%)</text>
<circle cx="266" cy="156" r="6" fill="#3178c6" />
<text x="277" y="160" font-size="15" font-family="sans-serif" fill="#FFF">TypeScript (33 lines, 0.2%)</text>
<circle cx="516" cy="156" r="6" fill="#000000" />
<text x="527" y="160" font-size="15" font-family="sans-serif" fill="#FFF">Fish (20 lines, 0.1%)</text>
<circle cx="16" cy="176" r="6" fill="#000080" />
<text x="27" y="180" font-size="15" font-family="sans-serif" fill="#FFF">Lua (12 lines, 0.1%)</text>
</svg>