<svg width="800" height="250" xmlns="http://www.w3.org/2000/svg">
<rect width="800" height="250" fill="#212830"/>
<rect x="10" y="40" width="331.4720812182741" height="50" fill="None"/>
<rect x="341.4720812182741" y="40" width="319.17653694303436" height="50" fill="#00B4AB"/>
<rect x="660.6486181613085" y="40" width="34.01015228426396" height="50" fill="#239dad"/>
<rect x="694.6587704455725" y="40" width="27.523970671178795" height="50" fill="#083fa1"/>
<rect x="722.1827411167512" y="40" width="16.864072194021432" height="50" fill="#555555"/>
<rect x="739.0468133107727" y="40" width="16.187253243090808" height="50" fill="#dea584"/>
<rect x="755.2340665538635" y="40" width="10.885504794134238" height="50" fill="#A97BFF"/>
<rect x="766.1195713479977" y="40" width="10.65989847715736" height="50" fill="#89e051"/>
<rect x="776.7794698251552" y="40" width="9.588268471517203" height="50" fill="#3572A5"/>
<rect x="786.3677382966723" y="40" width="5.865764241398759" height="50" fill="#41b883"/>
<rect x="792.2335025380711" y="40" width="5.696559503666103" height="50" fill="#DA3434"/>
<rect x="797.9300620417372" y="40" width="5.1325437112239145" height="50" fill="#000000"/>
<rect x="803.0626057529611" y="40" width="3.835307388606881" height="50" fill="#000000"/>
<rect x="806.897913141568" y="40" width="1.9176536943034406" height="50" fill="#012456"/>
<rect x="808.8155668358714" y="40" width="0.789622109419064" height="50" fill="#000000"/>
<rect x="809.6051889452905" y="40" width="0.1692047377326565" height="50" fill="#000080"/>
<rect x="809.7743936830232" y="40" width="0.1692047377326565" height="50" fill="#3178c6"/>
<rect x="809.9435984207558" y="40" width="0.056401579244218854" height="50" fill="#74283c"/>
<circle cx="16" cy="116" r="6" fill="None" />
<text x="27" y="120" font-size="15" font-family="sans-serif" fill="#FFF">Lean (5.9k lines, 41.4%)</text>
<circle cx="266" cy="116" r="6" fill="#00B4AB" />
<text x="277" y="120" font-size="15" font-family="sans-serif" fill="#FFF">Dart (5.7k lines, 39.9%)</text>
<circle cx="516" cy="116" r="6" fill="#239dad" />
<text x="527" y="120" font-size="15" font-family="sans-serif" fill="#FFF">Typst (603 lines, 4.3%)</text>
<circle cx="16" cy="136" r="6" fill="#083fa1" />
<text x="27" y="140" font-size="15" font-family="sans-serif" fill="#FFF">Markdown (488 lines, 3.4%)</text>
<circle cx="266" cy="136" r="6" fill="#555555" />
<text x="277" y="140" font-size="15" font-family="sans-serif" fill="#FFF">C (299 lines, 2.1%)</text>
<circle cx="516" cy="136" r="6" fill="#dea584" />
<text x="527" y="140" font-size="15" font-family="sans-serif" fill="#FFF">Rust (287 lines, 2.0%)</text>
<circle cx="16" cy="156" r="6" fill="#A97BFF" />
<text x="27" y="160" font-size="15" font-family="sans-serif" fill="#FFF">Kotlin (193 lines, 1.4%)</text>
<circle cx="266" cy="156" r="6" fill="#89e051" />
<text x="277" y="160" font-size="15" font-family="sans-serif" fill="#FFF">Shell (189 lines, 1.3%)</text>
<circle cx="516" cy="156" r="6" fill="#3572A5" />
<text x="527" y="160" font-size="15" font-family="sans-serif" fill="#FFF">Python (170 lines, 1.2%)</text>
<circle cx="16" cy="176" r="6" fill="#41b883" />
<text x="27" y="180" font-size="15" font-family="sans-serif" fill="#FFF">Vue (104 lines, 0.7%)</text>
<circle cx="266" cy="176" r="6" fill="#DA3434" />
<text x="277" y="180" font-size="15" font-family="sans-serif" fill="#FFF">CMake (101 lines, 0.7%)</text>
<circle cx="516" cy="176" r="6" fill="#000000" />
<text x="527" y="180" font-size="15" font-family="sans-serif" fill="#FFF">Batch (91 lines, 0.6%)</text>
<circle cx="16" cy="196" r="6" fill="#000000" />
<text x="27" y="200" font-size="15" font-family="sans-serif" fill="#FFF">C Header (68 lines, 0.5%)</text>
<circle cx="266" cy="196" r="6" fill="#012456" />
<text x="277" y="200" font-size="15" font-family="sans-serif" fill="#FFF">PowerShell (34 lines, 0.2%)</text>
<circle cx="516" cy="196" r="6" fill="#000000" />
<text x="527" y="200" font-size="15" font-family="sans-serif" fill="#FFF">Fish (14 lines, 0.1%)</text>
<circle cx="16" cy="216" r="6" fill="#000080" />
<text x="27" y="220" font-size="15" font-family="sans-serif" fill="#FFF">Lua (3 lines, 0.0%)</text>
<circle cx="266" cy="216" r="6" fill="#3178c6" />
<text x="277" y="220" font-size="15" font-family="sans-serif" fill="#FFF">TypeScript (3 lines, 0.0%)</text>
<circle cx="516" cy="216" r="6" fill="#74283c" />
<text x="527" y="220" font-size="15" font-family="sans-serif" fill="#FFF">Prolog (1 lines, 0.0%)</text>
</svg>