<svg width="800" height="290" xmlns="http://www.w3.org/2000/svg">
<rect width="800" height="290" fill="#212830"/>
<rect x="10" y="40" width="215.14344376005772" height="50" fill="#3572A5"/>
<rect x="225.14344376005772" y="40" width="161.11758503967593" height="50" fill="#dea584"/>
<rect x="386.26102879973365" y="40" width="91.19360745796571" height="50" fill="None"/>
<rect x="477.45463625769935" y="40" width="83.78558348593307" height="50" fill="#3178c6"/>
<rect x="561.2402197436325" y="40" width="53.01037678264247" height="50" fill="#3D6117"/>
<rect x="614.2505965262749" y="40" width="45.85206148382442" height="50" fill="#555555"/>
<rect x="660.1026580100993" y="40" width="45.53298929027246" height="50" fill="#f1e05a"/>
<rect x="705.6356473003717" y="40" width="31.080406192775094" height="50" fill="#f34b7d"/>
<rect x="736.7160534931468" y="40" width="27.89245879806892" height="50" fill="#89e051"/>
<rect x="764.6085122912157" y="40" width="12.404971977137784" height="50" fill="#A97BFF"/>
<rect x="777.0134842683534" y="40" width="6.62837800344043" height="50" fill="#000000"/>
<rect x="783.6418622717938" y="40" width="6.198324177348649" height="50" fill="#239dad"/>
<rect x="789.8401864491425" y="40" width="5.402030963875479" height="50" fill="#00B4AB"/>
<rect x="795.242217413018" y="40" width="4.35325453637423" height="50" fill="#000080"/>
<rect x="799.5954719493923" y="40" width="2.8882969868486765" height="50" fill="#663399"/>
<rect x="802.483768936241" y="40" width="2.4610177015703902" height="50" fill="#41b883"/>
<rect x="804.9447866378114" y="40" width="1.9144331613118029" height="50" fill="#ec915c"/>
<rect x="806.8592197991231" y="40" width="1.4705066311525443" height="50" fill="#000000"/>
<rect x="808.3297264302756" y="40" width="1.1680816824815494" height="50" fill="#012456"/>
<rect x="809.4978081127572" y="40" width="0.4550246934132401" height="50" fill="#000000"/>
<rect x="809.9528328061705" y="40" width="0.03884357138893513" height="50" fill="#000000"/>
<rect x="809.9916763775594" y="40" width="0.0083236224404861" height="50" fill="#000000"/>
<circle cx="16" cy="116" r="6" fill="#3572A5" />
<text x="27" y="120" font-size="15" font-family="sans-serif" fill="#FFF">Python (77.5k lines, 26.9%)</text>
<circle cx="266" cy="116" r="6" fill="#dea584" />
<text x="277" y="120" font-size="15" font-family="sans-serif" fill="#FFF">Rust (58.1k lines, 20.1%)</text>
<circle cx="516" cy="116" r="6" fill="None" />
<text x="527" y="120" font-size="15" font-family="sans-serif" fill="#FFF">Lean (32.9k lines, 11.4%)</text>
<circle cx="16" cy="136" r="6" fill="#3178c6" />
<text x="27" y="140" font-size="15" font-family="sans-serif" fill="#FFF">TypeScript (30.2k lines, 10.5%)</text>
<circle cx="266" cy="136" r="6" fill="#3D6117" />
<text x="277" y="140" font-size="15" font-family="sans-serif" fill="#FFF">TeX (19.1k lines, 6.6%)</text>
<circle cx="516" cy="136" r="6" fill="#555555" />
<text x="527" y="140" font-size="15" font-family="sans-serif" fill="#FFF">C (16.5k lines, 5.7%)</text>
<circle cx="16" cy="156" r="6" fill="#f1e05a" />
<text x="27" y="160" font-size="15" font-family="sans-serif" fill="#FFF">JavaScript (16.4k lines, 5.7%)</text>
<circle cx="266" cy="156" r="6" fill="#f34b7d" />
<text x="277" y="160" font-size="15" font-family="sans-serif" fill="#FFF">C++ (11.2k lines, 3.9%)</text>
<circle cx="516" cy="156" r="6" fill="#89e051" />
<text x="527" y="160" font-size="15" font-family="sans-serif" fill="#FFF">Shell (10.1k lines, 3.5%)</text>
<circle cx="16" cy="176" r="6" fill="#A97BFF" />
<text x="27" y="180" font-size="15" font-family="sans-serif" fill="#FFF">Kotlin (4.5k lines, 1.6%)</text>
<circle cx="266" cy="176" r="6" fill="#000000" />
<text x="277" y="180" font-size="15" font-family="sans-serif" fill="#FFF">C Header (2.4k lines, 0.8%)</text>
<circle cx="516" cy="176" r="6" fill="#239dad" />
<text x="527" y="180" font-size="15" font-family="sans-serif" fill="#FFF">Typst (2.2k lines, 0.8%)</text>
<circle cx="16" cy="196" r="6" fill="#00B4AB" />
<text x="27" y="200" font-size="15" font-family="sans-serif" fill="#FFF">Dart (1.9k lines, 0.7%)</text>
<circle cx="266" cy="196" r="6" fill="#000080" />
<text x="277" y="200" font-size="15" font-family="sans-serif" fill="#FFF">Lua (1.6k lines, 0.5%)</text>
<circle cx="516" cy="196" r="6" fill="#663399" />
<text x="527" y="200" font-size="15" font-family="sans-serif" fill="#FFF">CSS (1.0k lines, 0.4%)</text>
<circle cx="16" cy="216" r="6" fill="#41b883" />
<text x="27" y="220" font-size="15" font-family="sans-serif" fill="#FFF">Vue (887 lines, 0.3%)</text>
<circle cx="266" cy="216" r="6" fill="#ec915c" />
<text x="277" y="220" font-size="15" font-family="sans-serif" fill="#FFF">Zig (690 lines, 0.2%)</text>
<circle cx="516" cy="216" r="6" fill="#000000" />
<text x="527" y="220" font-size="15" font-family="sans-serif" fill="#FFF">C++ Header (530 lines, 0.2%)</text>
<circle cx="16" cy="236" r="6" fill="#012456" />
<text x="27" y="240" font-size="15" font-family="sans-serif" fill="#FFF">PowerShell (421 lines, 0.1%)</text>
<circle cx="266" cy="236" r="6" fill="#000000" />
<text x="277" y="240" font-size="15" font-family="sans-serif" fill="#FFF">Batch (164 lines, 0.1%)</text>
<circle cx="516" cy="236" r="6" fill="#000000" />
<text x="527" y="240" font-size="15" font-family="sans-serif" fill="#FFF">Fish (14 lines, 0.0%)</text>
<circle cx="16" cy="256" r="6" fill="#000000" />
<text x="27" y="260" font-size="15" font-family="sans-serif" fill="#FFF">Autoconf (3 lines, 0.0%)</text>
</svg>