<svg width="800" height="230" xmlns="http://www.w3.org/2000/svg">
<rect width="800" height="230" fill="#212830"/>
<rect x="10" y="40" width="343.1224884655455" height="50" fill="#000000"/>
<rect x="353.1224884655455" y="40" width="328.38219973210306" height="50" fill="None"/>
<rect x="681.5046881976485" y="40" width="82.48846554546807" height="50" fill="#00B4AB"/>
<rect x="763.9931537431166" y="40" width="16.12144664384581" height="50" fill="#083fa1"/>
<rect x="780.1146003869625" y="40" width="12.406608126209257" height="50" fill="#3572A5"/>
<rect x="792.5212085131717" y="40" width="8.072629855633279" height="50" fill="#A97BFF"/>
<rect x="800.593838368805" y="40" width="3.9291561244232778" height="50" fill="#3D6117"/>
<rect x="804.5229944932282" y="40" width="2.4765590117577023" height="50" fill="#41b883"/>
<rect x="806.9995535049859" y="40" width="0.9287096294091383" height="50" fill="#74283c"/>
<rect x="807.928263134395" y="40" width="0.8334573597261496" height="50" fill="#000000"/>
<rect x="808.7617204941212" y="40" width="0.7858312248846553" height="50" fill="#3178c6"/>
<rect x="809.5475517190058" y="40" width="0.2143176067867242" height="50" fill="#000080"/>
<rect x="809.7618693257925" y="40" width="0.1428784045244828" height="50" fill="#000000"/>
<rect x="809.904747730317" y="40" width="0.09525226968298854" height="50" fill="#dea584"/>
<circle cx="16" cy="116" r="6" fill="#000000" />
<text x="27" y="120" font-size="15" font-family="sans-serif" fill="#FFF">Jupyter Not… (14.4k lines, 42.9%)</text>
<circle cx="266" cy="116" r="6" fill="None" />
<text x="277" y="120" font-size="15" font-family="sans-serif" fill="#FFF">Lean (13.8k lines, 41.0%)</text>
<circle cx="516" cy="116" r="6" fill="#00B4AB" />
<text x="527" y="120" font-size="15" font-family="sans-serif" fill="#FFF">Dart (3.5k lines, 10.3%)</text>
<circle cx="16" cy="136" r="6" fill="#083fa1" />
<text x="27" y="140" font-size="15" font-family="sans-serif" fill="#FFF">Markdown (677 lines, 2.0%)</text>
<circle cx="266" cy="136" r="6" fill="#3572A5" />
<text x="277" y="140" font-size="15" font-family="sans-serif" fill="#FFF">Python (521 lines, 1.6%)</text>
<circle cx="516" cy="136" r="6" fill="#A97BFF" />
<text x="527" y="140" font-size="15" font-family="sans-serif" fill="#FFF">Kotlin (339 lines, 1.0%)</text>
<circle cx="16" cy="156" r="6" fill="#3D6117" />
<text x="27" y="160" font-size="15" font-family="sans-serif" fill="#FFF">TeX (165 lines, 0.5%)</text>
<circle cx="266" cy="156" r="6" fill="#41b883" />
<text x="277" y="160" font-size="15" font-family="sans-serif" fill="#FFF">Vue (104 lines, 0.3%)</text>
<circle cx="516" cy="156" r="6" fill="#74283c" />
<text x="527" y="160" font-size="15" font-family="sans-serif" fill="#FFF">Prolog (39 lines, 0.1%)</text>
<circle cx="16" cy="176" r="6" fill="#000000" />
<text x="27" y="180" font-size="15" font-family="sans-serif" fill="#FFF">Batch (35 lines, 0.1%)</text>
<circle cx="266" cy="176" r="6" fill="#3178c6" />
<text x="277" y="180" font-size="15" font-family="sans-serif" fill="#FFF">TypeScript (33 lines, 0.1%)</text>
<circle cx="516" cy="176" r="6" fill="#000080" />
<text x="527" y="180" font-size="15" font-family="sans-serif" fill="#FFF">Lua (9 lines, 0.0%)</text>
<circle cx="16" cy="196" r="6" fill="#000000" />
<text x="27" y="200" font-size="15" font-family="sans-serif" fill="#FFF">Fish (6 lines, 0.0%)</text>
<circle cx="266" cy="196" r="6" fill="#dea584" />
<text x="277" y="200" font-size="15" font-family="sans-serif" fill="#FFF">Rust (4 lines, 0.0%)</text>
</svg>