<svg width="800" height="250" xmlns="http://www.w3.org/2000/svg">
<rect width="800" height="250" fill="#212830"/>
<rect x="10" y="40" width="340.82662049235864" height="50" fill="#00B4AB"/>
<rect x="350.82662049235864" y="40" width="335.3459308891064" height="50" fill="None"/>
<rect x="686.172551381465" y="40" width="29.390950839418807" height="50" fill="#083fa1"/>
<rect x="715.5635022208838" y="40" width="18.007980124971766" height="50" fill="#555555"/>
<rect x="733.5714823458557" y="40" width="17.285251825641797" height="50" fill="#dea584"/>
<rect x="750.8567341714975" y="40" width="11.623880147557026" height="50" fill="#A97BFF"/>
<rect x="762.4806143190544" y="40" width="11.382970714447037" height="50" fill="#89e051"/>
<rect x="773.8635850335015" y="40" width="10.238650907174584" height="50" fill="#3572A5"/>
<rect x="784.1022359406761" y="40" width="6.263645260859746" height="50" fill="#41b883"/>
<rect x="790.3658812015359" y="40" width="6.082963186027253" height="50" fill="#DA3434"/>
<rect x="796.4488443875631" y="40" width="5.480689603252277" height="50" fill="#000000"/>
<rect x="801.9295339908153" y="40" width="4.095460362869834" height="50" fill="#000000"/>
<rect x="806.0249943536852" y="40" width="2.047730181434917" height="50" fill="#012456"/>
<rect x="808.0727245351201" y="40" width="1.2045471655499511" height="50" fill="#000000"/>
<rect x="809.27727170067" y="40" width="0.4818188662199804" height="50" fill="#000080"/>
<rect x="809.75909056689" y="40" width="0.18068207483249268" height="50" fill="#3178c6"/>
<rect x="809.9397726417225" y="40" width="0.06022735827749755" height="50" fill="#74283c"/>
<circle cx="16" cy="116" r="6" fill="#00B4AB" />
<text x="27" y="120" font-size="15" font-family="sans-serif" fill="#FFF">Dart (5.7k lines, 42.6%)</text>
<circle cx="266" cy="116" r="6" fill="None" />
<text x="277" y="120" font-size="15" font-family="sans-serif" fill="#FFF">Lean (5.6k lines, 41.9%)</text>
<circle cx="516" cy="116" r="6" fill="#083fa1" />
<text x="527" y="120" font-size="15" font-family="sans-serif" fill="#FFF">Markdown (488 lines, 3.7%)</text>
<circle cx="16" cy="136" r="6" fill="#555555" />
<text x="27" y="140" font-size="15" font-family="sans-serif" fill="#FFF">C (299 lines, 2.3%)</text>
<circle cx="266" cy="136" r="6" fill="#dea584" />
<text x="277" y="140" font-size="15" font-family="sans-serif" fill="#FFF">Rust (287 lines, 2.2%)</text>
<circle cx="516" cy="136" r="6" fill="#A97BFF" />
<text x="527" y="140" font-size="15" font-family="sans-serif" fill="#FFF">Kotlin (193 lines, 1.5%)</text>
<circle cx="16" cy="156" r="6" fill="#89e051" />
<text x="27" y="160" font-size="15" font-family="sans-serif" fill="#FFF">Shell (189 lines, 1.4%)</text>
<circle cx="266" cy="156" r="6" fill="#3572A5" />
<text x="277" y="160" font-size="15" font-family="sans-serif" fill="#FFF">Python (170 lines, 1.3%)</text>
<circle cx="516" cy="156" r="6" fill="#41b883" />
<text x="527" y="160" font-size="15" font-family="sans-serif" fill="#FFF">Vue (104 lines, 0.8%)</text>
<circle cx="16" cy="176" r="6" fill="#DA3434" />
<text x="27" y="180" font-size="15" font-family="sans-serif" fill="#FFF">CMake (101 lines, 0.8%)</text>
<circle cx="266" cy="176" r="6" fill="#000000" />
<text x="277" y="180" font-size="15" font-family="sans-serif" fill="#FFF">Batch (91 lines, 0.7%)</text>
<circle cx="516" cy="176" r="6" fill="#000000" />
<text x="527" y="180" font-size="15" font-family="sans-serif" fill="#FFF">C Header (68 lines, 0.5%)</text>
<circle cx="16" cy="196" r="6" fill="#012456" />
<text x="27" y="200" font-size="15" font-family="sans-serif" fill="#FFF">PowerShell (34 lines, 0.3%)</text>
<circle cx="266" cy="196" r="6" fill="#000000" />
<text x="277" y="200" font-size="15" font-family="sans-serif" fill="#FFF">Fish (20 lines, 0.2%)</text>
<circle cx="516" cy="196" r="6" fill="#000080" />
<text x="527" y="200" font-size="15" font-family="sans-serif" fill="#FFF">Lua (8 lines, 0.1%)</text>
<circle cx="16" cy="216" r="6" fill="#3178c6" />
<text x="27" y="220" font-size="15" font-family="sans-serif" fill="#FFF">TypeScript (3 lines, 0.0%)</text>
<circle cx="266" cy="216" r="6" fill="#74283c" />
<text x="277" y="220" font-size="15" font-family="sans-serif" fill="#FFF">Prolog (1 lines, 0.0%)</text>
</svg>