<svg width="800" height="250" xmlns="http://www.w3.org/2000/svg">
<rect width="800" height="250" fill="#212830"/>
<rect x="10" y="40" width="340.2264600715137" height="50" fill="None"/>
<rect x="350.2264600715137" y="40" width="337.24672228843866" height="50" fill="#00B4AB"/>
<rect x="687.4731823599524" y="40" width="29.082240762812873" height="50" fill="#083fa1"/>
<rect x="716.5554231227652" y="40" width="17.818831942789036" height="50" fill="#555555"/>
<rect x="734.3742550655543" y="40" width="17.103694874851012" height="50" fill="#dea584"/>
<rect x="751.4779499404053" y="40" width="11.501787842669847" height="50" fill="#A97BFF"/>
<rect x="762.9797377830752" y="40" width="11.263408820023837" height="50" fill="#89e051"/>
<rect x="774.243146603099" y="40" width="10.131108462455304" height="50" fill="#3572A5"/>
<rect x="784.3742550655544" y="40" width="6.197854588796186" height="50" fill="#41b883"/>
<rect x="790.5721096543506" y="40" width="6.01907032181168" height="50" fill="#DA3434"/>
<rect x="796.5911799761623" y="40" width="5.423122765196663" height="50" fill="#000000"/>
<rect x="802.014302741359" y="40" width="4.052443384982122" height="50" fill="#000000"/>
<rect x="806.0667461263411" y="40" width="2.026221692491061" height="50" fill="#012456"/>
<rect x="808.0929678188321" y="40" width="1.1918951132300357" height="50" fill="#000000"/>
<rect x="809.2848629320622" y="40" width="0.47675804529201427" height="50" fill="#000080"/>
<rect x="809.7616209773543" y="40" width="0.17878426698450536" height="50" fill="#3178c6"/>
<rect x="809.9404052443388" y="40" width="0.05959475566150178" height="50" fill="#74283c"/>
<circle cx="16" cy="116" r="6" fill="None" />
<text x="27" y="120" font-size="15" font-family="sans-serif" fill="#FFF">Lean (5.7k lines, 42.5%)</text>
<circle cx="266" cy="116" r="6" fill="#00B4AB" />
<text x="277" y="120" font-size="15" font-family="sans-serif" fill="#FFF">Dart (5.7k lines, 42.2%)</text>
<circle cx="516" cy="116" r="6" fill="#083fa1" />
<text x="527" y="120" font-size="15" font-family="sans-serif" fill="#FFF">Markdown (488 lines, 3.6%)</text>
<circle cx="16" cy="136" r="6" fill="#555555" />
<text x="27" y="140" font-size="15" font-family="sans-serif" fill="#FFF">C (299 lines, 2.2%)</text>
<circle cx="266" cy="136" r="6" fill="#dea584" />
<text x="277" y="140" font-size="15" font-family="sans-serif" fill="#FFF">Rust (287 lines, 2.1%)</text>
<circle cx="516" cy="136" r="6" fill="#A97BFF" />
<text x="527" y="140" font-size="15" font-family="sans-serif" fill="#FFF">Kotlin (193 lines, 1.4%)</text>
<circle cx="16" cy="156" r="6" fill="#89e051" />
<text x="27" y="160" font-size="15" font-family="sans-serif" fill="#FFF">Shell (189 lines, 1.4%)</text>
<circle cx="266" cy="156" r="6" fill="#3572A5" />
<text x="277" y="160" font-size="15" font-family="sans-serif" fill="#FFF">Python (170 lines, 1.3%)</text>
<circle cx="516" cy="156" r="6" fill="#41b883" />
<text x="527" y="160" font-size="15" font-family="sans-serif" fill="#FFF">Vue (104 lines, 0.8%)</text>
<circle cx="16" cy="176" r="6" fill="#DA3434" />
<text x="27" y="180" font-size="15" font-family="sans-serif" fill="#FFF">CMake (101 lines, 0.8%)</text>
<circle cx="266" cy="176" r="6" fill="#000000" />
<text x="277" y="180" font-size="15" font-family="sans-serif" fill="#FFF">Batch (91 lines, 0.7%)</text>
<circle cx="516" cy="176" r="6" fill="#000000" />
<text x="527" y="180" font-size="15" font-family="sans-serif" fill="#FFF">C Header (68 lines, 0.5%)</text>
<circle cx="16" cy="196" r="6" fill="#012456" />
<text x="27" y="200" font-size="15" font-family="sans-serif" fill="#FFF">PowerShell (34 lines, 0.3%)</text>
<circle cx="266" cy="196" r="6" fill="#000000" />
<text x="277" y="200" font-size="15" font-family="sans-serif" fill="#FFF">Fish (20 lines, 0.1%)</text>
<circle cx="516" cy="196" r="6" fill="#000080" />
<text x="527" y="200" font-size="15" font-family="sans-serif" fill="#FFF">Lua (8 lines, 0.1%)</text>
<circle cx="16" cy="216" r="6" fill="#3178c6" />
<text x="27" y="220" font-size="15" font-family="sans-serif" fill="#FFF">TypeScript (3 lines, 0.0%)</text>
<circle cx="266" cy="216" r="6" fill="#74283c" />
<text x="277" y="220" font-size="15" font-family="sans-serif" fill="#FFF">Prolog (1 lines, 0.0%)</text>
</svg>