<svg width="800" height="230" xmlns="http://www.w3.org/2000/svg">
<rect width="800" height="230" fill="#212830"/>
<rect x="10" y="40" width="328.85217173613717" height="50" fill="#00B4AB"/>
<rect x="338.85217173613717" y="40" width="261.4595068218801" height="50" fill="#c22d40"/>
<rect x="600.3116785580173" y="40" width="137.3889097509075" height="50" fill="#083fa1"/>
<rect x="737.7005883089248" y="40" width="27.93841532106647" height="50" fill="#663399"/>
<rect x="765.6390036299913" y="40" width="22.631117786957066" height="50" fill="#f34b7d"/>
<rect x="788.2701214169483" y="40" width="14.169483039178871" height="50" fill="#89e051"/>
<rect x="802.4396044561272" y="40" width="3.9554387282513455" height="50" fill="#000000"/>
<rect x="806.3950431843786" y="40" width="3.304543747653023" height="50" fill="#f1e05a"/>
<rect x="809.6995869320316" y="40" width="0.2503442233070472" height="50" fill="#A97BFF"/>
<rect x="809.9499311553386" y="40" width="0.05006884466140944" height="50" fill="#3178c6"/>
<rect x="810.0" y="40" width="0.0" height="50" fill="#3D6117"/>
<rect x="810.0" y="40" width="0.0" height="50" fill="None"/>
<rect x="810.0" y="40" width="0.0" height="50" fill="#239dad"/>
<circle cx="16" cy="116" r="6" fill="#00B4AB" />
<text x="27" y="120" font-size="15" font-family="sans-serif" fill="#FFF">Dart (6.6k lines, 41.1%)</text>
<circle cx="266" cy="116" r="6" fill="#c22d40" />
<text x="277" y="120" font-size="15" font-family="sans-serif" fill="#FFF">Scala (5.2k lines, 32.7%)</text>
<circle cx="516" cy="116" r="6" fill="#083fa1" />
<text x="527" y="120" font-size="15" font-family="sans-serif" fill="#FFF">Markdown (2.7k lines, 17.2%)</text>
<circle cx="16" cy="136" r="6" fill="#663399" />
<text x="27" y="140" font-size="15" font-family="sans-serif" fill="#FFF">CSS (558 lines, 3.5%)</text>
<circle cx="266" cy="136" r="6" fill="#f34b7d" />
<text x="277" y="140" font-size="15" font-family="sans-serif" fill="#FFF">C++ (452 lines, 2.8%)</text>
<circle cx="516" cy="136" r="6" fill="#89e051" />
<text x="527" y="140" font-size="15" font-family="sans-serif" fill="#FFF">Shell (283 lines, 1.8%)</text>
<circle cx="16" cy="156" r="6" fill="#000000" />
<text x="27" y="160" font-size="15" font-family="sans-serif" fill="#FFF">C++ Header (79 lines, 0.5%)</text>
<circle cx="266" cy="156" r="6" fill="#f1e05a" />
<text x="277" y="160" font-size="15" font-family="sans-serif" fill="#FFF">JavaScript (66 lines, 0.4%)</text>
<circle cx="516" cy="156" r="6" fill="#A97BFF" />
<text x="527" y="160" font-size="15" font-family="sans-serif" fill="#FFF">Kotlin (5 lines, 0.0%)</text>
<circle cx="16" cy="176" r="6" fill="#3178c6" />
<text x="27" y="180" font-size="15" font-family="sans-serif" fill="#FFF">TypeScript (1 lines, 0.0%)</text>
<circle cx="266" cy="176" r="6" fill="#3D6117" />
<text x="277" y="180" font-size="15" font-family="sans-serif" fill="#FFF">TeX (0 lines, 0.0%)</text>
<circle cx="516" cy="176" r="6" fill="None" />
<text x="527" y="180" font-size="15" font-family="sans-serif" fill="#FFF">Lean (0 lines, 0.0%)</text>
<circle cx="16" cy="196" r="6" fill="#239dad" />
<text x="27" y="200" font-size="15" font-family="sans-serif" fill="#FFF">Typst (0 lines, 0.0%)</text>
</svg>