<svg width="800" height="190" xmlns="http://www.w3.org/2000/svg">
<rect width="800" height="190" fill="#212830"/>
<rect x="10" y="40" width="528.2751643904907" height="50" fill="#c22d40"/>
<rect x="538.2751643904907" y="40" width="89.63075366717248" height="50" fill="#3572A5"/>
<rect x="627.9059180576631" y="40" width="79.00859888720284" height="50" fill="#dea584"/>
<rect x="706.914516944866" y="40" width="56.449165402124436" height="50" fill="#663399"/>
<rect x="763.3636823469905" y="40" width="28.62923621648963" height="50" fill="#89e051"/>
<rect x="791.9929185634801" y="40" width="11.229135053110774" height="50" fill="#083fa1"/>
<rect x="803.2220536165909" y="40" width="6.676783004552352" height="50" fill="#f1e05a"/>
<rect x="809.8988366211432" y="40" width="0.10116337885685382" height="50" fill="#3178c6"/>
<circle cx="16" cy="116" r="6" fill="#c22d40" />
<text x="27" y="120" font-size="15" font-family="sans-serif" fill="#FFF">Scala (5.2k lines, 66.0%)</text>
<circle cx="266" cy="116" r="6" fill="#3572A5" />
<text x="277" y="120" font-size="15" font-family="sans-serif" fill="#FFF">Python (886 lines, 11.2%)</text>
<circle cx="516" cy="116" r="6" fill="#dea584" />
<text x="527" y="120" font-size="15" font-family="sans-serif" fill="#FFF">Rust (781 lines, 9.9%)</text>
<circle cx="16" cy="136" r="6" fill="#663399" />
<text x="27" y="140" font-size="15" font-family="sans-serif" fill="#FFF">CSS (558 lines, 7.1%)</text>
<circle cx="266" cy="136" r="6" fill="#89e051" />
<text x="277" y="140" font-size="15" font-family="sans-serif" fill="#FFF">Shell (283 lines, 3.6%)</text>
<circle cx="516" cy="136" r="6" fill="#083fa1" />
<text x="527" y="140" font-size="15" font-family="sans-serif" fill="#FFF">Markdown (111 lines, 1.4%)</text>
<circle cx="16" cy="156" r="6" fill="#f1e05a" />
<text x="27" y="160" font-size="15" font-family="sans-serif" fill="#FFF">JavaScript (66 lines, 0.8%)</text>
<circle cx="266" cy="156" r="6" fill="#3178c6" />
<text x="277" y="160" font-size="15" font-family="sans-serif" fill="#FFF">TypeScript (1 lines, 0.0%)</text>
</svg>