<svg width="800" height="250" xmlns="http://www.w3.org/2000/svg">
<rect width="800" height="250" fill="#212830"/>
<rect x="10" y="40" width="334.5443891004981" height="50" fill="None"/>
<rect x="344.5443891004981" y="40" width="331.6144154702608" height="50" fill="#00B4AB"/>
<rect x="676.1588045707589" y="40" width="28.596542631116318" height="50" fill="#083fa1"/>
<rect x="704.7553472018752" y="40" width="17.52124230881922" height="50" fill="#555555"/>
<rect x="722.2765895106944" y="40" width="16.81804863756226" height="50" fill="#dea584"/>
<rect x="739.0946381482566" y="40" width="13.360679753882215" height="50" fill="#239dad"/>
<rect x="752.4553179021389" y="40" width="11.309698212716084" height="50" fill="#A97BFF"/>
<rect x="763.7650161148549" y="40" width="11.075300322297101" height="50" fill="#89e051"/>
<rect x="774.8403164371521" y="40" width="9.961910342806915" height="50" fill="#3572A5"/>
<rect x="784.802226779959" y="40" width="6.094345150893641" height="50" fill="#41b883"/>
<rect x="790.8965719308527" y="40" width="5.918546733079403" height="50" fill="#DA3434"/>
<rect x="796.8151186639321" y="40" width="5.3325520070319365" height="50" fill="#000000"/>
<rect x="802.1476706709641" y="40" width="3.9847641371227653" height="50" fill="#000000"/>
<rect x="806.1324348080868" y="40" width="1.9923820685613827" height="50" fill="#012456"/>
<rect x="808.1248168766482" y="40" width="1.1719894520949312" height="50" fill="#000000"/>
<rect x="809.2968063287432" y="40" width="0.46879578083797246" height="50" fill="#000080"/>
<rect x="809.7656021095811" y="40" width="0.17579841781423966" height="50" fill="#3178c6"/>
<rect x="809.9414005273953" y="40" width="0.05859947260474656" height="50" fill="#74283c"/>
<circle cx="16" cy="116" r="6" fill="None" />
<text x="27" y="120" font-size="15" font-family="sans-serif" fill="#FFF">Lean (5.7k lines, 41.8%)</text>
<circle cx="266" cy="116" r="6" fill="#00B4AB" />
<text x="277" y="120" font-size="15" font-family="sans-serif" fill="#FFF">Dart (5.7k lines, 41.5%)</text>
<circle cx="516" cy="116" r="6" fill="#083fa1" />
<text x="527" y="120" font-size="15" font-family="sans-serif" fill="#FFF">Markdown (488 lines, 3.6%)</text>
<circle cx="16" cy="136" r="6" fill="#555555" />
<text x="27" y="140" font-size="15" font-family="sans-serif" fill="#FFF">C (299 lines, 2.2%)</text>
<circle cx="266" cy="136" r="6" fill="#dea584" />
<text x="277" y="140" font-size="15" font-family="sans-serif" fill="#FFF">Rust (287 lines, 2.1%)</text>
<circle cx="516" cy="136" r="6" fill="#239dad" />
<text x="527" y="140" font-size="15" font-family="sans-serif" fill="#FFF">Typst (228 lines, 1.7%)</text>
<circle cx="16" cy="156" r="6" fill="#A97BFF" />
<text x="27" y="160" font-size="15" font-family="sans-serif" fill="#FFF">Kotlin (193 lines, 1.4%)</text>
<circle cx="266" cy="156" r="6" fill="#89e051" />
<text x="277" y="160" font-size="15" font-family="sans-serif" fill="#FFF">Shell (189 lines, 1.4%)</text>
<circle cx="516" cy="156" r="6" fill="#3572A5" />
<text x="527" y="160" font-size="15" font-family="sans-serif" fill="#FFF">Python (170 lines, 1.2%)</text>
<circle cx="16" cy="176" r="6" fill="#41b883" />
<text x="27" y="180" font-size="15" font-family="sans-serif" fill="#FFF">Vue (104 lines, 0.8%)</text>
<circle cx="266" cy="176" r="6" fill="#DA3434" />
<text x="277" y="180" font-size="15" font-family="sans-serif" fill="#FFF">CMake (101 lines, 0.7%)</text>
<circle cx="516" cy="176" r="6" fill="#000000" />
<text x="527" y="180" font-size="15" font-family="sans-serif" fill="#FFF">Batch (91 lines, 0.7%)</text>
<circle cx="16" cy="196" r="6" fill="#000000" />
<text x="27" y="200" font-size="15" font-family="sans-serif" fill="#FFF">C Header (68 lines, 0.5%)</text>
<circle cx="266" cy="196" r="6" fill="#012456" />
<text x="277" y="200" font-size="15" font-family="sans-serif" fill="#FFF">PowerShell (34 lines, 0.2%)</text>
<circle cx="516" cy="196" r="6" fill="#000000" />
<text x="527" y="200" font-size="15" font-family="sans-serif" fill="#FFF">Fish (20 lines, 0.1%)</text>
<circle cx="16" cy="216" r="6" fill="#000080" />
<text x="27" y="220" font-size="15" font-family="sans-serif" fill="#FFF">Lua (8 lines, 0.1%)</text>
<circle cx="266" cy="216" r="6" fill="#3178c6" />
<text x="277" y="220" font-size="15" font-family="sans-serif" fill="#FFF">TypeScript (3 lines, 0.0%)</text>
<circle cx="516" cy="216" r="6" fill="#74283c" />
<text x="527" y="220" font-size="15" font-family="sans-serif" fill="#FFF">Prolog (1 lines, 0.0%)</text>
</svg>