<svg width="800" height="330" xmlns="http://www.w3.org/2000/svg">
<rect x="10" y="40" width="141.25063003630285" height="50" fill="#555555"/>
<rect x="151.25063003630285" y="40" width="122.12049484167747" height="50" fill="#b07219"/>
<rect x="273.3711248779803" y="40" width="104.7614794209408" height="50" fill="#c22d40"/>
<rect x="378.13260429892114" y="40" width="67.3791127812833" height="50" fill="#A97BFF"/>
<rect x="445.51171708020445" y="40" width="61.11128833651275" height="50" fill="#00B4AB"/>
<rect x="506.6230054167172" y="40" width="46.98826696950943" height="50" fill="#5e5086"/>
<rect x="553.6112723862267" y="40" width="45.70713998609135" height="50" fill="#000000"/>
<rect x="599.318412372318" y="40" width="42.13427588890944" height="50" fill="#3D6117"/>
<rect x="641.4526882612274" y="40" width="28.996344194414846" height="50" fill="#3572A5"/>
<rect x="670.4490324556423" y="40" width="26.005346535916857" height="50" fill="None"/>
<rect x="696.4543789915591" y="40" width="24.2138103957585" height="50" fill="#89e051"/>
<rect x="720.6681893873176" y="40" width="15.776747034841806" height="50" fill="#239dad"/>
<rect x="736.4449364221595" y="40" width="12.351901593114581" height="50" fill="#000080"/>
<rect x="748.796838015274" y="40" width="10.932964137376622" height="50" fill="#000000"/>
<rect x="759.7298021526507" y="40" width="9.473193949099446" height="50" fill="#dea584"/>
<rect x="769.2029961017502" y="40" width="8.0695687680637" height="50" fill="#000000"/>
<rect x="777.2725648698139" y="40" width="7.993007394552658" height="50" fill="#f34b7d"/>
<rect x="785.2655722643666" y="40" width="4.4099351142359495" height="50" fill="#ec915c"/>
<rect x="789.6755073786026" y="40" width="3.879109591226067" height="50" fill="#000000"/>
<rect x="793.5546169698287" y="40" width="3.496302723670863" height="50" fill="#DA3434"/>
<rect x="797.0509196934995" y="40" width="2.7357930801278574" height="50" fill="#000000"/>
<rect x="799.7867127736274" y="40" width="2.720480805425649" height="50" fill="#427819"/>
<rect x="802.507193579053" y="40" width="2.2406961980897937" height="50" fill="#000000"/>
<rect x="804.7478897771429" y="40" width="1.4648742798445804" height="50" fill="#199f4b"/>
<rect x="806.2127640569875" y="40" width="1.1229001448285982" height="50" fill="#B83998"/>
<rect x="807.335664201816" y="40" width="0.8319669254866432" height="50" fill="#000000"/>
<rect x="808.1676311273027" y="40" width="0.7962382845148241" height="50" fill="#db5855"/>
<rect x="808.9638694118175" y="40" width="0.5257214314424801" height="50" fill="#0050b2"/>
<rect x="809.48959084326" y="40" width="0.5104091567402719" height="50" fill="#701516"/>
<circle cx="16" cy="116" r="6" fill="#555555" />
<text x="27" y="120" font-size="15" font-family="sans-serif" fill="#FFF">C (27.7k lines, 17.7%)</text>
<circle cx="266" cy="116" r="6" fill="#b07219" />
<text x="277" y="120" font-size="15" font-family="sans-serif" fill="#FFF">Java (23.9k lines, 15.3%)</text>
<circle cx="516" cy="116" r="6" fill="#c22d40" />
<text x="527" y="120" font-size="15" font-family="sans-serif" fill="#FFF">Scala (20.5k lines, 13.1%)</text>
<circle cx="16" cy="136" r="6" fill="#A97BFF" />
<text x="27" y="140" font-size="15" font-family="sans-serif" fill="#FFF">Kotlin (13.2k lines, 8.4%)</text>
<circle cx="266" cy="136" r="6" fill="#00B4AB" />
<text x="277" y="140" font-size="15" font-family="sans-serif" fill="#FFF">Dart (12.0k lines, 7.6%)</text>
<circle cx="516" cy="136" r="6" fill="#5e5086" />
<text x="527" y="140" font-size="15" font-family="sans-serif" fill="#FFF">Haskell (9.2k lines, 5.9%)</text>
<circle cx="16" cy="156" r="6" fill="#000000" />
<text x="27" y="160" font-size="15" font-family="sans-serif" fill="#FFF">C Header (9.0k lines, 5.7%)</text>
<circle cx="266" cy="156" r="6" fill="#3D6117" />
<text x="277" y="160" font-size="15" font-family="sans-serif" fill="#FFF">TeX (8.3k lines, 5.3%)</text>
<circle cx="516" cy="156" r="6" fill="#3572A5" />
<text x="527" y="160" font-size="15" font-family="sans-serif" fill="#FFF">Python (5.7k lines, 3.6%)</text>
<circle cx="16" cy="176" r="6" fill="None" />
<text x="27" y="180" font-size="15" font-family="sans-serif" fill="#FFF">Lean (5.1k lines, 3.3%)</text>
<circle cx="266" cy="176" r="6" fill="#89e051" />
<text x="277" y="180" font-size="15" font-family="sans-serif" fill="#FFF">Shell (4.7k lines, 3.0%)</text>
<circle cx="516" cy="176" r="6" fill="#239dad" />
<text x="527" y="180" font-size="15" font-family="sans-serif" fill="#FFF">Typst (3.1k lines, 2.0%)</text>
<circle cx="16" cy="196" r="6" fill="#000080" />
<text x="27" y="200" font-size="15" font-family="sans-serif" fill="#FFF">Lua (2.4k lines, 1.5%)</text>
<circle cx="266" cy="196" r="6" fill="#000000" />
<text x="277" y="200" font-size="15" font-family="sans-serif" fill="#FFF">GNU Style A… (2.1k lines, 1.4%)</text>
<circle cx="516" cy="196" r="6" fill="#dea584" />
<text x="527" y="200" font-size="15" font-family="sans-serif" fill="#FFF">Rust (1.9k lines, 1.2%)</text>
<circle cx="16" cy="216" r="6" fill="#000000" />
<text x="27" y="220" font-size="15" font-family="sans-serif" fill="#FFF">Batch (1.6k lines, 1.0%)</text>
<circle cx="266" cy="216" r="6" fill="#f34b7d" />
<text x="277" y="220" font-size="15" font-family="sans-serif" fill="#FFF">C++ (1.6k lines, 1.0%)</text>
<circle cx="516" cy="216" r="6" fill="#ec915c" />
<text x="527" y="220" font-size="15" font-family="sans-serif" fill="#FFF">Zig (864 lines, 0.6%)</text>
<circle cx="16" cy="236" r="6" fill="#000000" />
<text x="27" y="240" font-size="15" font-family="sans-serif" fill="#FFF">WebGPU Shad… (760 lines, 0.5%)</text>
<circle cx="266" cy="236" r="6" fill="#DA3434" />
<text x="277" y="240" font-size="15" font-family="sans-serif" fill="#FFF">CMake (685 lines, 0.4%)</text>
<circle cx="516" cy="236" r="6" fill="#000000" />
<text x="527" y="240" font-size="15" font-family="sans-serif" fill="#FFF">Cabal (536 lines, 0.3%)</text>
<circle cx="16" cy="256" r="6" fill="#427819" />
<text x="27" y="260" font-size="15" font-family="sans-serif" fill="#FFF">Makefile (533 lines, 0.3%)</text>
<circle cx="266" cy="256" r="6" fill="#000000" />
<text x="277" y="260" font-size="15" font-family="sans-serif" fill="#FFF">Templ (439 lines, 0.3%)</text>
<circle cx="516" cy="256" r="6" fill="#199f4b" />
<text x="527" y="260" font-size="15" font-family="sans-serif" fill="#FFF">Vim Script (287 lines, 0.2%)</text>
<circle cx="16" cy="276" r="6" fill="#B83998" />
<text x="27" y="280" font-size="15" font-family="sans-serif" fill="#FFF">Erlang (220 lines, 0.1%)</text>
<circle cx="266" cy="276" r="6" fill="#000000" />
<text x="277" y="280" font-size="15" font-family="sans-serif" fill="#FFF">Bitbake (163 lines, 0.1%)</text>
<circle cx="516" cy="276" r="6" fill="#db5855" />
<text x="527" y="280" font-size="15" font-family="sans-serif" fill="#FFF">Clojure (156 lines, 0.1%)</text>
<circle cx="16" cy="296" r="6" fill="#0050b2" />
<text x="27" y="300" font-size="15" font-family="sans-serif" fill="#FFF">FreeMarker (103 lines, 0.1%)</text>
<circle cx="266" cy="296" r="6" fill="#701516" />
<text x="277" y="300" font-size="15" font-family="sans-serif" fill="#FFF">Ruby (100 lines, 0.1%)</text>
</svg>