<svg width="800" height="330" xmlns="http://www.w3.org/2000/svg">
<rect width="800" height="330" fill="#212830"/>
<rect x="10" y="40" width="138.521496453116" height="50" fill="#555555"/>
<rect x="148.521496453116" y="40" width="117.66065479044491" height="50" fill="#b07219"/>
<rect x="266.1821512435609" y="40" width="100.93559055311722" height="50" fill="#c22d40"/>
<rect x="367.1177417966781" y="40" width="65.72984669100923" height="50" fill="#A97BFF"/>
<rect x="432.84758848768735" y="40" width="60.38923517623772" height="50" fill="#00B4AB"/>
<rect x="493.23682366392507" y="40" width="48.21303433777155" height="50" fill="None"/>
<rect x="541.4498580016966" y="40" width="45.27225562153456" height="50" fill="#5e5086"/>
<rect x="586.7221136232312" y="40" width="44.7608158447977" height="50" fill="#000000"/>
<rect x="631.4829294680288" y="40" width="40.5955322784888" height="50" fill="#3D6117"/>
<rect x="672.0784617465176" y="40" width="28.39474298921796" height="50" fill="#3572A5"/>
<rect x="700.4732047357356" y="40" width="23.329522123458613" height="50" fill="#89e051"/>
<rect x="723.8027268591942" y="40" width="15.200580287438989" height="50" fill="#239dad"/>
<rect x="739.0033071466332" y="40" width="11.910645569775877" height="50" fill="#000080"/>
<rect x="750.9139527164091" y="40" width="10.533692324715082" height="50" fill="#000000"/>
<rect x="761.4476450411241" y="40" width="9.127232938688698" height="50" fill="#dea584"/>
<rect x="770.5748779798129" y="40" width="7.774868144432561" height="50" fill="#000000"/>
<rect x="778.3497461242455" y="40" width="7.701102792018591" height="50" fill="#f34b7d"/>
<rect x="786.050848916264" y="40" width="4.248884299044739" height="50" fill="#ec915c"/>
<rect x="790.2997332153088" y="40" width="3.737444522307872" height="50" fill="#000000"/>
<rect x="794.0371777376167" y="40" width="3.3686177602380165" height="50" fill="#DA3434"/>
<rect x="797.4057954978548" y="40" width="2.739153419638795" height="50" fill="#427819"/>
<rect x="800.1449489174936" y="40" width="2.635881926259236" height="50" fill="#000000"/>
<rect x="802.7808308437528" y="40" width="2.1588659806488892" height="50" fill="#000000"/>
<rect x="804.9396968244017" y="40" width="1.4113770761873148" height="50" fill="#199f4b"/>
<rect x="806.3510739005891" y="40" width="1.0818918354049103" height="50" fill="#B83998"/>
<rect x="807.432965735994" y="40" width="0.8015834962318199" height="50" fill="#000000"/>
<rect x="808.2345492322258" y="40" width="0.7671596651053001" height="50" fill="#db5855"/>
<rect x="809.0017088973311" y="40" width="0.5065220865759352" height="50" fill="#0050b2"/>
<rect x="809.5082309839071" y="40" width="0.49176901609314105" height="50" fill="#701516"/>
<circle cx="16" cy="116" r="6" fill="#555555" />
<text x="27" y="120" font-size="15" font-family="sans-serif" fill="#FFF">C (28.2k lines, 17.3%)</text>
<circle cx="266" cy="116" r="6" fill="#b07219" />
<text x="277" y="120" font-size="15" font-family="sans-serif" fill="#FFF">Java (23.9k lines, 14.7%)</text>
<circle cx="516" cy="116" r="6" fill="#c22d40" />
<text x="527" y="120" font-size="15" font-family="sans-serif" fill="#FFF">Scala (20.5k lines, 12.6%)</text>
<circle cx="16" cy="136" r="6" fill="#A97BFF" />
<text x="27" y="140" font-size="15" font-family="sans-serif" fill="#FFF">Kotlin (13.4k lines, 8.2%)</text>
<circle cx="266" cy="136" r="6" fill="#00B4AB" />
<text x="277" y="140" font-size="15" font-family="sans-serif" fill="#FFF">Dart (12.3k lines, 7.5%)</text>
<circle cx="516" cy="136" r="6" fill="None" />
<text x="527" y="140" font-size="15" font-family="sans-serif" fill="#FFF">Lean (9.8k lines, 6.0%)</text>
<circle cx="16" cy="156" r="6" fill="#5e5086" />
<text x="27" y="160" font-size="15" font-family="sans-serif" fill="#FFF">Haskell (9.2k lines, 5.7%)</text>
<circle cx="266" cy="156" r="6" fill="#000000" />
<text x="277" y="160" font-size="15" font-family="sans-serif" fill="#FFF">C Header (9.1k lines, 5.6%)</text>
<circle cx="516" cy="156" r="6" fill="#3D6117" />
<text x="527" y="160" font-size="15" font-family="sans-serif" fill="#FFF">TeX (8.3k lines, 5.1%)</text>
<circle cx="16" cy="176" r="6" fill="#3572A5" />
<text x="27" y="180" font-size="15" font-family="sans-serif" fill="#FFF">Python (5.8k lines, 3.5%)</text>
<circle cx="266" cy="176" r="6" fill="#89e051" />
<text x="277" y="180" font-size="15" font-family="sans-serif" fill="#FFF">Shell (4.7k lines, 2.9%)</text>
<circle cx="516" cy="176" r="6" fill="#239dad" />
<text x="527" y="180" font-size="15" font-family="sans-serif" fill="#FFF">Typst (3.1k lines, 1.9%)</text>
<circle cx="16" cy="196" r="6" fill="#000080" />
<text x="27" y="200" font-size="15" font-family="sans-serif" fill="#FFF">Lua (2.4k lines, 1.5%)</text>
<circle cx="266" cy="196" r="6" fill="#000000" />
<text x="277" y="200" font-size="15" font-family="sans-serif" fill="#FFF">GNU Style A… (2.1k lines, 1.3%)</text>
<circle cx="516" cy="196" r="6" fill="#dea584" />
<text x="527" y="200" font-size="15" font-family="sans-serif" fill="#FFF">Rust (1.9k lines, 1.1%)</text>
<circle cx="16" cy="216" r="6" fill="#000000" />
<text x="27" y="220" font-size="15" font-family="sans-serif" fill="#FFF">Batch (1.6k lines, 1.0%)</text>
<circle cx="266" cy="216" r="6" fill="#f34b7d" />
<text x="277" y="220" font-size="15" font-family="sans-serif" fill="#FFF">C++ (1.6k lines, 1.0%)</text>
<circle cx="516" cy="216" r="6" fill="#ec915c" />
<text x="527" y="220" font-size="15" font-family="sans-serif" fill="#FFF">Zig (864 lines, 0.5%)</text>
<circle cx="16" cy="236" r="6" fill="#000000" />
<text x="27" y="240" font-size="15" font-family="sans-serif" fill="#FFF">WebGPU Shad… (760 lines, 0.5%)</text>
<circle cx="266" cy="236" r="6" fill="#DA3434" />
<text x="277" y="240" font-size="15" font-family="sans-serif" fill="#FFF">CMake (685 lines, 0.4%)</text>
<circle cx="516" cy="236" r="6" fill="#427819" />
<text x="527" y="240" font-size="15" font-family="sans-serif" fill="#FFF">Makefile (557 lines, 0.3%)</text>
<circle cx="16" cy="256" r="6" fill="#000000" />
<text x="27" y="260" font-size="15" font-family="sans-serif" fill="#FFF">Cabal (536 lines, 0.3%)</text>
<circle cx="266" cy="256" r="6" fill="#000000" />
<text x="277" y="260" font-size="15" font-family="sans-serif" fill="#FFF">Templ (439 lines, 0.3%)</text>
<circle cx="516" cy="256" r="6" fill="#199f4b" />
<text x="527" y="260" font-size="15" font-family="sans-serif" fill="#FFF">Vim Script (287 lines, 0.2%)</text>
<circle cx="16" cy="276" r="6" fill="#B83998" />
<text x="27" y="280" font-size="15" font-family="sans-serif" fill="#FFF">Erlang (220 lines, 0.1%)</text>
<circle cx="266" cy="276" r="6" fill="#000000" />
<text x="277" y="280" font-size="15" font-family="sans-serif" fill="#FFF">Bitbake (163 lines, 0.1%)</text>
<circle cx="516" cy="276" r="6" fill="#db5855" />
<text x="527" y="280" font-size="15" font-family="sans-serif" fill="#FFF">Clojure (156 lines, 0.1%)</text>
<circle cx="16" cy="296" r="6" fill="#0050b2" />
<text x="27" y="300" font-size="15" font-family="sans-serif" fill="#FFF">FreeMarker (103 lines, 0.1%)</text>
<circle cx="266" cy="296" r="6" fill="#701516" />
<text x="277" y="300" font-size="15" font-family="sans-serif" fill="#FFF">Ruby (100 lines, 0.1%)</text>
</svg>