<svg width="800" height="350" xmlns="http://www.w3.org/2000/svg">
<rect width="800" height="350" fill="#212830"/>
<rect x="10" y="40" width="319.7709152048479" height="50" fill="#3572A5"/>
<rect x="329.7709152048479" y="40" width="97.63327779304225" height="50" fill="#dea584"/>
<rect x="427.40419299789016" y="40" width="59.116380016586476" height="50" fill="#555555"/>
<rect x="486.52057301447667" y="40" width="48.248968387407395" height="50" fill="#b07219"/>
<rect x="534.7695414018841" y="40" width="43.1792573397629" height="50" fill="#c22d40"/>
<rect x="577.948798741647" y="40" width="37.78084187653923" height="50" fill="#00B4AB"/>
<rect x="615.7296406181863" y="40" width="35.84088084717009" height="50" fill="#A97BFF"/>
<rect x="651.5705214653564" y="40" width="28.589217789361975" height="50" fill="#3D6117"/>
<rect x="680.1597392547184" y="40" width="23.225084381750854" height="50" fill="None"/>
<rect x="703.3848236364693" y="40" width="18.607089831589402" height="50" fill="#5e5086"/>
<rect x="721.9919134680587" y="40" width="18.506260256258365" height="50" fill="#000000"/>
<rect x="740.498173724317" y="40" width="11.075120554361005" height="50" fill="#ec915c"/>
<rect x="751.573294278678" y="40" width="10.988407119576314" height="50" fill="#89e051"/>
<rect x="762.5617013982543" y="40" width="10.623404056877964" height="50" fill="#239dad"/>
<rect x="773.1851054551322" y="40" width="6.858427714017074" height="50" fill="#000000"/>
<rect x="780.0435331691493" y="40" width="6.255466853537479" height="50" fill="#000080"/>
<rect x="786.2990000226868" y="40" width="4.319539007181587" height="50" fill="#000000"/>
<rect x="790.6185390298683" y="40" width="3.885971833258131" height="50" fill="#f34b7d"/>
<rect x="794.5045108631265" y="40" width="3.3172930283910875" height="50" fill="#000000"/>
<rect x="797.8218038915176" y="40" width="1.9419776208757553" height="50" fill="#000000"/>
<rect x="799.7637815123933" y="40" width="1.8774466926638922" height="50" fill="#41b883"/>
<rect x="801.6412282050571" y="40" width="1.798799623905684" height="50" fill="#427819"/>
<rect x="803.4400278289628" y="40" width="1.3813651820351946" height="50" fill="#DA3434"/>
<rect x="804.821393010998" y="40" width="1.0808930475487069" height="50" fill="#000000"/>
<rect x="805.9022860585467" y="40" width="0.935698459072015" height="50" fill="#384d54"/>
<rect x="806.8379845176187" y="40" width="0.8852836714064971" height="50" fill="#000000"/>
<rect x="807.7232681890251" y="40" width="0.5787617624001472" height="50" fill="#199f4b"/>
<rect x="808.3020299514253" y="40" width="0.44365013145655885" height="50" fill="#B83998"/>
<rect x="808.7456800828819" y="40" width="0.3287044155791776" height="50" fill="#000000"/>
<rect x="809.0743844984611" y="40" width="0.31458827503283265" height="50" fill="#db5855"/>
<rect x="809.388972773494" y="40" width="0.20770892518193435" height="50" fill="#0050b2"/>
<rect x="809.5966816986759" y="40" width="0.20165915066207218" height="50" fill="#000000"/>
<rect x="809.7983408493379" y="40" width="0.20165915066207218" height="50" fill="#701516"/>
<circle cx="16" cy="116" r="6" fill="#3572A5" />
<text x="27" y="120" font-size="15" font-family="sans-serif" fill="#FFF">Python (158.6k lines, 40.0%)</text>
<circle cx="266" cy="116" r="6" fill="#dea584" />
<text x="277" y="120" font-size="15" font-family="sans-serif" fill="#FFF">Rust (48.4k lines, 12.2%)</text>
<circle cx="516" cy="116" r="6" fill="#555555" />
<text x="527" y="120" font-size="15" font-family="sans-serif" fill="#FFF">C (29.3k lines, 7.4%)</text>
<circle cx="16" cy="136" r="6" fill="#b07219" />
<text x="27" y="140" font-size="15" font-family="sans-serif" fill="#FFF">Java (23.9k lines, 6.0%)</text>
<circle cx="266" cy="136" r="6" fill="#c22d40" />
<text x="277" y="140" font-size="15" font-family="sans-serif" fill="#FFF">Scala (21.4k lines, 5.4%)</text>
<circle cx="516" cy="136" r="6" fill="#00B4AB" />
<text x="527" y="140" font-size="15" font-family="sans-serif" fill="#FFF">Dart (18.7k lines, 4.7%)</text>
<circle cx="16" cy="156" r="6" fill="#A97BFF" />
<text x="27" y="160" font-size="15" font-family="sans-serif" fill="#FFF">Kotlin (17.8k lines, 4.5%)</text>
<circle cx="266" cy="156" r="6" fill="#3D6117" />
<text x="277" y="160" font-size="15" font-family="sans-serif" fill="#FFF">TeX (14.2k lines, 3.6%)</text>
<circle cx="516" cy="156" r="6" fill="None" />
<text x="527" y="160" font-size="15" font-family="sans-serif" fill="#FFF">Lean (11.5k lines, 2.9%)</text>
<circle cx="16" cy="176" r="6" fill="#5e5086" />
<text x="27" y="180" font-size="15" font-family="sans-serif" fill="#FFF">Haskell (9.2k lines, 2.3%)</text>
<circle cx="266" cy="176" r="6" fill="#000000" />
<text x="277" y="180" font-size="15" font-family="sans-serif" fill="#FFF">C Header (9.2k lines, 2.3%)</text>
<circle cx="516" cy="176" r="6" fill="#ec915c" />
<text x="527" y="180" font-size="15" font-family="sans-serif" fill="#FFF">Zig (5.5k lines, 1.4%)</text>
<circle cx="16" cy="196" r="6" fill="#89e051" />
<text x="27" y="200" font-size="15" font-family="sans-serif" fill="#FFF">Shell (5.4k lines, 1.4%)</text>
<circle cx="266" cy="196" r="6" fill="#239dad" />
<text x="277" y="200" font-size="15" font-family="sans-serif" fill="#FFF">Typst (5.3k lines, 1.3%)</text>
<circle cx="516" cy="196" r="6" fill="#000000" />
<text x="527" y="200" font-size="15" font-family="sans-serif" fill="#FFF">Jupyter Not… (3.4k lines, 0.9%)</text>
<circle cx="16" cy="216" r="6" fill="#000080" />
<text x="27" y="220" font-size="15" font-family="sans-serif" fill="#FFF">Lua (3.1k lines, 0.8%)</text>
<circle cx="266" cy="216" r="6" fill="#000000" />
<text x="277" y="220" font-size="15" font-family="sans-serif" fill="#FFF">GNU Style A… (2.1k lines, 0.5%)</text>
<circle cx="516" cy="216" r="6" fill="#f34b7d" />
<text x="527" y="220" font-size="15" font-family="sans-serif" fill="#FFF">C++ (1.9k lines, 0.5%)</text>
<circle cx="16" cy="236" r="6" fill="#000000" />
<text x="27" y="240" font-size="15" font-family="sans-serif" fill="#FFF">Batch (1.6k lines, 0.4%)</text>
<circle cx="266" cy="236" r="6" fill="#000000" />
<text x="277" y="240" font-size="15" font-family="sans-serif" fill="#FFF">WebGPU Shad… (963 lines, 0.2%)</text>
<circle cx="516" cy="236" r="6" fill="#41b883" />
<text x="527" y="240" font-size="15" font-family="sans-serif" fill="#FFF">Vue (931 lines, 0.2%)</text>
<circle cx="16" cy="256" r="6" fill="#427819" />
<text x="27" y="260" font-size="15" font-family="sans-serif" fill="#FFF">Makefile (892 lines, 0.2%)</text>
<circle cx="266" cy="256" r="6" fill="#DA3434" />
<text x="277" y="260" font-size="15" font-family="sans-serif" fill="#FFF">CMake (685 lines, 0.2%)</text>
<circle cx="516" cy="256" r="6" fill="#000000" />
<text x="527" y="260" font-size="15" font-family="sans-serif" fill="#FFF">Cabal (536 lines, 0.1%)</text>
<circle cx="16" cy="276" r="6" fill="#384d54" />
<text x="27" y="280" font-size="15" font-family="sans-serif" fill="#FFF">Just (464 lines, 0.1%)</text>
<circle cx="266" cy="276" r="6" fill="#000000" />
<text x="277" y="280" font-size="15" font-family="sans-serif" fill="#FFF">Templ (439 lines, 0.1%)</text>
<circle cx="516" cy="276" r="6" fill="#199f4b" />
<text x="527" y="280" font-size="15" font-family="sans-serif" fill="#FFF">Vim Script (287 lines, 0.1%)</text>
<circle cx="16" cy="296" r="6" fill="#B83998" />
<text x="27" y="300" font-size="15" font-family="sans-serif" fill="#FFF">Erlang (220 lines, 0.1%)</text>
<circle cx="266" cy="296" r="6" fill="#000000" />
<text x="277" y="300" font-size="15" font-family="sans-serif" fill="#FFF">Bitbake (163 lines, 0.0%)</text>
<circle cx="516" cy="296" r="6" fill="#db5855" />
<text x="527" y="300" font-size="15" font-family="sans-serif" fill="#FFF">Clojure (156 lines, 0.0%)</text>
<circle cx="16" cy="316" r="6" fill="#0050b2" />
<text x="27" y="320" font-size="15" font-family="sans-serif" fill="#FFF">FreeMarker (103 lines, 0.0%)</text>
<circle cx="266" cy="316" r="6" fill="#000000" />
<text x="277" y="320" font-size="15" font-family="sans-serif" fill="#FFF">Fish (100 lines, 0.0%)</text>
<circle cx="516" cy="316" r="6" fill="#701516" />
<text x="527" y="320" font-size="15" font-family="sans-serif" fill="#FFF">Ruby (100 lines, 0.0%)</text>
</svg>