<svg width="800" height="350" xmlns="http://www.w3.org/2000/svg">
<rect width="800" height="350" fill="#212830"/>
<rect x="10" y="40" width="103.22179486040666" height="50" fill="#555555"/>
<rect x="113.22179486040666" y="40" width="85.01203620632991" height="50" fill="#b07219"/>
<rect x="198.23383106673657" y="40" width="84.62119260594972" height="50" fill="#3572A5"/>
<rect x="282.8550236726863" y="40" width="76.07948337582276" height="50" fill="#c22d40"/>
<rect x="358.93450704850903" y="40" width="70.76401041065226" height="50" fill="#dea584"/>
<rect x="429.6985174591613" y="40" width="66.56777139202501" height="50" fill="#00B4AB"/>
<rect x="496.2662888511863" y="40" width="60.555886193449815" height="50" fill="#A97BFF"/>
<rect x="556.8221750446361" y="40" width="44.36785489043055" height="50" fill="None"/>
<rect x="601.1900299350666" y="40" width="32.78467182461782" height="50" fill="#5e5086"/>
<rect x="633.9747017596844" y="40" width="32.60701564262683" height="50" fill="#000000"/>
<rect x="666.5817174023113" y="40" width="29.331035646712916" height="50" fill="#3D6117"/>
<rect x="695.9127530490242" y="40" width="19.513755029890653" height="50" fill="#ec915c"/>
<rect x="715.4265080789148" y="40" width="18.462030432503976" height="50" fill="#89e051"/>
<rect x="733.8885385114188" y="40" width="16.34436874317134" height="50" fill="#239dad"/>
<rect x="750.2329072545901" y="40" width="12.084173499027333" height="50" fill="#000000"/>
<rect x="762.3170807536175" y="40" width="11.021789530721197" height="50" fill="#000080"/>
<rect x="773.3388702843387" y="40" width="7.610790836494133" height="50" fill="#000000"/>
<rect x="780.9496611208328" y="40" width="6.846869253932864" height="50" fill="#f34b7d"/>
<rect x="787.7965303747657" y="40" width="5.844888387503664" height="50" fill="#000000"/>
<rect x="793.6414187622694" y="40" width="3.1160894321220143" height="50" fill="#000000"/>
<rect x="796.7575081943914" y="40" width="2.551142773390657" height="50" fill="#427819"/>
<rect x="799.3086509677821" y="40" width="2.433889693276602" height="50" fill="#DA3434"/>
<rect x="801.7425406610587" y="40" width="1.9044742709434432" height="50" fill="#000000"/>
<rect x="803.6470149320021" y="40" width="1.559821277880917" height="50" fill="#000000"/>
<rect x="805.206836209883" y="40" width="1.0197464846282989" height="50" fill="#199f4b"/>
<rect x="806.2265826945113" y="40" width="0.7816872007603684" height="50" fill="#B83998"/>
<rect x="807.0082698952717" y="40" width="0.7816872007603684" height="50" fill="#41b883"/>
<rect x="807.7899570960321" y="40" width="0.5791591532906366" height="50" fill="#000000"/>
<rect x="808.3691162493228" y="40" width="0.5542872878118976" height="50" fill="#db5855"/>
<rect x="808.9234035371347" y="40" width="0.3659717349014452" height="50" fill="#0050b2"/>
<rect x="809.2893752720362" y="40" width="0.3553123639819857" height="50" fill="#000000"/>
<rect x="809.6446876360181" y="40" width="0.3553123639819857" height="50" fill="#701516"/>
<circle cx="16" cy="116" r="6" fill="#555555" />
<text x="27" y="120" font-size="15" font-family="sans-serif" fill="#FFF">C (29.1k lines, 12.9%)</text>
<circle cx="266" cy="116" r="6" fill="#b07219" />
<text x="277" y="120" font-size="15" font-family="sans-serif" fill="#FFF">Java (23.9k lines, 10.6%)</text>
<circle cx="516" cy="116" r="6" fill="#3572A5" />
<text x="527" y="120" font-size="15" font-family="sans-serif" fill="#FFF">Python (23.8k lines, 10.6%)</text>
<circle cx="16" cy="136" r="6" fill="#c22d40" />
<text x="27" y="140" font-size="15" font-family="sans-serif" fill="#FFF">Scala (21.4k lines, 9.5%)</text>
<circle cx="266" cy="136" r="6" fill="#dea584" />
<text x="277" y="140" font-size="15" font-family="sans-serif" fill="#FFF">Rust (19.9k lines, 8.8%)</text>
<circle cx="516" cy="136" r="6" fill="#00B4AB" />
<text x="527" y="140" font-size="15" font-family="sans-serif" fill="#FFF">Dart (18.7k lines, 8.3%)</text>
<circle cx="16" cy="156" r="6" fill="#A97BFF" />
<text x="27" y="160" font-size="15" font-family="sans-serif" fill="#FFF">Kotlin (17.0k lines, 7.6%)</text>
<circle cx="266" cy="156" r="6" fill="None" />
<text x="277" y="160" font-size="15" font-family="sans-serif" fill="#FFF">Lean (12.5k lines, 5.5%)</text>
<circle cx="516" cy="156" r="6" fill="#5e5086" />
<text x="527" y="160" font-size="15" font-family="sans-serif" fill="#FFF">Haskell (9.2k lines, 4.1%)</text>
<circle cx="16" cy="176" r="6" fill="#000000" />
<text x="27" y="180" font-size="15" font-family="sans-serif" fill="#FFF">C Header (9.2k lines, 4.1%)</text>
<circle cx="266" cy="176" r="6" fill="#3D6117" />
<text x="277" y="180" font-size="15" font-family="sans-serif" fill="#FFF">TeX (8.3k lines, 3.7%)</text>
<circle cx="516" cy="176" r="6" fill="#ec915c" />
<text x="527" y="180" font-size="15" font-family="sans-serif" fill="#FFF">Zig (5.5k lines, 2.4%)</text>
<circle cx="16" cy="196" r="6" fill="#89e051" />
<text x="27" y="200" font-size="15" font-family="sans-serif" fill="#FFF">Shell (5.2k lines, 2.3%)</text>
<circle cx="266" cy="196" r="6" fill="#239dad" />
<text x="277" y="200" font-size="15" font-family="sans-serif" fill="#FFF">Typst (4.6k lines, 2.0%)</text>
<circle cx="516" cy="196" r="6" fill="#000000" />
<text x="527" y="200" font-size="15" font-family="sans-serif" fill="#FFF">Jupyter Not… (3.4k lines, 1.5%)</text>
<circle cx="16" cy="216" r="6" fill="#000080" />
<text x="27" y="220" font-size="15" font-family="sans-serif" fill="#FFF">Lua (3.1k lines, 1.4%)</text>
<circle cx="266" cy="216" r="6" fill="#000000" />
<text x="277" y="220" font-size="15" font-family="sans-serif" fill="#FFF">GNU Style A… (2.1k lines, 1.0%)</text>
<circle cx="516" cy="216" r="6" fill="#f34b7d" />
<text x="527" y="220" font-size="15" font-family="sans-serif" fill="#FFF">C++ (1.9k lines, 0.9%)</text>
<circle cx="16" cy="236" r="6" fill="#000000" />
<text x="27" y="240" font-size="15" font-family="sans-serif" fill="#FFF">Batch (1.6k lines, 0.7%)</text>
<circle cx="266" cy="236" r="6" fill="#000000" />
<text x="277" y="240" font-size="15" font-family="sans-serif" fill="#FFF">WebGPU Shad… (877 lines, 0.4%)</text>
<circle cx="516" cy="236" r="6" fill="#427819" />
<text x="527" y="240" font-size="15" font-family="sans-serif" fill="#FFF">Makefile (718 lines, 0.3%)</text>
<circle cx="16" cy="256" r="6" fill="#DA3434" />
<text x="27" y="260" font-size="15" font-family="sans-serif" fill="#FFF">CMake (685 lines, 0.3%)</text>
<circle cx="266" cy="256" r="6" fill="#000000" />
<text x="277" y="260" font-size="15" font-family="sans-serif" fill="#FFF">Cabal (536 lines, 0.2%)</text>
<circle cx="516" cy="256" r="6" fill="#000000" />
<text x="527" y="260" font-size="15" font-family="sans-serif" fill="#FFF">Templ (439 lines, 0.2%)</text>
<circle cx="16" cy="276" r="6" fill="#199f4b" />
<text x="27" y="280" font-size="15" font-family="sans-serif" fill="#FFF">Vim Script (287 lines, 0.1%)</text>
<circle cx="266" cy="276" r="6" fill="#B83998" />
<text x="277" y="280" font-size="15" font-family="sans-serif" fill="#FFF">Erlang (220 lines, 0.1%)</text>
<circle cx="516" cy="276" r="6" fill="#41b883" />
<text x="527" y="280" font-size="15" font-family="sans-serif" fill="#FFF">Vue (220 lines, 0.1%)</text>
<circle cx="16" cy="296" r="6" fill="#000000" />
<text x="27" y="300" font-size="15" font-family="sans-serif" fill="#FFF">Bitbake (163 lines, 0.1%)</text>
<circle cx="266" cy="296" r="6" fill="#db5855" />
<text x="277" y="300" font-size="15" font-family="sans-serif" fill="#FFF">Clojure (156 lines, 0.1%)</text>
<circle cx="516" cy="296" r="6" fill="#0050b2" />
<text x="527" y="300" font-size="15" font-family="sans-serif" fill="#FFF">FreeMarker (103 lines, 0.0%)</text>
<circle cx="16" cy="316" r="6" fill="#000000" />
<text x="27" y="320" font-size="15" font-family="sans-serif" fill="#FFF">Fish (100 lines, 0.0%)</text>
<circle cx="266" cy="316" r="6" fill="#701516" />
<text x="277" y="320" font-size="15" font-family="sans-serif" fill="#FFF">Ruby (100 lines, 0.0%)</text>
</svg>