<svg width="800" height="330" xmlns="http://www.w3.org/2000/svg">
<rect width="800" height="330" fill="#212830"/>
<rect x="10" y="40" width="138.93656900463648" height="50" fill="#555555"/>
<rect x="148.93656900463648" y="40" width="118.01321890105554" height="50" fill="#b07219"/>
<rect x="266.949787905692" y="40" width="101.23803886751503" height="50" fill="#c22d40"/>
<rect x="368.187826773207" y="40" width="65.92680280161784" height="50" fill="#A97BFF"/>
<rect x="434.11462957482485" y="40" width="58.17302949590608" height="50" fill="#00B4AB"/>
<rect x="492.2876590707309" y="40" width="48.357502219591595" height="50" fill="None"/>
<rect x="540.6451612903224" y="40" width="45.407911610930256" height="50" fill="#5e5086"/>
<rect x="586.0530729012527" y="40" width="44.894939331163066" height="50" fill="#000000"/>
<rect x="630.9480122324157" y="40" width="40.717174706520666" height="50" fill="#3D6117"/>
<rect x="671.6651869389364" y="40" width="28.479826378613005" height="50" fill="#3572A5"/>
<rect x="700.1450133175493" y="40" width="23.39942783861103" height="50" fill="#89e051"/>
<rect x="723.5444411561604" y="40" width="15.246128045772911" height="50" fill="#239dad"/>
<rect x="738.7905692019333" y="40" width="11.946335207655125" height="50" fill="#000080"/>
<rect x="750.7369044095884" y="40" width="10.565255992897308" height="50" fill="#000000"/>
<rect x="761.3021604024857" y="40" width="9.154582223537536" height="50" fill="#dea584"/>
<rect x="770.4567426260232" y="40" width="7.79816513761468" height="50" fill="#000000"/>
<rect x="778.2549077636379" y="40" width="7.724178751109796" height="50" fill="#f34b7d"/>
<rect x="785.9790865147477" y="40" width="4.261615862681267" height="50" fill="#ec915c"/>
<rect x="790.240702377429" y="40" width="3.748643582914077" height="50" fill="#000000"/>
<rect x="793.989345960343" y="40" width="3.3787116503896617" height="50" fill="#DA3434"/>
<rect x="797.3680576107326" y="40" width="2.7473611522146593" height="50" fill="#427819"/>
<rect x="800.1154187629473" y="40" width="2.643780211107823" height="50" fill="#000000"/>
<rect x="802.7591989740552" y="40" width="2.1653349117095786" height="50" fill="#000000"/>
<rect x="804.9245338857647" y="40" width="1.4156061951267633" height="50" fill="#199f4b"/>
<rect x="806.3401400808915" y="40" width="1.0851336687382855" height="50" fill="#B83998"/>
<rect x="807.4252737496298" y="40" width="0.8039854000197297" height="50" fill="#000000"/>
<rect x="808.2292591496496" y="40" width="0.7694584196507843" height="50" fill="#db5855"/>
<rect x="808.9987175693003" y="40" width="0.5080398540001972" height="50" fill="#0050b2"/>
<rect x="809.5067574233005" y="40" width="0.49324257669922067" height="50" fill="#701516"/>
<circle cx="16" cy="116" r="6" fill="#555555" />
<text x="27" y="120" font-size="15" font-family="sans-serif" fill="#FFF">C (28.2k lines, 17.4%)</text>
<circle cx="266" cy="116" r="6" fill="#b07219" />
<text x="277" y="120" font-size="15" font-family="sans-serif" fill="#FFF">Java (23.9k lines, 14.8%)</text>
<circle cx="516" cy="116" r="6" fill="#c22d40" />
<text x="527" y="120" font-size="15" font-family="sans-serif" fill="#FFF">Scala (20.5k lines, 12.7%)</text>
<circle cx="16" cy="136" r="6" fill="#A97BFF" />
<text x="27" y="140" font-size="15" font-family="sans-serif" fill="#FFF">Kotlin (13.4k lines, 8.2%)</text>
<circle cx="266" cy="136" r="6" fill="#00B4AB" />
<text x="277" y="140" font-size="15" font-family="sans-serif" fill="#FFF">Dart (11.8k lines, 7.3%)</text>
<circle cx="516" cy="136" r="6" fill="None" />
<text x="527" y="140" font-size="15" font-family="sans-serif" fill="#FFF">Lean (9.8k lines, 6.0%)</text>
<circle cx="16" cy="156" r="6" fill="#5e5086" />
<text x="27" y="160" font-size="15" font-family="sans-serif" fill="#FFF">Haskell (9.2k lines, 5.7%)</text>
<circle cx="266" cy="156" r="6" fill="#000000" />
<text x="277" y="160" font-size="15" font-family="sans-serif" fill="#FFF">C Header (9.1k lines, 5.6%)</text>
<circle cx="516" cy="156" r="6" fill="#3D6117" />
<text x="527" y="160" font-size="15" font-family="sans-serif" fill="#FFF">TeX (8.3k lines, 5.1%)</text>
<circle cx="16" cy="176" r="6" fill="#3572A5" />
<text x="27" y="180" font-size="15" font-family="sans-serif" fill="#FFF">Python (5.8k lines, 3.6%)</text>
<circle cx="266" cy="176" r="6" fill="#89e051" />
<text x="277" y="180" font-size="15" font-family="sans-serif" fill="#FFF">Shell (4.7k lines, 2.9%)</text>
<circle cx="516" cy="176" r="6" fill="#239dad" />
<text x="527" y="180" font-size="15" font-family="sans-serif" fill="#FFF">Typst (3.1k lines, 1.9%)</text>
<circle cx="16" cy="196" r="6" fill="#000080" />
<text x="27" y="200" font-size="15" font-family="sans-serif" fill="#FFF">Lua (2.4k lines, 1.5%)</text>
<circle cx="266" cy="196" r="6" fill="#000000" />
<text x="277" y="200" font-size="15" font-family="sans-serif" fill="#FFF">GNU Style A… (2.1k lines, 1.3%)</text>
<circle cx="516" cy="196" r="6" fill="#dea584" />
<text x="527" y="200" font-size="15" font-family="sans-serif" fill="#FFF">Rust (1.9k lines, 1.1%)</text>
<circle cx="16" cy="216" r="6" fill="#000000" />
<text x="27" y="220" font-size="15" font-family="sans-serif" fill="#FFF">Batch (1.6k lines, 1.0%)</text>
<circle cx="266" cy="216" r="6" fill="#f34b7d" />
<text x="277" y="220" font-size="15" font-family="sans-serif" fill="#FFF">C++ (1.6k lines, 1.0%)</text>
<circle cx="516" cy="216" r="6" fill="#ec915c" />
<text x="527" y="220" font-size="15" font-family="sans-serif" fill="#FFF">Zig (864 lines, 0.5%)</text>
<circle cx="16" cy="236" r="6" fill="#000000" />
<text x="27" y="240" font-size="15" font-family="sans-serif" fill="#FFF">WebGPU Shad… (760 lines, 0.5%)</text>
<circle cx="266" cy="236" r="6" fill="#DA3434" />
<text x="277" y="240" font-size="15" font-family="sans-serif" fill="#FFF">CMake (685 lines, 0.4%)</text>
<circle cx="516" cy="236" r="6" fill="#427819" />
<text x="527" y="240" font-size="15" font-family="sans-serif" fill="#FFF">Makefile (557 lines, 0.3%)</text>
<circle cx="16" cy="256" r="6" fill="#000000" />
<text x="27" y="260" font-size="15" font-family="sans-serif" fill="#FFF">Cabal (536 lines, 0.3%)</text>
<circle cx="266" cy="256" r="6" fill="#000000" />
<text x="277" y="260" font-size="15" font-family="sans-serif" fill="#FFF">Templ (439 lines, 0.3%)</text>
<circle cx="516" cy="256" r="6" fill="#199f4b" />
<text x="527" y="260" font-size="15" font-family="sans-serif" fill="#FFF">Vim Script (287 lines, 0.2%)</text>
<circle cx="16" cy="276" r="6" fill="#B83998" />
<text x="27" y="280" font-size="15" font-family="sans-serif" fill="#FFF">Erlang (220 lines, 0.1%)</text>
<circle cx="266" cy="276" r="6" fill="#000000" />
<text x="277" y="280" font-size="15" font-family="sans-serif" fill="#FFF">Bitbake (163 lines, 0.1%)</text>
<circle cx="516" cy="276" r="6" fill="#db5855" />
<text x="527" y="280" font-size="15" font-family="sans-serif" fill="#FFF">Clojure (156 lines, 0.1%)</text>
<circle cx="16" cy="296" r="6" fill="#0050b2" />
<text x="27" y="300" font-size="15" font-family="sans-serif" fill="#FFF">FreeMarker (103 lines, 0.1%)</text>
<circle cx="266" cy="296" r="6" fill="#701516" />
<text x="277" y="300" font-size="15" font-family="sans-serif" fill="#FFF">Ruby (100 lines, 0.1%)</text>
</svg>