<svg width="800" height="350" xmlns="http://www.w3.org/2000/svg">
<rect width="800" height="350" fill="#212830"/>
<rect x="10" y="40" width="112.50211781335165" height="50" fill="#555555"/>
<rect x="122.50211781335165" y="40" width="92.65518126061934" height="50" fill="#b07219"/>
<rect x="215.157299073971" y="40" width="82.91953277406925" height="50" fill="#c22d40"/>
<rect x="298.07683184804023" y="40" width="72.55265489081765" height="50" fill="#00B4AB"/>
<rect x="370.62948673885785" y="40" width="65.88795678208548" height="50" fill="#A97BFF"/>
<rect x="436.51744352094335" y="40" width="64.76491061617476" height="50" fill="#3572A5"/>
<rect x="501.2823541371181" y="40" width="46.30822776538017" height="50" fill="#dea584"/>
<rect x="547.5905819024982" y="40" width="44.60042307859871" height="50" fill="None"/>
<rect x="592.191004981097" y="40" width="35.73223094089001" height="50" fill="#5e5086"/>
<rect x="627.9232359219869" y="40" width="35.53860229159506" height="50" fill="#000000"/>
<rect x="663.461838213582" y="40" width="31.9680899985962" height="50" fill="#3D6117"/>
<rect x="695.4299282121782" y="40" width="19.850809125718243" height="50" fill="#89e051"/>
<rect x="715.2807373378964" y="40" width="17.178733765447934" height="50" fill="#239dad"/>
<rect x="732.4594711033444" y="40" width="15.796225209481996" height="50" fill="#ec915c"/>
<rect x="748.2556963128264" y="40" width="13.170620725042479" height="50" fill="#000000"/>
<rect x="761.4263170378689" y="40" width="9.394862063790958" height="50" fill="#000080"/>
<rect x="770.8211791016598" y="40" width="8.295051335795645" height="50" fill="#000000"/>
<rect x="779.1162304374554" y="40" width="7.462448143827361" height="50" fill="#f34b7d"/>
<rect x="786.5786785812828" y="40" width="6.3703825618038445" height="50" fill="#000000"/>
<rect x="792.9490611430866" y="40" width="3.3962465086334173" height="50" fill="#000000"/>
<rect x="796.3453076517201" y="40" width="2.780507403875477" height="50" fill="#427819"/>
<rect x="799.1258150555956" y="40" width="2.6527124953408103" height="50" fill="#DA3434"/>
<rect x="801.7785275509364" y="40" width="2.0756991204418607" height="50" fill="#000000"/>
<rect x="803.8542266713782" y="40" width="1.7000595408096582" height="50" fill="#000000"/>
<rect x="805.5542862121879" y="40" width="1.1114284469530111" height="50" fill="#199f4b"/>
<rect x="806.6657146591409" y="40" width="0.8519660568977785" height="50" fill="#B83998"/>
<rect x="807.5176807160387" y="40" width="0.6312293967015359" height="50" fill="#000000"/>
<rect x="808.1489101127403" y="40" width="0.604121385800243" height="50" fill="#db5855"/>
<rect x="808.7530314985405" y="40" width="0.46083618532198023" height="50" fill="#41b883"/>
<rect x="809.2138676838625" y="40" width="0.39887501754759636" height="50" fill="#0050b2"/>
<rect x="809.6127427014102" y="40" width="0.38725729858989927" height="50" fill="#701516"/>
<circle cx="16" cy="116" r="6" fill="#555555" />
<text x="27" y="120" font-size="15" font-family="sans-serif" fill="#FFF">C (29.1k lines, 14.1%)</text>
<circle cx="266" cy="116" r="6" fill="#b07219" />
<text x="277" y="120" font-size="15" font-family="sans-serif" fill="#FFF">Java (23.9k lines, 11.6%)</text>
<circle cx="516" cy="116" r="6" fill="#c22d40" />
<text x="527" y="120" font-size="15" font-family="sans-serif" fill="#FFF">Scala (21.4k lines, 10.4%)</text>
<circle cx="16" cy="136" r="6" fill="#00B4AB" />
<text x="27" y="140" font-size="15" font-family="sans-serif" fill="#FFF">Dart (18.7k lines, 9.1%)</text>
<circle cx="266" cy="136" r="6" fill="#A97BFF" />
<text x="277" y="140" font-size="15" font-family="sans-serif" fill="#FFF">Kotlin (17.0k lines, 8.2%)</text>
<circle cx="516" cy="136" r="6" fill="#3572A5" />
<text x="527" y="140" font-size="15" font-family="sans-serif" fill="#FFF">Python (16.7k lines, 8.1%)</text>
<circle cx="16" cy="156" r="6" fill="#dea584" />
<text x="27" y="160" font-size="15" font-family="sans-serif" fill="#FFF">Rust (12.0k lines, 5.8%)</text>
<circle cx="266" cy="156" r="6" fill="None" />
<text x="277" y="160" font-size="15" font-family="sans-serif" fill="#FFF">Lean (11.5k lines, 5.6%)</text>
<circle cx="516" cy="156" r="6" fill="#5e5086" />
<text x="527" y="160" font-size="15" font-family="sans-serif" fill="#FFF">Haskell (9.2k lines, 4.5%)</text>
<circle cx="16" cy="176" r="6" fill="#000000" />
<text x="27" y="180" font-size="15" font-family="sans-serif" fill="#FFF">C Header (9.2k lines, 4.4%)</text>
<circle cx="266" cy="176" r="6" fill="#3D6117" />
<text x="277" y="180" font-size="15" font-family="sans-serif" fill="#FFF">TeX (8.3k lines, 4.0%)</text>
<circle cx="516" cy="176" r="6" fill="#89e051" />
<text x="527" y="180" font-size="15" font-family="sans-serif" fill="#FFF">Shell (5.1k lines, 2.5%)</text>
<circle cx="16" cy="196" r="6" fill="#239dad" />
<text x="27" y="200" font-size="15" font-family="sans-serif" fill="#FFF">Typst (4.4k lines, 2.1%)</text>
<circle cx="266" cy="196" r="6" fill="#ec915c" />
<text x="277" y="200" font-size="15" font-family="sans-serif" fill="#FFF">Zig (4.1k lines, 2.0%)</text>
<circle cx="516" cy="196" r="6" fill="#000000" />
<text x="527" y="200" font-size="15" font-family="sans-serif" fill="#FFF">Jupyter Not… (3.4k lines, 1.6%)</text>
<circle cx="16" cy="216" r="6" fill="#000080" />
<text x="27" y="220" font-size="15" font-family="sans-serif" fill="#FFF">Lua (2.4k lines, 1.2%)</text>
<circle cx="266" cy="216" r="6" fill="#000000" />
<text x="277" y="220" font-size="15" font-family="sans-serif" fill="#FFF">GNU Style A… (2.1k lines, 1.0%)</text>
<circle cx="516" cy="216" r="6" fill="#f34b7d" />
<text x="527" y="220" font-size="15" font-family="sans-serif" fill="#FFF">C++ (1.9k lines, 0.9%)</text>
<circle cx="16" cy="236" r="6" fill="#000000" />
<text x="27" y="240" font-size="15" font-family="sans-serif" fill="#FFF">Batch (1.6k lines, 0.8%)</text>
<circle cx="266" cy="236" r="6" fill="#000000" />
<text x="277" y="240" font-size="15" font-family="sans-serif" fill="#FFF">WebGPU Shad… (877 lines, 0.4%)</text>
<circle cx="516" cy="236" r="6" fill="#427819" />
<text x="527" y="240" font-size="15" font-family="sans-serif" fill="#FFF">Makefile (718 lines, 0.3%)</text>
<circle cx="16" cy="256" r="6" fill="#DA3434" />
<text x="27" y="260" font-size="15" font-family="sans-serif" fill="#FFF">CMake (685 lines, 0.3%)</text>
<circle cx="266" cy="256" r="6" fill="#000000" />
<text x="277" y="260" font-size="15" font-family="sans-serif" fill="#FFF">Cabal (536 lines, 0.3%)</text>
<circle cx="516" cy="256" r="6" fill="#000000" />
<text x="527" y="260" font-size="15" font-family="sans-serif" fill="#FFF">Templ (439 lines, 0.2%)</text>
<circle cx="16" cy="276" r="6" fill="#199f4b" />
<text x="27" y="280" font-size="15" font-family="sans-serif" fill="#FFF">Vim Script (287 lines, 0.1%)</text>
<circle cx="266" cy="276" r="6" fill="#B83998" />
<text x="277" y="280" font-size="15" font-family="sans-serif" fill="#FFF">Erlang (220 lines, 0.1%)</text>
<circle cx="516" cy="276" r="6" fill="#000000" />
<text x="527" y="280" font-size="15" font-family="sans-serif" fill="#FFF">Bitbake (163 lines, 0.1%)</text>
<circle cx="16" cy="296" r="6" fill="#db5855" />
<text x="27" y="300" font-size="15" font-family="sans-serif" fill="#FFF">Clojure (156 lines, 0.1%)</text>
<circle cx="266" cy="296" r="6" fill="#41b883" />
<text x="277" y="300" font-size="15" font-family="sans-serif" fill="#FFF">Vue (119 lines, 0.1%)</text>
<circle cx="516" cy="296" r="6" fill="#0050b2" />
<text x="527" y="300" font-size="15" font-family="sans-serif" fill="#FFF">FreeMarker (103 lines, 0.0%)</text>
<circle cx="16" cy="316" r="6" fill="#701516" />
<text x="27" y="320" font-size="15" font-family="sans-serif" fill="#FFF">Ruby (100 lines, 0.0%)</text>
</svg>