<svg width="800" height="350" xmlns="http://www.w3.org/2000/svg">
<rect x="10" y="40" width="131.17705374682976" height="50" fill="#555555"/>
<rect x="141.17705374682976" y="40" width="116.41476958259082" height="50" fill="#b07219"/>
<rect x="257.59182332942055" y="40" width="99.86680371489915" height="50" fill="#c22d40"/>
<rect x="357.4586270443197" y="40" width="89.40572561565268" height="50" fill="#A97BFF"/>
<rect x="446.8643526599724" y="40" width="62.260444352538336" height="50" fill="#00B4AB"/>
<rect x="509.1247970125107" y="40" width="44.792876735657075" height="50" fill="#5e5086"/>
<rect x="553.9176737481678" y="40" width="43.021791885366035" height="50" fill="#000000"/>
<rect x="596.9394656335338" y="40" width="40.16567428338574" height="50" fill="#3D6117"/>
<rect x="637.1051399169196" y="40" width="33.05700679361874" height="50" fill="#3572A5"/>
<rect x="670.1621467105383" y="40" width="24.508116458560142" height="50" fill="#89e051"/>
<rect x="694.6702631690985" y="40" width="23.71988638782623" height="50" fill="None"/>
<rect x="718.3901495569247" y="40" width="12.81603707600703" height="50" fill="#239dad"/>
<rect x="731.2061866329317" y="40" width="11.72127308887659" height="50" fill="#000080"/>
<rect x="742.9274597218083" y="40" width="10.4221531574818" height="50" fill="#000000"/>
<rect x="753.3496128792901" y="40" width="9.030586489395995" height="50" fill="#dea584"/>
<rect x="762.3801993686861" y="40" width="8.038000474397727" height="50" fill="#000000"/>
<rect x="770.4181998430838" y="40" width="7.619557350427871" height="50" fill="#f34b7d"/>
<rect x="778.0377571935117" y="40" width="7.619557350427871" height="50" fill="#e38c00"/>
<rect x="785.6573145439395" y="40" width="4.203893710580894" height="50" fill="#ec915c"/>
<rect x="789.8612082545204" y="40" width="3.697869467640601" height="50" fill="#000000"/>
<rect x="793.5590777221611" y="40" width="3.3329481385971205" height="50" fill="#DA3434"/>
<rect x="796.8920258607582" y="40" width="2.60797109823074" height="50" fill="#000000"/>
<rect x="799.499996958989" y="40" width="2.4182120071281297" height="50" fill="#427819"/>
<rect x="801.918208966117" y="40" width="2.136006179334505" height="50" fill="#000000"/>
<rect x="804.0542151454515" y="40" width="1.5278039642620376" height="50" fill="#384d54"/>
<rect x="805.5820191097135" y="40" width="1.0704358985275424" height="50" fill="#B83998"/>
<rect x="806.6524550082411" y="40" width="0.8076925416162365" height="50" fill="#199f4b"/>
<rect x="807.4601475498573" y="40" width="0.7930956884544973" height="50" fill="#000000"/>
<rect x="808.2532432383118" y="40" width="0.7590363644104392" height="50" fill="#db5855"/>
<rect x="809.0122796027223" y="40" width="0.5011586252197131" height="50" fill="#0050b2"/>
<rect x="809.513438227942" y="40" width="0.48656177205797385" height="50" fill="#701516"/>
<circle cx="16" cy="116" r="6" fill="#555555" />
<text x="27" y="120" font-size="15" font-family="sans-serif" fill="#FFF">C (27.0k lines, 16.4%)</text>
<circle cx="266" cy="116" r="6" fill="#b07219" />
<text x="277" y="120" font-size="15" font-family="sans-serif" fill="#FFF">Java (23.9k lines, 14.6%)</text>
<circle cx="516" cy="116" r="6" fill="#c22d40" />
<text x="527" y="120" font-size="15" font-family="sans-serif" fill="#FFF">Scala (20.5k lines, 12.5%)</text>
<circle cx="16" cy="136" r="6" fill="#A97BFF" />
<text x="27" y="140" font-size="15" font-family="sans-serif" fill="#FFF">Kotlin (18.4k lines, 11.2%)</text>
<circle cx="266" cy="136" r="6" fill="#00B4AB" />
<text x="277" y="140" font-size="15" font-family="sans-serif" fill="#FFF">Dart (12.8k lines, 7.8%)</text>
<circle cx="516" cy="136" r="6" fill="#5e5086" />
<text x="527" y="140" font-size="15" font-family="sans-serif" fill="#FFF">Haskell (9.2k lines, 5.6%)</text>
<circle cx="16" cy="156" r="6" fill="#000000" />
<text x="27" y="160" font-size="15" font-family="sans-serif" fill="#FFF">C Header (8.8k lines, 5.4%)</text>
<circle cx="266" cy="156" r="6" fill="#3D6117" />
<text x="277" y="160" font-size="15" font-family="sans-serif" fill="#FFF">TeX (8.3k lines, 5.0%)</text>
<circle cx="516" cy="156" r="6" fill="#3572A5" />
<text x="527" y="160" font-size="15" font-family="sans-serif" fill="#FFF">Python (6.8k lines, 4.1%)</text>
<circle cx="16" cy="176" r="6" fill="#89e051" />
<text x="27" y="180" font-size="15" font-family="sans-serif" fill="#FFF">Shell (5.0k lines, 3.1%)</text>
<circle cx="266" cy="176" r="6" fill="None" />
<text x="277" y="180" font-size="15" font-family="sans-serif" fill="#FFF">Lean (4.9k lines, 3.0%)</text>
<circle cx="516" cy="176" r="6" fill="#239dad" />
<text x="527" y="180" font-size="15" font-family="sans-serif" fill="#FFF">Typst (2.6k lines, 1.6%)</text>
<circle cx="16" cy="196" r="6" fill="#000080" />
<text x="27" y="200" font-size="15" font-family="sans-serif" fill="#FFF">Lua (2.4k lines, 1.5%)</text>
<circle cx="266" cy="196" r="6" fill="#000000" />
<text x="277" y="200" font-size="15" font-family="sans-serif" fill="#FFF">GNU Style A… (2.1k lines, 1.3%)</text>
<circle cx="516" cy="196" r="6" fill="#dea584" />
<text x="527" y="200" font-size="15" font-family="sans-serif" fill="#FFF">Rust (1.9k lines, 1.1%)</text>
<circle cx="16" cy="216" r="6" fill="#000000" />
<text x="27" y="220" font-size="15" font-family="sans-serif" fill="#FFF">Batch (1.7k lines, 1.0%)</text>
<circle cx="266" cy="216" r="6" fill="#f34b7d" />
<text x="277" y="220" font-size="15" font-family="sans-serif" fill="#FFF">C++ (1.6k lines, 1.0%)</text>
<circle cx="516" cy="216" r="6" fill="#e38c00" />
<text x="527" y="220" font-size="15" font-family="sans-serif" fill="#FFF">SQL (1.6k lines, 1.0%)</text>
<circle cx="16" cy="236" r="6" fill="#ec915c" />
<text x="27" y="240" font-size="15" font-family="sans-serif" fill="#FFF">Zig (864 lines, 0.5%)</text>
<circle cx="266" cy="236" r="6" fill="#000000" />
<text x="277" y="240" font-size="15" font-family="sans-serif" fill="#FFF">WebGPU Shad… (760 lines, 0.5%)</text>
<circle cx="516" cy="236" r="6" fill="#DA3434" />
<text x="527" y="240" font-size="15" font-family="sans-serif" fill="#FFF">CMake (685 lines, 0.4%)</text>
<circle cx="16" cy="256" r="6" fill="#000000" />
<text x="27" y="260" font-size="15" font-family="sans-serif" fill="#FFF">Cabal (536 lines, 0.3%)</text>
<circle cx="266" cy="256" r="6" fill="#427819" />
<text x="277" y="260" font-size="15" font-family="sans-serif" fill="#FFF">Makefile (497 lines, 0.3%)</text>
<circle cx="516" cy="256" r="6" fill="#000000" />
<text x="527" y="260" font-size="15" font-family="sans-serif" fill="#FFF">Templ (439 lines, 0.3%)</text>
<circle cx="16" cy="276" r="6" fill="#384d54" />
<text x="27" y="280" font-size="15" font-family="sans-serif" fill="#FFF">Dockerfile (314 lines, 0.2%)</text>
<circle cx="266" cy="276" r="6" fill="#B83998" />
<text x="277" y="280" font-size="15" font-family="sans-serif" fill="#FFF">Erlang (220 lines, 0.1%)</text>
<circle cx="516" cy="276" r="6" fill="#199f4b" />
<text x="527" y="280" font-size="15" font-family="sans-serif" fill="#FFF">Vim Script (166 lines, 0.1%)</text>
<circle cx="16" cy="296" r="6" fill="#000000" />
<text x="27" y="300" font-size="15" font-family="sans-serif" fill="#FFF">Bitbake (163 lines, 0.1%)</text>
<circle cx="266" cy="296" r="6" fill="#db5855" />
<text x="277" y="300" font-size="15" font-family="sans-serif" fill="#FFF">Clojure (156 lines, 0.1%)</text>
<circle cx="516" cy="296" r="6" fill="#0050b2" />
<text x="527" y="300" font-size="15" font-family="sans-serif" fill="#FFF">FreeMarker (103 lines, 0.1%)</text>
<circle cx="16" cy="316" r="6" fill="#701516" />
<text x="27" y="320" font-size="15" font-family="sans-serif" fill="#FFF">Ruby (100 lines, 0.1%)</text>
</svg>