<svg width="800" height="330" xmlns="http://www.w3.org/2000/svg">
<rect width="800" height="330" fill="#212830"/>
<rect x="10" y="40" width="141.80337669039034" height="50" fill="#555555"/>
<rect x="151.80337669039034" y="40" width="120.4482956082888" height="50" fill="#b07219"/>
<rect x="272.2516722986791" y="40" width="103.32697765443986" height="50" fill="#c22d40"/>
<rect x="375.578649953119" y="40" width="67.28713195270369" height="50" fill="#A97BFF"/>
<rect x="442.8657819058227" y="40" width="59.413641426440876" height="50" fill="#00B4AB"/>
<rect x="502.2794233322636" y="40" width="46.34485536110954" height="50" fill="#5e5086"/>
<rect x="548.6242786933732" y="40" width="45.82129844631969" height="50" fill="#000000"/>
<rect x="594.4455771396929" y="40" width="41.55733011144463" height="50" fill="#3D6117"/>
<rect x="636.0029072511375" y="40" width="33.240829888051955" height="50" fill="None"/>
<rect x="669.2437371391894" y="40" width="28.63453587812199" height="50" fill="#3572A5"/>
<rect x="697.8782730173114" y="40" width="23.88225003618332" height="50" fill="#89e051"/>
<rect x="721.7605230534947" y="40" width="15.560715611686899" height="50" fill="#239dad"/>
<rect x="737.3212386651816" y="40" width="12.192835073279092" height="50" fill="#000080"/>
<rect x="749.5140737384606" y="40" width="10.783258764229483" height="50" fill="#000000"/>
<rect x="760.2973325026901" y="40" width="9.343477248557388" height="50" fill="#dea584"/>
<rect x="769.6408097512475" y="40" width="7.959071945026525" height="50" fill="#000000"/>
<rect x="777.599881696274" y="40" width="7.883558928470295" height="50" fill="#f34b7d"/>
<rect x="785.4834406247443" y="40" width="4.349549753638784" height="50" fill="#ec915c"/>
<rect x="789.8329903783831" y="40" width="3.82599283884893" height="50" fill="#000000"/>
<rect x="793.658983217232" y="40" width="3.4484277560677854" height="50" fill="#DA3434"/>
<rect x="797.1074109732998" y="40" width="2.8040500147879657" height="50" fill="#427819"/>
<rect x="799.9114609880878" y="40" width="2.6983317916092453" height="50" fill="#000000"/>
<rect x="802.609792779697" y="40" width="2.210014284545632" height="50" fill="#000000"/>
<rect x="804.8198070642427" y="40" width="1.4448157167758462" height="50" fill="#199f4b"/>
<rect x="806.2646227810185" y="40" width="1.1075242428246903" height="50" fill="#B83998"/>
<rect x="807.3721470238431" y="40" width="0.8205747799110205" height="50" fill="#000000"/>
<rect x="808.1927218037541" y="40" width="0.7853353721847804" height="50" fill="#db5855"/>
<rect x="808.9780571759389" y="40" width="0.518522713686105" height="50" fill="#0050b2"/>
<rect x="809.4965798896251" y="40" width="0.5034201103748591" height="50" fill="#701516"/>
<circle cx="16" cy="116" r="6" fill="#555555" />
<text x="27" y="120" font-size="15" font-family="sans-serif" fill="#FFF">C (28.2k lines, 17.7%)</text>
<circle cx="266" cy="116" r="6" fill="#b07219" />
<text x="277" y="120" font-size="15" font-family="sans-serif" fill="#FFF">Java (23.9k lines, 15.1%)</text>
<circle cx="516" cy="116" r="6" fill="#c22d40" />
<text x="527" y="120" font-size="15" font-family="sans-serif" fill="#FFF">Scala (20.5k lines, 12.9%)</text>
<circle cx="16" cy="136" r="6" fill="#A97BFF" />
<text x="27" y="140" font-size="15" font-family="sans-serif" fill="#FFF">Kotlin (13.4k lines, 8.4%)</text>
<circle cx="266" cy="136" r="6" fill="#00B4AB" />
<text x="277" y="140" font-size="15" font-family="sans-serif" fill="#FFF">Dart (11.8k lines, 7.4%)</text>
<circle cx="516" cy="136" r="6" fill="#5e5086" />
<text x="527" y="140" font-size="15" font-family="sans-serif" fill="#FFF">Haskell (9.2k lines, 5.8%)</text>
<circle cx="16" cy="156" r="6" fill="#000000" />
<text x="27" y="160" font-size="15" font-family="sans-serif" fill="#FFF">C Header (9.1k lines, 5.7%)</text>
<circle cx="266" cy="156" r="6" fill="#3D6117" />
<text x="277" y="160" font-size="15" font-family="sans-serif" fill="#FFF">TeX (8.3k lines, 5.2%)</text>
<circle cx="516" cy="156" r="6" fill="None" />
<text x="527" y="160" font-size="15" font-family="sans-serif" fill="#FFF">Lean (6.6k lines, 4.2%)</text>
<circle cx="16" cy="176" r="6" fill="#3572A5" />
<text x="27" y="180" font-size="15" font-family="sans-serif" fill="#FFF">Python (5.7k lines, 3.6%)</text>
<circle cx="266" cy="176" r="6" fill="#89e051" />
<text x="277" y="180" font-size="15" font-family="sans-serif" fill="#FFF">Shell (4.7k lines, 3.0%)</text>
<circle cx="516" cy="176" r="6" fill="#239dad" />
<text x="527" y="180" font-size="15" font-family="sans-serif" fill="#FFF">Typst (3.1k lines, 1.9%)</text>
<circle cx="16" cy="196" r="6" fill="#000080" />
<text x="27" y="200" font-size="15" font-family="sans-serif" fill="#FFF">Lua (2.4k lines, 1.5%)</text>
<circle cx="266" cy="196" r="6" fill="#000000" />
<text x="277" y="200" font-size="15" font-family="sans-serif" fill="#FFF">GNU Style A… (2.1k lines, 1.3%)</text>
<circle cx="516" cy="196" r="6" fill="#dea584" />
<text x="527" y="200" font-size="15" font-family="sans-serif" fill="#FFF">Rust (1.9k lines, 1.2%)</text>
<circle cx="16" cy="216" r="6" fill="#000000" />
<text x="27" y="220" font-size="15" font-family="sans-serif" fill="#FFF">Batch (1.6k lines, 1.0%)</text>
<circle cx="266" cy="216" r="6" fill="#f34b7d" />
<text x="277" y="220" font-size="15" font-family="sans-serif" fill="#FFF">C++ (1.6k lines, 1.0%)</text>
<circle cx="516" cy="216" r="6" fill="#ec915c" />
<text x="527" y="220" font-size="15" font-family="sans-serif" fill="#FFF">Zig (864 lines, 0.5%)</text>
<circle cx="16" cy="236" r="6" fill="#000000" />
<text x="27" y="240" font-size="15" font-family="sans-serif" fill="#FFF">WebGPU Shad… (760 lines, 0.5%)</text>
<circle cx="266" cy="236" r="6" fill="#DA3434" />
<text x="277" y="240" font-size="15" font-family="sans-serif" fill="#FFF">CMake (685 lines, 0.4%)</text>
<circle cx="516" cy="236" r="6" fill="#427819" />
<text x="527" y="240" font-size="15" font-family="sans-serif" fill="#FFF">Makefile (557 lines, 0.4%)</text>
<circle cx="16" cy="256" r="6" fill="#000000" />
<text x="27" y="260" font-size="15" font-family="sans-serif" fill="#FFF">Cabal (536 lines, 0.3%)</text>
<circle cx="266" cy="256" r="6" fill="#000000" />
<text x="277" y="260" font-size="15" font-family="sans-serif" fill="#FFF">Templ (439 lines, 0.3%)</text>
<circle cx="516" cy="256" r="6" fill="#199f4b" />
<text x="527" y="260" font-size="15" font-family="sans-serif" fill="#FFF">Vim Script (287 lines, 0.2%)</text>
<circle cx="16" cy="276" r="6" fill="#B83998" />
<text x="27" y="280" font-size="15" font-family="sans-serif" fill="#FFF">Erlang (220 lines, 0.1%)</text>
<circle cx="266" cy="276" r="6" fill="#000000" />
<text x="277" y="280" font-size="15" font-family="sans-serif" fill="#FFF">Bitbake (163 lines, 0.1%)</text>
<circle cx="516" cy="276" r="6" fill="#db5855" />
<text x="527" y="280" font-size="15" font-family="sans-serif" fill="#FFF">Clojure (156 lines, 0.1%)</text>
<circle cx="16" cy="296" r="6" fill="#0050b2" />
<text x="27" y="300" font-size="15" font-family="sans-serif" fill="#FFF">FreeMarker (103 lines, 0.1%)</text>
<circle cx="266" cy="296" r="6" fill="#701516" />
<text x="277" y="300" font-size="15" font-family="sans-serif" fill="#FFF">Ruby (100 lines, 0.1%)</text>
</svg>