<svg width="800" height="330" xmlns="http://www.w3.org/2000/svg">
<rect width="800" height="330" fill="#212830"/>
<rect x="10" y="40" width="137.71726110445647" height="50" fill="#555555"/>
<rect x="147.71726110445647" y="40" width="116.97753440731417" height="50" fill="#b07219"/>
<rect x="264.6947955117706" y="40" width="100.34957342264161" height="50" fill="#c22d40"/>
<rect x="365.0443689344122" y="40" width="65.34822890947758" height="50" fill="#A97BFF"/>
<rect x="430.3925978438898" y="40" width="64.60996895396876" height="50" fill="#00B4AB"/>
<rect x="495.00256679785855" y="40" width="47.93311658151417" height="50" fill="None"/>
<rect x="542.9356833793727" y="40" width="45.00941159214804" height="50" fill="#5e5086"/>
<rect x="587.9450949715207" y="40" width="44.50094115921481" height="50" fill="#000000"/>
<rect x="632.4460361307355" y="40" width="40.35984061407583" height="50" fill="#3D6117"/>
<rect x="672.8058767448113" y="40" width="28.30322438702423" height="50" fill="#3572A5"/>
<rect x="701.1091011318355" y="40" width="23.194074363800816" height="50" fill="#89e051"/>
<rect x="724.3031754956363" y="40" width="15.112327963429243" height="50" fill="#239dad"/>
<rect x="739.4155034590656" y="40" width="11.84149412081062" height="50" fill="#000080"/>
<rect x="751.2569975798762" y="40" width="10.472535262913436" height="50" fill="#000000"/>
<rect x="761.7295328427896" y="40" width="9.07424157234703" height="50" fill="#dea584"/>
<rect x="770.8037744151366" y="40" width="7.72972840834087" height="50" fill="#000000"/>
<rect x="778.5335028234774" y="40" width="7.656391326667807" height="50" fill="#f34b7d"/>
<rect x="786.1898941501453" y="40" width="4.224215904368445" height="50" fill="#ec915c"/>
<rect x="790.4141100545137" y="40" width="3.715745471435207" height="50" fill="#000000"/>
<rect x="794.1298555259489" y="40" width="3.3490600630698903" height="50" fill="#DA3434"/>
<rect x="797.4789155890188" y="40" width="2.72325029945975" height="50" fill="#427819"/>
<rect x="800.2021658884786" y="40" width="2.620578385117461" height="50" fill="#000000"/>
<rect x="802.8227442735961" y="40" width="2.1463319236316525" height="50" fill="#000000"/>
<rect x="804.9690761972278" y="40" width="1.403182829344611" height="50" fill="#199f4b"/>
<rect x="806.3722590265724" y="40" width="1.0756105312049282" height="50" fill="#B83998"/>
<rect x="807.4478695577773" y="40" width="0.7969296208472876" height="50" fill="#000000"/>
<rect x="808.2447991786246" y="40" width="0.7627056493998582" height="50" fill="#db5855"/>
<rect x="809.0075048280245" y="40" width="0.5035812941550346" height="50" fill="#0050b2"/>
<rect x="809.5110861221796" y="40" width="0.48891387782042195" height="50" fill="#701516"/>
<circle cx="16" cy="116" r="6" fill="#555555" />
<text x="27" y="120" font-size="15" font-family="sans-serif" fill="#FFF">C (28.2k lines, 17.2%)</text>
<circle cx="266" cy="116" r="6" fill="#b07219" />
<text x="277" y="120" font-size="15" font-family="sans-serif" fill="#FFF">Java (23.9k lines, 14.6%)</text>
<circle cx="516" cy="116" r="6" fill="#c22d40" />
<text x="527" y="120" font-size="15" font-family="sans-serif" fill="#FFF">Scala (20.5k lines, 12.5%)</text>
<circle cx="16" cy="136" r="6" fill="#A97BFF" />
<text x="27" y="140" font-size="15" font-family="sans-serif" fill="#FFF">Kotlin (13.4k lines, 8.2%)</text>
<circle cx="266" cy="136" r="6" fill="#00B4AB" />
<text x="277" y="140" font-size="15" font-family="sans-serif" fill="#FFF">Dart (13.2k lines, 8.1%)</text>
<circle cx="516" cy="136" r="6" fill="None" />
<text x="527" y="140" font-size="15" font-family="sans-serif" fill="#FFF">Lean (9.8k lines, 6.0%)</text>
<circle cx="16" cy="156" r="6" fill="#5e5086" />
<text x="27" y="160" font-size="15" font-family="sans-serif" fill="#FFF">Haskell (9.2k lines, 5.6%)</text>
<circle cx="266" cy="156" r="6" fill="#000000" />
<text x="277" y="160" font-size="15" font-family="sans-serif" fill="#FFF">C Header (9.1k lines, 5.6%)</text>
<circle cx="516" cy="156" r="6" fill="#3D6117" />
<text x="527" y="160" font-size="15" font-family="sans-serif" fill="#FFF">TeX (8.3k lines, 5.0%)</text>
<circle cx="16" cy="176" r="6" fill="#3572A5" />
<text x="27" y="180" font-size="15" font-family="sans-serif" fill="#FFF">Python (5.8k lines, 3.5%)</text>
<circle cx="266" cy="176" r="6" fill="#89e051" />
<text x="277" y="180" font-size="15" font-family="sans-serif" fill="#FFF">Shell (4.7k lines, 2.9%)</text>
<circle cx="516" cy="176" r="6" fill="#239dad" />
<text x="527" y="180" font-size="15" font-family="sans-serif" fill="#FFF">Typst (3.1k lines, 1.9%)</text>
<circle cx="16" cy="196" r="6" fill="#000080" />
<text x="27" y="200" font-size="15" font-family="sans-serif" fill="#FFF">Lua (2.4k lines, 1.5%)</text>
<circle cx="266" cy="196" r="6" fill="#000000" />
<text x="277" y="200" font-size="15" font-family="sans-serif" fill="#FFF">GNU Style A… (2.1k lines, 1.3%)</text>
<circle cx="516" cy="196" r="6" fill="#dea584" />
<text x="527" y="200" font-size="15" font-family="sans-serif" fill="#FFF">Rust (1.9k lines, 1.1%)</text>
<circle cx="16" cy="216" r="6" fill="#000000" />
<text x="27" y="220" font-size="15" font-family="sans-serif" fill="#FFF">Batch (1.6k lines, 1.0%)</text>
<circle cx="266" cy="216" r="6" fill="#f34b7d" />
<text x="277" y="220" font-size="15" font-family="sans-serif" fill="#FFF">C++ (1.6k lines, 1.0%)</text>
<circle cx="516" cy="216" r="6" fill="#ec915c" />
<text x="527" y="220" font-size="15" font-family="sans-serif" fill="#FFF">Zig (864 lines, 0.5%)</text>
<circle cx="16" cy="236" r="6" fill="#000000" />
<text x="27" y="240" font-size="15" font-family="sans-serif" fill="#FFF">WebGPU Shad… (760 lines, 0.5%)</text>
<circle cx="266" cy="236" r="6" fill="#DA3434" />
<text x="277" y="240" font-size="15" font-family="sans-serif" fill="#FFF">CMake (685 lines, 0.4%)</text>
<circle cx="516" cy="236" r="6" fill="#427819" />
<text x="527" y="240" font-size="15" font-family="sans-serif" fill="#FFF">Makefile (557 lines, 0.3%)</text>
<circle cx="16" cy="256" r="6" fill="#000000" />
<text x="27" y="260" font-size="15" font-family="sans-serif" fill="#FFF">Cabal (536 lines, 0.3%)</text>
<circle cx="266" cy="256" r="6" fill="#000000" />
<text x="277" y="260" font-size="15" font-family="sans-serif" fill="#FFF">Templ (439 lines, 0.3%)</text>
<circle cx="516" cy="256" r="6" fill="#199f4b" />
<text x="527" y="260" font-size="15" font-family="sans-serif" fill="#FFF">Vim Script (287 lines, 0.2%)</text>
<circle cx="16" cy="276" r="6" fill="#B83998" />
<text x="27" y="280" font-size="15" font-family="sans-serif" fill="#FFF">Erlang (220 lines, 0.1%)</text>
<circle cx="266" cy="276" r="6" fill="#000000" />
<text x="277" y="280" font-size="15" font-family="sans-serif" fill="#FFF">Bitbake (163 lines, 0.1%)</text>
<circle cx="516" cy="276" r="6" fill="#db5855" />
<text x="527" y="280" font-size="15" font-family="sans-serif" fill="#FFF">Clojure (156 lines, 0.1%)</text>
<circle cx="16" cy="296" r="6" fill="#0050b2" />
<text x="27" y="300" font-size="15" font-family="sans-serif" fill="#FFF">FreeMarker (103 lines, 0.1%)</text>
<circle cx="266" cy="296" r="6" fill="#701516" />
<text x="277" y="300" font-size="15" font-family="sans-serif" fill="#FFF">Ruby (100 lines, 0.1%)</text>
</svg>