<svg width="800" height="350" xmlns="http://www.w3.org/2000/svg">
<rect width="800" height="350" fill="#212830"/>
<rect x="10" y="40" width="101.76328153392795" height="50" fill="#555555"/>
<rect x="111.76328153392795" y="40" width="83.81082489348938" height="50" fill="#b07219"/>
<rect x="195.57410642741735" y="40" width="83.4465213831273" height="50" fill="#3572A5"/>
<rect x="279.0206278105446" y="40" width="82.54276844395987" height="50" fill="#dea584"/>
<rect x="361.5633962545045" y="40" width="75.00448811416011" height="50" fill="#c22d40"/>
<rect x="436.5678843686646" y="40" width="65.62717564070566" height="50" fill="#00B4AB"/>
<rect x="502.19506000937025" y="40" width="59.70023776058429" height="50" fill="#A97BFF"/>
<rect x="561.8952977699546" y="40" width="40.34311085423043" height="50" fill="None"/>
<rect x="602.238408624185" y="40" width="32.32142778952715" height="50" fill="#5e5086"/>
<rect x="634.5598364137122" y="40" width="32.14628187108385" height="50" fill="#000000"/>
<rect x="666.706118284796" y="40" width="28.91659113498934" height="50" fill="#3D6117"/>
<rect x="695.6227094197853" y="40" width="19.23802768181241" height="50" fill="#ec915c"/>
<rect x="714.8607371015978" y="40" width="18.656543232580646" height="50" fill="#89e051"/>
<rect x="733.5172803341784" y="40" width="16.334108354022444" height="50" fill="#239dad"/>
<rect x="749.8513886882008" y="40" width="11.913425372513478" height="50" fill="#000000"/>
<rect x="761.7648140607143" y="40" width="10.866052780222525" height="50" fill="#000080"/>
<rect x="772.6308668409368" y="40" width="7.503251146111102" height="50" fill="#000000"/>
<rect x="780.134117987048" y="40" width="6.750123696804901" height="50" fill="#f34b7d"/>
<rect x="786.8842416838528" y="40" width="5.7623007167846705" height="50" fill="#000000"/>
<rect x="792.6465424006375" y="40" width="3.072059409495536" height="50" fill="#000000"/>
<rect x="795.718601810133" y="40" width="2.515095388845832" height="50" fill="#427819"/>
<rect x="798.2336971989788" y="40" width="2.399499082673252" height="50" fill="#DA3434"/>
<rect x="800.6331962816521" y="40" width="1.8775642457122088" height="50" fill="#000000"/>
<rect x="802.5107605273643" y="40" width="1.537781163932201" height="50" fill="#000000"/>
<rect x="804.0485416912965" y="40" width="1.537781163932201" height="50" fill="#41b883"/>
<rect x="805.5863228552287" y="40" width="1.0053375718645596" height="50" fill="#199f4b"/>
<rect x="806.5916604270932" y="40" width="0.7706420411505335" height="50" fill="#B83998"/>
<rect x="807.3623024682437" y="40" width="0.570975694125168" height="50" fill="#000000"/>
<rect x="807.9332781623689" y="40" width="0.5464552655431056" height="50" fill="#db5855"/>
<rect x="808.479733427912" y="40" width="0.4588823063214541" height="50" fill="#384d54"/>
<rect x="808.9386157342335" y="40" width="0.36080059199320436" height="50" fill="#0050b2"/>
<rect x="809.2994163262267" y="40" width="0.35029183688660614" height="50" fill="#000000"/>
<rect x="809.6497081631134" y="40" width="0.35029183688660614" height="50" fill="#701516"/>
<circle cx="16" cy="116" r="6" fill="#555555" />
<text x="27" y="120" font-size="15" font-family="sans-serif" fill="#FFF">C (29.1k lines, 12.7%)</text>
<circle cx="266" cy="116" r="6" fill="#b07219" />
<text x="277" y="120" font-size="15" font-family="sans-serif" fill="#FFF">Java (23.9k lines, 10.5%)</text>
<circle cx="516" cy="116" r="6" fill="#3572A5" />
<text x="527" y="120" font-size="15" font-family="sans-serif" fill="#FFF">Python (23.8k lines, 10.4%)</text>
<circle cx="16" cy="136" r="6" fill="#dea584" />
<text x="27" y="140" font-size="15" font-family="sans-serif" fill="#FFF">Rust (23.6k lines, 10.3%)</text>
<circle cx="266" cy="136" r="6" fill="#c22d40" />
<text x="277" y="140" font-size="15" font-family="sans-serif" fill="#FFF">Scala (21.4k lines, 9.4%)</text>
<circle cx="516" cy="136" r="6" fill="#00B4AB" />
<text x="527" y="140" font-size="15" font-family="sans-serif" fill="#FFF">Dart (18.7k lines, 8.2%)</text>
<circle cx="16" cy="156" r="6" fill="#A97BFF" />
<text x="27" y="160" font-size="15" font-family="sans-serif" fill="#FFF">Kotlin (17.0k lines, 7.5%)</text>
<circle cx="266" cy="156" r="6" fill="None" />
<text x="277" y="160" font-size="15" font-family="sans-serif" fill="#FFF">Lean (11.5k lines, 5.0%)</text>
<circle cx="516" cy="156" r="6" fill="#5e5086" />
<text x="527" y="160" font-size="15" font-family="sans-serif" fill="#FFF">Haskell (9.2k lines, 4.0%)</text>
<circle cx="16" cy="176" r="6" fill="#000000" />
<text x="27" y="180" font-size="15" font-family="sans-serif" fill="#FFF">C Header (9.2k lines, 4.0%)</text>
<circle cx="266" cy="176" r="6" fill="#3D6117" />
<text x="277" y="180" font-size="15" font-family="sans-serif" fill="#FFF">TeX (8.3k lines, 3.6%)</text>
<circle cx="516" cy="176" r="6" fill="#ec915c" />
<text x="527" y="180" font-size="15" font-family="sans-serif" fill="#FFF">Zig (5.5k lines, 2.4%)</text>
<circle cx="16" cy="196" r="6" fill="#89e051" />
<text x="27" y="200" font-size="15" font-family="sans-serif" fill="#FFF">Shell (5.3k lines, 2.3%)</text>
<circle cx="266" cy="196" r="6" fill="#239dad" />
<text x="277" y="200" font-size="15" font-family="sans-serif" fill="#FFF">Typst (4.7k lines, 2.0%)</text>
<circle cx="516" cy="196" r="6" fill="#000000" />
<text x="527" y="200" font-size="15" font-family="sans-serif" fill="#FFF">Jupyter Not… (3.4k lines, 1.5%)</text>
<circle cx="16" cy="216" r="6" fill="#000080" />
<text x="27" y="220" font-size="15" font-family="sans-serif" fill="#FFF">Lua (3.1k lines, 1.4%)</text>
<circle cx="266" cy="216" r="6" fill="#000000" />
<text x="277" y="220" font-size="15" font-family="sans-serif" fill="#FFF">GNU Style A… (2.1k lines, 0.9%)</text>
<circle cx="516" cy="216" r="6" fill="#f34b7d" />
<text x="527" y="220" font-size="15" font-family="sans-serif" fill="#FFF">C++ (1.9k lines, 0.8%)</text>
<circle cx="16" cy="236" r="6" fill="#000000" />
<text x="27" y="240" font-size="15" font-family="sans-serif" fill="#FFF">Batch (1.6k lines, 0.7%)</text>
<circle cx="266" cy="236" r="6" fill="#000000" />
<text x="277" y="240" font-size="15" font-family="sans-serif" fill="#FFF">WebGPU Shad… (877 lines, 0.4%)</text>
<circle cx="516" cy="236" r="6" fill="#427819" />
<text x="527" y="240" font-size="15" font-family="sans-serif" fill="#FFF">Makefile (718 lines, 0.3%)</text>
<circle cx="16" cy="256" r="6" fill="#DA3434" />
<text x="27" y="260" font-size="15" font-family="sans-serif" fill="#FFF">CMake (685 lines, 0.3%)</text>
<circle cx="266" cy="256" r="6" fill="#000000" />
<text x="277" y="260" font-size="15" font-family="sans-serif" fill="#FFF">Cabal (536 lines, 0.2%)</text>
<circle cx="516" cy="256" r="6" fill="#000000" />
<text x="527" y="260" font-size="15" font-family="sans-serif" fill="#FFF">Templ (439 lines, 0.2%)</text>
<circle cx="16" cy="276" r="6" fill="#41b883" />
<text x="27" y="280" font-size="15" font-family="sans-serif" fill="#FFF">Vue (439 lines, 0.2%)</text>
<circle cx="266" cy="276" r="6" fill="#199f4b" />
<text x="277" y="280" font-size="15" font-family="sans-serif" fill="#FFF">Vim Script (287 lines, 0.1%)</text>
<circle cx="516" cy="276" r="6" fill="#B83998" />
<text x="527" y="280" font-size="15" font-family="sans-serif" fill="#FFF">Erlang (220 lines, 0.1%)</text>
<circle cx="16" cy="296" r="6" fill="#000000" />
<text x="27" y="300" font-size="15" font-family="sans-serif" fill="#FFF">Bitbake (163 lines, 0.1%)</text>
<circle cx="266" cy="296" r="6" fill="#db5855" />
<text x="277" y="300" font-size="15" font-family="sans-serif" fill="#FFF">Clojure (156 lines, 0.1%)</text>
<circle cx="516" cy="296" r="6" fill="#384d54" />
<text x="527" y="300" font-size="15" font-family="sans-serif" fill="#FFF">Just (131 lines, 0.1%)</text>
<circle cx="16" cy="316" r="6" fill="#0050b2" />
<text x="27" y="320" font-size="15" font-family="sans-serif" fill="#FFF">FreeMarker (103 lines, 0.0%)</text>
<circle cx="266" cy="316" r="6" fill="#000000" />
<text x="277" y="320" font-size="15" font-family="sans-serif" fill="#FFF">Fish (100 lines, 0.0%)</text>
<circle cx="516" cy="316" r="6" fill="#701516" />
<text x="527" y="320" font-size="15" font-family="sans-serif" fill="#FFF">Ruby (100 lines, 0.0%)</text>
</svg>