<svg width="800" height="350" xmlns="http://www.w3.org/2000/svg">
<rect width="800" height="350" fill="#212830"/>
<rect x="10" y="40" width="214.19853793203055" height="50" fill="#3572A5"/>
<rect x="224.19853793203055" y="40" width="94.39693799505639" height="50" fill="#dea584"/>
<rect x="318.5954759270869" y="40" width="76.29014203790085" height="50" fill="#555555"/>
<rect x="394.8856179649878" y="40" width="62.83150109802814" height="50" fill="#b07219"/>
<rect x="457.7171190630159" y="40" width="56.229545327717915" height="50" fill="#c22d40"/>
<rect x="513.9466643907338" y="40" width="49.199539123612695" height="50" fill="#00B4AB"/>
<rect x="563.1462035143464" y="40" width="44.75621805624399" height="50" fill="#A97BFF"/>
<rect x="607.9024215705904" y="40" width="36.94364112041544" height="50" fill="#3D6117"/>
<rect x="644.8460626910058" y="40" width="30.24452052771003" height="50" fill="None"/>
<rect x="675.0905832187159" y="40" width="24.230805844332764" height="50" fill="#5e5086"/>
<rect x="699.3213890630486" y="40" width="24.099502030285226" height="50" fill="#000000"/>
<rect x="723.4208910933338" y="40" width="14.422410934981633" height="50" fill="#ec915c"/>
<rect x="737.8433020283154" y="40" width="14.296359273495998" height="50" fill="#89e051"/>
<rect x="752.1396613018114" y="40" width="12.245393698073444" height="50" fill="#239dad"/>
<rect x="764.3850549998849" y="40" width="8.931285431513572" height="50" fill="#000000"/>
<rect x="773.3163404313984" y="40" width="8.146088623509291" height="50" fill="#000080"/>
<rect x="781.4624290549077" y="40" width="5.6250553937965515" height="50" fill="#000000"/>
<rect x="787.0874844487042" y="40" width="5.060448993392135" height="50" fill="#f34b7d"/>
<rect x="792.1479334420964" y="40" width="4.319895482164019" height="50" fill="#000000"/>
<rect x="796.4678289242604" y="40" width="2.373972957979497" height="50" fill="#427819"/>
<rect x="798.8418018822399" y="40" width="2.303068898393826" height="50" fill="#000000"/>
<rect x="801.1448707806337" y="40" width="1.798862252451278" height="50" fill="#DA3434"/>
<rect x="802.943733033085" y="40" width="1.4075768865896132" height="50" fill="#000000"/>
<rect x="804.3513099196746" y="40" width="1.2079950892373545" height="50" fill="#41b883"/>
<rect x="805.5593050089119" y="40" width="1.1528474873373884" height="50" fill="#000000"/>
<rect x="806.7121524962492" y="40" width="0.7536838926328713" height="50" fill="#199f4b"/>
<rect x="807.4658363888822" y="40" width="0.5777367818091697" height="50" fill="#B83998"/>
<rect x="808.0435731706914" y="40" width="0.4280504337949757" height="50" fill="#000000"/>
<rect x="808.4716236044864" y="40" width="0.4096678998283203" height="50" fill="#db5855"/>
<rect x="808.8812915043146" y="40" width="0.32300738255694483" height="50" fill="#384d54"/>
<rect x="809.2042988868716" y="40" width="0.2704858569379294" height="50" fill="#0050b2"/>
<rect x="809.4747847438096" y="40" width="0.2626076280950771" height="50" fill="#000000"/>
<rect x="809.7373923719047" y="40" width="0.2626076280950771" height="50" fill="#701516"/>
<circle cx="16" cy="116" r="6" fill="#3572A5" />
<text x="27" y="120" font-size="15" font-family="sans-serif" fill="#FFF">Python (81.6k lines, 26.8%)</text>
<circle cx="266" cy="116" r="6" fill="#dea584" />
<text x="277" y="120" font-size="15" font-family="sans-serif" fill="#FFF">Rust (35.9k lines, 11.8%)</text>
<circle cx="516" cy="116" r="6" fill="#555555" />
<text x="527" y="120" font-size="15" font-family="sans-serif" fill="#FFF">C (29.1k lines, 9.5%)</text>
<circle cx="16" cy="136" r="6" fill="#b07219" />
<text x="27" y="140" font-size="15" font-family="sans-serif" fill="#FFF">Java (23.9k lines, 7.9%)</text>
<circle cx="266" cy="136" r="6" fill="#c22d40" />
<text x="277" y="140" font-size="15" font-family="sans-serif" fill="#FFF">Scala (21.4k lines, 7.0%)</text>
<circle cx="516" cy="136" r="6" fill="#00B4AB" />
<text x="527" y="140" font-size="15" font-family="sans-serif" fill="#FFF">Dart (18.7k lines, 6.1%)</text>
<circle cx="16" cy="156" r="6" fill="#A97BFF" />
<text x="27" y="160" font-size="15" font-family="sans-serif" fill="#FFF">Kotlin (17.0k lines, 5.6%)</text>
<circle cx="266" cy="156" r="6" fill="#3D6117" />
<text x="277" y="160" font-size="15" font-family="sans-serif" fill="#FFF">TeX (14.1k lines, 4.6%)</text>
<circle cx="516" cy="156" r="6" fill="None" />
<text x="527" y="160" font-size="15" font-family="sans-serif" fill="#FFF">Lean (11.5k lines, 3.8%)</text>
<circle cx="16" cy="176" r="6" fill="#5e5086" />
<text x="27" y="180" font-size="15" font-family="sans-serif" fill="#FFF">Haskell (9.2k lines, 3.0%)</text>
<circle cx="266" cy="176" r="6" fill="#000000" />
<text x="277" y="180" font-size="15" font-family="sans-serif" fill="#FFF">C Header (9.2k lines, 3.0%)</text>
<circle cx="516" cy="176" r="6" fill="#ec915c" />
<text x="527" y="180" font-size="15" font-family="sans-serif" fill="#FFF">Zig (5.5k lines, 1.8%)</text>
<circle cx="16" cy="196" r="6" fill="#89e051" />
<text x="27" y="200" font-size="15" font-family="sans-serif" fill="#FFF">Shell (5.4k lines, 1.8%)</text>
<circle cx="266" cy="196" r="6" fill="#239dad" />
<text x="277" y="200" font-size="15" font-family="sans-serif" fill="#FFF">Typst (4.7k lines, 1.5%)</text>
<circle cx="516" cy="196" r="6" fill="#000000" />
<text x="527" y="200" font-size="15" font-family="sans-serif" fill="#FFF">Jupyter Not… (3.4k lines, 1.1%)</text>
<circle cx="16" cy="216" r="6" fill="#000080" />
<text x="27" y="220" font-size="15" font-family="sans-serif" fill="#FFF">Lua (3.1k lines, 1.0%)</text>
<circle cx="266" cy="216" r="6" fill="#000000" />
<text x="277" y="220" font-size="15" font-family="sans-serif" fill="#FFF">GNU Style A… (2.1k lines, 0.7%)</text>
<circle cx="516" cy="216" r="6" fill="#f34b7d" />
<text x="527" y="220" font-size="15" font-family="sans-serif" fill="#FFF">C++ (1.9k lines, 0.6%)</text>
<circle cx="16" cy="236" r="6" fill="#000000" />
<text x="27" y="240" font-size="15" font-family="sans-serif" fill="#FFF">Batch (1.6k lines, 0.5%)</text>
<circle cx="266" cy="236" r="6" fill="#427819" />
<text x="277" y="240" font-size="15" font-family="sans-serif" fill="#FFF">Makefile (904 lines, 0.3%)</text>
<circle cx="516" cy="236" r="6" fill="#000000" />
<text x="527" y="240" font-size="15" font-family="sans-serif" fill="#FFF">WebGPU Shad… (877 lines, 0.3%)</text>
<circle cx="16" cy="256" r="6" fill="#DA3434" />
<text x="27" y="260" font-size="15" font-family="sans-serif" fill="#FFF">CMake (685 lines, 0.2%)</text>
<circle cx="266" cy="256" r="6" fill="#000000" />
<text x="277" y="260" font-size="15" font-family="sans-serif" fill="#FFF">Cabal (536 lines, 0.2%)</text>
<circle cx="516" cy="256" r="6" fill="#41b883" />
<text x="527" y="260" font-size="15" font-family="sans-serif" fill="#FFF">Vue (460 lines, 0.2%)</text>
<circle cx="16" cy="276" r="6" fill="#000000" />
<text x="27" y="280" font-size="15" font-family="sans-serif" fill="#FFF">Templ (439 lines, 0.1%)</text>
<circle cx="266" cy="276" r="6" fill="#199f4b" />
<text x="277" y="280" font-size="15" font-family="sans-serif" fill="#FFF">Vim Script (287 lines, 0.1%)</text>
<circle cx="516" cy="276" r="6" fill="#B83998" />
<text x="527" y="280" font-size="15" font-family="sans-serif" fill="#FFF">Erlang (220 lines, 0.1%)</text>
<circle cx="16" cy="296" r="6" fill="#000000" />
<text x="27" y="300" font-size="15" font-family="sans-serif" fill="#FFF">Bitbake (163 lines, 0.1%)</text>
<circle cx="266" cy="296" r="6" fill="#db5855" />
<text x="277" y="300" font-size="15" font-family="sans-serif" fill="#FFF">Clojure (156 lines, 0.1%)</text>
<circle cx="516" cy="296" r="6" fill="#384d54" />
<text x="527" y="300" font-size="15" font-family="sans-serif" fill="#FFF">Just (123 lines, 0.0%)</text>
<circle cx="16" cy="316" r="6" fill="#0050b2" />
<text x="27" y="320" font-size="15" font-family="sans-serif" fill="#FFF">FreeMarker (103 lines, 0.0%)</text>
<circle cx="266" cy="316" r="6" fill="#000000" />
<text x="277" y="320" font-size="15" font-family="sans-serif" fill="#FFF">Fish (100 lines, 0.0%)</text>
<circle cx="516" cy="316" r="6" fill="#701516" />
<text x="527" y="320" font-size="15" font-family="sans-serif" fill="#FFF">Ruby (100 lines, 0.0%)</text>
</svg>