<svg width="800" height="330" xmlns="http://www.w3.org/2000/svg">
<rect width="800" height="330" fill="#212830"/>
<rect x="10" y="40" width="118.57430026224223" height="50" fill="#555555"/>
<rect x="128.57430026224222" y="40" width="97.65614636585342" height="50" fill="#b07219"/>
<rect x="226.23044662809565" y="40" width="87.39502658136139" height="50" fill="#c22d40"/>
<rect x="313.625473209457" y="40" width="76.46860746318916" height="50" fill="#00B4AB"/>
<rect x="390.0940806726462" y="40" width="56.83615473311497" height="50" fill="#A97BFF"/>
<rect x="446.9302354057612" y="40" width="47.00768359506535" height="50" fill="None"/>
<rect x="493.9379190008266" y="40" width="46.88931745594433" height="50" fill="#dea584"/>
<rect x="540.827236456771" y="40" width="42.154671891103156" height="50" fill="#3572A5"/>
<rect x="582.9819083478741" y="40" width="37.66084019550821" height="50" fill="#5e5086"/>
<rect x="620.6427485433823" y="40" width="37.45676064529954" height="50" fill="#000000"/>
<rect x="658.0995091886818" y="40" width="33.69353373945164" height="50" fill="#3D6117"/>
<rect x="691.7930429281334" y="40" width="19.946735237395536" height="50" fill="#89e051"/>
<rect x="711.739778165529" y="40" width="17.28145631167029" height="50" fill="#239dad"/>
<rect x="729.0212344771992" y="40" width="16.648809706023407" height="50" fill="#ec915c"/>
<rect x="745.6700441832226" y="40" width="13.881491005193825" height="50" fill="#000000"/>
<rect x="759.5515351884164" y="40" width="9.901939776124733" height="50" fill="#000080"/>
<rect x="769.4534749645412" y="40" width="8.742767930939479" height="50" fill="#000000"/>
<rect x="778.1962428954807" y="40" width="7.865225865042194" height="50" fill="#f34b7d"/>
<rect x="786.061468760523" y="40" width="6.452995377598188" height="50" fill="#000000"/>
<rect x="792.5144641381212" y="40" width="3.579555310660095" height="50" fill="#000000"/>
<rect x="796.0940194487813" y="40" width="2.9305823409965206" height="50" fill="#427819"/>
<rect x="799.0246017897778" y="40" width="2.7958898378587973" height="50" fill="#DA3434"/>
<rect x="801.8204916276366" y="40" width="2.1877327782369567" height="50" fill="#000000"/>
<rect x="804.0082244058735" y="40" width="1.7918184508321344" height="50" fill="#000000"/>
<rect x="805.8000428567057" y="40" width="1.1714166181977734" height="50" fill="#199f4b"/>
<rect x="806.9714594749034" y="40" width="0.897950020918154" height="50" fill="#B83998"/>
<rect x="807.8694094958216" y="40" width="0.6652993336802686" height="50" fill="#000000"/>
<rect x="808.5347088295019" y="40" width="0.6367281966510546" height="50" fill="#db5855"/>
<rect x="809.171437026153" y="40" width="0.420403873429863" height="50" fill="#0050b2"/>
<rect x="809.5918408995828" y="40" width="0.4081591004173427" height="50" fill="#701516"/>
<circle cx="16" cy="116" r="6" fill="#555555" />
<text x="27" y="120" font-size="15" font-family="sans-serif" fill="#FFF">C (29.1k lines, 14.8%)</text>
<circle cx="266" cy="116" r="6" fill="#b07219" />
<text x="277" y="120" font-size="15" font-family="sans-serif" fill="#FFF">Java (23.9k lines, 12.2%)</text>
<circle cx="516" cy="116" r="6" fill="#c22d40" />
<text x="527" y="120" font-size="15" font-family="sans-serif" fill="#FFF">Scala (21.4k lines, 10.9%)</text>
<circle cx="16" cy="136" r="6" fill="#00B4AB" />
<text x="27" y="140" font-size="15" font-family="sans-serif" fill="#FFF">Dart (18.7k lines, 9.6%)</text>
<circle cx="266" cy="136" r="6" fill="#A97BFF" />
<text x="277" y="140" font-size="15" font-family="sans-serif" fill="#FFF">Kotlin (13.9k lines, 7.1%)</text>
<circle cx="516" cy="136" r="6" fill="None" />
<text x="527" y="140" font-size="15" font-family="sans-serif" fill="#FFF">Lean (11.5k lines, 5.9%)</text>
<circle cx="16" cy="156" r="6" fill="#dea584" />
<text x="27" y="160" font-size="15" font-family="sans-serif" fill="#FFF">Rust (11.5k lines, 5.9%)</text>
<circle cx="266" cy="156" r="6" fill="#3572A5" />
<text x="277" y="160" font-size="15" font-family="sans-serif" fill="#FFF">Python (10.3k lines, 5.3%)</text>
<circle cx="516" cy="156" r="6" fill="#5e5086" />
<text x="527" y="160" font-size="15" font-family="sans-serif" fill="#FFF">Haskell (9.2k lines, 4.7%)</text>
<circle cx="16" cy="176" r="6" fill="#000000" />
<text x="27" y="180" font-size="15" font-family="sans-serif" fill="#FFF">C Header (9.2k lines, 4.7%)</text>
<circle cx="266" cy="176" r="6" fill="#3D6117" />
<text x="277" y="180" font-size="15" font-family="sans-serif" fill="#FFF">TeX (8.3k lines, 4.2%)</text>
<circle cx="516" cy="176" r="6" fill="#89e051" />
<text x="527" y="180" font-size="15" font-family="sans-serif" fill="#FFF">Shell (4.9k lines, 2.5%)</text>
<circle cx="16" cy="196" r="6" fill="#239dad" />
<text x="27" y="200" font-size="15" font-family="sans-serif" fill="#FFF">Typst (4.2k lines, 2.2%)</text>
<circle cx="266" cy="196" r="6" fill="#ec915c" />
<text x="277" y="200" font-size="15" font-family="sans-serif" fill="#FFF">Zig (4.1k lines, 2.1%)</text>
<circle cx="516" cy="196" r="6" fill="#000000" />
<text x="527" y="200" font-size="15" font-family="sans-serif" fill="#FFF">Jupyter Not… (3.4k lines, 1.7%)</text>
<circle cx="16" cy="216" r="6" fill="#000080" />
<text x="27" y="220" font-size="15" font-family="sans-serif" fill="#FFF">Lua (2.4k lines, 1.2%)</text>
<circle cx="266" cy="216" r="6" fill="#000000" />
<text x="277" y="220" font-size="15" font-family="sans-serif" fill="#FFF">GNU Style A… (2.1k lines, 1.1%)</text>
<circle cx="516" cy="216" r="6" fill="#f34b7d" />
<text x="527" y="220" font-size="15" font-family="sans-serif" fill="#FFF">C++ (1.9k lines, 1.0%)</text>
<circle cx="16" cy="236" r="6" fill="#000000" />
<text x="27" y="240" font-size="15" font-family="sans-serif" fill="#FFF">Batch (1.6k lines, 0.8%)</text>
<circle cx="266" cy="236" r="6" fill="#000000" />
<text x="277" y="240" font-size="15" font-family="sans-serif" fill="#FFF">WebGPU Shad… (877 lines, 0.4%)</text>
<circle cx="516" cy="236" r="6" fill="#427819" />
<text x="527" y="240" font-size="15" font-family="sans-serif" fill="#FFF">Makefile (718 lines, 0.4%)</text>
<circle cx="16" cy="256" r="6" fill="#DA3434" />
<text x="27" y="260" font-size="15" font-family="sans-serif" fill="#FFF">CMake (685 lines, 0.3%)</text>
<circle cx="266" cy="256" r="6" fill="#000000" />
<text x="277" y="260" font-size="15" font-family="sans-serif" fill="#FFF">Cabal (536 lines, 0.3%)</text>
<circle cx="516" cy="256" r="6" fill="#000000" />
<text x="527" y="260" font-size="15" font-family="sans-serif" fill="#FFF">Templ (439 lines, 0.2%)</text>
<circle cx="16" cy="276" r="6" fill="#199f4b" />
<text x="27" y="280" font-size="15" font-family="sans-serif" fill="#FFF">Vim Script (287 lines, 0.1%)</text>
<circle cx="266" cy="276" r="6" fill="#B83998" />
<text x="277" y="280" font-size="15" font-family="sans-serif" fill="#FFF">Erlang (220 lines, 0.1%)</text>
<circle cx="516" cy="276" r="6" fill="#000000" />
<text x="527" y="280" font-size="15" font-family="sans-serif" fill="#FFF">Bitbake (163 lines, 0.1%)</text>
<circle cx="16" cy="296" r="6" fill="#db5855" />
<text x="27" y="300" font-size="15" font-family="sans-serif" fill="#FFF">Clojure (156 lines, 0.1%)</text>
<circle cx="266" cy="296" r="6" fill="#0050b2" />
<text x="277" y="300" font-size="15" font-family="sans-serif" fill="#FFF">FreeMarker (103 lines, 0.1%)</text>
<circle cx="516" cy="296" r="6" fill="#701516" />
<text x="527" y="300" font-size="15" font-family="sans-serif" fill="#FFF">Ruby (100 lines, 0.1%)</text>
</svg>