<svg width="800" height="350" xmlns="http://www.w3.org/2000/svg">
<rect width="800" height="350" fill="#212830"/>
<rect x="10" y="40" width="103.71236428383367" height="50" fill="#555555"/>
<rect x="113.71236428383367" y="40" width="85.41606236807698" height="50" fill="#b07219"/>
<rect x="199.12842665191064" y="40" width="82.60646439584272" height="50" fill="#3572A5"/>
<rect x="281.73489104775337" y="40" width="76.44105690149897" height="50" fill="#c22d40"/>
<rect x="358.1759479492523" y="40" width="69.5188072596156" height="50" fill="#dea584"/>
<rect x="427.6947552088679" y="40" width="66.88413978374663" height="50" fill="#00B4AB"/>
<rect x="494.57889499261455" y="40" width="60.843682643949506" height="50" fill="#A97BFF"/>
<rect x="555.422577636564" y="40" width="44.57871649210804" height="50" fill="None"/>
<rect x="600.001294128672" y="40" width="32.94048346862184" height="50" fill="#5e5086"/>
<rect x="632.9417775972939" y="40" width="32.76198296212666" height="50" fill="#000000"/>
<rect x="665.7037605594206" y="40" width="29.4704336223554" height="50" fill="#3D6117"/>
<rect x="695.174194181776" y="40" width="19.606495633431358" height="50" fill="#ec915c"/>
<rect x="714.7806898152073" y="40" width="18.542632614720045" height="50" fill="#89e051"/>
<rect x="733.3233224299273" y="40" width="16.422046597557223" height="50" fill="#239dad"/>
<rect x="749.7453690274846" y="40" width="12.141604451802632" height="50" fill="#000000"/>
<rect x="761.8869734792872" y="40" width="11.074171422961413" height="50" fill="#000080"/>
<rect x="772.9611449022486" y="40" width="7.646961698253819" height="50" fill="#000000"/>
<rect x="780.6081066005024" y="40" width="6.879409520324514" height="50" fill="#f34b7d"/>
<rect x="787.487516120827" y="40" width="5.872666663691658" height="50" fill="#000000"/>
<rect x="793.3601827845187" y="40" width="3.1308988839255836" height="50" fill="#000000"/>
<rect x="796.4910816684443" y="40" width="2.563267273270888" height="50" fill="#427819"/>
<rect x="799.0543489417151" y="40" width="2.4454569389840644" height="50" fill="#DA3434"/>
<rect x="801.4998058806992" y="40" width="1.9135254296284063" height="50" fill="#000000"/>
<rect x="803.4133313103276" y="40" width="1.567234447027743" height="50" fill="#000000"/>
<rect x="804.9805657573554" y="40" width="1.0245929072823745" height="50" fill="#199f4b"/>
<rect x="806.0051586646377" y="40" width="0.988892805983337" height="50" fill="#41b883"/>
<rect x="806.9940514706211" y="40" width="0.7854022285788236" height="50" fill="#B83998"/>
<rect x="807.7794536992" y="40" width="0.5819116511743102" height="50" fill="#000000"/>
<rect x="808.3613653503743" y="40" width="0.5569215802649841" height="50" fill="#db5855"/>
<rect x="808.9182869306393" y="40" width="0.36771104338008553" height="50" fill="#0050b2"/>
<rect x="809.2859979740193" y="40" width="0.3570010129903744" height="50" fill="#000000"/>
<rect x="809.6429989870097" y="40" width="0.3570010129903744" height="50" fill="#701516"/>
<circle cx="16" cy="116" r="6" fill="#555555" />
<text x="27" y="120" font-size="15" font-family="sans-serif" fill="#FFF">C (29.1k lines, 13.0%)</text>
<circle cx="266" cy="116" r="6" fill="#b07219" />
<text x="277" y="120" font-size="15" font-family="sans-serif" fill="#FFF">Java (23.9k lines, 10.7%)</text>
<circle cx="516" cy="116" r="6" fill="#3572A5" />
<text x="527" y="120" font-size="15" font-family="sans-serif" fill="#FFF">Python (23.1k lines, 10.3%)</text>
<circle cx="16" cy="136" r="6" fill="#c22d40" />
<text x="27" y="140" font-size="15" font-family="sans-serif" fill="#FFF">Scala (21.4k lines, 9.6%)</text>
<circle cx="266" cy="136" r="6" fill="#dea584" />
<text x="277" y="140" font-size="15" font-family="sans-serif" fill="#FFF">Rust (19.5k lines, 8.7%)</text>
<circle cx="516" cy="136" r="6" fill="#00B4AB" />
<text x="527" y="140" font-size="15" font-family="sans-serif" fill="#FFF">Dart (18.7k lines, 8.4%)</text>
<circle cx="16" cy="156" r="6" fill="#A97BFF" />
<text x="27" y="160" font-size="15" font-family="sans-serif" fill="#FFF">Kotlin (17.0k lines, 7.6%)</text>
<circle cx="266" cy="156" r="6" fill="None" />
<text x="277" y="160" font-size="15" font-family="sans-serif" fill="#FFF">Lean (12.5k lines, 5.6%)</text>
<circle cx="516" cy="156" r="6" fill="#5e5086" />
<text x="527" y="160" font-size="15" font-family="sans-serif" fill="#FFF">Haskell (9.2k lines, 4.1%)</text>
<circle cx="16" cy="176" r="6" fill="#000000" />
<text x="27" y="180" font-size="15" font-family="sans-serif" fill="#FFF">C Header (9.2k lines, 4.1%)</text>
<circle cx="266" cy="176" r="6" fill="#3D6117" />
<text x="277" y="180" font-size="15" font-family="sans-serif" fill="#FFF">TeX (8.3k lines, 3.7%)</text>
<circle cx="516" cy="176" r="6" fill="#ec915c" />
<text x="527" y="180" font-size="15" font-family="sans-serif" fill="#FFF">Zig (5.5k lines, 2.5%)</text>
<circle cx="16" cy="196" r="6" fill="#89e051" />
<text x="27" y="200" font-size="15" font-family="sans-serif" fill="#FFF">Shell (5.2k lines, 2.3%)</text>
<circle cx="266" cy="196" r="6" fill="#239dad" />
<text x="277" y="200" font-size="15" font-family="sans-serif" fill="#FFF">Typst (4.6k lines, 2.1%)</text>
<circle cx="516" cy="196" r="6" fill="#000000" />
<text x="527" y="200" font-size="15" font-family="sans-serif" fill="#FFF">Jupyter Not… (3.4k lines, 1.5%)</text>
<circle cx="16" cy="216" r="6" fill="#000080" />
<text x="27" y="220" font-size="15" font-family="sans-serif" fill="#FFF">Lua (3.1k lines, 1.4%)</text>
<circle cx="266" cy="216" r="6" fill="#000000" />
<text x="277" y="220" font-size="15" font-family="sans-serif" fill="#FFF">GNU Style A… (2.1k lines, 1.0%)</text>
<circle cx="516" cy="216" r="6" fill="#f34b7d" />
<text x="527" y="220" font-size="15" font-family="sans-serif" fill="#FFF">C++ (1.9k lines, 0.9%)</text>
<circle cx="16" cy="236" r="6" fill="#000000" />
<text x="27" y="240" font-size="15" font-family="sans-serif" fill="#FFF">Batch (1.6k lines, 0.7%)</text>
<circle cx="266" cy="236" r="6" fill="#000000" />
<text x="277" y="240" font-size="15" font-family="sans-serif" fill="#FFF">WebGPU Shad… (877 lines, 0.4%)</text>
<circle cx="516" cy="236" r="6" fill="#427819" />
<text x="527" y="240" font-size="15" font-family="sans-serif" fill="#FFF">Makefile (718 lines, 0.3%)</text>
<circle cx="16" cy="256" r="6" fill="#DA3434" />
<text x="27" y="260" font-size="15" font-family="sans-serif" fill="#FFF">CMake (685 lines, 0.3%)</text>
<circle cx="266" cy="256" r="6" fill="#000000" />
<text x="277" y="260" font-size="15" font-family="sans-serif" fill="#FFF">Cabal (536 lines, 0.2%)</text>
<circle cx="516" cy="256" r="6" fill="#000000" />
<text x="527" y="260" font-size="15" font-family="sans-serif" fill="#FFF">Templ (439 lines, 0.2%)</text>
<circle cx="16" cy="276" r="6" fill="#199f4b" />
<text x="27" y="280" font-size="15" font-family="sans-serif" fill="#FFF">Vim Script (287 lines, 0.1%)</text>
<circle cx="266" cy="276" r="6" fill="#41b883" />
<text x="277" y="280" font-size="15" font-family="sans-serif" fill="#FFF">Vue (277 lines, 0.1%)</text>
<circle cx="516" cy="276" r="6" fill="#B83998" />
<text x="527" y="280" font-size="15" font-family="sans-serif" fill="#FFF">Erlang (220 lines, 0.1%)</text>
<circle cx="16" cy="296" r="6" fill="#000000" />
<text x="27" y="300" font-size="15" font-family="sans-serif" fill="#FFF">Bitbake (163 lines, 0.1%)</text>
<circle cx="266" cy="296" r="6" fill="#db5855" />
<text x="277" y="300" font-size="15" font-family="sans-serif" fill="#FFF">Clojure (156 lines, 0.1%)</text>
<circle cx="516" cy="296" r="6" fill="#0050b2" />
<text x="527" y="300" font-size="15" font-family="sans-serif" fill="#FFF">FreeMarker (103 lines, 0.0%)</text>
<circle cx="16" cy="316" r="6" fill="#000000" />
<text x="27" y="320" font-size="15" font-family="sans-serif" fill="#FFF">Fish (100 lines, 0.0%)</text>
<circle cx="266" cy="316" r="6" fill="#701516" />
<text x="277" y="320" font-size="15" font-family="sans-serif" fill="#FFF">Ruby (100 lines, 0.0%)</text>
</svg>