<svg width="800" height="350" xmlns="http://www.w3.org/2000/svg">
<rect width="800" height="350" fill="#212830"/>
<rect x="10" y="40" width="320.36733023857266" height="50" fill="#3572A5"/>
<rect x="330.36733023857266" y="40" width="96.48177239870888" height="50" fill="#dea584"/>
<rect x="426.84910263728153" y="40" width="59.23149584025782" height="50" fill="#555555"/>
<rect x="486.08059847753935" y="40" width="48.34292237673575" height="50" fill="#b07219"/>
<rect x="534.4235208542751" y="40" width="43.26333920967424" height="50" fill="#c22d40"/>
<rect x="577.6868600639493" y="40" width="37.854411549282965" height="50" fill="#00B4AB"/>
<rect x="615.5412716132323" y="40" width="35.910672883128164" height="50" fill="#A97BFF"/>
<rect x="651.4519444963605" y="40" width="28.644888846233503" height="50" fill="#3D6117"/>
<rect x="680.096833342594" y="40" width="23.270309998029994" height="50" fill="None"/>
<rect x="703.367143340624" y="40" width="18.64332294450141" height="50" fill="#5e5086"/>
<rect x="722.0104662851254" y="40" width="18.542297026302098" height="50" fill="#000000"/>
<rect x="740.5527633114275" y="40" width="11.096686855012655" height="50" fill="#ec915c"/>
<rect x="751.6494501664401" y="40" width="11.009804565361243" height="50" fill="#89e051"/>
<rect x="762.6592547318014" y="40" width="10.644090741479726" height="50" fill="#239dad"/>
<rect x="773.3033454732812" y="40" width="6.871782955917341" height="50" fill="#000000"/>
<rect x="780.1751284291985" y="40" width="6.267647965085442" height="50" fill="#000080"/>
<rect x="786.4427763942839" y="40" width="4.327950335658613" height="50" fill="#000000"/>
<rect x="790.7707267299425" y="40" width="3.8935388874015633" height="50" fill="#f34b7d"/>
<rect x="794.664265617344" y="40" width="3.3237527087574317" height="50" fill="#000000"/>
<rect x="797.9880183261014" y="40" width="1.8811025968712272" height="50" fill="#41b883"/>
<rect x="799.8691209229726" y="40" width="1.8023023806757628" height="50" fill="#427819"/>
<rect x="801.6714233036483" y="40" width="1.7719946052159683" height="50" fill="#000000"/>
<rect x="803.4434179088643" y="40" width="1.3840550793306021" height="50" fill="#DA3434"/>
<rect x="804.8274729881948" y="40" width="1.0829978430966465" height="50" fill="#000000"/>
<rect x="805.9104708312915" y="40" width="0.9213563739777438" height="50" fill="#384d54"/>
<rect x="806.8318272052692" y="40" width="0.8870075617899773" height="50" fill="#000000"/>
<rect x="807.7188347670592" y="40" width="0.5798887704640625" height="50" fill="#199f4b"/>
<rect x="808.2987235375233" y="40" width="0.44451404007698175" height="50" fill="#B83998"/>
<rect x="808.7432375776003" y="40" width="0.32934449332976373" height="50" fill="#000000"/>
<rect x="809.0725820709301" y="40" width="0.31520086478185977" height="50" fill="#db5855"/>
<rect x="809.387782935712" y="40" width="0.20811339149058694" height="50" fill="#0050b2"/>
<rect x="809.5958963272026" y="40" width="0.20205183639862806" height="50" fill="#000000"/>
<rect x="809.7979481636012" y="40" width="0.20205183639862806" height="50" fill="#701516"/>
<circle cx="16" cy="116" r="6" fill="#3572A5" />
<text x="27" y="120" font-size="15" font-family="sans-serif" fill="#FFF">Python (158.6k lines, 40.0%)</text>
<circle cx="266" cy="116" r="6" fill="#dea584" />
<text x="277" y="120" font-size="15" font-family="sans-serif" fill="#FFF">Rust (47.8k lines, 12.1%)</text>
<circle cx="516" cy="116" r="6" fill="#555555" />
<text x="527" y="120" font-size="15" font-family="sans-serif" fill="#FFF">C (29.3k lines, 7.4%)</text>
<circle cx="16" cy="136" r="6" fill="#b07219" />
<text x="27" y="140" font-size="15" font-family="sans-serif" fill="#FFF">Java (23.9k lines, 6.0%)</text>
<circle cx="266" cy="136" r="6" fill="#c22d40" />
<text x="277" y="140" font-size="15" font-family="sans-serif" fill="#FFF">Scala (21.4k lines, 5.4%)</text>
<circle cx="516" cy="136" r="6" fill="#00B4AB" />
<text x="527" y="140" font-size="15" font-family="sans-serif" fill="#FFF">Dart (18.7k lines, 4.7%)</text>
<circle cx="16" cy="156" r="6" fill="#A97BFF" />
<text x="27" y="160" font-size="15" font-family="sans-serif" fill="#FFF">Kotlin (17.8k lines, 4.5%)</text>
<circle cx="266" cy="156" r="6" fill="#3D6117" />
<text x="277" y="160" font-size="15" font-family="sans-serif" fill="#FFF">TeX (14.2k lines, 3.6%)</text>
<circle cx="516" cy="156" r="6" fill="None" />
<text x="527" y="160" font-size="15" font-family="sans-serif" fill="#FFF">Lean (11.5k lines, 2.9%)</text>
<circle cx="16" cy="176" r="6" fill="#5e5086" />
<text x="27" y="180" font-size="15" font-family="sans-serif" fill="#FFF">Haskell (9.2k lines, 2.3%)</text>
<circle cx="266" cy="176" r="6" fill="#000000" />
<text x="277" y="180" font-size="15" font-family="sans-serif" fill="#FFF">C Header (9.2k lines, 2.3%)</text>
<circle cx="516" cy="176" r="6" fill="#ec915c" />
<text x="527" y="180" font-size="15" font-family="sans-serif" fill="#FFF">Zig (5.5k lines, 1.4%)</text>
<circle cx="16" cy="196" r="6" fill="#89e051" />
<text x="27" y="200" font-size="15" font-family="sans-serif" fill="#FFF">Shell (5.4k lines, 1.4%)</text>
<circle cx="266" cy="196" r="6" fill="#239dad" />
<text x="277" y="200" font-size="15" font-family="sans-serif" fill="#FFF">Typst (5.3k lines, 1.3%)</text>
<circle cx="516" cy="196" r="6" fill="#000000" />
<text x="527" y="200" font-size="15" font-family="sans-serif" fill="#FFF">Jupyter Not… (3.4k lines, 0.9%)</text>
<circle cx="16" cy="216" r="6" fill="#000080" />
<text x="27" y="220" font-size="15" font-family="sans-serif" fill="#FFF">Lua (3.1k lines, 0.8%)</text>
<circle cx="266" cy="216" r="6" fill="#000000" />
<text x="277" y="220" font-size="15" font-family="sans-serif" fill="#FFF">GNU Style A… (2.1k lines, 0.5%)</text>
<circle cx="516" cy="216" r="6" fill="#f34b7d" />
<text x="527" y="220" font-size="15" font-family="sans-serif" fill="#FFF">C++ (1.9k lines, 0.5%)</text>
<circle cx="16" cy="236" r="6" fill="#000000" />
<text x="27" y="240" font-size="15" font-family="sans-serif" fill="#FFF">Batch (1.6k lines, 0.4%)</text>
<circle cx="266" cy="236" r="6" fill="#41b883" />
<text x="277" y="240" font-size="15" font-family="sans-serif" fill="#FFF">Vue (931 lines, 0.2%)</text>
<circle cx="516" cy="236" r="6" fill="#427819" />
<text x="527" y="240" font-size="15" font-family="sans-serif" fill="#FFF">Makefile (892 lines, 0.2%)</text>
<circle cx="16" cy="256" r="6" fill="#000000" />
<text x="27" y="260" font-size="15" font-family="sans-serif" fill="#FFF">WebGPU Shad… (877 lines, 0.2%)</text>
<circle cx="266" cy="256" r="6" fill="#DA3434" />
<text x="277" y="260" font-size="15" font-family="sans-serif" fill="#FFF">CMake (685 lines, 0.2%)</text>
<circle cx="516" cy="256" r="6" fill="#000000" />
<text x="527" y="260" font-size="15" font-family="sans-serif" fill="#FFF">Cabal (536 lines, 0.1%)</text>
<circle cx="16" cy="276" r="6" fill="#384d54" />
<text x="27" y="280" font-size="15" font-family="sans-serif" fill="#FFF">Just (456 lines, 0.1%)</text>
<circle cx="266" cy="276" r="6" fill="#000000" />
<text x="277" y="280" font-size="15" font-family="sans-serif" fill="#FFF">Templ (439 lines, 0.1%)</text>
<circle cx="516" cy="276" r="6" fill="#199f4b" />
<text x="527" y="280" font-size="15" font-family="sans-serif" fill="#FFF">Vim Script (287 lines, 0.1%)</text>
<circle cx="16" cy="296" r="6" fill="#B83998" />
<text x="27" y="300" font-size="15" font-family="sans-serif" fill="#FFF">Erlang (220 lines, 0.1%)</text>
<circle cx="266" cy="296" r="6" fill="#000000" />
<text x="277" y="300" font-size="15" font-family="sans-serif" fill="#FFF">Bitbake (163 lines, 0.0%)</text>
<circle cx="516" cy="296" r="6" fill="#db5855" />
<text x="527" y="300" font-size="15" font-family="sans-serif" fill="#FFF">Clojure (156 lines, 0.0%)</text>
<circle cx="16" cy="316" r="6" fill="#0050b2" />
<text x="27" y="320" font-size="15" font-family="sans-serif" fill="#FFF">FreeMarker (103 lines, 0.0%)</text>
<circle cx="266" cy="316" r="6" fill="#000000" />
<text x="277" y="320" font-size="15" font-family="sans-serif" fill="#FFF">Fish (100 lines, 0.0%)</text>
<circle cx="516" cy="316" r="6" fill="#701516" />
<text x="527" y="320" font-size="15" font-family="sans-serif" fill="#FFF">Ruby (100 lines, 0.0%)</text>
</svg>