<svg width="800" height="350" xmlns="http://www.w3.org/2000/svg">
<rect width="800" height="350" fill="#212830"/>
<rect x="10" y="40" width="106.2577438837606" height="50" fill="#555555"/>
<rect x="116.2577438837606" y="40" width="87.51240164410369" height="50" fill="#b07219"/>
<rect x="203.7701455278643" y="40" width="82.1100854513284" height="50" fill="#3572A5"/>
<rect x="285.8802309791927" y="40" width="78.31712547034807" height="50" fill="#c22d40"/>
<rect x="364.19735644954073" y="40" width="68.52565597267753" height="50" fill="#00B4AB"/>
<rect x="432.7230124222183" y="40" width="62.336949812775174" height="50" fill="#A97BFF"/>
<rect x="495.05996223499346" y="40" width="56.1189826308402" height="50" fill="#dea584"/>
<rect x="551.1789448658336" y="40" width="44.49504162837587" height="50" fill="None"/>
<rect x="595.6739864942094" y="40" width="33.7489312868906" height="50" fill="#5e5086"/>
<rect x="629.4229177811001" y="40" width="33.56604989918664" height="50" fill="#000000"/>
<rect x="662.9889676802867" y="40" width="30.19371710992543" height="50" fill="#3D6117"/>
<rect x="693.1826847902121" y="40" width="20.08769162540405" height="50" fill="#ec915c"/>
<rect x="713.2703764156162" y="40" width="18.748999867410994" height="50" fill="#89e051"/>
<rect x="732.0193762830272" y="40" width="16.82508766876523" height="50" fill="#239dad"/>
<rect x="748.8444639517925" y="40" width="12.439591991624035" height="50" fill="#000000"/>
<rect x="761.2840559434165" y="40" width="11.345961293154295" height="50" fill="#000080"/>
<rect x="772.6300172365709" y="40" width="7.834638649238071" height="50" fill="#000000"/>
<rect x="780.464655885809" y="40" width="7.048248682111" height="50" fill="#f34b7d"/>
<rect x="787.5129045679199" y="40" width="6.01679765546061" height="50" fill="#000000"/>
<rect x="793.5297022233806" y="40" width="3.2077395403276316" height="50" fill="#000000"/>
<rect x="796.7374417637083" y="40" width="2.6261767274290078" height="50" fill="#427819"/>
<rect x="799.3636184911372" y="40" width="2.505475011544388" height="50" fill="#DA3434"/>
<rect x="801.8690935026816" y="40" width="1.9604884761865575" height="50" fill="#000000"/>
<rect x="803.8295819788682" y="40" width="1.6056985840408557" height="50" fill="#000000"/>
<rect x="805.435280562909" y="40" width="1.0497391654207873" height="50" fill="#199f4b"/>
<rect x="806.4850197283298" y="40" width="0.8046781058974675" height="50" fill="#B83998"/>
<rect x="807.2896978342272" y="40" width="0.596193323914942" height="50" fill="#000000"/>
<rect x="807.8858911581422" y="40" width="0.5705899296363861" height="50" fill="#db5855"/>
<rect x="808.4564810877786" y="40" width="0.43525770273544834" height="50" fill="#41b883"/>
<rect x="808.8917387905141" y="40" width="0.376735658670178" height="50" fill="#0050b2"/>
<rect x="809.2684744491843" y="40" width="0.36576277540793983" height="50" fill="#000000"/>
<rect x="809.6342372245922" y="40" width="0.36576277540793983" height="50" fill="#701516"/>
<circle cx="16" cy="116" r="6" fill="#555555" />
<text x="27" y="120" font-size="15" font-family="sans-serif" fill="#FFF">C (29.1k lines, 13.3%)</text>
<circle cx="266" cy="116" r="6" fill="#b07219" />
<text x="277" y="120" font-size="15" font-family="sans-serif" fill="#FFF">Java (23.9k lines, 10.9%)</text>
<circle cx="516" cy="116" r="6" fill="#3572A5" />
<text x="527" y="120" font-size="15" font-family="sans-serif" fill="#FFF">Python (22.4k lines, 10.3%)</text>
<circle cx="16" cy="136" r="6" fill="#c22d40" />
<text x="27" y="140" font-size="15" font-family="sans-serif" fill="#FFF">Scala (21.4k lines, 9.8%)</text>
<circle cx="266" cy="136" r="6" fill="#00B4AB" />
<text x="277" y="140" font-size="15" font-family="sans-serif" fill="#FFF">Dart (18.7k lines, 8.6%)</text>
<circle cx="516" cy="136" r="6" fill="#A97BFF" />
<text x="527" y="140" font-size="15" font-family="sans-serif" fill="#FFF">Kotlin (17.0k lines, 7.8%)</text>
<circle cx="16" cy="156" r="6" fill="#dea584" />
<text x="27" y="160" font-size="15" font-family="sans-serif" fill="#FFF">Rust (15.3k lines, 7.0%)</text>
<circle cx="266" cy="156" r="6" fill="None" />
<text x="277" y="160" font-size="15" font-family="sans-serif" fill="#FFF">Lean (12.2k lines, 5.6%)</text>
<circle cx="516" cy="156" r="6" fill="#5e5086" />
<text x="527" y="160" font-size="15" font-family="sans-serif" fill="#FFF">Haskell (9.2k lines, 4.2%)</text>
<circle cx="16" cy="176" r="6" fill="#000000" />
<text x="27" y="180" font-size="15" font-family="sans-serif" fill="#FFF">C Header (9.2k lines, 4.2%)</text>
<circle cx="266" cy="176" r="6" fill="#3D6117" />
<text x="277" y="180" font-size="15" font-family="sans-serif" fill="#FFF">TeX (8.3k lines, 3.8%)</text>
<circle cx="516" cy="176" r="6" fill="#ec915c" />
<text x="527" y="180" font-size="15" font-family="sans-serif" fill="#FFF">Zig (5.5k lines, 2.5%)</text>
<circle cx="16" cy="196" r="6" fill="#89e051" />
<text x="27" y="200" font-size="15" font-family="sans-serif" fill="#FFF">Shell (5.1k lines, 2.3%)</text>
<circle cx="266" cy="196" r="6" fill="#239dad" />
<text x="277" y="200" font-size="15" font-family="sans-serif" fill="#FFF">Typst (4.6k lines, 2.1%)</text>
<circle cx="516" cy="196" r="6" fill="#000000" />
<text x="527" y="200" font-size="15" font-family="sans-serif" fill="#FFF">Jupyter Not… (3.4k lines, 1.6%)</text>
<circle cx="16" cy="216" r="6" fill="#000080" />
<text x="27" y="220" font-size="15" font-family="sans-serif" fill="#FFF">Lua (3.1k lines, 1.4%)</text>
<circle cx="266" cy="216" r="6" fill="#000000" />
<text x="277" y="220" font-size="15" font-family="sans-serif" fill="#FFF">GNU Style A… (2.1k lines, 1.0%)</text>
<circle cx="516" cy="216" r="6" fill="#f34b7d" />
<text x="527" y="220" font-size="15" font-family="sans-serif" fill="#FFF">C++ (1.9k lines, 0.9%)</text>
<circle cx="16" cy="236" r="6" fill="#000000" />
<text x="27" y="240" font-size="15" font-family="sans-serif" fill="#FFF">Batch (1.6k lines, 0.8%)</text>
<circle cx="266" cy="236" r="6" fill="#000000" />
<text x="277" y="240" font-size="15" font-family="sans-serif" fill="#FFF">WebGPU Shad… (877 lines, 0.4%)</text>
<circle cx="516" cy="236" r="6" fill="#427819" />
<text x="527" y="240" font-size="15" font-family="sans-serif" fill="#FFF">Makefile (718 lines, 0.3%)</text>
<circle cx="16" cy="256" r="6" fill="#DA3434" />
<text x="27" y="260" font-size="15" font-family="sans-serif" fill="#FFF">CMake (685 lines, 0.3%)</text>
<circle cx="266" cy="256" r="6" fill="#000000" />
<text x="277" y="260" font-size="15" font-family="sans-serif" fill="#FFF">Cabal (536 lines, 0.2%)</text>
<circle cx="516" cy="256" r="6" fill="#000000" />
<text x="527" y="260" font-size="15" font-family="sans-serif" fill="#FFF">Templ (439 lines, 0.2%)</text>
<circle cx="16" cy="276" r="6" fill="#199f4b" />
<text x="27" y="280" font-size="15" font-family="sans-serif" fill="#FFF">Vim Script (287 lines, 0.1%)</text>
<circle cx="266" cy="276" r="6" fill="#B83998" />
<text x="277" y="280" font-size="15" font-family="sans-serif" fill="#FFF">Erlang (220 lines, 0.1%)</text>
<circle cx="516" cy="276" r="6" fill="#000000" />
<text x="527" y="280" font-size="15" font-family="sans-serif" fill="#FFF">Bitbake (163 lines, 0.1%)</text>
<circle cx="16" cy="296" r="6" fill="#db5855" />
<text x="27" y="300" font-size="15" font-family="sans-serif" fill="#FFF">Clojure (156 lines, 0.1%)</text>
<circle cx="266" cy="296" r="6" fill="#41b883" />
<text x="277" y="300" font-size="15" font-family="sans-serif" fill="#FFF">Vue (119 lines, 0.1%)</text>
<circle cx="516" cy="296" r="6" fill="#0050b2" />
<text x="527" y="300" font-size="15" font-family="sans-serif" fill="#FFF">FreeMarker (103 lines, 0.0%)</text>
<circle cx="16" cy="316" r="6" fill="#000000" />
<text x="27" y="320" font-size="15" font-family="sans-serif" fill="#FFF">Fish (100 lines, 0.0%)</text>
<circle cx="266" cy="316" r="6" fill="#701516" />
<text x="277" y="320" font-size="15" font-family="sans-serif" fill="#FFF">Ruby (100 lines, 0.0%)</text>
</svg>