<svg width="800" height="350" xmlns="http://www.w3.org/2000/svg">
<rect width="800" height="350" fill="#212830"/>
<rect x="10" y="40" width="214.0566003693753" height="50" fill="#3572A5"/>
<rect x="224.0566003693753" y="40" width="94.66767703607478" height="50" fill="#dea584"/>
<rect x="318.7242774054501" y="40" width="76.23958876652922" height="50" fill="#555555"/>
<rect x="394.9638661719793" y="40" width="62.78986612605342" height="50" fill="#b07219"/>
<rect x="457.75373229803273" y="40" width="56.192285107876614" height="50" fill="#c22d40"/>
<rect x="513.9460174059093" y="40" width="49.166937301329554" height="50" fill="#00B4AB"/>
<rect x="563.1129547072388" y="40" width="44.726560577878814" height="50" fill="#A97BFF"/>
<rect x="607.8395152851176" y="40" width="36.91916060609043" height="50" fill="#3D6117"/>
<rect x="644.758675891208" y="40" width="30.224479151289696" height="50" fill="None"/>
<rect x="674.9831550424976" y="40" width="24.21474942510637" height="50" fill="#5e5086"/>
<rect x="699.197904467604" y="40" width="24.083532618857827" height="50" fill="#000000"/>
<rect x="723.2814370864618" y="40" width="14.412853998340108" height="50" fill="#ec915c"/>
<rect x="737.6942910848019" y="40" width="14.286885864341507" height="50" fill="#89e051"/>
<rect x="751.9811769491433" y="40" width="12.237279350739243" height="50" fill="#239dad"/>
<rect x="764.2184562998825" y="40" width="8.925367161025983" height="50" fill="#000000"/>
<rect x="773.1438234609085" y="40" width="8.14069065965969" height="50" fill="#000080"/>
<rect x="781.2845141205681" y="40" width="5.6213279796876385" height="50" fill="#000000"/>
<rect x="786.9058421002558" y="40" width="5.057095712818898" height="50" fill="#f34b7d"/>
<rect x="791.9629378130746" y="40" width="4.317032925577108" height="50" fill="#000000"/>
<rect x="796.2799707386517" y="40" width="2.3723998569736815" height="50" fill="#427819"/>
<rect x="798.6523705956254" y="40" width="2.3015427815994673" height="50" fill="#000000"/>
<rect x="800.9539133772248" y="40" width="1.7976702456050568" height="50" fill="#DA3434"/>
<rect x="802.7515836228299" y="40" width="1.406644162984395" height="50" fill="#000000"/>
<rect x="804.1582277858143" y="40" width="1.4040198268594242" height="50" fill="#41b883"/>
<rect x="805.5622476126738" y="40" width="1.1520835588622191" height="50" fill="#000000"/>
<rect x="806.7143311715361" y="40" width="0.7531844678666444" height="50" fill="#199f4b"/>
<rect x="807.4675156394027" y="40" width="0.577353947493595" height="50" fill="#B83998"/>
<rect x="808.0448695868963" y="40" width="0.4277667883702545" height="50" fill="#000000"/>
<rect x="808.4726363752666" y="40" width="0.40939643549545823" height="50" fill="#db5855"/>
<rect x="808.882032810762" y="40" width="0.322793343371419" height="50" fill="#384d54"/>
<rect x="809.2048261541335" y="40" width="0.27030662087200125" height="50" fill="#0050b2"/>
<rect x="809.4751327750055" y="40" width="0.26243361249708863" height="50" fill="#000000"/>
<rect x="809.7375663875025" y="40" width="0.26243361249708863" height="50" fill="#701516"/>
<circle cx="16" cy="116" r="6" fill="#3572A5" />
<text x="27" y="120" font-size="15" font-family="sans-serif" fill="#FFF">Python (81.6k lines, 26.8%)</text>
<circle cx="266" cy="116" r="6" fill="#dea584" />
<text x="277" y="120" font-size="15" font-family="sans-serif" fill="#FFF">Rust (36.1k lines, 11.8%)</text>
<circle cx="516" cy="116" r="6" fill="#555555" />
<text x="527" y="120" font-size="15" font-family="sans-serif" fill="#FFF">C (29.1k lines, 9.5%)</text>
<circle cx="16" cy="136" r="6" fill="#b07219" />
<text x="27" y="140" font-size="15" font-family="sans-serif" fill="#FFF">Java (23.9k lines, 7.8%)</text>
<circle cx="266" cy="136" r="6" fill="#c22d40" />
<text x="277" y="140" font-size="15" font-family="sans-serif" fill="#FFF">Scala (21.4k lines, 7.0%)</text>
<circle cx="516" cy="136" r="6" fill="#00B4AB" />
<text x="527" y="140" font-size="15" font-family="sans-serif" fill="#FFF">Dart (18.7k lines, 6.1%)</text>
<circle cx="16" cy="156" r="6" fill="#A97BFF" />
<text x="27" y="160" font-size="15" font-family="sans-serif" fill="#FFF">Kotlin (17.0k lines, 5.6%)</text>
<circle cx="266" cy="156" r="6" fill="#3D6117" />
<text x="277" y="160" font-size="15" font-family="sans-serif" fill="#FFF">TeX (14.1k lines, 4.6%)</text>
<circle cx="516" cy="156" r="6" fill="None" />
<text x="527" y="160" font-size="15" font-family="sans-serif" fill="#FFF">Lean (11.5k lines, 3.8%)</text>
<circle cx="16" cy="176" r="6" fill="#5e5086" />
<text x="27" y="180" font-size="15" font-family="sans-serif" fill="#FFF">Haskell (9.2k lines, 3.0%)</text>
<circle cx="266" cy="176" r="6" fill="#000000" />
<text x="277" y="180" font-size="15" font-family="sans-serif" fill="#FFF">C Header (9.2k lines, 3.0%)</text>
<circle cx="516" cy="176" r="6" fill="#ec915c" />
<text x="527" y="180" font-size="15" font-family="sans-serif" fill="#FFF">Zig (5.5k lines, 1.8%)</text>
<circle cx="16" cy="196" r="6" fill="#89e051" />
<text x="27" y="200" font-size="15" font-family="sans-serif" fill="#FFF">Shell (5.4k lines, 1.8%)</text>
<circle cx="266" cy="196" r="6" fill="#239dad" />
<text x="277" y="200" font-size="15" font-family="sans-serif" fill="#FFF">Typst (4.7k lines, 1.5%)</text>
<circle cx="516" cy="196" r="6" fill="#000000" />
<text x="527" y="200" font-size="15" font-family="sans-serif" fill="#FFF">Jupyter Not… (3.4k lines, 1.1%)</text>
<circle cx="16" cy="216" r="6" fill="#000080" />
<text x="27" y="220" font-size="15" font-family="sans-serif" fill="#FFF">Lua (3.1k lines, 1.0%)</text>
<circle cx="266" cy="216" r="6" fill="#000000" />
<text x="277" y="220" font-size="15" font-family="sans-serif" fill="#FFF">GNU Style A… (2.1k lines, 0.7%)</text>
<circle cx="516" cy="216" r="6" fill="#f34b7d" />
<text x="527" y="220" font-size="15" font-family="sans-serif" fill="#FFF">C++ (1.9k lines, 0.6%)</text>
<circle cx="16" cy="236" r="6" fill="#000000" />
<text x="27" y="240" font-size="15" font-family="sans-serif" fill="#FFF">Batch (1.6k lines, 0.5%)</text>
<circle cx="266" cy="236" r="6" fill="#427819" />
<text x="277" y="240" font-size="15" font-family="sans-serif" fill="#FFF">Makefile (904 lines, 0.3%)</text>
<circle cx="516" cy="236" r="6" fill="#000000" />
<text x="527" y="240" font-size="15" font-family="sans-serif" fill="#FFF">WebGPU Shad… (877 lines, 0.3%)</text>
<circle cx="16" cy="256" r="6" fill="#DA3434" />
<text x="27" y="260" font-size="15" font-family="sans-serif" fill="#FFF">CMake (685 lines, 0.2%)</text>
<circle cx="266" cy="256" r="6" fill="#000000" />
<text x="277" y="260" font-size="15" font-family="sans-serif" fill="#FFF">Cabal (536 lines, 0.2%)</text>
<circle cx="516" cy="256" r="6" fill="#41b883" />
<text x="527" y="260" font-size="15" font-family="sans-serif" fill="#FFF">Vue (535 lines, 0.2%)</text>
<circle cx="16" cy="276" r="6" fill="#000000" />
<text x="27" y="280" font-size="15" font-family="sans-serif" fill="#FFF">Templ (439 lines, 0.1%)</text>
<circle cx="266" cy="276" r="6" fill="#199f4b" />
<text x="277" y="280" font-size="15" font-family="sans-serif" fill="#FFF">Vim Script (287 lines, 0.1%)</text>
<circle cx="516" cy="276" r="6" fill="#B83998" />
<text x="527" y="280" font-size="15" font-family="sans-serif" fill="#FFF">Erlang (220 lines, 0.1%)</text>
<circle cx="16" cy="296" r="6" fill="#000000" />
<text x="27" y="300" font-size="15" font-family="sans-serif" fill="#FFF">Bitbake (163 lines, 0.1%)</text>
<circle cx="266" cy="296" r="6" fill="#db5855" />
<text x="277" y="300" font-size="15" font-family="sans-serif" fill="#FFF">Clojure (156 lines, 0.1%)</text>
<circle cx="516" cy="296" r="6" fill="#384d54" />
<text x="527" y="300" font-size="15" font-family="sans-serif" fill="#FFF">Just (123 lines, 0.0%)</text>
<circle cx="16" cy="316" r="6" fill="#0050b2" />
<text x="27" y="320" font-size="15" font-family="sans-serif" fill="#FFF">FreeMarker (103 lines, 0.0%)</text>
<circle cx="266" cy="316" r="6" fill="#000000" />
<text x="277" y="320" font-size="15" font-family="sans-serif" fill="#FFF">Fish (100 lines, 0.0%)</text>
<circle cx="516" cy="316" r="6" fill="#701516" />
<text x="527" y="320" font-size="15" font-family="sans-serif" fill="#FFF">Ruby (100 lines, 0.0%)</text>
</svg>