<svg width="800" height="350" xmlns="http://www.w3.org/2000/svg">
<rect x="10" y="40" width="130.73575230036246" height="50" fill="#555555"/>
<rect x="140.73575230036246" y="40" width="116.02313091759913" height="50" fill="#b07219"/>
<rect x="256.7588832179616" y="40" width="99.53083516190429" height="50" fill="#c22d40"/>
<rect x="356.2897183798659" y="40" width="89.10494987088875" height="50" fill="#A97BFF"/>
<rect x="445.39466825075465" y="40" width="62.05098985294653" height="50" fill="#00B4AB"/>
<rect x="507.4456581037012" y="40" width="44.64218604143682" height="50" fill="#5e5086"/>
<rect x="552.087844145138" y="40" width="42.877059415423034" height="50" fill="#000000"/>
<rect x="594.964903560561" y="40" width="40.03055026852716" height="50" fill="#3D6117"/>
<rect x="634.9954538290881" y="40" width="32.94579751960915" height="50" fill="#3572A5"/>
<rect x="667.9412513486973" y="40" width="24.425667074811784" height="50" fill="#89e051"/>
<rect x="692.3669184235091" y="40" width="24.26564185871713" height="50" fill="None"/>
<rect x="716.6325602822262" y="40" width="14.198600991671414" height="50" fill="#239dad"/>
<rect x="730.8311612738977" y="40" width="11.735182513608203" height="50" fill="#000080"/>
<rect x="742.5663437875058" y="40" width="10.387091299235031" height="50" fill="#000000"/>
<rect x="752.9534350867409" y="40" width="9.000206093081333" height="50" fill="#dea584"/>
<rect x="761.9536411798223" y="40" width="8.010959302677998" height="50" fill="#000000"/>
<rect x="769.9646004825003" y="40" width="7.593923891037375" height="50" fill="#f34b7d"/>
<rect x="777.5585243735376" y="40" width="7.593923891037375" height="50" fill="#e38c00"/>
<rect x="785.1524482645749" y="40" width="4.1897511122964834" height="50" fill="#ec915c"/>
<rect x="789.3421993768713" y="40" width="3.6854292191496842" height="50" fill="#000000"/>
<rect x="793.027628596021" y="40" width="3.3217355462072815" height="50" fill="#DA3434"/>
<rect x="796.3493641422283" y="40" width="2.599197449295041" height="50" fill="#000000"/>
<rect x="798.9485615915233" y="40" width="2.410076739364991" height="50" fill="#427819"/>
<rect x="801.3586383308883" y="40" width="2.128820298956199" height="50" fill="#000000"/>
<rect x="803.4874586298445" y="40" width="1.5226641773855274" height="50" fill="#384d54"/>
<rect x="805.01012280723" y="40" width="1.3917344551262625" height="50" fill="#199f4b"/>
<rect x="806.4018572623563" y="40" width="1.0668347739643824" height="50" fill="#B83998"/>
<rect x="807.4686920363207" y="40" width="0.7904275825281559" height="50" fill="#000000"/>
<rect x="808.2591196188489" y="40" width="0.7564828397201984" height="50" fill="#db5855"/>
<rect x="809.0156024585691" y="40" width="0.49947264417423354" height="50" fill="#0050b2"/>
<rect x="809.5150751027434" y="40" width="0.4849248972565374" height="50" fill="#701516"/>
<circle cx="16" cy="116" r="6" fill="#555555" />
<text x="27" y="120" font-size="15" font-family="sans-serif" fill="#FFF">C (27.0k lines, 16.3%)</text>
<circle cx="266" cy="116" r="6" fill="#b07219" />
<text x="277" y="120" font-size="15" font-family="sans-serif" fill="#FFF">Java (23.9k lines, 14.5%)</text>
<circle cx="516" cy="116" r="6" fill="#c22d40" />
<text x="527" y="120" font-size="15" font-family="sans-serif" fill="#FFF">Scala (20.5k lines, 12.4%)</text>
<circle cx="16" cy="136" r="6" fill="#A97BFF" />
<text x="27" y="140" font-size="15" font-family="sans-serif" fill="#FFF">Kotlin (18.4k lines, 11.1%)</text>
<circle cx="266" cy="136" r="6" fill="#00B4AB" />
<text x="277" y="140" font-size="15" font-family="sans-serif" fill="#FFF">Dart (12.8k lines, 7.8%)</text>
<circle cx="516" cy="136" r="6" fill="#5e5086" />
<text x="527" y="140" font-size="15" font-family="sans-serif" fill="#FFF">Haskell (9.2k lines, 5.6%)</text>
<circle cx="16" cy="156" r="6" fill="#000000" />
<text x="27" y="160" font-size="15" font-family="sans-serif" fill="#FFF">C Header (8.8k lines, 5.4%)</text>
<circle cx="266" cy="156" r="6" fill="#3D6117" />
<text x="277" y="160" font-size="15" font-family="sans-serif" fill="#FFF">TeX (8.3k lines, 5.0%)</text>
<circle cx="516" cy="156" r="6" fill="#3572A5" />
<text x="527" y="160" font-size="15" font-family="sans-serif" fill="#FFF">Python (6.8k lines, 4.1%)</text>
<circle cx="16" cy="176" r="6" fill="#89e051" />
<text x="27" y="180" font-size="15" font-family="sans-serif" fill="#FFF">Shell (5.0k lines, 3.1%)</text>
<circle cx="266" cy="176" r="6" fill="None" />
<text x="277" y="180" font-size="15" font-family="sans-serif" fill="#FFF">Lean (5.0k lines, 3.0%)</text>
<circle cx="516" cy="176" r="6" fill="#239dad" />
<text x="527" y="180" font-size="15" font-family="sans-serif" fill="#FFF">Typst (2.9k lines, 1.8%)</text>
<circle cx="16" cy="196" r="6" fill="#000080" />
<text x="27" y="200" font-size="15" font-family="sans-serif" fill="#FFF">Lua (2.4k lines, 1.5%)</text>
<circle cx="266" cy="196" r="6" fill="#000000" />
<text x="277" y="200" font-size="15" font-family="sans-serif" fill="#FFF">GNU Style A… (2.1k lines, 1.3%)</text>
<circle cx="516" cy="196" r="6" fill="#dea584" />
<text x="527" y="200" font-size="15" font-family="sans-serif" fill="#FFF">Rust (1.9k lines, 1.1%)</text>
<circle cx="16" cy="216" r="6" fill="#000000" />
<text x="27" y="220" font-size="15" font-family="sans-serif" fill="#FFF">Batch (1.7k lines, 1.0%)</text>
<circle cx="266" cy="216" r="6" fill="#f34b7d" />
<text x="277" y="220" font-size="15" font-family="sans-serif" fill="#FFF">C++ (1.6k lines, 0.9%)</text>
<circle cx="516" cy="216" r="6" fill="#e38c00" />
<text x="527" y="220" font-size="15" font-family="sans-serif" fill="#FFF">SQL (1.6k lines, 0.9%)</text>
<circle cx="16" cy="236" r="6" fill="#ec915c" />
<text x="27" y="240" font-size="15" font-family="sans-serif" fill="#FFF">Zig (864 lines, 0.5%)</text>
<circle cx="266" cy="236" r="6" fill="#000000" />
<text x="277" y="240" font-size="15" font-family="sans-serif" fill="#FFF">WebGPU Shad… (760 lines, 0.5%)</text>
<circle cx="516" cy="236" r="6" fill="#DA3434" />
<text x="527" y="240" font-size="15" font-family="sans-serif" fill="#FFF">CMake (685 lines, 0.4%)</text>
<circle cx="16" cy="256" r="6" fill="#000000" />
<text x="27" y="260" font-size="15" font-family="sans-serif" fill="#FFF">Cabal (536 lines, 0.3%)</text>
<circle cx="266" cy="256" r="6" fill="#427819" />
<text x="277" y="260" font-size="15" font-family="sans-serif" fill="#FFF">Makefile (497 lines, 0.3%)</text>
<circle cx="516" cy="256" r="6" fill="#000000" />
<text x="527" y="260" font-size="15" font-family="sans-serif" fill="#FFF">Templ (439 lines, 0.3%)</text>
<circle cx="16" cy="276" r="6" fill="#384d54" />
<text x="27" y="280" font-size="15" font-family="sans-serif" fill="#FFF">Dockerfile (314 lines, 0.2%)</text>
<circle cx="266" cy="276" r="6" fill="#199f4b" />
<text x="277" y="280" font-size="15" font-family="sans-serif" fill="#FFF">Vim Script (287 lines, 0.2%)</text>
<circle cx="516" cy="276" r="6" fill="#B83998" />
<text x="527" y="280" font-size="15" font-family="sans-serif" fill="#FFF">Erlang (220 lines, 0.1%)</text>
<circle cx="16" cy="296" r="6" fill="#000000" />
<text x="27" y="300" font-size="15" font-family="sans-serif" fill="#FFF">Bitbake (163 lines, 0.1%)</text>
<circle cx="266" cy="296" r="6" fill="#db5855" />
<text x="277" y="300" font-size="15" font-family="sans-serif" fill="#FFF">Clojure (156 lines, 0.1%)</text>
<circle cx="516" cy="296" r="6" fill="#0050b2" />
<text x="527" y="300" font-size="15" font-family="sans-serif" fill="#FFF">FreeMarker (103 lines, 0.1%)</text>
<circle cx="16" cy="316" r="6" fill="#701516" />
<text x="27" y="320" font-size="15" font-family="sans-serif" fill="#FFF">Ruby (100 lines, 0.1%)</text>
</svg>