<svg width="800" height="330" xmlns="http://www.w3.org/2000/svg">
<rect width="800" height="330" fill="#212830"/>
<rect x="10" y="40" width="141.61432656436412" height="50" fill="#555555"/>
<rect x="151.61432656436412" y="40" width="120.82389107367173" height="50" fill="#b07219"/>
<rect x="272.43821763803584" y="40" width="103.64918349440408" height="50" fill="#c22d40"/>
<rect x="376.08740113243994" y="40" width="67.07276273679294" height="50" fill="#A97BFF"/>
<rect x="443.16016386923286" y="40" width="58.60408158112348" height="50" fill="#00B4AB"/>
<rect x="501.7642454503563" y="40" width="46.489373118123446" height="50" fill="#5e5086"/>
<rect x="548.2536185684797" y="40" width="45.65108983139648" height="50" fill="#000000"/>
<rect x="593.9047083998762" y="40" width="41.68691886705509" height="50" fill="#3D6117"/>
<rect x="635.5916272669313" y="40" width="33.34448519432644" height="50" fill="None"/>
<rect x="668.9361124612577" y="40" width="28.723827318692834" height="50" fill="#3572A5"/>
<rect x="697.6599397799506" y="40" width="23.95672236284789" height="50" fill="#89e051"/>
<rect x="721.6166621427985" y="40" width="15.609238790801607" height="50" fill="#239dad"/>
<rect x="737.2259009336001" y="40" width="12.2207563486703" height="50" fill="#000080"/>
<rect x="749.4466572822704" y="40" width="10.816884338368505" height="50" fill="#000000"/>
<rect x="760.2635416206389" y="40" width="9.37261313352565" height="50" fill="#dea584"/>
<rect x="769.6361547541645" y="40" width="7.983890821176754" height="50" fill="#000000"/>
<rect x="777.6200455753412" y="40" width="7.908142331412267" height="50" fill="#f34b7d"/>
<rect x="785.5281879067535" y="40" width="4.363113010434354" height="50" fill="#ec915c"/>
<rect x="789.8913009171879" y="40" width="3.8379234814005896" height="50" fill="#000000"/>
<rect x="793.7292243985885" y="40" width="3.4591810325781633" height="50" fill="#DA3434"/>
<rect x="797.1884054311666" y="40" width="2.706746034250942" height="50" fill="#000000"/>
<rect x="799.8951514654176" y="40" width="2.691596336298045" height="50" fill="#427819"/>
<rect x="802.5867478017157" y="40" width="2.2169058004406037" height="50" fill="#000000"/>
<rect x="804.8036536021563" y="40" width="1.4493211041604857" height="50" fill="#199f4b"/>
<rect x="806.2529747063168" y="40" width="1.110977849879118" height="50" fill="#B83998"/>
<rect x="807.3639525561958" y="40" width="0.8231335887740738" height="50" fill="#000000"/>
<rect x="808.18708614497" y="40" width="0.7877842935506475" height="50" fill="#db5855"/>
<rect x="808.9748704385206" y="40" width="0.5201396297161326" height="50" fill="#0050b2"/>
<rect x="809.4950100682368" y="40" width="0.5049899317632355" height="50" fill="#701516"/>
<circle cx="16" cy="116" r="6" fill="#555555" />
<text x="27" y="120" font-size="15" font-family="sans-serif" fill="#FFF">C (28.0k lines, 17.7%)</text>
<circle cx="266" cy="116" r="6" fill="#b07219" />
<text x="277" y="120" font-size="15" font-family="sans-serif" fill="#FFF">Java (23.9k lines, 15.1%)</text>
<circle cx="516" cy="116" r="6" fill="#c22d40" />
<text x="527" y="120" font-size="15" font-family="sans-serif" fill="#FFF">Scala (20.5k lines, 13.0%)</text>
<circle cx="16" cy="136" r="6" fill="#A97BFF" />
<text x="27" y="140" font-size="15" font-family="sans-serif" fill="#FFF">Kotlin (13.3k lines, 8.4%)</text>
<circle cx="266" cy="136" r="6" fill="#00B4AB" />
<text x="277" y="140" font-size="15" font-family="sans-serif" fill="#FFF">Dart (11.6k lines, 7.3%)</text>
<circle cx="516" cy="136" r="6" fill="#5e5086" />
<text x="527" y="140" font-size="15" font-family="sans-serif" fill="#FFF">Haskell (9.2k lines, 5.8%)</text>
<circle cx="16" cy="156" r="6" fill="#000000" />
<text x="27" y="160" font-size="15" font-family="sans-serif" fill="#FFF">C Header (9.0k lines, 5.7%)</text>
<circle cx="266" cy="156" r="6" fill="#3D6117" />
<text x="277" y="160" font-size="15" font-family="sans-serif" fill="#FFF">TeX (8.3k lines, 5.2%)</text>
<circle cx="516" cy="156" r="6" fill="None" />
<text x="527" y="160" font-size="15" font-family="sans-serif" fill="#FFF">Lean (6.6k lines, 4.2%)</text>
<circle cx="16" cy="176" r="6" fill="#3572A5" />
<text x="27" y="180" font-size="15" font-family="sans-serif" fill="#FFF">Python (5.7k lines, 3.6%)</text>
<circle cx="266" cy="176" r="6" fill="#89e051" />
<text x="277" y="180" font-size="15" font-family="sans-serif" fill="#FFF">Shell (4.7k lines, 3.0%)</text>
<circle cx="516" cy="176" r="6" fill="#239dad" />
<text x="527" y="180" font-size="15" font-family="sans-serif" fill="#FFF">Typst (3.1k lines, 2.0%)</text>
<circle cx="16" cy="196" r="6" fill="#000080" />
<text x="27" y="200" font-size="15" font-family="sans-serif" fill="#FFF">Lua (2.4k lines, 1.5%)</text>
<circle cx="266" cy="196" r="6" fill="#000000" />
<text x="277" y="200" font-size="15" font-family="sans-serif" fill="#FFF">GNU Style A… (2.1k lines, 1.4%)</text>
<circle cx="516" cy="196" r="6" fill="#dea584" />
<text x="527" y="200" font-size="15" font-family="sans-serif" fill="#FFF">Rust (1.9k lines, 1.2%)</text>
<circle cx="16" cy="216" r="6" fill="#000000" />
<text x="27" y="220" font-size="15" font-family="sans-serif" fill="#FFF">Batch (1.6k lines, 1.0%)</text>
<circle cx="266" cy="216" r="6" fill="#f34b7d" />
<text x="277" y="220" font-size="15" font-family="sans-serif" fill="#FFF">C++ (1.6k lines, 1.0%)</text>
<circle cx="516" cy="216" r="6" fill="#ec915c" />
<text x="527" y="220" font-size="15" font-family="sans-serif" fill="#FFF">Zig (864 lines, 0.5%)</text>
<circle cx="16" cy="236" r="6" fill="#000000" />
<text x="27" y="240" font-size="15" font-family="sans-serif" fill="#FFF">WebGPU Shad… (760 lines, 0.5%)</text>
<circle cx="266" cy="236" r="6" fill="#DA3434" />
<text x="277" y="240" font-size="15" font-family="sans-serif" fill="#FFF">CMake (685 lines, 0.4%)</text>
<circle cx="516" cy="236" r="6" fill="#000000" />
<text x="527" y="240" font-size="15" font-family="sans-serif" fill="#FFF">Cabal (536 lines, 0.3%)</text>
<circle cx="16" cy="256" r="6" fill="#427819" />
<text x="27" y="260" font-size="15" font-family="sans-serif" fill="#FFF">Makefile (533 lines, 0.3%)</text>
<circle cx="266" cy="256" r="6" fill="#000000" />
<text x="277" y="260" font-size="15" font-family="sans-serif" fill="#FFF">Templ (439 lines, 0.3%)</text>
<circle cx="516" cy="256" r="6" fill="#199f4b" />
<text x="527" y="260" font-size="15" font-family="sans-serif" fill="#FFF">Vim Script (287 lines, 0.2%)</text>
<circle cx="16" cy="276" r="6" fill="#B83998" />
<text x="27" y="280" font-size="15" font-family="sans-serif" fill="#FFF">Erlang (220 lines, 0.1%)</text>
<circle cx="266" cy="276" r="6" fill="#000000" />
<text x="277" y="280" font-size="15" font-family="sans-serif" fill="#FFF">Bitbake (163 lines, 0.1%)</text>
<circle cx="516" cy="276" r="6" fill="#db5855" />
<text x="527" y="280" font-size="15" font-family="sans-serif" fill="#FFF">Clojure (156 lines, 0.1%)</text>
<circle cx="16" cy="296" r="6" fill="#0050b2" />
<text x="27" y="300" font-size="15" font-family="sans-serif" fill="#FFF">FreeMarker (103 lines, 0.1%)</text>
<circle cx="266" cy="296" r="6" fill="#701516" />
<text x="277" y="300" font-size="15" font-family="sans-serif" fill="#FFF">Ruby (100 lines, 0.1%)</text>
</svg>