<svg width="800" height="330" xmlns="http://www.w3.org/2000/svg">
<rect width="800" height="330" fill="#212830"/>
<rect x="10" y="40" width="140.32291176079895" height="50" fill="#555555"/>
<rect x="150.32291176079895" y="40" width="115.57197889118333" height="50" fill="#b07219"/>
<rect x="265.8948906519823" y="40" width="99.1438128705817" height="50" fill="#c22d40"/>
<rect x="365.038703522564" y="40" width="64.56303058846261" height="50" fill="#A97BFF"/>
<rect x="429.6017341110266" y="40" width="63.83364127087635" height="50" fill="#00B4AB"/>
<rect x="493.43537538190293" y="40" width="47.35717132195776" height="50" fill="None"/>
<rect x="540.7925467038607" y="40" width="44.46859640860293" height="50" fill="#5e5086"/>
<rect x="585.2611431124636" y="40" width="44.32851501648371" height="50" fill="#000000"/>
<rect x="629.5896581289473" y="40" width="39.874892825659046" height="50" fill="#3D6117"/>
<rect x="669.4645509546064" y="40" width="32.861162434034945" height="50" fill="#3572A5"/>
<rect x="702.3257133886412" y="40" width="22.915383593570752" height="50" fill="#89e051"/>
<rect x="725.241096982212" y="40" width="14.930744242775543" height="50" fill="#239dad"/>
<rect x="740.1718412249875" y="40" width="11.699211438370225" height="50" fill="#000080"/>
<rect x="751.8710526633577" y="40" width="10.346701445495052" height="50" fill="#000000"/>
<rect x="762.2177541088527" y="40" width="8.965209095629701" height="50" fill="#dea584"/>
<rect x="771.1829632044823" y="40" width="7.636851066913016" height="50" fill="#000000"/>
<rect x="778.8198142713953" y="40" width="7.5643951744375615" height="50" fill="#f34b7d"/>
<rect x="786.3842094458329" y="40" width="4.1734594065862405" height="50" fill="#ec915c"/>
<rect x="790.5576688524192" y="40" width="3.671098552089749" height="50" fill="#000000"/>
<rect x="794.228767404509" y="40" width="3.3088190897124705" height="50" fill="#DA3434"/>
<rect x="797.5375864942214" y="40" width="2.7823062710574944" height="50" fill="#427819"/>
<rect x="800.3198927652788" y="40" width="2.5890905577896124" height="50" fill="#000000"/>
<rect x="802.9089833230685" y="40" width="2.1205424531149997" height="50" fill="#000000"/>
<rect x="805.0295257761835" y="40" width="1.3863227426970497" height="50" fill="#199f4b"/>
<rect x="806.4158485188806" y="40" width="1.0626864229733484" height="50" fill="#B83998"/>
<rect x="807.4785349418539" y="40" width="0.7873540315666172" height="50" fill="#000000"/>
<rect x="808.2658889734205" y="40" width="0.7535412817447379" height="50" fill="#db5855"/>
<rect x="809.0194302551653" y="40" width="0.49753046166479487" height="50" fill="#0050b2"/>
<rect x="809.5169607168301" y="40" width="0.4830392831697038" height="50" fill="#701516"/>
<circle cx="16" cy="116" r="6" fill="#555555" />
<text x="27" y="120" font-size="15" font-family="sans-serif" fill="#FFF">C (29.1k lines, 17.5%)</text>
<circle cx="266" cy="116" r="6" fill="#b07219" />
<text x="277" y="120" font-size="15" font-family="sans-serif" fill="#FFF">Java (23.9k lines, 14.4%)</text>
<circle cx="516" cy="116" r="6" fill="#c22d40" />
<text x="527" y="120" font-size="15" font-family="sans-serif" fill="#FFF">Scala (20.5k lines, 12.4%)</text>
<circle cx="16" cy="136" r="6" fill="#A97BFF" />
<text x="27" y="140" font-size="15" font-family="sans-serif" fill="#FFF">Kotlin (13.4k lines, 8.1%)</text>
<circle cx="266" cy="136" r="6" fill="#00B4AB" />
<text x="277" y="140" font-size="15" font-family="sans-serif" fill="#FFF">Dart (13.2k lines, 8.0%)</text>
<circle cx="516" cy="136" r="6" fill="None" />
<text x="527" y="140" font-size="15" font-family="sans-serif" fill="#FFF">Lean (9.8k lines, 5.9%)</text>
<circle cx="16" cy="156" r="6" fill="#5e5086" />
<text x="27" y="160" font-size="15" font-family="sans-serif" fill="#FFF">Haskell (9.2k lines, 5.6%)</text>
<circle cx="266" cy="156" r="6" fill="#000000" />
<text x="277" y="160" font-size="15" font-family="sans-serif" fill="#FFF">C Header (9.2k lines, 5.5%)</text>
<circle cx="516" cy="156" r="6" fill="#3D6117" />
<text x="527" y="160" font-size="15" font-family="sans-serif" fill="#FFF">TeX (8.3k lines, 5.0%)</text>
<circle cx="16" cy="176" r="6" fill="#3572A5" />
<text x="27" y="180" font-size="15" font-family="sans-serif" fill="#FFF">Python (6.8k lines, 4.1%)</text>
<circle cx="266" cy="176" r="6" fill="#89e051" />
<text x="277" y="180" font-size="15" font-family="sans-serif" fill="#FFF">Shell (4.7k lines, 2.9%)</text>
<circle cx="516" cy="176" r="6" fill="#239dad" />
<text x="527" y="180" font-size="15" font-family="sans-serif" fill="#FFF">Typst (3.1k lines, 1.9%)</text>
<circle cx="16" cy="196" r="6" fill="#000080" />
<text x="27" y="200" font-size="15" font-family="sans-serif" fill="#FFF">Lua (2.4k lines, 1.5%)</text>
<circle cx="266" cy="196" r="6" fill="#000000" />
<text x="277" y="200" font-size="15" font-family="sans-serif" fill="#FFF">GNU Style A… (2.1k lines, 1.3%)</text>
<circle cx="516" cy="196" r="6" fill="#dea584" />
<text x="527" y="200" font-size="15" font-family="sans-serif" fill="#FFF">Rust (1.9k lines, 1.1%)</text>
<circle cx="16" cy="216" r="6" fill="#000000" />
<text x="27" y="220" font-size="15" font-family="sans-serif" fill="#FFF">Batch (1.6k lines, 1.0%)</text>
<circle cx="266" cy="216" r="6" fill="#f34b7d" />
<text x="277" y="220" font-size="15" font-family="sans-serif" fill="#FFF">C++ (1.6k lines, 0.9%)</text>
<circle cx="516" cy="216" r="6" fill="#ec915c" />
<text x="527" y="220" font-size="15" font-family="sans-serif" fill="#FFF">Zig (864 lines, 0.5%)</text>
<circle cx="16" cy="236" r="6" fill="#000000" />
<text x="27" y="240" font-size="15" font-family="sans-serif" fill="#FFF">WebGPU Shad… (760 lines, 0.5%)</text>
<circle cx="266" cy="236" r="6" fill="#DA3434" />
<text x="277" y="240" font-size="15" font-family="sans-serif" fill="#FFF">CMake (685 lines, 0.4%)</text>
<circle cx="516" cy="236" r="6" fill="#427819" />
<text x="527" y="240" font-size="15" font-family="sans-serif" fill="#FFF">Makefile (576 lines, 0.3%)</text>
<circle cx="16" cy="256" r="6" fill="#000000" />
<text x="27" y="260" font-size="15" font-family="sans-serif" fill="#FFF">Cabal (536 lines, 0.3%)</text>
<circle cx="266" cy="256" r="6" fill="#000000" />
<text x="277" y="260" font-size="15" font-family="sans-serif" fill="#FFF">Templ (439 lines, 0.3%)</text>
<circle cx="516" cy="256" r="6" fill="#199f4b" />
<text x="527" y="260" font-size="15" font-family="sans-serif" fill="#FFF">Vim Script (287 lines, 0.2%)</text>
<circle cx="16" cy="276" r="6" fill="#B83998" />
<text x="27" y="280" font-size="15" font-family="sans-serif" fill="#FFF">Erlang (220 lines, 0.1%)</text>
<circle cx="266" cy="276" r="6" fill="#000000" />
<text x="277" y="280" font-size="15" font-family="sans-serif" fill="#FFF">Bitbake (163 lines, 0.1%)</text>
<circle cx="516" cy="276" r="6" fill="#db5855" />
<text x="527" y="280" font-size="15" font-family="sans-serif" fill="#FFF">Clojure (156 lines, 0.1%)</text>
<circle cx="16" cy="296" r="6" fill="#0050b2" />
<text x="27" y="300" font-size="15" font-family="sans-serif" fill="#FFF">FreeMarker (103 lines, 0.1%)</text>
<circle cx="266" cy="296" r="6" fill="#701516" />
<text x="277" y="300" font-size="15" font-family="sans-serif" fill="#FFF">Ruby (100 lines, 0.1%)</text>
</svg>