<svg width="800" height="350" xmlns="http://www.w3.org/2000/svg">
<rect x="10" y="40" width="131.0105206890687" height="50" fill="#555555"/>
<rect x="141.0105206890687" y="40" width="116.26697767087009" height="50" fill="#b07219"/>
<rect x="257.2774983599388" y="40" width="99.74001992370678" height="50" fill="#c22d40"/>
<rect x="357.0175182836456" y="40" width="89.29222246519426" height="50" fill="#A97BFF"/>
<rect x="446.30974074883983" y="40" width="62.181402920523844" height="50" fill="#00B4AB"/>
<rect x="508.4911436693637" y="40" width="44.736010885147124" height="50" fill="#5e5086"/>
<rect x="553.2271545545108" y="40" width="42.96717447821756" height="50" fill="#000000"/>
<rect x="596.1943290327283" y="40" width="40.114682800009724" height="50" fill="#3D6117"/>
<rect x="636.3090118327381" y="40" width="33.01503996889958" height="50" fill="#3572A5"/>
<rect x="669.3240518016377" y="40" width="24.477002696989576" height="50" fill="#89e051"/>
<rect x="693.8010544986272" y="40" width="24.316641154603104" height="50" fill="None"/>
<rect x="718.1176956532303" y="40" width="12.547075831571785" height="50" fill="#239dad"/>
<rect x="730.664771484802" y="40" width="11.759846441674563" height="50" fill="#000080"/>
<rect x="742.4246179264766" y="40" width="10.408921933085502" height="50" fill="#000000"/>
<rect x="752.833539859562" y="40" width="9.019121899069416" height="50" fill="#dea584"/>
<rect x="761.8526617586315" y="40" width="8.027796000680322" height="50" fill="#000000"/>
<rect x="769.8804577593118" y="40" width="7.60988410233982" height="50" fill="#f34b7d"/>
<rect x="777.4903418616516" y="40" width="7.60988410233982" height="50" fill="#e38c00"/>
<rect x="785.1002259639914" y="40" width="4.198556746118522" height="50" fill="#ec915c"/>
<rect x="789.2987827101099" y="40" width="3.6931749155672184" height="50" fill="#000000"/>
<rect x="792.9919576256771" y="40" width="3.3287168646888743" height="50" fill="#DA3434"/>
<rect x="796.320674490366" y="40" width="2.6046602036105644" height="50" fill="#000000"/>
<rect x="798.9253346939765" y="40" width="2.4151420171538254" height="50" fill="#427819"/>
<rect x="801.3404767111303" y="40" width="2.1332944578079065" height="50" fill="#000000"/>
<rect x="803.4737711689382" y="40" width="1.5258643730106665" height="50" fill="#384d54"/>
<rect x="804.9996355419489" y="40" width="1.3946594746944627" height="50" fill="#199f4b"/>
<rect x="806.3942950166434" y="40" width="1.0690769492431422" height="50" fill="#B83998"/>
<rect x="807.4633719658865" y="40" width="0.7920888305756009" height="50" fill="#000000"/>
<rect x="808.2554607964621" y="40" width="0.7580727458269553" height="50" fill="#db5855"/>
<rect x="809.0135335422891" y="40" width="0.5005223898729256" height="50" fill="#0050b2"/>
<rect x="809.514055932162" y="40" width="0.48594406783779187" height="50" fill="#701516"/>
<circle cx="16" cy="116" r="6" fill="#555555" />
<text x="27" y="120" font-size="15" font-family="sans-serif" fill="#FFF">C (27.0k lines, 16.4%)</text>
<circle cx="266" cy="116" r="6" fill="#b07219" />
<text x="277" y="120" font-size="15" font-family="sans-serif" fill="#FFF">Java (23.9k lines, 14.5%)</text>
<circle cx="516" cy="116" r="6" fill="#c22d40" />
<text x="527" y="120" font-size="15" font-family="sans-serif" fill="#FFF">Scala (20.5k lines, 12.5%)</text>
<circle cx="16" cy="136" r="6" fill="#A97BFF" />
<text x="27" y="140" font-size="15" font-family="sans-serif" fill="#FFF">Kotlin (18.4k lines, 11.2%)</text>
<circle cx="266" cy="136" r="6" fill="#00B4AB" />
<text x="277" y="140" font-size="15" font-family="sans-serif" fill="#FFF">Dart (12.8k lines, 7.8%)</text>
<circle cx="516" cy="136" r="6" fill="#5e5086" />
<text x="527" y="140" font-size="15" font-family="sans-serif" fill="#FFF">Haskell (9.2k lines, 5.6%)</text>
<circle cx="16" cy="156" r="6" fill="#000000" />
<text x="27" y="160" font-size="15" font-family="sans-serif" fill="#FFF">C Header (8.8k lines, 5.4%)</text>
<circle cx="266" cy="156" r="6" fill="#3D6117" />
<text x="277" y="160" font-size="15" font-family="sans-serif" fill="#FFF">TeX (8.3k lines, 5.0%)</text>
<circle cx="516" cy="156" r="6" fill="#3572A5" />
<text x="527" y="160" font-size="15" font-family="sans-serif" fill="#FFF">Python (6.8k lines, 4.1%)</text>
<circle cx="16" cy="176" r="6" fill="#89e051" />
<text x="27" y="180" font-size="15" font-family="sans-serif" fill="#FFF">Shell (5.0k lines, 3.1%)</text>
<circle cx="266" cy="176" r="6" fill="None" />
<text x="277" y="180" font-size="15" font-family="sans-serif" fill="#FFF">Lean (5.0k lines, 3.0%)</text>
<circle cx="516" cy="176" r="6" fill="#239dad" />
<text x="527" y="180" font-size="15" font-family="sans-serif" fill="#FFF">Typst (2.6k lines, 1.6%)</text>
<circle cx="16" cy="196" r="6" fill="#000080" />
<text x="27" y="200" font-size="15" font-family="sans-serif" fill="#FFF">Lua (2.4k lines, 1.5%)</text>
<circle cx="266" cy="196" r="6" fill="#000000" />
<text x="277" y="200" font-size="15" font-family="sans-serif" fill="#FFF">GNU Style A… (2.1k lines, 1.3%)</text>
<circle cx="516" cy="196" r="6" fill="#dea584" />
<text x="527" y="200" font-size="15" font-family="sans-serif" fill="#FFF">Rust (1.9k lines, 1.1%)</text>
<circle cx="16" cy="216" r="6" fill="#000000" />
<text x="27" y="220" font-size="15" font-family="sans-serif" fill="#FFF">Batch (1.7k lines, 1.0%)</text>
<circle cx="266" cy="216" r="6" fill="#f34b7d" />
<text x="277" y="220" font-size="15" font-family="sans-serif" fill="#FFF">C++ (1.6k lines, 1.0%)</text>
<circle cx="516" cy="216" r="6" fill="#e38c00" />
<text x="527" y="220" font-size="15" font-family="sans-serif" fill="#FFF">SQL (1.6k lines, 1.0%)</text>
<circle cx="16" cy="236" r="6" fill="#ec915c" />
<text x="27" y="240" font-size="15" font-family="sans-serif" fill="#FFF">Zig (864 lines, 0.5%)</text>
<circle cx="266" cy="236" r="6" fill="#000000" />
<text x="277" y="240" font-size="15" font-family="sans-serif" fill="#FFF">WebGPU Shad… (760 lines, 0.5%)</text>
<circle cx="516" cy="236" r="6" fill="#DA3434" />
<text x="527" y="240" font-size="15" font-family="sans-serif" fill="#FFF">CMake (685 lines, 0.4%)</text>
<circle cx="16" cy="256" r="6" fill="#000000" />
<text x="27" y="260" font-size="15" font-family="sans-serif" fill="#FFF">Cabal (536 lines, 0.3%)</text>
<circle cx="266" cy="256" r="6" fill="#427819" />
<text x="277" y="260" font-size="15" font-family="sans-serif" fill="#FFF">Makefile (497 lines, 0.3%)</text>
<circle cx="516" cy="256" r="6" fill="#000000" />
<text x="527" y="260" font-size="15" font-family="sans-serif" fill="#FFF">Templ (439 lines, 0.3%)</text>
<circle cx="16" cy="276" r="6" fill="#384d54" />
<text x="27" y="280" font-size="15" font-family="sans-serif" fill="#FFF">Dockerfile (314 lines, 0.2%)</text>
<circle cx="266" cy="276" r="6" fill="#199f4b" />
<text x="277" y="280" font-size="15" font-family="sans-serif" fill="#FFF">Vim Script (287 lines, 0.2%)</text>
<circle cx="516" cy="276" r="6" fill="#B83998" />
<text x="527" y="280" font-size="15" font-family="sans-serif" fill="#FFF">Erlang (220 lines, 0.1%)</text>
<circle cx="16" cy="296" r="6" fill="#000000" />
<text x="27" y="300" font-size="15" font-family="sans-serif" fill="#FFF">Bitbake (163 lines, 0.1%)</text>
<circle cx="266" cy="296" r="6" fill="#db5855" />
<text x="277" y="300" font-size="15" font-family="sans-serif" fill="#FFF">Clojure (156 lines, 0.1%)</text>
<circle cx="516" cy="296" r="6" fill="#0050b2" />
<text x="527" y="300" font-size="15" font-family="sans-serif" fill="#FFF">FreeMarker (103 lines, 0.1%)</text>
<circle cx="16" cy="316" r="6" fill="#701516" />
<text x="27" y="320" font-size="15" font-family="sans-serif" fill="#FFF">Ruby (100 lines, 0.1%)</text>
</svg>