<svg width="800" height="330" xmlns="http://www.w3.org/2000/svg">
<rect width="800" height="330" fill="#212830"/>
<rect x="10" y="40" width="118.55373502826012" height="50" fill="#555555"/>
<rect x="128.55373502826012" y="40" width="97.63920912485463" height="50" fill="#b07219"/>
<rect x="226.19294415311475" y="40" width="87.37986900365239" height="50" fill="#c22d40"/>
<rect x="313.57281315676715" y="40" width="76.45534493664428" height="50" fill="#00B4AB"/>
<rect x="390.02815809341143" y="40" width="56.826297210716405" height="50" fill="#A97BFF"/>
<rect x="446.85445530412784" y="40" width="47.01993511395867" height="50" fill="#dea584"/>
<rect x="493.8743904180865" y="40" width="46.99953069844314" height="50" fill="None"/>
<rect x="540.8739211165296" y="40" width="42.14736068885307" height="50" fill="#3572A5"/>
<rect x="583.0212818053826" y="40" width="37.6543083923361" height="50" fill="#5e5086"/>
<rect x="620.6755901977187" y="40" width="37.450264237180924" height="50" fill="#000000"/>
<rect x="658.1258544348997" y="40" width="33.68769001611949" height="50" fill="#3D6117"/>
<rect x="691.8135444510192" y="40" width="19.94327572486686" height="50" fill="#89e051"/>
<rect x="711.7568201758861" y="40" width="17.278459058540268" height="50" fill="#239dad"/>
<rect x="729.0352792344264" y="40" width="16.645922177559225" height="50" fill="#ec915c"/>
<rect x="745.6812014119856" y="40" width="13.879083433655042" height="50" fill="#000000"/>
<rect x="759.5602848456407" y="40" width="9.90022240812912" height="50" fill="#000080"/>
<rect x="769.4605072537698" y="40" width="8.741251606847722" height="50" fill="#000000"/>
<rect x="778.2017588606176" y="40" width="7.863861739680466" height="50" fill="#f34b7d"/>
<rect x="786.0656206002981" y="40" width="6.451876186006651" height="50" fill="#000000"/>
<rect x="792.5174967863047" y="40" width="3.57893448142178" height="50" fill="#000000"/>
<rect x="796.0964312677265" y="40" width="2.930074068028321" height="50" fill="#427819"/>
<rect x="799.0265053357549" y="40" width="2.7954049256259053" height="50" fill="#DA3434"/>
<rect x="801.8219102613808" y="40" width="2.187353343263482" height="50" fill="#000000"/>
<rect x="804.0092636046443" y="40" width="1.7915076822624414" height="50" fill="#000000"/>
<rect x="805.8007712869068" y="40" width="1.1712134505907077" height="50" fill="#199f4b"/>
<rect x="806.9719847374975" y="40" width="0.8977942826827726" height="50" fill="#B83998"/>
<rect x="807.8697790201802" y="40" width="0.6651839458058724" height="50" fill="#000000"/>
<rect x="808.5349629659861" y="40" width="0.6366177640841477" height="50" fill="#db5855"/>
<rect x="809.1715807300702" y="40" width="0.42033095961966166" height="50" fill="#0050b2"/>
<rect x="809.5919116896898" y="40" width="0.40808831031035114" height="50" fill="#701516"/>
<circle cx="16" cy="116" r="6" fill="#555555" />
<text x="27" y="120" font-size="15" font-family="sans-serif" fill="#FFF">C (29.1k lines, 14.8%)</text>
<circle cx="266" cy="116" r="6" fill="#b07219" />
<text x="277" y="120" font-size="15" font-family="sans-serif" fill="#FFF">Java (23.9k lines, 12.2%)</text>
<circle cx="516" cy="116" r="6" fill="#c22d40" />
<text x="527" y="120" font-size="15" font-family="sans-serif" fill="#FFF">Scala (21.4k lines, 10.9%)</text>
<circle cx="16" cy="136" r="6" fill="#00B4AB" />
<text x="27" y="140" font-size="15" font-family="sans-serif" fill="#FFF">Dart (18.7k lines, 9.6%)</text>
<circle cx="266" cy="136" r="6" fill="#A97BFF" />
<text x="277" y="140" font-size="15" font-family="sans-serif" fill="#FFF">Kotlin (13.9k lines, 7.1%)</text>
<circle cx="516" cy="136" r="6" fill="#dea584" />
<text x="527" y="140" font-size="15" font-family="sans-serif" fill="#FFF">Rust (11.5k lines, 5.9%)</text>
<circle cx="16" cy="156" r="6" fill="None" />
<text x="27" y="160" font-size="15" font-family="sans-serif" fill="#FFF">Lean (11.5k lines, 5.9%)</text>
<circle cx="266" cy="156" r="6" fill="#3572A5" />
<text x="277" y="160" font-size="15" font-family="sans-serif" fill="#FFF">Python (10.3k lines, 5.3%)</text>
<circle cx="516" cy="156" r="6" fill="#5e5086" />
<text x="527" y="160" font-size="15" font-family="sans-serif" fill="#FFF">Haskell (9.2k lines, 4.7%)</text>
<circle cx="16" cy="176" r="6" fill="#000000" />
<text x="27" y="180" font-size="15" font-family="sans-serif" fill="#FFF">C Header (9.2k lines, 4.7%)</text>
<circle cx="266" cy="176" r="6" fill="#3D6117" />
<text x="277" y="180" font-size="15" font-family="sans-serif" fill="#FFF">TeX (8.3k lines, 4.2%)</text>
<circle cx="516" cy="176" r="6" fill="#89e051" />
<text x="527" y="180" font-size="15" font-family="sans-serif" fill="#FFF">Shell (4.9k lines, 2.5%)</text>
<circle cx="16" cy="196" r="6" fill="#239dad" />
<text x="27" y="200" font-size="15" font-family="sans-serif" fill="#FFF">Typst (4.2k lines, 2.2%)</text>
<circle cx="266" cy="196" r="6" fill="#ec915c" />
<text x="277" y="200" font-size="15" font-family="sans-serif" fill="#FFF">Zig (4.1k lines, 2.1%)</text>
<circle cx="516" cy="196" r="6" fill="#000000" />
<text x="527" y="200" font-size="15" font-family="sans-serif" fill="#FFF">Jupyter Not… (3.4k lines, 1.7%)</text>
<circle cx="16" cy="216" r="6" fill="#000080" />
<text x="27" y="220" font-size="15" font-family="sans-serif" fill="#FFF">Lua (2.4k lines, 1.2%)</text>
<circle cx="266" cy="216" r="6" fill="#000000" />
<text x="277" y="220" font-size="15" font-family="sans-serif" fill="#FFF">GNU Style A… (2.1k lines, 1.1%)</text>
<circle cx="516" cy="216" r="6" fill="#f34b7d" />
<text x="527" y="220" font-size="15" font-family="sans-serif" fill="#FFF">C++ (1.9k lines, 1.0%)</text>
<circle cx="16" cy="236" r="6" fill="#000000" />
<text x="27" y="240" font-size="15" font-family="sans-serif" fill="#FFF">Batch (1.6k lines, 0.8%)</text>
<circle cx="266" cy="236" r="6" fill="#000000" />
<text x="277" y="240" font-size="15" font-family="sans-serif" fill="#FFF">WebGPU Shad… (877 lines, 0.4%)</text>
<circle cx="516" cy="236" r="6" fill="#427819" />
<text x="527" y="240" font-size="15" font-family="sans-serif" fill="#FFF">Makefile (718 lines, 0.4%)</text>
<circle cx="16" cy="256" r="6" fill="#DA3434" />
<text x="27" y="260" font-size="15" font-family="sans-serif" fill="#FFF">CMake (685 lines, 0.3%)</text>
<circle cx="266" cy="256" r="6" fill="#000000" />
<text x="277" y="260" font-size="15" font-family="sans-serif" fill="#FFF">Cabal (536 lines, 0.3%)</text>
<circle cx="516" cy="256" r="6" fill="#000000" />
<text x="527" y="260" font-size="15" font-family="sans-serif" fill="#FFF">Templ (439 lines, 0.2%)</text>
<circle cx="16" cy="276" r="6" fill="#199f4b" />
<text x="27" y="280" font-size="15" font-family="sans-serif" fill="#FFF">Vim Script (287 lines, 0.1%)</text>
<circle cx="266" cy="276" r="6" fill="#B83998" />
<text x="277" y="280" font-size="15" font-family="sans-serif" fill="#FFF">Erlang (220 lines, 0.1%)</text>
<circle cx="516" cy="276" r="6" fill="#000000" />
<text x="527" y="280" font-size="15" font-family="sans-serif" fill="#FFF">Bitbake (163 lines, 0.1%)</text>
<circle cx="16" cy="296" r="6" fill="#db5855" />
<text x="27" y="300" font-size="15" font-family="sans-serif" fill="#FFF">Clojure (156 lines, 0.1%)</text>
<circle cx="266" cy="296" r="6" fill="#0050b2" />
<text x="277" y="300" font-size="15" font-family="sans-serif" fill="#FFF">FreeMarker (103 lines, 0.1%)</text>
<circle cx="516" cy="296" r="6" fill="#701516" />
<text x="527" y="300" font-size="15" font-family="sans-serif" fill="#FFF">Ruby (100 lines, 0.1%)</text>
</svg>