<svg width="800" height="350" xmlns="http://www.w3.org/2000/svg">
<rect x="10" y="40" width="131.47211216092657" height="50" fill="#555555"/>
<rect x="141.47211216092657" y="40" width="116.67662298079853" height="50" fill="#b07219"/>
<rect x="258.14873514172507" y="40" width="100.09143553794576" height="50" fill="#c22d40"/>
<rect x="358.2401706796708" y="40" width="89.60682718683329" height="50" fill="#A97BFF"/>
<rect x="447.8469978665041" y="40" width="62.40048765620238" height="50" fill="#00B4AB"/>
<rect x="510.2474855227065" y="40" width="44.89362999085645" height="50" fill="#5e5086"/>
<rect x="555.1411155135629" y="40" width="43.118561414202986" height="50" fill="#888888"/>
<rect x="598.2596769277659" y="40" width="40.256019506248094" height="50" fill="#3D6117"/>
<rect x="638.515696434014" y="40" width="31.717159402621157" height="50" fill="#3572A5"/>
<rect x="670.2328558366352" y="40" width="24.56324291374581" height="50" fill="#89e051"/>
<rect x="694.796098750381" y="40" width="23.773239865894542" height="50" fill="None"/>
<rect x="718.5693386162756" y="40" width="12.459615970740629" height="50" fill="#239dad"/>
<rect x="731.0289545870162" y="40" width="11.747637915269733" height="50" fill="#000080"/>
<rect x="742.7765925022859" y="40" width="10.445595854922281" height="50" fill="#888888"/>
<rect x="753.2221883572082" y="40" width="9.050899116123134" height="50" fill="#dea584"/>
<rect x="762.2730874733313" y="40" width="8.056080463273393" height="50" fill="#888888"/>
<rect x="770.3291679366047" y="40" width="7.636696129228894" height="50" fill="#f34b7d"/>
<rect x="777.9658640658336" y="40" width="7.636696129228894" height="50" fill="#e38c00"/>
<rect x="785.6025601950624" y="40" width="4.21334958854008" height="50" fill="#ec915c"/>
<rect x="789.8159097836025" y="40" width="3.7061871380676625" height="50" fill="#888888"/>
<rect x="793.5220969216701" y="40" width="3.340444986284669" height="50" fill="#DA3434"/>
<rect x="796.8625419079548" y="40" width="2.613837244742457" height="50" fill="#888888"/>
<rect x="799.4763791526973" y="40" width="2.4236513258153005" height="50" fill="#427819"/>
<rect x="801.9000304785126" y="40" width="2.1408107284364526" height="50" fill="#888888"/>
<rect x="804.040841206949" y="40" width="1.5312404754647972" height="50" fill="#384d54"/>
<rect x="805.5720816824138" y="40" width="1.0728436452301129" height="50" fill="#B83998"/>
<rect x="806.6449253276439" y="40" width="0.8095092959463578" height="50" fill="#199f4b"/>
<rect x="807.4544346235903" y="40" width="0.7948796098750379" height="50" fill="#888888"/>
<rect x="808.2493142334653" y="40" width="0.7607436757086254" height="50" fill="#db5855"/>
<rect x="809.010057909174" y="40" width="0.5022858884486437" height="50" fill="#0050b2"/>
<rect x="809.5123437976226" y="40" width="0.48765620237732393" height="50" fill="#701516"/>
<circle cx="16" cy="116" r="6" fill="#555555" />
<text x="27" y="120" font-size="15" font-family="sans-serif" fill="#FFF">C (27.0k lines, 16.4%)</text>
<circle cx="266" cy="116" r="6" fill="#b07219" />
<text x="277" y="120" font-size="15" font-family="sans-serif" fill="#FFF">Java (23.9k lines, 14.6%)</text>
<circle cx="516" cy="116" r="6" fill="#c22d40" />
<text x="527" y="120" font-size="15" font-family="sans-serif" fill="#FFF">Scala (20.5k lines, 12.5%)</text>
<circle cx="16" cy="136" r="6" fill="#A97BFF" />
<text x="27" y="140" font-size="15" font-family="sans-serif" fill="#FFF">Kotlin (18.4k lines, 11.2%)</text>
<circle cx="266" cy="136" r="6" fill="#00B4AB" />
<text x="277" y="140" font-size="15" font-family="sans-serif" fill="#FFF">Dart (12.8k lines, 7.8%)</text>
<circle cx="516" cy="136" r="6" fill="#5e5086" />
<text x="527" y="140" font-size="15" font-family="sans-serif" fill="#FFF">Haskell (9.2k lines, 5.6%)</text>
<circle cx="16" cy="156" r="6" fill="#888888" />
<text x="27" y="160" font-size="15" font-family="sans-serif" fill="#FFF">C Header (8.8k lines, 5.4%)</text>
<circle cx="266" cy="156" r="6" fill="#3D6117" />
<text x="277" y="160" font-size="15" font-family="sans-serif" fill="#FFF">TeX (8.3k lines, 5.0%)</text>
<circle cx="516" cy="156" r="6" fill="#3572A5" />
<text x="527" y="160" font-size="15" font-family="sans-serif" fill="#FFF">Python (6.5k lines, 4.0%)</text>
<circle cx="16" cy="176" r="6" fill="#89e051" />
<text x="27" y="180" font-size="15" font-family="sans-serif" fill="#FFF">Shell (5.0k lines, 3.1%)</text>
<circle cx="266" cy="176" r="6" fill="None" />
<text x="277" y="180" font-size="15" font-family="sans-serif" fill="#FFF">Lean (4.9k lines, 3.0%)</text>
<circle cx="516" cy="176" r="6" fill="#239dad" />
<text x="527" y="180" font-size="15" font-family="sans-serif" fill="#FFF">Typst (2.6k lines, 1.6%)</text>
<circle cx="16" cy="196" r="6" fill="#000080" />
<text x="27" y="200" font-size="15" font-family="sans-serif" fill="#FFF">Lua (2.4k lines, 1.5%)</text>
<circle cx="266" cy="196" r="6" fill="#888888" />
<text x="277" y="200" font-size="15" font-family="sans-serif" fill="#FFF">GNU Style A… (2.1k lines, 1.3%)</text>
<circle cx="516" cy="196" r="6" fill="#dea584" />
<text x="527" y="200" font-size="15" font-family="sans-serif" fill="#FFF">Rust (1.9k lines, 1.1%)</text>
<circle cx="16" cy="216" r="6" fill="#888888" />
<text x="27" y="220" font-size="15" font-family="sans-serif" fill="#FFF">Batch (1.7k lines, 1.0%)</text>
<circle cx="266" cy="216" r="6" fill="#f34b7d" />
<text x="277" y="220" font-size="15" font-family="sans-serif" fill="#FFF">C++ (1.6k lines, 1.0%)</text>
<circle cx="516" cy="216" r="6" fill="#e38c00" />
<text x="527" y="220" font-size="15" font-family="sans-serif" fill="#FFF">SQL (1.6k lines, 1.0%)</text>
<circle cx="16" cy="236" r="6" fill="#ec915c" />
<text x="27" y="240" font-size="15" font-family="sans-serif" fill="#FFF">Zig (864 lines, 0.5%)</text>
<circle cx="266" cy="236" r="6" fill="#888888" />
<text x="277" y="240" font-size="15" font-family="sans-serif" fill="#FFF">WebGPU Shad… (760 lines, 0.5%)</text>
<circle cx="516" cy="236" r="6" fill="#DA3434" />
<text x="527" y="240" font-size="15" font-family="sans-serif" fill="#FFF">CMake (685 lines, 0.4%)</text>
<circle cx="16" cy="256" r="6" fill="#888888" />
<text x="27" y="260" font-size="15" font-family="sans-serif" fill="#FFF">Cabal (536 lines, 0.3%)</text>
<circle cx="266" cy="256" r="6" fill="#427819" />
<text x="277" y="260" font-size="15" font-family="sans-serif" fill="#FFF">Makefile (497 lines, 0.3%)</text>
<circle cx="516" cy="256" r="6" fill="#888888" />
<text x="527" y="260" font-size="15" font-family="sans-serif" fill="#FFF">Templ (439 lines, 0.3%)</text>
<circle cx="16" cy="276" r="6" fill="#384d54" />
<text x="27" y="280" font-size="15" font-family="sans-serif" fill="#FFF">Dockerfile (314 lines, 0.2%)</text>
<circle cx="266" cy="276" r="6" fill="#B83998" />
<text x="277" y="280" font-size="15" font-family="sans-serif" fill="#FFF">Erlang (220 lines, 0.1%)</text>
<circle cx="516" cy="276" r="6" fill="#199f4b" />
<text x="527" y="280" font-size="15" font-family="sans-serif" fill="#FFF">Vim Script (166 lines, 0.1%)</text>
<circle cx="16" cy="296" r="6" fill="#888888" />
<text x="27" y="300" font-size="15" font-family="sans-serif" fill="#FFF">Bitbake (163 lines, 0.1%)</text>
<circle cx="266" cy="296" r="6" fill="#db5855" />
<text x="277" y="300" font-size="15" font-family="sans-serif" fill="#FFF">Clojure (156 lines, 0.1%)</text>
<circle cx="516" cy="296" r="6" fill="#0050b2" />
<text x="527" y="300" font-size="15" font-family="sans-serif" fill="#FFF">FreeMarker (103 lines, 0.1%)</text>
<circle cx="16" cy="316" r="6" fill="#701516" />
<text x="27" y="320" font-size="15" font-family="sans-serif" fill="#FFF">Ruby (100 lines, 0.1%)</text>
</svg>