<svg width="800" height="330" xmlns="http://www.w3.org/2000/svg">
<rect width="800" height="330" fill="#212830"/>
<rect x="10" y="40" width="118.42868280652048" height="50" fill="#555555"/>
<rect x="128.4286828065205" y="40" width="97.53621785235651" height="50" fill="#b07219"/>
<rect x="225.964900658877" y="40" width="87.28769943386516" height="50" fill="#c22d40"/>
<rect x="313.25260009274217" y="40" width="76.3746987153682" height="50" fill="#00B4AB"/>
<rect x="389.62729880811037" y="40" width="56.76635599741138" height="50" fill="#A97BFF"/>
<rect x="446.39365480552175" y="40" width="47.81418955071009" height="50" fill="#dea584"/>
<rect x="494.2078443562318" y="40" width="46.94995490285004" height="50" fill="None"/>
<rect x="541.1577992590819" y="40" width="42.102903033484" height="50" fill="#3572A5"/>
<rect x="583.260702292566" y="40" width="37.61459007455043" height="50" fill="#5e5086"/>
<rect x="620.8752923671163" y="40" width="37.41076114816834" height="50" fill="#000000"/>
<rect x="658.2860535152847" y="40" width="33.65215574568265" height="50" fill="#3D6117"/>
<rect x="691.9382092609674" y="40" width="19.922239264585233" height="50" fill="#89e051"/>
<rect x="711.8604485255526" y="40" width="17.26023348603517" height="50" fill="#239dad"/>
<rect x="729.1206820115877" y="40" width="16.628363814250697" height="50" fill="#ec915c"/>
<rect x="745.7490458258385" y="40" width="13.864443572509593" height="50" fill="#000000"/>
<rect x="759.6134893983481" y="40" width="9.889779508058886" height="50" fill="#000080"/>
<rect x="769.5032689064069" y="40" width="8.73203120620863" height="50" fill="#000000"/>
<rect x="778.2353001126155" y="40" width="7.855566822765652" height="50" fill="#f34b7d"/>
<rect x="786.0908669353812" y="40" width="6.445070652201607" height="50" fill="#000000"/>
<rect x="792.5359375875828" y="40" width="3.5751593687418155" height="50" fill="#000000"/>
<rect x="796.1110969563246" y="40" width="2.926983382846777" height="50" fill="#427819"/>
<rect x="799.0380803391713" y="40" width="2.7924562914345987" height="50" fill="#DA3434"/>
<rect x="801.8305366306059" y="40" width="2.185046090815978" height="50" fill="#000000"/>
<rect x="804.0155827214219" y="40" width="1.7896179736347284" height="50" fill="#000000"/>
<rect x="805.8052006950566" y="40" width="1.1699780374331825" height="50" fill="#199f4b"/>
<rect x="806.9751787324898" y="40" width="0.8968472760811851" height="50" fill="#B83998"/>
<rect x="807.872026008571" y="40" width="0.6644823000056053" height="50" fill="#000000"/>
<rect x="808.5365083085766" y="40" width="0.635946250312113" height="50" fill="#db5855"/>
<rect x="809.1724545588887" y="40" width="0.41988758834710027" height="50" fill="#0050b2"/>
<rect x="809.5923421472359" y="40" width="0.40765785276417504" height="50" fill="#701516"/>
<circle cx="16" cy="116" r="6" fill="#555555" />
<text x="27" y="120" font-size="15" font-family="sans-serif" fill="#FFF">C (29.1k lines, 14.8%)</text>
<circle cx="266" cy="116" r="6" fill="#b07219" />
<text x="277" y="120" font-size="15" font-family="sans-serif" fill="#FFF">Java (23.9k lines, 12.2%)</text>
<circle cx="516" cy="116" r="6" fill="#c22d40" />
<text x="527" y="120" font-size="15" font-family="sans-serif" fill="#FFF">Scala (21.4k lines, 10.9%)</text>
<circle cx="16" cy="136" r="6" fill="#00B4AB" />
<text x="27" y="140" font-size="15" font-family="sans-serif" fill="#FFF">Dart (18.7k lines, 9.5%)</text>
<circle cx="266" cy="136" r="6" fill="#A97BFF" />
<text x="277" y="140" font-size="15" font-family="sans-serif" fill="#FFF">Kotlin (13.9k lines, 7.1%)</text>
<circle cx="516" cy="136" r="6" fill="#dea584" />
<text x="527" y="140" font-size="15" font-family="sans-serif" fill="#FFF">Rust (11.7k lines, 6.0%)</text>
<circle cx="16" cy="156" r="6" fill="None" />
<text x="27" y="160" font-size="15" font-family="sans-serif" fill="#FFF">Lean (11.5k lines, 5.9%)</text>
<circle cx="266" cy="156" r="6" fill="#3572A5" />
<text x="277" y="160" font-size="15" font-family="sans-serif" fill="#FFF">Python (10.3k lines, 5.3%)</text>
<circle cx="516" cy="156" r="6" fill="#5e5086" />
<text x="527" y="160" font-size="15" font-family="sans-serif" fill="#FFF">Haskell (9.2k lines, 4.7%)</text>
<circle cx="16" cy="176" r="6" fill="#000000" />
<text x="27" y="180" font-size="15" font-family="sans-serif" fill="#FFF">C Header (9.2k lines, 4.7%)</text>
<circle cx="266" cy="176" r="6" fill="#3D6117" />
<text x="277" y="180" font-size="15" font-family="sans-serif" fill="#FFF">TeX (8.3k lines, 4.2%)</text>
<circle cx="516" cy="176" r="6" fill="#89e051" />
<text x="527" y="180" font-size="15" font-family="sans-serif" fill="#FFF">Shell (4.9k lines, 2.5%)</text>
<circle cx="16" cy="196" r="6" fill="#239dad" />
<text x="27" y="200" font-size="15" font-family="sans-serif" fill="#FFF">Typst (4.2k lines, 2.2%)</text>
<circle cx="266" cy="196" r="6" fill="#ec915c" />
<text x="277" y="200" font-size="15" font-family="sans-serif" fill="#FFF">Zig (4.1k lines, 2.1%)</text>
<circle cx="516" cy="196" r="6" fill="#000000" />
<text x="527" y="200" font-size="15" font-family="sans-serif" fill="#FFF">Jupyter Not… (3.4k lines, 1.7%)</text>
<circle cx="16" cy="216" r="6" fill="#000080" />
<text x="27" y="220" font-size="15" font-family="sans-serif" fill="#FFF">Lua (2.4k lines, 1.2%)</text>
<circle cx="266" cy="216" r="6" fill="#000000" />
<text x="277" y="220" font-size="15" font-family="sans-serif" fill="#FFF">GNU Style A… (2.1k lines, 1.1%)</text>
<circle cx="516" cy="216" r="6" fill="#f34b7d" />
<text x="527" y="220" font-size="15" font-family="sans-serif" fill="#FFF">C++ (1.9k lines, 1.0%)</text>
<circle cx="16" cy="236" r="6" fill="#000000" />
<text x="27" y="240" font-size="15" font-family="sans-serif" fill="#FFF">Batch (1.6k lines, 0.8%)</text>
<circle cx="266" cy="236" r="6" fill="#000000" />
<text x="277" y="240" font-size="15" font-family="sans-serif" fill="#FFF">WebGPU Shad… (877 lines, 0.4%)</text>
<circle cx="516" cy="236" r="6" fill="#427819" />
<text x="527" y="240" font-size="15" font-family="sans-serif" fill="#FFF">Makefile (718 lines, 0.4%)</text>
<circle cx="16" cy="256" r="6" fill="#DA3434" />
<text x="27" y="260" font-size="15" font-family="sans-serif" fill="#FFF">CMake (685 lines, 0.3%)</text>
<circle cx="266" cy="256" r="6" fill="#000000" />
<text x="277" y="260" font-size="15" font-family="sans-serif" fill="#FFF">Cabal (536 lines, 0.3%)</text>
<circle cx="516" cy="256" r="6" fill="#000000" />
<text x="527" y="260" font-size="15" font-family="sans-serif" fill="#FFF">Templ (439 lines, 0.2%)</text>
<circle cx="16" cy="276" r="6" fill="#199f4b" />
<text x="27" y="280" font-size="15" font-family="sans-serif" fill="#FFF">Vim Script (287 lines, 0.1%)</text>
<circle cx="266" cy="276" r="6" fill="#B83998" />
<text x="277" y="280" font-size="15" font-family="sans-serif" fill="#FFF">Erlang (220 lines, 0.1%)</text>
<circle cx="516" cy="276" r="6" fill="#000000" />
<text x="527" y="280" font-size="15" font-family="sans-serif" fill="#FFF">Bitbake (163 lines, 0.1%)</text>
<circle cx="16" cy="296" r="6" fill="#db5855" />
<text x="27" y="300" font-size="15" font-family="sans-serif" fill="#FFF">Clojure (156 lines, 0.1%)</text>
<circle cx="266" cy="296" r="6" fill="#0050b2" />
<text x="277" y="300" font-size="15" font-family="sans-serif" fill="#FFF">FreeMarker (103 lines, 0.1%)</text>
<circle cx="516" cy="296" r="6" fill="#701516" />
<text x="527" y="300" font-size="15" font-family="sans-serif" fill="#FFF">Ruby (100 lines, 0.1%)</text>
</svg>