<svg width="800" height="350" xmlns="http://www.w3.org/2000/svg">
<rect x="10" y="40" width="131.153123460769" height="50" fill="#555555"/>
<rect x="141.153123460769" y="40" width="116.39353234133378" height="50" fill="#b07219"/>
<rect x="257.5466558021028" y="40" width="99.84858527567818" height="50" fill="#c22d40"/>
<rect x="357.39524107778095" y="40" width="89.38941556348779" height="50" fill="#A97BFF"/>
<rect x="446.7846566412687" y="40" width="62.249086342878336" height="50" fill="#00B4AB"/>
<rect x="509.03374298414707" y="40" width="44.78470528856971" height="50" fill="#5e5086"/>
<rect x="553.8184482727168" y="40" width="43.01394353264538" height="50" fill="#000000"/>
<rect x="596.8323918053621" y="40" width="40.158346964712464" height="50" fill="#3D6117"/>
<rect x="636.9907387700746" y="40" width="33.05097629052168" height="50" fill="#3572A5"/>
<rect x="670.0417150605963" y="40" width="24.503645507117707" height="50" fill="#89e051"/>
<rect x="694.5453605677139" y="40" width="23.861501134090204" height="50" fill="None"/>
<rect x="718.4068617018041" y="40" width="12.813699079957921" height="50" fill="#239dad"/>
<rect x="731.2205607817621" y="40" width="11.719134807751947" height="50" fill="#000080"/>
<rect x="742.939695589514" y="40" width="10.42025187140086" height="50" fill="#000000"/>
<rect x="753.3599474609149" y="40" width="9.028939063174601" height="50" fill="#dea584"/>
<rect x="762.3888865240895" y="40" width="8.036534123041186" height="50" fill="#000000"/>
<rect x="770.4254206471306" y="40" width="7.61816733455357" height="50" fill="#f34b7d"/>
<rect x="778.0435879816843" y="40" width="7.61816733455357" height="50" fill="#e38c00"/>
<rect x="785.6617553162379" y="40" width="4.2031268052709345" height="50" fill="#ec915c"/>
<rect x="789.8648821215088" y="40" width="3.697194875006841" height="50" fill="#000000"/>
<rect x="793.5620769965157" y="40" width="3.33234011760485" height="50" fill="#DA3434"/>
<rect x="796.8944171141205" y="40" width="2.607495332899562" height="50" fill="#000000"/>
<rect x="799.5019124470201" y="40" width="2.4177708590505262" height="50" fill="#427819"/>
<rect x="801.9196833060706" y="40" width="2.13561651332632" height="50" fill="#000000"/>
<rect x="804.055299819397" y="40" width="1.5275252509896686" height="50" fill="#384d54"/>
<rect x="805.5828250703867" y="40" width="1.0702406217125064" height="50" fill="#B83998"/>
<rect x="806.6530656920992" y="40" width="0.8075451963830731" height="50" fill="#199f4b"/>
<rect x="807.4606108884823" y="40" width="0.7929510060869935" height="50" fill="#000000"/>
<rect x="808.2535618945693" y="40" width="0.7588978953961409" height="50" fill="#db5855"/>
<rect x="809.0124597899654" y="40" width="0.5010672001654009" height="50" fill="#0050b2"/>
<rect x="809.5135269901308" y="40" width="0.4864730098693212" height="50" fill="#701516"/>
<circle cx="16" cy="116" r="6" fill="#555555" />
<text x="27" y="120" font-size="15" font-family="sans-serif" fill="#FFF">C (27.0k lines, 16.4%)</text>
<circle cx="266" cy="116" r="6" fill="#b07219" />
<text x="277" y="120" font-size="15" font-family="sans-serif" fill="#FFF">Java (23.9k lines, 14.5%)</text>
<circle cx="516" cy="116" r="6" fill="#c22d40" />
<text x="527" y="120" font-size="15" font-family="sans-serif" fill="#FFF">Scala (20.5k lines, 12.5%)</text>
<circle cx="16" cy="136" r="6" fill="#A97BFF" />
<text x="27" y="140" font-size="15" font-family="sans-serif" fill="#FFF">Kotlin (18.4k lines, 11.2%)</text>
<circle cx="266" cy="136" r="6" fill="#00B4AB" />
<text x="277" y="140" font-size="15" font-family="sans-serif" fill="#FFF">Dart (12.8k lines, 7.8%)</text>
<circle cx="516" cy="136" r="6" fill="#5e5086" />
<text x="527" y="140" font-size="15" font-family="sans-serif" fill="#FFF">Haskell (9.2k lines, 5.6%)</text>
<circle cx="16" cy="156" r="6" fill="#000000" />
<text x="27" y="160" font-size="15" font-family="sans-serif" fill="#FFF">C Header (8.8k lines, 5.4%)</text>
<circle cx="266" cy="156" r="6" fill="#3D6117" />
<text x="277" y="160" font-size="15" font-family="sans-serif" fill="#FFF">TeX (8.3k lines, 5.0%)</text>
<circle cx="516" cy="156" r="6" fill="#3572A5" />
<text x="527" y="160" font-size="15" font-family="sans-serif" fill="#FFF">Python (6.8k lines, 4.1%)</text>
<circle cx="16" cy="176" r="6" fill="#89e051" />
<text x="27" y="180" font-size="15" font-family="sans-serif" fill="#FFF">Shell (5.0k lines, 3.1%)</text>
<circle cx="266" cy="176" r="6" fill="None" />
<text x="277" y="180" font-size="15" font-family="sans-serif" fill="#FFF">Lean (4.9k lines, 3.0%)</text>
<circle cx="516" cy="176" r="6" fill="#239dad" />
<text x="527" y="180" font-size="15" font-family="sans-serif" fill="#FFF">Typst (2.6k lines, 1.6%)</text>
<circle cx="16" cy="196" r="6" fill="#000080" />
<text x="27" y="200" font-size="15" font-family="sans-serif" fill="#FFF">Lua (2.4k lines, 1.5%)</text>
<circle cx="266" cy="196" r="6" fill="#000000" />
<text x="277" y="200" font-size="15" font-family="sans-serif" fill="#FFF">GNU Style A… (2.1k lines, 1.3%)</text>
<circle cx="516" cy="196" r="6" fill="#dea584" />
<text x="527" y="200" font-size="15" font-family="sans-serif" fill="#FFF">Rust (1.9k lines, 1.1%)</text>
<circle cx="16" cy="216" r="6" fill="#000000" />
<text x="27" y="220" font-size="15" font-family="sans-serif" fill="#FFF">Batch (1.7k lines, 1.0%)</text>
<circle cx="266" cy="216" r="6" fill="#f34b7d" />
<text x="277" y="220" font-size="15" font-family="sans-serif" fill="#FFF">C++ (1.6k lines, 1.0%)</text>
<circle cx="516" cy="216" r="6" fill="#e38c00" />
<text x="527" y="220" font-size="15" font-family="sans-serif" fill="#FFF">SQL (1.6k lines, 1.0%)</text>
<circle cx="16" cy="236" r="6" fill="#ec915c" />
<text x="27" y="240" font-size="15" font-family="sans-serif" fill="#FFF">Zig (864 lines, 0.5%)</text>
<circle cx="266" cy="236" r="6" fill="#000000" />
<text x="277" y="240" font-size="15" font-family="sans-serif" fill="#FFF">WebGPU Shad… (760 lines, 0.5%)</text>
<circle cx="516" cy="236" r="6" fill="#DA3434" />
<text x="527" y="240" font-size="15" font-family="sans-serif" fill="#FFF">CMake (685 lines, 0.4%)</text>
<circle cx="16" cy="256" r="6" fill="#000000" />
<text x="27" y="260" font-size="15" font-family="sans-serif" fill="#FFF">Cabal (536 lines, 0.3%)</text>
<circle cx="266" cy="256" r="6" fill="#427819" />
<text x="277" y="260" font-size="15" font-family="sans-serif" fill="#FFF">Makefile (497 lines, 0.3%)</text>
<circle cx="516" cy="256" r="6" fill="#000000" />
<text x="527" y="260" font-size="15" font-family="sans-serif" fill="#FFF">Templ (439 lines, 0.3%)</text>
<circle cx="16" cy="276" r="6" fill="#384d54" />
<text x="27" y="280" font-size="15" font-family="sans-serif" fill="#FFF">Dockerfile (314 lines, 0.2%)</text>
<circle cx="266" cy="276" r="6" fill="#B83998" />
<text x="277" y="280" font-size="15" font-family="sans-serif" fill="#FFF">Erlang (220 lines, 0.1%)</text>
<circle cx="516" cy="276" r="6" fill="#199f4b" />
<text x="527" y="280" font-size="15" font-family="sans-serif" fill="#FFF">Vim Script (166 lines, 0.1%)</text>
<circle cx="16" cy="296" r="6" fill="#000000" />
<text x="27" y="300" font-size="15" font-family="sans-serif" fill="#FFF">Bitbake (163 lines, 0.1%)</text>
<circle cx="266" cy="296" r="6" fill="#db5855" />
<text x="277" y="300" font-size="15" font-family="sans-serif" fill="#FFF">Clojure (156 lines, 0.1%)</text>
<circle cx="516" cy="296" r="6" fill="#0050b2" />
<text x="527" y="300" font-size="15" font-family="sans-serif" fill="#FFF">FreeMarker (103 lines, 0.1%)</text>
<circle cx="16" cy="316" r="6" fill="#701516" />
<text x="27" y="320" font-size="15" font-family="sans-serif" fill="#FFF">Ruby (100 lines, 0.1%)</text>
</svg>