<svg width="800" height="330" xmlns="http://www.w3.org/2000/svg">
<rect width="800" height="330" fill="#212830"/>
<rect x="10" y="40" width="123.41055962956867" height="50" fill="#555555"/>
<rect x="133.41055962956867" y="40" width="101.63922239155485" height="50" fill="#b07219"/>
<rect x="235.04978202112352" y="40" width="87.19155059711875" height="50" fill="#c22d40"/>
<rect x="322.24133261824227" y="40" width="79.58751281057343" height="50" fill="#00B4AB"/>
<rect x="401.8288454288157" y="40" width="59.15431630035949" height="50" fill="#A97BFF"/>
<rect x="460.9831617291752" y="40" width="48.9249738478449" height="50" fill="None"/>
<rect x="509.9081355770201" y="40" width="43.874023608625706" height="50" fill="#3572A5"/>
<rect x="553.7821591856458" y="40" width="39.19690316002995" height="50" fill="#5e5086"/>
<rect x="592.9790623456757" y="40" width="38.98449986990298" height="50" fill="#000000"/>
<rect x="631.9635622155787" y="40" width="35.06778319996177" height="50" fill="#3D6117"/>
<rect x="667.0313454155405" y="40" width="21.155367696645623" height="50" fill="#dea584"/>
<rect x="688.1867131121861" y="40" width="20.22079322008698" height="50" fill="#89e051"/>
<rect x="708.4075063322731" y="40" width="17.986310607951317" height="50" fill="#239dad"/>
<rect x="726.3938169402244" y="40" width="17.32786040855773" height="50" fill="#ec915c"/>
<rect x="743.7216773487821" y="40" width="14.447671794436097" height="50" fill="#000000"/>
<rect x="758.1693491432183" y="40" width="10.3058076369603" height="50" fill="#000080"/>
<rect x="768.4751567801785" y="40" width="9.09935694903914" height="50" fill="#000000"/>
<rect x="777.5745137292176" y="40" width="8.186022801493195" height="50" fill="#f34b7d"/>
<rect x="785.7605365307109" y="40" width="6.716192033814604" height="50" fill="#000000"/>
<rect x="792.4767285645255" y="40" width="3.228530009929854" height="50" fill="#000000"/>
<rect x="795.7052585744553" y="40" width="2.909925074739408" height="50" fill="#DA3434"/>
<rect x="798.6151836491947" y="40" width="2.871692482516554" height="50" fill="#427819"/>
<rect x="801.4868761317113" y="40" width="2.2769632701610547" height="50" fill="#000000"/>
<rect x="803.7638394018724" y="40" width="1.8649008873147446" height="50" fill="#000000"/>
<rect x="805.6287402891871" y="40" width="1.2191948853287737" height="50" fill="#199f4b"/>
<rect x="806.8479351745159" y="40" width="0.9345744765586419" height="50" fill="#B83998"/>
<rect x="807.7825096510745" y="40" width="0.692434725813903" height="50" fill="#000000"/>
<rect x="808.4749443768884" y="40" width="0.662698265196128" height="50" fill="#db5855"/>
<rect x="809.1376426420845" y="40" width="0.43755077766154604" height="50" fill="#0050b2"/>
<rect x="809.575193419746" y="40" width="0.42480658025392815" height="50" fill="#701516"/>
<circle cx="16" cy="116" r="6" fill="#555555" />
<text x="27" y="120" font-size="15" font-family="sans-serif" fill="#FFF">C (29.1k lines, 15.4%)</text>
<circle cx="266" cy="116" r="6" fill="#b07219" />
<text x="277" y="120" font-size="15" font-family="sans-serif" fill="#FFF">Java (23.9k lines, 12.7%)</text>
<circle cx="516" cy="116" r="6" fill="#c22d40" />
<text x="527" y="120" font-size="15" font-family="sans-serif" fill="#FFF">Scala (20.5k lines, 10.9%)</text>
<circle cx="16" cy="136" r="6" fill="#00B4AB" />
<text x="27" y="140" font-size="15" font-family="sans-serif" fill="#FFF">Dart (18.7k lines, 9.9%)</text>
<circle cx="266" cy="136" r="6" fill="#A97BFF" />
<text x="277" y="140" font-size="15" font-family="sans-serif" fill="#FFF">Kotlin (13.9k lines, 7.4%)</text>
<circle cx="516" cy="136" r="6" fill="None" />
<text x="527" y="140" font-size="15" font-family="sans-serif" fill="#FFF">Lean (11.5k lines, 6.1%)</text>
<circle cx="16" cy="156" r="6" fill="#3572A5" />
<text x="27" y="160" font-size="15" font-family="sans-serif" fill="#FFF">Python (10.3k lines, 5.5%)</text>
<circle cx="266" cy="156" r="6" fill="#5e5086" />
<text x="277" y="160" font-size="15" font-family="sans-serif" fill="#FFF">Haskell (9.2k lines, 4.9%)</text>
<circle cx="516" cy="156" r="6" fill="#000000" />
<text x="527" y="160" font-size="15" font-family="sans-serif" fill="#FFF">C Header (9.2k lines, 4.9%)</text>
<circle cx="16" cy="176" r="6" fill="#3D6117" />
<text x="27" y="180" font-size="15" font-family="sans-serif" fill="#FFF">TeX (8.3k lines, 4.4%)</text>
<circle cx="266" cy="176" r="6" fill="#dea584" />
<text x="277" y="180" font-size="15" font-family="sans-serif" fill="#FFF">Rust (5.0k lines, 2.6%)</text>
<circle cx="516" cy="176" r="6" fill="#89e051" />
<text x="527" y="180" font-size="15" font-family="sans-serif" fill="#FFF">Shell (4.8k lines, 2.5%)</text>
<circle cx="16" cy="196" r="6" fill="#239dad" />
<text x="27" y="200" font-size="15" font-family="sans-serif" fill="#FFF">Typst (4.2k lines, 2.2%)</text>
<circle cx="266" cy="196" r="6" fill="#ec915c" />
<text x="277" y="200" font-size="15" font-family="sans-serif" fill="#FFF">Zig (4.1k lines, 2.2%)</text>
<circle cx="516" cy="196" r="6" fill="#000000" />
<text x="527" y="200" font-size="15" font-family="sans-serif" fill="#FFF">Jupyter Not… (3.4k lines, 1.8%)</text>
<circle cx="16" cy="216" r="6" fill="#000080" />
<text x="27" y="220" font-size="15" font-family="sans-serif" fill="#FFF">Lua (2.4k lines, 1.3%)</text>
<circle cx="266" cy="216" r="6" fill="#000000" />
<text x="277" y="220" font-size="15" font-family="sans-serif" fill="#FFF">GNU Style A… (2.1k lines, 1.1%)</text>
<circle cx="516" cy="216" r="6" fill="#f34b7d" />
<text x="527" y="220" font-size="15" font-family="sans-serif" fill="#FFF">C++ (1.9k lines, 1.0%)</text>
<circle cx="16" cy="236" r="6" fill="#000000" />
<text x="27" y="240" font-size="15" font-family="sans-serif" fill="#FFF">Batch (1.6k lines, 0.8%)</text>
<circle cx="266" cy="236" r="6" fill="#000000" />
<text x="277" y="240" font-size="15" font-family="sans-serif" fill="#FFF">WebGPU Shad… (760 lines, 0.4%)</text>
<circle cx="516" cy="236" r="6" fill="#DA3434" />
<text x="527" y="240" font-size="15" font-family="sans-serif" fill="#FFF">CMake (685 lines, 0.4%)</text>
<circle cx="16" cy="256" r="6" fill="#427819" />
<text x="27" y="260" font-size="15" font-family="sans-serif" fill="#FFF">Makefile (676 lines, 0.4%)</text>
<circle cx="266" cy="256" r="6" fill="#000000" />
<text x="277" y="260" font-size="15" font-family="sans-serif" fill="#FFF">Cabal (536 lines, 0.3%)</text>
<circle cx="516" cy="256" r="6" fill="#000000" />
<text x="527" y="260" font-size="15" font-family="sans-serif" fill="#FFF">Templ (439 lines, 0.2%)</text>
<circle cx="16" cy="276" r="6" fill="#199f4b" />
<text x="27" y="280" font-size="15" font-family="sans-serif" fill="#FFF">Vim Script (287 lines, 0.2%)</text>
<circle cx="266" cy="276" r="6" fill="#B83998" />
<text x="277" y="280" font-size="15" font-family="sans-serif" fill="#FFF">Erlang (220 lines, 0.1%)</text>
<circle cx="516" cy="276" r="6" fill="#000000" />
<text x="527" y="280" font-size="15" font-family="sans-serif" fill="#FFF">Bitbake (163 lines, 0.1%)</text>
<circle cx="16" cy="296" r="6" fill="#db5855" />
<text x="27" y="300" font-size="15" font-family="sans-serif" fill="#FFF">Clojure (156 lines, 0.1%)</text>
<circle cx="266" cy="296" r="6" fill="#0050b2" />
<text x="277" y="300" font-size="15" font-family="sans-serif" fill="#FFF">FreeMarker (103 lines, 0.1%)</text>
<circle cx="516" cy="296" r="6" fill="#701516" />
<text x="527" y="300" font-size="15" font-family="sans-serif" fill="#FFF">Ruby (100 lines, 0.1%)</text>
</svg>