<svg width="800" height="350" xmlns="http://www.w3.org/2000/svg">
<rect x="10" y="40" width="130.93973299659416" height="50" fill="#555555"/>
<rect x="140.93973299659416" y="40" width="116.20415621945519" height="50" fill="#b07219"/>
<rect x="257.14388921604933" y="40" width="99.68612832919493" height="50" fill="#c22d40"/>
<rect x="356.83001754524423" y="40" width="89.24397603161786" height="50" fill="#A97BFF"/>
<rect x="446.0739935768621" y="40" width="62.14780502316094" height="50" fill="#00B4AB"/>
<rect x="508.221798600023" y="40" width="44.71183909371831" height="50" fill="#5e5086"/>
<rect x="552.9336376937413" y="40" width="42.94395842566341" height="50" fill="#000000"/>
<rect x="595.8775961194046" y="40" width="40.09300800767377" height="50" fill="#3D6117"/>
<rect x="635.9706041270784" y="40" width="32.9972012603435" height="50" fill="#3572A5"/>
<rect x="668.967805387422" y="40" width="24.463777266463083" height="50" fill="#89e051"/>
<rect x="693.4315826538851" y="40" width="24.30350237073283" height="50" fill="None"/>
<rect x="717.735085024618" y="40" width="12.972552924106196" height="50" fill="#239dad"/>
<rect x="730.7076379487241" y="40" width="11.753492353551849" height="50" fill="#000080"/>
<rect x="742.4611303022759" y="40" width="10.403297777400025" height="50" fill="#000000"/>
<rect x="752.8644280796759" y="40" width="9.01424868107117" height="50" fill="#dea584"/>
<rect x="761.8786767607471" y="40" width="8.023458416556881" height="50" fill="#000000"/>
<rect x="769.902135177304" y="40" width="7.605772324653802" height="50" fill="#f34b7d"/>
<rect x="777.5079075019578" y="40" width="7.605772324653802" height="50" fill="#e38c00"/>
<rect x="785.1136798266116" y="40" width="4.196288179119338" height="50" fill="#ec915c"/>
<rect x="789.309968005731" y="40" width="3.6911794168179366" height="50" fill="#000000"/>
<rect x="793.0011474225489" y="40" width="3.3269182901582712" height="50" fill="#DA3434"/>
<rect x="796.3280657127071" y="40" width="2.6032528518610705" height="50" fill="#000000"/>
<rect x="798.9313185645682" y="40" width="2.4138370659980453" height="50" fill="#427819"/>
<rect x="801.3451556305662" y="40" width="2.1321417947145713" height="50" fill="#000000"/>
<rect x="803.4772974252808" y="40" width="1.525039916948463" height="50" fill="#384d54"/>
<rect x="805.0023373422292" y="40" width="1.393905911350984" height="50" fill="#199f4b"/>
<rect x="806.3962432535802" y="40" width="1.06849930486835" height="50" fill="#B83998"/>
<rect x="807.4647425584486" y="40" width="0.7916608486070047" height="50" fill="#000000"/>
<rect x="808.2564034070556" y="40" width="0.7576631434521027" height="50" fill="#db5855"/>
<rect x="809.0140665505077" y="40" width="0.5002519472792729" height="50" fill="#0050b2"/>
<rect x="809.5143184977869" y="40" width="0.4856815022128863" height="50" fill="#701516"/>
<circle cx="16" cy="116" r="6" fill="#555555" />
<text x="27" y="120" font-size="15" font-family="sans-serif" fill="#FFF">C (27.0k lines, 16.4%)</text>
<circle cx="266" cy="116" r="6" fill="#b07219" />
<text x="277" y="120" font-size="15" font-family="sans-serif" fill="#FFF">Java (23.9k lines, 14.5%)</text>
<circle cx="516" cy="116" r="6" fill="#c22d40" />
<text x="527" y="120" font-size="15" font-family="sans-serif" fill="#FFF">Scala (20.5k lines, 12.5%)</text>
<circle cx="16" cy="136" r="6" fill="#A97BFF" />
<text x="27" y="140" font-size="15" font-family="sans-serif" fill="#FFF">Kotlin (18.4k lines, 11.2%)</text>
<circle cx="266" cy="136" r="6" fill="#00B4AB" />
<text x="277" y="140" font-size="15" font-family="sans-serif" fill="#FFF">Dart (12.8k lines, 7.8%)</text>
<circle cx="516" cy="136" r="6" fill="#5e5086" />
<text x="527" y="140" font-size="15" font-family="sans-serif" fill="#FFF">Haskell (9.2k lines, 5.6%)</text>
<circle cx="16" cy="156" r="6" fill="#000000" />
<text x="27" y="160" font-size="15" font-family="sans-serif" fill="#FFF">C Header (8.8k lines, 5.4%)</text>
<circle cx="266" cy="156" r="6" fill="#3D6117" />
<text x="277" y="160" font-size="15" font-family="sans-serif" fill="#FFF">TeX (8.3k lines, 5.0%)</text>
<circle cx="516" cy="156" r="6" fill="#3572A5" />
<text x="527" y="160" font-size="15" font-family="sans-serif" fill="#FFF">Python (6.8k lines, 4.1%)</text>
<circle cx="16" cy="176" r="6" fill="#89e051" />
<text x="27" y="180" font-size="15" font-family="sans-serif" fill="#FFF">Shell (5.0k lines, 3.1%)</text>
<circle cx="266" cy="176" r="6" fill="None" />
<text x="277" y="180" font-size="15" font-family="sans-serif" fill="#FFF">Lean (5.0k lines, 3.0%)</text>
<circle cx="516" cy="176" r="6" fill="#239dad" />
<text x="527" y="180" font-size="15" font-family="sans-serif" fill="#FFF">Typst (2.7k lines, 1.6%)</text>
<circle cx="16" cy="196" r="6" fill="#000080" />
<text x="27" y="200" font-size="15" font-family="sans-serif" fill="#FFF">Lua (2.4k lines, 1.5%)</text>
<circle cx="266" cy="196" r="6" fill="#000000" />
<text x="277" y="200" font-size="15" font-family="sans-serif" fill="#FFF">GNU Style A… (2.1k lines, 1.3%)</text>
<circle cx="516" cy="196" r="6" fill="#dea584" />
<text x="527" y="200" font-size="15" font-family="sans-serif" fill="#FFF">Rust (1.9k lines, 1.1%)</text>
<circle cx="16" cy="216" r="6" fill="#000000" />
<text x="27" y="220" font-size="15" font-family="sans-serif" fill="#FFF">Batch (1.7k lines, 1.0%)</text>
<circle cx="266" cy="216" r="6" fill="#f34b7d" />
<text x="277" y="220" font-size="15" font-family="sans-serif" fill="#FFF">C++ (1.6k lines, 1.0%)</text>
<circle cx="516" cy="216" r="6" fill="#e38c00" />
<text x="527" y="220" font-size="15" font-family="sans-serif" fill="#FFF">SQL (1.6k lines, 1.0%)</text>
<circle cx="16" cy="236" r="6" fill="#ec915c" />
<text x="27" y="240" font-size="15" font-family="sans-serif" fill="#FFF">Zig (864 lines, 0.5%)</text>
<circle cx="266" cy="236" r="6" fill="#000000" />
<text x="277" y="240" font-size="15" font-family="sans-serif" fill="#FFF">WebGPU Shad… (760 lines, 0.5%)</text>
<circle cx="516" cy="236" r="6" fill="#DA3434" />
<text x="527" y="240" font-size="15" font-family="sans-serif" fill="#FFF">CMake (685 lines, 0.4%)</text>
<circle cx="16" cy="256" r="6" fill="#000000" />
<text x="27" y="260" font-size="15" font-family="sans-serif" fill="#FFF">Cabal (536 lines, 0.3%)</text>
<circle cx="266" cy="256" r="6" fill="#427819" />
<text x="277" y="260" font-size="15" font-family="sans-serif" fill="#FFF">Makefile (497 lines, 0.3%)</text>
<circle cx="516" cy="256" r="6" fill="#000000" />
<text x="527" y="260" font-size="15" font-family="sans-serif" fill="#FFF">Templ (439 lines, 0.3%)</text>
<circle cx="16" cy="276" r="6" fill="#384d54" />
<text x="27" y="280" font-size="15" font-family="sans-serif" fill="#FFF">Dockerfile (314 lines, 0.2%)</text>
<circle cx="266" cy="276" r="6" fill="#199f4b" />
<text x="277" y="280" font-size="15" font-family="sans-serif" fill="#FFF">Vim Script (287 lines, 0.2%)</text>
<circle cx="516" cy="276" r="6" fill="#B83998" />
<text x="527" y="280" font-size="15" font-family="sans-serif" fill="#FFF">Erlang (220 lines, 0.1%)</text>
<circle cx="16" cy="296" r="6" fill="#000000" />
<text x="27" y="300" font-size="15" font-family="sans-serif" fill="#FFF">Bitbake (163 lines, 0.1%)</text>
<circle cx="266" cy="296" r="6" fill="#db5855" />
<text x="277" y="300" font-size="15" font-family="sans-serif" fill="#FFF">Clojure (156 lines, 0.1%)</text>
<circle cx="516" cy="296" r="6" fill="#0050b2" />
<text x="527" y="300" font-size="15" font-family="sans-serif" fill="#FFF">FreeMarker (103 lines, 0.1%)</text>
<circle cx="16" cy="316" r="6" fill="#701516" />
<text x="27" y="320" font-size="15" font-family="sans-serif" fill="#FFF">Ruby (100 lines, 0.1%)</text>
</svg>