<svg width="800" height="350" xmlns="http://www.w3.org/2000/svg">
<rect width="800" height="350" fill="#212830"/>
<rect x="10" y="40" width="320.02019691996975" height="50" fill="#3572A5"/>
<rect x="330.02019691996975" y="40" width="97.64402928553395" height="50" fill="#dea584"/>
<rect x="427.6642262055037" y="40" width="59.20727089118909" height="50" fill="#555555"/>
<rect x="486.8714970966928" y="40" width="48.323150719515276" height="50" fill="#b07219"/>
<rect x="535.1946478162081" y="40" width="43.24564503913153" height="50" fill="#c22d40"/>
<rect x="578.4402928553396" y="40" width="37.83892956324161" height="50" fill="#00B4AB"/>
<rect x="616.2792224185812" y="40" width="35.895985862156024" height="50" fill="#A97BFF"/>
<rect x="652.1752082807373" y="40" width="28.633173441050243" height="50" fill="#3D6117"/>
<rect x="680.8083817217874" y="40" width="23.26079272910881" height="50" fill="None"/>
<rect x="704.0691744508963" y="40" width="18.635698056046454" height="50" fill="#5e5086"/>
<rect x="722.7048725069427" y="40" width="18.53471345619793" height="50" fill="#000000"/>
<rect x="741.2395859631406" y="40" width="11.092148447361778" height="50" fill="#ec915c"/>
<rect x="752.3317344105023" y="40" width="11.005301691492047" height="50" fill="#89e051"/>
<rect x="763.3370361019944" y="40" width="9.541024993688463" height="50" fill="#239dad"/>
<rect x="772.8780610956828" y="40" width="6.868972481696542" height="50" fill="#000000"/>
<rect x="779.7470335773794" y="40" width="6.265084574602373" height="50" fill="#000080"/>
<rect x="786.0121181519818" y="40" width="4.32618025751073" height="50" fill="#000000"/>
<rect x="790.3382984094925" y="40" width="3.8919464781620805" height="50" fill="#f34b7d"/>
<rect x="794.2302448876545" y="40" width="3.32239333501641" height="50" fill="#000000"/>
<rect x="797.5526382226709" y="40" width="2.189346124715981" height="50" fill="#000000"/>
<rect x="799.7419843473868" y="40" width="1.8803332491794997" height="50" fill="#41b883"/>
<rect x="801.6223175965663" y="40" width="1.801565261297652" height="50" fill="#427819"/>
<rect x="803.423882857864" y="40" width="1.3834890179247665" height="50" fill="#DA3434"/>
<rect x="804.8073718757887" y="40" width="1.0825549103761676" height="50" fill="#000000"/>
<rect x="805.8899267861649" y="40" width="0.9431961625852057" height="50" fill="#384d54"/>
<rect x="806.8331229487501" y="40" width="0.8866447866700328" height="50" fill="#000000"/>
<rect x="807.7197677354201" y="40" width="0.5796516031305226" height="50" fill="#199f4b"/>
<rect x="808.2994193385506" y="40" width="0.4443322393335016" height="50" fill="#B83998"/>
<rect x="808.743751577884" y="40" width="0.32920979550618523" height="50" fill="#000000"/>
<rect x="809.0729613733902" y="40" width="0.3150719515273921" height="50" fill="#db5855"/>
<rect x="809.3880333249176" y="40" width="0.20802827568795762" height="50" fill="#0050b2"/>
<rect x="809.5960616006056" y="40" width="0.2019691996970462" height="50" fill="#000000"/>
<rect x="809.7980308003026" y="40" width="0.2019691996970462" height="50" fill="#701516"/>
<circle cx="16" cy="116" r="6" fill="#3572A5" />
<text x="27" y="120" font-size="15" font-family="sans-serif" fill="#FFF">Python (158.4k lines, 40.0%)</text>
<circle cx="266" cy="116" r="6" fill="#dea584" />
<text x="277" y="120" font-size="15" font-family="sans-serif" fill="#FFF">Rust (48.3k lines, 12.2%)</text>
<circle cx="516" cy="116" r="6" fill="#555555" />
<text x="527" y="120" font-size="15" font-family="sans-serif" fill="#FFF">C (29.3k lines, 7.4%)</text>
<circle cx="16" cy="136" r="6" fill="#b07219" />
<text x="27" y="140" font-size="15" font-family="sans-serif" fill="#FFF">Java (23.9k lines, 6.0%)</text>
<circle cx="266" cy="136" r="6" fill="#c22d40" />
<text x="277" y="140" font-size="15" font-family="sans-serif" fill="#FFF">Scala (21.4k lines, 5.4%)</text>
<circle cx="516" cy="136" r="6" fill="#00B4AB" />
<text x="527" y="140" font-size="15" font-family="sans-serif" fill="#FFF">Dart (18.7k lines, 4.7%)</text>
<circle cx="16" cy="156" r="6" fill="#A97BFF" />
<text x="27" y="160" font-size="15" font-family="sans-serif" fill="#FFF">Kotlin (17.8k lines, 4.5%)</text>
<circle cx="266" cy="156" r="6" fill="#3D6117" />
<text x="277" y="160" font-size="15" font-family="sans-serif" fill="#FFF">TeX (14.2k lines, 3.6%)</text>
<circle cx="516" cy="156" r="6" fill="None" />
<text x="527" y="160" font-size="15" font-family="sans-serif" fill="#FFF">Lean (11.5k lines, 2.9%)</text>
<circle cx="16" cy="176" r="6" fill="#5e5086" />
<text x="27" y="180" font-size="15" font-family="sans-serif" fill="#FFF">Haskell (9.2k lines, 2.3%)</text>
<circle cx="266" cy="176" r="6" fill="#000000" />
<text x="277" y="180" font-size="15" font-family="sans-serif" fill="#FFF">C Header (9.2k lines, 2.3%)</text>
<circle cx="516" cy="176" r="6" fill="#ec915c" />
<text x="527" y="180" font-size="15" font-family="sans-serif" fill="#FFF">Zig (5.5k lines, 1.4%)</text>
<circle cx="16" cy="196" r="6" fill="#89e051" />
<text x="27" y="200" font-size="15" font-family="sans-serif" fill="#FFF">Shell (5.4k lines, 1.4%)</text>
<circle cx="266" cy="196" r="6" fill="#239dad" />
<text x="277" y="200" font-size="15" font-family="sans-serif" fill="#FFF">Typst (4.7k lines, 1.2%)</text>
<circle cx="516" cy="196" r="6" fill="#000000" />
<text x="527" y="200" font-size="15" font-family="sans-serif" fill="#FFF">Jupyter Not… (3.4k lines, 0.9%)</text>
<circle cx="16" cy="216" r="6" fill="#000080" />
<text x="27" y="220" font-size="15" font-family="sans-serif" fill="#FFF">Lua (3.1k lines, 0.8%)</text>
<circle cx="266" cy="216" r="6" fill="#000000" />
<text x="277" y="220" font-size="15" font-family="sans-serif" fill="#FFF">GNU Style A… (2.1k lines, 0.5%)</text>
<circle cx="516" cy="216" r="6" fill="#f34b7d" />
<text x="527" y="220" font-size="15" font-family="sans-serif" fill="#FFF">C++ (1.9k lines, 0.5%)</text>
<circle cx="16" cy="236" r="6" fill="#000000" />
<text x="27" y="240" font-size="15" font-family="sans-serif" fill="#FFF">Batch (1.6k lines, 0.4%)</text>
<circle cx="266" cy="236" r="6" fill="#000000" />
<text x="277" y="240" font-size="15" font-family="sans-serif" fill="#FFF">WebGPU Shad… (1.1k lines, 0.3%)</text>
<circle cx="516" cy="236" r="6" fill="#41b883" />
<text x="527" y="240" font-size="15" font-family="sans-serif" fill="#FFF">Vue (931 lines, 0.2%)</text>
<circle cx="16" cy="256" r="6" fill="#427819" />
<text x="27" y="260" font-size="15" font-family="sans-serif" fill="#FFF">Makefile (892 lines, 0.2%)</text>
<circle cx="266" cy="256" r="6" fill="#DA3434" />
<text x="277" y="260" font-size="15" font-family="sans-serif" fill="#FFF">CMake (685 lines, 0.2%)</text>
<circle cx="516" cy="256" r="6" fill="#000000" />
<text x="527" y="260" font-size="15" font-family="sans-serif" fill="#FFF">Cabal (536 lines, 0.1%)</text>
<circle cx="16" cy="276" r="6" fill="#384d54" />
<text x="27" y="280" font-size="15" font-family="sans-serif" fill="#FFF">Just (467 lines, 0.1%)</text>
<circle cx="266" cy="276" r="6" fill="#000000" />
<text x="277" y="280" font-size="15" font-family="sans-serif" fill="#FFF">Templ (439 lines, 0.1%)</text>
<circle cx="516" cy="276" r="6" fill="#199f4b" />
<text x="527" y="280" font-size="15" font-family="sans-serif" fill="#FFF">Vim Script (287 lines, 0.1%)</text>
<circle cx="16" cy="296" r="6" fill="#B83998" />
<text x="27" y="300" font-size="15" font-family="sans-serif" fill="#FFF">Erlang (220 lines, 0.1%)</text>
<circle cx="266" cy="296" r="6" fill="#000000" />
<text x="277" y="300" font-size="15" font-family="sans-serif" fill="#FFF">Bitbake (163 lines, 0.0%)</text>
<circle cx="516" cy="296" r="6" fill="#db5855" />
<text x="527" y="300" font-size="15" font-family="sans-serif" fill="#FFF">Clojure (156 lines, 0.0%)</text>
<circle cx="16" cy="316" r="6" fill="#0050b2" />
<text x="27" y="320" font-size="15" font-family="sans-serif" fill="#FFF">FreeMarker (103 lines, 0.0%)</text>
<circle cx="266" cy="316" r="6" fill="#000000" />
<text x="277" y="320" font-size="15" font-family="sans-serif" fill="#FFF">Fish (100 lines, 0.0%)</text>
<circle cx="516" cy="316" r="6" fill="#701516" />
<text x="527" y="320" font-size="15" font-family="sans-serif" fill="#FFF">Ruby (100 lines, 0.0%)</text>
</svg>