<svg width="800" height="330" xmlns="http://www.w3.org/2000/svg">
<rect width="800" height="330" fill="#212830"/>
<rect x="10" y="40" width="140.17585283561115" height="50" fill="#555555"/>
<rect x="150.17585283561115" y="40" width="121.16500921043469" height="50" fill="#b07219"/>
<rect x="271.34086204604586" y="40" width="103.94181284143492" height="50" fill="#c22d40"/>
<rect x="375.28267488748077" y="40" width="67.26212707234781" height="50" fill="#A97BFF"/>
<rect x="442.5448019598286" y="40" width="58.769536566375265" height="50" fill="#00B4AB"/>
<rect x="501.31433852620387" y="40" width="46.62062504352011" height="50" fill="#5e5086"/>
<rect x="547.934963569724" y="40" width="45.35965006678357" height="50" fill="#000000"/>
<rect x="593.2946136365076" y="40" width="41.8046121805625" height="50" fill="#3D6117"/>
<rect x="635.0992258170701" y="40" width="33.43862558791692" height="50" fill="None"/>
<rect x="668.537851404987" y="40" width="28.804922360150155" height="50" fill="#3572A5"/>
<rect x="697.3427737651372" y="40" width="24.02435859292411" height="50" fill="#89e051"/>
<rect x="721.3671323580613" y="40" width="15.653307843745448" height="50" fill="#239dad"/>
<rect x="737.0204402018068" y="40" width="12.255258810049817" height="50" fill="#000080"/>
<rect x="749.2756990118565" y="40" width="10.847423293854012" height="50" fill="#000000"/>
<rect x="760.1231223057106" y="40" width="9.39907452539358" height="50" fill="#dea584"/>
<rect x="769.5221968311041" y="40" width="8.006431478797008" height="50" fill="#000000"/>
<rect x="777.5286283099011" y="40" width="7.930469130800832" height="50" fill="#f34b7d"/>
<rect x="785.459097440702" y="40" width="4.3754312445797705" height="50" fill="#ec915c"/>
<rect x="789.8345286852817" y="40" width="3.848758965139613" height="50" fill="#000000"/>
<rect x="793.6832876504213" y="40" width="3.4689472251587303" height="50" fill="#DA3434"/>
<rect x="797.1522348755801" y="40" width="2.7143879017300425" height="50" fill="#000000"/>
<rect x="799.8666227773101" y="40" width="2.699195432130807" height="50" fill="#427819"/>
<rect x="802.565818209441" y="40" width="2.223164718021434" height="50" fill="#000000"/>
<rect x="804.7889829274624" y="40" width="1.4534129249935115" height="50" fill="#199f4b"/>
<rect x="806.2423958524558" y="40" width="1.1141144372772562" height="50" fill="#B83998"/>
<rect x="807.3565102897331" y="40" width="0.8254575148917854" height="50" fill="#000000"/>
<rect x="808.181967804625" y="40" width="0.7900084191602361" height="50" fill="#db5855"/>
<rect x="808.9719762237852" y="40" width="0.5216081229070791" height="50" fill="#0050b2"/>
<rect x="809.4935843466923" y="40" width="0.5064156533078438" height="50" fill="#701516"/>
<circle cx="16" cy="116" r="6" fill="#555555" />
<text x="27" y="120" font-size="15" font-family="sans-serif" fill="#FFF">C (27.7k lines, 17.5%)</text>
<circle cx="266" cy="116" r="6" fill="#b07219" />
<text x="277" y="120" font-size="15" font-family="sans-serif" fill="#FFF">Java (23.9k lines, 15.1%)</text>
<circle cx="516" cy="116" r="6" fill="#c22d40" />
<text x="527" y="120" font-size="15" font-family="sans-serif" fill="#FFF">Scala (20.5k lines, 13.0%)</text>
<circle cx="16" cy="136" r="6" fill="#A97BFF" />
<text x="27" y="140" font-size="15" font-family="sans-serif" fill="#FFF">Kotlin (13.3k lines, 8.4%)</text>
<circle cx="266" cy="136" r="6" fill="#00B4AB" />
<text x="277" y="140" font-size="15" font-family="sans-serif" fill="#FFF">Dart (11.6k lines, 7.3%)</text>
<circle cx="516" cy="136" r="6" fill="#5e5086" />
<text x="527" y="140" font-size="15" font-family="sans-serif" fill="#FFF">Haskell (9.2k lines, 5.8%)</text>
<circle cx="16" cy="156" r="6" fill="#000000" />
<text x="27" y="160" font-size="15" font-family="sans-serif" fill="#FFF">C Header (9.0k lines, 5.7%)</text>
<circle cx="266" cy="156" r="6" fill="#3D6117" />
<text x="277" y="160" font-size="15" font-family="sans-serif" fill="#FFF">TeX (8.3k lines, 5.2%)</text>
<circle cx="516" cy="156" r="6" fill="None" />
<text x="527" y="160" font-size="15" font-family="sans-serif" fill="#FFF">Lean (6.6k lines, 4.2%)</text>
<circle cx="16" cy="176" r="6" fill="#3572A5" />
<text x="27" y="180" font-size="15" font-family="sans-serif" fill="#FFF">Python (5.7k lines, 3.6%)</text>
<circle cx="266" cy="176" r="6" fill="#89e051" />
<text x="277" y="180" font-size="15" font-family="sans-serif" fill="#FFF">Shell (4.7k lines, 3.0%)</text>
<circle cx="516" cy="176" r="6" fill="#239dad" />
<text x="527" y="180" font-size="15" font-family="sans-serif" fill="#FFF">Typst (3.1k lines, 2.0%)</text>
<circle cx="16" cy="196" r="6" fill="#000080" />
<text x="27" y="200" font-size="15" font-family="sans-serif" fill="#FFF">Lua (2.4k lines, 1.5%)</text>
<circle cx="266" cy="196" r="6" fill="#000000" />
<text x="277" y="200" font-size="15" font-family="sans-serif" fill="#FFF">GNU Style A… (2.1k lines, 1.4%)</text>
<circle cx="516" cy="196" r="6" fill="#dea584" />
<text x="527" y="200" font-size="15" font-family="sans-serif" fill="#FFF">Rust (1.9k lines, 1.2%)</text>
<circle cx="16" cy="216" r="6" fill="#000000" />
<text x="27" y="220" font-size="15" font-family="sans-serif" fill="#FFF">Batch (1.6k lines, 1.0%)</text>
<circle cx="266" cy="216" r="6" fill="#f34b7d" />
<text x="277" y="220" font-size="15" font-family="sans-serif" fill="#FFF">C++ (1.6k lines, 1.0%)</text>
<circle cx="516" cy="216" r="6" fill="#ec915c" />
<text x="527" y="220" font-size="15" font-family="sans-serif" fill="#FFF">Zig (864 lines, 0.5%)</text>
<circle cx="16" cy="236" r="6" fill="#000000" />
<text x="27" y="240" font-size="15" font-family="sans-serif" fill="#FFF">WebGPU Shad… (760 lines, 0.5%)</text>
<circle cx="266" cy="236" r="6" fill="#DA3434" />
<text x="277" y="240" font-size="15" font-family="sans-serif" fill="#FFF">CMake (685 lines, 0.4%)</text>
<circle cx="516" cy="236" r="6" fill="#000000" />
<text x="527" y="240" font-size="15" font-family="sans-serif" fill="#FFF">Cabal (536 lines, 0.3%)</text>
<circle cx="16" cy="256" r="6" fill="#427819" />
<text x="27" y="260" font-size="15" font-family="sans-serif" fill="#FFF">Makefile (533 lines, 0.3%)</text>
<circle cx="266" cy="256" r="6" fill="#000000" />
<text x="277" y="260" font-size="15" font-family="sans-serif" fill="#FFF">Templ (439 lines, 0.3%)</text>
<circle cx="516" cy="256" r="6" fill="#199f4b" />
<text x="527" y="260" font-size="15" font-family="sans-serif" fill="#FFF">Vim Script (287 lines, 0.2%)</text>
<circle cx="16" cy="276" r="6" fill="#B83998" />
<text x="27" y="280" font-size="15" font-family="sans-serif" fill="#FFF">Erlang (220 lines, 0.1%)</text>
<circle cx="266" cy="276" r="6" fill="#000000" />
<text x="277" y="280" font-size="15" font-family="sans-serif" fill="#FFF">Bitbake (163 lines, 0.1%)</text>
<circle cx="516" cy="276" r="6" fill="#db5855" />
<text x="527" y="280" font-size="15" font-family="sans-serif" fill="#FFF">Clojure (156 lines, 0.1%)</text>
<circle cx="16" cy="296" r="6" fill="#0050b2" />
<text x="27" y="300" font-size="15" font-family="sans-serif" fill="#FFF">FreeMarker (103 lines, 0.1%)</text>
<circle cx="266" cy="296" r="6" fill="#701516" />
<text x="277" y="300" font-size="15" font-family="sans-serif" fill="#FFF">Ruby (100 lines, 0.1%)</text>
</svg>