<svg width="800" height="350" xmlns="http://www.w3.org/2000/svg">
<rect width="800" height="350" fill="#212830"/>
<rect x="10" y="40" width="114.89477404970363" height="50" fill="#555555"/>
<rect x="124.89477404970363" y="40" width="94.62573969616224" height="50" fill="#b07219"/>
<rect x="219.52051374586586" y="40" width="84.68303679571285" height="50" fill="#c22d40"/>
<rect x="304.2035505415787" y="40" width="74.09567972948254" height="50" fill="#00B4AB"/>
<rect x="378.2992302710612" y="40" width="67.28923912022503" height="50" fill="#A97BFF"/>
<rect x="445.58846939128625" y="40" width="49.92708091299641" height="50" fill="#3572A5"/>
<rect x="495.51555030428267" y="40" width="47.29309518041912" height="50" fill="#dea584"/>
<rect x="542.8086454847017" y="40" width="45.54896949263147" height="50" fill="None"/>
<rect x="588.3576149773332" y="40" width="36.49217170343931" height="50" fill="#5e5086"/>
<rect x="624.8497866807726" y="40" width="36.2944250268194" height="50" fill="#000000"/>
<rect x="661.1442117075919" y="40" width="32.64797630994814" height="50" fill="#3D6117"/>
<rect x="693.7921880175401" y="40" width="20.272989287073795" height="50" fill="#89e051"/>
<rect x="714.0651773046138" y="40" width="16.745188576174492" height="50" fill="#239dad"/>
<rect x="730.8103658807884" y="40" width="16.132173878652754" height="50" fill="#ec915c"/>
<rect x="746.9425397594412" y="40" width="13.450728943686691" height="50" fill="#000000"/>
<rect x="760.3932687031279" y="40" width="9.594668749598327" height="50" fill="#000080"/>
<rect x="769.9879374527262" y="40" width="8.471467626397205" height="50" fill="#000000"/>
<rect x="778.4594050791234" y="40" width="7.621156916931565" height="50" fill="#f34b7d"/>
<rect x="786.0805619960549" y="40" width="6.505865660795239" height="50" fill="#000000"/>
<rect x="792.5864276568502" y="40" width="3.4684767079133274" height="50" fill="#000000"/>
<rect x="796.0549043647635" y="40" width="2.839642276261995" height="50" fill="#427819"/>
<rect x="798.8945466410255" y="40" width="2.70912946969285" height="50" fill="#DA3434"/>
<rect x="801.6036761107183" y="40" width="2.1198443733655004" height="50" fill="#000000"/>
<rect x="803.7235204840838" y="40" width="1.7362158207228628" height="50" fill="#000000"/>
<rect x="805.4597363048067" y="40" width="1.135065923798318" height="50" fill="#199f4b"/>
<rect x="806.594802228605" y="40" width="0.8700853771276307" height="50" fill="#B83998"/>
<rect x="807.4648876057327" y="40" width="0.6446541657809264" height="50" fill="#000000"/>
<rect x="808.1095417715136" y="40" width="0.6169696310541382" height="50" fill="#db5855"/>
<rect x="808.7265114025678" y="40" width="0.47063709035540024" height="50" fill="#41b883"/>
<rect x="809.1971484929231" y="40" width="0.40735815383702706" height="50" fill="#0050b2"/>
<rect x="809.6045066467601" y="40" width="0.39549335323983215" height="50" fill="#701516"/>
<circle cx="16" cy="116" r="6" fill="#555555" />
<text x="27" y="120" font-size="15" font-family="sans-serif" fill="#FFF">C (29.1k lines, 14.4%)</text>
<circle cx="266" cy="116" r="6" fill="#b07219" />
<text x="277" y="120" font-size="15" font-family="sans-serif" fill="#FFF">Java (23.9k lines, 11.8%)</text>
<circle cx="516" cy="116" r="6" fill="#c22d40" />
<text x="527" y="120" font-size="15" font-family="sans-serif" fill="#FFF">Scala (21.4k lines, 10.6%)</text>
<circle cx="16" cy="136" r="6" fill="#00B4AB" />
<text x="27" y="140" font-size="15" font-family="sans-serif" fill="#FFF">Dart (18.7k lines, 9.3%)</text>
<circle cx="266" cy="136" r="6" fill="#A97BFF" />
<text x="277" y="140" font-size="15" font-family="sans-serif" fill="#FFF">Kotlin (17.0k lines, 8.4%)</text>
<circle cx="516" cy="136" r="6" fill="#3572A5" />
<text x="527" y="140" font-size="15" font-family="sans-serif" fill="#FFF">Python (12.6k lines, 6.2%)</text>
<circle cx="16" cy="156" r="6" fill="#dea584" />
<text x="27" y="160" font-size="15" font-family="sans-serif" fill="#FFF">Rust (12.0k lines, 5.9%)</text>
<circle cx="266" cy="156" r="6" fill="None" />
<text x="277" y="160" font-size="15" font-family="sans-serif" fill="#FFF">Lean (11.5k lines, 5.7%)</text>
<circle cx="516" cy="156" r="6" fill="#5e5086" />
<text x="527" y="160" font-size="15" font-family="sans-serif" fill="#FFF">Haskell (9.2k lines, 4.6%)</text>
<circle cx="16" cy="176" r="6" fill="#000000" />
<text x="27" y="180" font-size="15" font-family="sans-serif" fill="#FFF">C Header (9.2k lines, 4.5%)</text>
<circle cx="266" cy="176" r="6" fill="#3D6117" />
<text x="277" y="180" font-size="15" font-family="sans-serif" fill="#FFF">TeX (8.3k lines, 4.1%)</text>
<circle cx="516" cy="176" r="6" fill="#89e051" />
<text x="527" y="180" font-size="15" font-family="sans-serif" fill="#FFF">Shell (5.1k lines, 2.5%)</text>
<circle cx="16" cy="196" r="6" fill="#239dad" />
<text x="27" y="200" font-size="15" font-family="sans-serif" fill="#FFF">Typst (4.2k lines, 2.1%)</text>
<circle cx="266" cy="196" r="6" fill="#ec915c" />
<text x="277" y="200" font-size="15" font-family="sans-serif" fill="#FFF">Zig (4.1k lines, 2.0%)</text>
<circle cx="516" cy="196" r="6" fill="#000000" />
<text x="527" y="200" font-size="15" font-family="sans-serif" fill="#FFF">Jupyter Not… (3.4k lines, 1.7%)</text>
<circle cx="16" cy="216" r="6" fill="#000080" />
<text x="27" y="220" font-size="15" font-family="sans-serif" fill="#FFF">Lua (2.4k lines, 1.2%)</text>
<circle cx="266" cy="216" r="6" fill="#000000" />
<text x="277" y="220" font-size="15" font-family="sans-serif" fill="#FFF">GNU Style A… (2.1k lines, 1.1%)</text>
<circle cx="516" cy="216" r="6" fill="#f34b7d" />
<text x="527" y="220" font-size="15" font-family="sans-serif" fill="#FFF">C++ (1.9k lines, 1.0%)</text>
<circle cx="16" cy="236" r="6" fill="#000000" />
<text x="27" y="240" font-size="15" font-family="sans-serif" fill="#FFF">Batch (1.6k lines, 0.8%)</text>
<circle cx="266" cy="236" r="6" fill="#000000" />
<text x="277" y="240" font-size="15" font-family="sans-serif" fill="#FFF">WebGPU Shad… (877 lines, 0.4%)</text>
<circle cx="516" cy="236" r="6" fill="#427819" />
<text x="527" y="240" font-size="15" font-family="sans-serif" fill="#FFF">Makefile (718 lines, 0.4%)</text>
<circle cx="16" cy="256" r="6" fill="#DA3434" />
<text x="27" y="260" font-size="15" font-family="sans-serif" fill="#FFF">CMake (685 lines, 0.3%)</text>
<circle cx="266" cy="256" r="6" fill="#000000" />
<text x="277" y="260" font-size="15" font-family="sans-serif" fill="#FFF">Cabal (536 lines, 0.3%)</text>
<circle cx="516" cy="256" r="6" fill="#000000" />
<text x="527" y="260" font-size="15" font-family="sans-serif" fill="#FFF">Templ (439 lines, 0.2%)</text>
<circle cx="16" cy="276" r="6" fill="#199f4b" />
<text x="27" y="280" font-size="15" font-family="sans-serif" fill="#FFF">Vim Script (287 lines, 0.1%)</text>
<circle cx="266" cy="276" r="6" fill="#B83998" />
<text x="277" y="280" font-size="15" font-family="sans-serif" fill="#FFF">Erlang (220 lines, 0.1%)</text>
<circle cx="516" cy="276" r="6" fill="#000000" />
<text x="527" y="280" font-size="15" font-family="sans-serif" fill="#FFF">Bitbake (163 lines, 0.1%)</text>
<circle cx="16" cy="296" r="6" fill="#db5855" />
<text x="27" y="300" font-size="15" font-family="sans-serif" fill="#FFF">Clojure (156 lines, 0.1%)</text>
<circle cx="266" cy="296" r="6" fill="#41b883" />
<text x="277" y="300" font-size="15" font-family="sans-serif" fill="#FFF">Vue (119 lines, 0.1%)</text>
<circle cx="516" cy="296" r="6" fill="#0050b2" />
<text x="527" y="300" font-size="15" font-family="sans-serif" fill="#FFF">FreeMarker (103 lines, 0.1%)</text>
<circle cx="16" cy="316" r="6" fill="#701516" />
<text x="27" y="320" font-size="15" font-family="sans-serif" fill="#FFF">Ruby (100 lines, 0.0%)</text>
</svg>