<svg width="800" height="330" xmlns="http://www.w3.org/2000/svg">
<rect x="10" y="40" width="139.92426568416744" height="50" fill="#555555"/>
<rect x="149.92426568416744" y="40" width="122.4337324736465" height="50" fill="#b07219"/>
<rect x="272.35799815781394" y="40" width="105.03019138266299" height="50" fill="#c22d40"/>
<rect x="377.3881895404769" y="40" width="67.55193941254734" height="50" fill="#A97BFF"/>
<rect x="444.9401289530242" y="40" width="61.26803807184526" height="50" fill="#00B4AB"/>
<rect x="506.20816702486945" y="40" width="47.10879132125679" height="50" fill="#5e5086"/>
<rect x="553.3169583461263" y="40" width="45.46105823354826" height="50" fill="#000000"/>
<rect x="598.7780165796745" y="40" width="42.24234981066421" height="50" fill="#3D6117"/>
<rect x="641.0203663903387" y="40" width="29.070719476000413" height="50" fill="#3572A5"/>
<rect x="670.0910858663391" y="40" width="26.07204994371098" height="50" fill="None"/>
<rect x="696.1631358100501" y="40" width="24.275918534438645" height="50" fill="#89e051"/>
<rect x="720.4390543444888" y="40" width="15.817214205301402" height="50" fill="#239dad"/>
<rect x="736.2562685497902" y="40" width="12.38358407532494" height="50" fill="#000080"/>
<rect x="748.6398526251152" y="40" width="10.961007061713236" height="50" fill="#000000"/>
<rect x="759.6008596868284" y="40" width="9.497492580083922" height="50" fill="#dea584"/>
<rect x="769.0983522669122" y="40" width="8.090267116978815" height="50" fill="#000000"/>
<rect x="777.188619383891" y="40" width="8.01350936444581" height="50" fill="#f34b7d"/>
<rect x="785.2021287483368" y="40" width="4.421246545901136" height="50" fill="#ec915c"/>
<rect x="789.6233752942379" y="40" width="3.889059461672296" height="50" fill="#000000"/>
<rect x="793.5124347559102" y="40" width="3.5052706990072666" height="50" fill="#DA3434"/>
<rect x="797.0177054549175" y="40" width="2.7428103571794082" height="50" fill="#000000"/>
<rect x="799.760515812097" y="40" width="2.7274588066728076" height="50" fill="#427819"/>
<rect x="802.4879746187697" y="40" width="2.2464435574659705" height="50" fill="#000000"/>
<rect x="804.7344181762357" y="40" width="1.4686316651315117" height="50" fill="#199f4b"/>
<rect x="806.2030498413673" y="40" width="1.1257803704840856" height="50" fill="#B83998"/>
<rect x="807.3288302118514" y="40" width="0.8341009108586634" height="50" fill="#000000"/>
<rect x="808.16293112271" y="40" width="0.7982806263432606" height="50" fill="#db5855"/>
<rect x="808.9612117490533" y="40" width="0.5270699007266401" height="50" fill="#0050b2"/>
<rect x="809.4882816497799" y="40" width="0.5117183502200389" height="50" fill="#701516"/>
<circle cx="16" cy="116" r="6" fill="#555555" />
<text x="27" y="120" font-size="15" font-family="sans-serif" fill="#FFF">C (27.3k lines, 17.5%)</text>
<circle cx="266" cy="116" r="6" fill="#b07219" />
<text x="277" y="120" font-size="15" font-family="sans-serif" fill="#FFF">Java (23.9k lines, 15.3%)</text>
<circle cx="516" cy="116" r="6" fill="#c22d40" />
<text x="527" y="120" font-size="15" font-family="sans-serif" fill="#FFF">Scala (20.5k lines, 13.1%)</text>
<circle cx="16" cy="136" r="6" fill="#A97BFF" />
<text x="27" y="140" font-size="15" font-family="sans-serif" fill="#FFF">Kotlin (13.2k lines, 8.4%)</text>
<circle cx="266" cy="136" r="6" fill="#00B4AB" />
<text x="277" y="140" font-size="15" font-family="sans-serif" fill="#FFF">Dart (12.0k lines, 7.7%)</text>
<circle cx="516" cy="136" r="6" fill="#5e5086" />
<text x="527" y="140" font-size="15" font-family="sans-serif" fill="#FFF">Haskell (9.2k lines, 5.9%)</text>
<circle cx="16" cy="156" r="6" fill="#000000" />
<text x="27" y="160" font-size="15" font-family="sans-serif" fill="#FFF">C Header (8.9k lines, 5.7%)</text>
<circle cx="266" cy="156" r="6" fill="#3D6117" />
<text x="277" y="160" font-size="15" font-family="sans-serif" fill="#FFF">TeX (8.3k lines, 5.3%)</text>
<circle cx="516" cy="156" r="6" fill="#3572A5" />
<text x="527" y="160" font-size="15" font-family="sans-serif" fill="#FFF">Python (5.7k lines, 3.6%)</text>
<circle cx="16" cy="176" r="6" fill="None" />
<text x="27" y="180" font-size="15" font-family="sans-serif" fill="#FFF">Lean (5.1k lines, 3.3%)</text>
<circle cx="266" cy="176" r="6" fill="#89e051" />
<text x="277" y="180" font-size="15" font-family="sans-serif" fill="#FFF">Shell (4.7k lines, 3.0%)</text>
<circle cx="516" cy="176" r="6" fill="#239dad" />
<text x="527" y="180" font-size="15" font-family="sans-serif" fill="#FFF">Typst (3.1k lines, 2.0%)</text>
<circle cx="16" cy="196" r="6" fill="#000080" />
<text x="27" y="200" font-size="15" font-family="sans-serif" fill="#FFF">Lua (2.4k lines, 1.5%)</text>
<circle cx="266" cy="196" r="6" fill="#000000" />
<text x="277" y="200" font-size="15" font-family="sans-serif" fill="#FFF">GNU Style A… (2.1k lines, 1.4%)</text>
<circle cx="516" cy="196" r="6" fill="#dea584" />
<text x="527" y="200" font-size="15" font-family="sans-serif" fill="#FFF">Rust (1.9k lines, 1.2%)</text>
<circle cx="16" cy="216" r="6" fill="#000000" />
<text x="27" y="220" font-size="15" font-family="sans-serif" fill="#FFF">Batch (1.6k lines, 1.0%)</text>
<circle cx="266" cy="216" r="6" fill="#f34b7d" />
<text x="277" y="220" font-size="15" font-family="sans-serif" fill="#FFF">C++ (1.6k lines, 1.0%)</text>
<circle cx="516" cy="216" r="6" fill="#ec915c" />
<text x="527" y="220" font-size="15" font-family="sans-serif" fill="#FFF">Zig (864 lines, 0.6%)</text>
<circle cx="16" cy="236" r="6" fill="#000000" />
<text x="27" y="240" font-size="15" font-family="sans-serif" fill="#FFF">WebGPU Shad… (760 lines, 0.5%)</text>
<circle cx="266" cy="236" r="6" fill="#DA3434" />
<text x="277" y="240" font-size="15" font-family="sans-serif" fill="#FFF">CMake (685 lines, 0.4%)</text>
<circle cx="516" cy="236" r="6" fill="#000000" />
<text x="527" y="240" font-size="15" font-family="sans-serif" fill="#FFF">Cabal (536 lines, 0.3%)</text>
<circle cx="16" cy="256" r="6" fill="#427819" />
<text x="27" y="260" font-size="15" font-family="sans-serif" fill="#FFF">Makefile (533 lines, 0.3%)</text>
<circle cx="266" cy="256" r="6" fill="#000000" />
<text x="277" y="260" font-size="15" font-family="sans-serif" fill="#FFF">Templ (439 lines, 0.3%)</text>
<circle cx="516" cy="256" r="6" fill="#199f4b" />
<text x="527" y="260" font-size="15" font-family="sans-serif" fill="#FFF">Vim Script (287 lines, 0.2%)</text>
<circle cx="16" cy="276" r="6" fill="#B83998" />
<text x="27" y="280" font-size="15" font-family="sans-serif" fill="#FFF">Erlang (220 lines, 0.1%)</text>
<circle cx="266" cy="276" r="6" fill="#000000" />
<text x="277" y="280" font-size="15" font-family="sans-serif" fill="#FFF">Bitbake (163 lines, 0.1%)</text>
<circle cx="516" cy="276" r="6" fill="#db5855" />
<text x="527" y="280" font-size="15" font-family="sans-serif" fill="#FFF">Clojure (156 lines, 0.1%)</text>
<circle cx="16" cy="296" r="6" fill="#0050b2" />
<text x="27" y="300" font-size="15" font-family="sans-serif" fill="#FFF">FreeMarker (103 lines, 0.1%)</text>
<circle cx="266" cy="296" r="6" fill="#701516" />
<text x="277" y="300" font-size="15" font-family="sans-serif" fill="#FFF">Ruby (100 lines, 0.1%)</text>
</svg>