<svg width="800" height="350" xmlns="http://www.w3.org/2000/svg">
<rect x="10" y="40" width="131.24250777366024" height="50" fill="#555555"/>
<rect x="141.24250777366024" y="40" width="116.4728576035829" height="50" fill="#b07219"/>
<rect x="257.71536537724313" y="40" width="99.9166347201178" height="50" fill="#c22d40"/>
<rect x="357.6320000973609" y="40" width="89.45033680790084" height="50" fill="#A97BFF"/>
<rect x="447.08233690526174" y="40" width="62.291510737082945" height="50" fill="#00B4AB"/>
<rect x="509.3738476423447" y="40" width="44.81522724645089" height="50" fill="#5e5086"/>
<rect x="554.1890748887956" y="40" width="43.04325866968485" height="50" fill="#000000"/>
<rect x="597.2323335584805" y="40" width="40.1857159373726" height="50" fill="#3D6117"/>
<rect x="637.4180494958531" y="40" width="33.07350140260562" height="50" fill="#3572A5"/>
<rect x="670.4915508984587" y="40" width="24.520345387831103" height="50" fill="#89e051"/>
<rect x="695.0118962862898" y="40" width="23.877763376476388" height="50" fill="None"/>
<rect x="718.8896596627662" y="40" width="12.277210853307533" height="50" fill="#239dad"/>
<rect x="731.1668705160738" y="40" width="11.72712170722357" height="50" fill="#000080"/>
<rect x="742.8939922232973" y="40" width="10.427353547892443" height="50" fill="#000000"/>
<rect x="753.3213457711898" y="40" width="9.035092523290555" height="50" fill="#dea584"/>
<rect x="762.3564382944804" y="40" width="8.042011233015085" height="50" fill="#000000"/>
<rect x="770.3984495274955" y="40" width="7.623359316526407" height="50" fill="#f34b7d"/>
<rect x="778.0218088440218" y="40" width="7.623359316526407" height="50" fill="#e38c00"/>
<rect x="785.6451681605482" y="40" width="4.205991347049052" height="50" fill="#ec915c"/>
<rect x="789.8511595075972" y="40" width="3.6997146108301835" height="50" fill="#000000"/>
<rect x="793.5508741184274" y="40" width="3.3346111952877315" height="50" fill="#DA3434"/>
<rect x="796.8854853137151" y="40" width="2.609272409743393" height="50" fill="#000000"/>
<rect x="799.4947577234585" y="40" width="2.419418633661318" height="50" fill="#427819"/>
<rect x="801.9141763571198" y="40" width="2.137071992308488" height="50" fill="#000000"/>
<rect x="804.0512483494283" y="40" width="1.528566299737734" height="50" fill="#384d54"/>
<rect x="805.579814649166" y="40" width="1.070970018924527" height="50" fill="#B83998"/>
<rect x="806.6507846680905" y="40" width="0.8080955597339613" height="50" fill="#199f4b"/>
<rect x="807.4588802278245" y="40" width="0.7934914231122633" height="50" fill="#000000"/>
<rect x="808.2523716509368" y="40" width="0.759415104328301" height="50" fill="#db5855"/>
<rect x="809.0117867552651" y="40" width="0.5014086906783013" height="50" fill="#0050b2"/>
<rect x="809.5131954459434" y="40" width="0.48680455405660317" height="50" fill="#701516"/>
<circle cx="16" cy="116" r="6" fill="#555555" />
<text x="27" y="120" font-size="15" font-family="sans-serif" fill="#FFF">C (27.0k lines, 16.4%)</text>
<circle cx="266" cy="116" r="6" fill="#b07219" />
<text x="277" y="120" font-size="15" font-family="sans-serif" fill="#FFF">Java (23.9k lines, 14.6%)</text>
<circle cx="516" cy="116" r="6" fill="#c22d40" />
<text x="527" y="120" font-size="15" font-family="sans-serif" fill="#FFF">Scala (20.5k lines, 12.5%)</text>
<circle cx="16" cy="136" r="6" fill="#A97BFF" />
<text x="27" y="140" font-size="15" font-family="sans-serif" fill="#FFF">Kotlin (18.4k lines, 11.2%)</text>
<circle cx="266" cy="136" r="6" fill="#00B4AB" />
<text x="277" y="140" font-size="15" font-family="sans-serif" fill="#FFF">Dart (12.8k lines, 7.8%)</text>
<circle cx="516" cy="136" r="6" fill="#5e5086" />
<text x="527" y="140" font-size="15" font-family="sans-serif" fill="#FFF">Haskell (9.2k lines, 5.6%)</text>
<circle cx="16" cy="156" r="6" fill="#000000" />
<text x="27" y="160" font-size="15" font-family="sans-serif" fill="#FFF">C Header (8.8k lines, 5.4%)</text>
<circle cx="266" cy="156" r="6" fill="#3D6117" />
<text x="277" y="160" font-size="15" font-family="sans-serif" fill="#FFF">TeX (8.3k lines, 5.0%)</text>
<circle cx="516" cy="156" r="6" fill="#3572A5" />
<text x="527" y="160" font-size="15" font-family="sans-serif" fill="#FFF">Python (6.8k lines, 4.1%)</text>
<circle cx="16" cy="176" r="6" fill="#89e051" />
<text x="27" y="180" font-size="15" font-family="sans-serif" fill="#FFF">Shell (5.0k lines, 3.1%)</text>
<circle cx="266" cy="176" r="6" fill="None" />
<text x="277" y="180" font-size="15" font-family="sans-serif" fill="#FFF">Lean (4.9k lines, 3.0%)</text>
<circle cx="516" cy="176" r="6" fill="#239dad" />
<text x="527" y="180" font-size="15" font-family="sans-serif" fill="#FFF">Typst (2.5k lines, 1.5%)</text>
<circle cx="16" cy="196" r="6" fill="#000080" />
<text x="27" y="200" font-size="15" font-family="sans-serif" fill="#FFF">Lua (2.4k lines, 1.5%)</text>
<circle cx="266" cy="196" r="6" fill="#000000" />
<text x="277" y="200" font-size="15" font-family="sans-serif" fill="#FFF">GNU Style A… (2.1k lines, 1.3%)</text>
<circle cx="516" cy="196" r="6" fill="#dea584" />
<text x="527" y="200" font-size="15" font-family="sans-serif" fill="#FFF">Rust (1.9k lines, 1.1%)</text>
<circle cx="16" cy="216" r="6" fill="#000000" />
<text x="27" y="220" font-size="15" font-family="sans-serif" fill="#FFF">Batch (1.7k lines, 1.0%)</text>
<circle cx="266" cy="216" r="6" fill="#f34b7d" />
<text x="277" y="220" font-size="15" font-family="sans-serif" fill="#FFF">C++ (1.6k lines, 1.0%)</text>
<circle cx="516" cy="216" r="6" fill="#e38c00" />
<text x="527" y="220" font-size="15" font-family="sans-serif" fill="#FFF">SQL (1.6k lines, 1.0%)</text>
<circle cx="16" cy="236" r="6" fill="#ec915c" />
<text x="27" y="240" font-size="15" font-family="sans-serif" fill="#FFF">Zig (864 lines, 0.5%)</text>
<circle cx="266" cy="236" r="6" fill="#000000" />
<text x="277" y="240" font-size="15" font-family="sans-serif" fill="#FFF">WebGPU Shad… (760 lines, 0.5%)</text>
<circle cx="516" cy="236" r="6" fill="#DA3434" />
<text x="527" y="240" font-size="15" font-family="sans-serif" fill="#FFF">CMake (685 lines, 0.4%)</text>
<circle cx="16" cy="256" r="6" fill="#000000" />
<text x="27" y="260" font-size="15" font-family="sans-serif" fill="#FFF">Cabal (536 lines, 0.3%)</text>
<circle cx="266" cy="256" r="6" fill="#427819" />
<text x="277" y="260" font-size="15" font-family="sans-serif" fill="#FFF">Makefile (497 lines, 0.3%)</text>
<circle cx="516" cy="256" r="6" fill="#000000" />
<text x="527" y="260" font-size="15" font-family="sans-serif" fill="#FFF">Templ (439 lines, 0.3%)</text>
<circle cx="16" cy="276" r="6" fill="#384d54" />
<text x="27" y="280" font-size="15" font-family="sans-serif" fill="#FFF">Dockerfile (314 lines, 0.2%)</text>
<circle cx="266" cy="276" r="6" fill="#B83998" />
<text x="277" y="280" font-size="15" font-family="sans-serif" fill="#FFF">Erlang (220 lines, 0.1%)</text>
<circle cx="516" cy="276" r="6" fill="#199f4b" />
<text x="527" y="280" font-size="15" font-family="sans-serif" fill="#FFF">Vim Script (166 lines, 0.1%)</text>
<circle cx="16" cy="296" r="6" fill="#000000" />
<text x="27" y="300" font-size="15" font-family="sans-serif" fill="#FFF">Bitbake (163 lines, 0.1%)</text>
<circle cx="266" cy="296" r="6" fill="#db5855" />
<text x="277" y="300" font-size="15" font-family="sans-serif" fill="#FFF">Clojure (156 lines, 0.1%)</text>
<circle cx="516" cy="296" r="6" fill="#0050b2" />
<text x="527" y="300" font-size="15" font-family="sans-serif" fill="#FFF">FreeMarker (103 lines, 0.1%)</text>
<circle cx="16" cy="316" r="6" fill="#701516" />
<text x="27" y="320" font-size="15" font-family="sans-serif" fill="#FFF">Ruby (100 lines, 0.1%)</text>
</svg>