<svg width="800" height="330" xmlns="http://www.w3.org/2000/svg">
<rect width="800" height="330" fill="#212830"/>
<rect x="10" y="40" width="140.15256544171177" height="50" fill="#555555"/>
<rect x="150.15256544171177" y="40" width="121.17114550691608" height="50" fill="#b07219"/>
<rect x="271.3237109486279" y="40" width="103.94707688411991" height="50" fill="#c22d40"/>
<rect x="375.27078783274777" y="40" width="67.26553350425726" height="50" fill="#A97BFF"/>
<rect x="442.536321337005" y="40" width="58.77251289842687" height="50" fill="#00B4AB"/>
<rect x="501.30883423543185" y="40" width="46.62298610451682" height="50" fill="#5e5086"/>
<rect x="547.9318203399487" y="40" width="45.35181844079384" height="50" fill="#000000"/>
<rect x="593.2836387807425" y="40" width="41.80672933877758" height="50" fill="#3D6117"/>
<rect x="635.0903681195201" y="40" width="33.44031905801918" height="50" fill="None"/>
<rect x="668.5306871775393" y="40" width="28.80638116038363" height="50" fill="#3572A5"/>
<rect x="697.3370683379229" y="40" width="24.025575285664548" height="50" fill="#89e051"/>
<rect x="721.3626436235875" y="40" width="15.654100591903267" height="50" fill="#239dad"/>
<rect x="737.0167442154907" y="40" width="12.255879466970532" height="50" fill="#000080"/>
<rect x="749.2726236824612" y="40" width="10.847972652169785" height="50" fill="#000000"/>
<rect x="760.120596334631" y="40" width="9.399550533345995" height="50" fill="#dea584"/>
<rect x="769.520146867977" y="40" width="8.006836957553888" height="50" fill="#000000"/>
<rect x="777.5269838255309" y="40" width="7.930870762510683" height="50" fill="#f34b7d"/>
<rect x="785.4578545880416" y="40" width="4.375652834488653" height="50" fill="#ec915c"/>
<rect x="789.8335074225303" y="40" width="3.8489538821890927" height="50" fill="#000000"/>
<rect x="793.6824613047194" y="40" width="3.4691229069730634" height="50" fill="#DA3434"/>
<rect x="797.1515842116925" y="40" width="2.7145253695438862" height="50" fill="#000000"/>
<rect x="799.8661095812364" y="40" width="2.6993321305352453" height="50" fill="#427819"/>
<rect x="802.5654417117717" y="40" width="2.223277308264489" height="50" fill="#000000"/>
<rect x="804.7887190200362" y="40" width="1.4534865318266703" height="50" fill="#199f4b"/>
<rect x="806.2422055518629" y="40" width="1.1141708606336846" height="50" fill="#B83998"/>
<rect x="807.3563764124965" y="40" width="0.8254993194695028" height="50" fill="#000000"/>
<rect x="808.181875731966" y="40" width="0.7900484284493401" height="50" fill="#db5855"/>
<rect x="808.9719241604154" y="40" width="0.5216345392966796" height="50" fill="#0050b2"/>
<rect x="809.493558699712" y="40" width="0.5064413002880385" height="50" fill="#701516"/>
<circle cx="16" cy="116" r="6" fill="#555555" />
<text x="27" y="120" font-size="15" font-family="sans-serif" fill="#FFF">C (27.7k lines, 17.5%)</text>
<circle cx="266" cy="116" r="6" fill="#b07219" />
<text x="277" y="120" font-size="15" font-family="sans-serif" fill="#FFF">Java (23.9k lines, 15.1%)</text>
<circle cx="516" cy="116" r="6" fill="#c22d40" />
<text x="527" y="120" font-size="15" font-family="sans-serif" fill="#FFF">Scala (20.5k lines, 13.0%)</text>
<circle cx="16" cy="136" r="6" fill="#A97BFF" />
<text x="27" y="140" font-size="15" font-family="sans-serif" fill="#FFF">Kotlin (13.3k lines, 8.4%)</text>
<circle cx="266" cy="136" r="6" fill="#00B4AB" />
<text x="277" y="140" font-size="15" font-family="sans-serif" fill="#FFF">Dart (11.6k lines, 7.3%)</text>
<circle cx="516" cy="136" r="6" fill="#5e5086" />
<text x="527" y="140" font-size="15" font-family="sans-serif" fill="#FFF">Haskell (9.2k lines, 5.8%)</text>
<circle cx="16" cy="156" r="6" fill="#000000" />
<text x="27" y="160" font-size="15" font-family="sans-serif" fill="#FFF">C Header (9.0k lines, 5.7%)</text>
<circle cx="266" cy="156" r="6" fill="#3D6117" />
<text x="277" y="160" font-size="15" font-family="sans-serif" fill="#FFF">TeX (8.3k lines, 5.2%)</text>
<circle cx="516" cy="156" r="6" fill="None" />
<text x="527" y="160" font-size="15" font-family="sans-serif" fill="#FFF">Lean (6.6k lines, 4.2%)</text>
<circle cx="16" cy="176" r="6" fill="#3572A5" />
<text x="27" y="180" font-size="15" font-family="sans-serif" fill="#FFF">Python (5.7k lines, 3.6%)</text>
<circle cx="266" cy="176" r="6" fill="#89e051" />
<text x="277" y="180" font-size="15" font-family="sans-serif" fill="#FFF">Shell (4.7k lines, 3.0%)</text>
<circle cx="516" cy="176" r="6" fill="#239dad" />
<text x="527" y="180" font-size="15" font-family="sans-serif" fill="#FFF">Typst (3.1k lines, 2.0%)</text>
<circle cx="16" cy="196" r="6" fill="#000080" />
<text x="27" y="200" font-size="15" font-family="sans-serif" fill="#FFF">Lua (2.4k lines, 1.5%)</text>
<circle cx="266" cy="196" r="6" fill="#000000" />
<text x="277" y="200" font-size="15" font-family="sans-serif" fill="#FFF">GNU Style A… (2.1k lines, 1.4%)</text>
<circle cx="516" cy="196" r="6" fill="#dea584" />
<text x="527" y="200" font-size="15" font-family="sans-serif" fill="#FFF">Rust (1.9k lines, 1.2%)</text>
<circle cx="16" cy="216" r="6" fill="#000000" />
<text x="27" y="220" font-size="15" font-family="sans-serif" fill="#FFF">Batch (1.6k lines, 1.0%)</text>
<circle cx="266" cy="216" r="6" fill="#f34b7d" />
<text x="277" y="220" font-size="15" font-family="sans-serif" fill="#FFF">C++ (1.6k lines, 1.0%)</text>
<circle cx="516" cy="216" r="6" fill="#ec915c" />
<text x="527" y="220" font-size="15" font-family="sans-serif" fill="#FFF">Zig (864 lines, 0.5%)</text>
<circle cx="16" cy="236" r="6" fill="#000000" />
<text x="27" y="240" font-size="15" font-family="sans-serif" fill="#FFF">WebGPU Shad… (760 lines, 0.5%)</text>
<circle cx="266" cy="236" r="6" fill="#DA3434" />
<text x="277" y="240" font-size="15" font-family="sans-serif" fill="#FFF">CMake (685 lines, 0.4%)</text>
<circle cx="516" cy="236" r="6" fill="#000000" />
<text x="527" y="240" font-size="15" font-family="sans-serif" fill="#FFF">Cabal (536 lines, 0.3%)</text>
<circle cx="16" cy="256" r="6" fill="#427819" />
<text x="27" y="260" font-size="15" font-family="sans-serif" fill="#FFF">Makefile (533 lines, 0.3%)</text>
<circle cx="266" cy="256" r="6" fill="#000000" />
<text x="277" y="260" font-size="15" font-family="sans-serif" fill="#FFF">Templ (439 lines, 0.3%)</text>
<circle cx="516" cy="256" r="6" fill="#199f4b" />
<text x="527" y="260" font-size="15" font-family="sans-serif" fill="#FFF">Vim Script (287 lines, 0.2%)</text>
<circle cx="16" cy="276" r="6" fill="#B83998" />
<text x="27" y="280" font-size="15" font-family="sans-serif" fill="#FFF">Erlang (220 lines, 0.1%)</text>
<circle cx="266" cy="276" r="6" fill="#000000" />
<text x="277" y="280" font-size="15" font-family="sans-serif" fill="#FFF">Bitbake (163 lines, 0.1%)</text>
<circle cx="516" cy="276" r="6" fill="#db5855" />
<text x="527" y="280" font-size="15" font-family="sans-serif" fill="#FFF">Clojure (156 lines, 0.1%)</text>
<circle cx="16" cy="296" r="6" fill="#0050b2" />
<text x="27" y="300" font-size="15" font-family="sans-serif" fill="#FFF">FreeMarker (103 lines, 0.1%)</text>
<circle cx="266" cy="296" r="6" fill="#701516" />
<text x="277" y="300" font-size="15" font-family="sans-serif" fill="#FFF">Ruby (100 lines, 0.1%)</text>
</svg>