<svg width="800" height="350" xmlns="http://www.w3.org/2000/svg">
<rect width="800" height="350" fill="#212830"/>
<rect x="10" y="40" width="116.21387817964528" height="50" fill="#555555"/>
<rect x="126.21387817964528" y="40" width="95.71213553152018" height="50" fill="#b07219"/>
<rect x="221.92601371116547" y="40" width="85.6552806988594" height="50" fill="#c22d40"/>
<rect x="307.58129441002484" y="40" width="74.94637044148753" height="50" fill="#00B4AB"/>
<rect x="382.5276648515124" y="40" width="68.0617852517464" height="50" fill="#A97BFF"/>
<rect x="450.5894501032588" y="40" width="47.836066065615576" height="50" fill="#dea584"/>
<rect x="498.42551616887437" y="40" width="46.071916112869594" height="50" fill="None"/>
<rect x="544.497432281744" y="40" width="41.315511818504575" height="50" fill="#3572A5"/>
<rect x="585.8129441002485" y="40" width="36.911137446682964" height="50" fill="#5e5086"/>
<rect x="622.7240815469314" y="40" width="36.711120445237846" height="50" fill="#000000"/>
<rect x="659.4352019921693" y="40" width="33.02280693858978" height="50" fill="#3D6117"/>
<rect x="692.458008930759" y="40" width="20.505742988153994" height="50" fill="#89e051"/>
<rect x="712.963751918913" y="40" width="16.937439682373" height="50" fill="#239dad"/>
<rect x="729.901191601286" y="40" width="16.31738697789312" height="50" fill="#ec915c"/>
<rect x="746.218578579179" y="40" width="13.605156438297255" height="50" fill="#000000"/>
<rect x="759.8237350174763" y="40" width="9.70482491011736" height="50" fill="#000080"/>
<rect x="769.5285599275937" y="40" width="8.568728341909063" height="50" fill="#000000"/>
<rect x="778.0972882695028" y="40" width="7.708655235695034" height="50" fill="#f34b7d"/>
<rect x="785.8059435051978" y="40" width="6.580559347544542" height="50" fill="#000000"/>
<rect x="792.3865028527423" y="40" width="3.5082982053474545" height="50" fill="#000000"/>
<rect x="795.8948010580898" y="40" width="2.872244140751964" height="50" fill="#427819"/>
<rect x="798.7670451988417" y="40" width="2.7402329197981827" height="50" fill="#DA3434"/>
<rect x="801.5072781186399" y="40" width="2.1441822554917165" height="50" fill="#000000"/>
<rect x="803.6514603741316" y="40" width="1.7561492726881784" height="50" fill="#000000"/>
<rect x="805.4076096468198" y="40" width="1.148097588295005" height="50" fill="#199f4b"/>
<rect x="806.5557072351148" y="40" width="0.8800748063585405" height="50" fill="#B83998"/>
<rect x="807.4357820414733" y="40" width="0.6520554247111005" height="50" fill="#000000"/>
<rect x="808.0878374661844" y="40" width="0.6240530445087832" height="50" fill="#db5855"/>
<rect x="808.7118905106931" y="40" width="0.4760404634393924" height="50" fill="#41b883"/>
<rect x="809.1879309741325" y="40" width="0.412035022976953" height="50" fill="#0050b2"/>
<rect x="809.5999659971095" y="40" width="0.4000340028902457" height="50" fill="#701516"/>
<circle cx="16" cy="116" r="6" fill="#555555" />
<text x="27" y="120" font-size="15" font-family="sans-serif" fill="#FFF">C (29.1k lines, 14.5%)</text>
<circle cx="266" cy="116" r="6" fill="#b07219" />
<text x="277" y="120" font-size="15" font-family="sans-serif" fill="#FFF">Java (23.9k lines, 12.0%)</text>
<circle cx="516" cy="116" r="6" fill="#c22d40" />
<text x="527" y="120" font-size="15" font-family="sans-serif" fill="#FFF">Scala (21.4k lines, 10.7%)</text>
<circle cx="16" cy="136" r="6" fill="#00B4AB" />
<text x="27" y="140" font-size="15" font-family="sans-serif" fill="#FFF">Dart (18.7k lines, 9.4%)</text>
<circle cx="266" cy="136" r="6" fill="#A97BFF" />
<text x="277" y="140" font-size="15" font-family="sans-serif" fill="#FFF">Kotlin (17.0k lines, 8.5%)</text>
<circle cx="516" cy="136" r="6" fill="#dea584" />
<text x="527" y="140" font-size="15" font-family="sans-serif" fill="#FFF">Rust (12.0k lines, 6.0%)</text>
<circle cx="16" cy="156" r="6" fill="None" />
<text x="27" y="160" font-size="15" font-family="sans-serif" fill="#FFF">Lean (11.5k lines, 5.8%)</text>
<circle cx="266" cy="156" r="6" fill="#3572A5" />
<text x="277" y="160" font-size="15" font-family="sans-serif" fill="#FFF">Python (10.3k lines, 5.2%)</text>
<circle cx="516" cy="156" r="6" fill="#5e5086" />
<text x="527" y="160" font-size="15" font-family="sans-serif" fill="#FFF">Haskell (9.2k lines, 4.6%)</text>
<circle cx="16" cy="176" r="6" fill="#000000" />
<text x="27" y="180" font-size="15" font-family="sans-serif" fill="#FFF">C Header (9.2k lines, 4.6%)</text>
<circle cx="266" cy="176" r="6" fill="#3D6117" />
<text x="277" y="180" font-size="15" font-family="sans-serif" fill="#FFF">TeX (8.3k lines, 4.1%)</text>
<circle cx="516" cy="176" r="6" fill="#89e051" />
<text x="527" y="180" font-size="15" font-family="sans-serif" fill="#FFF">Shell (5.1k lines, 2.6%)</text>
<circle cx="16" cy="196" r="6" fill="#239dad" />
<text x="27" y="200" font-size="15" font-family="sans-serif" fill="#FFF">Typst (4.2k lines, 2.1%)</text>
<circle cx="266" cy="196" r="6" fill="#ec915c" />
<text x="277" y="200" font-size="15" font-family="sans-serif" fill="#FFF">Zig (4.1k lines, 2.0%)</text>
<circle cx="516" cy="196" r="6" fill="#000000" />
<text x="527" y="200" font-size="15" font-family="sans-serif" fill="#FFF">Jupyter Not… (3.4k lines, 1.7%)</text>
<circle cx="16" cy="216" r="6" fill="#000080" />
<text x="27" y="220" font-size="15" font-family="sans-serif" fill="#FFF">Lua (2.4k lines, 1.2%)</text>
<circle cx="266" cy="216" r="6" fill="#000000" />
<text x="277" y="220" font-size="15" font-family="sans-serif" fill="#FFF">GNU Style A… (2.1k lines, 1.1%)</text>
<circle cx="516" cy="216" r="6" fill="#f34b7d" />
<text x="527" y="220" font-size="15" font-family="sans-serif" fill="#FFF">C++ (1.9k lines, 1.0%)</text>
<circle cx="16" cy="236" r="6" fill="#000000" />
<text x="27" y="240" font-size="15" font-family="sans-serif" fill="#FFF">Batch (1.6k lines, 0.8%)</text>
<circle cx="266" cy="236" r="6" fill="#000000" />
<text x="277" y="240" font-size="15" font-family="sans-serif" fill="#FFF">WebGPU Shad… (877 lines, 0.4%)</text>
<circle cx="516" cy="236" r="6" fill="#427819" />
<text x="527" y="240" font-size="15" font-family="sans-serif" fill="#FFF">Makefile (718 lines, 0.4%)</text>
<circle cx="16" cy="256" r="6" fill="#DA3434" />
<text x="27" y="260" font-size="15" font-family="sans-serif" fill="#FFF">CMake (685 lines, 0.3%)</text>
<circle cx="266" cy="256" r="6" fill="#000000" />
<text x="277" y="260" font-size="15" font-family="sans-serif" fill="#FFF">Cabal (536 lines, 0.3%)</text>
<circle cx="516" cy="256" r="6" fill="#000000" />
<text x="527" y="260" font-size="15" font-family="sans-serif" fill="#FFF">Templ (439 lines, 0.2%)</text>
<circle cx="16" cy="276" r="6" fill="#199f4b" />
<text x="27" y="280" font-size="15" font-family="sans-serif" fill="#FFF">Vim Script (287 lines, 0.1%)</text>
<circle cx="266" cy="276" r="6" fill="#B83998" />
<text x="277" y="280" font-size="15" font-family="sans-serif" fill="#FFF">Erlang (220 lines, 0.1%)</text>
<circle cx="516" cy="276" r="6" fill="#000000" />
<text x="527" y="280" font-size="15" font-family="sans-serif" fill="#FFF">Bitbake (163 lines, 0.1%)</text>
<circle cx="16" cy="296" r="6" fill="#db5855" />
<text x="27" y="300" font-size="15" font-family="sans-serif" fill="#FFF">Clojure (156 lines, 0.1%)</text>
<circle cx="266" cy="296" r="6" fill="#41b883" />
<text x="277" y="300" font-size="15" font-family="sans-serif" fill="#FFF">Vue (119 lines, 0.1%)</text>
<circle cx="516" cy="296" r="6" fill="#0050b2" />
<text x="527" y="300" font-size="15" font-family="sans-serif" fill="#FFF">FreeMarker (103 lines, 0.1%)</text>
<circle cx="16" cy="316" r="6" fill="#701516" />
<text x="27" y="320" font-size="15" font-family="sans-serif" fill="#FFF">Ruby (100 lines, 0.1%)</text>
</svg>