<svg width="800" height="350" xmlns="http://www.w3.org/2000/svg">
<rect x="10" y="40" width="131.32001948368242" height="50" fill="#555555"/>
<rect x="141.32001948368242" y="40" width="116.54164637116415" height="50" fill="#b07219"/>
<rect x="257.8616658548466" y="40" width="99.97564539698004" height="50" fill="#c22d40"/>
<rect x="357.83731125182663" y="40" width="89.5031660983926" height="50" fill="#A97BFF"/>
<rect x="447.3404773502192" y="40" width="62.32830004870921" height="50" fill="#00B4AB"/>
<rect x="509.6687773989284" y="40" width="44.841695080370194" height="50" fill="#5e5086"/>
<rect x="554.5104724792986" y="40" width="43.068679980516315" height="50" fill="#000000"/>
<rect x="597.579152459815" y="40" width="40.20944958597175" height="50" fill="#3D6117"/>
<rect x="637.7886020457867" y="40" width="32.605942523136875" height="50" fill="#3572A5"/>
<rect x="670.3945445689235" y="40" width="24.534827082318557" height="50" fill="#89e051"/>
<rect x="694.929371651242" y="40" width="23.745737944471504" height="50" fill="None"/>
<rect x="718.6751095957136" y="40" width="12.445202143205066" height="50" fill="#239dad"/>
<rect x="731.1203117389186" y="40" width="11.734047735021921" height="50" fill="#000080"/>
<rect x="742.8543594739406" y="40" width="10.433511933755478" height="50" fill="#000000"/>
<rect x="753.287871407696" y="40" width="9.04042864101315" height="50" fill="#dea584"/>
<rect x="762.3283000487091" y="40" width="8.046760837798344" height="50" fill="#000000"/>
<rect x="770.3750608865075" y="40" width="7.627861665854846" height="50" fill="#f34b7d"/>
<rect x="778.0029225523624" y="40" width="7.627861665854846" height="50" fill="#e38c00"/>
<rect x="785.6307842182173" y="40" width="4.20847540185095" height="50" fill="#ec915c"/>
<rect x="789.8392596200682" y="40" width="3.7018996590355577" height="50" fill="#000000"/>
<rect x="793.5411592791038" y="40" width="3.3365806137359963" height="50" fill="#DA3434"/>
<rect x="796.8777398928398" y="40" width="2.610813443740867" height="50" fill="#000000"/>
<rect x="799.4885533365807" y="40" width="2.420847540185095" height="50" fill="#427819"/>
<rect x="801.9094008767659" y="40" width="2.138334145153434" height="50" fill="#000000"/>
<rect x="804.0477350219193" y="40" width="1.5294690696541648" height="50" fill="#384d54"/>
<rect x="805.5772040915734" y="40" width="1.071602532878714" height="50" fill="#B83998"/>
<rect x="806.6488066244522" y="40" width="0.8085728202630297" height="50" fill="#199f4b"/>
<rect x="807.4573794447152" y="40" width="0.7939600584510473" height="50" fill="#000000"/>
<rect x="808.2513395031663" y="40" width="0.7598636142230881" height="50" fill="#db5855"/>
<rect x="809.0112031173893" y="40" width="0.501704822211398" height="50" fill="#0050b2"/>
<rect x="809.5129079396007" y="40" width="0.4870920603994155" height="50" fill="#701516"/>
<circle cx="16" cy="116" r="6" fill="#555555" />
<text x="27" y="120" font-size="15" font-family="sans-serif" fill="#FFF">C (27.0k lines, 16.4%)</text>
<circle cx="266" cy="116" r="6" fill="#b07219" />
<text x="277" y="120" font-size="15" font-family="sans-serif" fill="#FFF">Java (23.9k lines, 14.6%)</text>
<circle cx="516" cy="116" r="6" fill="#c22d40" />
<text x="527" y="120" font-size="15" font-family="sans-serif" fill="#FFF">Scala (20.5k lines, 12.5%)</text>
<circle cx="16" cy="136" r="6" fill="#A97BFF" />
<text x="27" y="140" font-size="15" font-family="sans-serif" fill="#FFF">Kotlin (18.4k lines, 11.2%)</text>
<circle cx="266" cy="136" r="6" fill="#00B4AB" />
<text x="277" y="140" font-size="15" font-family="sans-serif" fill="#FFF">Dart (12.8k lines, 7.8%)</text>
<circle cx="516" cy="136" r="6" fill="#5e5086" />
<text x="527" y="140" font-size="15" font-family="sans-serif" fill="#FFF">Haskell (9.2k lines, 5.6%)</text>
<circle cx="16" cy="156" r="6" fill="#000000" />
<text x="27" y="160" font-size="15" font-family="sans-serif" fill="#FFF">C Header (8.8k lines, 5.4%)</text>
<circle cx="266" cy="156" r="6" fill="#3D6117" />
<text x="277" y="160" font-size="15" font-family="sans-serif" fill="#FFF">TeX (8.3k lines, 5.0%)</text>
<circle cx="516" cy="156" r="6" fill="#3572A5" />
<text x="527" y="160" font-size="15" font-family="sans-serif" fill="#FFF">Python (6.7k lines, 4.1%)</text>
<circle cx="16" cy="176" r="6" fill="#89e051" />
<text x="27" y="180" font-size="15" font-family="sans-serif" fill="#FFF">Shell (5.0k lines, 3.1%)</text>
<circle cx="266" cy="176" r="6" fill="None" />
<text x="277" y="180" font-size="15" font-family="sans-serif" fill="#FFF">Lean (4.9k lines, 3.0%)</text>
<circle cx="516" cy="176" r="6" fill="#239dad" />
<text x="527" y="180" font-size="15" font-family="sans-serif" fill="#FFF">Typst (2.6k lines, 1.6%)</text>
<circle cx="16" cy="196" r="6" fill="#000080" />
<text x="27" y="200" font-size="15" font-family="sans-serif" fill="#FFF">Lua (2.4k lines, 1.5%)</text>
<circle cx="266" cy="196" r="6" fill="#000000" />
<text x="277" y="200" font-size="15" font-family="sans-serif" fill="#FFF">GNU Style A… (2.1k lines, 1.3%)</text>
<circle cx="516" cy="196" r="6" fill="#dea584" />
<text x="527" y="200" font-size="15" font-family="sans-serif" fill="#FFF">Rust (1.9k lines, 1.1%)</text>
<circle cx="16" cy="216" r="6" fill="#000000" />
<text x="27" y="220" font-size="15" font-family="sans-serif" fill="#FFF">Batch (1.7k lines, 1.0%)</text>
<circle cx="266" cy="216" r="6" fill="#f34b7d" />
<text x="277" y="220" font-size="15" font-family="sans-serif" fill="#FFF">C++ (1.6k lines, 1.0%)</text>
<circle cx="516" cy="216" r="6" fill="#e38c00" />
<text x="527" y="220" font-size="15" font-family="sans-serif" fill="#FFF">SQL (1.6k lines, 1.0%)</text>
<circle cx="16" cy="236" r="6" fill="#ec915c" />
<text x="27" y="240" font-size="15" font-family="sans-serif" fill="#FFF">Zig (864 lines, 0.5%)</text>
<circle cx="266" cy="236" r="6" fill="#000000" />
<text x="277" y="240" font-size="15" font-family="sans-serif" fill="#FFF">WebGPU Shad… (760 lines, 0.5%)</text>
<circle cx="516" cy="236" r="6" fill="#DA3434" />
<text x="527" y="240" font-size="15" font-family="sans-serif" fill="#FFF">CMake (685 lines, 0.4%)</text>
<circle cx="16" cy="256" r="6" fill="#000000" />
<text x="27" y="260" font-size="15" font-family="sans-serif" fill="#FFF">Cabal (536 lines, 0.3%)</text>
<circle cx="266" cy="256" r="6" fill="#427819" />
<text x="277" y="260" font-size="15" font-family="sans-serif" fill="#FFF">Makefile (497 lines, 0.3%)</text>
<circle cx="516" cy="256" r="6" fill="#000000" />
<text x="527" y="260" font-size="15" font-family="sans-serif" fill="#FFF">Templ (439 lines, 0.3%)</text>
<circle cx="16" cy="276" r="6" fill="#384d54" />
<text x="27" y="280" font-size="15" font-family="sans-serif" fill="#FFF">Dockerfile (314 lines, 0.2%)</text>
<circle cx="266" cy="276" r="6" fill="#B83998" />
<text x="277" y="280" font-size="15" font-family="sans-serif" fill="#FFF">Erlang (220 lines, 0.1%)</text>
<circle cx="516" cy="276" r="6" fill="#199f4b" />
<text x="527" y="280" font-size="15" font-family="sans-serif" fill="#FFF">Vim Script (166 lines, 0.1%)</text>
<circle cx="16" cy="296" r="6" fill="#000000" />
<text x="27" y="300" font-size="15" font-family="sans-serif" fill="#FFF">Bitbake (163 lines, 0.1%)</text>
<circle cx="266" cy="296" r="6" fill="#db5855" />
<text x="277" y="300" font-size="15" font-family="sans-serif" fill="#FFF">Clojure (156 lines, 0.1%)</text>
<circle cx="516" cy="296" r="6" fill="#0050b2" />
<text x="527" y="300" font-size="15" font-family="sans-serif" fill="#FFF">FreeMarker (103 lines, 0.1%)</text>
<circle cx="16" cy="316" r="6" fill="#701516" />
<text x="27" y="320" font-size="15" font-family="sans-serif" fill="#FFF">Ruby (100 lines, 0.1%)</text>
</svg>