<svg width="800" height="330" xmlns="http://www.w3.org/2000/svg">
<rect width="800" height="330" fill="#212830"/>
<rect x="10" y="40" width="138.50702234241987" height="50" fill="#555555"/>
<rect x="148.50702234241987" y="40" width="117.64836042902363" height="50" fill="#b07219"/>
<rect x="266.1553827714435" y="40" width="100.92504379360153" height="50" fill="#c22d40"/>
<rect x="367.08042656504506" y="40" width="65.7229785795507" height="50" fill="#A97BFF"/>
<rect x="432.8034051445958" y="40" width="60.392759457881304" height="50" fill="#00B4AB"/>
<rect x="493.1961646024771" y="40" width="48.207996557976585" height="50" fill="None"/>
<rect x="541.4041611604537" y="40" width="45.267525123697716" height="50" fill="#5e5086"/>
<rect x="586.6716862841514" y="40" width="44.75613878730139" height="50" fill="#000000"/>
<rect x="631.4278250714528" y="40" width="40.59129045145825" height="50" fill="#3D6117"/>
<rect x="672.0191155229111" y="40" width="28.46553366729156" height="50" fill="#3572A5"/>
<rect x="700.4846491902026" y="40" width="23.327084421770795" height="50" fill="#89e051"/>
<rect x="723.8117336119734" y="40" width="15.19899197885614" height="50" fill="#239dad"/>
<rect x="739.0107255908296" y="40" width="11.909401026460555" height="50" fill="#000080"/>
<rect x="750.9201266172901" y="40" width="10.532591659239682" height="50" fill="#000000"/>
<rect x="761.4527182765297" y="40" width="9.12627923414979" height="50" fill="#dea584"/>
<rect x="770.5789975106795" y="40" width="7.774055748486432" height="50" fill="#000000"/>
<rect x="778.3530532591659" y="40" width="7.700298103813886" height="50" fill="#f34b7d"/>
<rect x="786.0533513629798" y="40" width="4.248440333138695" height="50" fill="#ec915c"/>
<rect x="790.3017916961185" y="40" width="3.73705399674237" height="50" fill="#000000"/>
<rect x="794.0388456928608" y="40" width="3.368265773379637" height="50" fill="#DA3434"/>
<rect x="797.4071114662405" y="40" width="2.7388672055072374" height="50" fill="#427819"/>
<rect x="800.1459786717478" y="40" width="2.635606502965672" height="50" fill="#000000"/>
<rect x="802.7815851747134" y="40" width="2.1586404007498694" height="50" fill="#000000"/>
<rect x="804.9402255754633" y="40" width="1.4112296014013956" height="50" fill="#199f4b"/>
<rect x="806.3514551768646" y="40" width="1.0817787885306862" height="50" fill="#B83998"/>
<rect x="807.4332339653953" y="40" width="0.8014997387750085" height="50" fill="#000000"/>
<rect x="808.2347337041703" y="40" width="0.7670795045944865" height="50" fill="#db5855"/>
<rect x="809.0018132087647" y="40" width="0.5064691600848212" height="50" fill="#0050b2"/>
<rect x="809.5082823688496" y="40" width="0.4917176311503119" height="50" fill="#701516"/>
<circle cx="16" cy="116" r="6" fill="#555555" />
<text x="27" y="120" font-size="15" font-family="sans-serif" fill="#FFF">C (28.2k lines, 17.3%)</text>
<circle cx="266" cy="116" r="6" fill="#b07219" />
<text x="277" y="120" font-size="15" font-family="sans-serif" fill="#FFF">Java (23.9k lines, 14.7%)</text>
<circle cx="516" cy="116" r="6" fill="#c22d40" />
<text x="527" y="120" font-size="15" font-family="sans-serif" fill="#FFF">Scala (20.5k lines, 12.6%)</text>
<circle cx="16" cy="136" r="6" fill="#A97BFF" />
<text x="27" y="140" font-size="15" font-family="sans-serif" fill="#FFF">Kotlin (13.4k lines, 8.2%)</text>
<circle cx="266" cy="136" r="6" fill="#00B4AB" />
<text x="277" y="140" font-size="15" font-family="sans-serif" fill="#FFF">Dart (12.3k lines, 7.5%)</text>
<circle cx="516" cy="136" r="6" fill="None" />
<text x="527" y="140" font-size="15" font-family="sans-serif" fill="#FFF">Lean (9.8k lines, 6.0%)</text>
<circle cx="16" cy="156" r="6" fill="#5e5086" />
<text x="27" y="160" font-size="15" font-family="sans-serif" fill="#FFF">Haskell (9.2k lines, 5.7%)</text>
<circle cx="266" cy="156" r="6" fill="#000000" />
<text x="277" y="160" font-size="15" font-family="sans-serif" fill="#FFF">C Header (9.1k lines, 5.6%)</text>
<circle cx="516" cy="156" r="6" fill="#3D6117" />
<text x="527" y="160" font-size="15" font-family="sans-serif" fill="#FFF">TeX (8.3k lines, 5.1%)</text>
<circle cx="16" cy="176" r="6" fill="#3572A5" />
<text x="27" y="180" font-size="15" font-family="sans-serif" fill="#FFF">Python (5.8k lines, 3.6%)</text>
<circle cx="266" cy="176" r="6" fill="#89e051" />
<text x="277" y="180" font-size="15" font-family="sans-serif" fill="#FFF">Shell (4.7k lines, 2.9%)</text>
<circle cx="516" cy="176" r="6" fill="#239dad" />
<text x="527" y="180" font-size="15" font-family="sans-serif" fill="#FFF">Typst (3.1k lines, 1.9%)</text>
<circle cx="16" cy="196" r="6" fill="#000080" />
<text x="27" y="200" font-size="15" font-family="sans-serif" fill="#FFF">Lua (2.4k lines, 1.5%)</text>
<circle cx="266" cy="196" r="6" fill="#000000" />
<text x="277" y="200" font-size="15" font-family="sans-serif" fill="#FFF">GNU Style A… (2.1k lines, 1.3%)</text>
<circle cx="516" cy="196" r="6" fill="#dea584" />
<text x="527" y="200" font-size="15" font-family="sans-serif" fill="#FFF">Rust (1.9k lines, 1.1%)</text>
<circle cx="16" cy="216" r="6" fill="#000000" />
<text x="27" y="220" font-size="15" font-family="sans-serif" fill="#FFF">Batch (1.6k lines, 1.0%)</text>
<circle cx="266" cy="216" r="6" fill="#f34b7d" />
<text x="277" y="220" font-size="15" font-family="sans-serif" fill="#FFF">C++ (1.6k lines, 1.0%)</text>
<circle cx="516" cy="216" r="6" fill="#ec915c" />
<text x="527" y="220" font-size="15" font-family="sans-serif" fill="#FFF">Zig (864 lines, 0.5%)</text>
<circle cx="16" cy="236" r="6" fill="#000000" />
<text x="27" y="240" font-size="15" font-family="sans-serif" fill="#FFF">WebGPU Shad… (760 lines, 0.5%)</text>
<circle cx="266" cy="236" r="6" fill="#DA3434" />
<text x="277" y="240" font-size="15" font-family="sans-serif" fill="#FFF">CMake (685 lines, 0.4%)</text>
<circle cx="516" cy="236" r="6" fill="#427819" />
<text x="527" y="240" font-size="15" font-family="sans-serif" fill="#FFF">Makefile (557 lines, 0.3%)</text>
<circle cx="16" cy="256" r="6" fill="#000000" />
<text x="27" y="260" font-size="15" font-family="sans-serif" fill="#FFF">Cabal (536 lines, 0.3%)</text>
<circle cx="266" cy="256" r="6" fill="#000000" />
<text x="277" y="260" font-size="15" font-family="sans-serif" fill="#FFF">Templ (439 lines, 0.3%)</text>
<circle cx="516" cy="256" r="6" fill="#199f4b" />
<text x="527" y="260" font-size="15" font-family="sans-serif" fill="#FFF">Vim Script (287 lines, 0.2%)</text>
<circle cx="16" cy="276" r="6" fill="#B83998" />
<text x="27" y="280" font-size="15" font-family="sans-serif" fill="#FFF">Erlang (220 lines, 0.1%)</text>
<circle cx="266" cy="276" r="6" fill="#000000" />
<text x="277" y="280" font-size="15" font-family="sans-serif" fill="#FFF">Bitbake (163 lines, 0.1%)</text>
<circle cx="516" cy="276" r="6" fill="#db5855" />
<text x="527" y="280" font-size="15" font-family="sans-serif" fill="#FFF">Clojure (156 lines, 0.1%)</text>
<circle cx="16" cy="296" r="6" fill="#0050b2" />
<text x="27" y="300" font-size="15" font-family="sans-serif" fill="#FFF">FreeMarker (103 lines, 0.1%)</text>
<circle cx="266" cy="296" r="6" fill="#701516" />
<text x="277" y="300" font-size="15" font-family="sans-serif" fill="#FFF">Ruby (100 lines, 0.1%)</text>
</svg>