<svg width="800" height="350" xmlns="http://www.w3.org/2000/svg">
<rect width="800" height="350" fill="#212830"/>
<rect x="10" y="40" width="116.223176824176" height="50" fill="#555555"/>
<rect x="126.223176824176" y="40" width="95.71979376597139" height="50" fill="#b07219"/>
<rect x="221.94297059014738" y="40" width="85.6621342521516" height="50" fill="#c22d40"/>
<rect x="307.605104842299" y="40" width="74.95236714057819" height="50" fill="#00B4AB"/>
<rect x="382.5574719828772" y="40" width="68.00322053138768" height="50" fill="#A97BFF"/>
<rect x="450.5606925142649" y="40" width="47.8398935824411" height="50" fill="#dea584"/>
<rect x="498.400586096706" y="40" width="46.07560247440828" height="50" fill="None"/>
<rect x="544.4761885711142" y="40" width="41.31881760490481" height="50" fill="#3572A5"/>
<rect x="585.795006176019" y="40" width="36.914090824986125" height="50" fill="#5e5086"/>
<rect x="622.7090970010051" y="40" width="36.71405781954022" height="50" fill="#000000"/>
<rect x="659.4231548205454" y="40" width="33.02544919911786" height="50" fill="#3D6117"/>
<rect x="692.4486040196632" y="40" width="20.507383718313523" height="50" fill="#89e051"/>
<rect x="712.9559877379768" y="40" width="16.93879490115869" height="50" fill="#239dad"/>
<rect x="729.8947826391354" y="40" width="16.318692584276405" height="50" fill="#ec915c"/>
<rect x="746.2134752234118" y="40" width="13.60624503043002" height="50" fill="#000000"/>
<rect x="759.8197202538419" y="40" width="9.705601424234999" height="50" fill="#000080"/>
<rect x="769.5253216780768" y="40" width="8.569413953302295" height="50" fill="#000000"/>
<rect x="778.0947356313791" y="40" width="7.709272029884931" height="50" fill="#f34b7d"/>
<rect x="785.804007661264" y="40" width="6.581085879170064" height="50" fill="#000000"/>
<rect x="792.385093540434" y="40" width="3.5085789155210607" height="50" fill="#000000"/>
<rect x="795.8936724559551" y="40" width="2.8724739582031034" height="50" fill="#427819"/>
<rect x="798.7661464141582" y="40" width="2.7404521746088104" height="50" fill="#DA3434"/>
<rect x="801.506598588767" y="40" width="2.144353818380033" height="50" fill="#000000"/>
<rect x="803.6509524071471" y="40" width="1.7562897878149895" height="50" fill="#000000"/>
<rect x="805.4072421949621" y="40" width="1.1481894512594577" height="50" fill="#199f4b"/>
<rect x="806.5554316462216" y="40" width="0.8801452239619537" height="50" fill="#B83998"/>
<rect x="807.4355768701835" y="40" width="0.6521075977536293" height="50" fill="#000000"/>
<rect x="808.0876844679372" y="40" width="0.6241029769912035" height="50" fill="#db5855"/>
<rect x="808.7117874449284" y="40" width="0.47607855296123863" height="50" fill="#41b883"/>
<rect x="809.1878659978896" y="40" width="0.41206799121855103" height="50" fill="#0050b2"/>
<rect x="809.5999339891082" y="40" width="0.40006601089179716" height="50" fill="#701516"/>
<circle cx="16" cy="116" r="6" fill="#555555" />
<text x="27" y="120" font-size="15" font-family="sans-serif" fill="#FFF">C (29.1k lines, 14.5%)</text>
<circle cx="266" cy="116" r="6" fill="#b07219" />
<text x="277" y="120" font-size="15" font-family="sans-serif" fill="#FFF">Java (23.9k lines, 12.0%)</text>
<circle cx="516" cy="116" r="6" fill="#c22d40" />
<text x="527" y="120" font-size="15" font-family="sans-serif" fill="#FFF">Scala (21.4k lines, 10.7%)</text>
<circle cx="16" cy="136" r="6" fill="#00B4AB" />
<text x="27" y="140" font-size="15" font-family="sans-serif" fill="#FFF">Dart (18.7k lines, 9.4%)</text>
<circle cx="266" cy="136" r="6" fill="#A97BFF" />
<text x="277" y="140" font-size="15" font-family="sans-serif" fill="#FFF">Kotlin (17.0k lines, 8.5%)</text>
<circle cx="516" cy="136" r="6" fill="#dea584" />
<text x="527" y="140" font-size="15" font-family="sans-serif" fill="#FFF">Rust (12.0k lines, 6.0%)</text>
<circle cx="16" cy="156" r="6" fill="None" />
<text x="27" y="160" font-size="15" font-family="sans-serif" fill="#FFF">Lean (11.5k lines, 5.8%)</text>
<circle cx="266" cy="156" r="6" fill="#3572A5" />
<text x="277" y="160" font-size="15" font-family="sans-serif" fill="#FFF">Python (10.3k lines, 5.2%)</text>
<circle cx="516" cy="156" r="6" fill="#5e5086" />
<text x="527" y="160" font-size="15" font-family="sans-serif" fill="#FFF">Haskell (9.2k lines, 4.6%)</text>
<circle cx="16" cy="176" r="6" fill="#000000" />
<text x="27" y="180" font-size="15" font-family="sans-serif" fill="#FFF">C Header (9.2k lines, 4.6%)</text>
<circle cx="266" cy="176" r="6" fill="#3D6117" />
<text x="277" y="180" font-size="15" font-family="sans-serif" fill="#FFF">TeX (8.3k lines, 4.1%)</text>
<circle cx="516" cy="176" r="6" fill="#89e051" />
<text x="527" y="180" font-size="15" font-family="sans-serif" fill="#FFF">Shell (5.1k lines, 2.6%)</text>
<circle cx="16" cy="196" r="6" fill="#239dad" />
<text x="27" y="200" font-size="15" font-family="sans-serif" fill="#FFF">Typst (4.2k lines, 2.1%)</text>
<circle cx="266" cy="196" r="6" fill="#ec915c" />
<text x="277" y="200" font-size="15" font-family="sans-serif" fill="#FFF">Zig (4.1k lines, 2.0%)</text>
<circle cx="516" cy="196" r="6" fill="#000000" />
<text x="527" y="200" font-size="15" font-family="sans-serif" fill="#FFF">Jupyter Not… (3.4k lines, 1.7%)</text>
<circle cx="16" cy="216" r="6" fill="#000080" />
<text x="27" y="220" font-size="15" font-family="sans-serif" fill="#FFF">Lua (2.4k lines, 1.2%)</text>
<circle cx="266" cy="216" r="6" fill="#000000" />
<text x="277" y="220" font-size="15" font-family="sans-serif" fill="#FFF">GNU Style A… (2.1k lines, 1.1%)</text>
<circle cx="516" cy="216" r="6" fill="#f34b7d" />
<text x="527" y="220" font-size="15" font-family="sans-serif" fill="#FFF">C++ (1.9k lines, 1.0%)</text>
<circle cx="16" cy="236" r="6" fill="#000000" />
<text x="27" y="240" font-size="15" font-family="sans-serif" fill="#FFF">Batch (1.6k lines, 0.8%)</text>
<circle cx="266" cy="236" r="6" fill="#000000" />
<text x="277" y="240" font-size="15" font-family="sans-serif" fill="#FFF">WebGPU Shad… (877 lines, 0.4%)</text>
<circle cx="516" cy="236" r="6" fill="#427819" />
<text x="527" y="240" font-size="15" font-family="sans-serif" fill="#FFF">Makefile (718 lines, 0.4%)</text>
<circle cx="16" cy="256" r="6" fill="#DA3434" />
<text x="27" y="260" font-size="15" font-family="sans-serif" fill="#FFF">CMake (685 lines, 0.3%)</text>
<circle cx="266" cy="256" r="6" fill="#000000" />
<text x="277" y="260" font-size="15" font-family="sans-serif" fill="#FFF">Cabal (536 lines, 0.3%)</text>
<circle cx="516" cy="256" r="6" fill="#000000" />
<text x="527" y="260" font-size="15" font-family="sans-serif" fill="#FFF">Templ (439 lines, 0.2%)</text>
<circle cx="16" cy="276" r="6" fill="#199f4b" />
<text x="27" y="280" font-size="15" font-family="sans-serif" fill="#FFF">Vim Script (287 lines, 0.1%)</text>
<circle cx="266" cy="276" r="6" fill="#B83998" />
<text x="277" y="280" font-size="15" font-family="sans-serif" fill="#FFF">Erlang (220 lines, 0.1%)</text>
<circle cx="516" cy="276" r="6" fill="#000000" />
<text x="527" y="280" font-size="15" font-family="sans-serif" fill="#FFF">Bitbake (163 lines, 0.1%)</text>
<circle cx="16" cy="296" r="6" fill="#db5855" />
<text x="27" y="300" font-size="15" font-family="sans-serif" fill="#FFF">Clojure (156 lines, 0.1%)</text>
<circle cx="266" cy="296" r="6" fill="#41b883" />
<text x="277" y="300" font-size="15" font-family="sans-serif" fill="#FFF">Vue (119 lines, 0.1%)</text>
<circle cx="516" cy="296" r="6" fill="#0050b2" />
<text x="527" y="300" font-size="15" font-family="sans-serif" fill="#FFF">FreeMarker (103 lines, 0.1%)</text>
<circle cx="16" cy="316" r="6" fill="#701516" />
<text x="27" y="320" font-size="15" font-family="sans-serif" fill="#FFF">Ruby (100 lines, 0.1%)</text>
</svg>