<svg width="800" height="330" xmlns="http://www.w3.org/2000/svg">
<rect width="800" height="330" fill="#212830"/>
<rect x="10" y="40" width="127.86795048143054" height="50" fill="#555555"/>
<rect x="137.86795048143054" y="40" width="105.31389270976617" height="50" fill="#b07219"/>
<rect x="243.18184319119672" y="40" width="90.34387895460799" height="50" fill="#c22d40"/>
<rect x="333.5257221458047" y="40" width="65.68143053645117" height="50" fill="#00B4AB"/>
<rect x="399.20715268225587" y="40" width="59.75680880330124" height="50" fill="#A97BFF"/>
<rect x="458.9639614855571" y="40" width="50.69381017881706" height="50" fill="None"/>
<rect x="509.65777166437414" y="40" width="45.46024759284732" height="50" fill="#3572A5"/>
<rect x="555.1180192572215" y="40" width="40.614030261348006" height="50" fill="#5e5086"/>
<rect x="595.7320495185695" y="40" width="40.3939477303989" height="50" fill="#000000"/>
<rect x="636.1259972489684" y="40" width="36.33562585969739" height="50" fill="#3D6117"/>
<rect x="672.4616231086658" y="40" width="27.413480055020635" height="50" fill="#dea584"/>
<rect x="699.8751031636864" y="40" width="20.951856946354884" height="50" fill="#89e051"/>
<rect x="720.8269601100412" y="40" width="18.636588720770288" height="50" fill="#239dad"/>
<rect x="739.4635488308115" y="40" width="14.970013755158185" height="50" fill="#000000"/>
<rect x="754.4335625859698" y="40" width="10.678404401650619" height="50" fill="#000080"/>
<rect x="765.1119669876203" y="40" width="9.428335625859697" height="50" fill="#000000"/>
<rect x="774.5403026134801" y="40" width="6.959009628610729" height="50" fill="#000000"/>
<rect x="781.4993122420908" y="40" width="6.892984869325997" height="50" fill="#f34b7d"/>
<rect x="788.3922971114168" y="40" width="3.8030261348005503" height="50" fill="#ec915c"/>
<rect x="792.1953232462174" y="40" width="3.34525447042641" height="50" fill="#000000"/>
<rect x="795.5405777166438" y="40" width="3.0151306740027506" height="50" fill="#DA3434"/>
<rect x="798.5557083906466" y="40" width="2.6233837689133424" height="50" fill="#427819"/>
<rect x="801.1790921595599" y="40" width="2.3592847317744154" height="50" fill="#000000"/>
<rect x="803.5383768913343" y="40" width="1.9323246217331498" height="50" fill="#000000"/>
<rect x="805.4707015130675" y="40" width="1.263273727647868" height="50" fill="#199f4b"/>
<rect x="806.7339752407154" y="40" width="0.968363136176066" height="50" fill="#B83998"/>
<rect x="807.7023383768915" y="40" width="0.7174690508940853" height="50" fill="#000000"/>
<rect x="808.4198074277856" y="40" width="0.6866574965612106" height="50" fill="#db5855"/>
<rect x="809.1064649243468" y="40" width="0.4533700137551582" height="50" fill="#0050b2"/>
<rect x="809.559834938102" y="40" width="0.4401650618982118" height="50" fill="#701516"/>
<circle cx="16" cy="116" r="6" fill="#555555" />
<text x="27" y="120" font-size="15" font-family="sans-serif" fill="#FFF">C (29.1k lines, 16.0%)</text>
<circle cx="266" cy="116" r="6" fill="#b07219" />
<text x="277" y="120" font-size="15" font-family="sans-serif" fill="#FFF">Java (23.9k lines, 13.2%)</text>
<circle cx="516" cy="116" r="6" fill="#c22d40" />
<text x="527" y="120" font-size="15" font-family="sans-serif" fill="#FFF">Scala (20.5k lines, 11.3%)</text>
<circle cx="16" cy="136" r="6" fill="#00B4AB" />
<text x="27" y="140" font-size="15" font-family="sans-serif" fill="#FFF">Dart (14.9k lines, 8.2%)</text>
<circle cx="266" cy="136" r="6" fill="#A97BFF" />
<text x="277" y="140" font-size="15" font-family="sans-serif" fill="#FFF">Kotlin (13.6k lines, 7.5%)</text>
<circle cx="516" cy="136" r="6" fill="None" />
<text x="527" y="140" font-size="15" font-family="sans-serif" fill="#FFF">Lean (11.5k lines, 6.3%)</text>
<circle cx="16" cy="156" r="6" fill="#3572A5" />
<text x="27" y="160" font-size="15" font-family="sans-serif" fill="#FFF">Python (10.3k lines, 5.7%)</text>
<circle cx="266" cy="156" r="6" fill="#5e5086" />
<text x="277" y="160" font-size="15" font-family="sans-serif" fill="#FFF">Haskell (9.2k lines, 5.1%)</text>
<circle cx="516" cy="156" r="6" fill="#000000" />
<text x="527" y="160" font-size="15" font-family="sans-serif" fill="#FFF">C Header (9.2k lines, 5.0%)</text>
<circle cx="16" cy="176" r="6" fill="#3D6117" />
<text x="27" y="180" font-size="15" font-family="sans-serif" fill="#FFF">TeX (8.3k lines, 4.5%)</text>
<circle cx="266" cy="176" r="6" fill="#dea584" />
<text x="277" y="180" font-size="15" font-family="sans-serif" fill="#FFF">Rust (6.2k lines, 3.4%)</text>
<circle cx="516" cy="176" r="6" fill="#89e051" />
<text x="527" y="180" font-size="15" font-family="sans-serif" fill="#FFF">Shell (4.8k lines, 2.6%)</text>
<circle cx="16" cy="196" r="6" fill="#239dad" />
<text x="27" y="200" font-size="15" font-family="sans-serif" fill="#FFF">Typst (4.2k lines, 2.3%)</text>
<circle cx="266" cy="196" r="6" fill="#000000" />
<text x="277" y="200" font-size="15" font-family="sans-serif" fill="#FFF">Jupyter Not… (3.4k lines, 1.9%)</text>
<circle cx="516" cy="196" r="6" fill="#000080" />
<text x="527" y="200" font-size="15" font-family="sans-serif" fill="#FFF">Lua (2.4k lines, 1.3%)</text>
<circle cx="16" cy="216" r="6" fill="#000000" />
<text x="27" y="220" font-size="15" font-family="sans-serif" fill="#FFF">GNU Style A… (2.1k lines, 1.2%)</text>
<circle cx="266" cy="216" r="6" fill="#000000" />
<text x="277" y="220" font-size="15" font-family="sans-serif" fill="#FFF">Batch (1.6k lines, 0.9%)</text>
<circle cx="516" cy="216" r="6" fill="#f34b7d" />
<text x="527" y="220" font-size="15" font-family="sans-serif" fill="#FFF">C++ (1.6k lines, 0.9%)</text>
<circle cx="16" cy="236" r="6" fill="#ec915c" />
<text x="27" y="240" font-size="15" font-family="sans-serif" fill="#FFF">Zig (864 lines, 0.5%)</text>
<circle cx="266" cy="236" r="6" fill="#000000" />
<text x="277" y="240" font-size="15" font-family="sans-serif" fill="#FFF">WebGPU Shad… (760 lines, 0.4%)</text>
<circle cx="516" cy="236" r="6" fill="#DA3434" />
<text x="527" y="240" font-size="15" font-family="sans-serif" fill="#FFF">CMake (685 lines, 0.4%)</text>
<circle cx="16" cy="256" r="6" fill="#427819" />
<text x="27" y="260" font-size="15" font-family="sans-serif" fill="#FFF">Makefile (596 lines, 0.3%)</text>
<circle cx="266" cy="256" r="6" fill="#000000" />
<text x="277" y="260" font-size="15" font-family="sans-serif" fill="#FFF">Cabal (536 lines, 0.3%)</text>
<circle cx="516" cy="256" r="6" fill="#000000" />
<text x="527" y="260" font-size="15" font-family="sans-serif" fill="#FFF">Templ (439 lines, 0.2%)</text>
<circle cx="16" cy="276" r="6" fill="#199f4b" />
<text x="27" y="280" font-size="15" font-family="sans-serif" fill="#FFF">Vim Script (287 lines, 0.2%)</text>
<circle cx="266" cy="276" r="6" fill="#B83998" />
<text x="277" y="280" font-size="15" font-family="sans-serif" fill="#FFF">Erlang (220 lines, 0.1%)</text>
<circle cx="516" cy="276" r="6" fill="#000000" />
<text x="527" y="280" font-size="15" font-family="sans-serif" fill="#FFF">Bitbake (163 lines, 0.1%)</text>
<circle cx="16" cy="296" r="6" fill="#db5855" />
<text x="27" y="300" font-size="15" font-family="sans-serif" fill="#FFF">Clojure (156 lines, 0.1%)</text>
<circle cx="266" cy="296" r="6" fill="#0050b2" />
<text x="277" y="300" font-size="15" font-family="sans-serif" fill="#FFF">FreeMarker (103 lines, 0.1%)</text>
<circle cx="516" cy="296" r="6" fill="#701516" />
<text x="527" y="300" font-size="15" font-family="sans-serif" fill="#FFF">Ruby (100 lines, 0.1%)</text>
</svg>