<svg width="800" height="370" xmlns="http://www.w3.org/2000/svg">
<rect width="800" height="370" fill="#212830"/>
<rect x="10" y="40" width="467.4915335494929" height="50" fill="#3572A5"/>
<rect x="477.4915335494929" y="40" width="90.49720909023732" height="50" fill="#f34b7d"/>
<rect x="567.9887426397302" y="40" width="57.92475988443452" height="50" fill="#dea584"/>
<rect x="625.9135025241646" y="40" width="27.969295486782602" height="50" fill="#3D6117"/>
<rect x="653.8827980109472" y="40" width="21.208390932832526" height="50" fill="#555555"/>
<rect x="675.0911889437798" y="40" width="19.034058651459798" height="50" fill="#89e051"/>
<rect x="694.1252475952396" y="40" width="17.24902989526654" height="50" fill="#b07219"/>
<rect x="711.3742774905061" y="40" width="16.61172560589867" height="50" fill="None"/>
<rect x="727.9860030964047" y="40" width="15.43660570581991" height="50" fill="#c22d40"/>
<rect x="743.4226088022247" y="40" width="13.5066695263654" height="50" fill="#00B4AB"/>
<rect x="756.92927832859" y="40" width="12.813132505582722" height="50" fill="#A97BFF"/>
<rect x="769.7424108341728" y="40" width="11.284034770572259" height="50" fill="#000000"/>
<rect x="781.026445604745" y="40" width="6.652043753390635" height="50" fill="#5e5086"/>
<rect x="787.6784893581357" y="40" width="4.7502239396435355" height="50" fill="#239dad"/>
<rect x="792.4287132977793" y="40" width="4.31117607513558" height="50" fill="#ec915c"/>
<rect x="796.7398893729148" y="40" width="2.5016356155050943" height="50" fill="#000000"/>
<rect x="799.2415249884199" y="40" width="2.2363324724198277" height="50" fill="#000080"/>
<rect x="801.4778574608397" y="40" width="1.5442373165452197" height="50" fill="#000000"/>
<rect x="803.022094777385" y="40" width="1.2385619560339343" height="50" fill="#000000"/>
<rect x="804.2606567334188" y="40" width="0.8744910667457289" height="50" fill="#DA3434"/>
<rect x="805.1351478001645" y="40" width="0.7403976302950235" height="50" fill="#384d54"/>
<rect x="805.8755454304595" y="40" width="0.6711881147075629" height="50" fill="#41b883"/>
<rect x="806.5467335451671" y="40" width="0.659653195442986" height="50" fill="#000000"/>
<rect x="807.20638674061" y="40" width="0.6445136139082289" height="50" fill="#427819"/>
<rect x="807.8509003545182" y="40" width="0.632257762189616" height="50" fill="#000000"/>
<rect x="808.4831581167078" y="40" width="0.3864197953633229" height="50" fill="#000000"/>
<rect x="808.8695779120711" y="40" width="0.31648934732182604" height="50" fill="#000000"/>
<rect x="809.186067259393" y="40" width="0.20690761430834642" height="50" fill="#199f4b"/>
<rect x="809.3929748737013" y="40" width="0.15860513988793104" height="50" fill="#B83998"/>
<rect x="809.5515800135893" y="40" width="0.11751199000787618" height="50" fill="#000000"/>
<rect x="809.6690920035971" y="40" width="0.11246546282962383" height="50" fill="#db5855"/>
<rect x="809.7815574664268" y="40" width="0.07425604276571318" height="50" fill="#0050b2"/>
<rect x="809.8558135091924" y="40" width="0.07209324540360502" height="50" fill="#000000"/>
<rect x="809.927906754596" y="40" width="0.07209324540360502" height="50" fill="#701516"/>
<circle cx="16" cy="116" r="6" fill="#3572A5" />
<text x="27" y="120" font-size="15" font-family="sans-serif" fill="#FFF">Python (648.5k lines, 58.4%)</text>
<circle cx="266" cy="116" r="6" fill="#f34b7d" />
<text x="277" y="120" font-size="15" font-family="sans-serif" fill="#FFF">C++ (125.5k lines, 11.3%)</text>
<circle cx="516" cy="116" r="6" fill="#dea584" />
<text x="527" y="120" font-size="15" font-family="sans-serif" fill="#FFF">Rust (80.3k lines, 7.2%)</text>
<circle cx="16" cy="136" r="6" fill="#3D6117" />
<text x="27" y="140" font-size="15" font-family="sans-serif" fill="#FFF">TeX (38.8k lines, 3.5%)</text>
<circle cx="266" cy="136" r="6" fill="#555555" />
<text x="277" y="140" font-size="15" font-family="sans-serif" fill="#FFF">C (29.4k lines, 2.7%)</text>
<circle cx="516" cy="136" r="6" fill="#89e051" />
<text x="527" y="140" font-size="15" font-family="sans-serif" fill="#FFF">Shell (26.4k lines, 2.4%)</text>
<circle cx="16" cy="156" r="6" fill="#b07219" />
<text x="27" y="160" font-size="15" font-family="sans-serif" fill="#FFF">Java (23.9k lines, 2.2%)</text>
<circle cx="266" cy="156" r="6" fill="None" />
<text x="277" y="160" font-size="15" font-family="sans-serif" fill="#FFF">Lean (23.0k lines, 2.1%)</text>
<circle cx="516" cy="156" r="6" fill="#c22d40" />
<text x="527" y="160" font-size="15" font-family="sans-serif" fill="#FFF">Scala (21.4k lines, 1.9%)</text>
<circle cx="16" cy="176" r="6" fill="#00B4AB" />
<text x="27" y="180" font-size="15" font-family="sans-serif" fill="#FFF">Dart (18.7k lines, 1.7%)</text>
<circle cx="266" cy="176" r="6" fill="#A97BFF" />
<text x="277" y="180" font-size="15" font-family="sans-serif" fill="#FFF">Kotlin (17.8k lines, 1.6%)</text>
<circle cx="516" cy="176" r="6" fill="#000000" />
<text x="527" y="180" font-size="15" font-family="sans-serif" fill="#FFF">C Header (15.7k lines, 1.4%)</text>
<circle cx="16" cy="196" r="6" fill="#5e5086" />
<text x="27" y="200" font-size="15" font-family="sans-serif" fill="#FFF">Haskell (9.2k lines, 0.8%)</text>
<circle cx="266" cy="196" r="6" fill="#239dad" />
<text x="277" y="200" font-size="15" font-family="sans-serif" fill="#FFF">Typst (6.6k lines, 0.6%)</text>
<circle cx="516" cy="196" r="6" fill="#ec915c" />
<text x="527" y="200" font-size="15" font-family="sans-serif" fill="#FFF">Zig (6.0k lines, 0.5%)</text>
<circle cx="16" cy="216" r="6" fill="#000000" />
<text x="27" y="220" font-size="15" font-family="sans-serif" fill="#FFF">Jupyter Not… (3.5k lines, 0.3%)</text>
<circle cx="266" cy="216" r="6" fill="#000080" />
<text x="277" y="220" font-size="15" font-family="sans-serif" fill="#FFF">Lua (3.1k lines, 0.3%)</text>
<circle cx="516" cy="216" r="6" fill="#000000" />
<text x="527" y="220" font-size="15" font-family="sans-serif" fill="#FFF">GNU Style A… (2.1k lines, 0.2%)</text>
<circle cx="16" cy="236" r="6" fill="#000000" />
<text x="27" y="240" font-size="15" font-family="sans-serif" fill="#FFF">Batch (1.7k lines, 0.2%)</text>
<circle cx="266" cy="236" r="6" fill="#DA3434" />
<text x="277" y="240" font-size="15" font-family="sans-serif" fill="#FFF">CMake (1.2k lines, 0.1%)</text>
<circle cx="516" cy="236" r="6" fill="#384d54" />
<text x="527" y="240" font-size="15" font-family="sans-serif" fill="#FFF">Just (1.0k lines, 0.1%)</text>
<circle cx="16" cy="256" r="6" fill="#41b883" />
<text x="27" y="260" font-size="15" font-family="sans-serif" fill="#FFF">Vue (931 lines, 0.1%)</text>
<circle cx="266" cy="256" r="6" fill="#000000" />
<text x="277" y="260" font-size="15" font-family="sans-serif" fill="#FFF">C++ Header (915 lines, 0.1%)</text>
<circle cx="516" cy="256" r="6" fill="#427819" />
<text x="527" y="260" font-size="15" font-family="sans-serif" fill="#FFF">Makefile (894 lines, 0.1%)</text>
<circle cx="16" cy="276" r="6" fill="#000000" />
<text x="27" y="280" font-size="15" font-family="sans-serif" fill="#FFF">WebGPU Shad… (877 lines, 0.1%)</text>
<circle cx="266" cy="276" r="6" fill="#000000" />
<text x="277" y="280" font-size="15" font-family="sans-serif" fill="#FFF">Cabal (536 lines, 0.0%)</text>
<circle cx="516" cy="276" r="6" fill="#000000" />
<text x="527" y="280" font-size="15" font-family="sans-serif" fill="#FFF">Templ (439 lines, 0.0%)</text>
<circle cx="16" cy="296" r="6" fill="#199f4b" />
<text x="27" y="300" font-size="15" font-family="sans-serif" fill="#FFF">Vim Script (287 lines, 0.0%)</text>
<circle cx="266" cy="296" r="6" fill="#B83998" />
<text x="277" y="300" font-size="15" font-family="sans-serif" fill="#FFF">Erlang (220 lines, 0.0%)</text>
<circle cx="516" cy="296" r="6" fill="#000000" />
<text x="527" y="300" font-size="15" font-family="sans-serif" fill="#FFF">Bitbake (163 lines, 0.0%)</text>
<circle cx="16" cy="316" r="6" fill="#db5855" />
<text x="27" y="320" font-size="15" font-family="sans-serif" fill="#FFF">Clojure (156 lines, 0.0%)</text>
<circle cx="266" cy="316" r="6" fill="#0050b2" />
<text x="277" y="320" font-size="15" font-family="sans-serif" fill="#FFF">FreeMarker (103 lines, 0.0%)</text>
<circle cx="516" cy="316" r="6" fill="#000000" />
<text x="527" y="320" font-size="15" font-family="sans-serif" fill="#FFF">Fish (100 lines, 0.0%)</text>
<circle cx="16" cy="336" r="6" fill="#701516" />
<text x="27" y="340" font-size="15" font-family="sans-serif" fill="#FFF">Ruby (100 lines, 0.0%)</text>
</svg>