<svg width="800" height="350" xmlns="http://www.w3.org/2000/svg">
<rect x="10" y="40" width="132.15226122726335" height="50" fill="#555555"/>
<rect x="142.15226122726335" y="40" width="116.13012825957702" height="50" fill="#b07219"/>
<rect x="258.2823894868404" y="40" width="99.62262319350572" height="50" fill="#c22d40"/>
<rect x="357.9050126803461" y="40" width="89.58027447792163" height="50" fill="#A97BFF"/>
<rect x="447.48528715826774" y="40" width="58.113601339626996" height="50" fill="#00B4AB"/>
<rect x="505.59888849789473" y="40" width="44.68335537731613" height="50" fill="#5e5086"/>
<rect x="550.2822438752108" y="40" width="43.07677373166203" height="50" fill="#000000"/>
<rect x="593.3590176068728" y="40" width="40.0674667216755" height="50" fill="#3D6117"/>
<rect x="633.4264843285483" y="40" width="32.97618036427176" height="50" fill="#3572A5"/>
<rect x="666.40266469282" y="40" width="24.729708412711897" height="50" fill="None"/>
<rect x="691.132373105532" y="40" width="24.44819259564864" height="50" fill="#89e051"/>
<rect x="715.5805657011806" y="40" width="15.002851561078012" height="50" fill="#239dad"/>
<rect x="730.5834172622586" y="40" width="11.746004780915168" height="50" fill="#000080"/>
<rect x="742.3294220431738" y="40" width="10.39667034740508" height="50" fill="#000000"/>
<rect x="752.726092390579" y="40" width="9.008506146024196" height="50" fill="#dea584"/>
<rect x="761.7345985366031" y="40" width="8.018347065318949" height="50" fill="#000000"/>
<rect x="769.7529456019221" y="40" width="7.600927060707916" height="50" fill="#f34b7d"/>
<rect x="777.35387266263" y="40" width="7.600927060707916" height="50" fill="#e38c00"/>
<rect x="784.9547997233379" y="40" width="4.193614930045746" height="50" fill="#ec915c"/>
<rect x="789.1484146533837" y="40" width="3.688827947725425" height="50" fill="#000000"/>
<rect x="792.8372426011091" y="40" width="3.3247988739367313" height="50" fill="#DA3434"/>
<rect x="796.1620414750458" y="40" width="2.6015944473431944" height="50" fill="#000000"/>
<rect x="798.7636359223891" y="40" width="2.587033284391646" height="50" fill="#427819"/>
<rect x="801.3506692067807" y="40" width="2.130783511909818" height="50" fill="#000000"/>
<rect x="803.4814527186905" y="40" width="1.5240683889286626" height="50" fill="#384d54"/>
<rect x="805.0055211076192" y="40" width="1.393017922364733" height="50" fill="#199f4b"/>
<rect x="806.3985390299839" y="40" width="1.0678186164468335" height="50" fill="#B83998"/>
<rect x="807.4663576464308" y="40" width="0.7911565203674268" height="50" fill="#000000"/>
<rect x="808.2575141667982" y="40" width="0.757180473480482" height="50" fill="#db5855"/>
<rect x="809.0146946402787" y="40" width="0.49993326133647203" height="50" fill="#0050b2"/>
<rect x="809.5146279016151" y="40" width="0.4853720983849243" height="50" fill="#701516"/>
<circle cx="16" cy="116" r="6" fill="#555555" />
<text x="27" y="120" font-size="15" font-family="sans-serif" fill="#FFF">C (27.2k lines, 16.5%)</text>
<circle cx="266" cy="116" r="6" fill="#b07219" />
<text x="277" y="120" font-size="15" font-family="sans-serif" fill="#FFF">Java (23.9k lines, 14.5%)</text>
<circle cx="516" cy="116" r="6" fill="#c22d40" />
<text x="527" y="120" font-size="15" font-family="sans-serif" fill="#FFF">Scala (20.5k lines, 12.5%)</text>
<circle cx="16" cy="136" r="6" fill="#A97BFF" />
<text x="27" y="140" font-size="15" font-family="sans-serif" fill="#FFF">Kotlin (18.5k lines, 11.2%)</text>
<circle cx="266" cy="136" r="6" fill="#00B4AB" />
<text x="277" y="140" font-size="15" font-family="sans-serif" fill="#FFF">Dart (12.0k lines, 7.3%)</text>
<circle cx="516" cy="136" r="6" fill="#5e5086" />
<text x="527" y="140" font-size="15" font-family="sans-serif" fill="#FFF">Haskell (9.2k lines, 5.6%)</text>
<circle cx="16" cy="156" r="6" fill="#000000" />
<text x="27" y="160" font-size="15" font-family="sans-serif" fill="#FFF">C Header (8.9k lines, 5.4%)</text>
<circle cx="266" cy="156" r="6" fill="#3D6117" />
<text x="277" y="160" font-size="15" font-family="sans-serif" fill="#FFF">TeX (8.3k lines, 5.0%)</text>
<circle cx="516" cy="156" r="6" fill="#3572A5" />
<text x="527" y="160" font-size="15" font-family="sans-serif" fill="#FFF">Python (6.8k lines, 4.1%)</text>
<circle cx="16" cy="176" r="6" fill="None" />
<text x="27" y="180" font-size="15" font-family="sans-serif" fill="#FFF">Lean (5.1k lines, 3.1%)</text>
<circle cx="266" cy="176" r="6" fill="#89e051" />
<text x="277" y="180" font-size="15" font-family="sans-serif" fill="#FFF">Shell (5.0k lines, 3.1%)</text>
<circle cx="516" cy="176" r="6" fill="#239dad" />
<text x="527" y="180" font-size="15" font-family="sans-serif" fill="#FFF">Typst (3.1k lines, 1.9%)</text>
<circle cx="16" cy="196" r="6" fill="#000080" />
<text x="27" y="200" font-size="15" font-family="sans-serif" fill="#FFF">Lua (2.4k lines, 1.5%)</text>
<circle cx="266" cy="196" r="6" fill="#000000" />
<text x="277" y="200" font-size="15" font-family="sans-serif" fill="#FFF">GNU Style A… (2.1k lines, 1.3%)</text>
<circle cx="516" cy="196" r="6" fill="#dea584" />
<text x="527" y="200" font-size="15" font-family="sans-serif" fill="#FFF">Rust (1.9k lines, 1.1%)</text>
<circle cx="16" cy="216" r="6" fill="#000000" />
<text x="27" y="220" font-size="15" font-family="sans-serif" fill="#FFF">Batch (1.7k lines, 1.0%)</text>
<circle cx="266" cy="216" r="6" fill="#f34b7d" />
<text x="277" y="220" font-size="15" font-family="sans-serif" fill="#FFF">C++ (1.6k lines, 1.0%)</text>
<circle cx="516" cy="216" r="6" fill="#e38c00" />
<text x="527" y="220" font-size="15" font-family="sans-serif" fill="#FFF">SQL (1.6k lines, 1.0%)</text>
<circle cx="16" cy="236" r="6" fill="#ec915c" />
<text x="27" y="240" font-size="15" font-family="sans-serif" fill="#FFF">Zig (864 lines, 0.5%)</text>
<circle cx="266" cy="236" r="6" fill="#000000" />
<text x="277" y="240" font-size="15" font-family="sans-serif" fill="#FFF">WebGPU Shad… (760 lines, 0.5%)</text>
<circle cx="516" cy="236" r="6" fill="#DA3434" />
<text x="527" y="240" font-size="15" font-family="sans-serif" fill="#FFF">CMake (685 lines, 0.4%)</text>
<circle cx="16" cy="256" r="6" fill="#000000" />
<text x="27" y="260" font-size="15" font-family="sans-serif" fill="#FFF">Cabal (536 lines, 0.3%)</text>
<circle cx="266" cy="256" r="6" fill="#427819" />
<text x="277" y="260" font-size="15" font-family="sans-serif" fill="#FFF">Makefile (533 lines, 0.3%)</text>
<circle cx="516" cy="256" r="6" fill="#000000" />
<text x="527" y="260" font-size="15" font-family="sans-serif" fill="#FFF">Templ (439 lines, 0.3%)</text>
<circle cx="16" cy="276" r="6" fill="#384d54" />
<text x="27" y="280" font-size="15" font-family="sans-serif" fill="#FFF">Dockerfile (314 lines, 0.2%)</text>
<circle cx="266" cy="276" r="6" fill="#199f4b" />
<text x="277" y="280" font-size="15" font-family="sans-serif" fill="#FFF">Vim Script (287 lines, 0.2%)</text>
<circle cx="516" cy="276" r="6" fill="#B83998" />
<text x="527" y="280" font-size="15" font-family="sans-serif" fill="#FFF">Erlang (220 lines, 0.1%)</text>
<circle cx="16" cy="296" r="6" fill="#000000" />
<text x="27" y="300" font-size="15" font-family="sans-serif" fill="#FFF">Bitbake (163 lines, 0.1%)</text>
<circle cx="266" cy="296" r="6" fill="#db5855" />
<text x="277" y="300" font-size="15" font-family="sans-serif" fill="#FFF">Clojure (156 lines, 0.1%)</text>
<circle cx="516" cy="296" r="6" fill="#0050b2" />
<text x="527" y="300" font-size="15" font-family="sans-serif" fill="#FFF">FreeMarker (103 lines, 0.1%)</text>
<circle cx="16" cy="316" r="6" fill="#701516" />
<text x="27" y="320" font-size="15" font-family="sans-serif" fill="#FFF">Ruby (100 lines, 0.1%)</text>
</svg>