<svg width="800" height="330" xmlns="http://www.w3.org/2000/svg">
<rect width="800" height="330" fill="#212830"/>
<rect x="10" y="40" width="137.62472981375655" height="50" fill="#555555"/>
<rect x="147.62472981375655" y="40" width="113.34971722973974" height="50" fill="#b07219"/>
<rect x="260.9744470434963" y="40" width="97.23743819027032" height="50" fill="#c22d40"/>
<rect x="358.2118852337666" y="40" width="64.23119059603826" height="50" fill="#A97BFF"/>
<rect x="422.4430758298049" y="40" width="62.82414946851035" height="50" fill="#00B4AB"/>
<rect x="485.2672252983153" y="40" width="46.44656974506262" height="50" fill="None"/>
<rect x="531.7137950433779" y="40" width="43.61353744115122" height="50" fill="#5e5086"/>
<rect x="575.3273324845292" y="40" width="43.47614958694815" height="50" fill="#000000"/>
<rect x="618.8034820714773" y="40" width="39.10816332573358" height="50" fill="#3D6117"/>
<rect x="657.9116453972109" y="40" width="33.32839842477719" height="50" fill="#3572A5"/>
<rect x="691.2400438219881" y="40" width="22.47475794273532" height="50" fill="#89e051"/>
<rect x="713.7148017647235" y="40" width="21.835193793859002" height="50" fill="#dea584"/>
<rect x="735.5499955585825" y="40" width="14.643650253160809" height="50" fill="#239dad"/>
<rect x="750.1936458117433" y="40" width="11.49320463091819" height="50" fill="#000080"/>
<rect x="761.6868504426615" y="40" width="10.147751162170964" height="50" fill="#000000"/>
<rect x="771.8346016048324" y="40" width="7.490006810173807" height="50" fill="#000000"/>
<rect x="779.3246084150062" y="40" width="7.418944126965326" height="50" fill="#f34b7d"/>
<rect x="786.7435525419716" y="40" width="4.093210552808457" height="50" fill="#ec915c"/>
<rect x="790.83676309478" y="40" width="3.600509282562994" height="50" fill="#000000"/>
<rect x="794.437272377343" y="40" width="3.2451958665205933" height="50" fill="#DA3434"/>
<rect x="797.6824682438636" y="40" width="2.823557279483611" height="50" fill="#427819"/>
<rect x="800.5060255233471" y="40" width="2.5393065466496907" height="50" fill="#000000"/>
<rect x="803.0453320699968" y="40" width="2.079767861901519" height="50" fill="#000000"/>
<rect x="805.1250999318983" y="40" width="1.35966600538892" height="50" fill="#199f4b"/>
<rect x="806.4847659372872" y="40" width="1.0422526870577087" height="50" fill="#B83998"/>
<rect x="807.5270186243449" y="40" width="0.7722144908654842" height="50" fill="#000000"/>
<rect x="808.2992331152104" y="40" width="0.7390519053681934" height="50" fill="#db5855"/>
<rect x="809.0382850205787" y="40" width="0.48796375803156367" height="50" fill="#0050b2"/>
<rect x="809.5262487786102" y="40" width="0.4737512213898677" height="50" fill="#701516"/>
<circle cx="16" cy="116" r="6" fill="#555555" />
<text x="27" y="120" font-size="15" font-family="sans-serif" fill="#FFF">C (29.1k lines, 17.2%)</text>
<circle cx="266" cy="116" r="6" fill="#b07219" />
<text x="277" y="120" font-size="15" font-family="sans-serif" fill="#FFF">Java (23.9k lines, 14.2%)</text>
<circle cx="516" cy="116" r="6" fill="#c22d40" />
<text x="527" y="120" font-size="15" font-family="sans-serif" fill="#FFF">Scala (20.5k lines, 12.2%)</text>
<circle cx="16" cy="136" r="6" fill="#A97BFF" />
<text x="27" y="140" font-size="15" font-family="sans-serif" fill="#FFF">Kotlin (13.6k lines, 8.0%)</text>
<circle cx="266" cy="136" r="6" fill="#00B4AB" />
<text x="277" y="140" font-size="15" font-family="sans-serif" fill="#FFF">Dart (13.3k lines, 7.9%)</text>
<circle cx="516" cy="136" r="6" fill="None" />
<text x="527" y="140" font-size="15" font-family="sans-serif" fill="#FFF">Lean (9.8k lines, 5.8%)</text>
<circle cx="16" cy="156" r="6" fill="#5e5086" />
<text x="27" y="160" font-size="15" font-family="sans-serif" fill="#FFF">Haskell (9.2k lines, 5.5%)</text>
<circle cx="266" cy="156" r="6" fill="#000000" />
<text x="277" y="160" font-size="15" font-family="sans-serif" fill="#FFF">C Header (9.2k lines, 5.4%)</text>
<circle cx="516" cy="156" r="6" fill="#3D6117" />
<text x="527" y="160" font-size="15" font-family="sans-serif" fill="#FFF">TeX (8.3k lines, 4.9%)</text>
<circle cx="16" cy="176" r="6" fill="#3572A5" />
<text x="27" y="180" font-size="15" font-family="sans-serif" fill="#FFF">Python (7.0k lines, 4.2%)</text>
<circle cx="266" cy="176" r="6" fill="#89e051" />
<text x="277" y="180" font-size="15" font-family="sans-serif" fill="#FFF">Shell (4.7k lines, 2.8%)</text>
<circle cx="516" cy="176" r="6" fill="#dea584" />
<text x="527" y="180" font-size="15" font-family="sans-serif" fill="#FFF">Rust (4.6k lines, 2.7%)</text>
<circle cx="16" cy="196" r="6" fill="#239dad" />
<text x="27" y="200" font-size="15" font-family="sans-serif" fill="#FFF">Typst (3.1k lines, 1.8%)</text>
<circle cx="266" cy="196" r="6" fill="#000080" />
<text x="277" y="200" font-size="15" font-family="sans-serif" fill="#FFF">Lua (2.4k lines, 1.4%)</text>
<circle cx="516" cy="196" r="6" fill="#000000" />
<text x="527" y="200" font-size="15" font-family="sans-serif" fill="#FFF">GNU Style A… (2.1k lines, 1.3%)</text>
<circle cx="16" cy="216" r="6" fill="#000000" />
<text x="27" y="220" font-size="15" font-family="sans-serif" fill="#FFF">Batch (1.6k lines, 0.9%)</text>
<circle cx="266" cy="216" r="6" fill="#f34b7d" />
<text x="277" y="220" font-size="15" font-family="sans-serif" fill="#FFF">C++ (1.6k lines, 0.9%)</text>
<circle cx="516" cy="216" r="6" fill="#ec915c" />
<text x="527" y="220" font-size="15" font-family="sans-serif" fill="#FFF">Zig (864 lines, 0.5%)</text>
<circle cx="16" cy="236" r="6" fill="#000000" />
<text x="27" y="240" font-size="15" font-family="sans-serif" fill="#FFF">WebGPU Shad… (760 lines, 0.5%)</text>
<circle cx="266" cy="236" r="6" fill="#DA3434" />
<text x="277" y="240" font-size="15" font-family="sans-serif" fill="#FFF">CMake (685 lines, 0.4%)</text>
<circle cx="516" cy="236" r="6" fill="#427819" />
<text x="527" y="240" font-size="15" font-family="sans-serif" fill="#FFF">Makefile (596 lines, 0.4%)</text>
<circle cx="16" cy="256" r="6" fill="#000000" />
<text x="27" y="260" font-size="15" font-family="sans-serif" fill="#FFF">Cabal (536 lines, 0.3%)</text>
<circle cx="266" cy="256" r="6" fill="#000000" />
<text x="277" y="260" font-size="15" font-family="sans-serif" fill="#FFF">Templ (439 lines, 0.3%)</text>
<circle cx="516" cy="256" r="6" fill="#199f4b" />
<text x="527" y="260" font-size="15" font-family="sans-serif" fill="#FFF">Vim Script (287 lines, 0.2%)</text>
<circle cx="16" cy="276" r="6" fill="#B83998" />
<text x="27" y="280" font-size="15" font-family="sans-serif" fill="#FFF">Erlang (220 lines, 0.1%)</text>
<circle cx="266" cy="276" r="6" fill="#000000" />
<text x="277" y="280" font-size="15" font-family="sans-serif" fill="#FFF">Bitbake (163 lines, 0.1%)</text>
<circle cx="516" cy="276" r="6" fill="#db5855" />
<text x="527" y="280" font-size="15" font-family="sans-serif" fill="#FFF">Clojure (156 lines, 0.1%)</text>
<circle cx="16" cy="296" r="6" fill="#0050b2" />
<text x="27" y="300" font-size="15" font-family="sans-serif" fill="#FFF">FreeMarker (103 lines, 0.1%)</text>
<circle cx="266" cy="296" r="6" fill="#701516" />
<text x="277" y="300" font-size="15" font-family="sans-serif" fill="#FFF">Ruby (100 lines, 0.1%)</text>
</svg>