<svg width="800" height="330" xmlns="http://www.w3.org/2000/svg">
<rect width="800" height="330" fill="#212830"/>
<rect x="10" y="40" width="142.06441770005233" height="50" fill="#555555"/>
<rect x="152.06441770005233" y="40" width="120.67002477603847" height="50" fill="#b07219"/>
<rect x="272.7344424760908" y="40" width="103.51718877071762" height="50" fill="#c22d40"/>
<rect x="376.2516312468084" y="40" width="66.98734719866852" height="50" fill="#A97BFF"/>
<rect x="443.23897844547696" y="40" width="58.48405948770969" height="50" fill="#00B4AB"/>
<rect x="501.7230379331867" y="40" width="46.430170027928206" height="50" fill="#5e5086"/>
<rect x="548.1532079611148" y="40" width="45.905649315033955" height="50" fill="#000000"/>
<rect x="594.0588572761488" y="40" width="41.63383158598168" height="50" fill="#3D6117"/>
<rect x="635.6926888621306" y="40" width="33.302021800392126" height="50" fill="None"/>
<rect x="668.9947106625227" y="40" width="28.687248220601308" height="50" fill="#3572A5"/>
<rect x="697.681958883124" y="40" width="23.92621405740728" height="50" fill="#89e051"/>
<rect x="721.6081729405313" y="40" width="15.589360803424515" height="50" fill="#239dad"/>
<rect x="737.1975337439558" y="40" width="12.20519351157791" height="50" fill="#000080"/>
<rect x="749.4027272555337" y="40" width="10.803109298264417" height="50" fill="#000000"/>
<rect x="760.2058365537981" y="40" width="9.360677337805209" height="50" fill="#dea584"/>
<rect x="769.5665138916033" y="40" width="7.973723529671355" height="50" fill="#000000"/>
<rect x="777.5402374212747" y="40" width="7.898071503773144" height="50" fill="#f34b7d"/>
<rect x="785.4383089250479" y="40" width="4.3575566917369075" height="50" fill="#ec915c"/>
<rect x="789.7958656167848" y="40" width="3.8330359788426502" height="50" fill="#000000"/>
<rect x="793.6289015956274" y="40" width="3.454775849351599" height="50" fill="#DA3434"/>
<rect x="797.083677444979" y="40" width="2.8092118950202054" height="50" fill="#427819"/>
<rect x="799.8928893399992" y="40" width="2.703299058762711" height="50" fill="#000000"/>
<rect x="802.5961883987619" y="40" width="2.2140826246209517" height="50" fill="#000000"/>
<rect x="804.8102710233828" y="40" width="1.4474754288524219" height="50" fill="#199f4b"/>
<rect x="806.2577464522352" y="40" width="1.109563046507083" height="50" fill="#B83998"/>
<rect x="807.3673094987423" y="40" width="0.8220853480938841" height="50" fill="#000000"/>
<rect x="808.1893948468362" y="40" width="0.7867810693413859" height="50" fill="#db5855"/>
<rect x="808.9761759161776" y="40" width="0.5194772445010434" height="50" fill="#0050b2"/>
<rect x="809.4956531606786" y="40" width="0.5043468393214013" height="50" fill="#701516"/>
<circle cx="16" cy="116" r="6" fill="#555555" />
<text x="27" y="120" font-size="15" font-family="sans-serif" fill="#FFF">C (28.2k lines, 17.8%)</text>
<circle cx="266" cy="116" r="6" fill="#b07219" />
<text x="277" y="120" font-size="15" font-family="sans-serif" fill="#FFF">Java (23.9k lines, 15.1%)</text>
<circle cx="516" cy="116" r="6" fill="#c22d40" />
<text x="527" y="120" font-size="15" font-family="sans-serif" fill="#FFF">Scala (20.5k lines, 12.9%)</text>
<circle cx="16" cy="136" r="6" fill="#A97BFF" />
<text x="27" y="140" font-size="15" font-family="sans-serif" fill="#FFF">Kotlin (13.3k lines, 8.4%)</text>
<circle cx="266" cy="136" r="6" fill="#00B4AB" />
<text x="277" y="140" font-size="15" font-family="sans-serif" fill="#FFF">Dart (11.6k lines, 7.3%)</text>
<circle cx="516" cy="136" r="6" fill="#5e5086" />
<text x="527" y="140" font-size="15" font-family="sans-serif" fill="#FFF">Haskell (9.2k lines, 5.8%)</text>
<circle cx="16" cy="156" r="6" fill="#000000" />
<text x="27" y="160" font-size="15" font-family="sans-serif" fill="#FFF">C Header (9.1k lines, 5.7%)</text>
<circle cx="266" cy="156" r="6" fill="#3D6117" />
<text x="277" y="160" font-size="15" font-family="sans-serif" fill="#FFF">TeX (8.3k lines, 5.2%)</text>
<circle cx="516" cy="156" r="6" fill="None" />
<text x="527" y="160" font-size="15" font-family="sans-serif" fill="#FFF">Lean (6.6k lines, 4.2%)</text>
<circle cx="16" cy="176" r="6" fill="#3572A5" />
<text x="27" y="180" font-size="15" font-family="sans-serif" fill="#FFF">Python (5.7k lines, 3.6%)</text>
<circle cx="266" cy="176" r="6" fill="#89e051" />
<text x="277" y="180" font-size="15" font-family="sans-serif" fill="#FFF">Shell (4.7k lines, 3.0%)</text>
<circle cx="516" cy="176" r="6" fill="#239dad" />
<text x="527" y="180" font-size="15" font-family="sans-serif" fill="#FFF">Typst (3.1k lines, 1.9%)</text>
<circle cx="16" cy="196" r="6" fill="#000080" />
<text x="27" y="200" font-size="15" font-family="sans-serif" fill="#FFF">Lua (2.4k lines, 1.5%)</text>
<circle cx="266" cy="196" r="6" fill="#000000" />
<text x="277" y="200" font-size="15" font-family="sans-serif" fill="#FFF">GNU Style A… (2.1k lines, 1.4%)</text>
<circle cx="516" cy="196" r="6" fill="#dea584" />
<text x="527" y="200" font-size="15" font-family="sans-serif" fill="#FFF">Rust (1.9k lines, 1.2%)</text>
<circle cx="16" cy="216" r="6" fill="#000000" />
<text x="27" y="220" font-size="15" font-family="sans-serif" fill="#FFF">Batch (1.6k lines, 1.0%)</text>
<circle cx="266" cy="216" r="6" fill="#f34b7d" />
<text x="277" y="220" font-size="15" font-family="sans-serif" fill="#FFF">C++ (1.6k lines, 1.0%)</text>
<circle cx="516" cy="216" r="6" fill="#ec915c" />
<text x="527" y="220" font-size="15" font-family="sans-serif" fill="#FFF">Zig (864 lines, 0.5%)</text>
<circle cx="16" cy="236" r="6" fill="#000000" />
<text x="27" y="240" font-size="15" font-family="sans-serif" fill="#FFF">WebGPU Shad… (760 lines, 0.5%)</text>
<circle cx="266" cy="236" r="6" fill="#DA3434" />
<text x="277" y="240" font-size="15" font-family="sans-serif" fill="#FFF">CMake (685 lines, 0.4%)</text>
<circle cx="516" cy="236" r="6" fill="#427819" />
<text x="527" y="240" font-size="15" font-family="sans-serif" fill="#FFF">Makefile (557 lines, 0.4%)</text>
<circle cx="16" cy="256" r="6" fill="#000000" />
<text x="27" y="260" font-size="15" font-family="sans-serif" fill="#FFF">Cabal (536 lines, 0.3%)</text>
<circle cx="266" cy="256" r="6" fill="#000000" />
<text x="277" y="260" font-size="15" font-family="sans-serif" fill="#FFF">Templ (439 lines, 0.3%)</text>
<circle cx="516" cy="256" r="6" fill="#199f4b" />
<text x="527" y="260" font-size="15" font-family="sans-serif" fill="#FFF">Vim Script (287 lines, 0.2%)</text>
<circle cx="16" cy="276" r="6" fill="#B83998" />
<text x="27" y="280" font-size="15" font-family="sans-serif" fill="#FFF">Erlang (220 lines, 0.1%)</text>
<circle cx="266" cy="276" r="6" fill="#000000" />
<text x="277" y="280" font-size="15" font-family="sans-serif" fill="#FFF">Bitbake (163 lines, 0.1%)</text>
<circle cx="516" cy="276" r="6" fill="#db5855" />
<text x="527" y="280" font-size="15" font-family="sans-serif" fill="#FFF">Clojure (156 lines, 0.1%)</text>
<circle cx="16" cy="296" r="6" fill="#0050b2" />
<text x="27" y="300" font-size="15" font-family="sans-serif" fill="#FFF">FreeMarker (103 lines, 0.1%)</text>
<circle cx="266" cy="296" r="6" fill="#701516" />
<text x="277" y="300" font-size="15" font-family="sans-serif" fill="#FFF">Ruby (100 lines, 0.1%)</text>
</svg>