<svg width="800" height="350" xmlns="http://www.w3.org/2000/svg">
<rect x="10" y="40" width="132.6839209787283" height="50" fill="#555555"/>
<rect x="142.6839209787283" y="40" width="116.09843085638728" height="50" fill="#b07219"/>
<rect x="258.7823518351156" y="40" width="99.59543146900229" height="50" fill="#c22d40"/>
<rect x="358.3777833041179" y="40" width="89.1627796951482" height="50" fill="#A97BFF"/>
<rect x="447.54056299926606" y="40" width="58.09773938993249" height="50" fill="#00B4AB"/>
<rect x="505.63830238919854" y="40" width="44.67115917679099" height="50" fill="#5e5086"/>
<rect x="550.3094615659895" y="40" width="43.108687608799826" height="50" fill="#000000"/>
<rect x="593.4181491747894" y="40" width="40.05653041542577" height="50" fill="#3D6117"/>
<rect x="633.4746795902151" y="40" width="32.96717960537888" height="50" fill="#3572A5"/>
<rect x="666.441859195594" y="40" width="24.72295850594722" height="50" fill="None"/>
<rect x="691.1648177015412" y="40" width="24.44151952786185" height="50" fill="#89e051"/>
<rect x="715.606337229403" y="40" width="14.998756573480442" height="50" fill="#239dad"/>
<rect x="730.6050938028835" y="40" width="11.742798740803192" height="50" fill="#000080"/>
<rect x="742.3478925436867" y="40" width="10.393832604462991" height="50" fill="#000000"/>
<rect x="752.7417251481497" y="40" width="9.006047298731705" height="50" fill="#dea584"/>
<rect x="761.7477724468814" y="40" width="8.016158479259039" height="50" fill="#000000"/>
<rect x="769.7639309261405" y="40" width="7.598852408304876" height="50" fill="#f34b7d"/>
<rect x="777.3627833344453" y="40" width="7.598852408304876" height="50" fill="#e38c00"/>
<rect x="784.9616357427502" y="40" width="4.192470294237173" height="50" fill="#ec915c"/>
<rect x="789.1541060369874" y="40" width="3.6878210921530687" height="50" fill="#000000"/>
<rect x="792.8419271291405" y="40" width="3.323891379111647" height="50" fill="#DA3434"/>
<rect x="796.1658185082521" y="40" width="2.6008843492026905" height="50" fill="#000000"/>
<rect x="798.7667028574548" y="40" width="2.5863271606810336" height="50" fill="#427819"/>
<rect x="801.3530300181358" y="40" width="2.130201920335786" height="50" fill="#000000"/>
<rect x="803.4832319384716" y="40" width="1.5236523986000836" height="50" fill="#384d54"/>
<rect x="805.0068843370717" y="40" width="1.392637701905172" height="50" fill="#199f4b"/>
<rect x="806.3995220389769" y="40" width="1.0675271582548356" height="50" fill="#B83998"/>
<rect x="807.4670491972317" y="40" width="0.7909405763433556" height="50" fill="#000000"/>
<rect x="808.2579897735751" y="40" width="0.7569738031261563" height="50" fill="#db5855"/>
<rect x="809.0149635767012" y="40" width="0.4997968059102185" height="50" fill="#0050b2"/>
<rect x="809.5147603826115" y="40" width="0.48523961738856175" height="50" fill="#701516"/>
<circle cx="16" cy="116" r="6" fill="#555555" />
<text x="27" y="120" font-size="15" font-family="sans-serif" fill="#FFF">C (27.3k lines, 16.6%)</text>
<circle cx="266" cy="116" r="6" fill="#b07219" />
<text x="277" y="120" font-size="15" font-family="sans-serif" fill="#FFF">Java (23.9k lines, 14.5%)</text>
<circle cx="516" cy="116" r="6" fill="#c22d40" />
<text x="527" y="120" font-size="15" font-family="sans-serif" fill="#FFF">Scala (20.5k lines, 12.4%)</text>
<circle cx="16" cy="136" r="6" fill="#A97BFF" />
<text x="27" y="140" font-size="15" font-family="sans-serif" fill="#FFF">Kotlin (18.4k lines, 11.1%)</text>
<circle cx="266" cy="136" r="6" fill="#00B4AB" />
<text x="277" y="140" font-size="15" font-family="sans-serif" fill="#FFF">Dart (12.0k lines, 7.3%)</text>
<circle cx="516" cy="136" r="6" fill="#5e5086" />
<text x="527" y="140" font-size="15" font-family="sans-serif" fill="#FFF">Haskell (9.2k lines, 5.6%)</text>
<circle cx="16" cy="156" r="6" fill="#000000" />
<text x="27" y="160" font-size="15" font-family="sans-serif" fill="#FFF">C Header (8.9k lines, 5.4%)</text>
<circle cx="266" cy="156" r="6" fill="#3D6117" />
<text x="277" y="160" font-size="15" font-family="sans-serif" fill="#FFF">TeX (8.3k lines, 5.0%)</text>
<circle cx="516" cy="156" r="6" fill="#3572A5" />
<text x="527" y="160" font-size="15" font-family="sans-serif" fill="#FFF">Python (6.8k lines, 4.1%)</text>
<circle cx="16" cy="176" r="6" fill="None" />
<text x="27" y="180" font-size="15" font-family="sans-serif" fill="#FFF">Lean (5.1k lines, 3.1%)</text>
<circle cx="266" cy="176" r="6" fill="#89e051" />
<text x="277" y="180" font-size="15" font-family="sans-serif" fill="#FFF">Shell (5.0k lines, 3.1%)</text>
<circle cx="516" cy="176" r="6" fill="#239dad" />
<text x="527" y="180" font-size="15" font-family="sans-serif" fill="#FFF">Typst (3.1k lines, 1.9%)</text>
<circle cx="16" cy="196" r="6" fill="#000080" />
<text x="27" y="200" font-size="15" font-family="sans-serif" fill="#FFF">Lua (2.4k lines, 1.5%)</text>
<circle cx="266" cy="196" r="6" fill="#000000" />
<text x="277" y="200" font-size="15" font-family="sans-serif" fill="#FFF">GNU Style A… (2.1k lines, 1.3%)</text>
<circle cx="516" cy="196" r="6" fill="#dea584" />
<text x="527" y="200" font-size="15" font-family="sans-serif" fill="#FFF">Rust (1.9k lines, 1.1%)</text>
<circle cx="16" cy="216" r="6" fill="#000000" />
<text x="27" y="220" font-size="15" font-family="sans-serif" fill="#FFF">Batch (1.7k lines, 1.0%)</text>
<circle cx="266" cy="216" r="6" fill="#f34b7d" />
<text x="277" y="220" font-size="15" font-family="sans-serif" fill="#FFF">C++ (1.6k lines, 0.9%)</text>
<circle cx="516" cy="216" r="6" fill="#e38c00" />
<text x="527" y="220" font-size="15" font-family="sans-serif" fill="#FFF">SQL (1.6k lines, 0.9%)</text>
<circle cx="16" cy="236" r="6" fill="#ec915c" />
<text x="27" y="240" font-size="15" font-family="sans-serif" fill="#FFF">Zig (864 lines, 0.5%)</text>
<circle cx="266" cy="236" r="6" fill="#000000" />
<text x="277" y="240" font-size="15" font-family="sans-serif" fill="#FFF">WebGPU Shad… (760 lines, 0.5%)</text>
<circle cx="516" cy="236" r="6" fill="#DA3434" />
<text x="527" y="240" font-size="15" font-family="sans-serif" fill="#FFF">CMake (685 lines, 0.4%)</text>
<circle cx="16" cy="256" r="6" fill="#000000" />
<text x="27" y="260" font-size="15" font-family="sans-serif" fill="#FFF">Cabal (536 lines, 0.3%)</text>
<circle cx="266" cy="256" r="6" fill="#427819" />
<text x="277" y="260" font-size="15" font-family="sans-serif" fill="#FFF">Makefile (533 lines, 0.3%)</text>
<circle cx="516" cy="256" r="6" fill="#000000" />
<text x="527" y="260" font-size="15" font-family="sans-serif" fill="#FFF">Templ (439 lines, 0.3%)</text>
<circle cx="16" cy="276" r="6" fill="#384d54" />
<text x="27" y="280" font-size="15" font-family="sans-serif" fill="#FFF">Dockerfile (314 lines, 0.2%)</text>
<circle cx="266" cy="276" r="6" fill="#199f4b" />
<text x="277" y="280" font-size="15" font-family="sans-serif" fill="#FFF">Vim Script (287 lines, 0.2%)</text>
<circle cx="516" cy="276" r="6" fill="#B83998" />
<text x="527" y="280" font-size="15" font-family="sans-serif" fill="#FFF">Erlang (220 lines, 0.1%)</text>
<circle cx="16" cy="296" r="6" fill="#000000" />
<text x="27" y="300" font-size="15" font-family="sans-serif" fill="#FFF">Bitbake (163 lines, 0.1%)</text>
<circle cx="266" cy="296" r="6" fill="#db5855" />
<text x="277" y="300" font-size="15" font-family="sans-serif" fill="#FFF">Clojure (156 lines, 0.1%)</text>
<circle cx="516" cy="296" r="6" fill="#0050b2" />
<text x="527" y="300" font-size="15" font-family="sans-serif" fill="#FFF">FreeMarker (103 lines, 0.1%)</text>
<circle cx="16" cy="316" r="6" fill="#701516" />
<text x="27" y="320" font-size="15" font-family="sans-serif" fill="#FFF">Ruby (100 lines, 0.1%)</text>
</svg>