<svg width="800" height="350" xmlns="http://www.w3.org/2000/svg">
<rect width="800" height="350" fill="#212830"/>
<rect x="10" y="40" width="259.33980379454493" height="50" fill="#3572A5"/>
<rect x="269.33980379454493" y="40" width="103.13771856689259" height="50" fill="#dea584"/>
<rect x="372.47752236143754" y="40" width="67.51512792281927" height="50" fill="#555555"/>
<rect x="439.9926502842568" y="40" width="55.604521382443764" height="50" fill="#b07219"/>
<rect x="495.59717166670055" y="40" width="49.76193312049176" height="50" fill="#c22d40"/>
<rect x="545.3591047871923" y="40" width="43.540529470036105" height="50" fill="#00B4AB"/>
<rect x="588.8996342572284" y="40" width="40.93065412470114" height="50" fill="#A97BFF"/>
<rect x="629.8302883819296" y="40" width="32.9476427166641" height="50" fill="#3D6117"/>
<rect x="662.7779310985936" y="40" width="26.76574741961067" height="50" fill="None"/>
<rect x="689.5436785182043" y="40" width="21.44373981425264" height="50" fill="#5e5086"/>
<rect x="710.987418332457" y="40" width="21.32753877483434" height="50" fill="#000000"/>
<rect x="732.3149571072913" y="40" width="12.763522169705807" height="50" fill="#ec915c"/>
<rect x="745.0784792769971" y="40" width="12.663589275806073" height="50" fill="#89e051"/>
<rect x="757.7420685528032" y="40" width="10.978674204240757" height="50" fill="#239dad"/>
<rect x="768.7207427570439" y="40" width="7.903994701232603" height="50" fill="#000000"/>
<rect x="776.6247374582765" y="40" width="7.209112485511183" height="50" fill="#000080"/>
<rect x="783.8338499437876" y="40" width="4.978052528679869" height="50" fill="#000000"/>
<rect x="788.8119024724675" y="40" width="4.4783880591811895" height="50" fill="#f34b7d"/>
<rect x="793.2902905316487" y="40" width="3.823014196861991" height="50" fill="#000000"/>
<rect x="797.1133047285107" y="40" width="2.0730265432224293" height="50" fill="#427819"/>
<rect x="799.1863312717331" y="40" width="2.0381662313969398" height="50" fill="#000000"/>
<rect x="801.2244975031301" y="40" width="1.5919542400306772" height="50" fill="#DA3434"/>
<rect x="802.8164517431608" y="40" width="1.4223007224799629" height="50" fill="#41b883"/>
<rect x="804.2387524656407" y="40" width="1.2456751425641504" height="50" fill="#000000"/>
<rect x="805.4844276082048" y="40" width="1.0202451260926528" height="50" fill="#000000"/>
<rect x="806.5046727342974" y="40" width="0.871507795637232" height="50" fill="#384d54"/>
<rect x="807.3761805299347" y="40" width="0.6669939662610282" height="50" fill="#199f4b"/>
<rect x="808.0431744961957" y="40" width="0.5112845734405095" height="50" fill="#B83998"/>
<rect x="808.5544590696362" y="40" width="0.3788153885036502" height="50" fill="#000000"/>
<rect x="808.9332744581399" y="40" width="0.36254724298508845" height="50" fill="#db5855"/>
<rect x="809.295821701125" y="40" width="0.2393741412016931" height="50" fill="#0050b2"/>
<rect x="809.5351958423266" y="40" width="0.2324020788365952" height="50" fill="#000000"/>
<rect x="809.7675979211632" y="40" width="0.2324020788365952" height="50" fill="#701516"/>
<circle cx="16" cy="116" r="6" fill="#3572A5" />
<text x="27" y="120" font-size="15" font-family="sans-serif" fill="#FFF">Python (111.6k lines, 32.4%)</text>
<circle cx="266" cy="116" r="6" fill="#dea584" />
<text x="277" y="120" font-size="15" font-family="sans-serif" fill="#FFF">Rust (44.4k lines, 12.9%)</text>
<circle cx="516" cy="116" r="6" fill="#555555" />
<text x="527" y="120" font-size="15" font-family="sans-serif" fill="#FFF">C (29.1k lines, 8.4%)</text>
<circle cx="16" cy="136" r="6" fill="#b07219" />
<text x="27" y="140" font-size="15" font-family="sans-serif" fill="#FFF">Java (23.9k lines, 7.0%)</text>
<circle cx="266" cy="136" r="6" fill="#c22d40" />
<text x="277" y="140" font-size="15" font-family="sans-serif" fill="#FFF">Scala (21.4k lines, 6.2%)</text>
<circle cx="516" cy="136" r="6" fill="#00B4AB" />
<text x="527" y="140" font-size="15" font-family="sans-serif" fill="#FFF">Dart (18.7k lines, 5.4%)</text>
<circle cx="16" cy="156" r="6" fill="#A97BFF" />
<text x="27" y="160" font-size="15" font-family="sans-serif" fill="#FFF">Kotlin (17.6k lines, 5.1%)</text>
<circle cx="266" cy="156" r="6" fill="#3D6117" />
<text x="277" y="160" font-size="15" font-family="sans-serif" fill="#FFF">TeX (14.2k lines, 4.1%)</text>
<circle cx="516" cy="156" r="6" fill="None" />
<text x="527" y="160" font-size="15" font-family="sans-serif" fill="#FFF">Lean (11.5k lines, 3.3%)</text>
<circle cx="16" cy="176" r="6" fill="#5e5086" />
<text x="27" y="180" font-size="15" font-family="sans-serif" fill="#FFF">Haskell (9.2k lines, 2.7%)</text>
<circle cx="266" cy="176" r="6" fill="#000000" />
<text x="277" y="180" font-size="15" font-family="sans-serif" fill="#FFF">C Header (9.2k lines, 2.7%)</text>
<circle cx="516" cy="176" r="6" fill="#ec915c" />
<text x="527" y="180" font-size="15" font-family="sans-serif" fill="#FFF">Zig (5.5k lines, 1.6%)</text>
<circle cx="16" cy="196" r="6" fill="#89e051" />
<text x="27" y="200" font-size="15" font-family="sans-serif" fill="#FFF">Shell (5.4k lines, 1.6%)</text>
<circle cx="266" cy="196" r="6" fill="#239dad" />
<text x="277" y="200" font-size="15" font-family="sans-serif" fill="#FFF">Typst (4.7k lines, 1.4%)</text>
<circle cx="516" cy="196" r="6" fill="#000000" />
<text x="527" y="200" font-size="15" font-family="sans-serif" fill="#FFF">Jupyter Not… (3.4k lines, 1.0%)</text>
<circle cx="16" cy="216" r="6" fill="#000080" />
<text x="27" y="220" font-size="15" font-family="sans-serif" fill="#FFF">Lua (3.1k lines, 0.9%)</text>
<circle cx="266" cy="216" r="6" fill="#000000" />
<text x="277" y="220" font-size="15" font-family="sans-serif" fill="#FFF">GNU Style A… (2.1k lines, 0.6%)</text>
<circle cx="516" cy="216" r="6" fill="#f34b7d" />
<text x="527" y="220" font-size="15" font-family="sans-serif" fill="#FFF">C++ (1.9k lines, 0.6%)</text>
<circle cx="16" cy="236" r="6" fill="#000000" />
<text x="27" y="240" font-size="15" font-family="sans-serif" fill="#FFF">Batch (1.6k lines, 0.5%)</text>
<circle cx="266" cy="236" r="6" fill="#427819" />
<text x="277" y="240" font-size="15" font-family="sans-serif" fill="#FFF">Makefile (892 lines, 0.3%)</text>
<circle cx="516" cy="236" r="6" fill="#000000" />
<text x="527" y="240" font-size="15" font-family="sans-serif" fill="#FFF">WebGPU Shad… (877 lines, 0.3%)</text>
<circle cx="16" cy="256" r="6" fill="#DA3434" />
<text x="27" y="260" font-size="15" font-family="sans-serif" fill="#FFF">CMake (685 lines, 0.2%)</text>
<circle cx="266" cy="256" r="6" fill="#41b883" />
<text x="277" y="260" font-size="15" font-family="sans-serif" fill="#FFF">Vue (612 lines, 0.2%)</text>
<circle cx="516" cy="256" r="6" fill="#000000" />
<text x="527" y="260" font-size="15" font-family="sans-serif" fill="#FFF">Cabal (536 lines, 0.2%)</text>
<circle cx="16" cy="276" r="6" fill="#000000" />
<text x="27" y="280" font-size="15" font-family="sans-serif" fill="#FFF">Templ (439 lines, 0.1%)</text>
<circle cx="266" cy="276" r="6" fill="#384d54" />
<text x="277" y="280" font-size="15" font-family="sans-serif" fill="#FFF">Just (375 lines, 0.1%)</text>
<circle cx="516" cy="276" r="6" fill="#199f4b" />
<text x="527" y="280" font-size="15" font-family="sans-serif" fill="#FFF">Vim Script (287 lines, 0.1%)</text>
<circle cx="16" cy="296" r="6" fill="#B83998" />
<text x="27" y="300" font-size="15" font-family="sans-serif" fill="#FFF">Erlang (220 lines, 0.1%)</text>
<circle cx="266" cy="296" r="6" fill="#000000" />
<text x="277" y="300" font-size="15" font-family="sans-serif" fill="#FFF">Bitbake (163 lines, 0.0%)</text>
<circle cx="516" cy="296" r="6" fill="#db5855" />
<text x="527" y="300" font-size="15" font-family="sans-serif" fill="#FFF">Clojure (156 lines, 0.0%)</text>
<circle cx="16" cy="316" r="6" fill="#0050b2" />
<text x="27" y="320" font-size="15" font-family="sans-serif" fill="#FFF">FreeMarker (103 lines, 0.0%)</text>
<circle cx="266" cy="316" r="6" fill="#000000" />
<text x="277" y="320" font-size="15" font-family="sans-serif" fill="#FFF">Fish (100 lines, 0.0%)</text>
<circle cx="516" cy="316" r="6" fill="#701516" />
<text x="527" y="320" font-size="15" font-family="sans-serif" fill="#FFF">Ruby (100 lines, 0.0%)</text>
</svg>