<svg width="800" height="330" xmlns="http://www.w3.org/2000/svg">
<rect width="800" height="330" fill="#212830"/>
<text x="10" y="30" font-size="18" font-family="sans-serif" fill="#FFF" font-weight="bold">Total Code Lines by Language</text>
<rect x="10" y="60" width="118.37439452359004" height="50" fill="#555555"/>
<rect x="128.37439452359004" y="60" width="97.49150677675173" height="50" fill="#b07219"/>
<rect x="225.86590130034176" y="60" width="87.24768632883927" height="50" fill="#c22d40"/>
<rect x="313.11358762918104" y="60" width="76.33968818283223" height="50" fill="#00B4AB"/>
<rect x="389.45327581201326" y="60" width="56.74033402433621" height="50" fill="#A97BFF"/>
<rect x="446.1936098363495" y="60" width="47.792271294178775" height="50" fill="#dea584"/>
<rect x="493.98588113052824" y="60" width="46.92843281567541" height="50" fill="None"/>
<rect x="540.9143139462036" y="60" width="42.45032674079243" height="50" fill="#3572A5"/>
<rect x="583.364640686996" y="60" width="37.59734736391743" height="50" fill="#5e5086"/>
<rect x="620.9619880509134" y="60" width="37.393611873704366" height="50" fill="#000000"/>
<rect x="658.3555999246178" y="60" width="33.636729434175614" height="50" fill="#3D6117"/>
<rect x="691.9923293587934" y="60" width="19.91310681342413" height="50" fill="#89e051"/>
<rect x="711.9054361722176" y="60" width="17.252321311241616" height="50" fill="#239dad"/>
<rect x="729.1577574834592" y="60" width="16.62074129158114" height="50" fill="#ec915c"/>
<rect x="745.7784987750404" y="60" width="13.858088044292096" height="50" fill="#000000"/>
<rect x="759.6365868193325" y="60" width="9.885245985137496" height="50" fill="#000080"/>
<rect x="769.52183280447" y="60" width="8.728028400727336" height="50" fill="#000000"/>
<rect x="778.2498612051974" y="60" width="7.851965792811193" height="50" fill="#f34b7d"/>
<rect x="786.1018269980085" y="60" width="6.4421162005368435" height="50" fill="#000000"/>
<rect x="792.5439431985453" y="60" width="3.5735204983370092" height="50" fill="#000000"/>
<rect x="796.1174636968823" y="60" width="2.9256416394594904" height="50" fill="#427819"/>
<rect x="799.0431053363418" y="60" width="2.791176215918872" height="50" fill="#DA3434"/>
<rect x="801.8342815522607" y="60" width="2.1840444550839644" height="50" fill="#000000"/>
<rect x="804.0183260073446" y="60" width="1.788797604070635" height="50" fill="#000000"/>
<rect x="805.8071236114152" y="60" width="1.1694417138229436" height="50" fill="#199f4b"/>
<rect x="806.9765653252382" y="60" width="0.896436156937448" height="50" fill="#B83998"/>
<rect x="807.8730014821756" y="60" width="0.6641776980945638" height="50" fill="#000000"/>
<rect x="808.5371791802702" y="60" width="0.6356547294647359" height="50" fill="#db5855"/>
<rect x="809.1728339097349" y="60" width="0.4196951098388962" height="50" fill="#0050b2"/>
<rect x="809.5925290195738" y="60" width="0.4074709804261127" height="50" fill="#701516"/>
<circle cx="16" cy="136" r="6" fill="#555555" />
<text x="27" y="140" font-size="15" font-family="sans-serif" fill="#FFF">C (29.1k lines, 14.8%)</text>
<circle cx="266" cy="136" r="6" fill="#b07219" />
<text x="277" y="140" font-size="15" font-family="sans-serif" fill="#FFF">Java (23.9k lines, 12.2%)</text>
<circle cx="516" cy="136" r="6" fill="#c22d40" />
<text x="527" y="140" font-size="15" font-family="sans-serif" fill="#FFF">Scala (21.4k lines, 10.9%)</text>
<circle cx="16" cy="156" r="6" fill="#00B4AB" />
<text x="27" y="160" font-size="15" font-family="sans-serif" fill="#FFF">Dart (18.7k lines, 9.5%)</text>
<circle cx="266" cy="156" r="6" fill="#A97BFF" />
<text x="277" y="160" font-size="15" font-family="sans-serif" fill="#FFF">Kotlin (13.9k lines, 7.1%)</text>
<circle cx="516" cy="156" r="6" fill="#dea584" />
<text x="527" y="160" font-size="15" font-family="sans-serif" fill="#FFF">Rust (11.7k lines, 6.0%)</text>
<circle cx="16" cy="176" r="6" fill="None" />
<text x="27" y="180" font-size="15" font-family="sans-serif" fill="#FFF">Lean (11.5k lines, 5.9%)</text>
<circle cx="266" cy="176" r="6" fill="#3572A5" />
<text x="277" y="180" font-size="15" font-family="sans-serif" fill="#FFF">Python (10.4k lines, 5.3%)</text>
<circle cx="516" cy="176" r="6" fill="#5e5086" />
<text x="527" y="180" font-size="15" font-family="sans-serif" fill="#FFF">Haskell (9.2k lines, 4.7%)</text>
<circle cx="16" cy="196" r="6" fill="#000000" />
<text x="27" y="200" font-size="15" font-family="sans-serif" fill="#FFF">C Header (9.2k lines, 4.7%)</text>
<circle cx="266" cy="196" r="6" fill="#3D6117" />
<text x="277" y="200" font-size="15" font-family="sans-serif" fill="#FFF">TeX (8.3k lines, 4.2%)</text>
<circle cx="516" cy="196" r="6" fill="#89e051" />
<text x="527" y="200" font-size="15" font-family="sans-serif" fill="#FFF">Shell (4.9k lines, 2.5%)</text>
<circle cx="16" cy="216" r="6" fill="#239dad" />
<text x="27" y="220" font-size="15" font-family="sans-serif" fill="#FFF">Typst (4.2k lines, 2.2%)</text>
<circle cx="266" cy="216" r="6" fill="#ec915c" />
<text x="277" y="220" font-size="15" font-family="sans-serif" fill="#FFF">Zig (4.1k lines, 2.1%)</text>
<circle cx="516" cy="216" r="6" fill="#000000" />
<text x="527" y="220" font-size="15" font-family="sans-serif" fill="#FFF">Jupyter Not… (3.4k lines, 1.7%)</text>
<circle cx="16" cy="236" r="6" fill="#000080" />
<text x="27" y="240" font-size="15" font-family="sans-serif" fill="#FFF">Lua (2.4k lines, 1.2%)</text>
<circle cx="266" cy="236" r="6" fill="#000000" />
<text x="277" y="240" font-size="15" font-family="sans-serif" fill="#FFF">GNU Style A… (2.1k lines, 1.1%)</text>
<circle cx="516" cy="236" r="6" fill="#f34b7d" />
<text x="527" y="240" font-size="15" font-family="sans-serif" fill="#FFF">C++ (1.9k lines, 1.0%)</text>
<circle cx="16" cy="256" r="6" fill="#000000" />
<text x="27" y="260" font-size="15" font-family="sans-serif" fill="#FFF">Batch (1.6k lines, 0.8%)</text>
<circle cx="266" cy="256" r="6" fill="#000000" />
<text x="277" y="260" font-size="15" font-family="sans-serif" fill="#FFF">WebGPU Shad… (877 lines, 0.4%)</text>
<circle cx="516" cy="256" r="6" fill="#427819" />
<text x="527" y="260" font-size="15" font-family="sans-serif" fill="#FFF">Makefile (718 lines, 0.4%)</text>
<circle cx="16" cy="276" r="6" fill="#DA3434" />
<text x="27" y="280" font-size="15" font-family="sans-serif" fill="#FFF">CMake (685 lines, 0.3%)</text>
<circle cx="266" cy="276" r="6" fill="#000000" />
<text x="277" y="280" font-size="15" font-family="sans-serif" fill="#FFF">Cabal (536 lines, 0.3%)</text>
<circle cx="516" cy="276" r="6" fill="#000000" />
<text x="527" y="280" font-size="15" font-family="sans-serif" fill="#FFF">Templ (439 lines, 0.2%)</text>
<circle cx="16" cy="296" r="6" fill="#199f4b" />
<text x="27" y="300" font-size="15" font-family="sans-serif" fill="#FFF">Vim Script (287 lines, 0.1%)</text>
<circle cx="266" cy="296" r="6" fill="#B83998" />
<text x="277" y="300" font-size="15" font-family="sans-serif" fill="#FFF">Erlang (220 lines, 0.1%)</text>
<circle cx="516" cy="296" r="6" fill="#000000" />
<text x="527" y="300" font-size="15" font-family="sans-serif" fill="#FFF">Bitbake (163 lines, 0.1%)</text>
<circle cx="16" cy="316" r="6" fill="#db5855" />
<text x="27" y="320" font-size="15" font-family="sans-serif" fill="#FFF">Clojure (156 lines, 0.1%)</text>
<circle cx="266" cy="316" r="6" fill="#0050b2" />
<text x="277" y="320" font-size="15" font-family="sans-serif" fill="#FFF">FreeMarker (103 lines, 0.1%)</text>
<circle cx="516" cy="316" r="6" fill="#701516" />
<text x="527" y="320" font-size="15" font-family="sans-serif" fill="#FFF">Ruby (100 lines, 0.1%)</text>
</svg>