<svg width="800" height="330" xmlns="http://www.w3.org/2000/svg">
<rect width="800" height="330" fill="#212830"/>
<rect x="10" y="40" width="122.59453072248479" height="50" fill="#555555"/>
<rect x="132.5945307224848" y="40" width="100.97062795408506" height="50" fill="#b07219"/>
<rect x="233.56515867656987" y="40" width="86.61799459824444" height="50" fill="#c22d40"/>
<rect x="320.1831532748143" y="40" width="79.06397704253882" height="50" fill="#00B4AB"/>
<rect x="399.24713031735314" y="40" width="58.7651924375422" height="50" fill="#A97BFF"/>
<rect x="458.0123227548953" y="40" width="48.60313977042539" height="50" fill="None"/>
<rect x="506.6154625253207" y="40" width="43.58541525995949" height="50" fill="#3572A5"/>
<rect x="550.2008777852802" y="40" width="38.93906144496961" height="50" fill="#5e5086"/>
<rect x="589.1399392302499" y="40" width="38.7280553679946" height="50" fill="#000000"/>
<rect x="627.8679945982444" y="40" width="34.83710330857529" height="50" fill="#3D6117"/>
<rect x="662.7050979068197" y="40" width="26.2829169480081" height="50" fill="#dea584"/>
<rect x="688.9880148548277" y="40" width="20.08777852802161" height="50" fill="#89e051"/>
<rect x="709.0757933828494" y="40" width="17.86799459824443" height="50" fill="#239dad"/>
<rect x="726.9437879810938" y="40" width="17.213875759621878" height="50" fill="#ec915c"/>
<rect x="744.1576637407156" y="40" width="14.352633355840648" height="50" fill="#000000"/>
<rect x="758.5102970965563" y="40" width="10.238014854827819" height="50" fill="#000080"/>
<rect x="768.7483119513842" y="40" width="9.039500337609724" height="50" fill="#000000"/>
<rect x="777.7878122889939" y="40" width="8.132174206617151" height="50" fill="#f34b7d"/>
<rect x="785.919986495611" y="40" width="6.672012153950034" height="50" fill="#000000"/>
<rect x="792.5919986495611" y="40" width="3.2072923700202565" height="50" fill="#000000"/>
<rect x="795.7992910195813" y="40" width="2.8907832545577308" height="50" fill="#DA3434"/>
<rect x="798.6900742741391" y="40" width="2.852802160702228" height="50" fill="#427819"/>
<rect x="801.5428764348413" y="40" width="2.261985145172181" height="50" fill="#000000"/>
<rect x="803.8048615800135" y="40" width="1.8526333558406483" height="50" fill="#000000"/>
<rect x="805.6574949358542" y="40" width="1.2111748818365968" height="50" fill="#199f4b"/>
<rect x="806.8686698176907" y="40" width="0.9284267386900743" height="50" fill="#B83998"/>
<rect x="807.7970965563808" y="40" width="0.6878798109385549" height="50" fill="#000000"/>
<rect x="808.4849763673193" y="40" width="0.6583389601620527" height="50" fill="#db5855"/>
<rect x="809.1433153274813" y="40" width="0.4346725185685347" height="50" fill="#0050b2"/>
<rect x="809.5779878460498" y="40" width="0.42201215395003383" height="50" fill="#701516"/>
<circle cx="16" cy="116" r="6" fill="#555555" />
<text x="27" y="120" font-size="15" font-family="sans-serif" fill="#FFF">C (29.1k lines, 15.3%)</text>
<circle cx="266" cy="116" r="6" fill="#b07219" />
<text x="277" y="120" font-size="15" font-family="sans-serif" fill="#FFF">Java (23.9k lines, 12.6%)</text>
<circle cx="516" cy="116" r="6" fill="#c22d40" />
<text x="527" y="120" font-size="15" font-family="sans-serif" fill="#FFF">Scala (20.5k lines, 10.8%)</text>
<circle cx="16" cy="136" r="6" fill="#00B4AB" />
<text x="27" y="140" font-size="15" font-family="sans-serif" fill="#FFF">Dart (18.7k lines, 9.9%)</text>
<circle cx="266" cy="136" r="6" fill="#A97BFF" />
<text x="277" y="140" font-size="15" font-family="sans-serif" fill="#FFF">Kotlin (13.9k lines, 7.3%)</text>
<circle cx="516" cy="136" r="6" fill="None" />
<text x="527" y="140" font-size="15" font-family="sans-serif" fill="#FFF">Lean (11.5k lines, 6.1%)</text>
<circle cx="16" cy="156" r="6" fill="#3572A5" />
<text x="27" y="160" font-size="15" font-family="sans-serif" fill="#FFF">Python (10.3k lines, 5.4%)</text>
<circle cx="266" cy="156" r="6" fill="#5e5086" />
<text x="277" y="160" font-size="15" font-family="sans-serif" fill="#FFF">Haskell (9.2k lines, 4.9%)</text>
<circle cx="516" cy="156" r="6" fill="#000000" />
<text x="527" y="160" font-size="15" font-family="sans-serif" fill="#FFF">C Header (9.2k lines, 4.8%)</text>
<circle cx="16" cy="176" r="6" fill="#3D6117" />
<text x="27" y="180" font-size="15" font-family="sans-serif" fill="#FFF">TeX (8.3k lines, 4.4%)</text>
<circle cx="266" cy="176" r="6" fill="#dea584" />
<text x="277" y="180" font-size="15" font-family="sans-serif" fill="#FFF">Rust (6.2k lines, 3.3%)</text>
<circle cx="516" cy="176" r="6" fill="#89e051" />
<text x="527" y="180" font-size="15" font-family="sans-serif" fill="#FFF">Shell (4.8k lines, 2.5%)</text>
<circle cx="16" cy="196" r="6" fill="#239dad" />
<text x="27" y="200" font-size="15" font-family="sans-serif" fill="#FFF">Typst (4.2k lines, 2.2%)</text>
<circle cx="266" cy="196" r="6" fill="#ec915c" />
<text x="277" y="200" font-size="15" font-family="sans-serif" fill="#FFF">Zig (4.1k lines, 2.2%)</text>
<circle cx="516" cy="196" r="6" fill="#000000" />
<text x="527" y="200" font-size="15" font-family="sans-serif" fill="#FFF">Jupyter Not… (3.4k lines, 1.8%)</text>
<circle cx="16" cy="216" r="6" fill="#000080" />
<text x="27" y="220" font-size="15" font-family="sans-serif" fill="#FFF">Lua (2.4k lines, 1.3%)</text>
<circle cx="266" cy="216" r="6" fill="#000000" />
<text x="277" y="220" font-size="15" font-family="sans-serif" fill="#FFF">GNU Style A… (2.1k lines, 1.1%)</text>
<circle cx="516" cy="216" r="6" fill="#f34b7d" />
<text x="527" y="220" font-size="15" font-family="sans-serif" fill="#FFF">C++ (1.9k lines, 1.0%)</text>
<circle cx="16" cy="236" r="6" fill="#000000" />
<text x="27" y="240" font-size="15" font-family="sans-serif" fill="#FFF">Batch (1.6k lines, 0.8%)</text>
<circle cx="266" cy="236" r="6" fill="#000000" />
<text x="277" y="240" font-size="15" font-family="sans-serif" fill="#FFF">WebGPU Shad… (760 lines, 0.4%)</text>
<circle cx="516" cy="236" r="6" fill="#DA3434" />
<text x="527" y="240" font-size="15" font-family="sans-serif" fill="#FFF">CMake (685 lines, 0.4%)</text>
<circle cx="16" cy="256" r="6" fill="#427819" />
<text x="27" y="260" font-size="15" font-family="sans-serif" fill="#FFF">Makefile (676 lines, 0.4%)</text>
<circle cx="266" cy="256" r="6" fill="#000000" />
<text x="277" y="260" font-size="15" font-family="sans-serif" fill="#FFF">Cabal (536 lines, 0.3%)</text>
<circle cx="516" cy="256" r="6" fill="#000000" />
<text x="527" y="260" font-size="15" font-family="sans-serif" fill="#FFF">Templ (439 lines, 0.2%)</text>
<circle cx="16" cy="276" r="6" fill="#199f4b" />
<text x="27" y="280" font-size="15" font-family="sans-serif" fill="#FFF">Vim Script (287 lines, 0.2%)</text>
<circle cx="266" cy="276" r="6" fill="#B83998" />
<text x="277" y="280" font-size="15" font-family="sans-serif" fill="#FFF">Erlang (220 lines, 0.1%)</text>
<circle cx="516" cy="276" r="6" fill="#000000" />
<text x="527" y="280" font-size="15" font-family="sans-serif" fill="#FFF">Bitbake (163 lines, 0.1%)</text>
<circle cx="16" cy="296" r="6" fill="#db5855" />
<text x="27" y="300" font-size="15" font-family="sans-serif" fill="#FFF">Clojure (156 lines, 0.1%)</text>
<circle cx="266" cy="296" r="6" fill="#0050b2" />
<text x="277" y="300" font-size="15" font-family="sans-serif" fill="#FFF">FreeMarker (103 lines, 0.1%)</text>
<circle cx="516" cy="296" r="6" fill="#701516" />
<text x="527" y="300" font-size="15" font-family="sans-serif" fill="#FFF">Ruby (100 lines, 0.1%)</text>
</svg>