<svg width="800" height="350" xmlns="http://www.w3.org/2000/svg">
<rect width="800" height="350" fill="#212830"/>
<rect x="10" y="40" width="105.74093452841349" height="50" fill="#555555"/>
<rect x="115.74093452841349" y="40" width="87.08676463897356" height="50" fill="#b07219"/>
<rect x="202.82769916738704" y="40" width="81.76532144319579" height="50" fill="#3572A5"/>
<rect x="284.5930206105828" y="40" width="77.93621183857319" height="50" fill="#c22d40"/>
<rect x="362.529232449156" y="40" width="68.19236543973794" height="50" fill="#00B4AB"/>
<rect x="430.72159788889394" y="40" width="62.033759497702356" height="50" fill="#A97BFF"/>
<rect x="492.7553573865963" y="40" width="58.34660357614086" height="50" fill="#dea584"/>
<rect x="551.1019609627372" y="40" width="45.450657445743666" height="50" fill="None"/>
<rect x="596.5526184084808" y="40" width="33.58478547704627" height="50" fill="#5e5086"/>
<rect x="630.1374038855271" y="40" width="33.40279357568588" height="50" fill="#000000"/>
<rect x="663.540197461213" y="40" width="30.046862914600307" height="50" fill="#3D6117"/>
<rect x="693.5870603758133" y="40" width="19.989990445425178" height="50" fill="#ec915c"/>
<rect x="713.5770508212385" y="40" width="18.821602438691478" height="50" fill="#89e051"/>
<rect x="732.3986532599299" y="40" width="16.74325492515583" height="50" fill="#239dad"/>
<rect x="749.1419081850858" y="40" width="12.379089130533691" height="50" fill="#000000"/>
<rect x="761.5209973156194" y="40" width="11.290777560398562" height="50" fill="#000080"/>
<rect x="772.8117748760179" y="40" width="7.796533054279084" height="50" fill="#000000"/>
<rect x="780.608307930297" y="40" width="7.013967878429409" height="50" fill="#f34b7d"/>
<rect x="787.6222758087264" y="40" width="5.987533554756812" height="50" fill="#000000"/>
<rect x="793.6098093634832" y="40" width="3.1921379498612312" height="50" fill="#000000"/>
<rect x="796.8019473133445" y="40" width="2.6134037035351927" height="50" fill="#427819"/>
<rect x="799.4153510168796" y="40" width="2.493289048637336" height="50" fill="#DA3434"/>
<rect x="801.9086400655169" y="40" width="1.9509531825833748" height="50" fill="#000000"/>
<rect x="803.8595932481003" y="40" width="1.5978888939442195" height="50" fill="#000000"/>
<rect x="805.4574821420445" y="40" width="1.0446335138086356" height="50" fill="#199f4b"/>
<rect x="806.5021156558531" y="40" width="0.8007643659857134" height="50" fill="#B83998"/>
<rect x="807.3028800218389" y="40" width="0.5932935984348696" height="50" fill="#000000"/>
<rect x="807.8961736202738" y="40" width="0.5678147322444151" height="50" fill="#db5855"/>
<rect x="808.4639883525182" y="40" width="0.43314072523772684" height="50" fill="#41b883"/>
<rect x="808.897129077756" y="40" width="0.3749033168024023" height="50" fill="#0050b2"/>
<rect x="809.2720323945583" y="40" width="0.36398380272077885" height="50" fill="#000000"/>
<rect x="809.6360161972791" y="40" width="0.36398380272077885" height="50" fill="#701516"/>
<circle cx="16" cy="116" r="6" fill="#555555" />
<text x="27" y="120" font-size="15" font-family="sans-serif" fill="#FFF">C (29.1k lines, 13.2%)</text>
<circle cx="266" cy="116" r="6" fill="#b07219" />
<text x="277" y="120" font-size="15" font-family="sans-serif" fill="#FFF">Java (23.9k lines, 10.9%)</text>
<circle cx="516" cy="116" r="6" fill="#3572A5" />
<text x="527" y="120" font-size="15" font-family="sans-serif" fill="#FFF">Python (22.5k lines, 10.2%)</text>
<circle cx="16" cy="136" r="6" fill="#c22d40" />
<text x="27" y="140" font-size="15" font-family="sans-serif" fill="#FFF">Scala (21.4k lines, 9.7%)</text>
<circle cx="266" cy="136" r="6" fill="#00B4AB" />
<text x="277" y="140" font-size="15" font-family="sans-serif" fill="#FFF">Dart (18.7k lines, 8.5%)</text>
<circle cx="516" cy="136" r="6" fill="#A97BFF" />
<text x="527" y="140" font-size="15" font-family="sans-serif" fill="#FFF">Kotlin (17.0k lines, 7.8%)</text>
<circle cx="16" cy="156" r="6" fill="#dea584" />
<text x="27" y="160" font-size="15" font-family="sans-serif" fill="#FFF">Rust (16.0k lines, 7.3%)</text>
<circle cx="266" cy="156" r="6" fill="None" />
<text x="277" y="160" font-size="15" font-family="sans-serif" fill="#FFF">Lean (12.5k lines, 5.7%)</text>
<circle cx="516" cy="156" r="6" fill="#5e5086" />
<text x="527" y="160" font-size="15" font-family="sans-serif" fill="#FFF">Haskell (9.2k lines, 4.2%)</text>
<circle cx="16" cy="176" r="6" fill="#000000" />
<text x="27" y="180" font-size="15" font-family="sans-serif" fill="#FFF">C Header (9.2k lines, 4.2%)</text>
<circle cx="266" cy="176" r="6" fill="#3D6117" />
<text x="277" y="180" font-size="15" font-family="sans-serif" fill="#FFF">TeX (8.3k lines, 3.8%)</text>
<circle cx="516" cy="176" r="6" fill="#ec915c" />
<text x="527" y="180" font-size="15" font-family="sans-serif" fill="#FFF">Zig (5.5k lines, 2.5%)</text>
<circle cx="16" cy="196" r="6" fill="#89e051" />
<text x="27" y="200" font-size="15" font-family="sans-serif" fill="#FFF">Shell (5.2k lines, 2.4%)</text>
<circle cx="266" cy="196" r="6" fill="#239dad" />
<text x="277" y="200" font-size="15" font-family="sans-serif" fill="#FFF">Typst (4.6k lines, 2.1%)</text>
<circle cx="516" cy="196" r="6" fill="#000000" />
<text x="527" y="200" font-size="15" font-family="sans-serif" fill="#FFF">Jupyter Not… (3.4k lines, 1.5%)</text>
<circle cx="16" cy="216" r="6" fill="#000080" />
<text x="27" y="220" font-size="15" font-family="sans-serif" fill="#FFF">Lua (3.1k lines, 1.4%)</text>
<circle cx="266" cy="216" r="6" fill="#000000" />
<text x="277" y="220" font-size="15" font-family="sans-serif" fill="#FFF">GNU Style A… (2.1k lines, 1.0%)</text>
<circle cx="516" cy="216" r="6" fill="#f34b7d" />
<text x="527" y="220" font-size="15" font-family="sans-serif" fill="#FFF">C++ (1.9k lines, 0.9%)</text>
<circle cx="16" cy="236" r="6" fill="#000000" />
<text x="27" y="240" font-size="15" font-family="sans-serif" fill="#FFF">Batch (1.6k lines, 0.7%)</text>
<circle cx="266" cy="236" r="6" fill="#000000" />
<text x="277" y="240" font-size="15" font-family="sans-serif" fill="#FFF">WebGPU Shad… (877 lines, 0.4%)</text>
<circle cx="516" cy="236" r="6" fill="#427819" />
<text x="527" y="240" font-size="15" font-family="sans-serif" fill="#FFF">Makefile (718 lines, 0.3%)</text>
<circle cx="16" cy="256" r="6" fill="#DA3434" />
<text x="27" y="260" font-size="15" font-family="sans-serif" fill="#FFF">CMake (685 lines, 0.3%)</text>
<circle cx="266" cy="256" r="6" fill="#000000" />
<text x="277" y="260" font-size="15" font-family="sans-serif" fill="#FFF">Cabal (536 lines, 0.2%)</text>
<circle cx="516" cy="256" r="6" fill="#000000" />
<text x="527" y="260" font-size="15" font-family="sans-serif" fill="#FFF">Templ (439 lines, 0.2%)</text>
<circle cx="16" cy="276" r="6" fill="#199f4b" />
<text x="27" y="280" font-size="15" font-family="sans-serif" fill="#FFF">Vim Script (287 lines, 0.1%)</text>
<circle cx="266" cy="276" r="6" fill="#B83998" />
<text x="277" y="280" font-size="15" font-family="sans-serif" fill="#FFF">Erlang (220 lines, 0.1%)</text>
<circle cx="516" cy="276" r="6" fill="#000000" />
<text x="527" y="280" font-size="15" font-family="sans-serif" fill="#FFF">Bitbake (163 lines, 0.1%)</text>
<circle cx="16" cy="296" r="6" fill="#db5855" />
<text x="27" y="300" font-size="15" font-family="sans-serif" fill="#FFF">Clojure (156 lines, 0.1%)</text>
<circle cx="266" cy="296" r="6" fill="#41b883" />
<text x="277" y="300" font-size="15" font-family="sans-serif" fill="#FFF">Vue (119 lines, 0.1%)</text>
<circle cx="516" cy="296" r="6" fill="#0050b2" />
<text x="527" y="300" font-size="15" font-family="sans-serif" fill="#FFF">FreeMarker (103 lines, 0.0%)</text>
<circle cx="16" cy="316" r="6" fill="#000000" />
<text x="27" y="320" font-size="15" font-family="sans-serif" fill="#FFF">Fish (100 lines, 0.0%)</text>
<circle cx="266" cy="316" r="6" fill="#701516" />
<text x="277" y="320" font-size="15" font-family="sans-serif" fill="#FFF">Ruby (100 lines, 0.0%)</text>
</svg>