<svg width="800" height="330" xmlns="http://www.w3.org/2000/svg">
<rect width="800" height="330" fill="#212830"/>
<rect x="10" y="40" width="140.239255542069" height="50" fill="#555555"/>
<rect x="150.239255542069" y="40" width="115.58663502358135" height="50" fill="#b07219"/>
<rect x="265.82589056565035" y="40" width="99.1563856833155" height="50" fill="#c22d40"/>
<rect x="364.98227624896583" y="40" width="64.57121807762218" height="50" fill="#A97BFF"/>
<rect x="429.553494326588" y="40" width="63.8417362633381" height="50" fill="#00B4AB"/>
<rect x="493.3952305899261" y="40" width="47.36317686914618" height="50" fill="None"/>
<rect x="540.7584074590723" y="40" width="44.47423564436554" height="50" fill="#5e5086"/>
<rect x="585.2326431034378" y="40" width="44.33413648797986" height="50" fill="#000000"/>
<rect x="629.5667795914177" y="40" width="39.879949515993644" height="50" fill="#3D6117"/>
<rect x="669.4467291074113" y="40" width="32.86532968592426" height="50" fill="#3572A5"/>
<rect x="702.3120587933356" y="40" width="22.918289582540748" height="50" fill="#89e051"/>
<rect x="725.2303483758764" y="40" width="14.932637668556797" height="50" fill="#239dad"/>
<rect x="740.1629860444332" y="40" width="11.700695060900863" height="50" fill="#000080"/>
<rect x="751.8636811053341" y="40" width="10.348013550970126" height="50" fill="#000000"/>
<rect x="762.2116946563042" y="40" width="8.96634600868373" height="50" fill="#dea584"/>
<rect x="771.178040664988" y="40" width="7.637819525716045" height="50" fill="#000000"/>
<rect x="778.815860190704" y="40" width="7.5653544448269" height="50" fill="#f34b7d"/>
<rect x="786.3812146355309" y="40" width="4.173988659214841" height="50" fill="#ec915c"/>
<rect x="790.5552032947458" y="40" width="3.671564098383425" height="50" fill="#000000"/>
<rect x="794.2267673931292" y="40" width="3.309238693937692" height="50" fill="#DA3434"/>
<rect x="797.5360060870669" y="40" width="2.782659106143227" height="50" fill="#427819"/>
<rect x="800.3186651932101" y="40" width="2.589418890438837" height="50" fill="#000000"/>
<rect x="802.908084083649" y="40" width="2.1208113673556888" height="50" fill="#000000"/>
<rect x="805.0288954510047" y="40" width="1.3864985476790037" height="50" fill="#199f4b"/>
<rect x="806.4153939986837" y="40" width="1.0628211863741495" height="50" fill="#B83998"/>
<rect x="807.4782151850578" y="40" width="0.7874538789953924" height="50" fill="#000000"/>
<rect x="808.2656690640532" y="40" width="0.753636841247124" height="50" fill="#db5855"/>
<rect x="809.0193059053004" y="40" width="0.49759355543880623" height="50" fill="#0050b2"/>
<rect x="809.5168994607392" y="40" width="0.48310053926097696" height="50" fill="#701516"/>
<circle cx="16" cy="116" r="6" fill="#555555" />
<text x="27" y="120" font-size="15" font-family="sans-serif" fill="#FFF">C (29.0k lines, 17.5%)</text>
<circle cx="266" cy="116" r="6" fill="#b07219" />
<text x="277" y="120" font-size="15" font-family="sans-serif" fill="#FFF">Java (23.9k lines, 14.4%)</text>
<circle cx="516" cy="116" r="6" fill="#c22d40" />
<text x="527" y="120" font-size="15" font-family="sans-serif" fill="#FFF">Scala (20.5k lines, 12.4%)</text>
<circle cx="16" cy="136" r="6" fill="#A97BFF" />
<text x="27" y="140" font-size="15" font-family="sans-serif" fill="#FFF">Kotlin (13.4k lines, 8.1%)</text>
<circle cx="266" cy="136" r="6" fill="#00B4AB" />
<text x="277" y="140" font-size="15" font-family="sans-serif" fill="#FFF">Dart (13.2k lines, 8.0%)</text>
<circle cx="516" cy="136" r="6" fill="None" />
<text x="527" y="140" font-size="15" font-family="sans-serif" fill="#FFF">Lean (9.8k lines, 5.9%)</text>
<circle cx="16" cy="156" r="6" fill="#5e5086" />
<text x="27" y="160" font-size="15" font-family="sans-serif" fill="#FFF">Haskell (9.2k lines, 5.6%)</text>
<circle cx="266" cy="156" r="6" fill="#000000" />
<text x="277" y="160" font-size="15" font-family="sans-serif" fill="#FFF">C Header (9.2k lines, 5.5%)</text>
<circle cx="516" cy="156" r="6" fill="#3D6117" />
<text x="527" y="160" font-size="15" font-family="sans-serif" fill="#FFF">TeX (8.3k lines, 5.0%)</text>
<circle cx="16" cy="176" r="6" fill="#3572A5" />
<text x="27" y="180" font-size="15" font-family="sans-serif" fill="#FFF">Python (6.8k lines, 4.1%)</text>
<circle cx="266" cy="176" r="6" fill="#89e051" />
<text x="277" y="180" font-size="15" font-family="sans-serif" fill="#FFF">Shell (4.7k lines, 2.9%)</text>
<circle cx="516" cy="176" r="6" fill="#239dad" />
<text x="527" y="180" font-size="15" font-family="sans-serif" fill="#FFF">Typst (3.1k lines, 1.9%)</text>
<circle cx="16" cy="196" r="6" fill="#000080" />
<text x="27" y="200" font-size="15" font-family="sans-serif" fill="#FFF">Lua (2.4k lines, 1.5%)</text>
<circle cx="266" cy="196" r="6" fill="#000000" />
<text x="277" y="200" font-size="15" font-family="sans-serif" fill="#FFF">GNU Style A… (2.1k lines, 1.3%)</text>
<circle cx="516" cy="196" r="6" fill="#dea584" />
<text x="527" y="200" font-size="15" font-family="sans-serif" fill="#FFF">Rust (1.9k lines, 1.1%)</text>
<circle cx="16" cy="216" r="6" fill="#000000" />
<text x="27" y="220" font-size="15" font-family="sans-serif" fill="#FFF">Batch (1.6k lines, 1.0%)</text>
<circle cx="266" cy="216" r="6" fill="#f34b7d" />
<text x="277" y="220" font-size="15" font-family="sans-serif" fill="#FFF">C++ (1.6k lines, 0.9%)</text>
<circle cx="516" cy="216" r="6" fill="#ec915c" />
<text x="527" y="220" font-size="15" font-family="sans-serif" fill="#FFF">Zig (864 lines, 0.5%)</text>
<circle cx="16" cy="236" r="6" fill="#000000" />
<text x="27" y="240" font-size="15" font-family="sans-serif" fill="#FFF">WebGPU Shad… (760 lines, 0.5%)</text>
<circle cx="266" cy="236" r="6" fill="#DA3434" />
<text x="277" y="240" font-size="15" font-family="sans-serif" fill="#FFF">CMake (685 lines, 0.4%)</text>
<circle cx="516" cy="236" r="6" fill="#427819" />
<text x="527" y="240" font-size="15" font-family="sans-serif" fill="#FFF">Makefile (576 lines, 0.3%)</text>
<circle cx="16" cy="256" r="6" fill="#000000" />
<text x="27" y="260" font-size="15" font-family="sans-serif" fill="#FFF">Cabal (536 lines, 0.3%)</text>
<circle cx="266" cy="256" r="6" fill="#000000" />
<text x="277" y="260" font-size="15" font-family="sans-serif" fill="#FFF">Templ (439 lines, 0.3%)</text>
<circle cx="516" cy="256" r="6" fill="#199f4b" />
<text x="527" y="260" font-size="15" font-family="sans-serif" fill="#FFF">Vim Script (287 lines, 0.2%)</text>
<circle cx="16" cy="276" r="6" fill="#B83998" />
<text x="27" y="280" font-size="15" font-family="sans-serif" fill="#FFF">Erlang (220 lines, 0.1%)</text>
<circle cx="266" cy="276" r="6" fill="#000000" />
<text x="277" y="280" font-size="15" font-family="sans-serif" fill="#FFF">Bitbake (163 lines, 0.1%)</text>
<circle cx="516" cy="276" r="6" fill="#db5855" />
<text x="527" y="280" font-size="15" font-family="sans-serif" fill="#FFF">Clojure (156 lines, 0.1%)</text>
<circle cx="16" cy="296" r="6" fill="#0050b2" />
<text x="27" y="300" font-size="15" font-family="sans-serif" fill="#FFF">FreeMarker (103 lines, 0.1%)</text>
<circle cx="266" cy="296" r="6" fill="#701516" />
<text x="277" y="300" font-size="15" font-family="sans-serif" fill="#FFF">Ruby (100 lines, 0.1%)</text>
</svg>