<svg width="800" height="350" xmlns="http://www.w3.org/2000/svg">
<rect x="10" y="40" width="131.12282429614498" height="50" fill="#555555"/>
<rect x="141.12282429614498" y="40" width="116.36664295658623" height="50" fill="#b07219"/>
<rect x="257.48946725273123" y="40" width="99.82551812605251" height="50" fill="#c22d40"/>
<rect x="357.3149853787837" y="40" width="89.36876470480951" height="50" fill="#A97BFF"/>
<rect x="446.6837500835932" y="40" width="62.23470547824448" height="50" fill="#00B4AB"/>
<rect x="508.91845556183773" y="40" width="44.77435906788986" height="50" fill="#5e5086"/>
<rect x="553.6928146297275" y="40" width="43.00400639564221" height="50" fill="#000000"/>
<rect x="596.6968210253698" y="40" width="40.149069531330746" height="50" fill="#3D6117"/>
<rect x="636.8458905567005" y="40" width="33.04334081112793" height="50" fill="#3572A5"/>
<rect x="669.8892313678284" y="40" width="24.497984643163292" height="50" fill="#89e051"/>
<rect x="694.3872160109917" y="40" width="23.85598861916139" height="50" fill="None"/>
<rect x="718.2432046301531" y="40" width="12.995555879795972" height="50" fill="#239dad"/>
<rect x="731.2387605099491" y="40" width="11.716427438034618" height="50" fill="#000080"/>
<rect x="742.9551879479837" y="40" width="10.417844571303506" height="50" fill="#000000"/>
<rect x="753.3730325192872" y="40" width="9.026853185966065" height="50" fill="#dea584"/>
<rect x="762.3998857052533" y="40" width="8.034677512508587" height="50" fill="#000000"/>
<rect x="770.4345632177618" y="40" width="7.616407375658866" height="50" fill="#f34b7d"/>
<rect x="778.0509705934207" y="40" width="7.616407375658866" height="50" fill="#e38c00"/>
<rect x="785.6673779690796" y="40" width="4.202155793466961" height="50" fill="#ec915c"/>
<rect x="789.8695337625466" y="40" width="3.6963407442533454" height="50" fill="#000000"/>
<rect x="793.5658745067999" y="40" width="3.3315702760704493" height="50" fill="#DA3434"/>
<rect x="796.8974447828704" y="40" width="2.6068929459470964" height="50" fill="#000000"/>
<rect x="799.5043377288175" y="40" width="2.4172123024919903" height="50" fill="#427819"/>
<rect x="801.9215500313095" y="40" width="2.135123140430551" height="50" fill="#000000"/>
<rect x="804.05667317174" y="40" width="1.5271723601257243" height="50" fill="#384d54"/>
<rect x="805.5838455318658" y="40" width="1.0699933733364948" height="50" fill="#B83998"/>
<rect x="806.6538389052023" y="40" width="0.8073586362448097" height="50" fill="#199f4b"/>
<rect x="807.4611975414471" y="40" width="0.7927678175174937" height="50" fill="#000000"/>
<rect x="808.2539653589646" y="40" width="0.7587225738204235" height="50" fill="#db5855"/>
<rect x="809.0126879327851" y="40" width="0.500951442971177" height="50" fill="#0050b2"/>
<rect x="809.5136393757563" y="40" width="0.48636062424386123" height="50" fill="#701516"/>
<circle cx="16" cy="116" r="6" fill="#555555" />
<text x="27" y="120" font-size="15" font-family="sans-serif" fill="#FFF">C (27.0k lines, 16.4%)</text>
<circle cx="266" cy="116" r="6" fill="#b07219" />
<text x="277" y="120" font-size="15" font-family="sans-serif" fill="#FFF">Java (23.9k lines, 14.5%)</text>
<circle cx="516" cy="116" r="6" fill="#c22d40" />
<text x="527" y="120" font-size="15" font-family="sans-serif" fill="#FFF">Scala (20.5k lines, 12.5%)</text>
<circle cx="16" cy="136" r="6" fill="#A97BFF" />
<text x="27" y="140" font-size="15" font-family="sans-serif" fill="#FFF">Kotlin (18.4k lines, 11.2%)</text>
<circle cx="266" cy="136" r="6" fill="#00B4AB" />
<text x="277" y="140" font-size="15" font-family="sans-serif" fill="#FFF">Dart (12.8k lines, 7.8%)</text>
<circle cx="516" cy="136" r="6" fill="#5e5086" />
<text x="527" y="140" font-size="15" font-family="sans-serif" fill="#FFF">Haskell (9.2k lines, 5.6%)</text>
<circle cx="16" cy="156" r="6" fill="#000000" />
<text x="27" y="160" font-size="15" font-family="sans-serif" fill="#FFF">C Header (8.8k lines, 5.4%)</text>
<circle cx="266" cy="156" r="6" fill="#3D6117" />
<text x="277" y="160" font-size="15" font-family="sans-serif" fill="#FFF">TeX (8.3k lines, 5.0%)</text>
<circle cx="516" cy="156" r="6" fill="#3572A5" />
<text x="527" y="160" font-size="15" font-family="sans-serif" fill="#FFF">Python (6.8k lines, 4.1%)</text>
<circle cx="16" cy="176" r="6" fill="#89e051" />
<text x="27" y="180" font-size="15" font-family="sans-serif" fill="#FFF">Shell (5.0k lines, 3.1%)</text>
<circle cx="266" cy="176" r="6" fill="None" />
<text x="277" y="180" font-size="15" font-family="sans-serif" fill="#FFF">Lean (4.9k lines, 3.0%)</text>
<circle cx="516" cy="176" r="6" fill="#239dad" />
<text x="527" y="180" font-size="15" font-family="sans-serif" fill="#FFF">Typst (2.7k lines, 1.6%)</text>
<circle cx="16" cy="196" r="6" fill="#000080" />
<text x="27" y="200" font-size="15" font-family="sans-serif" fill="#FFF">Lua (2.4k lines, 1.5%)</text>
<circle cx="266" cy="196" r="6" fill="#000000" />
<text x="277" y="200" font-size="15" font-family="sans-serif" fill="#FFF">GNU Style A… (2.1k lines, 1.3%)</text>
<circle cx="516" cy="196" r="6" fill="#dea584" />
<text x="527" y="200" font-size="15" font-family="sans-serif" fill="#FFF">Rust (1.9k lines, 1.1%)</text>
<circle cx="16" cy="216" r="6" fill="#000000" />
<text x="27" y="220" font-size="15" font-family="sans-serif" fill="#FFF">Batch (1.7k lines, 1.0%)</text>
<circle cx="266" cy="216" r="6" fill="#f34b7d" />
<text x="277" y="220" font-size="15" font-family="sans-serif" fill="#FFF">C++ (1.6k lines, 1.0%)</text>
<circle cx="516" cy="216" r="6" fill="#e38c00" />
<text x="527" y="220" font-size="15" font-family="sans-serif" fill="#FFF">SQL (1.6k lines, 1.0%)</text>
<circle cx="16" cy="236" r="6" fill="#ec915c" />
<text x="27" y="240" font-size="15" font-family="sans-serif" fill="#FFF">Zig (864 lines, 0.5%)</text>
<circle cx="266" cy="236" r="6" fill="#000000" />
<text x="277" y="240" font-size="15" font-family="sans-serif" fill="#FFF">WebGPU Shad… (760 lines, 0.5%)</text>
<circle cx="516" cy="236" r="6" fill="#DA3434" />
<text x="527" y="240" font-size="15" font-family="sans-serif" fill="#FFF">CMake (685 lines, 0.4%)</text>
<circle cx="16" cy="256" r="6" fill="#000000" />
<text x="27" y="260" font-size="15" font-family="sans-serif" fill="#FFF">Cabal (536 lines, 0.3%)</text>
<circle cx="266" cy="256" r="6" fill="#427819" />
<text x="277" y="260" font-size="15" font-family="sans-serif" fill="#FFF">Makefile (497 lines, 0.3%)</text>
<circle cx="516" cy="256" r="6" fill="#000000" />
<text x="527" y="260" font-size="15" font-family="sans-serif" fill="#FFF">Templ (439 lines, 0.3%)</text>
<circle cx="16" cy="276" r="6" fill="#384d54" />
<text x="27" y="280" font-size="15" font-family="sans-serif" fill="#FFF">Dockerfile (314 lines, 0.2%)</text>
<circle cx="266" cy="276" r="6" fill="#B83998" />
<text x="277" y="280" font-size="15" font-family="sans-serif" fill="#FFF">Erlang (220 lines, 0.1%)</text>
<circle cx="516" cy="276" r="6" fill="#199f4b" />
<text x="527" y="280" font-size="15" font-family="sans-serif" fill="#FFF">Vim Script (166 lines, 0.1%)</text>
<circle cx="16" cy="296" r="6" fill="#000000" />
<text x="27" y="300" font-size="15" font-family="sans-serif" fill="#FFF">Bitbake (163 lines, 0.1%)</text>
<circle cx="266" cy="296" r="6" fill="#db5855" />
<text x="277" y="300" font-size="15" font-family="sans-serif" fill="#FFF">Clojure (156 lines, 0.1%)</text>
<circle cx="516" cy="296" r="6" fill="#0050b2" />
<text x="527" y="300" font-size="15" font-family="sans-serif" fill="#FFF">FreeMarker (103 lines, 0.1%)</text>
<circle cx="16" cy="316" r="6" fill="#701516" />
<text x="27" y="320" font-size="15" font-family="sans-serif" fill="#FFF">Ruby (100 lines, 0.1%)</text>
</svg>