<svg width="800" height="330" xmlns="http://www.w3.org/2000/svg">
<rect width="800" height="330" fill="#212830"/>
<rect x="10" y="40" width="137.7323937818921" height="50" fill="#555555"/>
<rect x="147.7323937818921" y="40" width="113.43839083048366" height="50" fill="#b07219"/>
<rect x="261.17078461237577" y="40" width="97.31350713849692" height="50" fill="#c22d40"/>
<rect x="358.48429175087267" y="40" width="64.28143872271576" height="50" fill="#A97BFF"/>
<rect x="422.7657304735884" y="40" width="62.873296865461995" height="50" fill="#00B4AB"/>
<rect x="485.6390273390504" y="40" width="46.48290494449812" height="50" fill="None"/>
<rect x="532.1219322835485" y="40" width="43.647656356492206" height="50" fill="#5e5086"/>
<rect x="575.7695886400408" y="40" width="43.510161023629045" height="50" fill="#000000"/>
<rect x="619.2797496636698" y="40" width="39.138757682255395" height="50" fill="#3D6117"/>
<rect x="658.4185073459251" y="40" width="32.75707775005482" height="50" fill="#3572A5"/>
<rect x="691.17558509598" y="40" width="22.49233996906355" height="50" fill="#89e051"/>
<rect x="713.6679250650435" y="40" width="21.823828178246103" height="50" fill="#dea584"/>
<rect x="735.4917532432896" y="40" width="14.655105995863288" height="50" fill="#239dad"/>
<rect x="750.146859239153" y="40" width="11.50219577675973" height="50" fill="#000080"/>
<rect x="761.6490550159127" y="40" width="10.15568975837566" height="50" fill="#000000"/>
<rect x="771.8047447742883" y="40" width="7.495866250229653" height="50" fill="#000000"/>
<rect x="779.300611024518" y="40" width="7.424747974610775" height="50" fill="#f34b7d"/>
<rect x="786.7253589991288" y="40" width="4.096412675647324" height="50" fill="#ec915c"/>
<rect x="790.8217716747762" y="40" width="3.603325964689776" height="50" fill="#000000"/>
<rect x="794.425097639466" y="40" width="3.2477345865953904" height="50" fill="#DA3434"/>
<rect x="797.6728322260614" y="40" width="2.8257661512567194" height="50" fill="#427819"/>
<rect x="800.4985983773181" y="40" width="2.5412930487812107" height="50" fill="#000000"/>
<rect x="803.0398914260993" y="40" width="2.081394866445805" height="50" fill="#000000"/>
<rect x="805.121286292545" y="40" width="1.3607296735078496" height="50" fill="#199f4b"/>
<rect x="806.4820159660529" y="40" width="1.0430680424101983" height="50" fill="#B83998"/>
<rect x="807.5250840084632" y="40" width="0.7728185950584652" height="50" fill="#000000"/>
<rect x="808.2979026035216" y="40" width="0.7396300664363225" height="50" fill="#db5855"/>
<rect x="809.037532669958" y="40" width="0.48834549258295645" height="50" fill="#0050b2"/>
<rect x="809.525878162541" y="40" width="0.4741218374591811" height="50" fill="#701516"/>
<circle cx="16" cy="116" r="6" fill="#555555" />
<text x="27" y="120" font-size="15" font-family="sans-serif" fill="#FFF">C (29.1k lines, 17.2%)</text>
<circle cx="266" cy="116" r="6" fill="#b07219" />
<text x="277" y="120" font-size="15" font-family="sans-serif" fill="#FFF">Java (23.9k lines, 14.2%)</text>
<circle cx="516" cy="116" r="6" fill="#c22d40" />
<text x="527" y="120" font-size="15" font-family="sans-serif" fill="#FFF">Scala (20.5k lines, 12.2%)</text>
<circle cx="16" cy="136" r="6" fill="#A97BFF" />
<text x="27" y="140" font-size="15" font-family="sans-serif" fill="#FFF">Kotlin (13.6k lines, 8.0%)</text>
<circle cx="266" cy="136" r="6" fill="#00B4AB" />
<text x="277" y="140" font-size="15" font-family="sans-serif" fill="#FFF">Dart (13.3k lines, 7.9%)</text>
<circle cx="516" cy="136" r="6" fill="None" />
<text x="527" y="140" font-size="15" font-family="sans-serif" fill="#FFF">Lean (9.8k lines, 5.8%)</text>
<circle cx="16" cy="156" r="6" fill="#5e5086" />
<text x="27" y="160" font-size="15" font-family="sans-serif" fill="#FFF">Haskell (9.2k lines, 5.5%)</text>
<circle cx="266" cy="156" r="6" fill="#000000" />
<text x="277" y="160" font-size="15" font-family="sans-serif" fill="#FFF">C Header (9.2k lines, 5.4%)</text>
<circle cx="516" cy="156" r="6" fill="#3D6117" />
<text x="527" y="160" font-size="15" font-family="sans-serif" fill="#FFF">TeX (8.3k lines, 4.9%)</text>
<circle cx="16" cy="176" r="6" fill="#3572A5" />
<text x="27" y="180" font-size="15" font-family="sans-serif" fill="#FFF">Python (6.9k lines, 4.1%)</text>
<circle cx="266" cy="176" r="6" fill="#89e051" />
<text x="277" y="180" font-size="15" font-family="sans-serif" fill="#FFF">Shell (4.7k lines, 2.8%)</text>
<circle cx="516" cy="176" r="6" fill="#dea584" />
<text x="527" y="180" font-size="15" font-family="sans-serif" fill="#FFF">Rust (4.6k lines, 2.7%)</text>
<circle cx="16" cy="196" r="6" fill="#239dad" />
<text x="27" y="200" font-size="15" font-family="sans-serif" fill="#FFF">Typst (3.1k lines, 1.8%)</text>
<circle cx="266" cy="196" r="6" fill="#000080" />
<text x="277" y="200" font-size="15" font-family="sans-serif" fill="#FFF">Lua (2.4k lines, 1.4%)</text>
<circle cx="516" cy="196" r="6" fill="#000000" />
<text x="527" y="200" font-size="15" font-family="sans-serif" fill="#FFF">GNU Style A… (2.1k lines, 1.3%)</text>
<circle cx="16" cy="216" r="6" fill="#000000" />
<text x="27" y="220" font-size="15" font-family="sans-serif" fill="#FFF">Batch (1.6k lines, 0.9%)</text>
<circle cx="266" cy="216" r="6" fill="#f34b7d" />
<text x="277" y="220" font-size="15" font-family="sans-serif" fill="#FFF">C++ (1.6k lines, 0.9%)</text>
<circle cx="516" cy="216" r="6" fill="#ec915c" />
<text x="527" y="220" font-size="15" font-family="sans-serif" fill="#FFF">Zig (864 lines, 0.5%)</text>
<circle cx="16" cy="236" r="6" fill="#000000" />
<text x="27" y="240" font-size="15" font-family="sans-serif" fill="#FFF">WebGPU Shad… (760 lines, 0.5%)</text>
<circle cx="266" cy="236" r="6" fill="#DA3434" />
<text x="277" y="240" font-size="15" font-family="sans-serif" fill="#FFF">CMake (685 lines, 0.4%)</text>
<circle cx="516" cy="236" r="6" fill="#427819" />
<text x="527" y="240" font-size="15" font-family="sans-serif" fill="#FFF">Makefile (596 lines, 0.4%)</text>
<circle cx="16" cy="256" r="6" fill="#000000" />
<text x="27" y="260" font-size="15" font-family="sans-serif" fill="#FFF">Cabal (536 lines, 0.3%)</text>
<circle cx="266" cy="256" r="6" fill="#000000" />
<text x="277" y="260" font-size="15" font-family="sans-serif" fill="#FFF">Templ (439 lines, 0.3%)</text>
<circle cx="516" cy="256" r="6" fill="#199f4b" />
<text x="527" y="260" font-size="15" font-family="sans-serif" fill="#FFF">Vim Script (287 lines, 0.2%)</text>
<circle cx="16" cy="276" r="6" fill="#B83998" />
<text x="27" y="280" font-size="15" font-family="sans-serif" fill="#FFF">Erlang (220 lines, 0.1%)</text>
<circle cx="266" cy="276" r="6" fill="#000000" />
<text x="277" y="280" font-size="15" font-family="sans-serif" fill="#FFF">Bitbake (163 lines, 0.1%)</text>
<circle cx="516" cy="276" r="6" fill="#db5855" />
<text x="527" y="280" font-size="15" font-family="sans-serif" fill="#FFF">Clojure (156 lines, 0.1%)</text>
<circle cx="16" cy="296" r="6" fill="#0050b2" />
<text x="27" y="300" font-size="15" font-family="sans-serif" fill="#FFF">FreeMarker (103 lines, 0.1%)</text>
<circle cx="266" cy="296" r="6" fill="#701516" />
<text x="277" y="300" font-size="15" font-family="sans-serif" fill="#FFF">Ruby (100 lines, 0.1%)</text>
</svg>