<svg width="800" height="330" xmlns="http://www.w3.org/2000/svg">
<rect width="800" height="330" fill="#212830"/>
<rect x="10" y="40" width="140.20091277954666" height="50" fill="#555555"/>
<rect x="150.20091277954666" y="40" width="121.1604073959197" height="50" fill="#b07219"/>
<rect x="271.36132017546635" y="40" width="103.93786515929332" height="50" fill="#c22d40"/>
<rect x="375.29918533475967" y="40" width="67.2595724748226" height="50" fill="#A97BFF"/>
<rect x="442.5587578095823" y="40" width="58.76730451515707" height="50" fill="#00B4AB"/>
<rect x="501.3260623247394" y="40" width="46.61885440469936" height="50" fill="#5e5086"/>
<rect x="547.9449167294388" y="40" width="45.35792731945385" height="50" fill="#000000"/>
<rect x="593.3028440488927" y="40" width="41.803024452617116" height="50" fill="#3D6117"/>
<rect x="635.1058685015098" y="40" width="33.43735559789592" height="50" fill="None"/>
<rect x="668.5432240994057" y="40" width="28.803828356933515" height="50" fill="#3572A5"/>
<rect x="697.3470524563393" y="40" width="24.02344615423569" height="50" fill="#89e051"/>
<rect x="721.3704986105749" y="40" width="15.65271333531672" height="50" fill="#239dad"/>
<rect x="737.0232119458917" y="40" width="12.254793358610955" height="50" fill="#000080"/>
<rect x="749.2780053045027" y="40" width="10.847011311630027" height="50" fill="#000000"/>
<rect x="760.1250166161327" y="40" width="9.398717551066914" height="50" fill="#dea584"/>
<rect x="769.5237341671997" y="40" width="8.006127396679306" height="50" fill="#000000"/>
<rect x="777.529861563879" y="40" width="7.930167933712709" height="50" fill="#f34b7d"/>
<rect x="785.4600294975917" y="40" width="4.375265066875977" height="50" fill="#ec915c"/>
<rect x="789.8352945644676" y="40" width="3.8486127903075724" height="50" fill="#000000"/>
<rect x="793.6839073547752" y="40" width="3.468815475474588" height="50" fill="#DA3434"/>
<rect x="797.1527228302498" y="40" width="2.7142848100063928" height="50" fill="#000000"/>
<rect x="799.8670076402561" y="40" width="2.6990929174130738" height="50" fill="#427819"/>
<rect x="802.5661005576692" y="40" width="2.2230802828224006" height="50" fill="#000000"/>
<rect x="804.7891808404916" y="40" width="1.453357724760886" height="50" fill="#199f4b"/>
<rect x="806.2425385652524" y="40" width="1.1140721235100868" height="50" fill="#B83998"/>
<rect x="807.3566106887625" y="40" width="0.8254261642370189" height="50" fill="#000000"/>
<rect x="808.1820368529995" y="40" width="0.7899784148526069" height="50" fill="#db5855"/>
<rect x="808.9720152678522" y="40" width="0.5215883123706315" height="50" fill="#0050b2"/>
<rect x="809.4936035802228" y="40" width="0.5063964197773121" height="50" fill="#701516"/>
<circle cx="16" cy="116" r="6" fill="#555555" />
<text x="27" y="120" font-size="15" font-family="sans-serif" fill="#FFF">C (27.7k lines, 17.5%)</text>
<circle cx="266" cy="116" r="6" fill="#b07219" />
<text x="277" y="120" font-size="15" font-family="sans-serif" fill="#FFF">Java (23.9k lines, 15.1%)</text>
<circle cx="516" cy="116" r="6" fill="#c22d40" />
<text x="527" y="120" font-size="15" font-family="sans-serif" fill="#FFF">Scala (20.5k lines, 13.0%)</text>
<circle cx="16" cy="136" r="6" fill="#A97BFF" />
<text x="27" y="140" font-size="15" font-family="sans-serif" fill="#FFF">Kotlin (13.3k lines, 8.4%)</text>
<circle cx="266" cy="136" r="6" fill="#00B4AB" />
<text x="277" y="140" font-size="15" font-family="sans-serif" fill="#FFF">Dart (11.6k lines, 7.3%)</text>
<circle cx="516" cy="136" r="6" fill="#5e5086" />
<text x="527" y="140" font-size="15" font-family="sans-serif" fill="#FFF">Haskell (9.2k lines, 5.8%)</text>
<circle cx="16" cy="156" r="6" fill="#000000" />
<text x="27" y="160" font-size="15" font-family="sans-serif" fill="#FFF">C Header (9.0k lines, 5.7%)</text>
<circle cx="266" cy="156" r="6" fill="#3D6117" />
<text x="277" y="160" font-size="15" font-family="sans-serif" fill="#FFF">TeX (8.3k lines, 5.2%)</text>
<circle cx="516" cy="156" r="6" fill="None" />
<text x="527" y="160" font-size="15" font-family="sans-serif" fill="#FFF">Lean (6.6k lines, 4.2%)</text>
<circle cx="16" cy="176" r="6" fill="#3572A5" />
<text x="27" y="180" font-size="15" font-family="sans-serif" fill="#FFF">Python (5.7k lines, 3.6%)</text>
<circle cx="266" cy="176" r="6" fill="#89e051" />
<text x="277" y="180" font-size="15" font-family="sans-serif" fill="#FFF">Shell (4.7k lines, 3.0%)</text>
<circle cx="516" cy="176" r="6" fill="#239dad" />
<text x="527" y="180" font-size="15" font-family="sans-serif" fill="#FFF">Typst (3.1k lines, 2.0%)</text>
<circle cx="16" cy="196" r="6" fill="#000080" />
<text x="27" y="200" font-size="15" font-family="sans-serif" fill="#FFF">Lua (2.4k lines, 1.5%)</text>
<circle cx="266" cy="196" r="6" fill="#000000" />
<text x="277" y="200" font-size="15" font-family="sans-serif" fill="#FFF">GNU Style A… (2.1k lines, 1.4%)</text>
<circle cx="516" cy="196" r="6" fill="#dea584" />
<text x="527" y="200" font-size="15" font-family="sans-serif" fill="#FFF">Rust (1.9k lines, 1.2%)</text>
<circle cx="16" cy="216" r="6" fill="#000000" />
<text x="27" y="220" font-size="15" font-family="sans-serif" fill="#FFF">Batch (1.6k lines, 1.0%)</text>
<circle cx="266" cy="216" r="6" fill="#f34b7d" />
<text x="277" y="220" font-size="15" font-family="sans-serif" fill="#FFF">C++ (1.6k lines, 1.0%)</text>
<circle cx="516" cy="216" r="6" fill="#ec915c" />
<text x="527" y="220" font-size="15" font-family="sans-serif" fill="#FFF">Zig (864 lines, 0.5%)</text>
<circle cx="16" cy="236" r="6" fill="#000000" />
<text x="27" y="240" font-size="15" font-family="sans-serif" fill="#FFF">WebGPU Shad… (760 lines, 0.5%)</text>
<circle cx="266" cy="236" r="6" fill="#DA3434" />
<text x="277" y="240" font-size="15" font-family="sans-serif" fill="#FFF">CMake (685 lines, 0.4%)</text>
<circle cx="516" cy="236" r="6" fill="#000000" />
<text x="527" y="240" font-size="15" font-family="sans-serif" fill="#FFF">Cabal (536 lines, 0.3%)</text>
<circle cx="16" cy="256" r="6" fill="#427819" />
<text x="27" y="260" font-size="15" font-family="sans-serif" fill="#FFF">Makefile (533 lines, 0.3%)</text>
<circle cx="266" cy="256" r="6" fill="#000000" />
<text x="277" y="260" font-size="15" font-family="sans-serif" fill="#FFF">Templ (439 lines, 0.3%)</text>
<circle cx="516" cy="256" r="6" fill="#199f4b" />
<text x="527" y="260" font-size="15" font-family="sans-serif" fill="#FFF">Vim Script (287 lines, 0.2%)</text>
<circle cx="16" cy="276" r="6" fill="#B83998" />
<text x="27" y="280" font-size="15" font-family="sans-serif" fill="#FFF">Erlang (220 lines, 0.1%)</text>
<circle cx="266" cy="276" r="6" fill="#000000" />
<text x="277" y="280" font-size="15" font-family="sans-serif" fill="#FFF">Bitbake (163 lines, 0.1%)</text>
<circle cx="516" cy="276" r="6" fill="#db5855" />
<text x="527" y="280" font-size="15" font-family="sans-serif" fill="#FFF">Clojure (156 lines, 0.1%)</text>
<circle cx="16" cy="296" r="6" fill="#0050b2" />
<text x="27" y="300" font-size="15" font-family="sans-serif" fill="#FFF">FreeMarker (103 lines, 0.1%)</text>
<circle cx="266" cy="296" r="6" fill="#701516" />
<text x="277" y="300" font-size="15" font-family="sans-serif" fill="#FFF">Ruby (100 lines, 0.1%)</text>
</svg>