<svg width="800" height="350" xmlns="http://www.w3.org/2000/svg">
<rect x="10" y="40" width="132.21723796747622" height="50" fill="#555555"/>
<rect x="142.21723796747622" y="40" width="116.18722722333845" height="50" fill="#b07219"/>
<rect x="258.4044651908147" y="40" width="99.67160573263486" height="50" fill="#c22d40"/>
<rect x="358.07607092344955" y="40" width="89.2309746814697" height="50" fill="#A97BFF"/>
<rect x="447.30704560491927" y="40" width="58.14217468632581" height="50" fill="#00B4AB"/>
<rect x="505.44922029124507" y="40" width="44.70532532884952" height="50" fill="#5e5086"/>
<rect x="550.1545456200946" y="40" width="43.09795375771665" height="50" fill="#000000"/>
<rect x="593.2524993778113" y="40" width="40.08716712900856" height="50" fill="#3D6117"/>
<rect x="633.3396665068199" y="40" width="32.99239412168191" height="50" fill="#3572A5"/>
<rect x="666.3320606285017" y="40" width="24.741867537528606" height="50" fill="None"/>
<rect x="691.0739281660303" y="40" width="24.46021330452043" height="50" fill="#89e051"/>
<rect x="715.5341414705507" y="40" width="15.010228176349544" height="50" fill="#239dad"/>
<rect x="730.5443696469002" y="40" width="11.751780066892882" height="50" fill="#000080"/>
<rect x="742.2961497137932" y="40" width="10.401782191439898" height="50" fill="#000000"/>
<rect x="752.6979319052331" y="40" width="9.012935456261648" height="50" fill="#dea584"/>
<rect x="761.7108673614947" y="40" width="8.02228953326737" height="50" fill="#000000"/>
<rect x="769.733156894762" y="40" width="7.6046642912207645" height="50" fill="#f34b7d"/>
<rect x="777.3378211859828" y="40" width="7.6046642912207645" height="50" fill="#e38c00"/>
<rect x="784.9424854772035" y="40" width="4.195676850328698" height="50" fill="#ec915c"/>
<rect x="789.1381623275322" y="40" width="3.6906416739002434" height="50" fill="#000000"/>
<rect x="792.8288040014324" y="40" width="3.3264336139758774" height="50" fill="#DA3434"/>
<rect x="796.1552376154083" y="40" width="2.6028736015928033" height="50" fill="#000000"/>
<rect x="798.7581112170011" y="40" width="2.5883052791958288" height="50" fill="#427819"/>
<rect x="801.346416496197" y="40" width="2.1318311774239564" height="50" fill="#000000"/>
<rect x="803.4782476736209" y="40" width="1.5248177442166795" height="50" fill="#384d54"/>
<rect x="805.0030654178375" y="40" width="1.3937028426439075" height="50" fill="#199f4b"/>
<rect x="806.3967682604815" y="40" width="1.0683436424448074" height="50" fill="#B83998"/>
<rect x="807.4651119029263" y="40" width="0.7915455169022891" height="50" fill="#000000"/>
<rect x="808.2566574198286" y="40" width="0.7575527646426815" height="50" fill="#db5855"/>
<rect x="809.0142101844713" y="40" width="0.5001790689627962" height="50" fill="#0050b2"/>
<rect x="809.514389253434" y="40" width="0.4856107465658216" height="50" fill="#701516"/>
<circle cx="16" cy="116" r="6" fill="#555555" />
<text x="27" y="120" font-size="15" font-family="sans-serif" fill="#FFF">C (27.2k lines, 16.5%)</text>
<circle cx="266" cy="116" r="6" fill="#b07219" />
<text x="277" y="120" font-size="15" font-family="sans-serif" fill="#FFF">Java (23.9k lines, 14.5%)</text>
<circle cx="516" cy="116" r="6" fill="#c22d40" />
<text x="527" y="120" font-size="15" font-family="sans-serif" fill="#FFF">Scala (20.5k lines, 12.5%)</text>
<circle cx="16" cy="136" r="6" fill="#A97BFF" />
<text x="27" y="140" font-size="15" font-family="sans-serif" fill="#FFF">Kotlin (18.4k lines, 11.2%)</text>
<circle cx="266" cy="136" r="6" fill="#00B4AB" />
<text x="277" y="140" font-size="15" font-family="sans-serif" fill="#FFF">Dart (12.0k lines, 7.3%)</text>
<circle cx="516" cy="136" r="6" fill="#5e5086" />
<text x="527" y="140" font-size="15" font-family="sans-serif" fill="#FFF">Haskell (9.2k lines, 5.6%)</text>
<circle cx="16" cy="156" r="6" fill="#000000" />
<text x="27" y="160" font-size="15" font-family="sans-serif" fill="#FFF">C Header (8.9k lines, 5.4%)</text>
<circle cx="266" cy="156" r="6" fill="#3D6117" />
<text x="277" y="160" font-size="15" font-family="sans-serif" fill="#FFF">TeX (8.3k lines, 5.0%)</text>
<circle cx="516" cy="156" r="6" fill="#3572A5" />
<text x="527" y="160" font-size="15" font-family="sans-serif" fill="#FFF">Python (6.8k lines, 4.1%)</text>
<circle cx="16" cy="176" r="6" fill="None" />
<text x="27" y="180" font-size="15" font-family="sans-serif" fill="#FFF">Lean (5.1k lines, 3.1%)</text>
<circle cx="266" cy="176" r="6" fill="#89e051" />
<text x="277" y="180" font-size="15" font-family="sans-serif" fill="#FFF">Shell (5.0k lines, 3.1%)</text>
<circle cx="516" cy="176" r="6" fill="#239dad" />
<text x="527" y="180" font-size="15" font-family="sans-serif" fill="#FFF">Typst (3.1k lines, 1.9%)</text>
<circle cx="16" cy="196" r="6" fill="#000080" />
<text x="27" y="200" font-size="15" font-family="sans-serif" fill="#FFF">Lua (2.4k lines, 1.5%)</text>
<circle cx="266" cy="196" r="6" fill="#000000" />
<text x="277" y="200" font-size="15" font-family="sans-serif" fill="#FFF">GNU Style A… (2.1k lines, 1.3%)</text>
<circle cx="516" cy="196" r="6" fill="#dea584" />
<text x="527" y="200" font-size="15" font-family="sans-serif" fill="#FFF">Rust (1.9k lines, 1.1%)</text>
<circle cx="16" cy="216" r="6" fill="#000000" />
<text x="27" y="220" font-size="15" font-family="sans-serif" fill="#FFF">Batch (1.7k lines, 1.0%)</text>
<circle cx="266" cy="216" r="6" fill="#f34b7d" />
<text x="277" y="220" font-size="15" font-family="sans-serif" fill="#FFF">C++ (1.6k lines, 1.0%)</text>
<circle cx="516" cy="216" r="6" fill="#e38c00" />
<text x="527" y="220" font-size="15" font-family="sans-serif" fill="#FFF">SQL (1.6k lines, 1.0%)</text>
<circle cx="16" cy="236" r="6" fill="#ec915c" />
<text x="27" y="240" font-size="15" font-family="sans-serif" fill="#FFF">Zig (864 lines, 0.5%)</text>
<circle cx="266" cy="236" r="6" fill="#000000" />
<text x="277" y="240" font-size="15" font-family="sans-serif" fill="#FFF">WebGPU Shad… (760 lines, 0.5%)</text>
<circle cx="516" cy="236" r="6" fill="#DA3434" />
<text x="527" y="240" font-size="15" font-family="sans-serif" fill="#FFF">CMake (685 lines, 0.4%)</text>
<circle cx="16" cy="256" r="6" fill="#000000" />
<text x="27" y="260" font-size="15" font-family="sans-serif" fill="#FFF">Cabal (536 lines, 0.3%)</text>
<circle cx="266" cy="256" r="6" fill="#427819" />
<text x="277" y="260" font-size="15" font-family="sans-serif" fill="#FFF">Makefile (533 lines, 0.3%)</text>
<circle cx="516" cy="256" r="6" fill="#000000" />
<text x="527" y="260" font-size="15" font-family="sans-serif" fill="#FFF">Templ (439 lines, 0.3%)</text>
<circle cx="16" cy="276" r="6" fill="#384d54" />
<text x="27" y="280" font-size="15" font-family="sans-serif" fill="#FFF">Dockerfile (314 lines, 0.2%)</text>
<circle cx="266" cy="276" r="6" fill="#199f4b" />
<text x="277" y="280" font-size="15" font-family="sans-serif" fill="#FFF">Vim Script (287 lines, 0.2%)</text>
<circle cx="516" cy="276" r="6" fill="#B83998" />
<text x="527" y="280" font-size="15" font-family="sans-serif" fill="#FFF">Erlang (220 lines, 0.1%)</text>
<circle cx="16" cy="296" r="6" fill="#000000" />
<text x="27" y="300" font-size="15" font-family="sans-serif" fill="#FFF">Bitbake (163 lines, 0.1%)</text>
<circle cx="266" cy="296" r="6" fill="#db5855" />
<text x="277" y="300" font-size="15" font-family="sans-serif" fill="#FFF">Clojure (156 lines, 0.1%)</text>
<circle cx="516" cy="296" r="6" fill="#0050b2" />
<text x="527" y="300" font-size="15" font-family="sans-serif" fill="#FFF">FreeMarker (103 lines, 0.1%)</text>
<circle cx="16" cy="316" r="6" fill="#701516" />
<text x="27" y="320" font-size="15" font-family="sans-serif" fill="#FFF">Ruby (100 lines, 0.1%)</text>
</svg>