<svg width="800" height="330" xmlns="http://www.w3.org/2000/svg">
<rect width="800" height="330" fill="#212830"/>
<rect x="10" y="40" width="120.02995480955457" height="50" fill="#555555"/>
<rect x="130.02995480955457" y="40" width="98.85500322788896" height="50" fill="#b07219"/>
<rect x="228.88495803744354" y="40" width="88.46791478373144" height="50" fill="#c22d40"/>
<rect x="317.35287282117497" y="40" width="77.40735958683021" height="50" fill="#00B4AB"/>
<rect x="394.7602324080052" y="40" width="57.53389283408651" height="50" fill="#A97BFF"/>
<rect x="452.2941252420917" y="40" width="47.58476436410588" height="50" fill="None"/>
<rect x="499.87888960619756" y="40" width="43.118398967075535" height="50" fill="#3572A5"/>
<rect x="542.9972885732731" y="40" width="38.12317624273725" height="50" fill="#5e5086"/>
<rect x="581.1204648160103" y="40" width="37.91659134925759" height="50" fill="#000000"/>
<rect x="619.0370561652679" y="40" width="37.31749515816656" height="50" fill="#dea584"/>
<rect x="656.3545513234345" y="40" width="34.10716591349258" height="50" fill="#3D6117"/>
<rect x="690.4617172369271" y="40" width="20.191607488702388" height="50" fill="#89e051"/>
<rect x="710.6533247256295" y="40" width="17.493608779857972" height="50" fill="#239dad"/>
<rect x="728.1469335054875" y="40" width="16.853195610071015" height="50" fill="#ec915c"/>
<rect x="745.0001291155585" y="40" width="14.051904454486767" height="50" fill="#000000"/>
<rect x="759.0520335700453" y="40" width="10.023499031633312" height="50" fill="#000080"/>
<rect x="769.0755326016786" y="40" width="8.850096836668818" height="50" fill="#000000"/>
<rect x="777.9256294383474" y="40" width="7.961781794706262" height="50" fill="#f34b7d"/>
<rect x="785.8874112330536" y="40" width="6.532214331826985" height="50" fill="#000000"/>
<rect x="792.4196255648806" y="40" width="3.6234990316333127" height="50" fill="#000000"/>
<rect x="796.0431245965138" y="40" width="2.846739832149774" height="50" fill="#427819"/>
<rect x="798.8898644286636" y="40" width="2.830213040671401" height="50" fill="#DA3434"/>
<rect x="801.720077469335" y="40" width="2.2145900581020013" height="50" fill="#000000"/>
<rect x="803.934667527437" y="40" width="1.8138153647514526" height="50" fill="#000000"/>
<rect x="805.7484828921885" y="40" width="1.1857972885732733" height="50" fill="#199f4b"/>
<rect x="806.9342801807618" y="40" width="0.9089735313105229" height="50" fill="#B83998"/>
<rect x="807.8432537120723" y="40" width="0.6734667527437055" height="50" fill="#000000"/>
<rect x="808.516720464816" y="40" width="0.6445448676565526" height="50" fill="#db5855"/>
<rect x="809.1612653324726" y="40" width="0.42556488056810843" height="50" fill="#0050b2"/>
<rect x="809.5868302130407" y="40" width="0.41316978695932866" height="50" fill="#701516"/>
<circle cx="16" cy="116" r="6" fill="#555555" />
<text x="27" y="120" font-size="15" font-family="sans-serif" fill="#FFF">C (29.1k lines, 15.0%)</text>
<circle cx="266" cy="116" r="6" fill="#b07219" />
<text x="277" y="120" font-size="15" font-family="sans-serif" fill="#FFF">Java (23.9k lines, 12.4%)</text>
<circle cx="516" cy="116" r="6" fill="#c22d40" />
<text x="527" y="120" font-size="15" font-family="sans-serif" fill="#FFF">Scala (21.4k lines, 11.1%)</text>
<circle cx="16" cy="136" r="6" fill="#00B4AB" />
<text x="27" y="140" font-size="15" font-family="sans-serif" fill="#FFF">Dart (18.7k lines, 9.7%)</text>
<circle cx="266" cy="136" r="6" fill="#A97BFF" />
<text x="277" y="140" font-size="15" font-family="sans-serif" fill="#FFF">Kotlin (13.9k lines, 7.2%)</text>
<circle cx="516" cy="136" r="6" fill="None" />
<text x="527" y="140" font-size="15" font-family="sans-serif" fill="#FFF">Lean (11.5k lines, 5.9%)</text>
<circle cx="16" cy="156" r="6" fill="#3572A5" />
<text x="27" y="160" font-size="15" font-family="sans-serif" fill="#FFF">Python (10.4k lines, 5.4%)</text>
<circle cx="266" cy="156" r="6" fill="#5e5086" />
<text x="277" y="160" font-size="15" font-family="sans-serif" fill="#FFF">Haskell (9.2k lines, 4.8%)</text>
<circle cx="516" cy="156" r="6" fill="#000000" />
<text x="527" y="160" font-size="15" font-family="sans-serif" fill="#FFF">C Header (9.2k lines, 4.7%)</text>
<circle cx="16" cy="176" r="6" fill="#dea584" />
<text x="27" y="180" font-size="15" font-family="sans-serif" fill="#FFF">Rust (9.0k lines, 4.7%)</text>
<circle cx="266" cy="176" r="6" fill="#3D6117" />
<text x="277" y="180" font-size="15" font-family="sans-serif" fill="#FFF">TeX (8.3k lines, 4.3%)</text>
<circle cx="516" cy="176" r="6" fill="#89e051" />
<text x="527" y="180" font-size="15" font-family="sans-serif" fill="#FFF">Shell (4.9k lines, 2.5%)</text>
<circle cx="16" cy="196" r="6" fill="#239dad" />
<text x="27" y="200" font-size="15" font-family="sans-serif" fill="#FFF">Typst (4.2k lines, 2.2%)</text>
<circle cx="266" cy="196" r="6" fill="#ec915c" />
<text x="277" y="200" font-size="15" font-family="sans-serif" fill="#FFF">Zig (4.1k lines, 2.1%)</text>
<circle cx="516" cy="196" r="6" fill="#000000" />
<text x="527" y="200" font-size="15" font-family="sans-serif" fill="#FFF">Jupyter Not… (3.4k lines, 1.8%)</text>
<circle cx="16" cy="216" r="6" fill="#000080" />
<text x="27" y="220" font-size="15" font-family="sans-serif" fill="#FFF">Lua (2.4k lines, 1.3%)</text>
<circle cx="266" cy="216" r="6" fill="#000000" />
<text x="277" y="220" font-size="15" font-family="sans-serif" fill="#FFF">GNU Style A… (2.1k lines, 1.1%)</text>
<circle cx="516" cy="216" r="6" fill="#f34b7d" />
<text x="527" y="220" font-size="15" font-family="sans-serif" fill="#FFF">C++ (1.9k lines, 1.0%)</text>
<circle cx="16" cy="236" r="6" fill="#000000" />
<text x="27" y="240" font-size="15" font-family="sans-serif" fill="#FFF">Batch (1.6k lines, 0.8%)</text>
<circle cx="266" cy="236" r="6" fill="#000000" />
<text x="277" y="240" font-size="15" font-family="sans-serif" fill="#FFF">WebGPU Shad… (877 lines, 0.5%)</text>
<circle cx="516" cy="236" r="6" fill="#427819" />
<text x="527" y="240" font-size="15" font-family="sans-serif" fill="#FFF">Makefile (689 lines, 0.4%)</text>
<circle cx="16" cy="256" r="6" fill="#DA3434" />
<text x="27" y="260" font-size="15" font-family="sans-serif" fill="#FFF">CMake (685 lines, 0.4%)</text>
<circle cx="266" cy="256" r="6" fill="#000000" />
<text x="277" y="260" font-size="15" font-family="sans-serif" fill="#FFF">Cabal (536 lines, 0.3%)</text>
<circle cx="516" cy="256" r="6" fill="#000000" />
<text x="527" y="260" font-size="15" font-family="sans-serif" fill="#FFF">Templ (439 lines, 0.2%)</text>
<circle cx="16" cy="276" r="6" fill="#199f4b" />
<text x="27" y="280" font-size="15" font-family="sans-serif" fill="#FFF">Vim Script (287 lines, 0.1%)</text>
<circle cx="266" cy="276" r="6" fill="#B83998" />
<text x="277" y="280" font-size="15" font-family="sans-serif" fill="#FFF">Erlang (220 lines, 0.1%)</text>
<circle cx="516" cy="276" r="6" fill="#000000" />
<text x="527" y="280" font-size="15" font-family="sans-serif" fill="#FFF">Bitbake (163 lines, 0.1%)</text>
<circle cx="16" cy="296" r="6" fill="#db5855" />
<text x="27" y="300" font-size="15" font-family="sans-serif" fill="#FFF">Clojure (156 lines, 0.1%)</text>
<circle cx="266" cy="296" r="6" fill="#0050b2" />
<text x="277" y="300" font-size="15" font-family="sans-serif" fill="#FFF">FreeMarker (103 lines, 0.1%)</text>
<circle cx="516" cy="296" r="6" fill="#701516" />
<text x="527" y="300" font-size="15" font-family="sans-serif" fill="#FFF">Ruby (100 lines, 0.1%)</text>
</svg>