<svg width="800" height="330" xmlns="http://www.w3.org/2000/svg">
<rect width="800" height="330" fill="#212830"/>
<rect x="10" y="40" width="142.00085700602426" height="50" fill="#555555"/>
<rect x="152.00085700602426" y="40" width="120.61603609507725" height="50" fill="#b07219"/>
<rect x="272.6168931011015" y="40" width="103.47087439820532" height="50" fill="#c22d40"/>
<rect x="376.0877674993068" y="40" width="66.95737655332343" height="50" fill="#A97BFF"/>
<rect x="443.04514405263023" y="40" width="58.81581932296525" height="50" fill="#00B4AB"/>
<rect x="501.8609633755955" y="40" width="46.40939681899528" height="50" fill="#5e5086"/>
<rect x="548.2703601945908" y="40" width="45.88511078063166" height="50" fill="#000000"/>
<rect x="594.1554709752224" y="40" width="41.61520429511254" height="50" fill="#3D6117"/>
<rect x="635.770675270335" y="40" width="33.28712222418269" height="50" fill="None"/>
<rect x="669.0577974945177" y="40" width="28.674413328964285" height="50" fill="#3572A5"/>
<rect x="697.732210823482" y="40" width="23.91550928843294" height="50" fill="#89e051"/>
<rect x="721.647720111915" y="40" width="15.582386005595744" height="50" fill="#239dad"/>
<rect x="737.2301061175107" y="40" width="12.199732815768911" height="50" fill="#000080"/>
<rect x="749.4298389332796" y="40" width="10.798275905527689" height="50" fill="#000000"/>
<rect x="760.2281148388073" y="40" width="9.356489300027725" height="50" fill="#dea584"/>
<rect x="769.5846041388351" y="40" width="7.9701560255085315" height="50" fill="#000000"/>
<rect x="777.5547601643436" y="40" width="7.894537846898395" height="50" fill="#f34b7d"/>
<rect x="785.449298011242" y="40" width="4.355607087943942" height="50" fill="#ec915c"/>
<rect x="789.8049050991859" y="40" width="3.831321049580319" height="50" fill="#000000"/>
<rect x="793.6362261487662" y="40" width="3.4532301565296297" height="50" fill="#DA3434"/>
<rect x="797.0894563052959" y="40" width="2.8079550323897866" height="50" fill="#427819"/>
<rect x="799.8974113376858" y="40" width="2.702089582335594" height="50" fill="#000000"/>
<rect x="802.5995009200213" y="40" width="2.2130920273233685" height="50" fill="#000000"/>
<rect x="804.8125929473447" y="40" width="1.4468278174073046" height="50" fill="#199f4b"/>
<rect x="806.259420764752" y="40" width="1.1090666196153556" height="50" fill="#B83998"/>
<rect x="807.3684873843673" y="40" width="0.8217175408968316" height="50" fill="#000000"/>
<rect x="808.1902049252642" y="40" width="0.786429057545434" height="50" fill="#db5855"/>
<rect x="808.9766339828096" y="40" width="0.5192448264562801" height="50" fill="#0050b2"/>
<rect x="809.495878809266" y="40" width="0.5041211907342525" height="50" fill="#701516"/>
<circle cx="16" cy="116" r="6" fill="#555555" />
<text x="27" y="120" font-size="15" font-family="sans-serif" fill="#FFF">C (28.2k lines, 17.8%)</text>
<circle cx="266" cy="116" r="6" fill="#b07219" />
<text x="277" y="120" font-size="15" font-family="sans-serif" fill="#FFF">Java (23.9k lines, 15.1%)</text>
<circle cx="516" cy="116" r="6" fill="#c22d40" />
<text x="527" y="120" font-size="15" font-family="sans-serif" fill="#FFF">Scala (20.5k lines, 12.9%)</text>
<circle cx="16" cy="136" r="6" fill="#A97BFF" />
<text x="27" y="140" font-size="15" font-family="sans-serif" fill="#FFF">Kotlin (13.3k lines, 8.4%)</text>
<circle cx="266" cy="136" r="6" fill="#00B4AB" />
<text x="277" y="140" font-size="15" font-family="sans-serif" fill="#FFF">Dart (11.7k lines, 7.4%)</text>
<circle cx="516" cy="136" r="6" fill="#5e5086" />
<text x="527" y="140" font-size="15" font-family="sans-serif" fill="#FFF">Haskell (9.2k lines, 5.8%)</text>
<circle cx="16" cy="156" r="6" fill="#000000" />
<text x="27" y="160" font-size="15" font-family="sans-serif" fill="#FFF">C Header (9.1k lines, 5.7%)</text>
<circle cx="266" cy="156" r="6" fill="#3D6117" />
<text x="277" y="160" font-size="15" font-family="sans-serif" fill="#FFF">TeX (8.3k lines, 5.2%)</text>
<circle cx="516" cy="156" r="6" fill="None" />
<text x="527" y="160" font-size="15" font-family="sans-serif" fill="#FFF">Lean (6.6k lines, 4.2%)</text>
<circle cx="16" cy="176" r="6" fill="#3572A5" />
<text x="27" y="180" font-size="15" font-family="sans-serif" fill="#FFF">Python (5.7k lines, 3.6%)</text>
<circle cx="266" cy="176" r="6" fill="#89e051" />
<text x="277" y="180" font-size="15" font-family="sans-serif" fill="#FFF">Shell (4.7k lines, 3.0%)</text>
<circle cx="516" cy="176" r="6" fill="#239dad" />
<text x="527" y="180" font-size="15" font-family="sans-serif" fill="#FFF">Typst (3.1k lines, 1.9%)</text>
<circle cx="16" cy="196" r="6" fill="#000080" />
<text x="27" y="200" font-size="15" font-family="sans-serif" fill="#FFF">Lua (2.4k lines, 1.5%)</text>
<circle cx="266" cy="196" r="6" fill="#000000" />
<text x="277" y="200" font-size="15" font-family="sans-serif" fill="#FFF">GNU Style A… (2.1k lines, 1.3%)</text>
<circle cx="516" cy="196" r="6" fill="#dea584" />
<text x="527" y="200" font-size="15" font-family="sans-serif" fill="#FFF">Rust (1.9k lines, 1.2%)</text>
<circle cx="16" cy="216" r="6" fill="#000000" />
<text x="27" y="220" font-size="15" font-family="sans-serif" fill="#FFF">Batch (1.6k lines, 1.0%)</text>
<circle cx="266" cy="216" r="6" fill="#f34b7d" />
<text x="277" y="220" font-size="15" font-family="sans-serif" fill="#FFF">C++ (1.6k lines, 1.0%)</text>
<circle cx="516" cy="216" r="6" fill="#ec915c" />
<text x="527" y="220" font-size="15" font-family="sans-serif" fill="#FFF">Zig (864 lines, 0.5%)</text>
<circle cx="16" cy="236" r="6" fill="#000000" />
<text x="27" y="240" font-size="15" font-family="sans-serif" fill="#FFF">WebGPU Shad… (760 lines, 0.5%)</text>
<circle cx="266" cy="236" r="6" fill="#DA3434" />
<text x="277" y="240" font-size="15" font-family="sans-serif" fill="#FFF">CMake (685 lines, 0.4%)</text>
<circle cx="516" cy="236" r="6" fill="#427819" />
<text x="527" y="240" font-size="15" font-family="sans-serif" fill="#FFF">Makefile (557 lines, 0.4%)</text>
<circle cx="16" cy="256" r="6" fill="#000000" />
<text x="27" y="260" font-size="15" font-family="sans-serif" fill="#FFF">Cabal (536 lines, 0.3%)</text>
<circle cx="266" cy="256" r="6" fill="#000000" />
<text x="277" y="260" font-size="15" font-family="sans-serif" fill="#FFF">Templ (439 lines, 0.3%)</text>
<circle cx="516" cy="256" r="6" fill="#199f4b" />
<text x="527" y="260" font-size="15" font-family="sans-serif" fill="#FFF">Vim Script (287 lines, 0.2%)</text>
<circle cx="16" cy="276" r="6" fill="#B83998" />
<text x="27" y="280" font-size="15" font-family="sans-serif" fill="#FFF">Erlang (220 lines, 0.1%)</text>
<circle cx="266" cy="276" r="6" fill="#000000" />
<text x="277" y="280" font-size="15" font-family="sans-serif" fill="#FFF">Bitbake (163 lines, 0.1%)</text>
<circle cx="516" cy="276" r="6" fill="#db5855" />
<text x="527" y="280" font-size="15" font-family="sans-serif" fill="#FFF">Clojure (156 lines, 0.1%)</text>
<circle cx="16" cy="296" r="6" fill="#0050b2" />
<text x="27" y="300" font-size="15" font-family="sans-serif" fill="#FFF">FreeMarker (103 lines, 0.1%)</text>
<circle cx="266" cy="296" r="6" fill="#701516" />
<text x="277" y="300" font-size="15" font-family="sans-serif" fill="#FFF">Ruby (100 lines, 0.1%)</text>
</svg>