<svg width="800" height="350" xmlns="http://www.w3.org/2000/svg">
<rect x="10" y="40" width="131.14514863887047" height="50" fill="#555555"/>
<rect x="141.14514863887047" y="40" width="116.38645498270085" height="50" fill="#b07219"/>
<rect x="257.5316036215713" y="40" width="99.84251393964455" height="50" fill="#c22d40"/>
<rect x="357.3741175612159" y="40" width="89.38398020175241" height="50" fill="#A97BFF"/>
<rect x="446.7580977629683" y="40" width="62.24530126049653" height="50" fill="#00B4AB"/>
<rect x="509.00339902346485" y="40" width="44.78198213536505" height="50" fill="#5e5086"/>
<rect x="553.7853811588299" y="40" width="43.011328051368416" height="50" fill="#000000"/>
<rect x="596.7967092101983" y="40" width="40.155905119209045" height="50" fill="#3D6117"/>
<rect x="636.9526143294073" y="40" width="33.0489666117391" height="50" fill="#3572A5"/>
<rect x="670.0015809411464" y="40" width="24.50215555244772" height="50" fill="#89e051"/>
<rect x="694.503736493594" y="40" width="23.860050225284112" height="50" fill="None"/>
<rect x="718.3637867188781" y="40" width="12.861564280458959" height="50" fill="#239dad"/>
<rect x="731.2253509993371" y="40" width="11.718422220735867" height="50" fill="#000080"/>
<rect x="742.943773220073" y="40" width="10.419618263518567" height="50" fill="#000000"/>
<rect x="753.3633914835916" y="40" width="9.02839005466408" height="50" fill="#dea584"/>
<rect x="762.3917815382557" y="40" width="8.036045458138503" height="50" fill="#000000"/>
<rect x="770.4278269963942" y="40" width="7.617704108622818" height="50" fill="#f34b7d"/>
<rect x="778.045531105017" y="40" width="7.617704108622818" height="50" fill="#e38c00"/>
<rect x="785.6632352136397" y="40" width="4.2028712323436235" height="50" fill="#ec915c"/>
<rect x="789.8661064459833" y="40" width="3.696970065487447" height="50" fill="#000000"/>
<rect x="793.5630765114707" y="40" width="3.332137493235396" height="50" fill="#DA3434"/>
<rect x="796.8952140047062" y="40" width="2.6073367830279888" height="50" fill="#000000"/>
<rect x="799.5025507877342" y="40" width="2.4176238454569225" height="50" fill="#427819"/>
<rect x="801.9201746331911" y="40" width="2.13548665624867" height="50" fill="#000000"/>
<rect x="804.0556612894397" y="40" width="1.527432369161919" height="50" fill="#384d54"/>
<rect x="805.5830936586017" y="40" width="1.070175545272682" height="50" fill="#B83998"/>
<rect x="806.6532692038744" y="40" width="0.8074960932512054" height="50" fill="#199f4b"/>
<rect x="807.4607652971256" y="40" width="0.7929027903611234" height="50" fill="#000000"/>
<rect x="808.2536680874867" y="40" width="0.7588517502842654" height="50" fill="#db5855"/>
<rect x="809.012519837771" y="40" width="0.5010367325594829" height="50" fill="#0050b2"/>
<rect x="809.5135565703305" y="40" width="0.48644342966940085" height="50" fill="#701516"/>
<circle cx="16" cy="116" r="6" fill="#555555" />
<text x="27" y="120" font-size="15" font-family="sans-serif" fill="#FFF">C (27.0k lines, 16.4%)</text>
<circle cx="266" cy="116" r="6" fill="#b07219" />
<text x="277" y="120" font-size="15" font-family="sans-serif" fill="#FFF">Java (23.9k lines, 14.5%)</text>
<circle cx="516" cy="116" r="6" fill="#c22d40" />
<text x="527" y="120" font-size="15" font-family="sans-serif" fill="#FFF">Scala (20.5k lines, 12.5%)</text>
<circle cx="16" cy="136" r="6" fill="#A97BFF" />
<text x="27" y="140" font-size="15" font-family="sans-serif" fill="#FFF">Kotlin (18.4k lines, 11.2%)</text>
<circle cx="266" cy="136" r="6" fill="#00B4AB" />
<text x="277" y="140" font-size="15" font-family="sans-serif" fill="#FFF">Dart (12.8k lines, 7.8%)</text>
<circle cx="516" cy="136" r="6" fill="#5e5086" />
<text x="527" y="140" font-size="15" font-family="sans-serif" fill="#FFF">Haskell (9.2k lines, 5.6%)</text>
<circle cx="16" cy="156" r="6" fill="#000000" />
<text x="27" y="160" font-size="15" font-family="sans-serif" fill="#FFF">C Header (8.8k lines, 5.4%)</text>
<circle cx="266" cy="156" r="6" fill="#3D6117" />
<text x="277" y="160" font-size="15" font-family="sans-serif" fill="#FFF">TeX (8.3k lines, 5.0%)</text>
<circle cx="516" cy="156" r="6" fill="#3572A5" />
<text x="527" y="160" font-size="15" font-family="sans-serif" fill="#FFF">Python (6.8k lines, 4.1%)</text>
<circle cx="16" cy="176" r="6" fill="#89e051" />
<text x="27" y="180" font-size="15" font-family="sans-serif" fill="#FFF">Shell (5.0k lines, 3.1%)</text>
<circle cx="266" cy="176" r="6" fill="None" />
<text x="277" y="180" font-size="15" font-family="sans-serif" fill="#FFF">Lean (4.9k lines, 3.0%)</text>
<circle cx="516" cy="176" r="6" fill="#239dad" />
<text x="527" y="180" font-size="15" font-family="sans-serif" fill="#FFF">Typst (2.6k lines, 1.6%)</text>
<circle cx="16" cy="196" r="6" fill="#000080" />
<text x="27" y="200" font-size="15" font-family="sans-serif" fill="#FFF">Lua (2.4k lines, 1.5%)</text>
<circle cx="266" cy="196" r="6" fill="#000000" />
<text x="277" y="200" font-size="15" font-family="sans-serif" fill="#FFF">GNU Style A… (2.1k lines, 1.3%)</text>
<circle cx="516" cy="196" r="6" fill="#dea584" />
<text x="527" y="200" font-size="15" font-family="sans-serif" fill="#FFF">Rust (1.9k lines, 1.1%)</text>
<circle cx="16" cy="216" r="6" fill="#000000" />
<text x="27" y="220" font-size="15" font-family="sans-serif" fill="#FFF">Batch (1.7k lines, 1.0%)</text>
<circle cx="266" cy="216" r="6" fill="#f34b7d" />
<text x="277" y="220" font-size="15" font-family="sans-serif" fill="#FFF">C++ (1.6k lines, 1.0%)</text>
<circle cx="516" cy="216" r="6" fill="#e38c00" />
<text x="527" y="220" font-size="15" font-family="sans-serif" fill="#FFF">SQL (1.6k lines, 1.0%)</text>
<circle cx="16" cy="236" r="6" fill="#ec915c" />
<text x="27" y="240" font-size="15" font-family="sans-serif" fill="#FFF">Zig (864 lines, 0.5%)</text>
<circle cx="266" cy="236" r="6" fill="#000000" />
<text x="277" y="240" font-size="15" font-family="sans-serif" fill="#FFF">WebGPU Shad… (760 lines, 0.5%)</text>
<circle cx="516" cy="236" r="6" fill="#DA3434" />
<text x="527" y="240" font-size="15" font-family="sans-serif" fill="#FFF">CMake (685 lines, 0.4%)</text>
<circle cx="16" cy="256" r="6" fill="#000000" />
<text x="27" y="260" font-size="15" font-family="sans-serif" fill="#FFF">Cabal (536 lines, 0.3%)</text>
<circle cx="266" cy="256" r="6" fill="#427819" />
<text x="277" y="260" font-size="15" font-family="sans-serif" fill="#FFF">Makefile (497 lines, 0.3%)</text>
<circle cx="516" cy="256" r="6" fill="#000000" />
<text x="527" y="260" font-size="15" font-family="sans-serif" fill="#FFF">Templ (439 lines, 0.3%)</text>
<circle cx="16" cy="276" r="6" fill="#384d54" />
<text x="27" y="280" font-size="15" font-family="sans-serif" fill="#FFF">Dockerfile (314 lines, 0.2%)</text>
<circle cx="266" cy="276" r="6" fill="#B83998" />
<text x="277" y="280" font-size="15" font-family="sans-serif" fill="#FFF">Erlang (220 lines, 0.1%)</text>
<circle cx="516" cy="276" r="6" fill="#199f4b" />
<text x="527" y="280" font-size="15" font-family="sans-serif" fill="#FFF">Vim Script (166 lines, 0.1%)</text>
<circle cx="16" cy="296" r="6" fill="#000000" />
<text x="27" y="300" font-size="15" font-family="sans-serif" fill="#FFF">Bitbake (163 lines, 0.1%)</text>
<circle cx="266" cy="296" r="6" fill="#db5855" />
<text x="277" y="300" font-size="15" font-family="sans-serif" fill="#FFF">Clojure (156 lines, 0.1%)</text>
<circle cx="516" cy="296" r="6" fill="#0050b2" />
<text x="527" y="300" font-size="15" font-family="sans-serif" fill="#FFF">FreeMarker (103 lines, 0.1%)</text>
<circle cx="16" cy="316" r="6" fill="#701516" />
<text x="27" y="320" font-size="15" font-family="sans-serif" fill="#FFF">Ruby (100 lines, 0.1%)</text>
</svg>