<svg width="800" height="330" xmlns="http://www.w3.org/2000/svg">
<rect width="800" height="330" fill="#212830"/>
<rect x="10" y="40" width="125.29517689047994" height="50" fill="#555555"/>
<rect x="135.29517689047992" y="40" width="103.19491918353263" height="50" fill="#b07219"/>
<rect x="238.49009607401257" y="40" width="88.5261103503305" height="50" fill="#c22d40"/>
<rect x="327.01620642434307" y="40" width="80.43907225498971" height="50" fill="#00B4AB"/>
<rect x="407.45527867933276" y="40" width="58.57172124518822" height="50" fill="#A97BFF"/>
<rect x="466.02699992452096" y="40" width="49.67382279682126" height="50" fill="None"/>
<rect x="515.7008227213422" y="40" width="44.54556237262915" height="50" fill="#3572A5"/>
<rect x="560.2463850939714" y="40" width="39.796853603045044" height="50" fill="#5e5086"/>
<rect x="600.0432386970165" y="40" width="39.581199253835955" height="50" fill="#000000"/>
<rect x="639.6244379508524" y="40" width="35.60453305442037" height="50" fill="#3D6117"/>
<rect x="675.2289710052728" y="40" width="26.86190573748396" height="50" fill="#dea584"/>
<rect x="702.0908767427568" y="40" width="20.530294044705148" height="50" fill="#89e051"/>
<rect x="722.6211707874619" y="40" width="18.261610291025544" height="50" fill="#239dad"/>
<rect x="740.8827810784875" y="40" width="14.668808833202144" height="50" fill="#000000"/>
<rect x="755.5515899116896" y="40" width="10.463549023624932" height="50" fill="#000080"/>
<rect x="766.0151389353146" y="40" width="9.238632320117315" height="50" fill="#000000"/>
<rect x="775.2537712554318" y="40" width="6.818990521991352" height="50" fill="#000000"/>
<rect x="782.0727617774232" y="40" width="6.754294217228626" height="50" fill="#f34b7d"/>
<rect x="788.8270559946519" y="40" width="3.726507154333035" height="50" fill="#ec915c"/>
<rect x="792.553563148985" y="40" width="3.2779461079781322" height="50" fill="#000000"/>
<rect x="795.831509256963" y="40" width="2.9544645841645014" height="50" fill="#DA3434"/>
<rect x="798.7859738411275" y="40" width="2.570599842572325" height="50" fill="#427819"/>
<rect x="801.3565736836998" y="40" width="2.31181462352142" height="50" fill="#000000"/>
<rect x="803.6683883072212" y="40" width="1.8934451860557897" height="50" fill="#000000"/>
<rect x="805.561833493277" y="40" width="1.2378559644601634" height="50" fill="#199f4b"/>
<rect x="806.7996894577373" y="40" width="0.9488791365199858" height="50" fill="#B83998"/>
<rect x="807.7485685942572" y="40" width="0.7030331784216258" height="50" fill="#000000"/>
<rect x="808.4516017726788" y="40" width="0.6728415695323535" height="50" fill="#db5855"/>
<rect x="809.1244433422112" y="40" width="0.44424795937072065" height="50" fill="#0050b2"/>
<rect x="809.5686913015819" y="40" width="0.43130869841817526" height="50" fill="#701516"/>
<circle cx="16" cy="116" r="6" fill="#555555" />
<text x="27" y="120" font-size="15" font-family="sans-serif" fill="#FFF">C (29.1k lines, 15.7%)</text>
<circle cx="266" cy="116" r="6" fill="#b07219" />
<text x="277" y="120" font-size="15" font-family="sans-serif" fill="#FFF">Java (23.9k lines, 12.9%)</text>
<circle cx="516" cy="116" r="6" fill="#c22d40" />
<text x="527" y="120" font-size="15" font-family="sans-serif" fill="#FFF">Scala (20.5k lines, 11.1%)</text>
<circle cx="16" cy="136" r="6" fill="#00B4AB" />
<text x="27" y="140" font-size="15" font-family="sans-serif" fill="#FFF">Dart (18.6k lines, 10.1%)</text>
<circle cx="266" cy="136" r="6" fill="#A97BFF" />
<text x="277" y="140" font-size="15" font-family="sans-serif" fill="#FFF">Kotlin (13.6k lines, 7.3%)</text>
<circle cx="516" cy="136" r="6" fill="None" />
<text x="527" y="140" font-size="15" font-family="sans-serif" fill="#FFF">Lean (11.5k lines, 6.2%)</text>
<circle cx="16" cy="156" r="6" fill="#3572A5" />
<text x="27" y="160" font-size="15" font-family="sans-serif" fill="#FFF">Python (10.3k lines, 5.6%)</text>
<circle cx="266" cy="156" r="6" fill="#5e5086" />
<text x="277" y="160" font-size="15" font-family="sans-serif" fill="#FFF">Haskell (9.2k lines, 5.0%)</text>
<circle cx="516" cy="156" r="6" fill="#000000" />
<text x="527" y="160" font-size="15" font-family="sans-serif" fill="#FFF">C Header (9.2k lines, 4.9%)</text>
<circle cx="16" cy="176" r="6" fill="#3D6117" />
<text x="27" y="180" font-size="15" font-family="sans-serif" fill="#FFF">TeX (8.3k lines, 4.5%)</text>
<circle cx="266" cy="176" r="6" fill="#dea584" />
<text x="277" y="180" font-size="15" font-family="sans-serif" fill="#FFF">Rust (6.2k lines, 3.4%)</text>
<circle cx="516" cy="176" r="6" fill="#89e051" />
<text x="527" y="180" font-size="15" font-family="sans-serif" fill="#FFF">Shell (4.8k lines, 2.6%)</text>
<circle cx="16" cy="196" r="6" fill="#239dad" />
<text x="27" y="200" font-size="15" font-family="sans-serif" fill="#FFF">Typst (4.2k lines, 2.3%)</text>
<circle cx="266" cy="196" r="6" fill="#000000" />
<text x="277" y="200" font-size="15" font-family="sans-serif" fill="#FFF">Jupyter Not… (3.4k lines, 1.8%)</text>
<circle cx="516" cy="196" r="6" fill="#000080" />
<text x="527" y="200" font-size="15" font-family="sans-serif" fill="#FFF">Lua (2.4k lines, 1.3%)</text>
<circle cx="16" cy="216" r="6" fill="#000000" />
<text x="27" y="220" font-size="15" font-family="sans-serif" fill="#FFF">GNU Style A… (2.1k lines, 1.2%)</text>
<circle cx="266" cy="216" r="6" fill="#000000" />
<text x="277" y="220" font-size="15" font-family="sans-serif" fill="#FFF">Batch (1.6k lines, 0.9%)</text>
<circle cx="516" cy="216" r="6" fill="#f34b7d" />
<text x="527" y="220" font-size="15" font-family="sans-serif" fill="#FFF">C++ (1.6k lines, 0.8%)</text>
<circle cx="16" cy="236" r="6" fill="#ec915c" />
<text x="27" y="240" font-size="15" font-family="sans-serif" fill="#FFF">Zig (864 lines, 0.5%)</text>
<circle cx="266" cy="236" r="6" fill="#000000" />
<text x="277" y="240" font-size="15" font-family="sans-serif" fill="#FFF">WebGPU Shad… (760 lines, 0.4%)</text>
<circle cx="516" cy="236" r="6" fill="#DA3434" />
<text x="527" y="240" font-size="15" font-family="sans-serif" fill="#FFF">CMake (685 lines, 0.4%)</text>
<circle cx="16" cy="256" r="6" fill="#427819" />
<text x="27" y="260" font-size="15" font-family="sans-serif" fill="#FFF">Makefile (596 lines, 0.3%)</text>
<circle cx="266" cy="256" r="6" fill="#000000" />
<text x="277" y="260" font-size="15" font-family="sans-serif" fill="#FFF">Cabal (536 lines, 0.3%)</text>
<circle cx="516" cy="256" r="6" fill="#000000" />
<text x="527" y="260" font-size="15" font-family="sans-serif" fill="#FFF">Templ (439 lines, 0.2%)</text>
<circle cx="16" cy="276" r="6" fill="#199f4b" />
<text x="27" y="280" font-size="15" font-family="sans-serif" fill="#FFF">Vim Script (287 lines, 0.2%)</text>
<circle cx="266" cy="276" r="6" fill="#B83998" />
<text x="277" y="280" font-size="15" font-family="sans-serif" fill="#FFF">Erlang (220 lines, 0.1%)</text>
<circle cx="516" cy="276" r="6" fill="#000000" />
<text x="527" y="280" font-size="15" font-family="sans-serif" fill="#FFF">Bitbake (163 lines, 0.1%)</text>
<circle cx="16" cy="296" r="6" fill="#db5855" />
<text x="27" y="300" font-size="15" font-family="sans-serif" fill="#FFF">Clojure (156 lines, 0.1%)</text>
<circle cx="266" cy="296" r="6" fill="#0050b2" />
<text x="277" y="300" font-size="15" font-family="sans-serif" fill="#FFF">FreeMarker (103 lines, 0.1%)</text>
<circle cx="516" cy="296" r="6" fill="#701516" />
<text x="527" y="300" font-size="15" font-family="sans-serif" fill="#FFF">Ruby (100 lines, 0.1%)</text>
</svg>