<svg width="800" height="330" xmlns="http://www.w3.org/2000/svg">
<rect width="800" height="330" fill="#212830"/>
<rect x="10" y="40" width="118.4878533737796" height="50" fill="#555555"/>
<rect x="128.48785337377961" y="40" width="97.58494990950572" height="50" fill="#b07219"/>
<rect x="226.07280328328534" y="40" width="87.33131101990874" height="50" fill="#c22d40"/>
<rect x="313.4041143031941" y="40" width="76.4128578347651" height="50" fill="#00B4AB"/>
<rect x="389.81697213795917" y="40" width="56.79471819317342" height="50" fill="#A97BFF"/>
<rect x="446.6116903311326" y="40" width="47.393509903387795" height="50" fill="#dea584"/>
<rect x="494.0052002345204" y="40" width="46.97341252644728" height="50" fill="None"/>
<rect x="540.9786127609676" y="40" width="42.12393892273573" height="50" fill="#3572A5"/>
<rect x="583.1025516837034" y="40" width="37.633383466313184" height="50" fill="#5e5086"/>
<rect x="620.7359351500165" y="40" width="37.42945270080808" height="50" fill="#000000"/>
<rect x="658.1653878508246" y="40" width="33.66896938489383" height="50" fill="#3D6117"/>
<rect x="691.8343572357184" y="40" width="19.977057788880675" height="50" fill="#89e051"/>
<rect x="711.811415024599" y="40" width="17.268857222972798" height="50" fill="#239dad"/>
<rect x="729.0802722475718" y="40" width="16.636671849906957" height="50" fill="#ec915c"/>
<rect x="745.7169440974787" y="40" width="13.87137066965765" height="50" fill="#000000"/>
<rect x="759.5883147671364" y="40" width="9.894720742307985" height="50" fill="#000080"/>
<rect x="769.4830355094443" y="40" width="8.736393994238956" height="50" fill="#000000"/>
<rect x="778.2194295036833" y="40" width="7.859491702566979" height="50" fill="#f34b7d"/>
<rect x="786.0789212062502" y="40" width="6.44829080527161" height="50" fill="#000000"/>
<rect x="792.5272120115219" y="40" width="3.5769456269596476" height="50" fill="#000000"/>
<rect x="796.1041576384815" y="40" width="2.9284457926533944" height="50" fill="#427819"/>
<rect x="799.0326034311349" y="40" width="2.7938514874200213" height="50" fill="#DA3434"/>
<rect x="801.826454918555" y="40" width="2.18613780621479" height="50" fill="#000000"/>
<rect x="804.0125927247698" y="40" width="1.790512121134875" height="50" fill="#000000"/>
<rect x="805.8031048459046" y="40" width="1.1705625939993372" height="50" fill="#199f4b"/>
<rect x="806.9736674399039" y="40" width="0.8972953682224885" height="50" fill="#B83998"/>
<rect x="807.8709628081264" y="40" width="0.6648142955466619" height="50" fill="#000000"/>
<rect x="808.535777103673" y="40" width="0.6362639883759463" height="50" fill="#db5855"/>
<rect x="809.172041092049" y="40" width="0.42009737694052873" height="50" fill="#0050b2"/>
<rect x="809.5921384689894" y="40" width="0.4078615310102221" height="50" fill="#701516"/>
<circle cx="16" cy="116" r="6" fill="#555555" />
<text x="27" y="120" font-size="15" font-family="sans-serif" fill="#FFF">C (29.1k lines, 14.8%)</text>
<circle cx="266" cy="116" r="6" fill="#b07219" />
<text x="277" y="120" font-size="15" font-family="sans-serif" fill="#FFF">Java (23.9k lines, 12.2%)</text>
<circle cx="516" cy="116" r="6" fill="#c22d40" />
<text x="527" y="120" font-size="15" font-family="sans-serif" fill="#FFF">Scala (21.4k lines, 10.9%)</text>
<circle cx="16" cy="136" r="6" fill="#00B4AB" />
<text x="27" y="140" font-size="15" font-family="sans-serif" fill="#FFF">Dart (18.7k lines, 9.6%)</text>
<circle cx="266" cy="136" r="6" fill="#A97BFF" />
<text x="277" y="140" font-size="15" font-family="sans-serif" fill="#FFF">Kotlin (13.9k lines, 7.1%)</text>
<circle cx="516" cy="136" r="6" fill="#dea584" />
<text x="527" y="140" font-size="15" font-family="sans-serif" fill="#FFF">Rust (11.6k lines, 5.9%)</text>
<circle cx="16" cy="156" r="6" fill="None" />
<text x="27" y="160" font-size="15" font-family="sans-serif" fill="#FFF">Lean (11.5k lines, 5.9%)</text>
<circle cx="266" cy="156" r="6" fill="#3572A5" />
<text x="277" y="160" font-size="15" font-family="sans-serif" fill="#FFF">Python (10.3k lines, 5.3%)</text>
<circle cx="516" cy="156" r="6" fill="#5e5086" />
<text x="527" y="160" font-size="15" font-family="sans-serif" fill="#FFF">Haskell (9.2k lines, 4.7%)</text>
<circle cx="16" cy="176" r="6" fill="#000000" />
<text x="27" y="180" font-size="15" font-family="sans-serif" fill="#FFF">C Header (9.2k lines, 4.7%)</text>
<circle cx="266" cy="176" r="6" fill="#3D6117" />
<text x="277" y="180" font-size="15" font-family="sans-serif" fill="#FFF">TeX (8.3k lines, 4.2%)</text>
<circle cx="516" cy="176" r="6" fill="#89e051" />
<text x="527" y="180" font-size="15" font-family="sans-serif" fill="#FFF">Shell (4.9k lines, 2.5%)</text>
<circle cx="16" cy="196" r="6" fill="#239dad" />
<text x="27" y="200" font-size="15" font-family="sans-serif" fill="#FFF">Typst (4.2k lines, 2.2%)</text>
<circle cx="266" cy="196" r="6" fill="#ec915c" />
<text x="277" y="200" font-size="15" font-family="sans-serif" fill="#FFF">Zig (4.1k lines, 2.1%)</text>
<circle cx="516" cy="196" r="6" fill="#000000" />
<text x="527" y="200" font-size="15" font-family="sans-serif" fill="#FFF">Jupyter Not… (3.4k lines, 1.7%)</text>
<circle cx="16" cy="216" r="6" fill="#000080" />
<text x="27" y="220" font-size="15" font-family="sans-serif" fill="#FFF">Lua (2.4k lines, 1.2%)</text>
<circle cx="266" cy="216" r="6" fill="#000000" />
<text x="277" y="220" font-size="15" font-family="sans-serif" fill="#FFF">GNU Style A… (2.1k lines, 1.1%)</text>
<circle cx="516" cy="216" r="6" fill="#f34b7d" />
<text x="527" y="220" font-size="15" font-family="sans-serif" fill="#FFF">C++ (1.9k lines, 1.0%)</text>
<circle cx="16" cy="236" r="6" fill="#000000" />
<text x="27" y="240" font-size="15" font-family="sans-serif" fill="#FFF">Batch (1.6k lines, 0.8%)</text>
<circle cx="266" cy="236" r="6" fill="#000000" />
<text x="277" y="240" font-size="15" font-family="sans-serif" fill="#FFF">WebGPU Shad… (877 lines, 0.4%)</text>
<circle cx="516" cy="236" r="6" fill="#427819" />
<text x="527" y="240" font-size="15" font-family="sans-serif" fill="#FFF">Makefile (718 lines, 0.4%)</text>
<circle cx="16" cy="256" r="6" fill="#DA3434" />
<text x="27" y="260" font-size="15" font-family="sans-serif" fill="#FFF">CMake (685 lines, 0.3%)</text>
<circle cx="266" cy="256" r="6" fill="#000000" />
<text x="277" y="260" font-size="15" font-family="sans-serif" fill="#FFF">Cabal (536 lines, 0.3%)</text>
<circle cx="516" cy="256" r="6" fill="#000000" />
<text x="527" y="260" font-size="15" font-family="sans-serif" fill="#FFF">Templ (439 lines, 0.2%)</text>
<circle cx="16" cy="276" r="6" fill="#199f4b" />
<text x="27" y="280" font-size="15" font-family="sans-serif" fill="#FFF">Vim Script (287 lines, 0.1%)</text>
<circle cx="266" cy="276" r="6" fill="#B83998" />
<text x="277" y="280" font-size="15" font-family="sans-serif" fill="#FFF">Erlang (220 lines, 0.1%)</text>
<circle cx="516" cy="276" r="6" fill="#000000" />
<text x="527" y="280" font-size="15" font-family="sans-serif" fill="#FFF">Bitbake (163 lines, 0.1%)</text>
<circle cx="16" cy="296" r="6" fill="#db5855" />
<text x="27" y="300" font-size="15" font-family="sans-serif" fill="#FFF">Clojure (156 lines, 0.1%)</text>
<circle cx="266" cy="296" r="6" fill="#0050b2" />
<text x="277" y="300" font-size="15" font-family="sans-serif" fill="#FFF">FreeMarker (103 lines, 0.1%)</text>
<circle cx="516" cy="296" r="6" fill="#701516" />
<text x="527" y="300" font-size="15" font-family="sans-serif" fill="#FFF">Ruby (100 lines, 0.1%)</text>
</svg>