<svg width="800" height="330" xmlns="http://www.w3.org/2000/svg">
<rect x="10" y="40" width="140.2633260897354" height="50" fill="#555555"/>
<rect x="150.2633260897354" y="40" width="122.33669947590438" height="50" fill="#b07219"/>
<rect x="272.6000255656398" y="40" width="104.94695129745622" height="50" fill="#c22d40"/>
<rect x="377.546976863096" y="40" width="67.49840214751373" height="50" fill="#A97BFF"/>
<rect x="445.04537901060974" y="40" width="61.219481017512464" height="50" fill="#00B4AB"/>
<rect x="506.2648600281222" y="40" width="47.07145596318548" height="50" fill="#5e5086"/>
<rect x="553.3363159913076" y="40" width="45.60910136776173" height="50" fill="#000000"/>
<rect x="598.9454173590693" y="40" width="42.20887127700371" height="50" fill="#3D6117"/>
<rect x="641.154288636073" y="40" width="29.047679918189953" height="50" fill="#3572A5"/>
<rect x="670.201968554263" y="40" width="26.05138693595807" height="50" fill="None"/>
<rect x="696.253355490221" y="40" width="24.25667902339256" height="50" fill="#89e051"/>
<rect x="720.5100345136135" y="40" width="15.804678512079766" height="50" fill="#239dad"/>
<rect x="736.3147130256933" y="40" width="12.373769653585581" height="50" fill="#000080"/>
<rect x="748.6884826792789" y="40" width="10.952320081810047" height="50" fill="#000000"/>
<rect x="759.6408027610889" y="40" width="9.489965486386296" height="50" fill="#dea584"/>
<rect x="769.1307682474752" y="40" width="8.083855298478843" height="50" fill="#000000"/>
<rect x="777.214623545954" y="40" width="8.007158379138438" height="50" fill="#f34b7d"/>
<rect x="785.2217819250925" y="40" width="4.417742554007414" height="50" fill="#ec915c"/>
<rect x="789.6395244790999" y="40" width="3.885977246580596" height="50" fill="#000000"/>
<rect x="793.5255017256806" y="40" width="3.502492649878563" height="50" fill="#DA3434"/>
<rect x="797.0279943755592" y="40" width="2.740636584430525" height="50" fill="#000000"/>
<rect x="799.7686309599897" y="40" width="2.725297200562444" height="50" fill="#427819"/>
<rect x="802.4939281605521" y="40" width="2.2446631726958968" height="50" fill="#000000"/>
<rect x="804.738591333248" y="40" width="1.4674677233797775" height="50" fill="#199f4b"/>
<rect x="806.2060590566277" y="40" width="1.1248881503259618" height="50" fill="#B83998"/>
<rect x="807.3309472069537" y="40" width="0.8334398568324173" height="50" fill="#000000"/>
<rect x="808.1643870637862" y="40" width="0.7976479611402276" height="50" fill="#db5855"/>
<rect x="808.9620350249264" y="40" width="0.5266521794707912" height="50" fill="#0050b2"/>
<rect x="809.4886872043973" y="40" width="0.5113127956027099" height="50" fill="#701516"/>
<circle cx="16" cy="116" r="6" fill="#555555" />
<text x="27" y="120" font-size="15" font-family="sans-serif" fill="#FFF">C (27.4k lines, 17.5%)</text>
<circle cx="266" cy="116" r="6" fill="#b07219" />
<text x="277" y="120" font-size="15" font-family="sans-serif" fill="#FFF">Java (23.9k lines, 15.3%)</text>
<circle cx="516" cy="116" r="6" fill="#c22d40" />
<text x="527" y="120" font-size="15" font-family="sans-serif" fill="#FFF">Scala (20.5k lines, 13.1%)</text>
<circle cx="16" cy="136" r="6" fill="#A97BFF" />
<text x="27" y="140" font-size="15" font-family="sans-serif" fill="#FFF">Kotlin (13.2k lines, 8.4%)</text>
<circle cx="266" cy="136" r="6" fill="#00B4AB" />
<text x="277" y="140" font-size="15" font-family="sans-serif" fill="#FFF">Dart (12.0k lines, 7.7%)</text>
<circle cx="516" cy="136" r="6" fill="#5e5086" />
<text x="527" y="140" font-size="15" font-family="sans-serif" fill="#FFF">Haskell (9.2k lines, 5.9%)</text>
<circle cx="16" cy="156" r="6" fill="#000000" />
<text x="27" y="160" font-size="15" font-family="sans-serif" fill="#FFF">C Header (8.9k lines, 5.7%)</text>
<circle cx="266" cy="156" r="6" fill="#3D6117" />
<text x="277" y="160" font-size="15" font-family="sans-serif" fill="#FFF">TeX (8.3k lines, 5.3%)</text>
<circle cx="516" cy="156" r="6" fill="#3572A5" />
<text x="527" y="160" font-size="15" font-family="sans-serif" fill="#FFF">Python (5.7k lines, 3.6%)</text>
<circle cx="16" cy="176" r="6" fill="None" />
<text x="27" y="180" font-size="15" font-family="sans-serif" fill="#FFF">Lean (5.1k lines, 3.3%)</text>
<circle cx="266" cy="176" r="6" fill="#89e051" />
<text x="277" y="180" font-size="15" font-family="sans-serif" fill="#FFF">Shell (4.7k lines, 3.0%)</text>
<circle cx="516" cy="176" r="6" fill="#239dad" />
<text x="527" y="180" font-size="15" font-family="sans-serif" fill="#FFF">Typst (3.1k lines, 2.0%)</text>
<circle cx="16" cy="196" r="6" fill="#000080" />
<text x="27" y="200" font-size="15" font-family="sans-serif" fill="#FFF">Lua (2.4k lines, 1.5%)</text>
<circle cx="266" cy="196" r="6" fill="#000000" />
<text x="277" y="200" font-size="15" font-family="sans-serif" fill="#FFF">GNU Style A… (2.1k lines, 1.4%)</text>
<circle cx="516" cy="196" r="6" fill="#dea584" />
<text x="527" y="200" font-size="15" font-family="sans-serif" fill="#FFF">Rust (1.9k lines, 1.2%)</text>
<circle cx="16" cy="216" r="6" fill="#000000" />
<text x="27" y="220" font-size="15" font-family="sans-serif" fill="#FFF">Batch (1.6k lines, 1.0%)</text>
<circle cx="266" cy="216" r="6" fill="#f34b7d" />
<text x="277" y="220" font-size="15" font-family="sans-serif" fill="#FFF">C++ (1.6k lines, 1.0%)</text>
<circle cx="516" cy="216" r="6" fill="#ec915c" />
<text x="527" y="220" font-size="15" font-family="sans-serif" fill="#FFF">Zig (864 lines, 0.6%)</text>
<circle cx="16" cy="236" r="6" fill="#000000" />
<text x="27" y="240" font-size="15" font-family="sans-serif" fill="#FFF">WebGPU Shad… (760 lines, 0.5%)</text>
<circle cx="266" cy="236" r="6" fill="#DA3434" />
<text x="277" y="240" font-size="15" font-family="sans-serif" fill="#FFF">CMake (685 lines, 0.4%)</text>
<circle cx="516" cy="236" r="6" fill="#000000" />
<text x="527" y="240" font-size="15" font-family="sans-serif" fill="#FFF">Cabal (536 lines, 0.3%)</text>
<circle cx="16" cy="256" r="6" fill="#427819" />
<text x="27" y="260" font-size="15" font-family="sans-serif" fill="#FFF">Makefile (533 lines, 0.3%)</text>
<circle cx="266" cy="256" r="6" fill="#000000" />
<text x="277" y="260" font-size="15" font-family="sans-serif" fill="#FFF">Templ (439 lines, 0.3%)</text>
<circle cx="516" cy="256" r="6" fill="#199f4b" />
<text x="527" y="260" font-size="15" font-family="sans-serif" fill="#FFF">Vim Script (287 lines, 0.2%)</text>
<circle cx="16" cy="276" r="6" fill="#B83998" />
<text x="27" y="280" font-size="15" font-family="sans-serif" fill="#FFF">Erlang (220 lines, 0.1%)</text>
<circle cx="266" cy="276" r="6" fill="#000000" />
<text x="277" y="280" font-size="15" font-family="sans-serif" fill="#FFF">Bitbake (163 lines, 0.1%)</text>
<circle cx="516" cy="276" r="6" fill="#db5855" />
<text x="527" y="280" font-size="15" font-family="sans-serif" fill="#FFF">Clojure (156 lines, 0.1%)</text>
<circle cx="16" cy="296" r="6" fill="#0050b2" />
<text x="27" y="300" font-size="15" font-family="sans-serif" fill="#FFF">FreeMarker (103 lines, 0.1%)</text>
<circle cx="266" cy="296" r="6" fill="#701516" />
<text x="277" y="300" font-size="15" font-family="sans-serif" fill="#FFF">Ruby (100 lines, 0.1%)</text>
</svg>