<svg width="800" height="330" xmlns="http://www.w3.org/2000/svg">
<rect width="800" height="330" fill="#212830"/>
<rect x="10" y="40" width="119.43286757488708" height="50" fill="#555555"/>
<rect x="129.4328675748871" y="40" width="98.36325047663586" height="50" fill="#b07219"/>
<rect x="227.79611805152297" y="40" width="88.02783245029369" height="50" fill="#c22d40"/>
<rect x="315.8239505018166" y="40" width="77.02229782160714" height="50" fill="#00B4AB"/>
<rect x="392.84624832342377" y="40" width="57.24769133524844" height="50" fill="#A97BFF"/>
<rect x="450.0939396586722" y="40" width="47.34805465767011" height="50" fill="None"/>
<rect x="497.4419943163423" y="40" width="42.90390712923898" height="50" fill="#3572A5"/>
<rect x="540.3459014455813" y="40" width="41.11144799658775" height="50" fill="#dea584"/>
<rect x="581.4573494421691" y="40" width="37.93353306645152" height="50" fill="#5e5086"/>
<rect x="619.3908825086206" y="40" width="37.72797582646858" height="50" fill="#000000"/>
<rect x="657.1188583350892" y="40" width="33.93750032118319" height="50" fill="#3D6117"/>
<rect x="691.0563586562723" y="40" width="20.091164635932433" height="50" fill="#89e051"/>
<rect x="711.1475232922047" y="40" width="17.406587081755255" height="50" fill="#239dad"/>
<rect x="728.5541103739599" y="40" width="16.769359637808144" height="50" fill="#ec915c"/>
<rect x="745.3234700117681" y="40" width="13.982003463639495" height="50" fill="#000000"/>
<rect x="759.3054734754076" y="40" width="9.973637283972188" height="50" fill="#000080"/>
<rect x="769.2791107593797" y="40" width="8.806072160869096" height="50" fill="#000000"/>
<rect x="778.0851829202488" y="40" width="7.922176028942459" height="50" fill="#f34b7d"/>
<rect x="786.0073589491913" y="40" width="6.499719928260523" height="50" fill="#000000"/>
<rect x="792.5070788774518" y="40" width="3.6054739893007457" height="50" fill="#000000"/>
<rect x="796.1125528667526" y="40" width="2.832578766964896" height="50" fill="#427819"/>
<rect x="798.9451316337174" y="40" width="2.8161341877662607" height="50" fill="#DA3434"/>
<rect x="801.7612658214837" y="40" width="2.2035736126171033" height="50" fill="#000000"/>
<rect x="803.9648394341008" y="40" width="1.8047925670502023" height="50" fill="#000000"/>
<rect x="805.769632001151" y="40" width="1.1798985575020684" height="50" fill="#199f4b"/>
<rect x="806.949530558653" y="40" width="0.9044518559249305" height="50" fill="#B83998"/>
<rect x="807.8539824145779" y="40" width="0.6701166023443803" height="50" fill="#000000"/>
<rect x="808.5240990169223" y="40" width="0.6413385887467691" height="50" fill="#db5855"/>
<rect x="809.165437605669" y="40" width="0.42344791436485385" height="50" fill="#0050b2"/>
<rect x="809.5888855200338" y="40" width="0.41111447996587747" height="50" fill="#701516"/>
<circle cx="16" cy="116" r="6" fill="#555555" />
<text x="27" y="120" font-size="15" font-family="sans-serif" fill="#FFF">C (29.1k lines, 14.9%)</text>
<circle cx="266" cy="116" r="6" fill="#b07219" />
<text x="277" y="120" font-size="15" font-family="sans-serif" fill="#FFF">Java (23.9k lines, 12.3%)</text>
<circle cx="516" cy="116" r="6" fill="#c22d40" />
<text x="527" y="120" font-size="15" font-family="sans-serif" fill="#FFF">Scala (21.4k lines, 11.0%)</text>
<circle cx="16" cy="136" r="6" fill="#00B4AB" />
<text x="27" y="140" font-size="15" font-family="sans-serif" fill="#FFF">Dart (18.7k lines, 9.6%)</text>
<circle cx="266" cy="136" r="6" fill="#A97BFF" />
<text x="277" y="140" font-size="15" font-family="sans-serif" fill="#FFF">Kotlin (13.9k lines, 7.2%)</text>
<circle cx="516" cy="136" r="6" fill="None" />
<text x="527" y="140" font-size="15" font-family="sans-serif" fill="#FFF">Lean (11.5k lines, 5.9%)</text>
<circle cx="16" cy="156" r="6" fill="#3572A5" />
<text x="27" y="160" font-size="15" font-family="sans-serif" fill="#FFF">Python (10.4k lines, 5.4%)</text>
<circle cx="266" cy="156" r="6" fill="#dea584" />
<text x="277" y="160" font-size="15" font-family="sans-serif" fill="#FFF">Rust (10.0k lines, 5.1%)</text>
<circle cx="516" cy="156" r="6" fill="#5e5086" />
<text x="527" y="160" font-size="15" font-family="sans-serif" fill="#FFF">Haskell (9.2k lines, 4.7%)</text>
<circle cx="16" cy="176" r="6" fill="#000000" />
<text x="27" y="180" font-size="15" font-family="sans-serif" fill="#FFF">C Header (9.2k lines, 4.7%)</text>
<circle cx="266" cy="176" r="6" fill="#3D6117" />
<text x="277" y="180" font-size="15" font-family="sans-serif" fill="#FFF">TeX (8.3k lines, 4.2%)</text>
<circle cx="516" cy="176" r="6" fill="#89e051" />
<text x="527" y="180" font-size="15" font-family="sans-serif" fill="#FFF">Shell (4.9k lines, 2.5%)</text>
<circle cx="16" cy="196" r="6" fill="#239dad" />
<text x="27" y="200" font-size="15" font-family="sans-serif" fill="#FFF">Typst (4.2k lines, 2.2%)</text>
<circle cx="266" cy="196" r="6" fill="#ec915c" />
<text x="277" y="200" font-size="15" font-family="sans-serif" fill="#FFF">Zig (4.1k lines, 2.1%)</text>
<circle cx="516" cy="196" r="6" fill="#000000" />
<text x="527" y="200" font-size="15" font-family="sans-serif" fill="#FFF">Jupyter Not… (3.4k lines, 1.7%)</text>
<circle cx="16" cy="216" r="6" fill="#000080" />
<text x="27" y="220" font-size="15" font-family="sans-serif" fill="#FFF">Lua (2.4k lines, 1.2%)</text>
<circle cx="266" cy="216" r="6" fill="#000000" />
<text x="277" y="220" font-size="15" font-family="sans-serif" fill="#FFF">GNU Style A… (2.1k lines, 1.1%)</text>
<circle cx="516" cy="216" r="6" fill="#f34b7d" />
<text x="527" y="220" font-size="15" font-family="sans-serif" fill="#FFF">C++ (1.9k lines, 1.0%)</text>
<circle cx="16" cy="236" r="6" fill="#000000" />
<text x="27" y="240" font-size="15" font-family="sans-serif" fill="#FFF">Batch (1.6k lines, 0.8%)</text>
<circle cx="266" cy="236" r="6" fill="#000000" />
<text x="277" y="240" font-size="15" font-family="sans-serif" fill="#FFF">WebGPU Shad… (877 lines, 0.5%)</text>
<circle cx="516" cy="236" r="6" fill="#427819" />
<text x="527" y="240" font-size="15" font-family="sans-serif" fill="#FFF">Makefile (689 lines, 0.4%)</text>
<circle cx="16" cy="256" r="6" fill="#DA3434" />
<text x="27" y="260" font-size="15" font-family="sans-serif" fill="#FFF">CMake (685 lines, 0.4%)</text>
<circle cx="266" cy="256" r="6" fill="#000000" />
<text x="277" y="260" font-size="15" font-family="sans-serif" fill="#FFF">Cabal (536 lines, 0.3%)</text>
<circle cx="516" cy="256" r="6" fill="#000000" />
<text x="527" y="260" font-size="15" font-family="sans-serif" fill="#FFF">Templ (439 lines, 0.2%)</text>
<circle cx="16" cy="276" r="6" fill="#199f4b" />
<text x="27" y="280" font-size="15" font-family="sans-serif" fill="#FFF">Vim Script (287 lines, 0.1%)</text>
<circle cx="266" cy="276" r="6" fill="#B83998" />
<text x="277" y="280" font-size="15" font-family="sans-serif" fill="#FFF">Erlang (220 lines, 0.1%)</text>
<circle cx="516" cy="276" r="6" fill="#000000" />
<text x="527" y="280" font-size="15" font-family="sans-serif" fill="#FFF">Bitbake (163 lines, 0.1%)</text>
<circle cx="16" cy="296" r="6" fill="#db5855" />
<text x="27" y="300" font-size="15" font-family="sans-serif" fill="#FFF">Clojure (156 lines, 0.1%)</text>
<circle cx="266" cy="296" r="6" fill="#0050b2" />
<text x="277" y="300" font-size="15" font-family="sans-serif" fill="#FFF">FreeMarker (103 lines, 0.1%)</text>
<circle cx="516" cy="296" r="6" fill="#701516" />
<text x="527" y="300" font-size="15" font-family="sans-serif" fill="#FFF">Ruby (100 lines, 0.1%)</text>
</svg>