<svg width="800" height="350" xmlns="http://www.w3.org/2000/svg">
<rect width="800" height="350" fill="#212830"/>
<rect x="10" y="40" width="192.88141469046283" height="50" fill="#3572A5"/>
<rect x="202.88141469046283" y="40" width="115.17678725025591" height="50" fill="#dea584"/>
<rect x="318.05820194071873" y="40" width="76.00919666539116" height="50" fill="#555555"/>
<rect x="394.0673986061099" y="40" width="62.60011839234963" height="50" fill="#b07219"/>
<rect x="456.6675169984595" y="40" width="56.02247492338838" height="50" fill="#c22d40"/>
<rect x="512.6899919218479" y="40" width="49.01835735520648" height="50" fill="#00B4AB"/>
<rect x="561.7083492770544" y="40" width="46.08013395996245" height="50" fill="#A97BFF"/>
<rect x="607.7884832370169" y="40" width="36.80759280880944" height="50" fill="#3D6117"/>
<rect x="644.5960760458263" y="40" width="30.133142335730618" height="50" fill="None"/>
<rect x="674.729218381557" y="40" width="24.14157370250815" height="50" fill="#5e5086"/>
<rect x="698.8707920840651" y="40" width="24.0107534266736" height="50" fill="#000000"/>
<rect x="722.8815455107386" y="40" width="14.369299097667149" height="50" fill="#ec915c"/>
<rect x="737.2508446084058" y="40" width="14.256793660449432" height="50" fill="#89e051"/>
<rect x="751.5076382688553" y="40" width="12.200298924330282" height="50" fill="#239dad"/>
<rect x="763.7079371931856" y="40" width="8.8983951622662" height="50" fill="#000000"/>
<rect x="772.6063323554517" y="40" width="8.116089912775582" height="50" fill="#000080"/>
<rect x="780.7224222682273" y="40" width="5.60434061675219" height="50" fill="#000000"/>
<rect x="786.3267628849795" y="40" width="5.041813430663619" height="50" fill="#f34b7d"/>
<rect x="791.3685763156432" y="40" width="4.303987074956748" height="50" fill="#000000"/>
<rect x="795.6725633905999" y="40" width="2.3338337208884004" height="50" fill="#427819"/>
<rect x="798.0063971114882" y="40" width="2.2945876381380352" height="50" fill="#000000"/>
<rect x="800.3009847496263" y="40" width="1.792237778933357" height="50" fill="#DA3434"/>
<rect x="802.0932225285596" y="40" width="1.601240176214912" height="50" fill="#41b883"/>
<rect x="803.6944627047745" y="40" width="1.4023933569463933" height="50" fill="#000000"/>
<rect x="805.0968560617209" y="40" width="1.148602021827363" height="50" fill="#000000"/>
<rect x="806.2454580835483" y="40" width="0.800620088107456" height="50" fill="#384d54"/>
<rect x="807.0460781716558" y="40" width="0.7509083832903262" height="50" fill="#199f4b"/>
<rect x="807.7969865549462" y="40" width="0.575609213672027" height="50" fill="#B83998"/>
<rect x="808.3725957686182" y="40" width="0.42647409922063817" height="50" fill="#000000"/>
<rect x="808.7990698678389" y="40" width="0.408159260603801" height="50" fill="#db5855"/>
<rect x="809.2072291284427" y="40" width="0.2694897682191763" height="50" fill="#0050b2"/>
<rect x="809.4767188966619" y="40" width="0.2616405516691032" height="50" fill="#000000"/>
<rect x="809.7383594483309" y="40" width="0.2616405516691032" height="50" fill="#701516"/>
<circle cx="16" cy="116" r="6" fill="#3572A5" />
<text x="27" y="120" font-size="15" font-family="sans-serif" fill="#FFF">Python (73.7k lines, 24.1%)</text>
<circle cx="266" cy="116" r="6" fill="#dea584" />
<text x="277" y="120" font-size="15" font-family="sans-serif" fill="#FFF">Rust (44.0k lines, 14.4%)</text>
<circle cx="516" cy="116" r="6" fill="#555555" />
<text x="527" y="120" font-size="15" font-family="sans-serif" fill="#FFF">C (29.1k lines, 9.5%)</text>
<circle cx="16" cy="136" r="6" fill="#b07219" />
<text x="27" y="140" font-size="15" font-family="sans-serif" fill="#FFF">Java (23.9k lines, 7.8%)</text>
<circle cx="266" cy="136" r="6" fill="#c22d40" />
<text x="277" y="140" font-size="15" font-family="sans-serif" fill="#FFF">Scala (21.4k lines, 7.0%)</text>
<circle cx="516" cy="136" r="6" fill="#00B4AB" />
<text x="527" y="140" font-size="15" font-family="sans-serif" fill="#FFF">Dart (18.7k lines, 6.1%)</text>
<circle cx="16" cy="156" r="6" fill="#A97BFF" />
<text x="27" y="160" font-size="15" font-family="sans-serif" fill="#FFF">Kotlin (17.6k lines, 5.8%)</text>
<circle cx="266" cy="156" r="6" fill="#3D6117" />
<text x="277" y="160" font-size="15" font-family="sans-serif" fill="#FFF">TeX (14.1k lines, 4.6%)</text>
<circle cx="516" cy="156" r="6" fill="None" />
<text x="527" y="160" font-size="15" font-family="sans-serif" fill="#FFF">Lean (11.5k lines, 3.8%)</text>
<circle cx="16" cy="176" r="6" fill="#5e5086" />
<text x="27" y="180" font-size="15" font-family="sans-serif" fill="#FFF">Haskell (9.2k lines, 3.0%)</text>
<circle cx="266" cy="176" r="6" fill="#000000" />
<text x="277" y="180" font-size="15" font-family="sans-serif" fill="#FFF">C Header (9.2k lines, 3.0%)</text>
<circle cx="516" cy="176" r="6" fill="#ec915c" />
<text x="527" y="180" font-size="15" font-family="sans-serif" fill="#FFF">Zig (5.5k lines, 1.8%)</text>
<circle cx="16" cy="196" r="6" fill="#89e051" />
<text x="27" y="200" font-size="15" font-family="sans-serif" fill="#FFF">Shell (5.4k lines, 1.8%)</text>
<circle cx="266" cy="196" r="6" fill="#239dad" />
<text x="277" y="200" font-size="15" font-family="sans-serif" fill="#FFF">Typst (4.7k lines, 1.5%)</text>
<circle cx="516" cy="196" r="6" fill="#000000" />
<text x="527" y="200" font-size="15" font-family="sans-serif" fill="#FFF">Jupyter Not… (3.4k lines, 1.1%)</text>
<circle cx="16" cy="216" r="6" fill="#000080" />
<text x="27" y="220" font-size="15" font-family="sans-serif" fill="#FFF">Lua (3.1k lines, 1.0%)</text>
<circle cx="266" cy="216" r="6" fill="#000000" />
<text x="277" y="220" font-size="15" font-family="sans-serif" fill="#FFF">GNU Style A… (2.1k lines, 0.7%)</text>
<circle cx="516" cy="216" r="6" fill="#f34b7d" />
<text x="527" y="220" font-size="15" font-family="sans-serif" fill="#FFF">C++ (1.9k lines, 0.6%)</text>
<circle cx="16" cy="236" r="6" fill="#000000" />
<text x="27" y="240" font-size="15" font-family="sans-serif" fill="#FFF">Batch (1.6k lines, 0.5%)</text>
<circle cx="266" cy="236" r="6" fill="#427819" />
<text x="277" y="240" font-size="15" font-family="sans-serif" fill="#FFF">Makefile (892 lines, 0.3%)</text>
<circle cx="516" cy="236" r="6" fill="#000000" />
<text x="527" y="240" font-size="15" font-family="sans-serif" fill="#FFF">WebGPU Shad… (877 lines, 0.3%)</text>
<circle cx="16" cy="256" r="6" fill="#DA3434" />
<text x="27" y="260" font-size="15" font-family="sans-serif" fill="#FFF">CMake (685 lines, 0.2%)</text>
<circle cx="266" cy="256" r="6" fill="#41b883" />
<text x="277" y="260" font-size="15" font-family="sans-serif" fill="#FFF">Vue (612 lines, 0.2%)</text>
<circle cx="516" cy="256" r="6" fill="#000000" />
<text x="527" y="260" font-size="15" font-family="sans-serif" fill="#FFF">Cabal (536 lines, 0.2%)</text>
<circle cx="16" cy="276" r="6" fill="#000000" />
<text x="27" y="280" font-size="15" font-family="sans-serif" fill="#FFF">Templ (439 lines, 0.1%)</text>
<circle cx="266" cy="276" r="6" fill="#384d54" />
<text x="277" y="280" font-size="15" font-family="sans-serif" fill="#FFF">Just (306 lines, 0.1%)</text>
<circle cx="516" cy="276" r="6" fill="#199f4b" />
<text x="527" y="280" font-size="15" font-family="sans-serif" fill="#FFF">Vim Script (287 lines, 0.1%)</text>
<circle cx="16" cy="296" r="6" fill="#B83998" />
<text x="27" y="300" font-size="15" font-family="sans-serif" fill="#FFF">Erlang (220 lines, 0.1%)</text>
<circle cx="266" cy="296" r="6" fill="#000000" />
<text x="277" y="300" font-size="15" font-family="sans-serif" fill="#FFF">Bitbake (163 lines, 0.1%)</text>
<circle cx="516" cy="296" r="6" fill="#db5855" />
<text x="527" y="300" font-size="15" font-family="sans-serif" fill="#FFF">Clojure (156 lines, 0.1%)</text>
<circle cx="16" cy="316" r="6" fill="#0050b2" />
<text x="27" y="320" font-size="15" font-family="sans-serif" fill="#FFF">FreeMarker (103 lines, 0.0%)</text>
<circle cx="266" cy="316" r="6" fill="#000000" />
<text x="277" y="320" font-size="15" font-family="sans-serif" fill="#FFF">Fish (100 lines, 0.0%)</text>
<circle cx="516" cy="316" r="6" fill="#701516" />
<text x="527" y="320" font-size="15" font-family="sans-serif" fill="#FFF">Ruby (100 lines, 0.0%)</text>
</svg>