<svg width="800" height="330" xmlns="http://www.w3.org/2000/svg">
<rect width="800" height="330" fill="#212830"/>
<rect x="10" y="40" width="136.86908565250667" height="50" fill="#555555"/>
<rect x="146.86908565250667" y="40" width="116.25709114320767" height="50" fill="#b07219"/>
<rect x="263.12617679571434" y="40" width="99.73153873252268" height="50" fill="#c22d40"/>
<rect x="362.857715528237" y="40" width="64.94576110591466" height="50" fill="#A97BFF"/>
<rect x="427.80347663415165" y="40" width="64.21204795860108" height="50" fill="#00B4AB"/>
<rect x="492.01552459275274" y="40" width="47.637905273259555" height="50" fill="None"/>
<rect x="539.6534298660123" y="40" width="44.73220684879921" height="50" fill="#5e5086"/>
<rect x="584.3856367148115" y="40" width="44.226867992371325" height="50" fill="#000000"/>
<rect x="628.6125047071829" y="40" width="40.11127172896345" height="50" fill="#3D6117"/>
<rect x="668.7237764361463" y="40" width="33.05596384883566" height="50" fill="#3572A5"/>
<rect x="701.7797402849819" y="40" width="23.051226297056647" height="50" fill="#89e051"/>
<rect x="724.8309665820386" y="40" width="15.019253896332648" height="50" fill="#239dad"/>
<rect x="739.8502204783713" y="40" width="11.768564521810958" height="50" fill="#000080"/>
<rect x="751.6187850001822" y="40" width="10.40803683142819" height="50" fill="#000000"/>
<rect x="762.0268218316104" y="40" width="9.018354976251503" height="50" fill="#dea584"/>
<rect x="771.0451768078619" y="40" width="7.682122423196996" height="50" fill="#000000"/>
<rect x="778.727299231059" y="40" width="7.609237011212206" height="50" fill="#f34b7d"/>
<rect x="786.3365362422712" y="40" width="4.198199730323976" height="50" fill="#ec915c"/>
<rect x="790.5347359725952" y="40" width="3.6928608738960893" height="50" fill="#000000"/>
<rect x="794.2275968464912" y="40" width="3.3284338139721337" height="50" fill="#DA3434"/>
<rect x="797.5560306604633" y="40" width="2.7064782983685816" height="50" fill="#427819"/>
<rect x="800.2625089588319" y="40" width="2.6044387215898737" height="50" fill="#000000"/>
<rect x="802.8669476804217" y="40" width="2.133113057421557" height="50" fill="#000000"/>
<rect x="805.0000607378433" y="40" width="1.394540882642339" height="50" fill="#199f4b"/>
<rect x="806.3946016204857" y="40" width="1.0689860424436048" height="50" fill="#B83998"/>
<rect x="807.4635876629293" y="40" width="0.7920214769013981" height="50" fill="#000000"/>
<rect x="808.2556091398307" y="40" width="0.758008284641829" height="50" fill="#db5855"/>
<rect x="809.0136174244725" y="40" width="0.5004798289622332" height="50" fill="#0050b2"/>
<rect x="809.5140972534348" y="40" width="0.485902746565275" height="50" fill="#701516"/>
<circle cx="16" cy="116" r="6" fill="#555555" />
<text x="27" y="120" font-size="15" font-family="sans-serif" fill="#FFF">C (28.2k lines, 17.1%)</text>
<circle cx="266" cy="116" r="6" fill="#b07219" />
<text x="277" y="120" font-size="15" font-family="sans-serif" fill="#FFF">Java (23.9k lines, 14.5%)</text>
<circle cx="516" cy="116" r="6" fill="#c22d40" />
<text x="527" y="120" font-size="15" font-family="sans-serif" fill="#FFF">Scala (20.5k lines, 12.5%)</text>
<circle cx="16" cy="136" r="6" fill="#A97BFF" />
<text x="27" y="140" font-size="15" font-family="sans-serif" fill="#FFF">Kotlin (13.4k lines, 8.1%)</text>
<circle cx="266" cy="136" r="6" fill="#00B4AB" />
<text x="277" y="140" font-size="15" font-family="sans-serif" fill="#FFF">Dart (13.2k lines, 8.0%)</text>
<circle cx="516" cy="136" r="6" fill="None" />
<text x="527" y="140" font-size="15" font-family="sans-serif" fill="#FFF">Lean (9.8k lines, 6.0%)</text>
<circle cx="16" cy="156" r="6" fill="#5e5086" />
<text x="27" y="160" font-size="15" font-family="sans-serif" fill="#FFF">Haskell (9.2k lines, 5.6%)</text>
<circle cx="266" cy="156" r="6" fill="#000000" />
<text x="277" y="160" font-size="15" font-family="sans-serif" fill="#FFF">C Header (9.1k lines, 5.5%)</text>
<circle cx="516" cy="156" r="6" fill="#3D6117" />
<text x="527" y="160" font-size="15" font-family="sans-serif" fill="#FFF">TeX (8.3k lines, 5.0%)</text>
<circle cx="16" cy="176" r="6" fill="#3572A5" />
<text x="27" y="180" font-size="15" font-family="sans-serif" fill="#FFF">Python (6.8k lines, 4.1%)</text>
<circle cx="266" cy="176" r="6" fill="#89e051" />
<text x="277" y="180" font-size="15" font-family="sans-serif" fill="#FFF">Shell (4.7k lines, 2.9%)</text>
<circle cx="516" cy="176" r="6" fill="#239dad" />
<text x="527" y="180" font-size="15" font-family="sans-serif" fill="#FFF">Typst (3.1k lines, 1.9%)</text>
<circle cx="16" cy="196" r="6" fill="#000080" />
<text x="27" y="200" font-size="15" font-family="sans-serif" fill="#FFF">Lua (2.4k lines, 1.5%)</text>
<circle cx="266" cy="196" r="6" fill="#000000" />
<text x="277" y="200" font-size="15" font-family="sans-serif" fill="#FFF">GNU Style A… (2.1k lines, 1.3%)</text>
<circle cx="516" cy="196" r="6" fill="#dea584" />
<text x="527" y="200" font-size="15" font-family="sans-serif" fill="#FFF">Rust (1.9k lines, 1.1%)</text>
<circle cx="16" cy="216" r="6" fill="#000000" />
<text x="27" y="220" font-size="15" font-family="sans-serif" fill="#FFF">Batch (1.6k lines, 1.0%)</text>
<circle cx="266" cy="216" r="6" fill="#f34b7d" />
<text x="277" y="220" font-size="15" font-family="sans-serif" fill="#FFF">C++ (1.6k lines, 1.0%)</text>
<circle cx="516" cy="216" r="6" fill="#ec915c" />
<text x="527" y="220" font-size="15" font-family="sans-serif" fill="#FFF">Zig (864 lines, 0.5%)</text>
<circle cx="16" cy="236" r="6" fill="#000000" />
<text x="27" y="240" font-size="15" font-family="sans-serif" fill="#FFF">WebGPU Shad… (760 lines, 0.5%)</text>
<circle cx="266" cy="236" r="6" fill="#DA3434" />
<text x="277" y="240" font-size="15" font-family="sans-serif" fill="#FFF">CMake (685 lines, 0.4%)</text>
<circle cx="516" cy="236" r="6" fill="#427819" />
<text x="527" y="240" font-size="15" font-family="sans-serif" fill="#FFF">Makefile (557 lines, 0.3%)</text>
<circle cx="16" cy="256" r="6" fill="#000000" />
<text x="27" y="260" font-size="15" font-family="sans-serif" fill="#FFF">Cabal (536 lines, 0.3%)</text>
<circle cx="266" cy="256" r="6" fill="#000000" />
<text x="277" y="260" font-size="15" font-family="sans-serif" fill="#FFF">Templ (439 lines, 0.3%)</text>
<circle cx="516" cy="256" r="6" fill="#199f4b" />
<text x="527" y="260" font-size="15" font-family="sans-serif" fill="#FFF">Vim Script (287 lines, 0.2%)</text>
<circle cx="16" cy="276" r="6" fill="#B83998" />
<text x="27" y="280" font-size="15" font-family="sans-serif" fill="#FFF">Erlang (220 lines, 0.1%)</text>
<circle cx="266" cy="276" r="6" fill="#000000" />
<text x="277" y="280" font-size="15" font-family="sans-serif" fill="#FFF">Bitbake (163 lines, 0.1%)</text>
<circle cx="516" cy="276" r="6" fill="#db5855" />
<text x="527" y="280" font-size="15" font-family="sans-serif" fill="#FFF">Clojure (156 lines, 0.1%)</text>
<circle cx="16" cy="296" r="6" fill="#0050b2" />
<text x="27" y="300" font-size="15" font-family="sans-serif" fill="#FFF">FreeMarker (103 lines, 0.1%)</text>
<circle cx="266" cy="296" r="6" fill="#701516" />
<text x="277" y="300" font-size="15" font-family="sans-serif" fill="#FFF">Ruby (100 lines, 0.1%)</text>
</svg>