<svg width="800" height="350" xmlns="http://www.w3.org/2000/svg">
<rect x="10" y="40" width="131.48473447158722" height="50" fill="#555555"/>
<rect x="141.48473447158722" y="40" width="116.34259456239629" height="50" fill="#b07219"/>
<rect x="257.8273290339835" y="40" width="99.80488812978282" height="50" fill="#c22d40"/>
<rect x="357.6322171637663" y="40" width="89.35029570693104" height="50" fill="#A97BFF"/>
<rect x="446.98251287069735" y="40" width="58.21992329246722" height="50" fill="#00B4AB"/>
<rect x="505.2024361631646" y="40" width="44.76510597431331" height="50" fill="#5e5086"/>
<rect x="549.9675421374778" y="40" width="42.99511916411887" height="50" fill="#000000"/>
<rect x="592.9626613015967" y="40" width="40.140772302623986" height="50" fill="#3D6117"/>
<rect x="633.1034336042206" y="40" width="33.03651205621167" height="50" fill="#3572A5"/>
<rect x="666.1399456604323" y="40" width="24.7749527415953" height="50" fill="None"/>
<rect x="690.9148984020276" y="40" width="24.49292187623464" height="50" fill="#89e051"/>
<rect x="715.4078202782622" y="40" width="15.030300083272044" height="50" fill="#239dad"/>
<rect x="730.4381203615343" y="40" width="11.767494727116903" height="50" fill="#000080"/>
<rect x="742.2056150886511" y="40" width="10.415691613836533" height="50" fill="#000000"/>
<rect x="752.6213067024877" y="40" width="9.024987691540897" height="50" fill="#dea584"/>
<rect x="761.6462943940286" y="40" width="8.033017061651703" height="50" fill="#000000"/>
<rect x="769.6793114556802" y="40" width="7.614833364737632" height="50" fill="#f34b7d"/>
<rect x="777.2941448204178" y="40" width="7.614833364737632" height="50" fill="#e38c00"/>
<rect x="784.9089781851554" y="40" width="4.201287373648349" height="50" fill="#ec915c"/>
<rect x="789.1102655588038" y="40" width="3.6955768564499363" height="50" fill="#000000"/>
<rect x="792.8058424152538" y="40" width="3.3308817719318506" height="50" fill="#DA3434"/>
<rect x="796.1367241871857" y="40" width="2.6063542040225864" height="50" fill="#000000"/>
<rect x="798.7430783912083" y="40" width="2.5917664006418635" height="50" fill="#427819"/>
<rect x="801.3348447918502" y="40" width="2.134681894712529" height="50" fill="#000000"/>
<rect x="803.4695266865627" y="40" width="1.5268567538490527" height="50" fill="#384d54"/>
<rect x="804.9963834404118" y="40" width="1.3955665234225418" height="50" fill="#199f4b"/>
<rect x="806.3919499638343" y="40" width="1.0697722479197185" height="50" fill="#B83998"/>
<rect x="807.461722211754" y="40" width="0.7926039836859732" height="50" fill="#000000"/>
<rect x="808.25432619544" y="40" width="0.7585657757976185" height="50" fill="#db5855"/>
<rect x="809.0128919712375" y="40" width="0.5008479160715045" height="50" fill="#0050b2"/>
<rect x="809.513739887309" y="40" width="0.48626011269078107" height="50" fill="#701516"/>
<circle cx="16" cy="116" r="6" fill="#555555" />
<text x="27" y="120" font-size="15" font-family="sans-serif" fill="#FFF">C (27.0k lines, 16.4%)</text>
<circle cx="266" cy="116" r="6" fill="#b07219" />
<text x="277" y="120" font-size="15" font-family="sans-serif" fill="#FFF">Java (23.9k lines, 14.5%)</text>
<circle cx="516" cy="116" r="6" fill="#c22d40" />
<text x="527" y="120" font-size="15" font-family="sans-serif" fill="#FFF">Scala (20.5k lines, 12.5%)</text>
<circle cx="16" cy="136" r="6" fill="#A97BFF" />
<text x="27" y="140" font-size="15" font-family="sans-serif" fill="#FFF">Kotlin (18.4k lines, 11.2%)</text>
<circle cx="266" cy="136" r="6" fill="#00B4AB" />
<text x="277" y="140" font-size="15" font-family="sans-serif" fill="#FFF">Dart (12.0k lines, 7.3%)</text>
<circle cx="516" cy="136" r="6" fill="#5e5086" />
<text x="527" y="140" font-size="15" font-family="sans-serif" fill="#FFF">Haskell (9.2k lines, 5.6%)</text>
<circle cx="16" cy="156" r="6" fill="#000000" />
<text x="27" y="160" font-size="15" font-family="sans-serif" fill="#FFF">C Header (8.8k lines, 5.4%)</text>
<circle cx="266" cy="156" r="6" fill="#3D6117" />
<text x="277" y="160" font-size="15" font-family="sans-serif" fill="#FFF">TeX (8.3k lines, 5.0%)</text>
<circle cx="516" cy="156" r="6" fill="#3572A5" />
<text x="527" y="160" font-size="15" font-family="sans-serif" fill="#FFF">Python (6.8k lines, 4.1%)</text>
<circle cx="16" cy="176" r="6" fill="None" />
<text x="27" y="180" font-size="15" font-family="sans-serif" fill="#FFF">Lean (5.1k lines, 3.1%)</text>
<circle cx="266" cy="176" r="6" fill="#89e051" />
<text x="277" y="180" font-size="15" font-family="sans-serif" fill="#FFF">Shell (5.0k lines, 3.1%)</text>
<circle cx="516" cy="176" r="6" fill="#239dad" />
<text x="527" y="180" font-size="15" font-family="sans-serif" fill="#FFF">Typst (3.1k lines, 1.9%)</text>
<circle cx="16" cy="196" r="6" fill="#000080" />
<text x="27" y="200" font-size="15" font-family="sans-serif" fill="#FFF">Lua (2.4k lines, 1.5%)</text>
<circle cx="266" cy="196" r="6" fill="#000000" />
<text x="277" y="200" font-size="15" font-family="sans-serif" fill="#FFF">GNU Style A… (2.1k lines, 1.3%)</text>
<circle cx="516" cy="196" r="6" fill="#dea584" />
<text x="527" y="200" font-size="15" font-family="sans-serif" fill="#FFF">Rust (1.9k lines, 1.1%)</text>
<circle cx="16" cy="216" r="6" fill="#000000" />
<text x="27" y="220" font-size="15" font-family="sans-serif" fill="#FFF">Batch (1.7k lines, 1.0%)</text>
<circle cx="266" cy="216" r="6" fill="#f34b7d" />
<text x="277" y="220" font-size="15" font-family="sans-serif" fill="#FFF">C++ (1.6k lines, 1.0%)</text>
<circle cx="516" cy="216" r="6" fill="#e38c00" />
<text x="527" y="220" font-size="15" font-family="sans-serif" fill="#FFF">SQL (1.6k lines, 1.0%)</text>
<circle cx="16" cy="236" r="6" fill="#ec915c" />
<text x="27" y="240" font-size="15" font-family="sans-serif" fill="#FFF">Zig (864 lines, 0.5%)</text>
<circle cx="266" cy="236" r="6" fill="#000000" />
<text x="277" y="240" font-size="15" font-family="sans-serif" fill="#FFF">WebGPU Shad… (760 lines, 0.5%)</text>
<circle cx="516" cy="236" r="6" fill="#DA3434" />
<text x="527" y="240" font-size="15" font-family="sans-serif" fill="#FFF">CMake (685 lines, 0.4%)</text>
<circle cx="16" cy="256" r="6" fill="#000000" />
<text x="27" y="260" font-size="15" font-family="sans-serif" fill="#FFF">Cabal (536 lines, 0.3%)</text>
<circle cx="266" cy="256" r="6" fill="#427819" />
<text x="277" y="260" font-size="15" font-family="sans-serif" fill="#FFF">Makefile (533 lines, 0.3%)</text>
<circle cx="516" cy="256" r="6" fill="#000000" />
<text x="527" y="260" font-size="15" font-family="sans-serif" fill="#FFF">Templ (439 lines, 0.3%)</text>
<circle cx="16" cy="276" r="6" fill="#384d54" />
<text x="27" y="280" font-size="15" font-family="sans-serif" fill="#FFF">Dockerfile (314 lines, 0.2%)</text>
<circle cx="266" cy="276" r="6" fill="#199f4b" />
<text x="277" y="280" font-size="15" font-family="sans-serif" fill="#FFF">Vim Script (287 lines, 0.2%)</text>
<circle cx="516" cy="276" r="6" fill="#B83998" />
<text x="527" y="280" font-size="15" font-family="sans-serif" fill="#FFF">Erlang (220 lines, 0.1%)</text>
<circle cx="16" cy="296" r="6" fill="#000000" />
<text x="27" y="300" font-size="15" font-family="sans-serif" fill="#FFF">Bitbake (163 lines, 0.1%)</text>
<circle cx="266" cy="296" r="6" fill="#db5855" />
<text x="277" y="300" font-size="15" font-family="sans-serif" fill="#FFF">Clojure (156 lines, 0.1%)</text>
<circle cx="516" cy="296" r="6" fill="#0050b2" />
<text x="527" y="300" font-size="15" font-family="sans-serif" fill="#FFF">FreeMarker (103 lines, 0.1%)</text>
<circle cx="16" cy="316" r="6" fill="#701516" />
<text x="27" y="320" font-size="15" font-family="sans-serif" fill="#FFF">Ruby (100 lines, 0.1%)</text>
</svg>