<svg width="800" height="350" xmlns="http://www.w3.org/2000/svg">
<rect width="800" height="350" fill="#212830"/>
<rect x="10" y="40" width="105.54644746701788" height="50" fill="#555555"/>
<rect x="115.54644746701788" y="40" width="86.92658779717978" height="50" fill="#b07219"/>
<rect x="202.47303526419768" y="40" width="82.32339517246076" height="50" fill="#3572A5"/>
<rect x="284.79643043665845" y="40" width="77.79286541474602" height="50" fill="#c22d40"/>
<rect x="362.5892958514045" y="40" width="68.06694066622767" height="50" fill="#00B4AB"/>
<rect x="430.6562365176321" y="40" width="61.91966211766843" height="50" fill="#A97BFF"/>
<rect x="492.5758986353006" y="40" width="58.918685710393056" height="50" fill="#dea584"/>
<rect x="551.4945843456936" y="40" width="45.36706101410114" height="50" fill="None"/>
<rect x="596.8616453597948" y="40" width="33.523013692409" height="50" fill="#5e5086"/>
<rect x="630.3846590522038" y="40" width="33.34135652489839" height="50" fill="#000000"/>
<rect x="663.7260155771022" y="40" width="29.991598356002637" height="50" fill="#3D6117"/>
<rect x="693.7176139331049" y="40" width="19.953223279366018" height="50" fill="#ec915c"/>
<rect x="713.6708372124709" y="40" width="18.870546561002747" height="50" fill="#89e051"/>
<rect x="732.5413837734736" y="40" width="16.712459410976635" height="50" fill="#239dad"/>
<rect x="749.2538431844503" y="40" width="12.356320534072072" height="50" fill="#000000"/>
<rect x="761.6101637185224" y="40" width="11.270010672358591" height="50" fill="#000080"/>
<rect x="772.8801743908809" y="40" width="7.782193056154772" height="50" fill="#000000"/>
<rect x="780.6623674470358" y="40" width="7.001067235859125" height="50" fill="#f34b7d"/>
<rect x="787.6634346828948" y="40" width="5.9765208110992525" height="50" fill="#000000"/>
<rect x="793.6399554939941" y="40" width="3.186266718136197" height="50" fill="#000000"/>
<rect x="796.8262222121302" y="40" width="2.60859692545244" height="50" fill="#427819"/>
<rect x="799.4348191375826" y="40" width="2.4887031948954337" height="50" fill="#DA3434"/>
<rect x="801.923522332478" y="40" width="1.9473648357137991" height="50" fill="#000000"/>
<rect x="803.8708871681918" y="40" width="1.5949499307432047" height="50" fill="#000000"/>
<rect x="805.4658370989349" y="40" width="1.0427121415109335" height="50" fill="#199f4b"/>
<rect x="806.5085492404459" y="40" width="0.7992915370467085" height="50" fill="#B83998"/>
<rect x="807.3078407774925" y="40" width="0.5922023660846069" height="50" fill="#000000"/>
<rect x="807.9000431435771" y="40" width="0.5667703626331206" height="50" fill="#db5855"/>
<rect x="808.4668135062102" y="40" width="0.4323440586752652" height="50" fill="#41b883"/>
<rect x="808.8991575648855" y="40" width="0.37421376507186804" height="50" fill="#0050b2"/>
<rect x="809.2733713299574" y="40" width="0.36331433502123117" height="50" fill="#000000"/>
<rect x="809.6366856649786" y="40" width="0.36331433502123117" height="50" fill="#701516"/>
<circle cx="16" cy="116" r="6" fill="#555555" />
<text x="27" y="120" font-size="15" font-family="sans-serif" fill="#FFF">C (29.1k lines, 13.2%)</text>
<circle cx="266" cy="116" r="6" fill="#b07219" />
<text x="277" y="120" font-size="15" font-family="sans-serif" fill="#FFF">Java (23.9k lines, 10.9%)</text>
<circle cx="516" cy="116" r="6" fill="#3572A5" />
<text x="527" y="120" font-size="15" font-family="sans-serif" fill="#FFF">Python (22.7k lines, 10.3%)</text>
<circle cx="16" cy="136" r="6" fill="#c22d40" />
<text x="27" y="140" font-size="15" font-family="sans-serif" fill="#FFF">Scala (21.4k lines, 9.7%)</text>
<circle cx="266" cy="136" r="6" fill="#00B4AB" />
<text x="277" y="140" font-size="15" font-family="sans-serif" fill="#FFF">Dart (18.7k lines, 8.5%)</text>
<circle cx="516" cy="136" r="6" fill="#A97BFF" />
<text x="527" y="140" font-size="15" font-family="sans-serif" fill="#FFF">Kotlin (17.0k lines, 7.7%)</text>
<circle cx="16" cy="156" r="6" fill="#dea584" />
<text x="27" y="160" font-size="15" font-family="sans-serif" fill="#FFF">Rust (16.2k lines, 7.4%)</text>
<circle cx="266" cy="156" r="6" fill="None" />
<text x="277" y="160" font-size="15" font-family="sans-serif" fill="#FFF">Lean (12.5k lines, 5.7%)</text>
<circle cx="516" cy="156" r="6" fill="#5e5086" />
<text x="527" y="160" font-size="15" font-family="sans-serif" fill="#FFF">Haskell (9.2k lines, 4.2%)</text>
<circle cx="16" cy="176" r="6" fill="#000000" />
<text x="27" y="180" font-size="15" font-family="sans-serif" fill="#FFF">C Header (9.2k lines, 4.2%)</text>
<circle cx="266" cy="176" r="6" fill="#3D6117" />
<text x="277" y="180" font-size="15" font-family="sans-serif" fill="#FFF">TeX (8.3k lines, 3.7%)</text>
<circle cx="516" cy="176" r="6" fill="#ec915c" />
<text x="527" y="180" font-size="15" font-family="sans-serif" fill="#FFF">Zig (5.5k lines, 2.5%)</text>
<circle cx="16" cy="196" r="6" fill="#89e051" />
<text x="27" y="200" font-size="15" font-family="sans-serif" fill="#FFF">Shell (5.2k lines, 2.4%)</text>
<circle cx="266" cy="196" r="6" fill="#239dad" />
<text x="277" y="200" font-size="15" font-family="sans-serif" fill="#FFF">Typst (4.6k lines, 2.1%)</text>
<circle cx="516" cy="196" r="6" fill="#000000" />
<text x="527" y="200" font-size="15" font-family="sans-serif" fill="#FFF">Jupyter Not… (3.4k lines, 1.5%)</text>
<circle cx="16" cy="216" r="6" fill="#000080" />
<text x="27" y="220" font-size="15" font-family="sans-serif" fill="#FFF">Lua (3.1k lines, 1.4%)</text>
<circle cx="266" cy="216" r="6" fill="#000000" />
<text x="277" y="220" font-size="15" font-family="sans-serif" fill="#FFF">GNU Style A… (2.1k lines, 1.0%)</text>
<circle cx="516" cy="216" r="6" fill="#f34b7d" />
<text x="527" y="220" font-size="15" font-family="sans-serif" fill="#FFF">C++ (1.9k lines, 0.9%)</text>
<circle cx="16" cy="236" r="6" fill="#000000" />
<text x="27" y="240" font-size="15" font-family="sans-serif" fill="#FFF">Batch (1.6k lines, 0.7%)</text>
<circle cx="266" cy="236" r="6" fill="#000000" />
<text x="277" y="240" font-size="15" font-family="sans-serif" fill="#FFF">WebGPU Shad… (877 lines, 0.4%)</text>
<circle cx="516" cy="236" r="6" fill="#427819" />
<text x="527" y="240" font-size="15" font-family="sans-serif" fill="#FFF">Makefile (718 lines, 0.3%)</text>
<circle cx="16" cy="256" r="6" fill="#DA3434" />
<text x="27" y="260" font-size="15" font-family="sans-serif" fill="#FFF">CMake (685 lines, 0.3%)</text>
<circle cx="266" cy="256" r="6" fill="#000000" />
<text x="277" y="260" font-size="15" font-family="sans-serif" fill="#FFF">Cabal (536 lines, 0.2%)</text>
<circle cx="516" cy="256" r="6" fill="#000000" />
<text x="527" y="260" font-size="15" font-family="sans-serif" fill="#FFF">Templ (439 lines, 0.2%)</text>
<circle cx="16" cy="276" r="6" fill="#199f4b" />
<text x="27" y="280" font-size="15" font-family="sans-serif" fill="#FFF">Vim Script (287 lines, 0.1%)</text>
<circle cx="266" cy="276" r="6" fill="#B83998" />
<text x="277" y="280" font-size="15" font-family="sans-serif" fill="#FFF">Erlang (220 lines, 0.1%)</text>
<circle cx="516" cy="276" r="6" fill="#000000" />
<text x="527" y="280" font-size="15" font-family="sans-serif" fill="#FFF">Bitbake (163 lines, 0.1%)</text>
<circle cx="16" cy="296" r="6" fill="#db5855" />
<text x="27" y="300" font-size="15" font-family="sans-serif" fill="#FFF">Clojure (156 lines, 0.1%)</text>
<circle cx="266" cy="296" r="6" fill="#41b883" />
<text x="277" y="300" font-size="15" font-family="sans-serif" fill="#FFF">Vue (119 lines, 0.1%)</text>
<circle cx="516" cy="296" r="6" fill="#0050b2" />
<text x="527" y="300" font-size="15" font-family="sans-serif" fill="#FFF">FreeMarker (103 lines, 0.0%)</text>
<circle cx="16" cy="316" r="6" fill="#000000" />
<text x="27" y="320" font-size="15" font-family="sans-serif" fill="#FFF">Fish (100 lines, 0.0%)</text>
<circle cx="266" cy="316" r="6" fill="#701516" />
<text x="277" y="320" font-size="15" font-family="sans-serif" fill="#FFF">Ruby (100 lines, 0.0%)</text>
</svg>