<svg width="800" height="330" xmlns="http://www.w3.org/2000/svg">
<rect width="800" height="330" fill="#212830"/>
<rect x="10" y="40" width="125.62433782352053" height="50" fill="#555555"/>
<rect x="135.62433782352053" y="40" width="103.46602088693811" height="50" fill="#b07219"/>
<rect x="239.09035871045864" y="40" width="88.7586758632619" height="50" fill="#c22d40"/>
<rect x="327.84903457372053" y="40" width="78.54872537784601" height="50" fill="#00B4AB"/>
<rect x="406.3977599515665" y="40" width="58.72559406689875" height="50" fill="#A97BFF"/>
<rect x="465.12335401846525" y="40" width="49.804320093407426" height="50" fill="None"/>
<rect x="514.9276741118726" y="40" width="44.66258729918485" height="50" fill="#3572A5"/>
<rect x="559.5902614110576" y="40" width="39.90140327358429" height="50" fill="#5e5086"/>
<rect x="599.4916646846418" y="40" width="39.685182382321784" height="50" fill="#000000"/>
<rect x="639.1768470669635" y="40" width="35.698069147441025" height="50" fill="#3D6117"/>
<rect x="674.8749162144046" y="40" width="26.93247421565872" height="50" fill="#dea584"/>
<rect x="701.8073904300634" y="40" width="20.58422884819131" height="50" fill="#89e051"/>
<rect x="722.3916192782547" y="40" width="18.309585072109666" height="50" fill="#239dad"/>
<rect x="740.7012043503644" y="40" width="14.70734502367619" height="50" fill="#000000"/>
<rect x="755.4085493740406" y="40" width="10.491037644057169" height="50" fill="#000080"/>
<rect x="765.8995870180978" y="40" width="9.26290298168609" height="50" fill="#000000"/>
<rect x="775.1624899997839" y="40" width="6.8369045817206855" height="50" fill="#000000"/>
<rect x="781.9993945815046" y="40" width="6.772038314341931" height="50" fill="#f34b7d"/>
<rect x="788.7714328958465" y="40" width="3.736297001016238" height="50" fill="#ec915c"/>
<rect x="792.5077298968628" y="40" width="3.2865575471902093" height="50" fill="#000000"/>
<rect x="795.794287444053" y="40" width="2.9622262102964383" height="50" fill="#DA3434"/>
<rect x="798.7565136543494" y="40" width="2.5773530238491644" height="50" fill="#427819"/>
<rect x="801.3338666781985" y="40" width="2.317887954334148" height="50" fill="#000000"/>
<rect x="803.6517546325327" y="40" width="1.898419425284871" height="50" fill="#000000"/>
<rect x="805.5501740578176" y="40" width="1.241107915846829" height="50" fill="#199f4b"/>
<rect x="806.7912819736644" y="40" width="0.9513719215550607" height="50" fill="#B83998"/>
<rect x="807.7426538952194" y="40" width="0.7048801055157949" height="50" fill="#000000"/>
<rect x="808.4475340007352" y="40" width="0.674609180739043" height="50" fill="#db5855"/>
<rect x="809.1221431814743" y="40" width="0.44541503600077836" height="50" fill="#0050b2"/>
<rect x="809.567558217475" y="40" width="0.4324417825250276" height="50" fill="#701516"/>
<circle cx="16" cy="116" r="6" fill="#555555" />
<text x="27" y="120" font-size="15" font-family="sans-serif" fill="#FFF">C (29.1k lines, 15.7%)</text>
<circle cx="266" cy="116" r="6" fill="#b07219" />
<text x="277" y="120" font-size="15" font-family="sans-serif" fill="#FFF">Java (23.9k lines, 12.9%)</text>
<circle cx="516" cy="116" r="6" fill="#c22d40" />
<text x="527" y="120" font-size="15" font-family="sans-serif" fill="#FFF">Scala (20.5k lines, 11.1%)</text>
<circle cx="16" cy="136" r="6" fill="#00B4AB" />
<text x="27" y="140" font-size="15" font-family="sans-serif" fill="#FFF">Dart (18.2k lines, 9.8%)</text>
<circle cx="266" cy="136" r="6" fill="#A97BFF" />
<text x="277" y="140" font-size="15" font-family="sans-serif" fill="#FFF">Kotlin (13.6k lines, 7.3%)</text>
<circle cx="516" cy="136" r="6" fill="None" />
<text x="527" y="140" font-size="15" font-family="sans-serif" fill="#FFF">Lean (11.5k lines, 6.2%)</text>
<circle cx="16" cy="156" r="6" fill="#3572A5" />
<text x="27" y="160" font-size="15" font-family="sans-serif" fill="#FFF">Python (10.3k lines, 5.6%)</text>
<circle cx="266" cy="156" r="6" fill="#5e5086" />
<text x="277" y="160" font-size="15" font-family="sans-serif" fill="#FFF">Haskell (9.2k lines, 5.0%)</text>
<circle cx="516" cy="156" r="6" fill="#000000" />
<text x="527" y="160" font-size="15" font-family="sans-serif" fill="#FFF">C Header (9.2k lines, 5.0%)</text>
<circle cx="16" cy="176" r="6" fill="#3D6117" />
<text x="27" y="180" font-size="15" font-family="sans-serif" fill="#FFF">TeX (8.3k lines, 4.5%)</text>
<circle cx="266" cy="176" r="6" fill="#dea584" />
<text x="277" y="180" font-size="15" font-family="sans-serif" fill="#FFF">Rust (6.2k lines, 3.4%)</text>
<circle cx="516" cy="176" r="6" fill="#89e051" />
<text x="527" y="180" font-size="15" font-family="sans-serif" fill="#FFF">Shell (4.8k lines, 2.6%)</text>
<circle cx="16" cy="196" r="6" fill="#239dad" />
<text x="27" y="200" font-size="15" font-family="sans-serif" fill="#FFF">Typst (4.2k lines, 2.3%)</text>
<circle cx="266" cy="196" r="6" fill="#000000" />
<text x="277" y="200" font-size="15" font-family="sans-serif" fill="#FFF">Jupyter Not… (3.4k lines, 1.8%)</text>
<circle cx="516" cy="196" r="6" fill="#000080" />
<text x="527" y="200" font-size="15" font-family="sans-serif" fill="#FFF">Lua (2.4k lines, 1.3%)</text>
<circle cx="16" cy="216" r="6" fill="#000000" />
<text x="27" y="220" font-size="15" font-family="sans-serif" fill="#FFF">GNU Style A… (2.1k lines, 1.2%)</text>
<circle cx="266" cy="216" r="6" fill="#000000" />
<text x="277" y="220" font-size="15" font-family="sans-serif" fill="#FFF">Batch (1.6k lines, 0.9%)</text>
<circle cx="516" cy="216" r="6" fill="#f34b7d" />
<text x="527" y="220" font-size="15" font-family="sans-serif" fill="#FFF">C++ (1.6k lines, 0.8%)</text>
<circle cx="16" cy="236" r="6" fill="#ec915c" />
<text x="27" y="240" font-size="15" font-family="sans-serif" fill="#FFF">Zig (864 lines, 0.5%)</text>
<circle cx="266" cy="236" r="6" fill="#000000" />
<text x="277" y="240" font-size="15" font-family="sans-serif" fill="#FFF">WebGPU Shad… (760 lines, 0.4%)</text>
<circle cx="516" cy="236" r="6" fill="#DA3434" />
<text x="527" y="240" font-size="15" font-family="sans-serif" fill="#FFF">CMake (685 lines, 0.4%)</text>
<circle cx="16" cy="256" r="6" fill="#427819" />
<text x="27" y="260" font-size="15" font-family="sans-serif" fill="#FFF">Makefile (596 lines, 0.3%)</text>
<circle cx="266" cy="256" r="6" fill="#000000" />
<text x="277" y="260" font-size="15" font-family="sans-serif" fill="#FFF">Cabal (536 lines, 0.3%)</text>
<circle cx="516" cy="256" r="6" fill="#000000" />
<text x="527" y="260" font-size="15" font-family="sans-serif" fill="#FFF">Templ (439 lines, 0.2%)</text>
<circle cx="16" cy="276" r="6" fill="#199f4b" />
<text x="27" y="280" font-size="15" font-family="sans-serif" fill="#FFF">Vim Script (287 lines, 0.2%)</text>
<circle cx="266" cy="276" r="6" fill="#B83998" />
<text x="277" y="280" font-size="15" font-family="sans-serif" fill="#FFF">Erlang (220 lines, 0.1%)</text>
<circle cx="516" cy="276" r="6" fill="#000000" />
<text x="527" y="280" font-size="15" font-family="sans-serif" fill="#FFF">Bitbake (163 lines, 0.1%)</text>
<circle cx="16" cy="296" r="6" fill="#db5855" />
<text x="27" y="300" font-size="15" font-family="sans-serif" fill="#FFF">Clojure (156 lines, 0.1%)</text>
<circle cx="266" cy="296" r="6" fill="#0050b2" />
<text x="277" y="300" font-size="15" font-family="sans-serif" fill="#FFF">FreeMarker (103 lines, 0.1%)</text>
<circle cx="516" cy="296" r="6" fill="#701516" />
<text x="527" y="300" font-size="15" font-family="sans-serif" fill="#FFF">Ruby (100 lines, 0.1%)</text>
</svg>