<svg width="800" height="350" xmlns="http://www.w3.org/2000/svg">
<rect x="10" y="40" width="130.6067083694145" height="50" fill="#555555"/>
<rect x="140.6067083694145" y="40" width="115.90860921537876" height="50" fill="#b07219"/>
<rect x="256.51531758479325" y="40" width="99.432592332427" height="50" fill="#c22d40"/>
<rect x="355.9479099172203" y="40" width="89.0169980077148" height="50" fill="#A97BFF"/>
<rect x="444.96490792493506" y="40" width="61.989741850705784" height="50" fill="#00B4AB"/>
<rect x="506.95464977564086" y="40" width="44.598121559674695" height="50" fill="#5e5086"/>
<rect x="551.5527713353156" y="40" width="42.834737218188536" height="50" fill="#000000"/>
<rect x="594.3875085535042" y="40" width="39.99103774441827" height="50" fill="#3D6117"/>
<rect x="634.3785462979224" y="40" width="32.91327806609058" height="50" fill="#3572A5"/>
<rect x="667.291824364013" y="40" width="24.40155749468623" height="50" fill="#89e051"/>
<rect x="691.6933818586992" y="40" width="24.24169023295809" height="50" fill="None"/>
<rect x="715.9350720916573" y="40" width="14.974233515202528" height="50" fill="#239dad"/>
<rect x="730.9093056068598" y="40" width="11.723599193397" height="50" fill="#000080"/>
<rect x="742.6329048002568" y="40" width="10.376838624899326" height="50" fill="#000000"/>
<rect x="753.0097434251561" y="40" width="8.991322356588771" height="50" fill="#dea584"/>
<rect x="762.0010657817448" y="40" width="8.003052011360264" height="50" fill="#000000"/>
<rect x="770.0041177931051" y="40" width="7.586428238371775" height="50" fill="#f34b7d"/>
<rect x="777.590546031477" y="40" width="7.586428238371775" height="50" fill="#e38c00"/>
<rect x="785.1769742698488" y="40" width="4.185615579791325" height="50" fill="#ec915c"/>
<rect x="789.3625898496401" y="40" width="3.68179148222385" height="50" fill="#000000"/>
<rect x="793.044381331864" y="40" width="3.3184567964780762" height="50" fill="#DA3434"/>
<rect x="796.3628381283421" y="40" width="2.5966318874631367" height="50" fill="#000000"/>
<rect x="798.9594700158052" y="40" width="2.4076978508753335" height="50" fill="#427819"/>
<rect x="801.3671678666806" y="40" width="2.1267190272319345" height="50" fill="#000000"/>
<rect x="803.4938868939125" y="40" width="1.5211612176556435" height="50" fill="#384d54"/>
<rect x="805.0150481115681" y="40" width="1.3903607307871646" height="50" fill="#199f4b"/>
<rect x="806.4054088423553" y="40" width="1.0657817448542726" height="50" fill="#B83998"/>
<rect x="807.4711905872095" y="40" width="0.7896473836874837" height="50" fill="#000000"/>
<rect x="808.260837970897" y="40" width="0.7557361463512114" height="50" fill="#db5855"/>
<rect x="809.0165741172482" y="40" width="0.4989796350908639" height="50" fill="#0050b2"/>
<rect x="809.5155537523391" y="40" width="0.48444624766103295" height="50" fill="#701516"/>
<circle cx="16" cy="116" r="6" fill="#555555" />
<text x="27" y="120" font-size="15" font-family="sans-serif" fill="#FFF">C (27.0k lines, 16.3%)</text>
<circle cx="266" cy="116" r="6" fill="#b07219" />
<text x="277" y="120" font-size="15" font-family="sans-serif" fill="#FFF">Java (23.9k lines, 14.5%)</text>
<circle cx="516" cy="116" r="6" fill="#c22d40" />
<text x="527" y="120" font-size="15" font-family="sans-serif" fill="#FFF">Scala (20.5k lines, 12.4%)</text>
<circle cx="16" cy="136" r="6" fill="#A97BFF" />
<text x="27" y="140" font-size="15" font-family="sans-serif" fill="#FFF">Kotlin (18.4k lines, 11.1%)</text>
<circle cx="266" cy="136" r="6" fill="#00B4AB" />
<text x="277" y="140" font-size="15" font-family="sans-serif" fill="#FFF">Dart (12.8k lines, 7.7%)</text>
<circle cx="516" cy="136" r="6" fill="#5e5086" />
<text x="527" y="140" font-size="15" font-family="sans-serif" fill="#FFF">Haskell (9.2k lines, 5.6%)</text>
<circle cx="16" cy="156" r="6" fill="#000000" />
<text x="27" y="160" font-size="15" font-family="sans-serif" fill="#FFF">C Header (8.8k lines, 5.4%)</text>
<circle cx="266" cy="156" r="6" fill="#3D6117" />
<text x="277" y="160" font-size="15" font-family="sans-serif" fill="#FFF">TeX (8.3k lines, 5.0%)</text>
<circle cx="516" cy="156" r="6" fill="#3572A5" />
<text x="527" y="160" font-size="15" font-family="sans-serif" fill="#FFF">Python (6.8k lines, 4.1%)</text>
<circle cx="16" cy="176" r="6" fill="#89e051" />
<text x="27" y="180" font-size="15" font-family="sans-serif" fill="#FFF">Shell (5.0k lines, 3.1%)</text>
<circle cx="266" cy="176" r="6" fill="None" />
<text x="277" y="180" font-size="15" font-family="sans-serif" fill="#FFF">Lean (5.0k lines, 3.0%)</text>
<circle cx="516" cy="176" r="6" fill="#239dad" />
<text x="527" y="180" font-size="15" font-family="sans-serif" fill="#FFF">Typst (3.1k lines, 1.9%)</text>
<circle cx="16" cy="196" r="6" fill="#000080" />
<text x="27" y="200" font-size="15" font-family="sans-serif" fill="#FFF">Lua (2.4k lines, 1.5%)</text>
<circle cx="266" cy="196" r="6" fill="#000000" />
<text x="277" y="200" font-size="15" font-family="sans-serif" fill="#FFF">GNU Style A… (2.1k lines, 1.3%)</text>
<circle cx="516" cy="196" r="6" fill="#dea584" />
<text x="527" y="200" font-size="15" font-family="sans-serif" fill="#FFF">Rust (1.9k lines, 1.1%)</text>
<circle cx="16" cy="216" r="6" fill="#000000" />
<text x="27" y="220" font-size="15" font-family="sans-serif" fill="#FFF">Batch (1.7k lines, 1.0%)</text>
<circle cx="266" cy="216" r="6" fill="#f34b7d" />
<text x="277" y="220" font-size="15" font-family="sans-serif" fill="#FFF">C++ (1.6k lines, 0.9%)</text>
<circle cx="516" cy="216" r="6" fill="#e38c00" />
<text x="527" y="220" font-size="15" font-family="sans-serif" fill="#FFF">SQL (1.6k lines, 0.9%)</text>
<circle cx="16" cy="236" r="6" fill="#ec915c" />
<text x="27" y="240" font-size="15" font-family="sans-serif" fill="#FFF">Zig (864 lines, 0.5%)</text>
<circle cx="266" cy="236" r="6" fill="#000000" />
<text x="277" y="240" font-size="15" font-family="sans-serif" fill="#FFF">WebGPU Shad… (760 lines, 0.5%)</text>
<circle cx="516" cy="236" r="6" fill="#DA3434" />
<text x="527" y="240" font-size="15" font-family="sans-serif" fill="#FFF">CMake (685 lines, 0.4%)</text>
<circle cx="16" cy="256" r="6" fill="#000000" />
<text x="27" y="260" font-size="15" font-family="sans-serif" fill="#FFF">Cabal (536 lines, 0.3%)</text>
<circle cx="266" cy="256" r="6" fill="#427819" />
<text x="277" y="260" font-size="15" font-family="sans-serif" fill="#FFF">Makefile (497 lines, 0.3%)</text>
<circle cx="516" cy="256" r="6" fill="#000000" />
<text x="527" y="260" font-size="15" font-family="sans-serif" fill="#FFF">Templ (439 lines, 0.3%)</text>
<circle cx="16" cy="276" r="6" fill="#384d54" />
<text x="27" y="280" font-size="15" font-family="sans-serif" fill="#FFF">Dockerfile (314 lines, 0.2%)</text>
<circle cx="266" cy="276" r="6" fill="#199f4b" />
<text x="277" y="280" font-size="15" font-family="sans-serif" fill="#FFF">Vim Script (287 lines, 0.2%)</text>
<circle cx="516" cy="276" r="6" fill="#B83998" />
<text x="527" y="280" font-size="15" font-family="sans-serif" fill="#FFF">Erlang (220 lines, 0.1%)</text>
<circle cx="16" cy="296" r="6" fill="#000000" />
<text x="27" y="300" font-size="15" font-family="sans-serif" fill="#FFF">Bitbake (163 lines, 0.1%)</text>
<circle cx="266" cy="296" r="6" fill="#db5855" />
<text x="277" y="300" font-size="15" font-family="sans-serif" fill="#FFF">Clojure (156 lines, 0.1%)</text>
<circle cx="516" cy="296" r="6" fill="#0050b2" />
<text x="527" y="300" font-size="15" font-family="sans-serif" fill="#FFF">FreeMarker (103 lines, 0.1%)</text>
<circle cx="16" cy="316" r="6" fill="#701516" />
<text x="27" y="320" font-size="15" font-family="sans-serif" fill="#FFF">Ruby (100 lines, 0.1%)</text>
</svg>