<svg width="800" height="330" xmlns="http://www.w3.org/2000/svg">
<rect width="800" height="330" fill="#212830"/>
<rect x="10" y="40" width="122.74119610452712" height="50" fill="#555555"/>
<rect x="132.74119610452712" y="40" width="101.08794389167038" height="50" fill="#b07219"/>
<rect x="233.8291399961975" y="40" width="90.46623148911" height="50" fill="#c22d40"/>
<rect x="324.2953714853075" y="40" width="79.15584004056025" height="50" fill="#00B4AB"/>
<rect x="403.45121152586773" y="40" width="58.83347064664005" height="50" fill="#A97BFF"/>
<rect x="462.2846821725078" y="40" width="48.65961087521389" height="50" fill="None"/>
<rect x="510.9442930477217" y="40" width="43.63605636183113" height="50" fill="#3572A5"/>
<rect x="554.5803494095528" y="40" width="38.98430403278619" height="50" fill="#5e5086"/>
<rect x="593.564653442339" y="40" width="38.77305279168515" height="50" fill="#000000"/>
<rect x="632.3377062340242" y="40" width="34.87757990578195" height="50" fill="#3D6117"/>
<rect x="667.2152861398062" y="40" width="21.04062361366373" height="50" fill="#dea584"/>
<rect x="688.2559097534698" y="40" width="20.647696305215792" height="50" fill="#89e051"/>
<rect x="708.9036060586857" y="40" width="17.88875509643619" height="50" fill="#239dad"/>
<rect x="726.7923611551219" y="40" width="17.233876249022963" height="50" fill="#ec915c"/>
<rect x="744.0262374041448" y="40" width="14.369309419692843" height="50" fill="#000000"/>
<rect x="758.3955468238377" y="40" width="10.249910218222533" height="50" fill="#000080"/>
<rect x="768.6454570420602" y="40" width="9.050003168768617" height="50" fill="#000000"/>
<rect x="777.6954602108289" y="40" width="8.14162283203414" height="50" fill="#f34b7d"/>
<rect x="785.837083042863" y="40" width="6.679764243614931" height="50" fill="#000000"/>
<rect x="792.516847286478" y="40" width="3.21101886473583" height="50" fill="#000000"/>
<rect x="795.7278661512138" y="40" width="2.911042102372351" height="50" fill="#427819"/>
<rect x="798.6389082535861" y="40" width="2.894142003084268" height="50" fill="#DA3434"/>
<rect x="801.5330502566704" y="40" width="2.2646133046031647" height="50" fill="#000000"/>
<rect x="803.7976635612736" y="40" width="1.8547858968671442" height="50" fill="#000000"/>
<rect x="805.6524494581407" y="40" width="1.212582123919978" height="50" fill="#199f4b"/>
<rect x="806.8650315820607" y="40" width="0.9295054608445825" height="50" fill="#B83998"/>
<rect x="807.7945370429053" y="40" width="0.6886790459893952" height="50" fill="#000000"/>
<rect x="808.4832160888947" y="40" width="0.6591038722352495" height="50" fill="#db5855"/>
<rect x="809.1423199611299" y="40" width="0.4351775566681454" height="50" fill="#0050b2"/>
<rect x="809.5774975177981" y="40" width="0.4225024822020829" height="50" fill="#701516"/>
<circle cx="16" cy="116" r="6" fill="#555555" />
<text x="27" y="120" font-size="15" font-family="sans-serif" fill="#FFF">C (29.1k lines, 15.3%)</text>
<circle cx="266" cy="116" r="6" fill="#b07219" />
<text x="277" y="120" font-size="15" font-family="sans-serif" fill="#FFF">Java (23.9k lines, 12.6%)</text>
<circle cx="516" cy="116" r="6" fill="#c22d40" />
<text x="527" y="120" font-size="15" font-family="sans-serif" fill="#FFF">Scala (21.4k lines, 11.3%)</text>
<circle cx="16" cy="136" r="6" fill="#00B4AB" />
<text x="27" y="140" font-size="15" font-family="sans-serif" fill="#FFF">Dart (18.7k lines, 9.9%)</text>
<circle cx="266" cy="136" r="6" fill="#A97BFF" />
<text x="277" y="140" font-size="15" font-family="sans-serif" fill="#FFF">Kotlin (13.9k lines, 7.4%)</text>
<circle cx="516" cy="136" r="6" fill="None" />
<text x="527" y="140" font-size="15" font-family="sans-serif" fill="#FFF">Lean (11.5k lines, 6.1%)</text>
<circle cx="16" cy="156" r="6" fill="#3572A5" />
<text x="27" y="160" font-size="15" font-family="sans-serif" fill="#FFF">Python (10.3k lines, 5.5%)</text>
<circle cx="266" cy="156" r="6" fill="#5e5086" />
<text x="277" y="160" font-size="15" font-family="sans-serif" fill="#FFF">Haskell (9.2k lines, 4.9%)</text>
<circle cx="516" cy="156" r="6" fill="#000000" />
<text x="527" y="160" font-size="15" font-family="sans-serif" fill="#FFF">C Header (9.2k lines, 4.8%)</text>
<circle cx="16" cy="176" r="6" fill="#3D6117" />
<text x="27" y="180" font-size="15" font-family="sans-serif" fill="#FFF">TeX (8.3k lines, 4.4%)</text>
<circle cx="266" cy="176" r="6" fill="#dea584" />
<text x="277" y="180" font-size="15" font-family="sans-serif" fill="#FFF">Rust (5.0k lines, 2.6%)</text>
<circle cx="516" cy="176" r="6" fill="#89e051" />
<text x="527" y="180" font-size="15" font-family="sans-serif" fill="#FFF">Shell (4.9k lines, 2.6%)</text>
<circle cx="16" cy="196" r="6" fill="#239dad" />
<text x="27" y="200" font-size="15" font-family="sans-serif" fill="#FFF">Typst (4.2k lines, 2.2%)</text>
<circle cx="266" cy="196" r="6" fill="#ec915c" />
<text x="277" y="200" font-size="15" font-family="sans-serif" fill="#FFF">Zig (4.1k lines, 2.2%)</text>
<circle cx="516" cy="196" r="6" fill="#000000" />
<text x="527" y="200" font-size="15" font-family="sans-serif" fill="#FFF">Jupyter Not… (3.4k lines, 1.8%)</text>
<circle cx="16" cy="216" r="6" fill="#000080" />
<text x="27" y="220" font-size="15" font-family="sans-serif" fill="#FFF">Lua (2.4k lines, 1.3%)</text>
<circle cx="266" cy="216" r="6" fill="#000000" />
<text x="277" y="220" font-size="15" font-family="sans-serif" fill="#FFF">GNU Style A… (2.1k lines, 1.1%)</text>
<circle cx="516" cy="216" r="6" fill="#f34b7d" />
<text x="527" y="220" font-size="15" font-family="sans-serif" fill="#FFF">C++ (1.9k lines, 1.0%)</text>
<circle cx="16" cy="236" r="6" fill="#000000" />
<text x="27" y="240" font-size="15" font-family="sans-serif" fill="#FFF">Batch (1.6k lines, 0.8%)</text>
<circle cx="266" cy="236" r="6" fill="#000000" />
<text x="277" y="240" font-size="15" font-family="sans-serif" fill="#FFF">WebGPU Shad… (760 lines, 0.4%)</text>
<circle cx="516" cy="236" r="6" fill="#427819" />
<text x="527" y="240" font-size="15" font-family="sans-serif" fill="#FFF">Makefile (689 lines, 0.4%)</text>
<circle cx="16" cy="256" r="6" fill="#DA3434" />
<text x="27" y="260" font-size="15" font-family="sans-serif" fill="#FFF">CMake (685 lines, 0.4%)</text>
<circle cx="266" cy="256" r="6" fill="#000000" />
<text x="277" y="260" font-size="15" font-family="sans-serif" fill="#FFF">Cabal (536 lines, 0.3%)</text>
<circle cx="516" cy="256" r="6" fill="#000000" />
<text x="527" y="260" font-size="15" font-family="sans-serif" fill="#FFF">Templ (439 lines, 0.2%)</text>
<circle cx="16" cy="276" r="6" fill="#199f4b" />
<text x="27" y="280" font-size="15" font-family="sans-serif" fill="#FFF">Vim Script (287 lines, 0.2%)</text>
<circle cx="266" cy="276" r="6" fill="#B83998" />
<text x="277" y="280" font-size="15" font-family="sans-serif" fill="#FFF">Erlang (220 lines, 0.1%)</text>
<circle cx="516" cy="276" r="6" fill="#000000" />
<text x="527" y="280" font-size="15" font-family="sans-serif" fill="#FFF">Bitbake (163 lines, 0.1%)</text>
<circle cx="16" cy="296" r="6" fill="#db5855" />
<text x="27" y="300" font-size="15" font-family="sans-serif" fill="#FFF">Clojure (156 lines, 0.1%)</text>
<circle cx="266" cy="296" r="6" fill="#0050b2" />
<text x="277" y="300" font-size="15" font-family="sans-serif" fill="#FFF">FreeMarker (103 lines, 0.1%)</text>
<circle cx="516" cy="296" r="6" fill="#701516" />
<text x="527" y="300" font-size="15" font-family="sans-serif" fill="#FFF">Ruby (100 lines, 0.1%)</text>
</svg>