<svg width="800" height="350" xmlns="http://www.w3.org/2000/svg">
<rect x="10" y="40" width="131.32641628915195" height="50" fill="#555555"/>
<rect x="141.32641628915195" y="40" width="116.54732329874811" height="50" fill="#b07219"/>
<rect x="257.87373958790005" y="40" width="99.98051536850309" height="50" fill="#c22d40"/>
<rect x="357.8542549564031" y="40" width="89.50752593891568" height="50" fill="#A97BFF"/>
<rect x="447.3617808953188" y="40" width="62.3313361586049" height="50" fill="#00B4AB"/>
<rect x="509.69311705392374" y="40" width="44.843879390131036" height="50" fill="#5e5086"/>
<rect x="554.5369964440548" y="40" width="43.07077792391251" height="50" fill="#888888"/>
<rect x="597.6077743679673" y="40" width="40.21140825174144" height="50" fill="#3D6117"/>
<rect x="637.8191826197087" y="40" width="32.56856154707974" height="50" fill="#3572A5"/>
<rect x="670.3877441667885" y="40" width="24.536022212479907" height="50" fill="#89e051"/>
<rect x="694.9237663792684" y="40" width="23.74689463685518" height="50" fill="None"/>
<rect x="718.6706610161235" y="40" width="12.445808368649228" height="50" fill="#239dad"/>
<rect x="731.1164693847727" y="40" width="11.734619319012129" height="50" fill="#000080"/>
<rect x="742.8510887037849" y="40" width="10.4340201665936" height="50" fill="#888888"/>
<rect x="753.2851088703785" y="40" width="9.040869014564763" height="50" fill="#dea584"/>
<rect x="762.3259778849433" y="40" width="8.047152808222515" height="50" fill="#888888"/>
<rect x="770.3731306931659" y="40" width="7.628233231039018" height="50" fill="#f34b7d"/>
<rect x="778.0013639242048" y="40" width="7.628233231039018" height="50" fill="#e38c00"/>
<rect x="785.6295971552438" y="40" width="4.208680403331872" height="50" fill="#ec915c"/>
<rect x="789.8382775585757" y="40" width="3.7020799844122947" height="50" fill="#888888"/>
<rect x="793.540357542988" y="40" width="3.3367431438452924" height="50" fill="#DA3434"/>
<rect x="796.8771006868333" y="40" width="2.6109406205855135" height="50" fill="#888888"/>
<rect x="799.4880413074188" y="40" width="2.420965463490672" height="50" fill="#427819"/>
<rect x="801.9090067709095" y="40" width="2.138438306785523" height="50" fill="#888888"/>
<rect x="804.047445077695" y="40" width="1.5295435725071849" height="50" fill="#384d54"/>
<rect x="805.5769886502022" y="40" width="1.0716547323298748" height="50" fill="#B83998"/>
<rect x="806.6486433825321" y="40" width="0.8086122071216327" height="50" fill="#199f4b"/>
<rect x="807.4572555896538" y="40" width="0.7939987334989528" height="50" fill="#888888"/>
<rect x="808.2512543231527" y="40" width="0.7599006283793658" height="50" fill="#db5855"/>
<rect x="809.011154951532" y="40" width="0.5017292610453505" height="50" fill="#0050b2"/>
<rect x="809.5128842125774" y="40" width="0.4871157874226703" height="50" fill="#701516"/>
<circle cx="16" cy="116" r="6" fill="#555555" />
<text x="27" y="120" font-size="15" font-family="sans-serif" fill="#FFF">C (27.0k lines, 16.4%)</text>
<circle cx="266" cy="116" r="6" fill="#b07219" />
<text x="277" y="120" font-size="15" font-family="sans-serif" fill="#FFF">Java (23.9k lines, 14.6%)</text>
<circle cx="516" cy="116" r="6" fill="#c22d40" />
<text x="527" y="120" font-size="15" font-family="sans-serif" fill="#FFF">Scala (20.5k lines, 12.5%)</text>
<circle cx="16" cy="136" r="6" fill="#A97BFF" />
<text x="27" y="140" font-size="15" font-family="sans-serif" fill="#FFF">Kotlin (18.4k lines, 11.2%)</text>
<circle cx="266" cy="136" r="6" fill="#00B4AB" />
<text x="277" y="140" font-size="15" font-family="sans-serif" fill="#FFF">Dart (12.8k lines, 7.8%)</text>
<circle cx="516" cy="136" r="6" fill="#5e5086" />
<text x="527" y="140" font-size="15" font-family="sans-serif" fill="#FFF">Haskell (9.2k lines, 5.6%)</text>
<circle cx="16" cy="156" r="6" fill="#888888" />
<text x="27" y="160" font-size="15" font-family="sans-serif" fill="#FFF">C Header (8.8k lines, 5.4%)</text>
<circle cx="266" cy="156" r="6" fill="#3D6117" />
<text x="277" y="160" font-size="15" font-family="sans-serif" fill="#FFF">TeX (8.3k lines, 5.0%)</text>
<circle cx="516" cy="156" r="6" fill="#3572A5" />
<text x="527" y="160" font-size="15" font-family="sans-serif" fill="#FFF">Python (6.7k lines, 4.1%)</text>
<circle cx="16" cy="176" r="6" fill="#89e051" />
<text x="27" y="180" font-size="15" font-family="sans-serif" fill="#FFF">Shell (5.0k lines, 3.1%)</text>
<circle cx="266" cy="176" r="6" fill="None" />
<text x="277" y="180" font-size="15" font-family="sans-serif" fill="#FFF">Lean (4.9k lines, 3.0%)</text>
<circle cx="516" cy="176" r="6" fill="#239dad" />
<text x="527" y="180" font-size="15" font-family="sans-serif" fill="#FFF">Typst (2.6k lines, 1.6%)</text>
<circle cx="16" cy="196" r="6" fill="#000080" />
<text x="27" y="200" font-size="15" font-family="sans-serif" fill="#FFF">Lua (2.4k lines, 1.5%)</text>
<circle cx="266" cy="196" r="6" fill="#888888" />
<text x="277" y="200" font-size="15" font-family="sans-serif" fill="#FFF">GNU Style A… (2.1k lines, 1.3%)</text>
<circle cx="516" cy="196" r="6" fill="#dea584" />
<text x="527" y="200" font-size="15" font-family="sans-serif" fill="#FFF">Rust (1.9k lines, 1.1%)</text>
<circle cx="16" cy="216" r="6" fill="#888888" />
<text x="27" y="220" font-size="15" font-family="sans-serif" fill="#FFF">Batch (1.7k lines, 1.0%)</text>
<circle cx="266" cy="216" r="6" fill="#f34b7d" />
<text x="277" y="220" font-size="15" font-family="sans-serif" fill="#FFF">C++ (1.6k lines, 1.0%)</text>
<circle cx="516" cy="216" r="6" fill="#e38c00" />
<text x="527" y="220" font-size="15" font-family="sans-serif" fill="#FFF">SQL (1.6k lines, 1.0%)</text>
<circle cx="16" cy="236" r="6" fill="#ec915c" />
<text x="27" y="240" font-size="15" font-family="sans-serif" fill="#FFF">Zig (864 lines, 0.5%)</text>
<circle cx="266" cy="236" r="6" fill="#888888" />
<text x="277" y="240" font-size="15" font-family="sans-serif" fill="#FFF">WebGPU Shad… (760 lines, 0.5%)</text>
<circle cx="516" cy="236" r="6" fill="#DA3434" />
<text x="527" y="240" font-size="15" font-family="sans-serif" fill="#FFF">CMake (685 lines, 0.4%)</text>
<circle cx="16" cy="256" r="6" fill="#888888" />
<text x="27" y="260" font-size="15" font-family="sans-serif" fill="#FFF">Cabal (536 lines, 0.3%)</text>
<circle cx="266" cy="256" r="6" fill="#427819" />
<text x="277" y="260" font-size="15" font-family="sans-serif" fill="#FFF">Makefile (497 lines, 0.3%)</text>
<circle cx="516" cy="256" r="6" fill="#888888" />
<text x="527" y="260" font-size="15" font-family="sans-serif" fill="#FFF">Templ (439 lines, 0.3%)</text>
<circle cx="16" cy="276" r="6" fill="#384d54" />
<text x="27" y="280" font-size="15" font-family="sans-serif" fill="#FFF">Dockerfile (314 lines, 0.2%)</text>
<circle cx="266" cy="276" r="6" fill="#B83998" />
<text x="277" y="280" font-size="15" font-family="sans-serif" fill="#FFF">Erlang (220 lines, 0.1%)</text>
<circle cx="516" cy="276" r="6" fill="#199f4b" />
<text x="527" y="280" font-size="15" font-family="sans-serif" fill="#FFF">Vim Script (166 lines, 0.1%)</text>
<circle cx="16" cy="296" r="6" fill="#888888" />
<text x="27" y="300" font-size="15" font-family="sans-serif" fill="#FFF">Bitbake (163 lines, 0.1%)</text>
<circle cx="266" cy="296" r="6" fill="#db5855" />
<text x="277" y="300" font-size="15" font-family="sans-serif" fill="#FFF">Clojure (156 lines, 0.1%)</text>
<circle cx="516" cy="296" r="6" fill="#0050b2" />
<text x="527" y="300" font-size="15" font-family="sans-serif" fill="#FFF">FreeMarker (103 lines, 0.1%)</text>
<circle cx="16" cy="316" r="6" fill="#701516" />
<text x="27" y="320" font-size="15" font-family="sans-serif" fill="#FFF">Ruby (100 lines, 0.1%)</text>
</svg>