<svg width="800" height="330" xmlns="http://www.w3.org/2000/svg">
<rect width="800" height="330" fill="#212830"/>
<rect x="10" y="40" width="138.82334669398531" height="50" fill="#555555"/>
<rect x="148.82334669398531" y="40" width="114.33691542169682" height="50" fill="#b07219"/>
<rect x="263.16026211568214" y="40" width="98.08430949721337" height="50" fill="#c22d40"/>
<rect x="361.2445716128955" y="40" width="64.79060015411542" height="50" fill="#A97BFF"/>
<rect x="426.035171767011" y="40" width="63.37130466467949" height="50" fill="#00B4AB"/>
<rect x="489.40647643169046" y="40" width="46.851087469460666" height="50" fill="None"/>
<rect x="536.2575639011511" y="40" width="43.99338139982199" height="50" fill="#5e5086"/>
<rect x="580.2509453009731" y="40" width="43.85479699176258" height="50" fill="#000000"/>
<rect x="624.1057422927356" y="40" width="39.44876857001201" height="50" fill="#3D6117"/>
<rect x="663.5545108627476" y="40" width="32.50999062165859" height="50" fill="#3572A5"/>
<rect x="696.0645014844063" y="40" width="22.67049764944118" height="50" fill="#89e051"/>
<rect x="718.7349991338474" y="40" width="16.166588016032783" height="50" fill="#dea584"/>
<rect x="734.9015871498801" y="40" width="14.771186390055375" height="50" fill="#239dad"/>
<rect x="749.6727735399355" y="40" width="11.593302550072575" height="50" fill="#000080"/>
<rect x="761.2660760900081" y="40" width="10.236131105628797" height="50" fill="#000000"/>
<rect x="771.502207195637" y="40" width="7.555239625583159" height="50" fill="#000000"/>
<rect x="779.0574468212201" y="40" width="7.483558035207608" height="50" fill="#f34b7d"/>
<rect x="786.5410048564277" y="40" width="4.128859605631783" height="50" fill="#ec915c"/>
<rect x="790.6698644620594" y="40" width="3.6318672456946244" height="50" fill="#000000"/>
<rect x="794.301731707754" y="40" width="3.273459293816865" height="50" fill="#DA3434"/>
<rect x="797.5751910015708" y="40" width="2.8481485242552584" height="50" fill="#427819"/>
<rect x="800.4233395258261" y="40" width="2.561422162753051" height="50" fill="#000000"/>
<rect x="802.9847616885792" y="40" width="2.097881211657816" height="50" fill="#000000"/>
<rect x="805.082642900237" y="40" width="1.371507762518891" height="50" fill="#199f4b"/>
<rect x="806.454150662756" y="40" width="1.0513299921747596" height="50" fill="#B83998"/>
<rect x="807.5054806549307" y="40" width="0.7789399487476629" height="50" fill="#000000"/>
<rect x="808.2844206036783" y="40" width="0.7454885399057387" height="50" fill="#db5855"/>
<rect x="809.0299091435841" y="40" width="0.49221358724545566" height="50" fill="#0050b2"/>
<rect x="809.5221227308296" y="40" width="0.47787726917034523" height="50" fill="#701516"/>
<circle cx="16" cy="116" r="6" fill="#555555" />
<text x="27" y="120" font-size="15" font-family="sans-serif" fill="#FFF">C (29.1k lines, 17.4%)</text>
<circle cx="266" cy="116" r="6" fill="#b07219" />
<text x="277" y="120" font-size="15" font-family="sans-serif" fill="#FFF">Java (23.9k lines, 14.3%)</text>
<circle cx="516" cy="116" r="6" fill="#c22d40" />
<text x="527" y="120" font-size="15" font-family="sans-serif" fill="#FFF">Scala (20.5k lines, 12.3%)</text>
<circle cx="16" cy="136" r="6" fill="#A97BFF" />
<text x="27" y="140" font-size="15" font-family="sans-serif" fill="#FFF">Kotlin (13.6k lines, 8.1%)</text>
<circle cx="266" cy="136" r="6" fill="#00B4AB" />
<text x="277" y="140" font-size="15" font-family="sans-serif" fill="#FFF">Dart (13.3k lines, 7.9%)</text>
<circle cx="516" cy="136" r="6" fill="None" />
<text x="527" y="140" font-size="15" font-family="sans-serif" fill="#FFF">Lean (9.8k lines, 5.9%)</text>
<circle cx="16" cy="156" r="6" fill="#5e5086" />
<text x="27" y="160" font-size="15" font-family="sans-serif" fill="#FFF">Haskell (9.2k lines, 5.5%)</text>
<circle cx="266" cy="156" r="6" fill="#000000" />
<text x="277" y="160" font-size="15" font-family="sans-serif" fill="#FFF">C Header (9.2k lines, 5.5%)</text>
<circle cx="516" cy="156" r="6" fill="#3D6117" />
<text x="527" y="160" font-size="15" font-family="sans-serif" fill="#FFF">TeX (8.3k lines, 4.9%)</text>
<circle cx="16" cy="176" r="6" fill="#3572A5" />
<text x="27" y="180" font-size="15" font-family="sans-serif" fill="#FFF">Python (6.8k lines, 4.1%)</text>
<circle cx="266" cy="176" r="6" fill="#89e051" />
<text x="277" y="180" font-size="15" font-family="sans-serif" fill="#FFF">Shell (4.7k lines, 2.8%)</text>
<circle cx="516" cy="176" r="6" fill="#dea584" />
<text x="527" y="180" font-size="15" font-family="sans-serif" fill="#FFF">Rust (3.4k lines, 2.0%)</text>
<circle cx="16" cy="196" r="6" fill="#239dad" />
<text x="27" y="200" font-size="15" font-family="sans-serif" fill="#FFF">Typst (3.1k lines, 1.8%)</text>
<circle cx="266" cy="196" r="6" fill="#000080" />
<text x="277" y="200" font-size="15" font-family="sans-serif" fill="#FFF">Lua (2.4k lines, 1.4%)</text>
<circle cx="516" cy="196" r="6" fill="#000000" />
<text x="527" y="200" font-size="15" font-family="sans-serif" fill="#FFF">GNU Style A… (2.1k lines, 1.3%)</text>
<circle cx="16" cy="216" r="6" fill="#000000" />
<text x="27" y="220" font-size="15" font-family="sans-serif" fill="#FFF">Batch (1.6k lines, 0.9%)</text>
<circle cx="266" cy="216" r="6" fill="#f34b7d" />
<text x="277" y="220" font-size="15" font-family="sans-serif" fill="#FFF">C++ (1.6k lines, 0.9%)</text>
<circle cx="516" cy="216" r="6" fill="#ec915c" />
<text x="527" y="220" font-size="15" font-family="sans-serif" fill="#FFF">Zig (864 lines, 0.5%)</text>
<circle cx="16" cy="236" r="6" fill="#000000" />
<text x="27" y="240" font-size="15" font-family="sans-serif" fill="#FFF">WebGPU Shad… (760 lines, 0.5%)</text>
<circle cx="266" cy="236" r="6" fill="#DA3434" />
<text x="277" y="240" font-size="15" font-family="sans-serif" fill="#FFF">CMake (685 lines, 0.4%)</text>
<circle cx="516" cy="236" r="6" fill="#427819" />
<text x="527" y="240" font-size="15" font-family="sans-serif" fill="#FFF">Makefile (596 lines, 0.4%)</text>
<circle cx="16" cy="256" r="6" fill="#000000" />
<text x="27" y="260" font-size="15" font-family="sans-serif" fill="#FFF">Cabal (536 lines, 0.3%)</text>
<circle cx="266" cy="256" r="6" fill="#000000" />
<text x="277" y="260" font-size="15" font-family="sans-serif" fill="#FFF">Templ (439 lines, 0.3%)</text>
<circle cx="516" cy="256" r="6" fill="#199f4b" />
<text x="527" y="260" font-size="15" font-family="sans-serif" fill="#FFF">Vim Script (287 lines, 0.2%)</text>
<circle cx="16" cy="276" r="6" fill="#B83998" />
<text x="27" y="280" font-size="15" font-family="sans-serif" fill="#FFF">Erlang (220 lines, 0.1%)</text>
<circle cx="266" cy="276" r="6" fill="#000000" />
<text x="277" y="280" font-size="15" font-family="sans-serif" fill="#FFF">Bitbake (163 lines, 0.1%)</text>
<circle cx="516" cy="276" r="6" fill="#db5855" />
<text x="527" y="280" font-size="15" font-family="sans-serif" fill="#FFF">Clojure (156 lines, 0.1%)</text>
<circle cx="16" cy="296" r="6" fill="#0050b2" />
<text x="27" y="300" font-size="15" font-family="sans-serif" fill="#FFF">FreeMarker (103 lines, 0.1%)</text>
<circle cx="266" cy="296" r="6" fill="#701516" />
<text x="277" y="300" font-size="15" font-family="sans-serif" fill="#FFF">Ruby (100 lines, 0.1%)</text>
</svg>