<svg width="800" height="330" xmlns="http://www.w3.org/2000/svg">
<rect width="800" height="330" fill="#212830"/>
<rect x="10" y="40" width="123.40696686491079" height="50" fill="#555555"/>
<rect x="133.40696686491077" y="40" width="101.63976210705182" height="50" fill="#b07219"/>
<rect x="235.04672897196258" y="40" width="87.19201359388276" height="50" fill="#c22d40"/>
<rect x="322.2387425658453" y="40" width="79.58793542905693" height="50" fill="#00B4AB"/>
<rect x="401.82667799490224" y="40" width="59.154630416312656" height="50" fill="#A97BFF"/>
<rect x="460.9813084112149" y="40" width="48.92523364485981" height="50" fill="None"/>
<rect x="509.9065420560747" y="40" width="43.87425658453696" height="50" fill="#3572A5"/>
<rect x="553.7807986406117" y="40" width="39.197111299915036" height="50" fill="#5e5086"/>
<rect x="592.9779099405267" y="40" width="38.98470688190314" height="50" fill="#000000"/>
<rect x="631.9626168224298" y="40" width="35.067969413763805" height="50" fill="#3D6117"/>
<rect x="667.0305862361936" y="40" width="21.15548003398471" height="50" fill="#dea584"/>
<rect x="688.1860662701783" y="40" width="20.22090059473237" height="50" fill="#89e051"/>
<rect x="708.4069668649107" y="40" width="17.98640611724724" height="50" fill="#239dad"/>
<rect x="726.393372982158" y="40" width="17.327952421410366" height="50" fill="#ec915c"/>
<rect x="743.7213254035684" y="40" width="14.447748513169072" height="50" fill="#000000"/>
<rect x="758.1690739167374" y="40" width="10.305862361937129" height="50" fill="#000080"/>
<rect x="768.4749362786745" y="40" width="9.099405267629566" height="50" fill="#000000"/>
<rect x="777.574341546304" y="40" width="8.18606627017842" height="50" fill="#f34b7d"/>
<rect x="785.7604078164825" y="40" width="6.716227697536109" height="50" fill="#000000"/>
<rect x="792.4766355140185" y="40" width="3.228547153780799" height="50" fill="#000000"/>
<rect x="795.7051826677994" y="40" width="2.9099405267629566" height="50" fill="#DA3434"/>
<rect x="798.6151231945623" y="40" width="2.8717077315208157" height="50" fill="#427819"/>
<rect x="801.4868309260831" y="40" width="2.2769753610875108" height="50" fill="#000000"/>
<rect x="803.7638062871706" y="40" width="1.864910790144435" height="50" fill="#000000"/>
<rect x="805.6287170773151" y="40" width="1.2192013593882753" height="50" fill="#199f4b"/>
<rect x="806.8479184367034" y="40" width="0.9345794392523363" height="50" fill="#B83998"/>
<rect x="807.7824978759558" y="40" width="0.6924384027187765" height="50" fill="#000000"/>
<rect x="808.4749362786745" y="40" width="0.6627017841971113" height="50" fill="#db5855"/>
<rect x="809.1376380628716" y="40" width="0.43755310110450296" height="50" fill="#0050b2"/>
<rect x="809.5751911639761" y="40" width="0.4248088360237893" height="50" fill="#701516"/>
<circle cx="16" cy="116" r="6" fill="#555555" />
<text x="27" y="120" font-size="15" font-family="sans-serif" fill="#FFF">C (29.1k lines, 15.4%)</text>
<circle cx="266" cy="116" r="6" fill="#b07219" />
<text x="277" y="120" font-size="15" font-family="sans-serif" fill="#FFF">Java (23.9k lines, 12.7%)</text>
<circle cx="516" cy="116" r="6" fill="#c22d40" />
<text x="527" y="120" font-size="15" font-family="sans-serif" fill="#FFF">Scala (20.5k lines, 10.9%)</text>
<circle cx="16" cy="136" r="6" fill="#00B4AB" />
<text x="27" y="140" font-size="15" font-family="sans-serif" fill="#FFF">Dart (18.7k lines, 9.9%)</text>
<circle cx="266" cy="136" r="6" fill="#A97BFF" />
<text x="277" y="140" font-size="15" font-family="sans-serif" fill="#FFF">Kotlin (13.9k lines, 7.4%)</text>
<circle cx="516" cy="136" r="6" fill="None" />
<text x="527" y="140" font-size="15" font-family="sans-serif" fill="#FFF">Lean (11.5k lines, 6.1%)</text>
<circle cx="16" cy="156" r="6" fill="#3572A5" />
<text x="27" y="160" font-size="15" font-family="sans-serif" fill="#FFF">Python (10.3k lines, 5.5%)</text>
<circle cx="266" cy="156" r="6" fill="#5e5086" />
<text x="277" y="160" font-size="15" font-family="sans-serif" fill="#FFF">Haskell (9.2k lines, 4.9%)</text>
<circle cx="516" cy="156" r="6" fill="#000000" />
<text x="527" y="160" font-size="15" font-family="sans-serif" fill="#FFF">C Header (9.2k lines, 4.9%)</text>
<circle cx="16" cy="176" r="6" fill="#3D6117" />
<text x="27" y="180" font-size="15" font-family="sans-serif" fill="#FFF">TeX (8.3k lines, 4.4%)</text>
<circle cx="266" cy="176" r="6" fill="#dea584" />
<text x="277" y="180" font-size="15" font-family="sans-serif" fill="#FFF">Rust (5.0k lines, 2.6%)</text>
<circle cx="516" cy="176" r="6" fill="#89e051" />
<text x="527" y="180" font-size="15" font-family="sans-serif" fill="#FFF">Shell (4.8k lines, 2.5%)</text>
<circle cx="16" cy="196" r="6" fill="#239dad" />
<text x="27" y="200" font-size="15" font-family="sans-serif" fill="#FFF">Typst (4.2k lines, 2.2%)</text>
<circle cx="266" cy="196" r="6" fill="#ec915c" />
<text x="277" y="200" font-size="15" font-family="sans-serif" fill="#FFF">Zig (4.1k lines, 2.2%)</text>
<circle cx="516" cy="196" r="6" fill="#000000" />
<text x="527" y="200" font-size="15" font-family="sans-serif" fill="#FFF">Jupyter Not… (3.4k lines, 1.8%)</text>
<circle cx="16" cy="216" r="6" fill="#000080" />
<text x="27" y="220" font-size="15" font-family="sans-serif" fill="#FFF">Lua (2.4k lines, 1.3%)</text>
<circle cx="266" cy="216" r="6" fill="#000000" />
<text x="277" y="220" font-size="15" font-family="sans-serif" fill="#FFF">GNU Style A… (2.1k lines, 1.1%)</text>
<circle cx="516" cy="216" r="6" fill="#f34b7d" />
<text x="527" y="220" font-size="15" font-family="sans-serif" fill="#FFF">C++ (1.9k lines, 1.0%)</text>
<circle cx="16" cy="236" r="6" fill="#000000" />
<text x="27" y="240" font-size="15" font-family="sans-serif" fill="#FFF">Batch (1.6k lines, 0.8%)</text>
<circle cx="266" cy="236" r="6" fill="#000000" />
<text x="277" y="240" font-size="15" font-family="sans-serif" fill="#FFF">WebGPU Shad… (760 lines, 0.4%)</text>
<circle cx="516" cy="236" r="6" fill="#DA3434" />
<text x="527" y="240" font-size="15" font-family="sans-serif" fill="#FFF">CMake (685 lines, 0.4%)</text>
<circle cx="16" cy="256" r="6" fill="#427819" />
<text x="27" y="260" font-size="15" font-family="sans-serif" fill="#FFF">Makefile (676 lines, 0.4%)</text>
<circle cx="266" cy="256" r="6" fill="#000000" />
<text x="277" y="260" font-size="15" font-family="sans-serif" fill="#FFF">Cabal (536 lines, 0.3%)</text>
<circle cx="516" cy="256" r="6" fill="#000000" />
<text x="527" y="260" font-size="15" font-family="sans-serif" fill="#FFF">Templ (439 lines, 0.2%)</text>
<circle cx="16" cy="276" r="6" fill="#199f4b" />
<text x="27" y="280" font-size="15" font-family="sans-serif" fill="#FFF">Vim Script (287 lines, 0.2%)</text>
<circle cx="266" cy="276" r="6" fill="#B83998" />
<text x="277" y="280" font-size="15" font-family="sans-serif" fill="#FFF">Erlang (220 lines, 0.1%)</text>
<circle cx="516" cy="276" r="6" fill="#000000" />
<text x="527" y="280" font-size="15" font-family="sans-serif" fill="#FFF">Bitbake (163 lines, 0.1%)</text>
<circle cx="16" cy="296" r="6" fill="#db5855" />
<text x="27" y="300" font-size="15" font-family="sans-serif" fill="#FFF">Clojure (156 lines, 0.1%)</text>
<circle cx="266" cy="296" r="6" fill="#0050b2" />
<text x="277" y="300" font-size="15" font-family="sans-serif" fill="#FFF">FreeMarker (103 lines, 0.1%)</text>
<circle cx="516" cy="296" r="6" fill="#701516" />
<text x="527" y="300" font-size="15" font-family="sans-serif" fill="#FFF">Ruby (100 lines, 0.1%)</text>
</svg>