<svg width="800" height="350" xmlns="http://www.w3.org/2000/svg">
<rect width="800" height="350" fill="#212830"/>
<rect x="10" y="40" width="193.19164548337218" height="50" fill="#3572A5"/>
<rect x="203.19164548337218" y="40" width="114.07531643911005" height="50" fill="#dea584"/>
<rect x="317.2669619224822" y="40" width="76.13144998558661" height="50" fill="#555555"/>
<rect x="393.39841190806885" y="40" width="62.70080452842055" height="50" fill="#b07219"/>
<rect x="456.0992164364894" y="40" width="56.112581566602906" height="50" fill="#c22d40"/>
<rect x="512.2117980030923" y="40" width="49.09719856390367" height="50" fill="#00B4AB"/>
<rect x="561.308996566996" y="40" width="46.154249325191955" height="50" fill="#A97BFF"/>
<rect x="607.463245892188" y="40" width="36.86679420320239" height="50" fill="#3D6117"/>
<rect x="644.3300400953904" y="40" width="30.181608532718364" height="50" fill="None"/>
<rect x="674.5116486281087" y="40" width="24.180403050394403" height="50" fill="#5e5086"/>
<rect x="698.692051678503" y="40" width="24.049372363007414" height="50" fill="#000000"/>
<rect x="722.7414240415104" y="40" width="14.392410702586544" height="50" fill="#ec915c"/>
<rect x="737.1338347440969" y="40" width="14.279724311433737" height="50" fill="#89e051"/>
<rect x="751.4135590555306" y="40" width="12.219921905710317" height="50" fill="#239dad"/>
<rect x="763.6334809612409" y="40" width="8.91270735606279" height="50" fill="#000000"/>
<rect x="772.5461883173037" y="40" width="8.129143845488613" height="50" fill="#000080"/>
<rect x="780.6753321627923" y="40" width="5.613354647658482" height="50" fill="#000000"/>
<rect x="786.2886868104508" y="40" width="5.049922691894442" height="50" fill="#f34b7d"/>
<rect x="791.3386095023453" y="40" width="4.31090961503184" height="50" fill="#000000"/>
<rect x="795.6495191173772" y="40" width="2.337587462983831" height="50" fill="#427819"/>
<rect x="797.987106580361" y="40" width="2.298278256767735" height="50" fill="#000000"/>
<rect x="800.2853848371287" y="40" width="1.7951204172017086" height="50" fill="#DA3434"/>
<rect x="802.0805052543304" y="40" width="1.603815613616709" height="50" fill="#41b883"/>
<rect x="803.6843208679471" y="40" width="1.4046489687884902" height="50" fill="#000000"/>
<rect x="805.0889698367356" y="40" width="1.1504494352577375" height="50" fill="#000000"/>
<rect x="806.2394192719934" y="40" width="0.8019078068083545" height="50" fill="#384d54"/>
<rect x="807.0413270788017" y="40" width="0.7521161456012997" height="50" fill="#199f4b"/>
<rect x="807.7934432244031" y="40" width="0.5765350245027385" height="50" fill="#B83998"/>
<rect x="808.3699782489058" y="40" width="0.4271600408815745" height="50" fill="#000000"/>
<rect x="808.7971382897874" y="40" width="0.40881574464739645" height="50" fill="#db5855"/>
<rect x="809.2059540344349" y="40" width="0.2699232160171912" height="50" fill="#0050b2"/>
<rect x="809.4758772504521" y="40" width="0.26206137477397207" height="50" fill="#000000"/>
<rect x="809.7379386252261" y="40" width="0.26206137477397207" height="50" fill="#701516"/>
<circle cx="16" cy="116" r="6" fill="#3572A5" />
<text x="27" y="120" font-size="15" font-family="sans-serif" fill="#FFF">Python (73.7k lines, 24.1%)</text>
<circle cx="266" cy="116" r="6" fill="#dea584" />
<text x="277" y="120" font-size="15" font-family="sans-serif" fill="#FFF">Rust (43.5k lines, 14.3%)</text>
<circle cx="516" cy="116" r="6" fill="#555555" />
<text x="527" y="120" font-size="15" font-family="sans-serif" fill="#FFF">C (29.1k lines, 9.5%)</text>
<circle cx="16" cy="136" r="6" fill="#b07219" />
<text x="27" y="140" font-size="15" font-family="sans-serif" fill="#FFF">Java (23.9k lines, 7.8%)</text>
<circle cx="266" cy="136" r="6" fill="#c22d40" />
<text x="277" y="140" font-size="15" font-family="sans-serif" fill="#FFF">Scala (21.4k lines, 7.0%)</text>
<circle cx="516" cy="136" r="6" fill="#00B4AB" />
<text x="527" y="140" font-size="15" font-family="sans-serif" fill="#FFF">Dart (18.7k lines, 6.1%)</text>
<circle cx="16" cy="156" r="6" fill="#A97BFF" />
<text x="27" y="160" font-size="15" font-family="sans-serif" fill="#FFF">Kotlin (17.6k lines, 5.8%)</text>
<circle cx="266" cy="156" r="6" fill="#3D6117" />
<text x="277" y="160" font-size="15" font-family="sans-serif" fill="#FFF">TeX (14.1k lines, 4.6%)</text>
<circle cx="516" cy="156" r="6" fill="None" />
<text x="527" y="160" font-size="15" font-family="sans-serif" fill="#FFF">Lean (11.5k lines, 3.8%)</text>
<circle cx="16" cy="176" r="6" fill="#5e5086" />
<text x="27" y="180" font-size="15" font-family="sans-serif" fill="#FFF">Haskell (9.2k lines, 3.0%)</text>
<circle cx="266" cy="176" r="6" fill="#000000" />
<text x="277" y="180" font-size="15" font-family="sans-serif" fill="#FFF">C Header (9.2k lines, 3.0%)</text>
<circle cx="516" cy="176" r="6" fill="#ec915c" />
<text x="527" y="180" font-size="15" font-family="sans-serif" fill="#FFF">Zig (5.5k lines, 1.8%)</text>
<circle cx="16" cy="196" r="6" fill="#89e051" />
<text x="27" y="200" font-size="15" font-family="sans-serif" fill="#FFF">Shell (5.4k lines, 1.8%)</text>
<circle cx="266" cy="196" r="6" fill="#239dad" />
<text x="277" y="200" font-size="15" font-family="sans-serif" fill="#FFF">Typst (4.7k lines, 1.5%)</text>
<circle cx="516" cy="196" r="6" fill="#000000" />
<text x="527" y="200" font-size="15" font-family="sans-serif" fill="#FFF">Jupyter Not… (3.4k lines, 1.1%)</text>
<circle cx="16" cy="216" r="6" fill="#000080" />
<text x="27" y="220" font-size="15" font-family="sans-serif" fill="#FFF">Lua (3.1k lines, 1.0%)</text>
<circle cx="266" cy="216" r="6" fill="#000000" />
<text x="277" y="220" font-size="15" font-family="sans-serif" fill="#FFF">GNU Style A… (2.1k lines, 0.7%)</text>
<circle cx="516" cy="216" r="6" fill="#f34b7d" />
<text x="527" y="220" font-size="15" font-family="sans-serif" fill="#FFF">C++ (1.9k lines, 0.6%)</text>
<circle cx="16" cy="236" r="6" fill="#000000" />
<text x="27" y="240" font-size="15" font-family="sans-serif" fill="#FFF">Batch (1.6k lines, 0.5%)</text>
<circle cx="266" cy="236" r="6" fill="#427819" />
<text x="277" y="240" font-size="15" font-family="sans-serif" fill="#FFF">Makefile (892 lines, 0.3%)</text>
<circle cx="516" cy="236" r="6" fill="#000000" />
<text x="527" y="240" font-size="15" font-family="sans-serif" fill="#FFF">WebGPU Shad… (877 lines, 0.3%)</text>
<circle cx="16" cy="256" r="6" fill="#DA3434" />
<text x="27" y="260" font-size="15" font-family="sans-serif" fill="#FFF">CMake (685 lines, 0.2%)</text>
<circle cx="266" cy="256" r="6" fill="#41b883" />
<text x="277" y="260" font-size="15" font-family="sans-serif" fill="#FFF">Vue (612 lines, 0.2%)</text>
<circle cx="516" cy="256" r="6" fill="#000000" />
<text x="527" y="260" font-size="15" font-family="sans-serif" fill="#FFF">Cabal (536 lines, 0.2%)</text>
<circle cx="16" cy="276" r="6" fill="#000000" />
<text x="27" y="280" font-size="15" font-family="sans-serif" fill="#FFF">Templ (439 lines, 0.1%)</text>
<circle cx="266" cy="276" r="6" fill="#384d54" />
<text x="277" y="280" font-size="15" font-family="sans-serif" fill="#FFF">Just (306 lines, 0.1%)</text>
<circle cx="516" cy="276" r="6" fill="#199f4b" />
<text x="527" y="280" font-size="15" font-family="sans-serif" fill="#FFF">Vim Script (287 lines, 0.1%)</text>
<circle cx="16" cy="296" r="6" fill="#B83998" />
<text x="27" y="300" font-size="15" font-family="sans-serif" fill="#FFF">Erlang (220 lines, 0.1%)</text>
<circle cx="266" cy="296" r="6" fill="#000000" />
<text x="277" y="300" font-size="15" font-family="sans-serif" fill="#FFF">Bitbake (163 lines, 0.1%)</text>
<circle cx="516" cy="296" r="6" fill="#db5855" />
<text x="527" y="300" font-size="15" font-family="sans-serif" fill="#FFF">Clojure (156 lines, 0.1%)</text>
<circle cx="16" cy="316" r="6" fill="#0050b2" />
<text x="27" y="320" font-size="15" font-family="sans-serif" fill="#FFF">FreeMarker (103 lines, 0.0%)</text>
<circle cx="266" cy="316" r="6" fill="#000000" />
<text x="277" y="320" font-size="15" font-family="sans-serif" fill="#FFF">Fish (100 lines, 0.0%)</text>
<circle cx="516" cy="316" r="6" fill="#701516" />
<text x="527" y="320" font-size="15" font-family="sans-serif" fill="#FFF">Ruby (100 lines, 0.0%)</text>
</svg>