<svg width="800" height="350" xmlns="http://www.w3.org/2000/svg">
<rect x="10" y="40" width="131.18343663136895" height="50" fill="#555555"/>
<rect x="141.18343663136895" y="40" width="116.4204341558655" height="50" fill="#b07219"/>
<rect x="257.6038707872344" y="40" width="99.87166308823618" height="50" fill="#c22d40"/>
<rect x="357.4755338754706" y="40" width="89.41007596815298" height="50" fill="#A97BFF"/>
<rect x="446.88560984362357" y="40" width="62.26347385515568" height="50" fill="#00B4AB"/>
<rect x="509.14908369877924" y="40" width="44.79505629185395" height="50" fill="#5e5086"/>
<rect x="553.9441399906332" y="40" width="43.023885263151485" height="50" fill="#000000"/>
<rect x="596.9680252537846" y="40" width="40.16762868664505" height="50" fill="#3D6117"/>
<rect x="637.1356539404296" y="40" width="33.05861529946293" height="50" fill="#3572A5"/>
<rect x="670.1942692398925" y="40" width="24.509308987841447" height="50" fill="#89e051"/>
<rect x="694.7035782277339" y="40" width="23.72104056297936" height="50" fill="None"/>
<rect x="718.4246187907133" y="40" width="12.777733849924882" height="50" fill="#239dad"/>
<rect x="731.2023526406382" y="40" width="11.72184342896765" height="50" fill="#000080"/>
<rect x="742.9241960696058" y="40" width="10.422660284287549" height="50" fill="#000000"/>
<rect x="753.3468563538934" y="40" width="9.031025904592758" height="50" fill="#dea584"/>
<rect x="762.3778822584861" y="40" width="8.038391591803467" height="50" fill="#000000"/>
<rect x="770.4162738502896" y="40" width="7.61992810700014" height="50" fill="#f34b7d"/>
<rect x="778.0362019572898" y="40" width="7.61992810700014" height="50" fill="#e38c00"/>
<rect x="785.65613006429" y="40" width="4.204098265931112" height="50" fill="#ec915c"/>
<rect x="789.860228330221" y="40" width="3.6980494005875517" height="50" fill="#000000"/>
<rect x="793.5582777308086" y="40" width="3.3331103150032546" height="50" fill="#DA3434"/>
<rect x="796.8913880458119" y="40" width="2.6080979983091153" height="50" fill="#000000"/>
<rect x="799.499486044121" y="40" width="2.418329673805281" height="50" fill="#427819"/>
<rect x="801.9178157179263" y="40" width="2.136110114286757" height="50" fill="#000000"/>
<rect x="804.053925832213" y="40" width="1.5278783049795939" height="50" fill="#384d54"/>
<rect x="805.5818041371926" y="40" width="1.070487984380607" height="50" fill="#B83998"/>
<rect x="806.6522921215733" y="40" width="0.8077318427599125" height="50" fill="#199f4b"/>
<rect x="807.4600239643332" y="40" width="0.7931342793365407" height="50" fill="#000000"/>
<rect x="808.2531582436698" y="40" width="0.7590732980153396" height="50" fill="#db5855"/>
<rect x="809.0122315416851" y="40" width="0.5011830108691024" height="50" fill="#0050b2"/>
<rect x="809.5134145525542" y="40" width="0.4865854474457305" height="50" fill="#701516"/>
<circle cx="16" cy="116" r="6" fill="#555555" />
<text x="27" y="120" font-size="15" font-family="sans-serif" fill="#FFF">C (27.0k lines, 16.4%)</text>
<circle cx="266" cy="116" r="6" fill="#b07219" />
<text x="277" y="120" font-size="15" font-family="sans-serif" fill="#FFF">Java (23.9k lines, 14.6%)</text>
<circle cx="516" cy="116" r="6" fill="#c22d40" />
<text x="527" y="120" font-size="15" font-family="sans-serif" fill="#FFF">Scala (20.5k lines, 12.5%)</text>
<circle cx="16" cy="136" r="6" fill="#A97BFF" />
<text x="27" y="140" font-size="15" font-family="sans-serif" fill="#FFF">Kotlin (18.4k lines, 11.2%)</text>
<circle cx="266" cy="136" r="6" fill="#00B4AB" />
<text x="277" y="140" font-size="15" font-family="sans-serif" fill="#FFF">Dart (12.8k lines, 7.8%)</text>
<circle cx="516" cy="136" r="6" fill="#5e5086" />
<text x="527" y="140" font-size="15" font-family="sans-serif" fill="#FFF">Haskell (9.2k lines, 5.6%)</text>
<circle cx="16" cy="156" r="6" fill="#000000" />
<text x="27" y="160" font-size="15" font-family="sans-serif" fill="#FFF">C Header (8.8k lines, 5.4%)</text>
<circle cx="266" cy="156" r="6" fill="#3D6117" />
<text x="277" y="160" font-size="15" font-family="sans-serif" fill="#FFF">TeX (8.3k lines, 5.0%)</text>
<circle cx="516" cy="156" r="6" fill="#3572A5" />
<text x="527" y="160" font-size="15" font-family="sans-serif" fill="#FFF">Python (6.8k lines, 4.1%)</text>
<circle cx="16" cy="176" r="6" fill="#89e051" />
<text x="27" y="180" font-size="15" font-family="sans-serif" fill="#FFF">Shell (5.0k lines, 3.1%)</text>
<circle cx="266" cy="176" r="6" fill="None" />
<text x="277" y="180" font-size="15" font-family="sans-serif" fill="#FFF">Lean (4.9k lines, 3.0%)</text>
<circle cx="516" cy="176" r="6" fill="#239dad" />
<text x="527" y="180" font-size="15" font-family="sans-serif" fill="#FFF">Typst (2.6k lines, 1.6%)</text>
<circle cx="16" cy="196" r="6" fill="#000080" />
<text x="27" y="200" font-size="15" font-family="sans-serif" fill="#FFF">Lua (2.4k lines, 1.5%)</text>
<circle cx="266" cy="196" r="6" fill="#000000" />
<text x="277" y="200" font-size="15" font-family="sans-serif" fill="#FFF">GNU Style A… (2.1k lines, 1.3%)</text>
<circle cx="516" cy="196" r="6" fill="#dea584" />
<text x="527" y="200" font-size="15" font-family="sans-serif" fill="#FFF">Rust (1.9k lines, 1.1%)</text>
<circle cx="16" cy="216" r="6" fill="#000000" />
<text x="27" y="220" font-size="15" font-family="sans-serif" fill="#FFF">Batch (1.7k lines, 1.0%)</text>
<circle cx="266" cy="216" r="6" fill="#f34b7d" />
<text x="277" y="220" font-size="15" font-family="sans-serif" fill="#FFF">C++ (1.6k lines, 1.0%)</text>
<circle cx="516" cy="216" r="6" fill="#e38c00" />
<text x="527" y="220" font-size="15" font-family="sans-serif" fill="#FFF">SQL (1.6k lines, 1.0%)</text>
<circle cx="16" cy="236" r="6" fill="#ec915c" />
<text x="27" y="240" font-size="15" font-family="sans-serif" fill="#FFF">Zig (864 lines, 0.5%)</text>
<circle cx="266" cy="236" r="6" fill="#000000" />
<text x="277" y="240" font-size="15" font-family="sans-serif" fill="#FFF">WebGPU Shad… (760 lines, 0.5%)</text>
<circle cx="516" cy="236" r="6" fill="#DA3434" />
<text x="527" y="240" font-size="15" font-family="sans-serif" fill="#FFF">CMake (685 lines, 0.4%)</text>
<circle cx="16" cy="256" r="6" fill="#000000" />
<text x="27" y="260" font-size="15" font-family="sans-serif" fill="#FFF">Cabal (536 lines, 0.3%)</text>
<circle cx="266" cy="256" r="6" fill="#427819" />
<text x="277" y="260" font-size="15" font-family="sans-serif" fill="#FFF">Makefile (497 lines, 0.3%)</text>
<circle cx="516" cy="256" r="6" fill="#000000" />
<text x="527" y="260" font-size="15" font-family="sans-serif" fill="#FFF">Templ (439 lines, 0.3%)</text>
<circle cx="16" cy="276" r="6" fill="#384d54" />
<text x="27" y="280" font-size="15" font-family="sans-serif" fill="#FFF">Dockerfile (314 lines, 0.2%)</text>
<circle cx="266" cy="276" r="6" fill="#B83998" />
<text x="277" y="280" font-size="15" font-family="sans-serif" fill="#FFF">Erlang (220 lines, 0.1%)</text>
<circle cx="516" cy="276" r="6" fill="#199f4b" />
<text x="527" y="280" font-size="15" font-family="sans-serif" fill="#FFF">Vim Script (166 lines, 0.1%)</text>
<circle cx="16" cy="296" r="6" fill="#000000" />
<text x="27" y="300" font-size="15" font-family="sans-serif" fill="#FFF">Bitbake (163 lines, 0.1%)</text>
<circle cx="266" cy="296" r="6" fill="#db5855" />
<text x="277" y="300" font-size="15" font-family="sans-serif" fill="#FFF">Clojure (156 lines, 0.1%)</text>
<circle cx="516" cy="296" r="6" fill="#0050b2" />
<text x="527" y="300" font-size="15" font-family="sans-serif" fill="#FFF">FreeMarker (103 lines, 0.1%)</text>
<circle cx="16" cy="316" r="6" fill="#701516" />
<text x="27" y="320" font-size="15" font-family="sans-serif" fill="#FFF">Ruby (100 lines, 0.1%)</text>
</svg>