<svg width="800" height="350" xmlns="http://www.w3.org/2000/svg">
<rect x="10" y="40" width="131.24011196300353" height="50" fill="#555555"/>
<rect x="141.24011196300353" y="40" width="116.47073141049044" height="50" fill="#b07219"/>
<rect x="257.71084337349396" y="40" width="99.91481075818425" height="50" fill="#c22d40"/>
<rect x="357.6256541316782" y="40" width="89.44870390653523" height="50" fill="#A97BFF"/>
<rect x="447.0743580382134" y="40" width="62.290373615674824" height="50" fill="#00B4AB"/>
<rect x="509.3647316538882" y="40" width="44.81440915175855" height="50" fill="#5e5086"/>
<rect x="554.1791408056467" y="40" width="43.04247292199099" height="50" fill="#000000"/>
<rect x="597.2216137276378" y="40" width="40.18498235365705" height="50" fill="#3D6117"/>
<rect x="637.4065960812948" y="40" width="33.0728976512109" height="50" fill="#3572A5"/>
<rect x="670.4794937325057" y="40" width="24.51989777290982" height="50" fill="#89e051"/>
<rect x="694.9993915054156" y="40" width="23.731288791529757" height="50" fill="None"/>
<rect x="718.7306802969454" y="40" width="12.437629305099186" height="50" fill="#239dad"/>
<rect x="731.1683096020446" y="40" width="11.726907630522089" height="50" fill="#000080"/>
<rect x="742.8952172325667" y="40" width="10.427163198247536" height="50" fill="#000000"/>
<rect x="753.3223804308142" y="40" width="9.034927589144456" height="50" fill="#dea584"/>
<rect x="762.3573080199586" y="40" width="8.041864427406596" height="50" fill="#000000"/>
<rect x="770.3991724473652" y="40" width="7.623220153340634" height="50" fill="#f34b7d"/>
<rect x="778.0223926007059" y="40" width="7.623220153340634" height="50" fill="#e38c00"/>
<rect x="785.6456127540465" y="40" width="4.205914567360351" height="50" fill="#ec915c"/>
<rect x="789.8515273214068" y="40" width="3.6996470731410493" height="50" fill="#000000"/>
<rect x="793.5511743945478" y="40" width="3.33455032250213" height="50" fill="#DA3434"/>
<rect x="796.8857247170499" y="40" width="2.6092247778994766" height="50" fill="#000000"/>
<rect x="799.4949494949494" y="40" width="2.4193744675672386" height="50" fill="#427819"/>
<rect x="801.9143239625166" y="40" width="2.1370329804064743" height="50" fill="#000000"/>
<rect x="804.0513569429231" y="40" width="1.5285383960082757" height="50" fill="#384d54"/>
<rect x="805.5798953389314" y="40" width="1.07095046854083" height="50" fill="#B83998"/>
<rect x="806.6508458074721" y="40" width="0.8080808080808081" height="50" fill="#199f4b"/>
<rect x="807.458926615553" y="40" width="0.7934769380552512" height="50" fill="#000000"/>
<rect x="808.2524035536082" y="40" width="0.7594012413289523" height="50" fill="#db5855"/>
<rect x="809.0118047949372" y="40" width="0.5013995375441158" height="50" fill="#0050b2"/>
<rect x="809.5132043324813" y="40" width="0.4867956675185592" height="50" fill="#701516"/>
<circle cx="16" cy="116" r="6" fill="#555555" />
<text x="27" y="120" font-size="15" font-family="sans-serif" fill="#FFF">C (27.0k lines, 16.4%)</text>
<circle cx="266" cy="116" r="6" fill="#b07219" />
<text x="277" y="120" font-size="15" font-family="sans-serif" fill="#FFF">Java (23.9k lines, 14.6%)</text>
<circle cx="516" cy="116" r="6" fill="#c22d40" />
<text x="527" y="120" font-size="15" font-family="sans-serif" fill="#FFF">Scala (20.5k lines, 12.5%)</text>
<circle cx="16" cy="136" r="6" fill="#A97BFF" />
<text x="27" y="140" font-size="15" font-family="sans-serif" fill="#FFF">Kotlin (18.4k lines, 11.2%)</text>
<circle cx="266" cy="136" r="6" fill="#00B4AB" />
<text x="277" y="140" font-size="15" font-family="sans-serif" fill="#FFF">Dart (12.8k lines, 7.8%)</text>
<circle cx="516" cy="136" r="6" fill="#5e5086" />
<text x="527" y="140" font-size="15" font-family="sans-serif" fill="#FFF">Haskell (9.2k lines, 5.6%)</text>
<circle cx="16" cy="156" r="6" fill="#000000" />
<text x="27" y="160" font-size="15" font-family="sans-serif" fill="#FFF">C Header (8.8k lines, 5.4%)</text>
<circle cx="266" cy="156" r="6" fill="#3D6117" />
<text x="277" y="160" font-size="15" font-family="sans-serif" fill="#FFF">TeX (8.3k lines, 5.0%)</text>
<circle cx="516" cy="156" r="6" fill="#3572A5" />
<text x="527" y="160" font-size="15" font-family="sans-serif" fill="#FFF">Python (6.8k lines, 4.1%)</text>
<circle cx="16" cy="176" r="6" fill="#89e051" />
<text x="27" y="180" font-size="15" font-family="sans-serif" fill="#FFF">Shell (5.0k lines, 3.1%)</text>
<circle cx="266" cy="176" r="6" fill="None" />
<text x="277" y="180" font-size="15" font-family="sans-serif" fill="#FFF">Lean (4.9k lines, 3.0%)</text>
<circle cx="516" cy="176" r="6" fill="#239dad" />
<text x="527" y="180" font-size="15" font-family="sans-serif" fill="#FFF">Typst (2.6k lines, 1.6%)</text>
<circle cx="16" cy="196" r="6" fill="#000080" />
<text x="27" y="200" font-size="15" font-family="sans-serif" fill="#FFF">Lua (2.4k lines, 1.5%)</text>
<circle cx="266" cy="196" r="6" fill="#000000" />
<text x="277" y="200" font-size="15" font-family="sans-serif" fill="#FFF">GNU Style A… (2.1k lines, 1.3%)</text>
<circle cx="516" cy="196" r="6" fill="#dea584" />
<text x="527" y="200" font-size="15" font-family="sans-serif" fill="#FFF">Rust (1.9k lines, 1.1%)</text>
<circle cx="16" cy="216" r="6" fill="#000000" />
<text x="27" y="220" font-size="15" font-family="sans-serif" fill="#FFF">Batch (1.7k lines, 1.0%)</text>
<circle cx="266" cy="216" r="6" fill="#f34b7d" />
<text x="277" y="220" font-size="15" font-family="sans-serif" fill="#FFF">C++ (1.6k lines, 1.0%)</text>
<circle cx="516" cy="216" r="6" fill="#e38c00" />
<text x="527" y="220" font-size="15" font-family="sans-serif" fill="#FFF">SQL (1.6k lines, 1.0%)</text>
<circle cx="16" cy="236" r="6" fill="#ec915c" />
<text x="27" y="240" font-size="15" font-family="sans-serif" fill="#FFF">Zig (864 lines, 0.5%)</text>
<circle cx="266" cy="236" r="6" fill="#000000" />
<text x="277" y="240" font-size="15" font-family="sans-serif" fill="#FFF">WebGPU Shad… (760 lines, 0.5%)</text>
<circle cx="516" cy="236" r="6" fill="#DA3434" />
<text x="527" y="240" font-size="15" font-family="sans-serif" fill="#FFF">CMake (685 lines, 0.4%)</text>
<circle cx="16" cy="256" r="6" fill="#000000" />
<text x="27" y="260" font-size="15" font-family="sans-serif" fill="#FFF">Cabal (536 lines, 0.3%)</text>
<circle cx="266" cy="256" r="6" fill="#427819" />
<text x="277" y="260" font-size="15" font-family="sans-serif" fill="#FFF">Makefile (497 lines, 0.3%)</text>
<circle cx="516" cy="256" r="6" fill="#000000" />
<text x="527" y="260" font-size="15" font-family="sans-serif" fill="#FFF">Templ (439 lines, 0.3%)</text>
<circle cx="16" cy="276" r="6" fill="#384d54" />
<text x="27" y="280" font-size="15" font-family="sans-serif" fill="#FFF">Dockerfile (314 lines, 0.2%)</text>
<circle cx="266" cy="276" r="6" fill="#B83998" />
<text x="277" y="280" font-size="15" font-family="sans-serif" fill="#FFF">Erlang (220 lines, 0.1%)</text>
<circle cx="516" cy="276" r="6" fill="#199f4b" />
<text x="527" y="280" font-size="15" font-family="sans-serif" fill="#FFF">Vim Script (166 lines, 0.1%)</text>
<circle cx="16" cy="296" r="6" fill="#000000" />
<text x="27" y="300" font-size="15" font-family="sans-serif" fill="#FFF">Bitbake (163 lines, 0.1%)</text>
<circle cx="266" cy="296" r="6" fill="#db5855" />
<text x="277" y="300" font-size="15" font-family="sans-serif" fill="#FFF">Clojure (156 lines, 0.1%)</text>
<circle cx="516" cy="296" r="6" fill="#0050b2" />
<text x="527" y="300" font-size="15" font-family="sans-serif" fill="#FFF">FreeMarker (103 lines, 0.1%)</text>
<circle cx="16" cy="316" r="6" fill="#701516" />
<text x="27" y="320" font-size="15" font-family="sans-serif" fill="#FFF">Ruby (100 lines, 0.1%)</text>
</svg>