<svg width="800" height="350" xmlns="http://www.w3.org/2000/svg">
<rect x="10" y="40" width="131.21935193409828" height="50" fill="#555555"/>
<rect x="141.21935193409828" y="40" width="116.4523076548678" height="50" fill="#b07219"/>
<rect x="257.67165958896607" y="40" width="99.89900587712788" height="50" fill="#c22d40"/>
<rect x="357.57066546609394" y="40" width="89.4345545915822" height="50" fill="#A97BFF"/>
<rect x="447.0052200576761" y="40" width="62.2805203022523" height="50" fill="#00B4AB"/>
<rect x="509.2857403599284" y="40" width="44.80732024871324" height="50" fill="#5e5086"/>
<rect x="554.0930606086416" y="40" width="43.035664310137136" height="50" fill="#000000"/>
<rect x="597.1287249187787" y="40" width="40.178625749850944" height="50" fill="#3D6117"/>
<rect x="637.3073506686297" y="40" width="33.06766606232433" height="50" fill="#3572A5"/>
<rect x="670.375016730954" y="40" width="24.516019128043514" height="50" fill="#89e051"/>
<rect x="694.8910358589975" y="40" width="23.87355049097745" height="50" fill="None"/>
<rect x="718.7645863499749" y="40" width="12.41619312996605" height="50" fill="#239dad"/>
<rect x="731.180779479941" y="40" width="11.725052626455593" height="50" fill="#000080"/>
<rect x="742.9058321063966" y="40" width="10.425513792390154" height="50" fill="#000000"/>
<rect x="753.3313458987867" y="40" width="9.033498412080357" height="50" fill="#dea584"/>
<rect x="762.364844310867" y="40" width="8.040592336614628" height="50" fill="#000000"/>
<rect x="770.4054366474817" y="40" width="7.622014285192802" height="50" fill="#f34b7d"/>
<rect x="778.0274509326745" y="40" width="7.622014285192802" height="50" fill="#e38c00"/>
<rect x="785.6494652178673" y="40" width="4.205249260796029" height="50" fill="#ec915c"/>
<rect x="789.8547144786633" y="40" width="3.699061849774284" height="50" fill="#000000"/>
<rect x="793.5537763284375" y="40" width="3.3340228514412957" height="50" fill="#DA3434"/>
<rect x="796.8877991798788" y="40" width="2.6088120414197586" height="50" fill="#000000"/>
<rect x="799.4966112212986" y="40" width="2.418991762286604" height="50" fill="#427819"/>
<rect x="801.9156029835852" y="40" width="2.1366949369090933" height="50" fill="#000000"/>
<rect x="804.0522979204943" y="40" width="1.5282966063541121" height="50" fill="#384d54"/>
<rect x="805.5805945268485" y="40" width="1.0707810617767666" height="50" fill="#B83998"/>
<rect x="806.6513755886252" y="40" width="0.8079529829770147" height="50" fill="#199f4b"/>
<rect x="807.4593285716022" y="40" width="0.7933514230436952" height="50" fill="#000000"/>
<rect x="808.2526799946459" y="40" width="0.7592811165326162" height="50" fill="#db5855"/>
<rect x="809.0119611111785" y="40" width="0.5013202243773043" height="50" fill="#0050b2"/>
<rect x="809.5132813355558" y="40" width="0.48671866444398476" height="50" fill="#701516"/>
<circle cx="16" cy="116" r="6" fill="#555555" />
<text x="27" y="120" font-size="15" font-family="sans-serif" fill="#FFF">C (27.0k lines, 16.4%)</text>
<circle cx="266" cy="116" r="6" fill="#b07219" />
<text x="277" y="120" font-size="15" font-family="sans-serif" fill="#FFF">Java (23.9k lines, 14.6%)</text>
<circle cx="516" cy="116" r="6" fill="#c22d40" />
<text x="527" y="120" font-size="15" font-family="sans-serif" fill="#FFF">Scala (20.5k lines, 12.5%)</text>
<circle cx="16" cy="136" r="6" fill="#A97BFF" />
<text x="27" y="140" font-size="15" font-family="sans-serif" fill="#FFF">Kotlin (18.4k lines, 11.2%)</text>
<circle cx="266" cy="136" r="6" fill="#00B4AB" />
<text x="277" y="140" font-size="15" font-family="sans-serif" fill="#FFF">Dart (12.8k lines, 7.8%)</text>
<circle cx="516" cy="136" r="6" fill="#5e5086" />
<text x="527" y="140" font-size="15" font-family="sans-serif" fill="#FFF">Haskell (9.2k lines, 5.6%)</text>
<circle cx="16" cy="156" r="6" fill="#000000" />
<text x="27" y="160" font-size="15" font-family="sans-serif" fill="#FFF">C Header (8.8k lines, 5.4%)</text>
<circle cx="266" cy="156" r="6" fill="#3D6117" />
<text x="277" y="160" font-size="15" font-family="sans-serif" fill="#FFF">TeX (8.3k lines, 5.0%)</text>
<circle cx="516" cy="156" r="6" fill="#3572A5" />
<text x="527" y="160" font-size="15" font-family="sans-serif" fill="#FFF">Python (6.8k lines, 4.1%)</text>
<circle cx="16" cy="176" r="6" fill="#89e051" />
<text x="27" y="180" font-size="15" font-family="sans-serif" fill="#FFF">Shell (5.0k lines, 3.1%)</text>
<circle cx="266" cy="176" r="6" fill="None" />
<text x="277" y="180" font-size="15" font-family="sans-serif" fill="#FFF">Lean (4.9k lines, 3.0%)</text>
<circle cx="516" cy="176" r="6" fill="#239dad" />
<text x="527" y="180" font-size="15" font-family="sans-serif" fill="#FFF">Typst (2.6k lines, 1.6%)</text>
<circle cx="16" cy="196" r="6" fill="#000080" />
<text x="27" y="200" font-size="15" font-family="sans-serif" fill="#FFF">Lua (2.4k lines, 1.5%)</text>
<circle cx="266" cy="196" r="6" fill="#000000" />
<text x="277" y="200" font-size="15" font-family="sans-serif" fill="#FFF">GNU Style A… (2.1k lines, 1.3%)</text>
<circle cx="516" cy="196" r="6" fill="#dea584" />
<text x="527" y="200" font-size="15" font-family="sans-serif" fill="#FFF">Rust (1.9k lines, 1.1%)</text>
<circle cx="16" cy="216" r="6" fill="#000000" />
<text x="27" y="220" font-size="15" font-family="sans-serif" fill="#FFF">Batch (1.7k lines, 1.0%)</text>
<circle cx="266" cy="216" r="6" fill="#f34b7d" />
<text x="277" y="220" font-size="15" font-family="sans-serif" fill="#FFF">C++ (1.6k lines, 1.0%)</text>
<circle cx="516" cy="216" r="6" fill="#e38c00" />
<text x="527" y="220" font-size="15" font-family="sans-serif" fill="#FFF">SQL (1.6k lines, 1.0%)</text>
<circle cx="16" cy="236" r="6" fill="#ec915c" />
<text x="27" y="240" font-size="15" font-family="sans-serif" fill="#FFF">Zig (864 lines, 0.5%)</text>
<circle cx="266" cy="236" r="6" fill="#000000" />
<text x="277" y="240" font-size="15" font-family="sans-serif" fill="#FFF">WebGPU Shad… (760 lines, 0.5%)</text>
<circle cx="516" cy="236" r="6" fill="#DA3434" />
<text x="527" y="240" font-size="15" font-family="sans-serif" fill="#FFF">CMake (685 lines, 0.4%)</text>
<circle cx="16" cy="256" r="6" fill="#000000" />
<text x="27" y="260" font-size="15" font-family="sans-serif" fill="#FFF">Cabal (536 lines, 0.3%)</text>
<circle cx="266" cy="256" r="6" fill="#427819" />
<text x="277" y="260" font-size="15" font-family="sans-serif" fill="#FFF">Makefile (497 lines, 0.3%)</text>
<circle cx="516" cy="256" r="6" fill="#000000" />
<text x="527" y="260" font-size="15" font-family="sans-serif" fill="#FFF">Templ (439 lines, 0.3%)</text>
<circle cx="16" cy="276" r="6" fill="#384d54" />
<text x="27" y="280" font-size="15" font-family="sans-serif" fill="#FFF">Dockerfile (314 lines, 0.2%)</text>
<circle cx="266" cy="276" r="6" fill="#B83998" />
<text x="277" y="280" font-size="15" font-family="sans-serif" fill="#FFF">Erlang (220 lines, 0.1%)</text>
<circle cx="516" cy="276" r="6" fill="#199f4b" />
<text x="527" y="280" font-size="15" font-family="sans-serif" fill="#FFF">Vim Script (166 lines, 0.1%)</text>
<circle cx="16" cy="296" r="6" fill="#000000" />
<text x="27" y="300" font-size="15" font-family="sans-serif" fill="#FFF">Bitbake (163 lines, 0.1%)</text>
<circle cx="266" cy="296" r="6" fill="#db5855" />
<text x="277" y="300" font-size="15" font-family="sans-serif" fill="#FFF">Clojure (156 lines, 0.1%)</text>
<circle cx="516" cy="296" r="6" fill="#0050b2" />
<text x="527" y="300" font-size="15" font-family="sans-serif" fill="#FFF">FreeMarker (103 lines, 0.1%)</text>
<circle cx="16" cy="316" r="6" fill="#701516" />
<text x="27" y="320" font-size="15" font-family="sans-serif" fill="#FFF">Ruby (100 lines, 0.1%)</text>
</svg>